<svg xmlns="http://www.w3.org/2000/svg" width="27.842" height="25.611" viewBox="0 0 27.842 25.611">
  <g id="assignment_icon_svg" data-name="assignment icon_svg" transform="translate(-5.349 -3.827)">
    <path id="Path_11426" data-name="Path 11426" d="M6.115,12.717c-.051-.1.024-.071-.088-.108l.143.042.036.01.244.064c-.081-.016-.053-.026-.128.006l.056-.026c.05-.023.116-.056.185-.091s.135-.07.182-.1c.018-.046.039-.1.059-.151.032-.086.052-.141.066-.181-.045.134-.015.021.038.123L1.5,1.692l-.18-.164L.836,1.095.815,1.076l-.23-.2c.009.1.019.207.031.325l.012.121c.019.191.039.389.059.583l.022.206ZM.147,1.956c-.02-.195-.041-.394-.059-.586L.076,1.249C.05.979.029.754.016.587.009.491,0,.414,0,.359,0,.326,0,.3,0,.277A.416.416,0,0,1,0,.225C0,.184,0,.184.154.018c.222-.025.222-.025.252,0A.4.4,0,0,1,.45.048C.468.061.489.076.515.1Q.579.148.687.241c.125.107.291.254.489.431L1.2.691l.484.436.218.2.059.077L7.391,12.063a.22.22,0,0,1,.017.222c-.006.021-.013.046-.023.076-.016.047-.038.108-.065.18-.043.114-.078.2-.106.272a1.7,1.7,0,0,1-.882.443c-.067-.017-.168-.043-.268-.07l-.038-.011c-.066-.018-.122-.035-.165-.048-.027-.009-.05-.017-.069-.025a.228.228,0,0,1-.161-.14L.2,2.308.174,2.213C.169,2.163.159,2.073.147,1.956Z" transform="matrix(0.891, 0.454, -0.454, 0.891, 26.179, 7.988)" fill="#8e8e90" stroke="#8e8e90" stroke-width="0.6"/>
    <path id="Path_11427" data-name="Path 11427" d="M.542,24.469h17.61V.542H.542ZM0,0H18.695V25.011H0Z" transform="translate(5.649 4.127)" fill="#8e8e90" stroke="#8e8e90" stroke-width="0.6"/>
    <g id="Group_2796" data-name="Group 2796" transform="translate(8.102 7.832) rotate(1)">
      <path id="Path_11428" data-name="Path 11428" d="M0,.542H13.306V0H0Z" transform="translate(0 0)" fill="#8e8e90" stroke="#8e8e90" stroke-width="0.6"/>
      <path id="Path_11429" data-name="Path 11429" d="M0,.542H13.306V0H0Z" transform="translate(0 1.704)" fill="#8e8e90" stroke="#8e8e90" stroke-width="0.6"/>
      <path id="Path_11430" data-name="Path 11430" d="M0,.542H13.306V0H0Z" transform="translate(0 3.409)" fill="#8e8e90" stroke="#8e8e90" stroke-width="0.6"/>
      <path id="Path_11431" data-name="Path 11431" d="M0,.542H11.181V0H0Z" transform="translate(0 5.113)" fill="#8e8e90" stroke="#8e8e90" stroke-width="0.6"/>
    </g>
  </g>
</svg>
