<svg xmlns="http://www.w3.org/2000/svg" width="39" height="39" viewBox="0 0 39 39">
  <g id="calender_icon_svg" data-name="calender icon_svg" transform="translate(-2 -2)">
    <path id="Path_11466" data-name="Path 11466" d="M35.15,5.9H33.2V3.95a1.95,1.95,0,0,0-3.9,0V5.9H13.7V3.95A1.842,1.842,0,0,0,11.75,2,1.842,1.842,0,0,0,9.8,3.95V5.9H7.85A5.746,5.746,0,0,0,2,11.75v23.4A5.746,5.746,0,0,0,7.85,41h27.3A5.746,5.746,0,0,0,41,35.15V11.75A5.746,5.746,0,0,0,35.15,5.9ZM7.85,9.8H9.8a1.842,1.842,0,0,0,1.95,1.95A1.842,1.842,0,0,0,13.7,9.8H29.3a1.95,1.95,0,1,0,3.9,0h1.95a1.842,1.842,0,0,1,1.95,1.95V13.7H5.9V11.75A1.842,1.842,0,0,1,7.85,9.8Zm27.3,27.3H7.85A1.842,1.842,0,0,1,5.9,35.15V17.6H37.1V35.15A1.842,1.842,0,0,1,35.15,37.1ZM14.675,21.5a1.842,1.842,0,0,1-1.95,1.95h-1.95a1.842,1.842,0,0,1-1.95-1.95,1.842,1.842,0,0,1,1.95-1.95h1.95A1.842,1.842,0,0,1,14.675,21.5Zm9.75,0a1.842,1.842,0,0,1-1.95,1.95h-1.95a1.842,1.842,0,0,1-1.95-1.95,1.842,1.842,0,0,1,1.95-1.95h1.95A1.842,1.842,0,0,1,24.425,21.5Zm9.75,0a1.842,1.842,0,0,1-1.95,1.95h-1.95a1.842,1.842,0,0,1-1.95-1.95,1.842,1.842,0,0,1,1.95-1.95h1.95A1.842,1.842,0,0,1,34.175,21.5Zm-19.5,11.7a1.842,1.842,0,0,1-1.95,1.95h-1.95a1.95,1.95,0,1,1,0-3.9h1.95A1.842,1.842,0,0,1,14.675,33.2Zm0-5.85a1.842,1.842,0,0,1-1.95,1.95h-1.95a1.95,1.95,0,1,1,0-3.9h1.95A1.842,1.842,0,0,1,14.675,27.35Zm9.75,5.85a1.842,1.842,0,0,1-1.95,1.95h-1.95a1.95,1.95,0,1,1,0-3.9h1.95A1.842,1.842,0,0,1,24.425,33.2Zm9.75,0a1.842,1.842,0,0,1-1.95,1.95h-1.95a1.95,1.95,0,1,1,0-3.9h1.95A1.842,1.842,0,0,1,34.175,33.2Zm0-5.85a1.842,1.842,0,0,1-1.95,1.95h-1.95a1.95,1.95,0,1,1,0-3.9h1.95A1.842,1.842,0,0,1,34.175,27.35Zm-9.75,0a1.842,1.842,0,0,1-1.95,1.95h-1.95a1.95,1.95,0,1,1,0-3.9h1.95A1.842,1.842,0,0,1,24.425,27.35Z" transform="translate(0 0)" fill="#8858f0"/>
  </g>
</svg>
