<svg xmlns="http://www.w3.org/2000/svg" width="24.145" height="25.773" viewBox="0 0 24.145 25.773">
  <g id="classroom_svg" transform="translate(883.94 -304.7)">
    <path id="Path_11417" data-name="Path 11417" d="M31.7,6.553H10.562a1.2,1.2,0,0,0-1.2,1.2V20.981a1.2,1.2,0,0,0,1.2,1.2H31.7a1.2,1.2,0,0,0,1.2-1.2V7.755A1.2,1.2,0,0,0,31.7,6.553Zm-.041,14.366H10.6V7.91h21.06V20.919Z" transform="translate(-893 298.447)" fill="#8e8e90" stroke="#8e8e90" stroke-width="0.6"/>
    <path id="Path_11418" data-name="Path 11418" d="M38.861,62.221H37.767l1,3.567H31.608l1-3.567H31.514L29.166,70.6a.526.526,0,1,0,1.014.284l1.154-4.116h7.707L40.2,70.882a.526.526,0,1,0,1.014-.284Z" transform="translate(-907.055 258.905)" fill="#8e8e90" stroke="#8e8e90" stroke-width="0.6"/>
    <rect id="Rectangle_227" data-name="Rectangle 227" width="3.097" height="1.1" transform="translate(-866.173 317.389)" fill="#8e8e90" stroke="#8e8e90" stroke-width="0.6"/>
  </g>
</svg>
