<svg id="create_classroom_plus_icon_svg" data-name="create classroom plus icon_svg" xmlns="http://www.w3.org/2000/svg" width="40.574" height="40.574" viewBox="0 0 40.574 40.574">
  <g id="Group_3669" data-name="Group 3669">
    <path id="Path_11614" data-name="Path 11614" d="M33.328,0H7.245A7.254,7.254,0,0,0,0,7.245V33.328a7.254,7.254,0,0,0,7.245,7.245H33.328a7.254,7.254,0,0,0,7.245-7.245V7.245A7.254,7.254,0,0,0,33.328,0Zm-5.8,21.736h-5.8v5.8a1.449,1.449,0,0,1-2.9,0v-5.8h-5.8a1.449,1.449,0,1,1,0-2.9h5.8v-5.8a1.449,1.449,0,1,1,2.9,0v5.8h5.8a1.449,1.449,0,1,1,0,2.9Z" fill="#fff"/>
  </g>
</svg>
