<svg xmlns="http://www.w3.org/2000/svg" width="32" height="32" viewBox="0 0 32 32">
  <g id="notification_icon_svg" data-name="notification icon_svg" transform="translate(-1684.667 -16)">
    <g id="baseline-notification_important-24px" transform="translate(1684.667 16)">
      <path id="Path_11354" data-name="Path 11354" d="M20.8,19.669V13.31c0-3.9-1.968-7.173-5.4-8.038V4.408a1.8,1.8,0,1,0-3.6,0v.865c-3.444.865-5.4,4.121-5.4,8.038v6.359L4,22.212v1.272H23.2V22.212Zm-6,0H12.4V17.125h2.4Zm0-5.087H12.4V9.495h2.4ZM13.6,27.3A2.482,2.482,0,0,0,16,24.756H11.2A2.474,2.474,0,0,0,13.6,27.3Z" transform="translate(2.4 1.5)"/>
      <path id="Path_11355" data-name="Path 11355" d="M0,0H32V32H0Z" fill="none"/>
    </g>
    <rect id="Rectangle_202" data-name="Rectangle 202" width="7" height="13" transform="translate(1698 26)"/>
  </g>
</svg>
