<svg xmlns="http://www.w3.org/2000/svg" width="25.547" height="16.794" viewBox="0 0 25.547 16.794">
  <g id="payments_icon_svg" data-name="payments icon_svg" transform="translate(-1.2 -1027.1)">
    <path id="Path_11419" data-name="Path 11419" d="M3.251,1027.4a1.757,1.757,0,0,0-1.751,1.751v10.5a1.757,1.757,0,0,0,1.751,1.751h.438v.438a1.757,1.757,0,0,0,1.751,1.751H24.7a1.757,1.757,0,0,0,1.751-1.751v-10.5a1.757,1.757,0,0,0-1.751-1.751h-.438v-.438a1.757,1.757,0,0,0-1.751-1.751Zm0,.875H22.508a.864.864,0,0,1,.875.875v.875H2.375v-.875A.864.864,0,0,1,3.251,1028.275Zm21.008,2.188H24.7a.864.864,0,0,1,.875.875v10.5a.864.864,0,0,1-.875.875H5.439a.864.864,0,0,1-.875-.875v-.438H22.508a1.757,1.757,0,0,0,1.751-1.751v-9.191Zm-21.884.438H23.384v.875H2.375Zm0,1.751H23.384v7a.864.864,0,0,1-.875.875H3.251a.864.864,0,0,1-.875-.875Zm1.269,2.626a.438.438,0,0,0,.044.875H8.5a.438.438,0,1,0,0-.875H3.644Zm.007,1.751a.438.438,0,0,0,.044.875H6.817a.438.438,0,1,0,0-.875H3.651Zm4.808,0a.438.438,0,0,0,.044.875h.445a.438.438,0,1,0,0-.875H8.458Z" fill="#8e8e90" stroke="#8e8e90" stroke-width="0.6"/>
  </g>
</svg>
