<svg xmlns="http://www.w3.org/2000/svg" width="17.127" height="24.784" viewBox="0 0 17.127 24.784">
  <g id="science_icon" transform="translate(-18.873 -5)">
    <g id="Layer_13" data-name="Layer 13" transform="translate(18.873 5)">
      <path id="Path_11464" data-name="Path 11464" d="M31.7,49.783,27.72,42.628V37.884l.71-.8a.677.677,0,0,0,.116-.724A.567.567,0,0,0,28.023,36H22.675a.683.683,0,0,0-.6.435.581.581,0,0,0,.069.628l.622.81v4.761l-3.707,7.16a1.594,1.594,0,0,0,.058,1.586,1.743,1.743,0,0,0,1.476.867h9.842a1.44,1.44,0,0,0,1.258-.724,1.765,1.765,0,0,0,.011-1.74Z" transform="translate(-18.873 -27.463)" fill="#fff"/>
      <path id="Path_11465" data-name="Path 11465" d="M62.036,28.85,61.284,27.7V5.275A.275.275,0,0,0,61.009,5h-5.48a.611.611,0,0,0-.551.375.509.509,0,0,0,.083.551l.716.826V8.514c.052-.036.116.055.19.055h2.167a.275.275,0,1,1,0,.551H55.967c-.074,0-.138-.143-.19-.182V9.9c.052-.039.116.047.19.047h1.446a.275.275,0,1,1,0,.551H55.967c-.074,0-.138-.135-.19-.173v.961c.052-.039.116.039.19.039h1.446a.275.275,0,0,1,0,.551H55.967c-.074,0-.138-.129-.19-.165v.961c.052-.039.116.03.19.03h2.167a.275.275,0,1,1,0,.551H55.967c-.074,0-.138-.121-.19-.16v.964c.052-.039.116.022.19.022h1.446a.275.275,0,1,1,0,.551H55.967c-.074,0-.138-.113-.19-.151v.989c.052-.039.116,0,.19,0h1.446a.275.275,0,1,1,0,.551H55.967c-.074,0-.138-.1-.19-.143v.969c.052-.039.116,0,.19,0h2.167a.275.275,0,1,1,0,.551H55.967c-.074,0-.138-.1-.19-.135v.961c.052-.036.116,0,.19,0h1.446a.275.275,0,1,1,0,.551H55.967c-.074,0-.138-.088-.19-.127v.953c.052-.039.116,0,.19,0h1.446a.275.275,0,1,1,0,.551H55.967c-.074,0-.138-.08-.19-.118v.961c.052-.039.116-.017.19-.017h2.167a.275.275,0,1,1,0,.551H55.967c-.074,0-.138-.074-.19-.11v.961c.052-.039.116-.025.19-.025h1.446a.275.275,0,0,1,0,.551H56l.46.826h.953a.275.275,0,1,1,0,.551h-.644l1.542,2.773a2.319,2.319,0,0,1-.017,2.291,2.173,2.173,0,0,1-.352.443h3.511a.713.713,0,0,0,.611-.391.509.509,0,0,0-.028-.542Z" transform="translate(-45.002 -5)" fill="#fff"/>
    </g>
  </g>
</svg>
