<svg xmlns="http://www.w3.org/2000/svg" xmlns:xlink="http://www.w3.org/1999/xlink" width="424.268" height="424" viewBox="0 0 424.268 424">
  <defs>
    <clipPath id="clip-path">
      <rect id="Rectangle_780" data-name="Rectangle 780" width="137.573" height="97.106" fill="none"/>
    </clipPath>
    <clipPath id="clip-path-2">
      <rect id="Rectangle_790" data-name="Rectangle 790" width="424" height="424" transform="translate(0 0)" fill="none"/>
    </clipPath>
    <clipPath id="clip-path-3">
      <rect id="Rectangle_791" data-name="Rectangle 791" width="130.912" height="200.95" fill="none"/>
    </clipPath>
    <clipPath id="clip-path-4">
      <rect id="Rectangle_794" data-name="Rectangle 794" width="62.766" height="62.681" fill="none"/>
    </clipPath>
    <clipPath id="clip-path-5">
      <rect id="Rectangle_795" data-name="Rectangle 795" width="39.236" height="7.773" fill="none"/>
    </clipPath>
    <clipPath id="clip-path-6">
      <rect id="Rectangle_796" data-name="Rectangle 796" width="59.949" height="14.773" fill="none"/>
    </clipPath>
    <clipPath id="clip-path-8">
      <rect id="Rectangle_798" data-name="Rectangle 798" width="9.088" height="10.148" fill="none"/>
    </clipPath>
    <clipPath id="clip-path-9">
      <rect id="Rectangle_799" data-name="Rectangle 799" width="7.391" height="8.485" fill="none"/>
    </clipPath>
    <clipPath id="clip-path-10">
      <rect id="Rectangle_800" data-name="Rectangle 800" width="5.719" height="13.263" fill="none"/>
    </clipPath>
    <clipPath id="clip-path-11">
      <rect id="Rectangle_801" data-name="Rectangle 801" width="4.489" height="11.718" fill="none"/>
    </clipPath>
    <clipPath id="clip-path-12">
      <rect id="Rectangle_802" data-name="Rectangle 802" width="10.191" height="47.603" fill="none"/>
    </clipPath>
    <clipPath id="clip-path-13">
      <rect id="Rectangle_803" data-name="Rectangle 803" width="31.523" height="3.207" fill="none"/>
    </clipPath>
    <clipPath id="clip-path-14">
      <rect id="Rectangle_804" data-name="Rectangle 804" width="21.307" height="40.721" fill="none"/>
    </clipPath>
  </defs>
  <g id="landingpage_1_svg_" data-name="landingpage 1_svg " transform="translate(-497 -993)">
    <path id="Path_4025" data-name="Path 4025" d="M441.347,123.513c0-37.251-31.039-78.125-69.675-80.618l-2.054-.115c-55.383-2.551-59.6,64.962-109.694,72.583s-88.374-30.842-148.329-5.74c-53.858,22.557-68.444,149.183,89.77,154.26C327.954,267.945,441.366,234.738,441.347,123.513Z" transform="translate(453.653 1131.048)" fill="#e1e8f5"/>
    <g id="Group_312" data-name="Group 312" transform="translate(497 1047.95)">
      <g id="Group_311" data-name="Group 311" transform="translate(0 -54.95)">
        <rect id="Rectangle_758" data-name="Rectangle 758" width="424.268" height="0.212" transform="translate(0 324.48)" fill="#eaeaea"/>
        <rect id="Rectangle_759" data-name="Rectangle 759" width="18.396" height="0.212" transform="translate(363.36 338.133)" fill="#eaeaea"/>
        <rect id="Rectangle_760" data-name="Rectangle 760" width="28.944" height="0.212" transform="translate(263.521 333.729)" fill="#eaeaea"/>
        <rect id="Rectangle_761" data-name="Rectangle 761" width="37.777" height="0.212" transform="translate(336.521 330.259)" fill="#eaeaea"/>
        <rect id="Rectangle_762" data-name="Rectangle 762" width="9.453" height="0.212" transform="translate(137.361 334.535)" fill="#eaeaea"/>
        <rect id="Rectangle_763" data-name="Rectangle 763" width="32.575" height="0.212" transform="translate(97.225 334.535)" fill="#eaeaea"/>
        <rect id="Rectangle_764" data-name="Rectangle 764" width="23.504" height="0.212" transform="translate(56.266 330.954)" fill="#eaeaea"/>
        <g id="Group_313" data-name="Group 313">
          <path id="Path_3921" data-name="Path 3921" d="M1554.887,2777.958H1391.035a4.845,4.845,0,0,1-4.845-4.845V2542.8a4.845,4.845,0,0,1,4.845-4.845h163.852a4.845,4.845,0,0,1,4.845,4.845v230.318a4.845,4.845,0,0,1-4.845,4.845m-163.852-239.8a4.633,4.633,0,0,0-4.633,4.633v230.318a4.633,4.633,0,0,0,4.633,4.633h163.852a4.633,4.633,0,0,0,4.633-4.633V2542.8a4.633,4.633,0,0,0-4.633-4.633Z" transform="translate(-1353.784 -2491.323)" fill="#eaeaea"/>
          <path id="Path_3922" data-name="Path 3922" d="M1771.2,2777.958H1607.345a4.845,4.845,0,0,1-4.845-4.845V2542.8a4.845,4.845,0,0,1,4.845-4.845H1771.2a4.845,4.845,0,0,1,4.845,4.845v230.318a4.845,4.845,0,0,1-4.845,4.845m-163.852-239.8a4.633,4.633,0,0,0-4.633,4.633v230.318a4.633,4.633,0,0,0,4.633,4.633H1771.2a4.633,4.633,0,0,0,4.633-4.633V2542.8a4.633,4.633,0,0,0-4.633-4.633Z" transform="translate(-1386.548 -2491.323)" fill="#eaeaea"/>
          <path id="Path_3923" data-name="Path 3923" d="M1462.611,2651.3a17.743,17.743,0,1,0,0-35.486h-2.181V2651.3Z" transform="translate(-1365.029 -2503.116)" fill="#dfdfdf"/>
          <path id="Path_3924" data-name="Path 3924" d="M1439.5,2633.553a17.743,17.743,0,1,0,17.743-17.743,17.743,17.743,0,0,0-17.743,17.743" transform="translate(-1361.859 -2503.116)" fill="#f5f5f5"/>
          <path id="Path_3925" data-name="Path 3925" d="M1455.209,2632.168a23.759,23.759,0,0,1-23.759-23.759v-14.188a2.232,2.232,0,0,1,4.463,0v14.188A19.312,19.312,0,0,0,1455.2,2627.7a2.232,2.232,0,1,1,0,4.463" transform="translate(-1360.64 -2499.508)" fill="#dfdfdf"/>
          <path id="Path_3926" data-name="Path 3926" d="M1410.107,2605.571h39.474a4.124,4.124,0,0,0,3.988-5.176l-3.394-12.932a4.125,4.125,0,0,0-3.98-3.063h-32.626a4.125,4.125,0,0,0-3.979,3.063L1406.2,2600.4a4.124,4.124,0,0,0,3.988,5.176" transform="translate(-1356.794 -2498.358)" fill="#f5f5f5"/>
          <path id="Path_3927" data-name="Path 3927" d="M1757.891,2651.3a17.743,17.743,0,1,0,0-35.486h-2.181V2651.3Z" transform="translate(-1409.754 -2503.116)" fill="#dfdfdf"/>
          <path id="Path_3928" data-name="Path 3928" d="M1734.8,2633.553a17.743,17.743,0,1,0,17.743-17.743,17.743,17.743,0,0,0-17.743,17.743" transform="translate(-1406.586 -2503.116)" fill="#f5f5f5"/>
          <path id="Path_3929" data-name="Path 3929" d="M1750.509,2632.168a23.759,23.759,0,0,1-23.759-23.759v-14.188a2.232,2.232,0,0,1,4.463,0v14.188A19.312,19.312,0,0,0,1750.5,2627.7a2.232,2.232,0,0,1,0,4.463" transform="translate(-1405.367 -2499.508)" fill="#dfdfdf"/>
          <path id="Path_3930" data-name="Path 3930" d="M1705.406,2605.571h39.474a4.124,4.124,0,0,0,3.988-5.176l-3.394-12.932a4.124,4.124,0,0,0-3.988-3.063h-32.626a4.125,4.125,0,0,0-3.979,3.063l-3.394,12.932a4.124,4.124,0,0,0,3.988,5.176" transform="translate(-1401.52 -2498.358)" fill="#f5f5f5"/>
          <rect id="Rectangle_765" data-name="Rectangle 765" width="12.906" height="50.004" transform="translate(113.687 218.006)" fill="#e5e5e5"/>
          <path id="Path_3931" data-name="Path 3931" d="M92.75,250.454h42.826l6.466-58.524H99.216Z" transform="translate(-14.048 17.556)" fill="#f0f0f0"/>
          <path id="Path_3932" data-name="Path 3932" d="M87.28,250.454h44.243l6.466-58.524H93.754Z" transform="translate(-13.22 17.556)" fill="#f5f5f5"/>
          <path id="Path_3933" data-name="Path 3933" d="M129.076,246.668l5.448-49.308H97.7L92.25,246.668Z" transform="translate(-13.973 16.734)" fill="#fff"/>
          <path id="Path_3934" data-name="Path 3934" d="M1471.737,2774.8l.221-2.011c1.366-12.372-6.355-23.394-16.385-23.394l-.221,2.011C1453.977,2763.773,1461.7,2774.8,1471.737,2774.8Z" transform="translate(-1364.236 -2523.349)" fill="#f5f5f5"/>
          <rect id="Rectangle_766" data-name="Rectangle 766" width="38.048" height="56.47" transform="translate(50.131 268.01)" fill="#e5e5e5"/>
          <path id="Path_3935" data-name="Path 3935" d="M62.907,325.507H59.08V314.62h7.84Z" transform="translate(-8.949 -1.027)" fill="#f0f0f0"/>
          <rect id="Rectangle_767" data-name="Rectangle 767" width="38.048" height="56.47" transform="translate(156.767 268.01)" fill="#e5e5e5"/>
          <rect id="Rectangle_768" data-name="Rectangle 768" width="109.979" height="49.784" transform="translate(50.131 268.01)" fill="#f0f0f0"/>
          <path id="Path_3936" data-name="Path 3936" d="M183.464,325.507h3.827V314.62h-7.84Z" transform="translate(-27.18 -1.027)" fill="#f0f0f0"/>
          <rect id="Rectangle_769" data-name="Rectangle 769" width="104.039" height="20.093" transform="translate(53.101 271.124)" fill="#e5e5e5"/>
          <path id="Path_3937" data-name="Path 3937" d="M1460.865,2816.776h13.874a21.95,21.95,0,0,0,15.934-6.855H1444.93a21.95,21.95,0,0,0,15.936,6.856" transform="translate(-1362.681 -2532.517)" fill="#f0f0f0"/>
          <rect id="Rectangle_770" data-name="Rectangle 770" width="104.039" height="20.093" transform="translate(53.101 294.459)" fill="#e5e5e5"/>
          <path id="Path_3938" data-name="Path 3938" d="M1460.865,2844.236h13.874a21.949,21.949,0,0,0,15.934-6.855H1444.93a21.95,21.95,0,0,0,15.936,6.856" transform="translate(-1362.681 -2536.676)" fill="#f0f0f0"/>
          <path id="Path_3939" data-name="Path 3939" d="M1528.249,2788.72h.984c0-2.028,0-7.162.1-18.931.178-21.332.518-22.639.518-22.639L1527.51,2757c-1.485,10.9.433,21.867.738,31.718" transform="translate(-1375.105 -2523.009)" fill="#e5e5e5"/>
          <path id="Path_3940" data-name="Path 3940" d="M1522.9,2755.893c-3.394-4.014-10.564-5.185-17.938-6.186-2.894-.39,7.637,6.22,12.728,10.912,3.988,3.649,6.534,4.659,7.637,8.291.569-4.531.475-9.563-2.427-13.025" transform="translate(-1371.699 -2523.394)" fill="#e5e5e5"/>
          <path id="Path_3941" data-name="Path 3941" d="M1530.976,2764.373c3.394-4.014,10.564-5.185,17.93-6.186,2.894-.39-7.637,6.22-12.728,10.912-3.988,3.649-6.534,4.658-7.637,8.29-.569-4.531-.475-9.563,2.427-13.025" transform="translate(-1375.304 -2524.678)" fill="#e5e5e5"/>
          <path id="Path_3942" data-name="Path 3942" d="M1529.45,2744.025c2.546-4.794,8.884-9.334,16.012-11.031,2.8-.67-6.483,8.859-10.013,15.011-2.741,4.777-6.373,10.386-6.941,14.425-.849-7.985-1.578-13.577.942-18.4" transform="translate(-1375.22 -2520.86)" fill="#e5e5e5"/>
          <path id="Path_3943" data-name="Path 3943" d="M1528.3,2797.647h0c-3.012,0-5.5-1.51-5.668-3.437l-.5-3.3h12.338l-.5,3.3c-.17,1.926-2.656,3.437-5.668,3.437" transform="translate(-1374.375 -2529.637)" fill="#f0f0f0"/>
          <path id="Path_3944" data-name="Path 3944" d="M187.06,253.8H173.119l-.4-3.674h14.739Z" transform="translate(-26.161 8.741)" fill="#f0f0f0"/>
          <rect id="Rectangle_771" data-name="Rectangle 771" width="135.944" height="123.997" transform="translate(143.861 68.383)" fill="#e5e5e5"/>
          <rect id="Rectangle_772" data-name="Rectangle 772" width="137.666" height="123.997" transform="translate(140.798 68.383)" fill="#f5f5f5"/>
          <rect id="Rectangle_773" data-name="Rectangle 773" width="126.686" height="112.889" transform="translate(146.296 73.941)" fill="#fafafb"/>
          <path id="Path_3945" data-name="Path 3945" d="M291.467,145.071,241.607,32.19H224.67l49.86,112.881Z" transform="translate(-34.029 41.751)" fill="#fff"/>
          <path id="Path_3946" data-name="Path 3946" d="M266.789,145.071,216.929,32.19H205.27l49.86,112.881Z" transform="translate(-31.091 41.751)" fill="#fff"/>
          <rect id="Rectangle_774" data-name="Rectangle 774" width="6.551" height="112.889" transform="translate(186.78 73.941)" fill="#e5e5e5"/>
          <rect id="Rectangle_775" data-name="Rectangle 775" width="6.551" height="112.889" transform="translate(230.327 73.941)" fill="#e5e5e5"/>
          <rect id="Rectangle_776" data-name="Rectangle 776" width="8.282" height="120.543" transform="translate(183.869 69.809)" fill="#f5f5f5"/>
          <rect id="Rectangle_777" data-name="Rectangle 777" width="8.282" height="120.543" transform="translate(227.416 69.809)" fill="#f5f5f5"/>
          <rect id="Rectangle_778" data-name="Rectangle 778" width="0.585" height="112.889" transform="translate(146.296 73.941)" fill="#e5e5e5"/>
          <path id="Path_3947" data-name="Path 3947" d="M1511.094,2555.17h147.272a.708.708,0,0,1,0,1.417H1511.094a.708.708,0,0,1,0-1.417" transform="translate(-1372.596 -2493.931)" fill="#e5e5e5"/>
          <path id="Path_3948" data-name="Path 3948" d="M1677.58,2559.987h0a.959.959,0,0,0,.959-.959v-2.053a.959.959,0,0,0-1.909,0v2.053a.959.959,0,0,0,.959.959" transform="translate(-1397.776 -2494.073)" fill="#e5e5e5"/>
          <path id="Path_3949" data-name="Path 3949" d="M1523.63,2559.987h0a.959.959,0,0,0,.959-.959v-2.053a.959.959,0,0,0-1.909,0v2.053a.959.959,0,0,0,.959.959" transform="translate(-1374.458 -2494.073)" fill="#e5e5e5"/>
          <g id="Group_284" data-name="Group 284" transform="translate(138.719 61.952)" opacity="0.6">
            <g id="Group_283" data-name="Group 283" transform="translate(0 0)" clip-path="url(#clip-path)">
              <rect id="Rectangle_779" data-name="Rectangle 779" width="137.573" height="97.106" transform="translate(0 -0.009)" fill="#dfdfdf"/>
            </g>
          </g>
          <path id="Path_3950" data-name="Path 3950" d="M1683.234,2763.08h-23.759a4.565,4.565,0,0,1-4.565-4.565v-10.98a4.565,4.565,0,0,1,4.565-4.565h23.759a4.565,4.565,0,0,1,4.565,4.565v10.98a4.565,4.565,0,0,1-4.565,4.565" transform="translate(-1394.486 -2522.376)" fill="#fafafb"/>
          <path id="Path_3951" data-name="Path 3951" d="M1686.269,2742.9h-29.784a1.536,1.536,0,0,1-1.536-1.536v-1.239a1.536,1.536,0,0,1,1.536-1.536h29.784a1.536,1.536,0,0,1,1.536,1.536v1.239a1.536,1.536,0,0,1-1.536,1.536" transform="translate(-1394.492 -2521.713)" fill="#e5e5e5"/>
          <path id="Path_3952" data-name="Path 3952" d="M1655.52,2793s.433,14.136,16.911,14.136S1689.343,2793,1689.343,2793Z" transform="translate(-1394.578 -2529.954)" fill="#f0f0f0"/>
          <path id="Path_3953" data-name="Path 3953" d="M1699.8,2793s.433,14.136,16.911,14.136S1733.623,2793,1733.623,2793Z" transform="translate(-1401.285 -2529.954)" fill="#f0f0f0"/>
          <path id="Path_3954" data-name="Path 3954" d="M1723.061,2761.454h-32.592a6.28,6.28,0,0,1-6.279-6.279v-16.665a6.279,6.279,0,0,1,6.279-6.279h32.592a6.279,6.279,0,0,1,6.279,6.279v16.665a6.279,6.279,0,0,1-6.279,6.279" transform="translate(-1398.921 -2520.75)" fill="#f0f0f0"/>
          <path id="Path_3955" data-name="Path 3955" d="M1727.318,2732.136h-40.933a2.1,2.1,0,0,1-2.1-2.1v-1.7a2.1,2.1,0,0,1,2.1-2.1h40.933a2.1,2.1,0,0,1,2.1,2.1v1.7a2.1,2.1,0,0,1-2.1,2.1" transform="translate(-1398.934 -2519.841)" fill="#f5f5f5"/>
          <rect id="Rectangle_781" data-name="Rectangle 781" width="4.277" height="70.123" transform="translate(248.536 254.349)" fill="#e5e5e5"/>
          <rect id="Rectangle_782" data-name="Rectangle 782" width="23.157" height="13.644" transform="translate(348.858 240.704)" fill="#e5e5e5"/>
          <rect id="Rectangle_783" data-name="Rectangle 783" width="115.129" height="13.644" transform="translate(233.729 240.704)" fill="#f5f5f5"/>
          <rect id="Rectangle_784" data-name="Rectangle 784" width="23.157" height="13.644" transform="translate(348.858 277.149)" fill="#e5e5e5"/>
          <rect id="Rectangle_785" data-name="Rectangle 785" width="115.129" height="13.644" transform="translate(233.729 277.149)" fill="#f5f5f5"/>
          <rect id="Rectangle_786" data-name="Rectangle 786" width="4.277" height="70.123" transform="translate(363.665 254.349)" fill="#e5e5e5"/>
          <rect id="Rectangle_787" data-name="Rectangle 787" width="4.277" height="70.123" transform="translate(344.582 254.349)" fill="#f5f5f5"/>
          <rect id="Rectangle_788" data-name="Rectangle 788" width="4.277" height="70.123" transform="translate(233.729 254.349)" fill="#f5f5f5"/>
        </g>
        <g id="Group_286" data-name="Group 286" clip-path="url(#clip-path-2)">
          <path id="Path_3956" data-name="Path 3956" d="M1733.155,2897.525c0,5.3-73.661,9.606-164.523,9.606s-164.523-4.3-164.523-9.606,73.661-9.605,164.523-9.605,164.523,4.3,164.523,9.605" transform="translate(-1356.499 -2544.331)" fill="#f5f5f5"/>
        </g>
        <g id="Group_314" data-name="Group 314">
          <path id="Path_3957" data-name="Path 3957" d="M1586.144,2812.632H1477.9a6.9,6.9,0,0,1-6.788-6.474l-9.69-187.993a6.093,6.093,0,0,1,6.144-6.474h108.248a6.9,6.9,0,0,1,6.788,6.474l9.69,187.993a6.093,6.093,0,0,1-6.143,6.474" transform="translate(-1365.177 -2502.492)" fill="#5d73b5"/>
          <g id="Group_288" data-name="Group 288" transform="translate(96.215 109.19)" opacity="0.8">
            <g id="Group_287" data-name="Group 287" transform="translate(0 0)" clip-path="url(#clip-path-3)">
              <path id="Path_3958" data-name="Path 3958" d="M1586.144,2812.632H1477.9a6.9,6.9,0,0,1-6.788-6.474l-9.69-187.993a6.093,6.093,0,0,1,6.144-6.474h108.248a6.9,6.9,0,0,1,6.788,6.474l9.69,187.993a6.093,6.093,0,0,1-6.143,6.474" transform="translate(-1461.392 -2611.682)" fill="#fff"/>
            </g>
          </g>
          <rect id="Rectangle_792" data-name="Rectangle 792" width="11.973" height="0.849" transform="translate(187.959 103.055)" fill="#5d73b5"/>
          <rect id="Rectangle_793" data-name="Rectangle 793" width="4.387" height="0.849" transform="translate(179.423 103.055)" fill="#5d73b5"/>
          <path id="Path_3959" data-name="Path 3959" d="M1592.6,2800.135H1489.081a6.593,6.593,0,0,1-6.517-6.195l-9.266-179.8a5.821,5.821,0,0,1,5.872-6.194h103.521a6.593,6.593,0,0,1,6.517,6.194l9.266,179.8a5.821,5.821,0,0,1-5.872,6.194" transform="translate(-1366.976 -2501.926)" fill="#5d73b5"/>
          <path id="Path_3960" data-name="Path 3960" d="M1593.339,2796.74H1489.818a2.478,2.478,0,0,1-2.385-2.274l-9.274-179.8a1.693,1.693,0,0,1,1.74-1.85H1583.42a2.478,2.478,0,0,1,2.384,2.274l9.317,179.8a1.693,1.693,0,0,1-1.74,1.85m-113.432-183.7a1.5,1.5,0,0,0-1.129.458,1.52,1.52,0,0,0-.4,1.163l9.266,179.8a2.257,2.257,0,0,0,2.172,2.07h103.521a1.5,1.5,0,0,0,1.128-.458,1.518,1.518,0,0,0,.4-1.162l-9.266-179.8a2.257,2.257,0,0,0-2.172-2.07Z" transform="translate(-1367.713 -2502.663)" fill="#fff"/>
          <g id="Group_290" data-name="Group 290" transform="translate(135.002 121.918)" opacity="0.3">
            <g id="Group_289" data-name="Group 289" transform="translate(0 0)" clip-path="url(#clip-path-4)">
              <path id="Path_3961" data-name="Path 3961" d="M1569.805,2658.015a29.47,29.47,0,0,1-29.7,31.344,33.373,33.373,0,0,1-32.957-31.344,29.47,29.47,0,0,1,29.7-31.345,33.374,33.374,0,0,1,32.957,31.345" transform="translate(-1507.098 -2626.678)" fill="#fff"/>
            </g>
          </g>
          <path id="Path_3962" data-name="Path 3962" d="M1564.94,2659.084a24.341,24.341,0,0,1-2.444,12.075,23.759,23.759,0,0,1-21.6,13.279,26.932,26.932,0,0,1-22.979-13.279,26.187,26.187,0,0,1-3.682-12.074,23.844,23.844,0,0,1,24.047-25.354,27,27,0,0,1,26.661,25.354" transform="translate(-1373.171 -2505.83)" fill="#fff"/>
          <path id="Path_3963" data-name="Path 3963" d="M1563.141,2676.638a23.759,23.759,0,0,1-21.612,13.28,26.932,26.932,0,0,1-22.978-13.28,38.34,38.34,0,0,1,21.943-6.788,41.69,41.69,0,0,1,22.639,6.788" transform="translate(-1373.832 -2511.301)" fill="#5d73b5"/>
          <path id="Path_3964" data-name="Path 3964" d="M1552.834,2651.374a10.624,10.624,0,0,1-10.709,11.294,12.032,12.032,0,0,1-11.879-11.294,10.623,10.623,0,0,1,10.717-11.294,12.024,12.024,0,0,1,11.88,11.294" transform="translate(-1375.601 -2506.792)" fill="#5d73b5"/>
          <path id="Path_3965" data-name="Path 3965" d="M1581.338,2748.943h-81.061a2.792,2.792,0,0,1-2.758-2.622l-.611-11.88a2.461,2.461,0,0,1,2.486-2.622h81.061a2.792,2.792,0,0,1,2.758,2.622l.611,11.879a2.461,2.461,0,0,1-2.486,2.622" transform="translate(-1370.554 -2520.687)" fill="#fff"/>
          <g id="Group_292" data-name="Group 292" transform="translate(149.215 196.809)" opacity="0.3">
            <g id="Group_291" data-name="Group 291" clip-path="url(#clip-path-5)">
              <path id="Path_3966" data-name="Path 3966" d="M1560.6,2722.708h-33.857a2.791,2.791,0,0,1-2.766-2.63l-.127-2.546a2.461,2.461,0,0,1,2.486-2.622h33.857a2.792,2.792,0,0,1,2.758,2.622l.127,2.546a2.46,2.46,0,0,1-2.486,2.622" transform="translate(-1523.849 -2714.935)" fill="#010101"/>
            </g>
          </g>
          <g id="Group_294" data-name="Group 294" transform="translate(142.842 270.589)" opacity="0.3">
            <g id="Group_293" data-name="Group 293" clip-path="url(#clip-path-6)">
              <path id="Path_3967" data-name="Path 3967" d="M1572.057,2816.673h-50.708a4.752,4.752,0,0,1-4.692-4.463l-.3-5.846a4.243,4.243,0,0,1,4.243-4.463h50.708a4.752,4.752,0,0,1,4.693,4.463l.305,5.846a4.243,4.243,0,0,1-4.243,4.463" transform="translate(-1516.342 -2801.891)" fill="#010101"/>
            </g>
          </g>
          <path id="Path_3968" data-name="Path 3968" d="M1583.089,2782.8h-81.061a2.792,2.792,0,0,1-2.758-2.622l-.611-11.879a2.461,2.461,0,0,1,2.486-2.622h81.061a2.792,2.792,0,0,1,2.758,2.622l.611,11.879a2.461,2.461,0,0,1-2.486,2.622" transform="translate(-1370.819 -2525.816)" fill="#fff"/>
          <path id="Path_3969" data-name="Path 3969" d="M1511.963,2741.392a2.732,2.732,0,0,1-2.749,2.9,3.089,3.089,0,0,1-3.055-2.9,2.732,2.732,0,0,1,2.749-2.9,3.089,3.089,0,0,1,3.055,2.9" transform="translate(-1371.955 -2521.698)" fill="#2e353b"/>
          <path id="Path_3970" data-name="Path 3970" d="M1522.493,2741.392a2.732,2.732,0,0,1-2.749,2.9,3.088,3.088,0,0,1-3.055-2.9,2.732,2.732,0,0,1,2.749-2.9,3.089,3.089,0,0,1,3.055,2.9" transform="translate(-1373.55 -2521.698)" fill="#2e353b"/>
          <path id="Path_3971" data-name="Path 3971" d="M1532.963,2741.392a2.732,2.732,0,0,1-2.749,2.9,3.088,3.088,0,0,1-3.055-2.9,2.732,2.732,0,0,1,2.75-2.9,3.089,3.089,0,0,1,3.055,2.9" transform="translate(-1375.135 -2521.698)" fill="#2e353b"/>
          <path id="Path_3972" data-name="Path 3972" d="M1543.513,2741.392a2.732,2.732,0,0,1-2.749,2.9,3.088,3.088,0,0,1-3.055-2.9,2.732,2.732,0,0,1,2.749-2.9,3.089,3.089,0,0,1,3.055,2.9" transform="translate(-1376.734 -2521.698)" fill="#2e353b"/>
          <path id="Path_3973" data-name="Path 3973" d="M1513.733,2775.232a2.733,2.733,0,0,1-2.749,2.9,3.089,3.089,0,0,1-3.055-2.9,2.733,2.733,0,0,1,2.749-2.9,3.089,3.089,0,0,1,3.055,2.9" transform="translate(-1372.223 -2526.823)" fill="#2e353b"/>
          <path id="Path_3974" data-name="Path 3974" d="M1524.243,2775.232a2.733,2.733,0,0,1-2.749,2.9,3.089,3.089,0,0,1-3.055-2.9,2.733,2.733,0,0,1,2.749-2.9,3.089,3.089,0,0,1,3.055,2.9" transform="translate(-1373.815 -2526.823)" fill="#2e353b"/>
          <path id="Path_3975" data-name="Path 3975" d="M1534.753,2775.232a2.733,2.733,0,0,1-2.749,2.9,3.089,3.089,0,0,1-3.055-2.9,2.733,2.733,0,0,1,2.749-2.9,3.089,3.089,0,0,1,3.055,2.9" transform="translate(-1375.406 -2526.823)" fill="#2e353b"/>
          <path id="Path_3976" data-name="Path 3976" d="M1545.253,2775.232a2.733,2.733,0,0,1-2.749,2.9,3.089,3.089,0,0,1-3.055-2.9,2.732,2.732,0,0,1,2.749-2.9,3.089,3.089,0,0,1,3.055,2.9" transform="translate(-1376.997 -2526.823)" fill="#2e353b"/>
          <path id="Path_3977" data-name="Path 3977" d="M1555.763,2775.232a2.733,2.733,0,0,1-2.749,2.9,3.089,3.089,0,0,1-3.055-2.9,2.732,2.732,0,0,1,2.749-2.9,3.089,3.089,0,0,1,3.055,2.9" transform="translate(-1378.589 -2526.823)" fill="#2e353b"/>
          <path id="Path_3978" data-name="Path 3978" d="M1566.273,2775.232a2.733,2.733,0,0,1-2.749,2.9,3.089,3.089,0,0,1-3.055-2.9,2.732,2.732,0,0,1,2.749-2.9,3.089,3.089,0,0,1,3.055,2.9" transform="translate(-1380.181 -2526.823)" fill="#2e353b"/>
        </g>
        <g id="Group_310" data-name="Group 310" clip-path="url(#clip-path-2)">
          <path id="Path_3979" data-name="Path 3979" d="M1679.661,2659.62c.212.314.323.492.458.713l.382.636c.246.416.458.848.679,1.256.424.849.849,1.7,1.188,2.546a46.927,46.927,0,0,1,1.842,5.176,54.274,54.274,0,0,1,2.011,10.641l.068.67v.865a10.723,10.723,0,0,1-.1,1.765,14.181,14.181,0,0,1-.848,3.157,21.592,21.592,0,0,1-2.936,5.091,36.107,36.107,0,0,1-7.9,7.476l-2.342-2.741a49.021,49.021,0,0,0,5.634-7.8,18.137,18.137,0,0,0,1.7-4.005,7.931,7.931,0,0,0,.28-1.815,4.352,4.352,0,0,0,0-.79v-.407l-.1-.594a66.428,66.428,0,0,0-2.308-9.334c-.492-1.519-1.095-2.978-1.7-4.421-.305-.721-.636-1.426-.976-2.1l-.526-.993-.263-.475-.212-.373Z" transform="translate(-1397.099 -2509.752)" fill="#72413f"/>
          <path id="Path_3980" data-name="Path 3980" d="M1671.7,2706.174l3.072,6.491,2.435-5.481s-2.155-4.752-5.091-4.319Z" transform="translate(-1397.029 -2516.298)" fill="#71413e"/>
          <path id="Path_3981" data-name="Path 3981" d="M329.518,175.8l2.444-4L329.755,170l-2.435,5.49Z" transform="translate(-49.577 20.878)" fill="#71413e"/>
          <path id="Path_3982" data-name="Path 3982" d="M1661.334,2890.9a8.631,8.631,0,0,0,1.875-.254.17.17,0,0,0,.051-.306c-.246-.161-2.4-1.553-3.233-1.179a.577.577,0,0,0-.331.475.96.96,0,0,0,.28.891,2.028,2.028,0,0,0,1.358.373m1.4-.492a3.415,3.415,0,0,1-2.546-.127.636.636,0,0,1-.17-.6.238.238,0,0,1,.136-.212c.433-.2,1.7.407,2.546.934" transform="translate(-1395.208 -2544.509)" fill="#5d73b5"/>
          <path id="Path_3983" data-name="Path 3983" d="M1663.46,2890.35h.085a.169.169,0,0,0,.085-.144c0-.085,0-2.13-.781-2.817a.848.848,0,0,0-.713-.221.585.585,0,0,0-.568.467c-.161.8,1.137,2.333,1.807,2.715a.161.161,0,0,0,.085,0m-1.214-2.885a.542.542,0,0,1,.373.144,3.853,3.853,0,0,1,.662,2.24c-.679-.543-1.485-1.7-1.383-2.181,0-.085.059-.178.28-.2h.076" transform="translate(-1395.492 -2544.216)" fill="#5d73b5"/>
          <path id="Path_3984" data-name="Path 3984" d="M1651.42,2887.088a.17.17,0,0,0-.119-.28c-.357,0-3.394-.144-4.09.6v.051a.543.543,0,0,0-.068.526.934.934,0,0,0,.62.619c.984.305,2.724-.8,3.674-1.485h0m-3.954.535c.382-.407,2.053-.518,3.318-.5-1.324.9-2.41,1.324-2.97,1.154a.6.6,0,0,1-.4-.407.212.212,0,0,1,0-.212h0" transform="translate(-1393.304 -2544.161)" fill="#5d73b5"/>
          <path id="Path_3985" data-name="Path 3985" d="M1651.57,2886.736h0a.17.17,0,0,0,0-.17c0-.068-.984-1.74-2.113-2.045a1.221,1.221,0,0,0-.967.127c-.407.238-.424.509-.373.7.221.789,2.376,1.476,3.309,1.476a.169.169,0,0,0,.119-.051m-3.046-1.7a.709.709,0,0,1,.161-.119.849.849,0,0,1,.713-.094,3.894,3.894,0,0,1,1.7,1.612c-1-.11-2.546-.738-2.673-1.2a.187.187,0,0,1,.059-.2" transform="translate(-1393.454 -2543.809)" fill="#5d73b5"/>
          <path id="Path_3986" data-name="Path 3986" d="M1660.7,2630.33c-.849,4.243-2.681,13.416.263,16.232,0,0-1.154,4.243-8.986,4.243-8.613,0-4.115-4.243-4.115-4.243,4.7-1.12,4.582-4.616,3.759-7.892Z" transform="translate(-1393.24 -2505.315)" fill="#71413e"/>
          <path id="Path_3987" data-name="Path 3987" d="M1645.826,2618.191a.34.34,0,0,0,.3-.484,3.343,3.343,0,0,0-2.444-1.867.339.339,0,0,0-.076.67,2.665,2.665,0,0,1,1.918,1.5.338.338,0,0,0,.305.187" transform="translate(-1392.733 -2503.121)" fill="#2e353b"/>
          <path id="Path_3988" data-name="Path 3988" d="M1642.808,2623a15.307,15.307,0,0,1-2.478,3.394,2.47,2.47,0,0,0,1.977.628Z" transform="translate(-1392.278 -2504.205)" fill="#551718"/>
          <path id="Path_3989" data-name="Path 3989" d="M1643.758,2621.672c-.068.569-.433.993-.8.95s-.619-.543-.543-1.112.433-.993.8-.942.619.543.543,1.112" transform="translate(-1392.592 -2503.836)" fill="#2e353b"/>
          <path id="Path_3990" data-name="Path 3990" d="M1643.307,2620.526,1642,2620s.569,1.154,1.315.56" transform="translate(-1392.531 -2503.751)" fill="#2e353b"/>
          <path id="Path_3991" data-name="Path 3991" d="M311.033,344.439l-6.924,1.621L299.9,330.141l6.924-1.621Z" transform="translate(-45.424 -3.132)" fill="#71413e"/>
          <path id="Path_3992" data-name="Path 3992" d="M324.272,349.832h-7.1l.552-16.462h7.111Z" transform="translate(-48.04 -3.867)" fill="#71413e"/>
          <path id="Path_3993" data-name="Path 3993" d="M1662.672,2889.749h7.985a.56.56,0,0,1,.569.484l.908,6.321a1.146,1.146,0,0,1-1.137,1.264c-2.783-.051-4.124-.212-7.637-.212-2.164,0-5.32.221-8.3.221s-3.14-2.953-1.9-3.216c5.575-1.2,6.449-2.851,8.324-4.429a1.859,1.859,0,0,1,1.188-.441" transform="translate(-1394.111 -2544.607)" fill="#2e353b"/>
          <path id="Path_3994" data-name="Path 3994" d="M1650.687,2885.284l7.255-3.335a.561.561,0,0,1,.721.2l3.462,5.362a1.145,1.145,0,0,1-.509,1.62c-2.546,1.12-3.835,1.536-7.026,3-1.96.9-5.94,2.97-8.638,4.243s-4.09-1.366-3.072-2.13c4.557-3.394,5.863-5.83,6.907-8.052a1.858,1.858,0,0,1,.9-.891" transform="translate(-1392.613 -2543.418)" fill="#2e353b"/>
          <g id="Group_297" data-name="Group 297" transform="translate(254.476 325.396)" opacity="0.2">
            <g id="Group_296" data-name="Group 296" clip-path="url(#clip-path-8)">
              <path id="Path_3995" data-name="Path 3995" d="M299.9,330.142l2.257,8.528L309,336.735l-2.172-8.205Z" transform="translate(-299.9 -328.53)" fill="#010101"/>
            </g>
          </g>
          <g id="Group_299" data-name="Group 299" transform="translate(269.402 329.512)" opacity="0.2">
            <g id="Group_298" data-name="Group 298" clip-path="url(#clip-path-9)">
              <path id="Path_3996" data-name="Path 3996" d="M324.881,333.38H317.77l-.28,8.485H324.6Z" transform="translate(-317.49 -333.38)" fill="#010101"/>
            </g>
          </g>
          <path id="Path_3997" data-name="Path 3997" d="M1676.582,2651.341c2.953.645,6.109,11.269,6.109,11.269l-8.35,8.875s-6.924-9.979-5.516-13.645c1.468-3.818,4.243-7.263,7.756-6.5" transform="translate(-1396.565 -2508.482)" fill="#f79735"/>
          <g id="Group_301" data-name="Group 301" transform="translate(272.032 148.757)" opacity="0.4">
            <g id="Group_300" data-name="Group 300" transform="translate(0 0)" clip-path="url(#clip-path-10)">
              <path id="Path_3998" data-name="Path 3998" d="M1671.857,2659.175c-1.493-1.366-2.546-.959-3.19.127-.679,3.156,3.343,9.767,4.964,12.27.747-2.987,1.6-9.334-1.773-12.4" transform="translate(-1668.59 -2658.31)" fill="#010101"/>
            </g>
          </g>
          <path id="Path_3999" data-name="Path 3999" d="M1633.759,2651.244s-3.394,1.2,3.394,42.9H1666c-.484-11.752-.5-18.99,5.091-43.106a85.272,85.272,0,0,0-12.261-1.612,91.89,91.89,0,0,0-13.11,0c-5.634.518-12.015,1.824-12.015,1.824" transform="translate(-1391.154 -2508.173)" fill="#faa73f"/>
          <g id="Group_303" data-name="Group 303" transform="translate(242.342 154.247)" opacity="0.4">
            <g id="Group_302" data-name="Group 302" clip-path="url(#clip-path-11)">
              <path id="Path_4000" data-name="Path 4000" d="M1633.6,2669.608c.187,2.028.433,4.311.755,6.89,2.367-2.13,4.294-8.188,3.589-11.718a20.843,20.843,0,0,0-4.344,4.828" transform="translate(-1633.6 -2664.78)" fill="#010101"/>
            </g>
          </g>
          <path id="Path_4001" data-name="Path 4001" d="M1630.447,2662.511a125.356,125.356,0,0,1-5.244,11.506,70.676,70.676,0,0,1-6.789,11.031l-.543.67-.271.331a4.607,4.607,0,0,1-.314.365,10.506,10.506,0,0,1-1.7,1.493,13.83,13.83,0,0,1-3.547,1.773,25.767,25.767,0,0,1-6.788,1.2,50.523,50.523,0,0,1-12.864-1.145l.467-3.572c1.952,0,4,0,5.94-.161a47.3,47.3,0,0,0,5.83-.653,22.751,22.751,0,0,0,5.21-1.451,7.978,7.978,0,0,0,1.875-1.146,3.848,3.848,0,0,0,.577-.611,2.43,2.43,0,0,0,.17-.229l.2-.28.4-.56a85.7,85.7,0,0,0,5.677-10.276c1.7-3.606,3.394-7.348,4.947-11.031Z" transform="translate(-1385.016 -2509.774)" fill="#72413f"/>
          <path id="Path_4002" data-name="Path 4002" d="M1632.5,2651.568c-3.53.848-7.883,10.564-7.883,10.564l7.331,10.776s9.767-12.287,8.6-16.046c-1.2-3.912-3.767-6.33-8.053-5.286" transform="translate(-1389.898 -2508.497)" fill="#f79735"/>
          <path id="Path_4003" data-name="Path 4003" d="M1594.129,2691.006l-6.118-2.826-.611,6.075s5.091,1.5,7.637,0Z" transform="translate(-1384.261 -2514.078)" fill="#71413e"/>
          <path id="Path_4004" data-name="Path 4004" d="M235.705,149.51l-.585,4.633,3.632,2.062.611-6.084Z" transform="translate(-35.612 23.982)" fill="#71413e"/>
          <path id="Path_4005" data-name="Path 4005" d="M1663.1,2620.306c-1.3,6.933-1.7,9.894-5.668,13.051-5.94,4.735-14.213,1.629-15.019-5.55-.721-6.466,1.51-16.716,8.7-18.668a9.622,9.622,0,0,1,11.981,11.149" transform="translate(-1392.574 -2502.054)" fill="#71413e"/>
          <path id="Path_4006" data-name="Path 4006" d="M1648.195,2621.03c-.4,3.538-.552,12.728,7.221,13.008,9.521.356,12.372-7.781,11.523-11.031,4.947-4.031,5.668-10.963.1-16.266s-17.819-2.342-21.213,2.826c-4.243,6.406,2.4,11.455,2.4,11.455" transform="translate(-1392.896 -2501.319)" fill="#2e353b"/>
          <path id="Path_4007" data-name="Path 4007" d="M1660.072,2608.555c-.458-3.725-.1-6.3,3.394-6.3s8.265,1.264,10.013,4.837,1.892,9.164-2.987,8.6-9.86-2.664-10.412-7.136" transform="translate(-1395.244 -2501.062)" fill="#5d73b5"/>
          <path id="Path_4008" data-name="Path 4008" d="M1666.46,2605.436c-.849-4.446,3.131-16.971,12.8-17.819,4.48-.382,6.551,4.446,4.243,5.235,4.243-.051,6.958,5.558,3,6.4,3.131,2,2.35,6.109-2.1,8.129-3.284,1.485-16.75,4.175-17.9-1.986" transform="translate(-1396.219 -2498.843)" fill="#2e353b"/>
          <path id="Path_4009" data-name="Path 4009" d="M1676.8,2612.622c-3.114,0-6.364-.458-8.375-1.807a4.159,4.159,0,0,1-1.994-3.233.213.213,0,1,1,.424-.034,3.76,3.76,0,0,0,1.807,2.91c3.835,2.546,12.728,1.7,15.494.848,2.393-.781,4.014-2.291,4.336-4.047a3.5,3.5,0,0,0-1.417-3.395.212.212,0,0,1,.263-.331,3.962,3.962,0,0,1,1.57,3.835c-.348,1.909-2.079,3.547-4.616,4.37a27.7,27.7,0,0,1-7.484.925" transform="translate(-1396.231 -2501.252)" fill="#2e353b"/>
          <path id="Path_4010" data-name="Path 4010" d="M1646.147,2622.806a5.279,5.279,0,0,0-.908,3.836c.28,1.782,2.019,1.9,3.275.755s2.342-3.19,1.417-4.667a2.232,2.232,0,0,0-3.784.076" transform="translate(-1393.012 -2504.011)" fill="#71413e"/>
          <path id="Path_4011" data-name="Path 4011" d="M1646.89,2702.16s4.124,48.782,8.4,76.275c3.454,22.206,6.186,74.111,6.186,74.111h9.69s3.445-50.352,1.7-72.321c-4.438-55.579,5.465-60.1-4.726-78.065Z" transform="translate(-1393.271 -2516.195)" fill="#5d73b5"/>
          <g id="Group_305" data-name="Group 305" transform="translate(256.665 204.404)" opacity="0.4">
            <g id="Group_304" data-name="Group 304" clip-path="url(#clip-path-12)">
              <path id="Path_4012" data-name="Path 4012" d="M1659.636,2723.89a47.353,47.353,0,0,0-9.156,13.814c1.129,10.963,2.469,23.131,3.895,33.789a93.66,93.66,0,0,0,5.261-47.6" transform="translate(-1650.48 -2723.89)" fill="#010101"/>
            </g>
          </g>
          <path id="Path_4013" data-name="Path 4013" d="M1637.051,2701.8s-8.952,53.28-10.361,77.293c3.513,22.206,17.887,69.147,17.887,69.147l8.816-3.19s-4.879-51.184-10.183-65.193c11.939-40.2,20.713-50.361,18.159-77.743-6.084,0-24.293-.305-24.293-.305" transform="translate(-1390.212 -2516.14)" fill="#5d73b5"/>
          <path id="Path_4014" data-name="Path 4014" d="M298.109,337.765l11.913-3.241-.679-4.743-12.754,3.445Z" transform="translate(-44.923 -3.323)" fill="#2e353b"/>
          <path id="Path_4015" data-name="Path 4015" d="M314.508,340.817h12.346l.645-4.336-13.059-.441Z" transform="translate(-47.626 -4.271)" fill="#2e353b"/>
          <path id="Path_4016" data-name="Path 4016" d="M1667.049,2700.122l1.3,2.546c.1.2-.136.407-.467.407h-30.276c-.263,0-.475-.127-.492-.289l-.263-2.545c0-.178.2-.331.492-.331h29.232a.527.527,0,0,1,.467.212" transform="translate(-1391.75 -2515.854)" fill="#5d73b5"/>
          <g id="Group_307" data-name="Group 307" transform="translate(245.1 184.056)" opacity="0.5">
            <g id="Group_306" data-name="Group 306" clip-path="url(#clip-path-13)">
              <path id="Path_4017" data-name="Path 4017" d="M1667.049,2700.122l1.3,2.546c.1.2-.136.407-.467.407h-30.276c-.263,0-.475-.127-.492-.289l-.263-2.545c0-.178.2-.331.492-.331h29.232a.527.527,0,0,1,.467.212" transform="translate(-1636.85 -2699.91)" fill="#010101"/>
            </g>
          </g>
          <path id="Path_4018" data-name="Path 4018" d="M1667.69,2703.331h.781c.153,0,.271-.076.263-.178l-.365-3.394c0-.094-.144-.178-.305-.178h-.781c-.153,0-.271.085-.263.178l.365,3.394c0,.1.144.178.305.178" transform="translate(-1396.32 -2515.804)" fill="#5d73b5"/>
          <path id="Path_4019" data-name="Path 4019" d="M1653.116,2671.038a.424.424,0,0,1-.407-.314c-2.766-10.225-8.485-18.668-11.269-19.941a.941.941,0,0,0-.713-.119.424.424,0,0,1-.348-.772,1.7,1.7,0,0,1,1.426.127c2.927,1.383,8.731,9.7,11.633,20.17,2.079,0,5.295-.289,6.067-.348.967-1.154,8.087-10.047,5.422-19.771a.439.439,0,1,1,.849-.229c2.961,10.827-5.626,20.594-5.719,20.687a.425.425,0,0,1-.28.144c-.042,0-4.243.373-6.635.373" transform="translate(-1392.251 -2508.221)" fill="#5d73b5"/>
          <path id="Path_4020" data-name="Path 4020" d="M1668.8,2678.558c-4.624-8.672-6.517-9.274-7.348-12.066a14.359,14.359,0,0,1,2.639-4.243c-.569-.161-1.765-.4-2.546-.543.085-.382.17-.755.263-1.112a7.973,7.973,0,0,0-2.546.119v-.849a10.84,10.84,0,0,0-3.284-.212c.093.39.187.806.288,1.222-.849.161-2.138.424-2.766.594a12.14,12.14,0,0,1,2.588,4.726c-2.486,4.243-12.185,31.829,3.581,33.941s13.806-12.872,9.19-21.544" transform="translate(-1393.872 -2509.75)" fill="#5d73b5"/>
          <g id="Group_309" data-name="Group 309" transform="translate(256.92 149.826)" opacity="0.4">
            <g id="Group_308" data-name="Group 308" transform="translate(0 0)" clip-path="url(#clip-path-14)">
              <path id="Path_4021" data-name="Path 4021" d="M1668.8,2678.558c-4.624-8.672-6.517-9.274-7.348-12.066a14.359,14.359,0,0,1,2.639-4.243c-.569-.161-1.765-.4-2.546-.543.085-.382.17-.755.263-1.112a7.973,7.973,0,0,0-2.546.119v-.849a10.84,10.84,0,0,0-3.284-.212c.093.39.187.806.288,1.222-.849.161-2.138.424-2.766.594a12.14,12.14,0,0,1,2.588,4.726c-2.486,4.243-12.185,31.829,3.581,33.941s13.806-12.872,9.19-21.544" transform="translate(-1650.792 -2659.576)" fill="#fff"/>
            </g>
          </g>
          <path id="Path_4022" data-name="Path 4022" d="M1656.237,2666.373a5.433,5.433,0,0,0-.127,1.324c0,.322.849.534,1.782.619s4.9.246,4.777-.2.2-1.044.212-1.417-1.57-.39-2.9-.339-3.488-.475-3.751,0" transform="translate(-1394.667 -2510.743)" fill="#5d73b5"/>
          <path id="Path_4023" data-name="Path 4023" d="M1645.335,2703.331h.781c.153,0,.271-.076.263-.178l-.365-3.394c0-.094-.144-.178-.306-.178h-.755c-.153,0-.271.085-.263.178l.365,3.394c0,.1.144.178.305.178" transform="translate(-1392.938 -2515.804)" fill="#5d73b5"/>
        </g>
      </g>
    </g>
  </g>
</svg>
