<svg xmlns="http://www.w3.org/2000/svg" xmlns:xlink="http://www.w3.org/1999/xlink" width="353.239" height="229.268" viewBox="0 0 353.239 229.268">
  <defs>
    <clipPath id="clip-path">
      <rect id="Rectangle_579" data-name="Rectangle 579" width="159.658" height="140.26" fill="none"/>
    </clipPath>
  </defs>
  <g id="_2_svg" data-name="2_svg" transform="translate(420.159 271.977) rotate(180)">
    <g id="OBJECTS" transform="translate(66.92 42.71)">
      <g id="Group_69" data-name="Group 69" transform="translate(37.17 4.14)" opacity="0.8">
        <path id="Path_2363" data-name="Path 2363" d="M138.076,94.78a2.87,2.87,0,0,1,3.2,1.8c.814,2.214-1.324,4.688-4.2,3.581h0A2.922,2.922,0,0,1,138.076,94.78Z" transform="translate(-135.675 -70.645)" fill="#1f489e"/>
        <circle id="Ellipse_377" data-name="Ellipse 377" cx="5.773" cy="5.773" r="5.773" transform="translate(266.172 6.609)" fill="#1f489e"/>
        <circle id="Ellipse_378" data-name="Ellipse 378" cx="5.827" cy="5.827" r="5.827" transform="translate(7.094 17.117) rotate(-15.66)" fill="#1f489e"/>
        <circle id="Ellipse_379" data-name="Ellipse 379" cx="3.549" cy="3.549" r="3.549" transform="translate(257.528)" fill="#1f489e"/>
      </g>
      <path id="Path_2364" data-name="Path 2364" d="M386.587,111.456c0-31.693-26.408-66.468-59.278-68.589l-1.747-.1c-47.119-2.17-50.705,55.269-93.326,61.753s-75.187-26.24-126.2-4.883C60.217,118.83,47.808,226.562,182.414,230.881,290.114,234.337,386.6,206.085,386.587,111.456Z" transform="translate(-70.456 -42.71)" fill="#e1e8f5"/>
      <ellipse id="Ellipse_380" data-name="Ellipse 380" cx="29.978" cy="3.733" rx="29.978" ry="3.733" transform="translate(293.282 207.83)" fill="#1f489e"/>
      <path id="Path_2365" data-name="Path 2365" d="M640.962,269.873s-6.234,1.384-5.307-2.968.857-5.969-1.677-7.933-5.084-2.952-3.142-6.082-1.742-5.562-3.646-7.249.244-2.957.749-6.142-2.925-2.713-3.19-6.717,3.8-8.681.3-14.221c0,0,4.7,2.442,6.251,6.728s.3,7.6,3.076,9.224,4.52,4.449,3.576,7.341.4,4.428,2.675,6.511,1.671,2.946,1.389,5.529.288,1.97,2.9,5.5S647.6,268.717,640.962,269.873Z" transform="translate(-322.205 -123.145)" fill="#285b5c"/>
      <path id="Path_2366" data-name="Path 2366" d="M645.719,280.466a.289.289,0,0,1-.033-.065l-12.48-37.862a.309.309,0,0,1,.2-.391h0a.309.309,0,0,1,.385.2l12.48,37.862a.307.307,0,0,1,0,.092Z" transform="translate(-326.072 -133.928)" fill="#18363e"/>
      <path id="Path_2367" data-name="Path 2367" d="M670.668,269.967s6.2,1.373,5.279-2.952-.852-5.92,1.666-7.889,5.057-2.935,3.125-6.05,1.731-5.534,3.625-7.211-.244-2.941-.743-6.11,2.908-2.713,3.174-6.685-3.8-8.681-.3-14.151c0,0-4.683,2.425-6.218,6.7s-.3,7.558-3.06,9.181-4.5,4.428-3.559,7.3-.4,4.406-2.664,6.511-1.666,2.93-1.384,5.5-.282,1.959-2.881,5.464S664.071,268.811,670.668,269.967Z" transform="translate(-340.663 -123.309)" fill="#285b5c"/>
      <path id="Path_2368" data-name="Path 2368" d="M672.687,280.323a.308.308,0,0,1,0-.092L685.1,242.569a.309.309,0,0,1,.385-.2h0a.309.309,0,0,1,.2.391L673.289,280.42a.282.282,0,0,1-.032.065Z" transform="translate(-344.136 -134.029)" fill="#18363e"/>
      <path id="Path_2369" data-name="Path 2369" d="M656.666,260.754s-7.135-.591-4.7-4.943,2.9-6.093.841-9.05-4.466-4.851-1.346-7.558,0-6.511-1.5-8.975,1.242-3.082,2.843-6.327-2.23-3.869-1.188-8.258,6.967-8.058,5.046-15.133c0,0,4.232,4.178,4.466,9.284s-2.2,8.237.233,10.906,3.364,6.267,1.394,9.05-1.042,4.883.695,7.889.814,3.711-.347,6.381-.347,2.2,1.275,6.848S664.154,261.72,656.666,260.754Z" transform="translate(-333.546 -114.889)" fill="#5a918e"/>
      <path id="Path_2370" data-name="Path 2370" d="M663.887,273.653a.324.324,0,0,1,0-.081l-.787-44.7a.347.347,0,0,1,.342-.353h0a.347.347,0,0,1,.347.342l.787,44.7a.347.347,0,0,1,0,.1Z" transform="translate(-339.752 -127.701)" fill="#285b5c"/>
      <path id="Path_2371" data-name="Path 2371" d="M669.2,307.112l-.543,1.373-.326.868-.939,2.485-.326.868-.96,2.556-.326.868-4.129,10.96H639.12l-4.129-10.96-.326-.868-.96-2.556-.326-.868-.939-2.485-.326-.868-.543-1.373a1.438,1.438,0,0,1,1.346-1.942h34.905a1.438,1.438,0,0,1,1.378,1.942Z" transform="translate(-325.29 -162.76)" fill="#f5bf69"/>
      <path id="Path_2372" data-name="Path 2372" d="M668.955,311.28l-.326.868h-35.9l-.326-.868Z" transform="translate(-325.574 -165.555)" fill="#ed9033"/>
      <path id="Path_2373" data-name="Path 2373" d="M668.751,317.46l-.326.868H635.051l-.331-.868Z" transform="translate(-326.636 -168.382)" fill="#ed9033"/>
      <path id="Path_2374" data-name="Path 2374" d="M668.554,323.77l-.326.868h-30.8l-.326-.868Z" transform="translate(-327.724 -171.269)" fill="#ed9033"/>
      <path id="Path_2375" data-name="Path 2375" d="M667.792,331.586H637.906l-.326-2.436h30.537Z" transform="translate(-327.944 -173.729)" fill="#1b3431"/>
      <path id="Path_2376" data-name="Path 2376" d="M668.478,407.946H631.771l-.4-2.436h37.509Z" transform="translate(-325.103 -208.657)" fill="#1b3431"/>
      <path id="Path_2377" data-name="Path 2377" d="M696.433,387.492l-8.714-53.852H685.44l8.958,53.852Z" transform="translate(-349.835 -175.783)" fill="#1b3431"/>
      <path id="Path_2378" data-name="Path 2378" d="M627.935,387.492l8.958-53.852h-2.279L625.9,387.492Z" transform="translate(-322.601 -175.783)" fill="#1b3431"/>
      <path id="Path_2379" data-name="Path 2379" d="M126.7,250.108a.483.483,0,0,0-.179-.591,77.955,77.955,0,0,1-14.373-13.147c-6.549-7.656-14.379-19.962-14.5-35.117a.483.483,0,1,0-.966,0,49.333,49.333,0,0,0,4.688,20.309,66.935,66.935,0,0,0,10.06,15.453,78.956,78.956,0,0,0,14.558,13.3.483.483,0,0,0,.667-.136.506.506,0,0,0,.043-.076Z" transform="translate(-80.668 -115.007)" fill="#285b5c"/>
      <path id="Path_2380" data-name="Path 2380" d="M96.8,233.464a.483.483,0,0,0-.174-.591,19.812,19.812,0,0,0-10.092-3.093.483.483,0,1,0,0,.966,19.179,19.179,0,0,1,9.544,2.93.483.483,0,0,0,.716-.212Z" transform="translate(-75.806 -128.276)" fill="#285b5c"/>
      <path id="Path_2381" data-name="Path 2381" d="M118.641,246.992a.483.483,0,0,0,0-.364c-3.6-9.354.591-16.1.635-16.169a.489.489,0,1,0-.814-.543c-.184.293-4.493,7.233-.722,17.037a.483.483,0,0,0,.9,0Z" transform="translate(-89.596 -128.24)" fill="#285b5c"/>
      <path id="Path_2382" data-name="Path 2382" d="M117.977,272.269a.483.483,0,0,0-.152-.57,24.959,24.959,0,0,0-5.534-2.979,21.817,21.817,0,0,0-13.022-1.167.483.483,0,1,0,.228.939c9.392-2.268,17.651,3.912,17.732,3.972a.483.483,0,0,0,.738-.2Z" transform="translate(-81.683 -145.313)" fill="#285b5c"/>
      <path id="Path_2383" data-name="Path 2383" d="M118.135,226.657s-1.91-11.8,3.505-12.55C128.5,213.168,124.646,225.42,118.135,226.657Z" transform="translate(-90.332 -121.084)" fill="#fff"/>
      <path id="Path_2384" data-name="Path 2384" d="M98.779,264.777s-9.826-6.815-12.832-2.246C82.132,268.3,94.878,270.1,98.779,264.777Z" transform="translate(-75.436 -142.536)" fill="#fff"/>
      <path id="Path_2385" data-name="Path 2385" d="M94.383,198.944s-8.464-13.9.1-14.3C99.765,184.391,99.63,194.983,94.383,198.944Z" transform="translate(-77.91 -107.63)" fill="#fff"/>
      <path id="Path_2386" data-name="Path 2386" d="M128.25,263.792a.483.483,0,0,0,.033-.255,9.753,9.753,0,0,1,3.022-8.1.483.483,0,0,0-.635-.727,10.606,10.606,0,0,0-3.342,8.964.483.483,0,0,0,.922.119Z" transform="translate(-94.642 -139.63)" fill="#285b5c"/>
      <circle id="Ellipse_381" data-name="Ellipse 381" cx="2.333" cy="2.333" r="2.333" transform="translate(6.893 102.806) rotate(-67.09)" fill="#fff"/>
      <circle id="Ellipse_382" data-name="Ellipse 382" cx="2.333" cy="2.333" r="2.333" transform="translate(33.1 116.5) rotate(-67.09)" fill="#fff"/>
      <path id="Path_2387" data-name="Path 2387" d="M598.04,161.613a.483.483,0,0,1,.185-.586,77.954,77.954,0,0,0,14.541-12.957c6.647-7.569,14.65-19.772,14.954-34.927a.483.483,0,0,1,.966,0,49.333,49.333,0,0,1-4.948,20.25,66.935,66.935,0,0,1-10.26,15.317,78.956,78.956,0,0,1-14.731,13.114.483.483,0,0,1-.667-.147A.5.5,0,0,1,598.04,161.613Z" transform="translate(-309.978 -74.705)" fill="#285b5c"/>
      <path id="Path_2388" data-name="Path 2388" d="M644.92,145.356a.483.483,0,0,1,.184-.586,19.867,19.867,0,0,1,10.13-2.963.483.483,0,0,1,0,.966,19.177,19.177,0,0,0-9.582,2.805.483.483,0,0,1-.667-.141.488.488,0,0,1-.065-.081Z" transform="translate(-331.421 -88.036)" fill="#285b5c"/>
      <path id="Path_2389" data-name="Path 2389" d="M629.363,158.578a.483.483,0,0,1,0-.364c3.717-9.305-.38-16.11-.423-16.18a.483.483,0,1,1,.819-.51c.179.293,4.4,7.292.5,17.048a.483.483,0,0,1-.9,0Z" transform="translate(-324.09 -87.797)" fill="#285b5c"/>
      <path id="Path_2390" data-name="Path 2390" d="M616.209,183.836a.483.483,0,0,1,.157-.57,24.958,24.958,0,0,1,5.573-2.9,21.822,21.822,0,0,1,13.022-1,.484.484,0,0,1-.239.939c-9.36-2.393-17.7,3.679-17.781,3.744a.483.483,0,0,1-.738-.206Z" transform="translate(-318.288 -104.948)" fill="#285b5c"/>
      <path id="Path_2391" data-name="Path 2391" d="M626.481,138.232s2.067-11.78-3.342-12.594C616.286,124.607,619.987,136.919,626.481,138.232Z" transform="translate(-319.797 -80.614)" fill="#5a918e"/>
      <path id="Path_2392" data-name="Path 2392" d="M640.22,176.553s9.913-6.685,12.859-2.078C656.813,180.313,644.062,181.957,640.22,176.553Z" transform="translate(-329.287 -102.239)" fill="#5a918e"/>
      <path id="Path_2393" data-name="Path 2393" d="M650.322,110.812s8.643-13.782.087-14.3C645.108,96.2,645.108,106.8,650.322,110.812Z" transform="translate(-332.124 -67.317)" fill="#5a918e"/>
      <path id="Path_2394" data-name="Path 2394" d="M618.635,175.212a.482.482,0,0,1-.027-.255,9.762,9.762,0,0,0-2.914-8.139.484.484,0,0,1,.646-.722,10.587,10.587,0,0,1,3.223,9.007.483.483,0,0,1-.922.109Z" transform="translate(-317.995 -99.091)" fill="#285b5c"/>
      <circle id="Ellipse_383" data-name="Ellipse 383" cx="2.333" cy="2.333" r="2.333" transform="translate(321.556 52.562) rotate(-22.17)" fill="#5a918e"/>
      <circle id="Ellipse_384" data-name="Ellipse 384" cx="2.333" cy="2.333" r="2.333" transform="translate(295.168 65.921) rotate(-22.17)" fill="#5a918e"/>
      <ellipse id="Ellipse_385" data-name="Ellipse 385" cx="14.574" cy="14.39" rx="14.574" ry="14.39" transform="translate(0 40.017)" fill="#e9cec2"/>
      <ellipse id="Ellipse_386" data-name="Ellipse 386" cx="14.574" cy="14.39" rx="14.574" ry="14.39" transform="translate(0 38.139)" fill="#1f489e"/>
      <path id="Path_2395" data-name="Path 2395" d="M84.262,141.367a11.7,11.7,0,1,1,11.845-11.7A11.7,11.7,0,0,1,84.262,141.367Z" transform="translate(-69.704 -77.135)" fill="#fff"/>
      <path id="Path_2396" data-name="Path 2396" d="M95.885,129.53q0,.467-.038.922a11.861,11.861,0,0,0-23.619,0q-.038-.456-.038-.922a11.849,11.849,0,1,1,23.7,0Z" transform="translate(-69.466 -77.002)" fill="#e9cec2"/>
      <path id="Path_2397" data-name="Path 2397" d="M88.866,134.765a.3.3,0,0,1-.239-.119l-5.795-7.727a.293.293,0,0,1,.06-.407.3.3,0,0,1,.412.06l5.67,7.542,6.446-2.794a.3.3,0,0,1,.391.152.293.293,0,0,1-.152.385L89,134.743A.3.3,0,0,1,88.866,134.765Z" transform="translate(-74.308 -81.015)" fill="#1b3431"/>
      <ellipse id="Ellipse_387" data-name="Ellipse 387" cx="159.669" cy="10.727" rx="159.669" ry="10.727" transform="translate(7.037 200.543)" fill="#1f489e"/>
      <rect id="Rectangle_562" data-name="Rectangle 562" width="256.891" height="159.289" rx="17.93" transform="translate(38.66 36.49)" fill="#1f489e" stroke="#fff" stroke-width="1"/>
      <path id="Path_2398" data-name="Path 2398" d="M393.524,136V252.628a6.433,6.433,0,0,1-6.63,6.213H166.09a6.815,6.815,0,0,1-4.932-2.062,5.969,5.969,0,0,1-1.7-4.151V136a6.438,6.438,0,0,1,6.636-6.213h220.8a6.918,6.918,0,0,1,3.353.857A6.148,6.148,0,0,1,393.524,136Z" transform="translate(-109.384 -82.541)" fill="#8e9dcb"/>
      <path id="Path_2399" data-name="Path 2399" d="M399.078,393.32v.912a20.157,20.157,0,0,1-20.163,20.163H114.353A20.157,20.157,0,0,1,94.19,394.232v-.884Z" transform="translate(-79.529 -203.081)" fill="#414f50"/>
      <circle id="Ellipse_388" data-name="Ellipse 388" cx="2.914" cy="2.914" r="2.914" transform="translate(163.532 197.851)" fill="#1b3431"/>
      <circle id="Ellipse_389" data-name="Ellipse 389" cx="2.914" cy="2.914" r="2.914" transform="translate(153.234 197.851)" fill="#1b3431"/>
      <circle id="Ellipse_390" data-name="Ellipse 390" cx="2.914" cy="2.914" r="2.914" transform="translate(173.825 197.851)" fill="#1b3431"/>
      <circle id="Ellipse_391" data-name="Ellipse 391" cx="2.914" cy="2.914" r="2.914" transform="translate(276.028 197.851)" fill="#d76751"/>
      <circle id="Ellipse_392" data-name="Ellipse 392" cx="2.914" cy="2.914" r="2.914" transform="translate(286.326 197.851)" fill="#f5bf69"/>
      <path id="Path_2400" data-name="Path 2400" d="M312.17,393.32v.2a2.689,2.689,0,0,0,2.387,2.892H376.8a2.674,2.674,0,0,0,2.387-2.892v-.2Z" transform="translate(-179.235 -203.081)" fill="#647a7a"/>
      <path id="Path_2401" data-name="Path 2401" d="M393.519,136.406v7.347H159.45v-7.347a6.641,6.641,0,0,1,6.636-6.636h220.8A6.641,6.641,0,0,1,393.519,136.406Z" transform="translate(-109.38 -82.532)" fill="#fff"/>
      <circle id="Ellipse_393" data-name="Ellipse 393" cx="1.753" cy="1.753" r="1.753" transform="translate(261.79 52.843)" fill="#468280"/>
      <circle id="Ellipse_394" data-name="Ellipse 394" cx="1.753" cy="1.753" r="1.753" transform="translate(267.482 52.843)" fill="#78b1de"/>
      <circle id="Ellipse_395" data-name="Ellipse 395" cx="1.753" cy="1.753" r="1.753" transform="translate(272.897 52.843)" fill="#e2534d"/>
      <rect id="Rectangle_563" data-name="Rectangle 563" width="181.839" height="3.711" rx="1.856" transform="translate(72.87 52.74)" fill="#8e9dcb"/>
      <path id="Path_2402" data-name="Path 2402" d="M176.865,141.625v1.72a.315.315,0,0,1-.472.271l-1.487-.857-1.487-.857a.315.315,0,0,1,0-.543l1.487-.857,1.487-.857a.315.315,0,0,1,.472.271Z" transform="translate(-115.698 -87.029)" fill="#1b3431"/>
      <path id="Path_2403" data-name="Path 2403" d="M184.72,141.625v1.72a.315.315,0,0,0,.472.271l1.487-.857,1.487-.857a.315.315,0,0,0,0-.543l-1.487-.857-1.487-.857a.315.315,0,0,0-.472.271Z" transform="translate(-120.938 -87.029)" fill="#1b3431"/>
      <rect id="Rectangle_564" data-name="Rectangle 564" width="170.011" height="95.431" rx="7.34" transform="translate(86.565 67.054)" fill="#fff"/>
      <path id="Path_2404" data-name="Path 2404" d="M479.189,286.96a3.256,3.256,0,0,0,.45,1.747c.146.25.3.494.434.743l2.382,4.3,1.563-2.816c.412-.749.863-1.476,1.3-2.208a3.3,3.3,0,1,0-6.131-1.763Zm1.9-.315a1.386,1.386,0,1,1,0,.005Z" transform="translate(-255.63 -152.961)" fill="#8e9dcb"/>
      <path id="Path_2405" data-name="Path 2405" d="M454.8,288.973a4.943,4.943,0,1,0,4.943-4.943A4.943,4.943,0,0,0,454.8,288.973Zm2.773,1.829a6.512,6.512,0,0,1-.266-1.731h2.235V290.8Zm1.167,2.61a4.53,4.53,0,0,1-2.963-2.214h1.508a5.508,5.508,0,0,0,.857,1.573,5.041,5.041,0,0,0,.6.635Zm.8-2.214v2.317a4.14,4.14,0,0,1-1.085-1,5.086,5.086,0,0,1-.738-1.318Zm-1.725-4.661a6.175,6.175,0,0,1,1.552-2.1h.179v2.111Zm-1.91,0a4.568,4.568,0,0,1,2.767-1.986,6.665,6.665,0,0,0-.624.771,6.511,6.511,0,0,0-.667,1.215Zm1.405,2.132a5.675,5.675,0,0,1,.342-1.731h1.888v1.731Zm-2.105,0a4.5,4.5,0,0,1,.472-1.731h1.552a6.1,6.1,0,0,0-.32,1.731Zm1.7.4a7,7,0,0,0,.25,1.731h-1.579a4.5,4.5,0,0,1-.38-1.731Zm5.616,0h1.758a4.5,4.5,0,0,1-.38,1.731h-1.628a7,7,0,0,0,.228-1.731Zm-2.588-2.528v-2.111h.125a5.884,5.884,0,0,1,1,1.123,6.083,6.083,0,0,1,.543.977Zm1.845.4a5.715,5.715,0,0,1,.342,1.731h-2.17v-1.731Zm.271-.4a6.511,6.511,0,0,0-.667-1.215,6.682,6.682,0,0,0-.64-.787,4.563,4.563,0,0,1,2.827,2Zm.076,2.528a6.51,6.51,0,0,1-.266,1.731h-1.926v-1.731Zm.4-.4a6.1,6.1,0,0,0-.32-1.731h1.6a4.492,4.492,0,0,1,.472,1.731Zm1.183,2.529a4.59,4.59,0,0,1-3.022,2.225,5.023,5.023,0,0,0,.608-.651,5.514,5.514,0,0,0,.857-1.573Zm-1.975,0a4.677,4.677,0,0,1-1.791,2.29V291.2Z" transform="translate(-244.475 -153.091)" fill="#8e9dcb"/>
      <path id="Path_2406" data-name="Path 2406" d="M502.364,287.27c0-.429-.412-.651-.928-.651a1.628,1.628,0,0,0-1.438.939l-2.458-1.232a4.511,4.511,0,0,1,4.308-2.235c2.208,0,3.8.912,3.8,2.637,0,2.116-2.208,2.485-2.208,3.549h-2.849C500.584,288.61,502.364,288.111,502.364,287.27Zm-2.17,5.193a1.834,1.834,0,1,1,1.823,1.635A1.834,1.834,0,0,1,500.193,292.462Z" transform="translate(-264.024 -153.119)" fill="#8e9dcb"/>
      <rect id="Rectangle_565" data-name="Rectangle 565" width="11.259" height="34.997" rx="2.32" transform="translate(256.115 85.616)" fill="#fff"/>
      <rect id="Rectangle_566" data-name="Rectangle 566" width="6.186" height="4.769" rx="1.66" transform="translate(258.008 99.903)" fill="#1b3431"/>
      <path id="Path_2407" data-name="Path 2407" d="M555.506,226.83V231.6l-1.926-1.622v-1.53Z" transform="translate(-289.522 -126.927)" fill="#1b3431"/>
      <circle id="Ellipse_396" data-name="Ellipse 396" cx="3.972" cy="3.972" r="3.972" transform="translate(258.025 109.17)" fill="#8e9dcb"/>
      <path id="Path_2408" data-name="Path 2408" d="M546.214,251.582a.418.418,0,0,0,.293-.125l3.749-3.749a.418.418,0,1,0-.591-.591l-3.766,3.755a.418.418,0,0,0,.293.711Z" transform="translate(-286.089 -136.151)" fill="#fff"/>
      <path id="Path_2409" data-name="Path 2409" d="M549.964,251.587a.418.418,0,0,0,.293-.711l-3.749-3.749a.418.418,0,1,0-.591.591l3.749,3.749A.418.418,0,0,0,549.964,251.587Z" transform="translate(-286.096 -136.155)" fill="#fff"/>
      <rect id="Rectangle_567" data-name="Rectangle 567" width="2.187" height="5.697" rx="1.093" transform="translate(263.093 93.722) rotate(180)" fill="#1b3431"/>
      <rect id="Rectangle_568" data-name="Rectangle 568" width="0.445" height="2.675" rx="0.222" transform="translate(262.219 95.073) rotate(180)" fill="#1b3431"/>
      <rect id="Rectangle_569" data-name="Rectangle 569" width="4.39" height="0.939" rx="0.469" transform="translate(264.194 95.28) rotate(180)" fill="#1b3431"/>
      <rect id="Rectangle_570" data-name="Rectangle 570" width="43.093" height="24.194" rx="3.45" transform="translate(92.241 113.131)" fill="#8e9dcb"/>
      <rect id="Rectangle_571" data-name="Rectangle 571" width="43.093" height="24.194" rx="3.45" transform="translate(202.93 75.149)" fill="#8e9dcb"/>
      <rect id="Rectangle_572" data-name="Rectangle 572" width="43.158" height="2.073" rx="1.036" transform="translate(202.865 113.766)" fill="#8e9dcb"/>
      <rect id="Rectangle_573" data-name="Rectangle 573" width="43.158" height="2.073" rx="1.036" transform="translate(202.865 105.003)" fill="#8e9dcb"/>
      <rect id="Rectangle_574" data-name="Rectangle 574" width="43.158" height="2.073" rx="1.036" transform="translate(202.865 122.529)" fill="#8e9dcb"/>
      <rect id="Rectangle_575" data-name="Rectangle 575" width="43.158" height="2.073" rx="1.036" transform="translate(92.176 93.283)" fill="#8e9dcb"/>
      <rect id="Rectangle_576" data-name="Rectangle 576" width="43.158" height="2.073" rx="1.036" transform="translate(92.176 84.52)" fill="#8e9dcb"/>
      <rect id="Rectangle_577" data-name="Rectangle 577" width="43.158" height="2.073" rx="1.036" transform="translate(92.176 102.046)" fill="#8e9dcb"/>
      <path id="Path_2410" data-name="Path 2410" d="M226.705,314.85H396.694v13.939a.884.884,0,0,1-.884.879H227.584a.884.884,0,0,1-.884-.879Z" transform="translate(-140.14 -167.188)" fill="#1f489e"/>
      <path id="Path_2411" data-name="Path 2411" d="M516.641,322.987v-1.259h1.574V320.6h-2.132a.543.543,0,0,0-.543.543v1.845Z" transform="translate(-272.258 -169.819)" fill="#fff"/>
      <path id="Path_2412" data-name="Path 2412" d="M516.628,329.1H515.51v1.91a.543.543,0,0,0,.543.543h2.132v-1.118h-1.574Z" transform="translate(-272.244 -173.707)" fill="#fff"/>
      <path id="Path_2413" data-name="Path 2413" d="M525.256,323.01h1.118v-1.818a.543.543,0,0,0-.543-.543H523.78v1.118h1.492Z" transform="translate(-276.027 -169.841)" fill="#fff"/>
      <path id="Path_2414" data-name="Path 2414" d="M525.242,329.1v1.351H523.75v1.118H525.8a.543.543,0,0,0,.543-.543V329.1Z" transform="translate(-276.013 -173.707)" fill="#fff"/>
      <rect id="Rectangle_578" data-name="Rectangle 578" width="170.011" height="2.789" transform="translate(86.565 144.878)" fill="#efe3df"/>
      <path id="Path_2415" data-name="Path 2415" d="M249.465,175.9h1.915v4.2h2.566v1.487H249.46Z" transform="translate(-150.551 -103.632)" fill="#1b3431"/>
      <path id="Path_2416" data-name="Path 2416" d="M258.71,175.9h1.915v5.686H258.71Z" transform="translate(-154.782 -103.632)" fill="#1b3431"/>
      <path id="Path_2417" data-name="Path 2417" d="M269.51,175.9l-2.4,5.686h-1.883l-2.4-5.686h2.062l1.357,3.326,1.389-3.326Z" transform="translate(-156.662 -103.632)" fill="#1b3431"/>
      <path id="Path_2418" data-name="Path 2418" d="M280.231,180.143v1.449H275.5V175.9h4.612v1.449H277.4v.667h2.4V179.4h-2.4v.749Z" transform="translate(-162.462 -103.632)" fill="#1b3431"/>
      <circle id="Ellipse_397" data-name="Ellipse 397" cx="2.339" cy="2.339" r="2.339" transform="translate(91.08 72.729)" fill="#8e9dcb"/>
      <g id="Group_70" data-name="Group 70" transform="translate(87.233 4.634)" clip-path="url(#clip-path)">
        <path id="Path_2419" data-name="Path 2419" d="M468.124,130.472s2.018,4.585,5.768,4.531c3.028-.043,5-3.473,5.654-4.786.157-.315.233-.51.233-.51a5.082,5.082,0,0,0,.543-.119c.738-.2,2.018-.695,2.3-1.742.4-1.492-2.507-1.687-2.507-1.687s1.058-1.584.483-2.387-2.458-.5-2.458-.5,1.628-1.8.7-2.751c-1.438-1.432-3.006.955-3.147,1.085.092-.184,1.975-3.505.445-3.619-1.335-.1-3,1.8-3.972,3.516l-.239.429-.26-.1c-.781-.271-3.125-.939-4.145.483C466.263,124.075,468.124,130.472,468.124,130.472Z" transform="translate(-337.326 -81.774)" fill="#f49d8b"/>
        <path id="Path_2420" data-name="Path 2420" d="M476.057,138.986a.288.288,0,0,0,.25-.5,2.6,2.6,0,0,1-.966-1.986c0-1.915,2.078-3.8,2.1-3.8a.29.29,0,1,0-.385-.434c-.092.081-2.3,2.051-2.3,4.221a3.153,3.153,0,0,0,1.161,2.42.293.293,0,0,0,.136.076Z" transform="translate(-340.837 -88.275)" fill="#d37363"/>
        <path id="Path_2421" data-name="Path 2421" d="M478.352,129.618a.9.9,0,0,0,.591.662,1,1,0,0,0,.206.043,2.1,2.1,0,0,0,.543,0,2.066,2.066,0,0,0-.282.385,1,1,0,0,0-.13.385.754.754,0,0,0,.3.673,3.688,3.688,0,0,0,2.572.336,3.055,3.055,0,0,0-.96,1.66.906.906,0,0,0,.331.825,1.715,1.715,0,0,0,.722.288,9.446,9.446,0,0,0,2.431.043c.157-.315.233-.51.233-.51a5,5,0,0,0,.543-.119.282.282,0,0,0-.163,0c-1.085.146-2.935.239-3.4-.13a.331.331,0,0,1-.114-.326,3.469,3.469,0,0,1,1.693-1.991.291.291,0,0,0-.212-.543c-.689.19-2.621.543-3.3,0-.1-.081-.092-.136-.087-.168a.96.96,0,0,1,.326-.5,7.123,7.123,0,0,1,1.5-1.053.277.277,0,0,0,.119-.125.282.282,0,0,0,0-.266.288.288,0,0,0-.391-.119c-.092.049-.277.152-.5.293a6.51,6.51,0,0,1-1.253.374,1.15,1.15,0,0,1-.51,0,.331.331,0,0,1-.217-.26,1.845,1.845,0,0,1,.081-.928.282.282,0,0,0-.1-.309h0a.282.282,0,0,0-.445.146,2.42,2.42,0,0,0-.114,1.232Z" transform="translate(-342.465 -86.438)" fill="#d37363"/>
        <path id="Path_2422" data-name="Path 2422" d="M477.726,101.58a7.867,7.867,0,0,0-1.085,1.3c-.3.483-.5.738-.711,1.085h0l-.51-24.21a.288.288,0,0,1,.57-.027l1.715,21.877Z" transform="translate(-341.139 -64.169)" fill="#414f50"/>
        <path id="Path_2423" data-name="Path 2423" d="M476.938,139.193c2.17.722,2.469-.3,2.469-.3l-.44-5.6-.1-.071a.754.754,0,0,1-.3-.673,1,1,0,0,1,.13-.385,1.726,1.726,0,0,1,.168-.25v-.119a2,2,0,0,1-.407,0,1,1,0,0,1-.206-.043.847.847,0,0,1-.461-.364,1.432,1.432,0,0,1-.743.591,1.938,1.938,0,0,1-.271.076Z" transform="translate(-341.757 -87.902)" fill="#414f50"/>
        <path id="Path_2424" data-name="Path 2424" d="M469.981,128.116a9.513,9.513,0,0,0,2.17.76,3.256,3.256,0,0,0,1.72-.033,1.443,1.443,0,0,0,.863-.836c.581-1.422-.581-2.778-1.324-3.467l-.239.429-.26-.1c.635.543,1.763,1.763,1.291,2.914a.868.868,0,0,1-.543.51c-.96.358-2.789-.385-3.413-.7a.289.289,0,0,0-.26.515Z" transform="translate(-338.581 -84.773)" fill="#d37363"/>
        <path id="Path_2425" data-name="Path 2425" d="M404.576,134.62h0v.027l.033.065.076.157.168.347.179.358.19.364c.255.488.543.988.8,1.481.543.982,1.145,1.97,1.774,2.925s1.27,1.9,1.959,2.811c.347.45.689.906,1.053,1.34s.716.874,1.085,1.308c.743.846,1.5,1.677,2.3,2.458.19.2.4.391.6.581s.4.391.608.57c.412.369.819.749,1.243,1.085.83.727,1.709,1.373,2.588,2.024a29.983,29.983,0,0,0,2.713,1.758l.7.407.716.374.358.19.087.049h-.043l-.06-.027a2.039,2.039,0,0,0-.255-.1,3.511,3.511,0,0,0-1.167-.212h-.5a1.755,1.755,0,0,0-.212.038l-.163.038h-.136l-.109.043h-.092c-.076.049.081,0,.3-.19a8.509,8.509,0,0,0,.808-.727c.3-.3.624-.662.95-1.047.651-.77,1.313-1.66,1.964-2.594s1.291-1.926,1.921-2.946,1.253-2.062,1.861-3.125,1.21-2.138,1.8-3.228q.445-.814.874-1.628l.836-1.579,10.776,4.444-.184.543-.179.494-.358.977q-.366.969-.749,1.921c-.543,1.27-1.058,2.534-1.628,3.8s-1.188,2.507-1.839,3.76c-.331.624-.662,1.248-1.015,1.872s-.716,1.248-1.085,1.872a43.192,43.192,0,0,1-2.577,3.76,23.874,23.874,0,0,1-1.628,1.91,20.692,20.692,0,0,1-2.029,1.953,14.862,14.862,0,0,1-2.963,1.948l-.233.114-.255.109-.543.212c-.179.071-.38.136-.543.2l-.288.092-.315.081-.64.147c-.228.043-.461.076-.695.109l-.353.043h-1.129a10.081,10.081,0,0,1-3.082-.57c-.239-.087-.472-.184-.705-.288l-.174-.076-.157-.071-.125-.065-.51-.26-1.015-.543c-.336-.184-.662-.374-.993-.543-1.329-.743-2.594-1.59-3.836-2.458a38.779,38.779,0,0,1-3.543-2.816q-1.685-1.5-3.256-3.1l-.76-.814c-.255-.271-.494-.543-.738-.83s-.488-.543-.722-.841l-.705-.852a54.453,54.453,0,0,1-4.938-7.276c-.716-1.275-1.394-2.566-2.008-3.907-.309-.673-.608-1.346-.89-2.046-.071-.174-.141-.347-.206-.543s-.136-.358-.206-.543-.136-.369-.206-.543l-.228-.678Z" transform="translate(-303.398 -89.384)" fill="#78b1de"/>
        <circle id="Ellipse_398" data-name="Ellipse 398" cx="0.803" cy="0.803" r="0.803" transform="translate(131.779 52.77) rotate(-9.59)" fill="#4e88af"/>
        <path id="Path_2426" data-name="Path 2426" d="M448.467,176.6a.342.342,0,0,1-.385-.168,25.87,25.87,0,0,1-2.029-5.627.342.342,0,1,1,.667-.152,25.682,25.682,0,0,0,1.964,5.426.342.342,0,0,1-.136.467Z" transform="translate(-327.702 -105.745)" fill="#4e88af"/>
        <path id="Path_2427" data-name="Path 2427" d="M445.076,175.108a.342.342,0,0,1-.423-.407,27.845,27.845,0,0,1,.884-3.3.344.344,0,1,1,.629.277,28.305,28.305,0,0,0-.841,3.169.342.342,0,0,1-.25.266Z" transform="translate(-327.062 -106.112)" fill="#4e88af"/>
        <path id="Path_2428" data-name="Path 2428" d="M471.729,155.363a.342.342,0,0,1-.266-.038,92.376,92.376,0,0,0-11.058-5.095.344.344,0,0,1,.25-.64,96.049,96.049,0,0,1,11.167,5.149.342.342,0,0,1-.092.624Z" transform="translate(-334.171 -96.221)" fill="#4e88af"/>
        <path id="Path_2429" data-name="Path 2429" d="M474.968,152.316a.342.342,0,0,1-.4-.477l2.322-4.883a.342.342,0,0,1,.619.293l-2.322,4.883a.342.342,0,0,1-.222.185Z" transform="translate(-340.736 -94.937)" fill="#4e88af"/>
        <path id="Path_2430" data-name="Path 2430" d="M346.289,262.535q.114.45.244.879v.033q.179.581.4,1.112c1.291,3.142,11.221,3.587,21,2.474,7.6-.863,15.068-2.664,18.356-4.883,3.082-2.067-3.527-21.08-3.527-21.08l-37.075,7.857S344.856,256.854,346.289,262.535Z" transform="translate(-281.687 -138.075)" fill="#1b3431"/>
        <path id="Path_2431" data-name="Path 2431" d="M391.463,309.423h18.4c-.667-10.179-1.7-21.606-2.952-33.608-.033-.32-.065-.64-.1-.96q-.168-1.6-.342-3.212l-.092-.863-3.57,1.628-.874.407-14.01,6.511.146,1.232Z" transform="translate(-301.116 -151.665)" fill="#1b3431"/>
        <path id="Path_2432" data-name="Path 2432" d="M395.331,317.768h.917l-3.766-28.313a.456.456,0,1,0-.9.119Z" transform="translate(-302.786 -160.009)" fill="#414f50"/>
        <path id="Path_2433" data-name="Path 2433" d="M406.436,259.016a18.59,18.59,0,0,0,3.956,8.171,10.534,10.534,0,0,0,2.089,1.78,8.806,8.806,0,0,0,1.937.933,7.906,7.906,0,0,0,.95.266c-.033-.32-.065-.64-.1-.96q-.228-.057-.456-.13a7.99,7.99,0,0,1-1.839-.874,9.34,9.34,0,0,1-1.7-1.416,17.865,17.865,0,0,1-3.939-7.933.456.456,0,1,0-.9.168Z" transform="translate(-309.578 -146.031)" fill="#414f50"/>
        <path id="Path_2434" data-name="Path 2434" d="M390.759,268.533a.374.374,0,0,1-.358.385h0a.374.374,0,0,1-.4-.347c-.071-1.373-.152-2.778-.244-4.178,0-.25-.033-.494-.049-.743-.309-4.585-.695-9.083-.988-12.263,0-.255-.049-.5-.071-.743-.065-.695-.125-1.313-.174-1.839l.749-.125c.049.543.109,1.15.174,1.85a7.29,7.29,0,0,0,.071.743c.288,3.147.673,7.6.982,12.165,0,.25.033.5.054.754C390.6,265.674,390.683,267.112,390.759,268.533Z" transform="translate(-301.372 -141.556)" fill="#414f50"/>
        <path id="Path_2435" data-name="Path 2435" d="M389.23,264.069a9.929,9.929,0,0,1-1.324.51,7.692,7.692,0,0,1-.749.19,5.428,5.428,0,0,1-.716.092,2.615,2.615,0,0,1-1.275-.2,1.552,1.552,0,0,1-.863-1.156c-.277-1.416-.868-7.254-1.264-11.394,0-.255-.049-.5-.071-.743-.065-.662-.119-1.264-.168-1.774l.754-.1c.049.515.1,1.123.168,1.791l.071.743c.4,4.118.988,9.951,1.259,11.318a.814.814,0,0,0,.456.64,2.68,2.68,0,0,0,1.628,0c.255-.054.51-.13.749-.206a9.019,9.019,0,0,0,1.042-.412.385.385,0,0,1,.51.163.364.364,0,0,1-.206.532Z" transform="translate(-298.774 -141.931)" fill="#414f50"/>
        <path id="Path_2436" data-name="Path 2436" d="M346.78,274.877a.138.138,0,0,0,0,.033l.087.9c.825,8.681,2.094,21.7,3.19,31.47h18.193l-.065-34.813a110.276,110.276,0,0,0-10.515-4.221l-.884-.293c-.543-.179-1.123-.358-1.682-.543l-.89-.25c-3.353-.912-6.462-1.362-8.2-.629,0,0,.271,2.952.695,7.471C346.726,274.3,346.759,274.584,346.78,274.877Z" transform="translate(-281.946 -149.554)" fill="#1b3431"/>
        <path id="Path_2437" data-name="Path 2437" d="M355.531,316.239c-1.047-11.883-2.333-29.843-2.349-30.1a.456.456,0,1,0-.906.065c0,.228,1.3,18.133,2.344,30.033Z" transform="translate(-284.809 -158.48)" fill="#414f50"/>
        <path id="Path_2438" data-name="Path 2438" d="M347.429,274.093a.135.135,0,0,0,0,.033l.087.9a7.325,7.325,0,0,0,3.8-.347,12.119,12.119,0,0,0,5.48-4.661,22.5,22.5,0,0,0,1.525-2.556,21.944,21.944,0,0,0,1.085-2.431.456.456,0,0,0-.857-.3,21.4,21.4,0,0,1-1.085,2.442,21.782,21.782,0,0,1-1.438,2.382,11.222,11.222,0,0,1-5.008,4.3A6.473,6.473,0,0,1,347.429,274.093Z" transform="translate(-282.595 -148.77)" fill="#414f50"/>
        <path id="Path_2439" data-name="Path 2439" d="M335.454,166.465q.1,1.454.244,2.9c.5,4.856,2.36,21.1,4.037,25.643a41.261,41.261,0,0,0,19.691,3.8c1.259-.054,2.5-.163,3.728-.309q1.628-.2,3.207-.51c6.858-1.324,12.859-4.086,16.576-7.6-1.758-6.815-3.8-19.17-4.585-24.471-.146-.988-.271-1.948-.385-2.892s-.212-1.807-.3-2.68c-.1-.993-.19-1.959-.26-2.9s-.136-1.98-.184-2.925-.081-1.975-.1-2.914c-.271-12.762,2.062-19.061,1.443-22.116-.928-4.6-5.182-4.536-9.061-5.969-.228-.081-.45-.174-.673-.271l-.445-.2a8.681,8.681,0,0,1-3.549-2.957H353.436a15.969,15.969,0,0,1-2.577,1.6l-.483.239c-.407.2-.857.385-1.346.575a21.525,21.525,0,0,1-4.281,1.134c-5.1.825-8.03,6.251-8.568,15.052-.271,4.444-.543,8.633-.749,12.675a5.646,5.646,0,0,1-.038.8A126.877,126.877,0,0,0,335.454,166.465Z" transform="translate(-277.012 -82.742)" fill="#fff"/>
        <path id="Path_2440" data-name="Path 2440" d="M383.263,182.747l-1.948,4.726h0l-.879,2.127-2.469,6.007-1.2-2.317-.429-.819-.966-1.856-.423-.819-.966-1.856-.429-.819-.966-1.856h0l-.423-.819-.912-1.742.022-.19.136-1.389.315-3.136.141-1.389.315-3.142.136-1.384.315-3.142.136-1.384.315-3.142.141-1.389.309-3.136.141-1.389.315-3.136.136-1.389.315-3.142.141-1.384.309-3.142.141-1.384.152-1.514.174-1.736,2.4-.1.071.543.146,1.1.043.342.288,2.149.152,1.1.331,2.491.146,1.1.336,2.49.146,1.1.331,2.49.152,1.1.331,2.49.146,1.1.336,2.49.146,1.1.331,2.491.146,1.1.336,2.49.146,1.1.331,2.49.152,1.1.331,2.491.146,1.1.336,2.491.146,1.1Z" transform="translate(-293.355 -92.563)" fill="#e2534d"/>
        <path id="Path_2441" data-name="Path 2441" d="M381.322,143.55l-1.422,2.523-1.411-2.67.174-1.736,2.4-.1.071.543.147,1.1Z" transform="translate(-296.667 -92.563)" fill="#ba4131"/>
        <path id="Path_2442" data-name="Path 2442" d="M335.46,168.527q.1,1.454.244,2.9c.5,4.856,2.36,21.1,4.037,25.643a41.261,41.261,0,0,0,19.691,3.8l3.467-5.48,3.467,4.661c6.858-1.324,12.859-4.086,16.576-7.6-.635-2.469-1.313-5.665-1.953-8.991-.152-.8-.3-1.628-.456-2.409-.939-5.095-1.753-10.152-2.17-13.071-.147-.988-.271-1.948-.385-2.892s-.212-1.807-.3-2.68c-.1-.993-.19-1.959-.26-2.9s-.136-1.98-.184-2.925-.081-1.975-.1-2.914c-.271-12.762,2.062-19.061,1.443-22.116-.928-4.6-5.182-4.536-9.061-5.969l-.2.1-8.459,37.439-11.6-38.47-.212-.049a21.525,21.525,0,0,1-4.281,1.134c-5.1.825-8.03,6.251-8.568,15.052-.271,4.444-.543,8.633-.749,12.675a5.641,5.641,0,0,1-.038.8,126.9,126.9,0,0,0,.049,14.254Z" transform="translate(-277.017 -84.805)" fill="#78b1de"/>
        <path id="Path_2443" data-name="Path 2443" d="M343.96,224.383a.407.407,0,0,1-.38-.266c-5.567-14.818-5.48-43.038-5.48-43.321a.407.407,0,0,1,.407-.407h0a.407.407,0,0,1,.407.407c0,.282-.092,28.35,5.426,43.033a.407.407,0,0,1-.38.543Z" transform="translate(-278.328 -110.32)" fill="#4e88af"/>
        <path id="Path_2444" data-name="Path 2444" d="M401,225.89a73.023,73.023,0,0,0,10.06,3.017c-.152-.8-.3-1.628-.456-2.409-4.205-1.031-9.083-2.577-9.083-2.577Z" transform="translate(-307.099 -130.23)" fill="#4e88af"/>
        <path id="Path_2445" data-name="Path 2445" d="M359.218,226.84s-8.285,4.976-12.078,6.4l1.156,2.018a84.2,84.2,0,0,0,11.888-6.62Z" transform="translate(-282.463 -131.566)" fill="#4e88af"/>
        <path id="Path_2446" data-name="Path 2446" d="M390.914,126.265a4.037,4.037,0,0,1,5.122,1.427l-1.9,12.263-4.286,2.55,2.908,1.736L389.5,158.5l-7.054,5.2Z" transform="translate(-298.614 -85.381)" fill="#4e88af"/>
        <path id="Path_2447" data-name="Path 2447" d="M359.7,124.042s-3.125-1.986-5.29.982l2.675,13.847,4.3,2.534-2.9,1.747,3.31,14.243,7.846,5.171Z" transform="translate(-285.788 -84.248)" fill="#4e88af"/>
        <circle id="Ellipse_399" data-name="Ellipse 399" cx="0.857" cy="0.857" r="0.857" transform="translate(84.476 107.506) rotate(-85.22)" fill="#4e88af"/>
        <circle id="Ellipse_400" data-name="Ellipse 400" cx="0.857" cy="0.857" r="0.857" transform="translate(84.115 101.147) rotate(-85.22)" fill="#4e88af"/>
        <circle id="Ellipse_401" data-name="Ellipse 401" cx="0.857" cy="0.857" r="0.857" transform="translate(83.754 94.788) rotate(-85.22)" fill="#4e88af"/>
        <circle id="Ellipse_402" data-name="Ellipse 402" cx="0.857" cy="0.857" r="0.857" transform="translate(83.388 88.418) rotate(-85.22)" fill="#4e88af"/>
        <circle id="Ellipse_403" data-name="Ellipse 403" cx="0.857" cy="0.857" r="0.857" transform="translate(83.016 82.054) rotate(-85.22)" fill="#4e88af"/>
        <path id="Path_2448" data-name="Path 2448" d="M411.75,170.6a.364.364,0,0,0,.6-.266c0-2.805.1-5.817.309-8.985v-.342a.369.369,0,1,0-.733-.043q0,.122,0,.342c-.206,3.18-.309,6.207-.309,9.023a.364.364,0,0,0,.119.266Z" transform="translate(-311.956 -101.258)" fill="#4e88af"/>
        <path id="Path_2449" data-name="Path 2449" d="M363.834,80.492a8.863,8.863,0,0,1-3.218-4.786c-.543-2.577,1.628-2.577,1.628-2.577s-1.774-2.8-.711-4.883a3.8,3.8,0,0,1,3.993-2.116s-.716-4.162,5.909-3.8,10.57.591,11.644,3.451a2.664,2.664,0,0,1-1.628,3.7s2.675,1.628,1.367,3.321A2.816,2.816,0,0,1,379.879,74Z" transform="translate(-288.587 -56.308)" fill="#1b3431"/>
        <path id="Path_2450" data-name="Path 2450" d="M391.27,91.521s.819-3.093,3.332-2.512,3,8.823-1.736,8.79Z" transform="translate(-302.648 -68.488)" fill="#d37363"/>
        <path id="Path_2451" data-name="Path 2451" d="M369.231,112.046s-.591,1.042,4.021,2.317a9.891,9.891,0,0,0,6.842-.83,9.1,9.1,0,0,0,.939-.619,12.671,12.671,0,0,1,.027-6.31l.043-.125L369.09,100.51Z" transform="translate(-292.503 -73.782)" fill="#f49d8b"/>
        <path id="Path_2452" data-name="Path 2452" d="M372.23,109.19s2.892,7.938,9.3,8.313a9.1,9.1,0,0,0,.939-.619,12.671,12.671,0,0,1,.027-6.31Z" transform="translate(-293.939 -77.752)" fill="#1b3431"/>
        <path id="Path_2453" data-name="Path 2453" d="M374.682,96.4c4.954.912,8.871-1.253,9.3-5.5.1-1.026.147-2.5.147-4.048V85.106c-.033-2.751-.136-5.241-.136-5.241-.781-6.815-7.585-9.289-12.957-6.641s-3.218,10.939-3.163,15A8.1,8.1,0,0,0,374.682,96.4Z" transform="translate(-291.73 -60.825)" fill="#f49d8b"/>
        <path id="Path_2454" data-name="Path 2454" d="M382.63,101.89s.7,2.263,2.55,2.632c2.105.418,2.583-2.219,2.583-2.219Z" transform="translate(-298.696 -74.413)" fill="#fff"/>
        <path id="Path_2455" data-name="Path 2455" d="M379.077,87.268c-1.4.3-1.8-1.2-.543-1.98a3.717,3.717,0,0,1,1.861-.667c1.845,0,1.9,1.291.977,1.818A9.951,9.951,0,0,1,379.077,87.268Z" transform="translate(-296.478 -66.514)" fill="#1b3431"/>
        <path id="Path_2456" data-name="Path 2456" d="M392.231,86.045c1.427.125,1.628-1.411.288-2.035a3.717,3.717,0,0,0-1.926-.434c-1.834.212-1.731,1.508-.749,1.921A9.956,9.956,0,0,0,392.231,86.045Z" transform="translate(-301.678 -66.034)" fill="#1b3431"/>
        <path id="Path_2457" data-name="Path 2457" d="M395.283,97.823a5.328,5.328,0,0,0,.543-.071V96a5.579,5.579,0,0,0-.657-.005c-1.243.092-2.219.575-2.17,1.085S394.04,97.92,395.283,97.823Z" transform="translate(-303.438 -71.713)" fill="#d37363"/>
        <path id="Path_2458" data-name="Path 2458" d="M393.261,93.53a3.077,3.077,0,1,1,2.431-3.619,3.077,3.077,0,0,1-2.431,3.619Zm-1.085-5.6a3.315,3.315,0,1,1-.011,0Z" transform="translate(-301.883 -67.8)" fill="#fff"/>
        <path id="Path_2459" data-name="Path 2459" d="M388.628,94.781a.217.217,0,0,0,.109-.038c1.118-.77,1.329-1.172,1.362-1.248a.223.223,0,0,0,0-.212l-1.628-2.431h0a4.163,4.163,0,0,1-.456-2.23.222.222,0,0,0-.445,0,4.562,4.562,0,0,0,.543,2.491l1.53,2.3a5.328,5.328,0,0,1-1.145.971.222.222,0,0,0,.141.4Z" transform="translate(-300.956 -68.243)" fill="#1b3431"/>
        <ellipse id="Ellipse_404" data-name="Ellipse 404" cx="2.257" cy="0.912" rx="2.257" ry="0.912" transform="translate(78.789 24.287) rotate(-4.34)" fill="#d37363"/>
        <path id="Path_2460" data-name="Path 2460" d="M379.746,93.861a3.076,3.076,0,1,1,2.425-3.614A3.076,3.076,0,0,1,379.746,93.861Zm-1.085-5.6a1.871,1.871,0,1,1-.011.022Z" transform="translate(-295.698 -67.952)" fill="#fff"/>
        <path id="Path_2461" data-name="Path 2461" d="M388.453,92.528h0a.228.228,0,0,1-.26-.184s-.109-.581-.543-.543-.651.543-.651.543a.228.228,0,1,1-.429-.141,1.259,1.259,0,0,1,1.058-.863,1.042,1.042,0,0,1,1,.9.228.228,0,0,1-.179.288Z" transform="translate(-300.488 -69.587)" fill="#fff"/>
        <path id="Path_2462" data-name="Path 2462" d="M373.2,91.151a.228.228,0,0,1-.239-.114,2.734,2.734,0,0,0-3.587-1.085.228.228,0,0,1-.2-.407c.027,0,2.751-1.318,4.183,1.253a.228.228,0,0,1-.087.309Z" transform="translate(-292.494 -68.612)" fill="#fff"/>
        <path id="Path_2463" data-name="Path 2463" d="M383.725,79.192h0a8.242,8.242,0,0,0-2.008-6.679c-3.418-3.928-10.391-3.711-13.174.288a8.364,8.364,0,0,0-1.416,7.472s1.123.407,1.666,2.6l1.481-.06a10.852,10.852,0,0,0-.027-4.824c-.586-2.99,4.693-5.969,8.275-5.307a6.473,6.473,0,0,1,4.726,3.934A11.1,11.1,0,0,1,383.725,79.192Z" transform="translate(-291.451 -59.68)" fill="#1b3431"/>
        <path id="Path_2464" data-name="Path 2464" d="M376.67,76.188s2.5-.977,3.7-.5,2.952,1.085,4.27.146,2.827,1.861,2.827,1.861-1.671-5-5.8-3.961S377.554,74.386,376.67,76.188Z" transform="translate(-295.97 -61.467)" fill="#1b3431"/>
        <path id="Path_2465" data-name="Path 2465" d="M386.987,107.841l.163-.054a.223.223,0,0,0-.168-.412,1.422,1.422,0,0,1-1.394-.222.222.222,0,1,0-.288.336A1.828,1.828,0,0,0,386.987,107.841Z" transform="translate(-299.873 -76.788)" fill="#d37363"/>
        <path id="Path_2466" data-name="Path 2466" d="M365.9,90.224a2.957,2.957,0,0,0-3.755-1.139c-2.322,1.129-.922,9.273,3.679,8.171Z" transform="translate(-288.824 -68.412)" fill="#f49d8b"/>
        <path id="Path_2467" data-name="Path 2467" d="M365.623,96.514h.049a.222.222,0,0,0,.146-.277c-.033-.1-.76-2.453-2.914-2.778a.222.222,0,0,0-.065.439c1.877.288,2.55,2.447,2.556,2.469a.222.222,0,0,0,.228.147Z" transform="translate(-289.563 -70.556)" fill="#1b3431"/>
        <path id="Path_2468" data-name="Path 2468" d="M364.238,96.594a.222.222,0,0,0,.146-.076s.418-.472.917-.944a.222.222,0,0,0-.3-.32c-.51.483-.928.95-.944.971a.222.222,0,0,0,.184.369Z" transform="translate(-290.174 -71.358)" fill="#1b3431"/>
        <ellipse id="Ellipse_405" data-name="Ellipse 405" cx="0.51" cy="0.89" rx="0.51" ry="0.89" transform="translate(83.167 21.986) rotate(-0.63)" fill="#1b3431"/>
        <ellipse id="Ellipse_406" data-name="Ellipse 406" cx="0.51" cy="0.89" rx="0.51" ry="0.89" transform="translate(88.87 22.226) rotate(-0.573)" fill="#1b3431"/>
        <path id="Path_2469" data-name="Path 2469" d="M366.777,116.5s-1.715.543-2.637,4.39c1.194,3.521,4.552,6.473,9.273,7.341v-6.923A12.2,12.2,0,0,1,366.777,116.5Z" transform="translate(-290.239 -81.096)" fill="#fff"/>
        <path id="Path_2470" data-name="Path 2470" d="M386.346,118.3s2.832.64,4.015,4.5c-3.039,3.711-4.661,5.106-9.121,6.251v-6.923S383.9,122.087,386.346,118.3Z" transform="translate(-298.06 -81.919)" fill="#fff"/>
        <path id="Path_2471" data-name="Path 2471" d="M375.1,132.913l3.207,4.748,3.06-4.764-3.076-3.966Z" transform="translate(-295.116 -86.781)" fill="#e2534d"/>
        <path id="Path_2472" data-name="Path 2472" d="M382.03,137.481a.369.369,0,0,0,.293-.591l-6.468-8.47a.369.369,0,0,0-.543,0l-6.419,7.314a.369.369,0,0,0,.543.483l6.1-6.994,6.191,8.112A.369.369,0,0,0,382.03,137.481Z" transform="translate(-292.388 -86.494)" fill="#e9cec2"/>
        <path id="Path_2473" data-name="Path 2473" d="M380.919,127.62h0a.369.369,0,0,0,.364-.369v-1.628a.369.369,0,0,0-.369-.364h0a.369.369,0,0,0-.364.369v1.628a.369.369,0,0,0,.369.364Z" transform="translate(-297.745 -85.103)" fill="#e9cec2"/>
        <path id="Path_2474" data-name="Path 2474" d="M342.735,254.719c.8-.222,1.98.619,3.044.9a12.942,12.942,0,0,1,4.368,2.214c.591.543,3.543,3.885,4.883,5.35a.836.836,0,0,1-.033,1.177c-.434.4-1.351.385-3.12-1.243l-.678-.586a3.864,3.864,0,0,0-1.568-.776s.982.884,2.664,2.485c-1.834,3.19-4.824,6.234-8.8,5.426a25.628,25.628,0,0,1-1.568-2.946c-.754-1.367-3.087-4.883-3.755-6.8C337.705,258.62,340.19,255.4,342.735,254.719Z" transform="translate(-278.335 -144.301)" fill="#f49d8b"/>
        <path id="Path_2475" data-name="Path 2475" d="M324.385,132l-.364.293-.288.239-.543.456c-.347.3-.684.6-1.015.9-.657.6-1.291,1.21-1.915,1.823-1.243,1.226-2.431,2.491-3.581,3.8a74.486,74.486,0,0,0-6.31,8.275A67.285,67.285,0,0,0,305.285,157c-.722,1.628-1.384,3.256-1.97,4.954-.3.841-.543,1.693-.825,2.55-.125.429-.25.857-.369,1.291l-.087.326-.043.163-.087.336a11.012,11.012,0,0,0-.266,1.584,12.418,12.418,0,0,0-.06,1.329,7.716,7.716,0,0,0,.054,1.145,17.821,17.821,0,0,0,.282,1.926,25.763,25.763,0,0,0,.852,3.1c.315.939.657,1.812,1.009,2.653s.716,1.628,1.085,2.436c.754,1.574,1.541,3.066,2.349,4.525s1.628,2.876,2.5,4.27c1.7,2.789,3.478,5.486,5.3,8.139q1.373,1.98,2.784,3.934.705.977,1.422,1.948l.727.966.754.988,9.8-6.907-.586-.939-.6-.971-1.2-1.948q-1.188-1.959-2.339-3.934c-1.541-2.626-3.028-5.274-4.433-7.916-.7-1.324-1.373-2.648-2.013-3.961s-1.237-2.626-1.769-3.907a34.83,34.83,0,0,1-1.313-3.652,11.145,11.145,0,0,1-.32-1.438,2.537,2.537,0,0,1-.027-.4c0-.033,0-.049,0-.027a.682.682,0,0,1,0,.157,2.711,2.711,0,0,1-.065.429v.076h0v-.027l.038-.119.076-.239c.1-.32.212-.635.32-.95.222-.629.456-1.259.705-1.883.5-1.248,1.085-2.48,1.671-3.7a55.8,55.8,0,0,1,4.243-7.054c.8-1.134,1.628-2.241,2.512-3.326s1.785-2.17,2.713-3.174,1.91-2.04,2.9-3c.5-.477,1-.944,1.5-1.394l.743-.657.358-.3.26-.212Z" transform="translate(-261.623 -88.186)" fill="#78b1de"/>
        <path id="Path_2476" data-name="Path 2476" d="M322.339,201.171a.369.369,0,0,0,.081-.727,37.783,37.783,0,0,0-5.7-.814.372.372,0,1,0-.022.743,37.814,37.814,0,0,1,5.572.8Z" transform="translate(-268.372 -119.12)" fill="#4e88af"/>
        <path id="Path_2477" data-name="Path 2477" d="M324.178,200.089a.369.369,0,0,0,.222-.657c-1.232-.939-2.963-1.991-3.039-2.035a.369.369,0,0,0-.38.629s1.769,1.085,2.973,1.991A.364.364,0,0,0,324.178,200.089Z" transform="translate(-270.429 -118.082)" fill="#4e88af"/>
        <path id="Path_2478" data-name="Path 2478" d="M335.357,174.377a.369.369,0,0,0,.309-.168c.065-.1,6.6-10.233,10.825-13.88a.369.369,0,1,0-.477-.543c-4.308,3.717-10.689,13.619-10.96,14.037a.369.369,0,0,0,.309.543Z" transform="translate(-276.914 -100.828)" fill="#4e88af"/>
        <path id="Path_2479" data-name="Path 2479" d="M351.3,164.171h.054l3.147-.483a.369.369,0,1,0-.109-.727l-3.147.483a.369.369,0,0,0,.054.727Z" transform="translate(-284.212 -102.343)" fill="#4e88af"/>
        <path id="Path_2480" data-name="Path 2480" d="M330.473,252.775a.364.364,0,0,0,.206-.065l9.712-6.7a.369.369,0,1,0-.418-.6l-9.712,6.7a.369.369,0,0,0,.212.667Z" transform="translate(-274.673 -140.019)" fill="#4e88af"/>
        <path id="Path_2481" data-name="Path 2481" d="M338.74,259.744a.369.369,0,0,0,.3-.57l-3-4.514a.369.369,0,0,0-.613.407l3,4.514a.369.369,0,0,0,.309.163Z" transform="translate(-277.085 -144.226)" fill="#4e88af"/>
        <circle id="Ellipse_407" data-name="Ellipse 407" cx="0.857" cy="0.857" r="0.857" transform="translate(61.351 111.715) rotate(-62.76)" fill="#4e88af"/>
      </g>
      <path id="Path_2482" data-name="Path 2482" d="M274.356,90.294h-6.332a.369.369,0,0,1-.25-.635c2.784-2.583,6.728-7.244,5.54-8.871a1.5,1.5,0,0,0-1.215-.705c-1.085,0-2.284,1.422-2.659,1.959a.369.369,0,0,1-.6-.418c.065-.092,1.568-2.241,3.256-2.273a2.17,2.17,0,0,1,1.818,1c1.693,2.252-3.077,7.325-4.965,9.186h5.426a.369.369,0,1,1,0,.732Z" transform="translate(-158.876 -59.469)" fill="#1f489e"/>
      <path id="Path_2483" data-name="Path 2483" d="M301.786,90.294h-6.332a.369.369,0,0,1-.25-.635c2.773-2.583,6.728-7.244,5.54-8.871a1.487,1.487,0,0,0-1.188-.705h0c-1.085,0-2.284,1.422-2.659,1.959a.369.369,0,0,1-.6-.418c.065-.092,1.568-2.241,3.256-2.273a2.17,2.17,0,0,1,1.818,1c1.693,2.252-3.077,7.325-4.965,9.186h5.426a.369.369,0,0,1,0,.732Z" transform="translate(-171.423 -59.469)" fill="#1f489e"/>
      <path id="Path_2484" data-name="Path 2484" d="M286.14,91.381h-.1a.369.369,0,0,1-.25-.456l1.628-5.686a.369.369,0,1,1,.705.206l-1.628,5.686a.369.369,0,0,1-.353.25Z" transform="translate(-167.161 -62.026)" fill="#1f489e"/>
      <path id="Path_2485" data-name="Path 2485" d="M288,90.95h-4.7a.369.369,0,1,1,0-.732H288a.369.369,0,0,1,0,.732Z" transform="translate(-165.836 -64.439)" fill="#1f489e"/>
      <path id="Path_2486" data-name="Path 2486" d="M318.158,87.743h-5.621a.369.369,0,0,1,0-.732h5.621a.369.369,0,0,1,0,.732Z" transform="translate(-179.254 -62.973)" fill="#1f489e"/>
      <path id="Path_2487" data-name="Path 2487" d="M317.143,92.7h-5.627a.369.369,0,0,1,0-.733h5.621a.369.369,0,1,1,0,.732Z" transform="translate(-178.788 -65.239)" fill="#1f489e"/>
      <path id="Path_2488" data-name="Path 2488" d="M335.2,85.817h-5.931a.369.369,0,0,1-.293-.586l2.963-3.993a.369.369,0,0,1,.591.439l-2.529,3.407h5.2a.369.369,0,0,1,0,.732Z" transform="translate(-186.892 -60.272)" fill="#1f489e"/>
      <path id="Path_2489" data-name="Path 2489" d="M331.519,91.518a.369.369,0,0,1-.326-.543l5.931-11.427a.369.369,0,1,1,.651.336l-5.931,11.427a.369.369,0,0,1-.326.206Z" transform="translate(-187.916 -59.451)" fill="#1f489e"/>
      <path id="Path_2490" data-name="Path 2490" d="M196.079,282.986c-10.743-.543-20.369-3.939-26.587-2.762s-6.12-14.9.119-19.685c4.645-3.559-2.2-10.662-2.17-16.4a11.05,11.05,0,0,1,2.881-10.852c4.742-4.645,9.609-4.835,14.509-2.425,3.218,1.15,6.337,4.276,7.3,12.165,1.628,13.565,7.135,11.514,15.431,22.735C212.427,272.313,206.822,283.5,196.079,282.986Z" transform="translate(-111.863 -128.075)" fill="#1b3431"/>
      <path id="Path_2491" data-name="Path 2491" d="M154.02,292.668l-1.536,2.17-1.508,2.17q-1.5,2.17-2.984,4.341c-1.975,2.892-3.918,5.811-5.811,8.817-.944,1.508-1.877,3.028-2.789,4.628-.456.8-.906,1.628-1.346,2.49-.222.434-.439.89-.657,1.378a17.5,17.5,0,0,0-.651,1.655v.125l-.043.136-.081.271-.081.315a1.7,1.7,0,0,1-.065.293c-.033.163-.065.336-.1.543s-.06.4-.087.646a7.226,7.226,0,0,0-.027.95v.548a.567.567,0,0,0,.033.228,5.377,5.377,0,0,0,.385,1.286,5.008,5.008,0,0,0,.228.456l.146.244.087.13.1.136c.071.092.136.179.212.266s.168.2.26.282l.136.136.157.141c.109.092.217.179.331.26a5.029,5.029,0,0,0,.754.45c.13.065.266.119.4.174a3.746,3.746,0,0,0,.4.13l.2.054.19.043.369.06h1.21l.233-.033.217-.038.19-.043.179-.049.309-.1a5.707,5.707,0,0,0,.836-.369l.288-.163.119-.076.109-.071.1-.071.092-.065.174-.125c.212-.163.38-.3.543-.434.3-.266.543-.494.743-.711.418-.439.765-.836,1.085-1.226.646-.781,1.215-1.525,1.769-2.279q.412-.543.808-1.123l.4-.543.407-.591a4.726,4.726,0,1,0-7.776-5.372l-.054.076-.331.478-.353.494q-.35.5-.716.977c-.477.64-.966,1.264-1.427,1.812a8.248,8.248,0,0,1-.64.711,2.183,2.183,0,0,1-.2.184h.027l.043-.033.065-.043.043-.027.049-.033.147-.081a3.668,3.668,0,0,1,.543-.233l.228-.071.141-.038.152-.033.179-.033h1.237l.326.054.174.038.179.049a3.464,3.464,0,0,1,.358.119c.125.049.244.1.364.157a4.5,4.5,0,0,1,.684.407,3.194,3.194,0,0,1,.3.239l.141.125.125.119c.081.081.157.168.233.255s.13.157.19.239l.087.119.076.114.13.212c.087.157.136.26.2.385a4.036,4.036,0,0,1,.293.977v.445a2.387,2.387,0,0,1,0,.3h0v-.114h0V323.4a8.062,8.062,0,0,1,.3-.754c.136-.3.293-.629.467-.96.342-.667.727-1.373,1.129-2.073.8-1.411,1.682-2.838,2.583-4.259,1.8-2.849,3.7-5.686,5.638-8.508q1.449-2.116,2.93-4.216l1.481-2.094,1.487-2.073.033-.043a4.806,4.806,0,1,0-7.694-5.762Z" transform="translate(-98.768 -156.156)" fill="#f49d8b"/>
      <path id="Path_2492" data-name="Path 2492" d="M166.893,333.365a3.937,3.937,0,0,0,.174,2.637c.51.765,4.645,1.568,9.859,2.073l.988.092c1.085.1,2.241.179,3.4.244l.808.043c8.806.445,18.3-.071,18.866-2.784,1.085-5.241-2.029-13.158-1.308-21.324.288-3.294,3.044-9.767,3.294-13.869.385-6.218.494-12.04-.38-13.511-.613-1.031-3.256-1.937-6.137-2.637-.884-.217-1.791-.418-2.664-.591-2.973-.6-5.545-.95-5.545-.95a81.134,81.134,0,0,0-12.843,1.725,18.118,18.118,0,0,0-2.539.825l-.315.141-1,.472c-4.948,2.393-4.27,2.843-3.89,5.779.543,4.341,1.015,4.059-.13,7.819-.092.3-.2.635-.309,1-.282.89-.635,1.975-1.085,3.31a12.176,12.176,0,0,0-.613,2.876v.445c-.027,4.482,4.525,4.118,4.525,9.767a41.047,41.047,0,0,1-1.6,10.087l-.114.439c-.467,1.769-.922,3.38-1.221,4.742C167.028,332.616,166.952,333,166.893,333.365Z" transform="translate(-112.156 -152.524)" fill="#fbaa41"/>
      <path id="Path_2493" data-name="Path 2493" d="M213.938,301.75c.076,1.677,1.8,2.387,3.142,2.713q-.114-.255-.217-.543c-1.145-.3-2.42-.928-2.474-2.17a2.507,2.507,0,0,1,1.666-2.387v-.483A2.987,2.987,0,0,0,213.938,301.75Z" transform="translate(-134.301 -159.884)" fill="#285b5c"/>
      <path id="Path_2494" data-name="Path 2494" d="M207.969,289.675a4.379,4.379,0,0,0,2.642-.884,2.024,2.024,0,0,0,.857-1.465c.174-1.682-1.536-3.608-1.628-3.69a.225.225,0,1,0-.336.3s1.628,1.861,1.492,3.342a1.568,1.568,0,0,1-.678,1.145,4.069,4.069,0,0,1-4.1.429.224.224,0,0,0-.2.4A4.6,4.6,0,0,0,207.969,289.675Z" transform="translate(-130.622 -152.876)" fill="#285b5c"/>
      <path id="Path_2495" data-name="Path 2495" d="M183.232,292.812a12.479,12.479,0,0,0,1.552-.1.224.224,0,1,0-.06-.445c-.033,0-3.174.418-4.4-.575a1.156,1.156,0,0,1-.45-.852c-.152-2.138,2.68-3.749,2.713-3.766a.223.223,0,0,0-.217-.391c-.125.071-3.109,1.769-2.941,4.189a1.628,1.628,0,0,0,.619,1.167A5.364,5.364,0,0,0,183.232,292.812Z" transform="translate(-118.517 -154.293)" fill="#285b5c"/>
      <path id="Path_2496" data-name="Path 2496" d="M224.9,344.581h0a.222.222,0,0,0,.2-.25c0-.1-1.085-9.81-1.177-15.317s2.431-15.388,2.458-15.491a.224.224,0,0,0-.434-.114c0,.1-2.566,10.06-2.474,15.61s1.172,15.263,1.183,15.361a.222.222,0,0,0,.244.2Z" transform="translate(-138.665 -166.453)" fill="#285b5c"/>
      <path id="Path_2497" data-name="Path 2497" d="M181.316,357.312a22.3,22.3,0,0,0,11.221-3.391,32.556,32.556,0,0,0,6.831-5.426.225.225,0,1,0-.336-.3,32.085,32.085,0,0,1-6.734,5.366c-3.744,2.23-9.506,4.5-15.692,2.626a.224.224,0,1,0-.13.429,16.7,16.7,0,0,0,4.84.694Z" transform="translate(-117.095 -182.407)" fill="#285b5c"/>
      <path id="Path_2498" data-name="Path 2498" d="M185.458,369.43a16.778,16.778,0,0,0,5.111-.868,21.889,21.889,0,0,0,4.65-2.138.223.223,0,1,0-.244-.374c-.076.049-7.558,4.834-13.82,2.078a.225.225,0,1,0-.179.412A11.063,11.063,0,0,0,185.458,369.43Z" transform="translate(-119.164 -190.591)" fill="#285b5c"/>
      <path id="Path_2499" data-name="Path 2499" d="M185.118,305.2a13.142,13.142,0,0,0,6.354-1.763,18.789,18.789,0,0,0,4.938-4,.225.225,0,1,0-.347-.288,18.7,18.7,0,0,1-4.824,3.9,11.339,11.339,0,0,1-11.427.326.225.225,0,1,0-.212.4,11.579,11.579,0,0,0,5.518,1.432Z" transform="translate(-118.542 -159.966)" fill="#285b5c"/>
      <path id="Path_2500" data-name="Path 2500" d="M226.9,301.768c.385-6.218.494-12.04-.38-13.511-.613-1.031-3.256-1.937-6.137-2.637C214.126,294.226,220.578,306.038,226.9,301.768Z" transform="translate(-136.085 -153.818)" fill="#f49d8b"/>
      <path id="Path_2501" data-name="Path 2501" d="M169.108,302.2c3.37-3.8,3.961-10.222,4.021-13.6-4.948,2.393-4.27,2.843-3.89,5.779C169.792,298.7,170.248,298.437,169.108,302.2Z" transform="translate(-113.737 -155.182)" fill="#f49d8b"/>
      <path id="Path_2502" data-name="Path 2502" d="M183.74,283.851c.575,3.071,1.085,8.833,5.9,8.833,4.7,0,10.884-7.64,12.48-9.609a39.834,39.834,0,0,1-5.806-1.715S188.938,282.521,183.74,283.851Z" transform="translate(-120.49 -151.87)" fill="#f49d8b"/>
      <path id="Path_2503" data-name="Path 2503" d="M170.121,304.611a3.478,3.478,0,0,1,1.378,1.91,2.393,2.393,0,0,1-.8,2.1c-.657.7-1.253,1.253-1.731,1.7-1.584,1.481-2.306,2.17-1.232,4.113a1.085,1.085,0,0,1,.038,1.177,2.447,2.447,0,0,1-2.143.868h-.114v.445h.26a2.789,2.789,0,0,0,2.4-1.085,1.536,1.536,0,0,0-.027-1.628c-.906-1.628-.434-2.089,1.139-3.57.483-.45,1.085-1.015,1.747-1.72a2.811,2.811,0,0,0,.912-2.5,4.031,4.031,0,0,0-1.666-2.279Z" transform="translate(-112.156 -162.294)" fill="#285b5c"/>
      <path id="Path_2504" data-name="Path 2504" d="M208.4,319.029a5.968,5.968,0,0,1-3.207-.95,4.237,4.237,0,0,0-3.407-.624l-.2.033h0a3.359,3.359,0,0,1-3.9-2.816,3.207,3.207,0,0,1,2.6-3.847,3.63,3.63,0,0,1,3.223.971c2.458,2.143,3.467,1.986,4.742,1.791a7.787,7.787,0,0,1,1.53-.125c1,.033,1.682,1,1.628,2.355a3.054,3.054,0,0,1-2.973,3.212Zm-.081-5c-1.335.206-2.49.385-5.106-1.894a3.2,3.2,0,0,0-2.838-.868,2.746,2.746,0,0,0-2.252,3.332,2.892,2.892,0,0,0,3.4,2.447h0l.184-.033a4.661,4.661,0,0,1,3.711.673,5.524,5.524,0,0,0,2.99.89h.049a2.624,2.624,0,0,0,2.528-2.778c0-.922-.342-1.867-1.215-1.894H209.6a8.011,8.011,0,0,0-1.275.13Z" transform="translate(-126.836 -165.318)" fill="#285b5c"/>
      <path id="Path_2505" data-name="Path 2505" d="M171.073,328.153a4.363,4.363,0,0,1-1.508-3.8.223.223,0,0,1,.147-.179,4.477,4.477,0,0,0,2.5-3.852,4.341,4.341,0,0,1,3.391-3.581,3.429,3.429,0,0,1,3.8,1.351c1.731,2.61,2.339,2.984,7.254,4.449a4.187,4.187,0,0,1,3.31,4.276c-.119,1.991-1.818,4.368-5.334,4.981a13.958,13.958,0,0,1-2.366.212C178.143,332.01,173.433,330.47,171.073,328.153ZM175.7,317.2a3.9,3.9,0,0,0-3.049,3.2,4.957,4.957,0,0,1-2.664,4.167,3.888,3.888,0,0,0,1.394,3.256c2.713,2.648,8.855,4.308,13.18,3.559,3.256-.57,4.856-2.713,4.965-4.569a3.721,3.721,0,0,0-2.99-3.8c-4.829-1.438-5.648-1.834-7.5-4.634a2.843,2.843,0,0,0-2.447-1.275,3.87,3.87,0,0,0-.89.1Z" transform="translate(-113.987 -167.99)" fill="#285b5c"/>
      <path id="Path_2506" data-name="Path 2506" d="M179.42,348.7a.223.223,0,0,1,.141-.217c.282-.114,6.972-2.762,9.126-2.008a.223.223,0,0,1,.152.2c0,.157.266,3.9-1.557,5.931a3.755,3.755,0,0,1-2.778,1.248H184.3C179.707,353.855,179.425,348.755,179.42,348.7Zm.461.136a6.788,6.788,0,0,0,.657,2.273,3.961,3.961,0,0,0,3.95,2.29,3.321,3.321,0,0,0,2.458-1.085c1.5-1.666,1.476-4.726,1.449-5.426-1.964-.521-7.515,1.568-8.513,1.953Z" transform="translate(-118.514 -181.593)" fill="#285b5c"/>
      <path id="Path_2507" data-name="Path 2507" d="M208.955,367.856c-1.373-.1-2.252-.695-2.4-1.628-.184-1.156.776-2.409,2.333-3.049,1.476-.6,1.481-1.72,1.492-2.9a3.088,3.088,0,0,1,.629-2.355,2.832,2.832,0,0,1,3.256-.391,2.018,2.018,0,0,1,.83,2.48c-.684,2.322.868,3.142.933,3.174h0a.222.222,0,0,1,.071.347c-.157.184-3.738,4.341-6.918,4.341Zm5.73-7.987a1.579,1.579,0,0,0-.629-1.97,2.366,2.366,0,0,0-2.713.32,2.8,2.8,0,0,0-.5,2.04c0,1.221,0,2.6-1.769,3.315-1.525.624-2.17,1.758-2.062,2.561s.841,1.188,1.991,1.27c2.653.184,5.86-3.152,6.625-3.993a3.035,3.035,0,0,1-.917-3.543Z" transform="translate(-130.913 -186.553)" fill="#285b5c"/>
      <path id="Path_2508" data-name="Path 2508" d="M168.05,370.676a4.6,4.6,0,0,0,.667,1.411,2.013,2.013,0,0,0,1.574.944,1.407,1.407,0,0,0,.228,0c.879-.141,1.628-1.085,2.138-2.621.629-1.948.543-3.478-.239-4.552a4.129,4.129,0,0,0-2.811-1.5l-.114.44a3.755,3.755,0,0,1,2.566,1.324c.695.95.749,2.344.168,4.145-.445,1.384-1.085,2.208-1.785,2.317a1.47,1.47,0,0,1-1.367-.749,4.884,4.884,0,0,1-.8-2.3C168.186,369.927,168.11,370.312,168.05,370.676Z" transform="translate(-113.313 -189.835)" fill="#285b5c"/>
      <path id="Path_2509" data-name="Path 2509" d="M183.976,379.36h0a7.3,7.3,0,0,0,1.129,1.009l.988.092a7.232,7.232,0,0,1-1.769-1.389,2.149,2.149,0,0,1-.342-1.85c.3-.711,1.226-1.183,2.751-1.4,4.059-.581,5.024,1.9,5.171,2.382a5.936,5.936,0,0,1-2.415,2.5l.808.043a7.265,7.265,0,0,0,2.04-2.4.228.228,0,0,0,0-.157c0-.033-.819-3.505-5.7-2.811-1.7.239-2.74.8-3.1,1.671A2.674,2.674,0,0,0,183.976,379.36Z" transform="translate(-120.341 -194.834)" fill="#285b5c"/>
      <path id="Path_2510" data-name="Path 2510" d="M161.247,376.181A146.766,146.766,0,0,0,159.5,361.1a81.608,81.608,0,0,1,9.642,4.574h0c1.818,1.085,3.451,2.062,4.645,2.713a10.374,10.374,0,0,0,6.441.808,31.4,31.4,0,0,0,8.719-2.805s14.33-6.511,17.016-6.278c2.089.168-9.154,11.9-18.448,16.712a16.87,16.87,0,0,1-4.6,2.062c-9.1,2.9-17.645.282-21.628-1.356Q161.269,376.87,161.247,376.181Z" transform="translate(-109.402 -187.89)" fill="#d76751"/>
      <path id="Path_2511" data-name="Path 2511" d="M107.315,429.279l-1.215,7.683-7.189.5.749-9.447Z" transform="translate(-81.552 -218.953)" fill="#f49d8b"/>
      <path id="Path_2512" data-name="Path 2512" d="M68.026,454.615H93.75a3.6,3.6,0,0,0,.336-1.427c.157-2.17-.543-5.648-.879-7.835-.043-.255-.076-.494-.1-.711a7.53,7.53,0,0,1-.076-.9,1.315,1.315,0,0,0-1.584-1.481c-2.6,2.556-5.551-1.27-7.271,0,0,0-.743.543-2.784,2.371s-5.513,3.055-8.47,4.3c-3.8,1.6-4.883,3.2-5.106,4.292a2.008,2.008,0,0,0,.212,1.389Z" transform="translate(-67.445 -225.347)" fill="#f5bf69"/>
      <path id="Path_2513" data-name="Path 2513" d="M68.021,464.047H93.745a3.6,3.6,0,0,0,.336-1.427H67.809a2.008,2.008,0,0,0,.212,1.427Z" transform="translate(-67.44 -234.779)" fill="#ed9033"/>
      <path id="Path_2514" data-name="Path 2514" d="M95.266,443.736s-.461-1.123-1.481-.765-.917,2.04-.917,2.04S93.481,446.541,95.266,443.736Z" transform="translate(-78.923 -225.759)" fill="#fff"/>
      <path id="Path_2515" data-name="Path 2515" d="M96.266,449.972a.423.423,0,0,0,.423-.423,5.426,5.426,0,0,0-1.671-3.993.423.423,0,0,0-.543.646,4.558,4.558,0,0,1,1.362,3.359A.423.423,0,0,0,96.266,449.972Z" transform="translate(-79.603 -226.938)" fill="#fff"/>
      <path id="Path_2516" data-name="Path 2516" d="M87.643,446.383a.423.423,0,0,0,.282-.108c.543-.478,2.116-.543,2.99-.516a.424.424,0,0,0,.054-.846c-.266,0-2.632-.141-3.6.727a.423.423,0,0,0,.282.743Z" transform="translate(-76.341 -226.676)" fill="#fff"/>
      <path id="Path_2517" data-name="Path 2517" d="M94.693,442.845l.217.217h0l-.174.874h.1a6.194,6.194,0,0,0,.814.043h.168a16.1,16.1,0,0,0,1.877-.157,4.14,4.14,0,0,0,2.024-.787,1.894,1.894,0,0,0,.619-.83v-.081a1.308,1.308,0,0,0-.336-1.291,1.8,1.8,0,0,0-1.329-.543h-.033a3.684,3.684,0,0,0-1.536.407,9.262,9.262,0,0,0-1.731,1.118l-.13.109c-.217.179-.4.342-.543.461l-.239.228Zm.922.255H95.3c.179-.168.412-.369.678-.575h0a9.961,9.961,0,0,1,1.085-.743,4.72,4.72,0,0,1,.977-.45,2.02,2.02,0,0,1,.6-.1h0a.89.89,0,0,1,.678.282.4.4,0,0,1,.13.358.542.542,0,0,1,0,.081c-.136.4-.781.863-1.9,1.015l-.543.065a13.2,13.2,0,0,1-1.384.071Z" transform="translate(-79.653 -224.565)" fill="#fff"/>
      <path id="Path_2518" data-name="Path 2518" d="M91.775,442.659l.391-.83a2.939,2.939,0,0,1-1.628-2.089c0-.152.076-.347.477-.461a.51.51,0,0,1,.5.054,3.11,3.11,0,0,1,.543,2.17h.917c0-.217.027-2.17-.922-2.9a1.59,1.59,0,0,0-2.458,1.058A3.826,3.826,0,0,0,91.775,442.659Z" transform="translate(-77.429 -223.668)" fill="#fff"/>
      <path id="Path_2519" data-name="Path 2519" d="M109.765,456.8h.765a5.648,5.648,0,0,1-1.389-4.118,7.254,7.254,0,0,1,2.713-5.149c-.043-.255-.076-.494-.1-.711a7.884,7.884,0,0,0-3.212,5.833,6.245,6.245,0,0,0,1.226,4.145Z" transform="translate(-86.086 -227.552)" fill="#ed9033"/>
      <path id="Path_2520" data-name="Path 2520" d="M91.939,448.541a.423.423,0,0,0,.1-.836l-1.628-.4a.425.425,0,1,0-.206.825l1.628.4Z" transform="translate(-77.561 -227.77)" fill="#fff"/>
      <path id="Path_2521" data-name="Path 2521" d="M88.982,450.261a.423.423,0,0,0,.1-.836l-1.628-.4a.424.424,0,1,0-.2.825l1.628.4Z" transform="translate(-76.21 -228.558)" fill="#fff"/>
      <path id="Path_2522" data-name="Path 2522" d="M86.019,451.951a.423.423,0,0,0,.1-.836l-1.628-.4a.425.425,0,0,0-.206.825l1.628.4Z" transform="translate(-74.853 -229.33)" fill="#fff"/>
      <path id="Path_2523" data-name="Path 2523" d="M82.8,453.451a.423.423,0,0,0,.1-.836l-1.628-.4a.425.425,0,0,0-.206.825l1.628.4Z" transform="translate(-73.38 -230.016)" fill="#fff"/>
      <path id="Path_2524" data-name="Path 2524" d="M79.269,454.761a.423.423,0,0,0,.1-.836l-1.628-.4a.425.425,0,0,0-.206.825l1.628.4Z" transform="translate(-71.765 -230.615)" fill="#fff"/>
      <path id="Path_2525" data-name="Path 2525" d="M143.942,360.475c-8.681-4.6-23.966-13.776-30.385-15.079-11.221-2.273-14.867,47.8-14.867,47.8l9,.879s8.4-21.584,9.072-29.908c0,0,11.715,11.253,35.437,11.725Z" transform="translate(-81.587 -181.126)" fill="#5d73b5"/>
      <path id="Path_2526" data-name="Path 2526" d="M108.347,429.989a4.694,4.694,0,0,1-1.3,2.713l-9.333-.928a7.292,7.292,0,0,1,.266-2.984Z" transform="translate(-81.12 -219.305)" fill="#ba4131"/>
      <path id="Path_2527" data-name="Path 2527" d="M113.382,402.854a.26.26,0,0,0,.25-.184c0-.076,2.273-7.461,4.39-13.961,1.867-5.741,3.836-16.354,4.3-18.9a33.185,33.185,0,0,0,8.747,7.162,55.774,55.774,0,0,0,10.309,4.617A69.725,69.725,0,0,0,153.36,384.5a.273.273,0,1,0,.065-.543,69.222,69.222,0,0,1-11.894-2.9c-5.969-2.013-14.145-5.741-19.192-12.051a.26.26,0,0,0-.461.119c0,.13-2.268,12.908-4.379,19.4s-4.368,13.9-4.39,13.972a.26.26,0,0,0,.174.326Z" transform="translate(-88.178 -191.915)" fill="#1f489e"/>
      <path id="Path_2528" data-name="Path 2528" d="M188.828,277.741c4.959,6.679,10.933-1.308,10.852-3.087a30.7,30.7,0,0,1-2.632-9.224l-9.539,5.334.222.879a40.2,40.2,0,0,1,.912,4.243A15.192,15.192,0,0,1,188.828,277.741Z" transform="translate(-122.214 -144.583)" fill="#f49d8b"/>
      <path id="Path_2529" data-name="Path 2529" d="M188.822,277.8c5.128-2.078,7.672-8.139,7.672-8.139l-8.584,3.907a40.21,40.21,0,0,1,.912,4.232Z" transform="translate(-122.397 -146.518)" fill="#1b3431"/>
      <path id="Path_2530" data-name="Path 2530" d="M177.616,260.588s-1.194-2.371-3.136-1.47-.922,7.672,2.908,6.837Z" transform="translate(-115.815 -141.603)" fill="#d37363"/>
      <path id="Path_2531" data-name="Path 2531" d="M177.619,275.229a3.424,3.424,0,1,1,3.31-3.532,3.424,3.424,0,0,1-3.31,3.532Zm-.206-6.332a2.817,2.817,0,1,1,0,.011Z" transform="translate(-116.073 -145.934)" fill="#fff"/>
      <path id="Path_2532" data-name="Path 2532" d="M191.258,253.494c-.64,2.865-7.2,7.086-10.309,6.18-1.877-.543-3.673-1.948-5.079-5.426v-.054c-.081-.206-.163-.407-.233-.613-.136-.364-.26-.722-.364-1.085l-.076-.239q-.092-.32-.168-.624t-.152-.705c-.646-3.608-1.449-7.651,1.525-10.4s8.036-4.129,11.481-1.324c0,0,2.615,2.507,3.294,7.754S191.719,251.41,191.258,253.494Z" transform="translate(-116.157 -131.882)" fill="#f49d8b"/>
      <path id="Path_2533" data-name="Path 2533" d="M194,239.2s2.507,5.426,4.314,6.321,2.816-2.056,2.816-2.056S196.6,235.259,194,239.2Z" transform="translate(-125.183 -132.095)" fill="#1b3431"/>
      <path id="Path_2534" data-name="Path 2534" d="M181.09,240.06s3.847,4.205,7.764,2.577.722-4.661.722-4.661S181.584,235.909,181.09,240.06Z" transform="translate(-119.278 -131.79)" fill="#1b3431"/>
      <path id="Path_2535" data-name="Path 2535" d="M177.162,239.969s-1.194,6.332-5.317,5.833.673-7.238,3.364-7.358S177.162,239.969,177.162,239.969Z" transform="translate(-114.313 -132.237)" fill="#1b3431"/>
      <path id="Path_2536" data-name="Path 2536" d="M189.524,270.164h-.157a.206.206,0,0,1,0-.412,1.318,1.318,0,0,0,1.085-.716.206.206,0,1,1,.369.179,1.7,1.7,0,0,1-1.3.95Z" transform="translate(-122.969 -146.17)" fill="#d37363"/>
      <path id="Path_2537" data-name="Path 2537" d="M186.077,266.807a3.058,3.058,0,0,1-.45.038.206.206,0,1,1,0-.412,2.577,2.577,0,0,0,2.653-2.485.207.207,0,1,1,.412.027A2.9,2.9,0,0,1,186.077,266.807Z" transform="translate(-121.258 -143.817)" fill="#232323"/>
      <path id="Path_2538" data-name="Path 2538" d="M184.85,261.047a1.922,1.922,0,0,0,.391-.071.246.246,0,1,0-.136-.472,1.465,1.465,0,0,1-1.161-.168,11.67,11.67,0,0,0,.543-3.934.247.247,0,0,0-.494,0c0,.825-.071,3.12-.581,3.852a.244.244,0,0,0,.038.326,2.018,2.018,0,0,0,1.4.467Z" transform="translate(-120.319 -140.341)" fill="#1b3431"/>
      <path id="Path_2539" data-name="Path 2539" d="M176.643,266.361c-.081-.206-.163-.407-.233-.613-.136-.364-.26-.722-.364-1.085l-.076-.239.179-.038c1.351-.255,2.534,0,2.637.543S177.934,266.1,176.643,266.361Z" transform="translate(-116.936 -144.06)" fill="#d37363"/>
      <ellipse id="Ellipse_408" data-name="Ellipse 408" cx="2.496" cy="1.004" rx="2.496" ry="1.004" transform="translate(67.277 118.614) rotate(-10.66)" fill="#d37363"/>
      <path id="Path_2540" data-name="Path 2540" d="M185.583,255.832a3.337,3.337,0,1,1,3.559,3.1,3.337,3.337,0,0,1-3.559-3.1Zm.494-.033a2.663,2.663,0,1,0-.005,0Z" transform="translate(-121.329 -138.561)" fill="#fff"/>
      <path id="Path_2541" data-name="Path 2541" d="M171.673,258.6a3.337,3.337,0,1,1,3.559,3.1A3.337,3.337,0,0,1,171.673,258.6Zm.494-.033a2.67,2.67,0,1,0-.005,0Z" transform="translate(-114.967 -139.828)" fill="#fff"/>
      <path id="Path_2542" data-name="Path 2542" d="M183.478,259.887a.825.825,0,0,1,1.118-.266l.233-.434a1.3,1.3,0,0,0-1.769.434Z" transform="translate(-120.179 -141.645)" fill="#fff"/>
      <path id="Path_2543" data-name="Path 2543" d="M196.822,254.56a.331.331,0,0,0,.25-.141c.033-.033.543-.543,2.827-1.085a.331.331,0,1,0-.152-.64c-2.659.619-3.158,1.253-3.256,1.378a.331.331,0,0,0,.3.5Z" transform="translate(-126.301 -138.749)" fill="#fff"/>
      <path id="Path_2544" data-name="Path 2544" d="M171.936,261.156a.244.244,0,0,0,.141-.054,3.06,3.06,0,0,1,1.275-.456.246.246,0,0,0-.065-.488,3.6,3.6,0,0,0-1.525.543.244.244,0,0,0,.174.434Z" transform="translate(-114.969 -142.171)" fill="#fff"/>
      <path id="Path_2545" data-name="Path 2545" d="M186.845,249.521a2.816,2.816,0,0,1,2.382-1.123c.846.065.874.9-.081,1.053a3.076,3.076,0,0,0-1.6.635.456.456,0,0,1-.705-.564Z" transform="translate(-121.881 -136.791)" fill="#1b3431"/>
      <path id="Path_2546" data-name="Path 2546" d="M177.422,251.674a2.816,2.816,0,0,0-2.632-.114c-.754.391-.456,1.167.483.939a3.076,3.076,0,0,1,1.715-.033.456.456,0,0,0,.434-.792Z" transform="translate(-116.201 -138.115)" fill="#1b3431"/>
      <path id="Path_2547" data-name="Path 2547" d="M202.8,252.468a2.7,2.7,0,0,1,3.142-1.725c2.284.575,2.572,8.139-1.753,8Z" transform="translate(-129.208 -137.823)" fill="#f49d8b"/>
      <path id="Path_2548" data-name="Path 2548" d="M207.269,262.18c-.1.157-.146.315-.244.472a2.914,2.914,0,1,1-1.818.4c.591-.282.646-.543.624-.814a3.424,3.424,0,1,0,4.3,3.2,3.473,3.473,0,0,0-2.859-3.256Z" transform="translate(-129.429 -143.097)" fill="#fff"/>
      <path id="Path_2549" data-name="Path 2549" d="M205.5,257.522a.2.2,0,0,0,.184.217h.043a.206.206,0,0,0,.174-.184,4.156,4.156,0,0,1,.467-1.46c.472.3.857.581.863.586a.2.2,0,0,0,.146.038.2.2,0,0,0,.092-.364s-.4-.3-.884-.6a2.474,2.474,0,0,1,1.139-.884.2.2,0,1,0-.141-.38A3.682,3.682,0,0,0,205.5,257.522Z" transform="translate(-130.442 -139.573)" fill="#1b3431"/>
      <ellipse id="Ellipse_409" data-name="Ellipse 409" cx="0.515" cy="0.901" rx="0.515" ry="0.901" transform="matrix(0.981, -0.195, 0.195, 0.981, 65.938, 116.208)" fill="#1b3431"/>
      <ellipse id="Ellipse_410" data-name="Ellipse 410" cx="0.515" cy="0.901" rx="0.515" ry="0.901" transform="translate(60.494 117.422) rotate(-11.24)" fill="#1b3431"/>
      <path id="Path_2550" data-name="Path 2550" d="M154.31,372.917l39.81,4.286a.163.163,0,0,0,.179-.141h0a2.252,2.252,0,0,0-2-2.48l-37.732-4.064a.163.163,0,0,0-.179.141l-.222,2.078A.163.163,0,0,0,154.31,372.917Z" transform="translate(-106.964 -192.651)" fill="#414f50"/>
      <path id="Path_2551" data-name="Path 2551" d="M134.282,330.588l2.713,21.552a1.248,1.248,0,0,0,1.085,1.085l30.608,3.294a1.248,1.248,0,0,0,1.373-1.394l-2.713-21.552a1.248,1.248,0,0,0-1.085-1.085l-30.608-3.294a1.248,1.248,0,0,0-1.373,1.394Z" transform="translate(-97.863 -173.746)" fill="#1b3431"/>
      <path id="Path_2552" data-name="Path 2552" d="M164.693,352.878c-.244,1.883-3.7,3.9-3.7,3.9s-3.456-2.762-3.706-4.7c-.271-2.1,2.132-2.474,3.7-.743C162.55,349.948,164.954,350.837,164.693,352.878Z" transform="translate(-108.383 -183.377)" fill="#414f50"/>
      <path id="Path_2553" data-name="Path 2553" d="M191,335l2.762,24.064.89.1a1.248,1.248,0,0,0,1.373-1.394l-2.713-21.552a1.248,1.248,0,0,0-1.085-1.085Z" transform="translate(-123.811 -176.405)" fill="#414f50"/>
      <path id="Path_2554" data-name="Path 2554" d="M166.325,406.175s3.256-.543,4.286-1.6l2.127,6.8-7.819,1.628S165.018,407.25,166.325,406.175Z" transform="translate(-111.882 -208.232)" fill="#f49d8b"/>
      <path id="Path_2555" data-name="Path 2555" d="M132.36,419.226l10.114-22.436a3.441,3.441,0,0,1,1.378.266c1.959.716,4.715,2.686,6.511,3.842l.581.369a7.17,7.17,0,0,0,.749.418c1.557.7.754,1.21.754,1.21-3.256,1.27-1.156,6.093-2.925,7.1,0,0-.754.439-3.158,1.5s-4.829,3.614-7.054,5.7c-2.892,2.713-4.7,3.022-5.746,2.773a1.921,1.921,0,0,1-1.2-.743Z" transform="translate(-96.988 -204.668)" fill="#f5bf69"/>
      <path id="Path_2556" data-name="Path 2556" d="M163.443,418.8a1.1,1.1,0,0,1,.391,1.443c-.5.83-1.964.418-1.964.418S160.627,419.836,163.443,418.8Z" transform="translate(-110.361 -214.736)" fill="#fff"/>
      <path id="Path_2557" data-name="Path 2557" d="M156.9,416.276a.38.38,0,0,1,.45-.293,4.851,4.851,0,0,1,3.185,2.214.38.38,0,0,1-.667.358,4.086,4.086,0,0,0-2.675-1.829.38.38,0,0,1-.293-.45Z" transform="translate(-108.211 -213.444)" fill="#fff"/>
      <path id="Path_2558" data-name="Path 2558" d="M160.417,423.727a.38.38,0,0,1,.147-.228,4.648,4.648,0,0,0,1.015-2.523.381.381,0,0,1,.754.114c-.033.239-.374,2.333-1.313,3.022a.38.38,0,0,1-.6-.385Z" transform="translate(-109.821 -215.583)" fill="#fff"/>
      <path id="Path_2559" data-name="Path 2559" d="M163.326,416.964l.244-.168c.136-.092.309-.222.5-.38l.119-.1a8.3,8.3,0,0,0,1.308-1.3,3.3,3.3,0,0,0,.646-1.27v-.027a1.628,1.628,0,0,0-.244-1.27,1.172,1.172,0,0,0-1.085-.543h-.076a1.7,1.7,0,0,0-.846.385,3.711,3.711,0,0,0-1.085,1.628,14.444,14.444,0,0,0-.494,1.628l-.033.147a5.532,5.532,0,0,0-.114.722v.087h.8l.152.233Zm.136-2.3q.071-.212.157-.45c.347-.955.874-1.432,1.248-1.476h.076a.364.364,0,0,1,.288.179.8.8,0,0,1,.1.667h0a1.806,1.806,0,0,1-.2.5,4.225,4.225,0,0,1-.581.771,8.923,8.923,0,0,1-.857.8h0c-.233.2-.456.358-.635.488a1.589,1.589,0,0,1,.054-.271,11.813,11.813,0,0,1,.347-1.21Z" transform="translate(-110.624 -211.581)" fill="#fff"/>
      <path id="Path_2560" data-name="Path 2560" d="M162.63,420.929l.8-.184c.19.814.96,1.725,1.53,1.8.136,0,.32,0,.494-.331a.456.456,0,0,0,.043-.45c-.217-.45-1.2-.792-1.78-.9l.152-.808c.2.038,1.9.385,2.371,1.356a1.422,1.422,0,0,1-1.389,1.953A3.3,3.3,0,0,1,162.63,420.929Z" transform="translate(-110.834 -215.308)" fill="#fff"/>
      <path id="Path_2561" data-name="Path 2561" d="M132.36,419.226l10.114-22.436a3.441,3.441,0,0,1,1.378.266l-10.309,22.914a1.921,1.921,0,0,1-1.183-.743Z" transform="translate(-96.988 -204.668)" fill="#ed9033"/>
      <path id="Path_2562" data-name="Path 2562" d="M149.09,400.437l.3-.667a5.426,5.426,0,0,0,3.049,2.827,6.94,6.94,0,0,0,5.556-.342l.581.369a7.537,7.537,0,0,1-6.348.543A5.968,5.968,0,0,1,149.09,400.437Z" transform="translate(-104.641 -206.031)" fill="#ed9033"/>
      <path id="Path_2563" data-name="Path 2563" d="M155.738,421.891a.407.407,0,0,1,.77.239l-.282,1.557a.407.407,0,0,1-.8-.146l.282-1.557A.408.408,0,0,1,155.738,421.891Z" transform="translate(-107.539 -216.042)" fill="#fff"/>
      <path id="Path_2564" data-name="Path 2564" d="M159.037,420.291a.407.407,0,0,1,.77.239l-.282,1.557a.407.407,0,1,1-.8-.146l.282-1.557a.407.407,0,0,1,.027-.092Z" transform="translate(-109.043 -215.31)" fill="#fff"/>
      <path id="Path_2565" data-name="Path 2565" d="M153.057,423.8a.407.407,0,0,1,.77.239l-.282,1.557a.407.407,0,1,1-.8-.146l.282-1.557A.4.4,0,0,1,153.057,423.8Z" transform="translate(-106.307 -216.916)" fill="#fff"/>
      <path id="Path_2566" data-name="Path 2566" d="M150.468,425.731a.407.407,0,0,1,.77.239l-.282,1.557a.407.407,0,0,1-.8-.146l.282-1.557A.408.408,0,0,1,150.468,425.731Z" transform="translate(-105.129 -217.798)" fill="#fff"/>
      <path id="Path_2567" data-name="Path 2567" d="M147.847,427.941a.407.407,0,0,1,.77.239l-.282,1.557a.407.407,0,1,1-.8-.146l.282-1.557a.4.4,0,0,1,.027-.092Z" transform="translate(-103.924 -218.809)" fill="#fff"/>
      <path id="Path_2568" data-name="Path 2568" d="M145.343,430.491a.407.407,0,0,1,.77.239l-.288,1.557a.407.407,0,0,1-.8-.146l.282-1.557A.407.407,0,0,1,145.343,430.491Z" transform="translate(-102.782 -219.976)" fill="#fff"/>
      <path id="Path_2569" data-name="Path 2569" d="M212.559,358.026s9.072-4.883,14.324-1.085c9.609,6.918-6.7,20.228-25.339,26.728s-24.7,5.61-24.7,5.61-4.053-1.112-2.615-7.683c0,0,10.749-4.086,16.343-8.367S199.97,363.68,212.559,358.026Z" transform="translate(-115.999 -185.779)" fill="#5d73b5"/>
      <path id="Path_2570" data-name="Path 2570" d="M183.177,386.882a.26.26,0,0,0,.13-.033c.092-.054,9.349-5.263,13.169-8.394,3.071-2.523,9.81-7.249,9.875-7.3a.263.263,0,1,0-.3-.429c-.071.049-6.82,4.791-9.908,7.325-3.8,3.1-13.022,8.291-13.093,8.345a.26.26,0,0,0,.13.494Z" transform="translate(-120.106 -192.726)" fill="#1f489e"/>
      <path id="Path_2571" data-name="Path 2571" d="M175.719,387.265c3.912-.939,11.883-4.6,21.318-9.767,7.054-3.874,15.193-8.828,16.392-10.548.646-.928.808-1.687.483-2.257-.483-.852-1.883-.939-2.523-.933a.282.282,0,0,0-.282.3h0a.282.282,0,0,0,.282.26c.629,0,1.715.1,2.029.646.255.45-.109,1.145-.456,1.628-.966,1.384-7.775,5.752-16.2,10.374-7.254,3.983-16.625,8.633-21.161,9.723Z" transform="translate(-116.767 -189.56)" fill="#1f489e"/>
      <path id="Path_2572" data-name="Path 2572" d="M174.928,401.858c.439,3.451,1.335,6.587,3.283,9a3.239,3.239,0,0,1-3.2.342c-1.167-.657-3.413-6.05-2.556-8.926A2.621,2.621,0,0,1,174.928,401.858Z" transform="translate(-115.243 -206.91)" fill="#ba4131"/>
      <line id="Line_347" data-name="Line 347" y1="3.625" transform="translate(64.362 172.35)" fill="#f49d8b"/>
      <path id="Path_2573" data-name="Path 2573" d="M228.246,320.9c-.054-.808-.146-1.563-.255-2.3-.212-1.465-.494-2.827-.808-4.167s-.657-2.637-1.026-3.912-.765-2.534-1.167-3.8c-.825-2.491-1.709-4.927-2.659-7.336-.483-1.2-.96-2.4-1.47-3.587-.255-.591-.51-1.188-.776-1.78l-.4-.89-.206-.445-.217-.461a5.648,5.648,0,0,0-10.412,4.341v.071l1.264,3.413c.418,1.15.852,2.3,1.264,3.456.83,2.306,1.628,4.607,2.409,6.9s1.476,4.579,2.067,6.8q.22.814.407,1.628c.125.543.244,1.085.336,1.579q.073.383.13.749-.553.155-1.139.309c-1.085.282-2.257.543-3.435.787s-2.371.477-3.57.711c-2.409.456-4.845.879-7.3,1.3l-3.679.635-.266.049c.342,2.859.825,5.708,1.058,8.578,1.27,0,2.534-.033,3.8-.065,2.566-.076,5.133-.206,7.716-.418,1.3-.1,2.594-.228,3.907-.38s2.637-.331,4-.543c.684-.119,1.378-.255,2.094-.418s1.465-.347,2.3-.624a14.689,14.689,0,0,0,1.384-.543c.255-.114.543-.255.857-.434a8.342,8.342,0,0,0,1.118-.749c.114-.092.217-.179.347-.3l.184-.174.2-.206.1-.109.049-.054.054-.065.217-.266c.065-.081.152-.2.228-.309l.114-.168.114-.179q.119-.2.228-.407l.054-.1.054-.119.109-.244.1-.25c.033-.087.065-.184.092-.277s.054-.19.081-.288l.038-.146v-.087l.092-.461a1.54,1.54,0,0,1,.043-.228l.033-.212c0-.141.043-.288.054-.423l.038-.391v-.38A20.484,20.484,0,0,0,228.246,320.9Z" transform="translate(-126.711 -155.377)" fill="#f49d8b"/>
      <path id="Path_2574" data-name="Path 2574" d="M239.305,350.36a.271.271,0,0,1-.184-.076c-2.094-1.964-5.562-1.991-5.6-1.991a.271.271,0,1,1,0-.543c.152,0,3.711,0,5.969,2.138a.271.271,0,0,1-.184.467Z" transform="translate(-143.136 -182.237)" fill="#d37363"/>
      <path id="Path_2575" data-name="Path 2575" d="M235.434,348.068a.271.271,0,0,1-.136-.5c1.378-.781,3.983-.407,4.1-.391a.274.274,0,0,1-.081.543s-2.528-.369-3.744.326A.271.271,0,0,1,235.434,348.068Z" transform="translate(-144.012 -181.926)" fill="#d37363"/>
      <path id="Path_2576" data-name="Path 2576" d="M82.47,300.317v9.664a2.317,2.317,0,0,0,2.317,2.317h17.547l5.3,1.9a.673.673,0,0,0,.857-.879l-2-5.176v-7.824A2.317,2.317,0,0,0,104.168,298H84.781a2.317,2.317,0,0,0-2.311,2.317Z" transform="translate(-74.168 -159.481)" fill="#78b1de"/>
      <circle id="Ellipse_411" data-name="Ellipse 411" cx="1.677" cy="1.677" r="1.677" transform="translate(23.543 144.265)" fill="#4e88af"/>
      <circle id="Ellipse_412" data-name="Ellipse 412" cx="1.677" cy="1.677" r="1.677" transform="translate(18.247 144.265)" fill="#4e88af"/>
      <circle id="Ellipse_413" data-name="Ellipse 413" cx="1.677" cy="1.677" r="1.677" transform="translate(12.946 144.265)" fill="#4e88af"/>
      <path id="Path_2577" data-name="Path 2577" d="M305.869,380.483h.83V379.24l-31.443.043a3.8,3.8,0,1,0,0,7.553l31.443-.043v-1.085h-.83Z" transform="translate(-160.427 -196.641)" fill="#f5bf69"/>
      <path id="Path_2578" data-name="Path 2578" d="M309.14,381.53v5.231l-28.85.038a2.583,2.583,0,0,1-2.55-2.61,2.653,2.653,0,0,1,.743-1.85,2.512,2.512,0,0,1,1.8-.77Z" transform="translate(-163.486 -197.688)" fill="#fff"/>
      <path id="Path_2579" data-name="Path 2579" d="M311.588,384v.8l-28.106.038a.4.4,0,0,1-.4-.4h0a.4.4,0,0,1,.4-.4Z" transform="translate(-165.929 -198.818)" fill="#e9cec2"/>
      <path id="Path_2580" data-name="Path 2580" d="M311.588,387.6v.8l-28.106.038a.4.4,0,0,1-.4-.4h0a.4.4,0,0,1,.4-.4Z" transform="translate(-165.929 -200.465)" fill="#e9cec2"/>
      <path id="Path_2581" data-name="Path 2581" d="M300.649,366.573h.83V365.33l-31.443.043a3.8,3.8,0,1,0,0,7.553l31.443-.038V371.8h-.83Z" transform="translate(-158.04 -190.278)" fill="#5a918e"/>
      <path id="Path_2582" data-name="Path 2582" d="M303.96,367.62v5.231l-28.85.038a2.583,2.583,0,0,1-2.55-2.61,2.653,2.653,0,0,1,.743-1.85,2.512,2.512,0,0,1,1.8-.77Z" transform="translate(-161.117 -191.326)" fill="#fff"/>
      <path id="Path_2583" data-name="Path 2583" d="M306.408,370.06v.8L278.3,370.9a.4.4,0,0,1-.4-.4h0a.4.4,0,0,1,.4-.4Z" transform="translate(-163.559 -192.442)" fill="#e9cec2"/>
      <path id="Path_2584" data-name="Path 2584" d="M306.408,373.69v.8l-28.106.038a.4.4,0,0,1-.4-.4h0a.4.4,0,0,1,.4-.4Z" transform="translate(-163.559 -194.102)" fill="#e9cec2"/>
      <path id="Path_2585" data-name="Path 2585" d="M310.789,352.643h.83V351.4l-31.443.038a3.8,3.8,0,1,0,0,7.553l31.443-.043v-1.085h-.83Z" transform="translate(-162.678 -183.907)" fill="#d76751"/>
      <path id="Path_2586" data-name="Path 2586" d="M314.07,353.69v5.231l-28.85.038a2.583,2.583,0,0,1-2.55-2.61,2.653,2.653,0,0,1,.743-1.85,2.512,2.512,0,0,1,1.8-.771Z" transform="translate(-165.741 -184.954)" fill="#fff"/>
      <path id="Path_2587" data-name="Path 2587" d="M316.508,356.13v.8l-28.106.038a.4.4,0,0,1-.4-.4h0a.4.4,0,0,1,.4-.4Z" transform="translate(-168.179 -186.07)" fill="#e9cec2"/>
      <path id="Path_2588" data-name="Path 2588" d="M316.508,359.76v.8L288.4,360.6a.4.4,0,0,1-.4-.4h0a.4.4,0,0,1,.4-.4Z" transform="translate(-168.179 -187.731)" fill="#e9cec2"/>
      <rect id="Rectangle_580" data-name="Rectangle 580" width="2.263" height="17.07" transform="translate(116.207 148.302) rotate(-8.71)" fill="#d76751"/>
      <path id="Path_2589" data-name="Path 2589" d="M283.335,313.5l-2.235.342.488-1.7.26-.884.5.765Z" transform="translate(-164.887 -165.542)" fill="#f49d8b"/>
      <rect id="Rectangle_581" data-name="Rectangle 581" width="2.263" height="1.243" transform="translate(118.608 163.946) rotate(-8.71)" fill="#1b3431"/>
      <path id="Path_2590" data-name="Path 2590" d="M288.341,347.488l-1.942.3a.152.152,0,0,1-.174-.125l-.125-.83,2.235-.342.125.83a.152.152,0,0,1-.119.168Z" transform="translate(-167.31 -181.661)" fill="#df615c"/>
      <path id="Path_2591" data-name="Path 2591" d="M282.765,312.015l-.765.119.26-.884Z" transform="translate(-165.299 -165.542)" fill="#1b3431"/>
      <rect id="Rectangle_582" data-name="Rectangle 582" width="2.263" height="0.89" transform="translate(118.477 163.058) rotate(-8.71)" fill="#ba4131"/>
      <path id="Path_2592" data-name="Path 2592" d="M282.6,317.234l1.915,12.48a.174.174,0,0,0,.2.147h0a.174.174,0,0,0,.147-.2l-1.915-12.48a.174.174,0,0,0-.2-.146h0A.174.174,0,0,0,282.6,317.234Z" transform="translate(-165.708 -168.189)" fill="#ba4131"/>
      <path id="Path_2593" data-name="Path 2593" d="M284.219,316.984l1.915,12.48a.174.174,0,0,0,.2.147h0a.174.174,0,0,0,.147-.2l-1.915-12.48a.174.174,0,0,0-.2-.147h0A.174.174,0,0,0,284.219,316.984Z" transform="translate(-166.449 -168.074)" fill="#ba4131"/>
      <rect id="Rectangle_583" data-name="Rectangle 583" width="2.263" height="17.07" transform="matrix(1, -0.003, 0.003, 1, 120.236, 148.035)" fill="#5a918e"/>
      <path id="Path_2594" data-name="Path 2594" d="M290.768,313.477l-2.268.005.743-1.617.385-.836.385.83Z" transform="translate(-168.272 -165.441)" fill="#f49d8b"/>
      <rect id="Rectangle_584" data-name="Rectangle 584" width="2.263" height="1.243" transform="matrix(1, -0.003, 0.003, 1, 120.288, 163.862)" fill="#1b3431"/>
      <path id="Path_2595" data-name="Path 2595" d="M290.976,347.988h-1.964a.152.152,0,0,1-.152-.152V347h2.246v.836a.152.152,0,0,1-.13.152Z" transform="translate(-168.573 -181.894)" fill="#df615c"/>
      <path id="Path_2596" data-name="Path 2596" d="M290.641,311.86l-.771.005.385-.836Z" transform="translate(-168.899 -165.441)" fill="#1b3431"/>
      <rect id="Rectangle_585" data-name="Rectangle 585" width="2.263" height="0.89" transform="matrix(1, -0.003, 0.003, 1, 120.285, 162.972)" fill="#285b5c"/>
      <path id="Path_2597" data-name="Path 2597" d="M289.8,316.954l.043,12.642a.174.174,0,0,0,.174.174h0a.174.174,0,0,0,.174-.174l-.043-12.642a.174.174,0,0,0-.174-.174h0A.174.174,0,0,0,289.8,316.954Z" transform="translate(-169.003 -168.071)" fill="#285b5c"/>
      <path id="Path_2598" data-name="Path 2598" d="M291.43,316.944l.043,12.642a.174.174,0,0,0,.174.174h0a.174.174,0,0,0,.174-.174l-.043-12.642a.174.174,0,0,0-.174-.174h0A.174.174,0,0,0,291.43,316.944Z" transform="translate(-169.748 -168.067)" fill="#285b5c"/>
      <rect id="Rectangle_586" data-name="Rectangle 586" width="17.07" height="2.263" transform="translate(121.767 164.868) rotate(-81.91)" fill="#ed9033"/>
      <path id="Path_2599" data-name="Path 2599" d="M297.991,313.8l-2.241-.32.96-1.492.5-.776.266.884Z" transform="translate(-171.588 -165.523)" fill="#f49d8b"/>
      <rect id="Rectangle_587" data-name="Rectangle 587" width="2.263" height="1.243" transform="translate(121.919 163.638) rotate(8.09)" fill="#1b3431"/>
      <path id="Path_2600" data-name="Path 2600" d="M293.422,347.815l-1.942-.277a.152.152,0,0,1-.13-.168l.119-.83,2.241.32-.119.83A.152.152,0,0,1,293.422,347.815Z" transform="translate(-169.711 -181.684)" fill="#df615c"/>
      <path id="Path_2601" data-name="Path 2601" d="M298.29,312.094l-.77-.109.5-.776Z" transform="translate(-172.398 -165.523)" fill="#1b3431"/>
      <rect id="Rectangle_588" data-name="Rectangle 588" width="0.89" height="2.263" transform="translate(121.937 163.631) rotate(-81.91)" fill="#c67022"/>
      <path id="Path_2602" data-name="Path 2602" d="M295.3,316.945l-1.78,12.512a.174.174,0,0,0,.146.2h0a.174.174,0,0,0,.2-.146l1.78-12.512a.174.174,0,0,0-.146-.2h0a.174.174,0,0,0-.2.146Z" transform="translate(-170.703 -168.079)" fill="#c67022"/>
      <path id="Path_2603" data-name="Path 2603" d="M296.918,317.175l-1.78,12.512a.174.174,0,0,0,.146.2h0a.174.174,0,0,0,.2-.146l1.78-12.512a.174.174,0,0,0-.147-.2h0A.174.174,0,0,0,296.918,317.175Z" transform="translate(-171.444 -168.184)" fill="#c67022"/>
      <path id="Path_2604" data-name="Path 2604" d="M291.448,328.31l-.184,1.649-.071.662-1.139,10.239h-9.609l-1.009-9.1-.2-1.8-.184-1.649Z" transform="translate(-163.95 -173.345)" fill="#f5bf69"/>
      <path id="Path_2605" data-name="Path 2605" d="M291.419,331.35l-.071.662-11.758,1.139-.2-1.8Z" transform="translate(-164.105 -174.736)" fill="#ed9033"/>
      <path id="Path_2606" data-name="Path 2606" d="M291.315,329.319h-13.18l-.255-2.409h13.69Z" transform="translate(-163.415 -172.705)" fill="#f5bf69"/>
    </g>
  </g>
</svg>
