<svg xmlns="http://www.w3.org/2000/svg" xmlns:xlink="http://www.w3.org/1999/xlink" width="370.028" height="216.443" viewBox="0 0 370.028 216.443">
  <defs>
    <clipPath id="clip-path">
      <path id="Path_2753" data-name="Path 2753" d="M2134.973,1310.828l-6.1,4.883-1.772,7.407,7.588,20.154,17.108-11.682,4.825-18.466-2.336-4.145Z" transform="translate(-2127.1 -1308.98)" fill="none"/>
    </clipPath>
    <linearGradient id="linear-gradient" x1="-3.458" y1="-2.074" x2="-3.447" y2="-2.074" gradientUnits="objectBoundingBox">
      <stop offset="0" stop-color="#e1e7f5"/>
      <stop offset="1" stop-color="#fff"/>
    </linearGradient>
  </defs>
  <g id="_3_svg" data-name="3_svg" transform="translate(4378 -5990.97)">
    <g id="Group_77" data-name="Group 77" transform="translate(-4378 5568)">
      <path id="Path_2890" data-name="Path 2890" d="M370.028,3450.15h0Z" transform="translate(0 -2810.737)" fill="#fff"/>
      <g id="Group_72" data-name="Group 72" transform="translate(16.902 422.97)">
        <path id="Path_2744" data-name="Path 2744" d="M1400.685,764.918h27.992a27.392,27.392,0,1,1,0,54.785h-236.7a44.357,44.357,0,0,1,0-88.714,18.755,18.755,0,1,0,0-37.51H1169.4a19.5,19.5,0,1,1,0-39h28.543a7.591,7.591,0,0,0,0-15.182h-5.032a5.24,5.24,0,0,1,0-10.479h33.016c6.953,0,7.729,8.215,25.291,8.215h40.727a6.836,6.836,0,1,1,0,13.673h-6.565a9.9,9.9,0,1,0,0,19.81h19.759c26.682,0,30.45,6.973,35.123,20.841s28.943,14.986,28.943,14.986h33.185a14.928,14.928,0,1,1,0,29.855h-1.708a14.36,14.36,0,0,0,0,28.719M1178.213,639.3a5.24,5.24,0,1,0-5.24-5.239,5.24,5.24,0,0,0,5.24,5.239" transform="translate(-1147.62 -628.82)" fill="#e1e8f5" fill-rule="evenodd"/>
        <path id="Path_2745" data-name="Path 2745" d="M4224.989,2609.311c2.837-4.113,8.781-10.954,20.148-17.766,17.978-10.771,31.6-25.049,25.613-33.5-5.875-8.294-32.2,7.722-54.07,47.74a47.98,47.98,0,0,0,8.31,3.52" transform="translate(-3997.243 -2418.139)" fill="#b4c5e6" fill-rule="evenodd"/>
        <path id="Path_2746" data-name="Path 2746" d="M4261.245,2641.58a10.99,10.99,0,0,1,3.545.485.228.228,0,1,0,.129-.437,11.9,11.9,0,0,0-3.4-.51q.582-.989,1.166-1.95c.793-.018,3.354-.072,4.314-.016a.229.229,0,0,0,.025-.456c-.882-.048-3.053-.012-4.06.009q1.1-1.792,2.188-3.484a52.893,52.893,0,0,1,5.785.438.228.228,0,0,0,.061-.453,53.971,53.971,0,0,0-5.557-.437q1.105-1.7,2.208-3.3a75.233,75.233,0,0,1,8.261.623.229.229,0,0,0,.062-.453,76.158,76.158,0,0,0-8.008-.622q1.452-2.1,2.891-4.032a29.8,29.8,0,0,1,9.093.935.229.229,0,0,0,.143-.435,29.622,29.622,0,0,0-8.888-.969q1.772-2.364,3.515-4.488c1.5.085,7.542.543,10.367,2.544a.228.228,0,0,0,.263-.373c-2.744-1.942-8.327-2.477-10.272-2.606q1.851-2.243,3.659-4.23a47.486,47.486,0,0,1,9.991,3.529.228.228,0,1,0,.205-.407,47.916,47.916,0,0,0-9.848-3.509q1.073-1.167,2.121-2.251a51.42,51.42,0,0,1,11.428,4.1.228.228,0,0,0,.2-.411,53.075,53.075,0,0,0-11.25-4.071c1.661-1.7,3.283-3.244,4.848-4.643,1.328.438,8.045,2.713,11.579,4.961a.228.228,0,1,0,.243-.385c-3.394-2.159-9.645-4.329-11.426-4.926q1.369-1.209,2.682-2.279a67.141,67.141,0,0,1,11.1,4.971.228.228,0,0,0,.229-.395,67.394,67.394,0,0,0-10.9-4.915c2.046-1.645,3.974-3.04,5.75-4.214a41.321,41.321,0,0,1,10.01,3.745.228.228,0,1,0,.229-.394,40.959,40.959,0,0,0-9.712-3.694q1.1-.715,2.119-1.316a35.348,35.348,0,0,1,8.642,2.2.23.23,0,1,0,.166-.429,37.172,37.172,0,0,0-8.157-2.155,36.952,36.952,0,0,1,8.9-3.969.342.342,0,1,0-.167-.664,26.241,26.241,0,0,0-4.109,1.506,20.54,20.54,0,0,1,1.987-2.3.228.228,0,1,0-.239-.389,28.776,28.776,0,0,0-2.655,3.1c-1.052.494-2.249,1.1-3.575,1.853l2.255-4.483a.228.228,0,0,0-.407-.2l-2.567,5.1q-1.365.8-2.886,1.792l2.431-5.314a.228.228,0,1,0-.415-.191l-2.741,5.99c-1.516,1.02-3.132,2.192-4.835,3.542l2.108-5.506a.23.23,0,1,0-.429-.164l-2.388,6.24q-1.165.945-2.377,2l1.788-4.961a.229.229,0,0,0-.429-.157l-2.068,5.744q-2.246,2-4.627,4.391l1.346-4.845a.229.229,0,0,0-.44-.123l-1.565,5.64q-.943.965-1.9,2l.753-3.7a.228.228,0,1,0-.447-.092l-.905,4.442q-1.781,1.956-3.61,4.153l.7-4.124a.228.228,0,1,0-.45-.076l-.835,4.9q-1.6,1.951-3.225,4.1l.458-3.665a.228.228,0,0,0-.453-.056l-.557,4.458q-1.417,1.9-2.848,3.959l.023-3.307a.228.228,0,1,0-.456,0l-.028,3.977q-1.033,1.5-2.074,3.094l-.357-2.819a.228.228,0,0,0-.453.057l.422,3.36q-.954,1.476-1.909,3.024l-.332-1.822a.229.229,0,1,0-.45.082l.422,2.324q-.715,1.167-1.423,2.377l-.747-1.5a.228.228,0,0,0-.406.206l.887,1.757q-.58.992-1.16,2.009.318.143.628.286.554-.973,1.11-1.922" transform="translate(-4037.01 -2454.064)" fill="#fff" fill-rule="evenodd"/>
        <path id="Path_2747" data-name="Path 2747" d="M4247.812,3018.378a41.72,41.72,0,0,1,16.494-5.649c13.738-1.958,26-7.59,25.072-15.1-.895-7.234-20.37-4.448-44.607,15.181l3.029,5.546Z" transform="translate(-4023.325 -2824.876)" fill="#a0b2d8" fill-rule="evenodd"/>
        <path id="Path_2748" data-name="Path 2748" d="M4301.453,3025.9a.471.471,0,1,0-.006-.942,33.373,33.373,0,0,0-4.162.349l2.24-1.513a.314.314,0,0,0-.351-.521l-3.331,2.249c-1.215.2-2.6.47-4.134.837l2.354-2.25a.314.314,0,1,0-.434-.455l-3.155,3.014c-1.588.413-3.307.929-5.129,1.569l1.97-2.027a.314.314,0,1,0-.449-.438l-2.878,2.959c-1.9.715-3.908,1.564-5.984,2.579l1.666-2.142a.313.313,0,1,0-.494-.385l-2.474,3.181c-1.945,1-3.943,2.145-5.973,3.448l.683-1.456a.314.314,0,0,0-.568-.267l-1.116,2.377q-2.309,1.539-4.652,3.367l.625-1.481a.315.315,0,0,0-.58-.245l-1.072,2.548q-1.138.925-2.279,1.927l.463.85q1.139-1.008,2.279-1.937a11.433,11.433,0,0,1,3.419.618.314.314,0,1,0,.293-.555,9.761,9.761,0,0,0-3-.636q.9-.715,1.8-1.391a13.318,13.318,0,0,1,3.883,1.2.315.315,0,1,0,.309-.548,12.808,12.808,0,0,0-3.5-1.165q1.853-1.355,3.683-2.519a29.755,29.755,0,0,1,5.654,2.908.314.314,0,0,0,.4-.485,28.2,28.2,0,0,0-5.406-2.832q1.958-1.224,3.866-2.25a28.683,28.683,0,0,1,6.687,3.555.314.314,0,0,0,.39-.493,28.169,28.169,0,0,0-6.352-3.451q.943-.495,1.869-.944a30.419,30.419,0,0,1,8.146,4.075.314.314,0,1,0,.371-.508,31.056,31.056,0,0,0-7.7-3.96,67.525,67.525,0,0,1,6.4-2.623,63.155,63.155,0,0,1,7.876,5.594.314.314,0,1,0,.433-.455,60.114,60.114,0,0,0-7.542-5.4c1.511-.509,2.94-.93,4.278-1.275,1.079.824,5.06,3.871,5.982,4.667a.314.314,0,1,0,.411-.475c-.845-.729-4.179-3.289-5.617-4.389,1.748-.429,3.317-.736,4.664-.951.967.842,3.3,2.874,3.843,3.419a.314.314,0,1,0,.443-.445c-.485-.485-2.365-2.131-3.472-3.1a33.938,33.938,0,0,1,4.438-.393" transform="translate(-4039.109 -2852.027)" fill="#b4c5e6" fill-rule="evenodd"/>
        <path id="Path_2749" data-name="Path 2749" d="M3653.709,1814.654q-.3-4.106-.286-7.972.015-3.927.344-7.579a66.648,66.648,0,0,1,6.315-23.651,53.6,53.6,0,0,1,14.1-17.875,61.071,61.071,0,0,1,17.773-10.073,80.047,80.047,0,0,1,21.879-4.6c2.541-.186,5.1-.265,7.67-.242,2.6.023,5.193.152,7.766.382h0a1.064,1.064,0,0,1,.967,1.15l-.01.072c-.1,1-2.419,22.5-12.891,41.916-10.592,19.644-29.494,37.176-62.811,29.458a1.059,1.059,0,0,1-.819-.979Zm75.361-69.927a112.015,112.015,0,0,0-13.557,6.627c2.8.5,9.158,1.678,12.012,2.59.945-4.565,1.391-7.906,1.547-9.218m-1.758,10.217h-.012c-3.3-1.073-11.891-2.574-13.172-2.8-3.575,2.073-7.6,4.6-11.882,7.639l22.3,5.863c1.188-3.922,2.089-7.57,2.764-10.7m-3.065,11.672-23.076-6.068a153.821,153.821,0,0,0-12.379,9.952c4.576,1.394,26.455,8.1,30.161,9.976a113.3,113.3,0,0,0,5.291-13.859m-5.717,14.775c-3.729-1.909-27.881-9.269-30.613-10.1-3.373,3.061-6.767,6.419-10.1,10.092l34.37,10.972a.5.5,0,0,1,.119.055c1.478-2.2,2.833-4.461,4.069-6.755q1.144-2.12,2.156-4.264m-6.813,11.881-34.649-11.06c-2.593,2.9-5.148,5.993-7.624,9.285,5.6,1.893,34.285,10.818,34.372,10.845a.494.494,0,0,1,.2.123,63.339,63.339,0,0,0,7.7-9.192m-8.489,9.948c-3.039-.945-29.887-9.307-34.424-10.868q-3.184,4.3-6.164,9.05c6.777,3.346,29.56,9.26,29.627,9.278a.51.51,0,0,1,.311.234,49.479,49.479,0,0,0,10.654-7.693m-11.808,8.288c-3.651-.96-23.141-6.158-29.315-9.241q-1.894,3.082-3.674,6.358c2.6,1.027,14.255,5.5,21.784,6.269a.507.507,0,0,1,.44.368,45.91,45.91,0,0,0,10.766-3.754m-12.992,4.178c-7.71-1.2-18.262-5.282-20.482-6.161q-1.341,2.52-2.606,5.154a59.976,59.976,0,0,0,23.088,1.007m-23.684-2.115q1.173-2.412,2.412-4.726a62.819,62.819,0,0,1-2.187-10.683c-.034.344-.072.689-.1,1.035q-.322,3.6-.339,7.48-.013,3.328.214,6.893m.536-18.026a.508.508,0,0,1,.442.448,83.65,83.65,0,0,0,2.1,11.625q1.716-3.137,3.546-6.093a99.476,99.476,0,0,1-3.361-18.018,68.248,68.248,0,0,0-2.726,12.041m3.308-13.728a.507.507,0,0,1,.341.444,97.362,97.362,0,0,0,3.165,18.1q2.867-4.57,5.951-8.717c-.6-1.768-4.069-12.3-4.553-20.132q-1.295,2.116-2.425,4.41a57.365,57.365,0,0,0-2.49,5.879m5.658-11.464a.507.507,0,0,1,.238.41c.272,7.085,3.325,16.893,4.314,19.908,2.444-3.234,4.961-6.275,7.515-9.133a54.726,54.726,0,0,1-5.357-19.52,52.149,52.149,0,0,0-6.711,8.334m7.563-9.174a.513.513,0,0,1,.148.348c0,.024.094,8.4,5.1,19.193,3.344-3.683,6.748-7.052,10.132-10.124-2.049-4.613-4.028-16.1-4.29-17.672a56.54,56.54,0,0,0-8,5.505q-1.589,1.312-3.083,2.751m12-8.764a.526.526,0,0,1,.058.166c.006.036,2.021,12.275,4.118,17.3a154.986,154.986,0,0,1,12.532-10.1,57.245,57.245,0,0,1-1.43-13.358q-3.432.9-6.739,2.116a64.119,64.119,0,0,0-8.539,3.873m16.279-6.244a.489.489,0,0,1,.015.134,56.966,56.966,0,0,0,1.3,12.841c4.354-3.1,8.457-5.691,12.1-7.8a36.723,36.723,0,0,1-.143-7.293,82.761,82.761,0,0,0-13.275,2.123m14.3-2.2a.548.548,0,0,1,0,.08,36.39,36.39,0,0,0,.077,6.74,119.326,119.326,0,0,1,13.589-6.746c-2.169-.168-4.354-.263-6.541-.286q-3.548-.032-7.124.209" transform="translate(-3474.258 -1663.017)" fill="#a0b2d8" fill-rule="evenodd"/>
        <path id="Path_2750" data-name="Path 2750" d="M1723.855,3307.081H1444.29a1.934,1.934,0,0,1-1.931-1.93h0a1.93,1.93,0,0,1,1.931-1.93h279.564a1.93,1.93,0,0,1,1.931,1.93h0a1.93,1.93,0,0,1-1.931,1.93" transform="translate(-1421.286 -3112.001)" fill="#0a0b13" fill-rule="evenodd"/>
        <path id="Path_2751" data-name="Path 2751" d="M1300.649,3307.081h-3.938a1.934,1.934,0,0,1-1.93-1.93h0a1.93,1.93,0,0,1,1.93-1.93h3.938a1.93,1.93,0,0,1,1.931,1.93h0a1.93,1.93,0,0,1-1.931,1.93" transform="translate(-1284.258 -3112.001)" fill="#0a0b13" fill-rule="evenodd"/>
        <path id="Path_2752" data-name="Path 2752" d="M5508.695,3307.081H5497.04a1.935,1.935,0,0,1-1.93-1.93h0a1.934,1.934,0,0,1,1.93-1.93h11.655a1.93,1.93,0,0,1,1.93,1.93h0a1.934,1.934,0,0,1-1.93,1.93" transform="translate(-5184.265 -3112)" fill="#0a0b13" fill-rule="evenodd"/>
      </g>
      <g id="Group_73" data-name="Group 73" transform="translate(86.935 471.601)" clip-path="url(#clip-path)">
        <rect id="Rectangle_591" data-name="Rectangle 591" width="44.225" height="42.309" transform="translate(-14.388 26.47) rotate(-61.5)" fill="url(#linear-gradient)"/>
      </g>
      <g id="Group_74" data-name="Group 74" transform="translate(46.037 455.79)">
        <path id="Path_2754" data-name="Path 2754" d="M2148.582,1391.894a2.552,2.552,0,1,0-2.552-2.552,2.552,2.552,0,0,0,2.552,2.552" transform="translate(-2103.779 -1365.416)" fill="#fff" fill-rule="evenodd"/>
        <path id="Path_2755" data-name="Path 2755" d="M1846.147,1341.387l14.6-16.635a.264.264,0,0,1,.372-.025l.869.762a.264.264,0,0,1,.025.372l-14.6,16.635a.263.263,0,0,1-.372.026l-.869-.763a.263.263,0,0,1-.026-.372m14.821-16.087-14.248,16.236.473.415,14.25-16.238Z" transform="translate(-1825.277 -1307.729)" fill="#101537" fill-rule="evenodd"/>
        <path id="Path_2756" data-name="Path 2756" d="M2035.391,1319.2a1.471,1.471,0,1,1-1.274,1.645,1.472,1.472,0,0,1,1.274-1.645" transform="translate(-1999.857 -1302.643)" fill="#0a0b13" fill-rule="evenodd"/>
        <path id="Path_2757" data-name="Path 2757" d="M1846.452,1547.678l10.264,19.607a.264.264,0,0,0,.357.112l1.024-.536a.263.263,0,0,0,.112-.357l-10.264-19.607a.264.264,0,0,0-.357-.112l-1.025.536a.263.263,0,0,0-.112.358m10.609,19.13-10.02-19.141.557-.292,10.019,19.141Z" transform="translate(-1825.591 -1513.942)" fill="#101537" fill-rule="evenodd"/>
        <path id="Path_2758" data-name="Path 2758" d="M1977.46,1803.566a1.471,1.471,0,1,0-.851-1.9,1.471,1.471,0,0,0,.851,1.9" transform="translate(-1946.382 -1749.75)" fill="#0a0b13" fill-rule="evenodd"/>
        <path id="Path_2759" data-name="Path 2759" d="M1841.88,1539.7a1.471,1.471,0,1,1-1.274,1.644,1.471,1.471,0,0,1,1.274-1.644" transform="translate(-1820.182 -1507.378)" fill="#0a0b13" fill-rule="evenodd"/>
        <path id="Path_2760" data-name="Path 2760" d="M1949.105,1826.761h18.876a2.736,2.736,0,0,0,0-5.471h-18.876a2.736,2.736,0,0,0,0,5.471" transform="translate(-1918.395 -1768.849)" fill="#b22a25" fill-rule="evenodd"/>
        <path id="Path_2761" data-name="Path 2761" d="M1773.6,1826.761h18.876a2.736,2.736,0,0,0,0-5.471H1773.6a2.736,2.736,0,0,0,0,5.471" transform="translate(-1755.434 -1768.849)" fill="#d64d47" fill-rule="evenodd"/>
        <path id="Path_2762" data-name="Path 2762" d="M2067.083,1330.49l-7.812,12.047a.385.385,0,0,1-.681-.072l-4.516-11.484a.385.385,0,0,1,.34-.525l12.327-.563a.385.385,0,0,1,.34.594" transform="translate(-2018.374 -1312.588)" fill="#d64d47" fill-rule="evenodd"/>
        <path id="Path_2763" data-name="Path 2763" d="M1194.831,1136.463l-.661-1.68,6.647-10.25,1.8-.082Z" transform="translate(-1154.824 -1107.115)" fill="#fff" fill-rule="evenodd"/>
        <path id="Path_2764" data-name="Path 2764" d="M2033.688,1315.452l3.218,2.086a1.917,1.917,0,0,1-2.086,3.218l-3.218-2.086a1.917,1.917,0,0,1,2.086-3.218" transform="translate(-1996.722 -1298.892)" fill="#d64d47" fill-rule="evenodd"/>
        <path id="Path_2765" data-name="Path 2765" d="M2038.809,1336.071a.612.612,0,1,1-.847.181.612.612,0,0,1,.847-.181" transform="translate(-2003.347 -1318.232)" fill="#0a0b13" fill-rule="evenodd"/>
        <path id="Path_2766" data-name="Path 2766" d="M2278.747,1509.207a.533.533,0,1,0-1.065,0v1.252h-1.252a.533.533,0,1,0,0,1.065h1.252v1.252a.533.533,0,1,0,1.065,0v-1.252H2280a.533.533,0,1,0,0-1.065h-1.252Z" transform="translate(-2224.344 -1478.567)" fill="#fff" fill-rule="evenodd"/>
        <path id="Path_2767" data-name="Path 2767" d="M2174.73,1477.323a.533.533,0,1,0-1.065,0v1.252h-1.252a.533.533,0,0,0,0,1.065h1.252v1.252a.533.533,0,1,0,1.065,0v-1.252h1.252a.533.533,0,0,0,0-1.065h-1.252Z" transform="translate(-2127.781 -1448.981)" fill="#fff" fill-rule="evenodd"/>
        <path id="Path_2768" data-name="Path 2768" d="M2423.5,1360.313a.533.533,0,0,0-1.065,0v1.252h-1.252a.533.533,0,1,0,0,1.065h1.252v1.252a.533.533,0,0,0,1.065,0v-1.252h1.25a.533.533,0,1,0,0-1.065H2423.5Z" transform="translate(-2358.764 -1340.337)" fill="#fff" fill-rule="evenodd"/>
        <path id="Path_2769" data-name="Path 2769" d="M2303.051,1395.946a.234.234,0,1,0-.467,0v.55h-.55a.234.234,0,1,0,0,.468h.55v.55a.234.234,0,0,0,.467,0v-.55h.551a.234.234,0,1,0,0-.468h-.55Z" transform="translate(-2248.412 -1373.688)" fill="#fff" fill-rule="evenodd"/>
        <path id="Path_2770" data-name="Path 2770" d="M2227.567,1569.466a.234.234,0,1,0-.467,0v.55h-.551a.234.234,0,1,0,0,.468h.551v.55a.234.234,0,1,0,.467,0v-.55h.55a.234.234,0,0,0,0-.468h-.55Z" transform="translate(-2178.324 -1534.802)" fill="#fff" fill-rule="evenodd"/>
        <path id="Path_2771" data-name="Path 2771" d="M2383.592,1485.3a.234.234,0,0,0-.468,0v.548h-.55a.234.234,0,1,0,0,.468h.55v.55a.234.234,0,0,0,.468,0v-.55h.55a.234.234,0,0,0,0-.468h-.55Z" transform="translate(-2323.193 -1456.669)" fill="#fff" fill-rule="evenodd"/>
        <path id="Path_2772" data-name="Path 2772" d="M2222.306,1414.506a.234.234,0,1,0-.467,0v.55h-.55a.234.234,0,0,0,0,.468h.548v.549a.234.234,0,1,0,.467,0v-.549h.55a.234.234,0,0,0,0-.468h-.55Z" transform="translate(-2173.44 -1390.921)" fill="#fff" fill-rule="evenodd"/>
        <path id="Path_2773" data-name="Path 2773" d="M2368.827,1336.664a.234.234,0,1,0-.468,0v.55h-.55a.234.234,0,0,0,0,.468h.55v.549a.234.234,0,1,0,.468,0v-.549h.55a.234.234,0,0,0,0-.468h-.55Z" transform="translate(-2309.484 -1318.656)" fill="#fff" fill-rule="evenodd"/>
        <path id="Path_2774" data-name="Path 2774" d="M2503.76,1505.156a.234.234,0,1,0-.467,0v.55h-.55a.234.234,0,0,0,0,.468h.55v.55a.234.234,0,0,0,.467,0v-.55h.551a.234.234,0,1,0,0-.468h-.551Z" transform="translate(-2434.771 -1475.09)" fill="#fff" fill-rule="evenodd"/>
        <path id="Path_2775" data-name="Path 2775" d="M2321.391,1695.074a.234.234,0,1,0-.468,0v.55h-.55a.234.234,0,1,0,0,.468h.55v.548a.234.234,0,1,0,.468,0v-.55h.55a.234.234,0,1,0,0-.468h-.55Z" transform="translate(-2265.44 -1651.44)" fill="#fff" fill-rule="evenodd"/>
        <path id="Path_2776" data-name="Path 2776" d="M2456.438,1614.316a.234.234,0,1,0-.467,0v.55h-.55a.234.234,0,0,0,0,.467h.551v.55a.234.234,0,1,0,.467,0v-.55h.551a.234.234,0,0,0,0-.467h-.551Z" transform="translate(-2390.844 -1576.445)" fill="#fff" fill-rule="evenodd"/>
        <path id="Path_2777" data-name="Path 2777" d="M3270.781,1946.472a2.821,2.821,0,1,0-5.629.375c.408,5.969,1.06,12.6,2.02,19.969h-51.2c1.013-7.322,1.821-13.92,2.459-19.858a2.819,2.819,0,1,0-5.607-.6c-1.26,11.726-3.182,26.026-6.049,43.4-2.441,14.793-5.56,31.79-9.525,51.286H3203c3.885-19.162,6.944-35.854,9.341-50.382q1.605-9.724,2.832-18.2h52.776q1.228,8.508,3.007,18.255c2.667,14.542,6.333,31.222,11.275,50.326h5.819c-5.092-19.555-8.844-36.566-11.554-51.341-1.335-7.279-2.416-14.014-3.281-20.25a2.949,2.949,0,0,0-.056-.408c-1.159-8.418-1.921-15.913-2.376-22.575" transform="translate(-3079.837 -1882.635)" fill="#3c405f" fill-rule="evenodd"/>
        <path id="Path_2778" data-name="Path 2778" d="M2555.657,2345.954a1.494,1.494,0,0,0-2.987,0v67.067h2.987v-19.839h22.892v19.843h2.987v-67.067a1.494,1.494,0,1,0-2.987,0v38.776h-22.892Zm22.892,44.241h-22.893v-3.6h22.893Z" transform="translate(-2481.344 -2254.613)" fill="#0a0b13" fill-rule="evenodd"/>
        <path id="Path_2779" data-name="Path 2779" d="M2193.7,2345.958a1.493,1.493,0,1,0-2.987,0v67.067h2.987v-19.839h22.894v19.843h2.987v-67.067a1.494,1.494,0,0,0-2.987,0v38.776H2193.7Zm22.894,44.241H2193.7v-3.6h22.894Z" transform="translate(-2145.265 -2254.617)" fill="#684935" fill-rule="evenodd"/>
        <path id="Path_2780" data-name="Path 2780" d="M2212.073,2365.35h-58.445a1.877,1.877,0,1,0,0,3.754h58.444a1.877,1.877,0,1,0,0-3.754" transform="translate(-2109.091 -2274.009)" fill="#0a0b13" fill-rule="evenodd"/>
        <path id="Path_2781" data-name="Path 2781" d="M2181.906,2339.11h-63.059a1.877,1.877,0,1,0,0,3.754h63.059a1.877,1.877,0,1,0,0-3.754" transform="translate(-2076.797 -2249.645)" fill="#b56b41" fill-rule="evenodd"/>
        <path id="Path_2782" data-name="Path 2782" d="M2143.692,2339.11h-24.845a1.877,1.877,0,1,0,0,3.754h24.845a1.877,1.877,0,1,0,0-3.754" transform="translate(-2076.797 -2249.645)" fill="#d5874f" fill-rule="evenodd"/>
        <path id="Path_2783" data-name="Path 2783" d="M2995.758,1657.94c5.417,1.335,16.349,3.519,19.821,7.977,2.268,2.913,2.587,6.435-1.168,6.435h-19.07Z" transform="translate(-2892.364 -1617.179)" fill="#f99f3b" fill-rule="evenodd"/>
        <path id="Path_2784" data-name="Path 2784" d="M2343.611,1641.717l-7.327,6.411s-4.227-11.666-.05-21.867,20.045-10.974,26.587-11.592,14.895,17.495,14.895,17.495Z" transform="translate(-2278.672 -1576.988)" fill="#f99f3b" fill-rule="evenodd"/>
        <path id="Path_2785" data-name="Path 2785" d="M2496.6,2036.713s13.922,3.161,15.677,3.575,6.494,5.148,7.331,9.705,8.546,62.419,8.546,62.419a30.421,30.421,0,0,1-2.248,3.508,42.984,42.984,0,0,1-4.034-1.727s-13.414-49.049-14.964-53.384-1.144-7.546-5.885-7.546h-14.249l-3.692-12.551,1.486-1.445a12.411,12.411,0,0,1-3.085-.041c-.671-.413-11.254-4.285-11.254-4.285s7.589-2.272,8.26-2.53,11.59-1.161,11.59-1.161.026,2.994.568,3.639a3.669,3.669,0,0,0,1.7.911Z" transform="translate(-2404.799 -1963.797)" fill="#0a0b13" fill-rule="evenodd"/>
        <path id="Path_2786" data-name="Path 2786" d="M2360.39,1902.38c-.113,3.945-.24,8.079-.872,10.237a9.044,9.044,0,0,1,.023,2.665l-.1.286c.084.315.162.513.162.513,1.747,1.335,3.6,1.386,5.73,2.189l-.007-.286-.087-.375,6.212,3c2.1-.214,15.47-1.078,18.811-4.3-.3-3.146,13.062-11.968,16.726-12.818Z" transform="translate(-2301.931 -1844.141)" fill="#f99f3b" fill-rule="evenodd"/>
        <path id="Path_2787" data-name="Path 2787" d="M3168.067,3166.7a1.711,1.711,0,0,1,2.038-.93c1.445.4,10.016,5.117,11.355,5.7s2.748,2.8,1.691,4.075h-20.373c-1.2-.723-2.364-3.221-1.122-7.568s.939.22,6.411-1.273" transform="translate(-3046.293 -3017.128)" fill="#ea5756" fill-rule="evenodd"/>
        <path id="Path_2788" data-name="Path 2788" d="M3258.24,3166.663a1.716,1.716,0,0,1,2.038-.934c.9.249,4.561,2.171,7.52,3.727a6.8,6.8,0,0,1-3.13,1.131c-.53-.108-6.427-3.925-6.427-3.925" transform="translate(-3136.466 -3017.092)" fill="#db4241" fill-rule="evenodd"/>
        <path id="Path_2789" data-name="Path 2789" d="M3158.018,3273.334h22.026a.6.6,0,0,0,.6-.6v-1.109a.6.6,0,0,0-.6-.6h-22.026a.6.6,0,0,0-.6.6v1.109a.6.6,0,0,0,.6.6" transform="translate(-3042.855 -3114.933)" fill="#fffaf9" fill-rule="evenodd"/>
        <path id="Path_2790" data-name="Path 2790" d="M2331.36,2101.12c-8,0-8.321-13.978-4.213-18.3a9.025,9.025,0,0,0,5.362,1.612c5.441-.059,18.17-3.1,22.063,2.089s5.314,13.907,3.06,26.583-7.821,49.12-7.821,49.12l-6.422-.555s.95-51.408,1.053-54.143-1.342-6.384-4.285-6.384-8.794-.025-8.794-.025" transform="translate(-2269.536 -2011.68)" fill="#121835" fill-rule="evenodd"/>
        <path id="Path_2791" data-name="Path 2791" d="M2534.533,3165.135s-2.431-3.02-5.395-.618a4.387,4.387,0,0,0-2.225,2.183c-.606,1.528-1.754,2.216-1.955,3.892s.27,2.983,2.393,2.983h3.439c1.517,0,3.776.254,4.552-1.782s0-3.893.27-4.948-1.078-1.71-1.078-1.71" transform="translate(-2455.575 -3015.175)" fill="#ea5756" fill-rule="evenodd"/>
        <path id="Path_2792" data-name="Path 2792" d="M2577.026,3165.135s-2.431-3.02-5.395-.618a4.322,4.322,0,0,0-.715.4,12.444,12.444,0,0,0-.185,3.092c.258.72,4.09.566,4.63.31.4-.192,1.323-2.145,1.762-3.126-.062-.036-.1-.055-.1-.055" transform="translate(-2498.068 -3015.175)" fill="#db4241" fill-rule="evenodd"/>
        <path id="Path_2793" data-name="Path 2793" d="M2520.927,3273.334h10.054a.6.6,0,0,0,.6-.6v-1.109a.6.6,0,0,0-.6-.6h-10.054a.6.6,0,0,0-.6.6v1.109a.6.6,0,0,0,.6.6" transform="translate(-2451.317 -3114.933)" fill="#fffaf9" fill-rule="evenodd"/>
        <path id="Path_2794" data-name="Path 2794" d="M2863.851,2121.81c-.206.227-.413.471-.617.734a11.013,11.013,0,0,0-2.264,3.841.194.194,0,0,0,.369.121c.065-.2.137-.392.215-.58a.194.194,0,0,0,.327-.07,10.35,10.35,0,0,1,1.655-3.069c.286-.321.572-.606.846-.858Zm1.144.26.672.153a12.236,12.236,0,0,0-1.011,1.073,10.365,10.365,0,0,0-1.652,3.067.2.2,0,0,1-.2.133c-.023.064-.045.129-.067.194a.2.2,0,0,1-.346.048l-.011.033a.194.194,0,1,1-.369-.122,11.3,11.3,0,0,1,2.979-4.576m.843.192.7.159a11.534,11.534,0,0,0-2.92,3.765c-.083.2-.161.408-.232.622a.19.19,0,0,1-.076.1c-.046.122-.089.245-.132.37a.194.194,0,1,1-.368-.122,10.282,10.282,0,0,1,.45-1.124,11.513,11.513,0,0,1,2.574-3.77m.886.2.518.117a12.21,12.21,0,0,0-1.626,1.724,10.272,10.272,0,0,0-1.484,2.841.194.194,0,0,1-.135.127l-.034.1a.194.194,0,1,1-.368-.122,10.739,10.739,0,0,1,1.709-3.173,12.372,12.372,0,0,1,1.42-1.612m1.321.3a11.628,11.628,0,0,0-3.575,5.111.194.194,0,1,0,.368.122,11.211,11.211,0,0,1,3.464-4.948,12.657,12.657,0,0,0-1.443,1.567,10.8,10.8,0,0,0-1.8,3.289.2.2,0,0,0,.161.255v.009c-.016.046-.031.092-.046.137h0a.194.194,0,0,0,.368.122c.02-.06.041-.12.062-.179v-.014c.02-.056.04-.11.061-.164l.006-.017c.044-.116.09-.231.138-.344v-.006l.072-.167v0c.025-.055.049-.108.071-.16v-.013c.024-.053.05-.105.072-.157v-.006c.025-.052.051-.1.077-.154l.009-.016c.023-.046.047-.092.072-.138l.019-.034.066-.122.019-.032.072-.121.023-.039.064-.11.027-.043c.021-.035.042-.072.063-.1l.036-.058.056-.087.037-.056.058-.088.038-.057.057-.082.045-.066.046-.065.006-.007a10.394,10.394,0,0,0-1.083,2.277.193.193,0,0,0,.124.245h0c-.042.112-.081.224-.119.338a.194.194,0,0,0,.368.122l.032-.094a.194.194,0,0,0,.135-.127c.052-.155.106-.307.165-.457a.194.194,0,0,0,.372.107,11.091,11.091,0,0,1,3.284-4.791l.085-.063-.578-.132-.207.174.2-.175Zm2.282.521a11.518,11.518,0,0,0-3.4,4.963.194.194,0,1,0,.368.122c.015-.045.031-.09.046-.134a.19.19,0,0,0,.119.112.195.195,0,0,0,.246-.124,11.145,11.145,0,0,1,3.28-4.791Zm.829.189,1.65.377a11.323,11.323,0,0,0-3.761,5.19,2.639,2.639,0,0,0-.543.087.195.195,0,0,1-.124-.246,11.14,11.14,0,0,1,2.555-4.156,10.858,10.858,0,0,0-2.672,4.219.194.194,0,0,1-.369-.122l.017-.051a.194.194,0,0,1-.278-.23,11.573,11.573,0,0,1,3.525-5.072m1.758.4.486.112a11.4,11.4,0,0,0-3.953,5.336.194.194,0,1,1-.368-.121,11.732,11.732,0,0,1,3.834-5.327" transform="translate(-2767.595 -2047.882)" fill="#3c405f" fill-rule="evenodd"/>
        <path id="Path_2795" data-name="Path 2795" d="M2662.884,2691.426a10.875,10.875,0,0,0-1.747-.293,11.009,11.009,0,0,0-4.685.248.29.29,0,0,0-.2.266.158.158,0,0,0,.215.153c.224-.061.445-.113.661-.157a.258.258,0,0,0-.024.11.157.157,0,0,0,.215.154,10.689,10.689,0,0,1,3.688-.343,10.372,10.372,0,0,1,1.787.461Zm-.191,1.189-.106.667a10.542,10.542,0,0,0-1.706-.357,10.707,10.707,0,0,0-3.686.343.157.157,0,0,1-.2-.1l-.22.057a.158.158,0,0,1-.215-.153.261.261,0,0,1,.042-.143l-.037.01a.157.157,0,0,1-.215-.152.286.286,0,0,1,.2-.266,10.945,10.945,0,0,1,6.137.094m-.133.829a10.922,10.922,0,0,0-4.938-.143,11.777,11.777,0,0,0-1.3.272.287.287,0,0,0-.2.265.157.157,0,0,0,.215.152q.215-.057.42-.1a.179.179,0,0,0,.127.009c.241-.066.479-.12.715-.167a10.511,10.511,0,0,1,4.855.415Zm-.143.887-.082.51a10.46,10.46,0,0,0-2.135-.4,10.72,10.72,0,0,0-3.4.363.164.164,0,0,1-.177-.049l-.11.029a.157.157,0,0,1-.214-.153.286.286,0,0,1,.2-.265,11.057,11.057,0,0,1,3.813-.357,10.925,10.925,0,0,1,2.1.324m-.207,1.295-.072.458a10.543,10.543,0,0,0-5.947-.1.159.159,0,0,1-.215-.154.286.286,0,0,1,.2-.266,10.959,10.959,0,0,1,6.026.06m-.076.472a10.86,10.86,0,0,0-1.809-.306,11.052,11.052,0,0,0-3.962.343.286.286,0,0,0-.2.265.157.157,0,0,0,.005.04h-.011l-.155.04h0a.286.286,0,0,0-.2.266.157.157,0,0,0,.214.153l.2-.053h.016c.063-.017.124-.031.187-.045l.02,0c.133-.031.265-.058.4-.084h.006c.066-.012.13-.025.194-.036h.006l.188-.031h.015c.062-.009.123-.019.185-.026h.007l.184-.023h.019l.165-.016.042,0,.147-.013h.039l.147-.011h.047l.133-.007h.055l.125-.005h.712a11.227,11.227,0,0,0-2.685.389.286.286,0,0,0-.2.265h0q-.19.044-.383.1a.286.286,0,0,0-.2.265.156.156,0,0,0,.214.152l.107-.027a.162.162,0,0,0,.176.047c.176-.047.349-.09.52-.127a.286.286,0,0,0-.187.261.158.158,0,0,0,.215.153,10.583,10.583,0,0,1,5.061-.137Zm-.277,1.831-.107.672a10.626,10.626,0,0,0-4.762.2.158.158,0,0,1-.214-.153.271.271,0,0,1,.072-.181c-.051.012-.1.026-.153.04a.157.157,0,0,1-.211-.154.286.286,0,0,1,.2-.265,10.97,10.97,0,0,1,5.168-.158m-.13.822a11,11,0,0,0-5.089.175.286.286,0,0,0-.2.265.158.158,0,0,0,.072.136l-.057.014a.29.29,0,0,0-.2.267.158.158,0,0,0,.215.153,10.6,10.6,0,0,1,5.134-.122Zm-.143.891-.114.723a10.6,10.6,0,0,0-4.835.184.156.156,0,0,1-.214-.152.261.261,0,0,1,.044-.143.154.154,0,0,1-.114-.155.285.285,0,0,1,.2-.265,10.981,10.981,0,0,1,5.026-.187m-.132.84a10.989,10.989,0,0,0-4.968.2.286.286,0,0,0-.2.265.157.157,0,0,0,.215.153,10.619,10.619,0,0,1,4.89-.173Z" transform="translate(-2577.061 -2576.364)" fill="#3c405f" fill-rule="evenodd"/>
        <path id="Path_2796" data-name="Path 2796" d="M3072.275,2343.5a10.771,10.771,0,0,0-2.708-.079A11,11,0,0,0,3065,2344.5a.286.286,0,0,0-.154.3.158.158,0,0,0,.235.112q.315-.15.624-.273a.249.249,0,0,0,0,.112.157.157,0,0,0,.235.112,10.707,10.707,0,0,1,3.569-1,9.927,9.927,0,0,1,2.876.368Zm.185,1.294.1.684a10.249,10.249,0,0,0-2.932-.251,10.671,10.671,0,0,0-3.564,1,.158.158,0,0,1-.214-.063l-.207.1a.157.157,0,0,1-.235-.112.265.265,0,0,1,.016-.143l-.035.016a.157.157,0,0,1-.236-.112.286.286,0,0,1,.154-.3,10.878,10.878,0,0,1,7.156-.809m.115.806a10.876,10.876,0,0,0-6.084.583,11.2,11.2,0,0,0-1.226.5.286.286,0,0,0-.153.3.157.157,0,0,0,.235.112c.132-.063.264-.122.395-.179a.174.174,0,0,0,.127-.013q.338-.161.671-.291a10.33,10.33,0,0,1,6.153-.18Zm.129.912a10.767,10.767,0,0,0-3.432-.12,11.049,11.049,0,0,0-3.689,1.031.286.286,0,0,0-.154.3.158.158,0,0,0,.235.113l.1-.049a.164.164,0,0,0,.182.016,10.7,10.7,0,0,1,3.278-.964,10.206,10.206,0,0,1,3.556.269Zm.2,1.412.136.974c-.159-.043-.35-.091-.568-.136l.026.006h0l.03.007.029.006.029.006h0l.027.007.057.014h0l.049.011.027.007h.009l.016,0,.026.007.025.006.012,0h.012l.024.007.024.006.015,0h.008l.023.007.023.006.018.006h0l.021.007.021.006h.006l.094.674a9.453,9.453,0,0,0-1.026-.192,9.594,9.594,0,0,1,1.027.2l.173,1.24a10.532,10.532,0,0,0-6.47.873.158.158,0,0,1-.235-.113.27.27,0,0,1,.039-.19l-.143.067a.157.157,0,0,1-.235-.113.286.286,0,0,1,.154-.3,10.924,10.924,0,0,1,6.446-.95c-.12-.033-.258-.071-.413-.1a10.554,10.554,0,0,0-5.935.959.157.157,0,0,1-.227-.1.286.286,0,0,1,.138-.29l-.489.214a.161.161,0,0,1-.181-.015l-.1.046a.157.157,0,0,1-.235-.113.286.286,0,0,1,.154-.3c.12-.057.24-.111.357-.163h0a.286.286,0,0,1,.154-.3,11.212,11.212,0,0,1,2.574-.864h-.009l-.082.011-.082.014-.1.016-.072.012-.109.02-.072.014-.106.021-.072.013-.122.027-.053.012-.129.031-.047.012c-.047.011-.095.023-.143.037l-.037.009-.143.039-.041.012c-.053.014-.106.029-.159.045l-.019.006-.176.055h-.007l-.177.059h-.015c-.059.02-.119.042-.179.064h0c-.062.022-.124.045-.185.072h-.007c-.124.049-.249.1-.375.153l-.019.008-.176.077-.01,0h-.006c-.063.028-.127.058-.19.087a.158.158,0,0,1-.235-.112.286.286,0,0,1,.154-.3h0l.143-.068h.005a.228.228,0,0,1-.012-.038.286.286,0,0,1,.154-.3,11.079,11.079,0,0,1,3.838-1.046,10.961,10.961,0,0,1,2.129,0,10.554,10.554,0,0,0-6.163.929.156.156,0,0,1-.235-.112.286.286,0,0,1,.154-.3,10.833,10.833,0,0,1,7.42-.741m.429,3.084a10.907,10.907,0,0,0-6.817.883.286.286,0,0,0-.154.3.158.158,0,0,0,.093.121l-.053.025a.286.286,0,0,0-.154.3.158.158,0,0,0,.235.114,10.6,10.6,0,0,1,5.112-1.033,11,11,0,0,0-5,1.081.287.287,0,0,0-.153.3.152.152,0,0,0,.143.131.262.262,0,0,0-.019.152.157.157,0,0,0,.235.112,10.506,10.506,0,0,1,6.759-.813Zm.244,1.771.068.49a10.5,10.5,0,0,0-6.883.787.159.159,0,0,1-.236-.114.286.286,0,0,1,.154-.3,10.9,10.9,0,0,1,6.9-.865" transform="translate(-2956.899 -2253.597)" fill="#3c405f" fill-rule="evenodd"/>
        <path id="Path_2797" data-name="Path 2797" d="M1628.64,1946.479a2.82,2.82,0,1,0-5.628.375c.407,5.969,1.06,12.6,2.019,19.969h-51.2c1.013-7.322,1.821-13.92,2.459-19.858a2.819,2.819,0,0,0-5.606-.6c-1.26,11.726-3.182,26.026-6.049,43.4-2.441,14.793-5.559,31.79-9.525,51.286h5.746c3.885-19.162,6.944-35.854,9.341-50.382q1.605-9.724,2.832-18.2h52.779q1.229,8.508,3.007,18.255c2.667,14.542,6.333,31.222,11.276,50.326h5.817c-5.092-19.555-8.844-36.566-11.554-51.341-1.335-7.279-2.417-14.014-3.282-20.25a2.663,2.663,0,0,0-.056-.408c-1.159-8.418-1.922-15.913-2.376-22.575" transform="translate(-1555.11 -1882.643)" fill="#3c405f" fill-rule="evenodd"/>
        <path id="Path_2798" data-name="Path 2798" d="M2571.3,1888.86H2442.887a2.728,2.728,0,0,0-2.717,2.717v6.118a2.728,2.728,0,0,0,2.717,2.717H2571.3a2.728,2.728,0,0,0,2.717-2.717v-6.115a2.728,2.728,0,0,0-2.717-2.717" transform="translate(-2376.888 -1831.588)" fill="#8e9dcb" fill-rule="evenodd"/>
        <path id="Path_2799" data-name="Path 2799" d="M2202.9,1888.86H2046.139a2.732,2.732,0,0,0-2.729,2.717v3.624h162.218v-3.621a2.732,2.732,0,0,0-2.729-2.717" transform="translate(-2008.497 -1831.588)" fill="#0a0b13" fill-rule="evenodd"/>
        <path id="Path_2800" data-name="Path 2800" d="M2535.891,1859.55H2402.066a2.946,2.946,0,0,0,0,5.892h133.825a2.946,2.946,0,0,0,0-5.892" transform="translate(-2338.773 -1804.374)" fill="#8e9dcb" fill-rule="evenodd"/>
        <path id="Path_2801" data-name="Path 2801" d="M1794.423,1888.86h-58.9a2.727,2.727,0,0,0-2.717,2.717v6.118a2.727,2.727,0,0,0,2.717,2.717h58.9a2.727,2.727,0,0,0,2.717-2.717v-6.115a2.727,2.727,0,0,0-2.717-2.717" transform="translate(-1720.104 -1831.588)" fill="#8e9dcb" fill-rule="evenodd"/>
        <path id="Path_2802" data-name="Path 2802" d="M1793.074,1888.86h-56.293c-2.212,0-4.021,1.223-4.021,2.717v3.624h64.333v-3.621c0-1.5-1.809-2.717-4.021-2.717" transform="translate(-1720.058 -1831.588)" fill="#3c405f" fill-rule="evenodd"/>
        <path id="Path_2803" data-name="Path 2803" d="M1737.959,1859.55h-65.944a2.946,2.946,0,0,0,0,5.892h65.944a2.946,2.946,0,0,0,0-5.892" transform="translate(-1660.922 -1804.374)" fill="#8e9dcb" fill-rule="evenodd"/>
        <path id="Path_2804" data-name="Path 2804" d="M2689.184,1577.551s-2.853-3.243-2.158-7.071.767-11.205-3.27-13.293-8.975-1.8-11.136,1.183c0,0-1.148-1.635-2.436-1.566s-.209,2.123.1,2.366c-13.212-4.107-1.427,15.671-10.788,18.381Z" transform="translate(-2580.536 -1522.375)" fill="#0f1225" fill-rule="evenodd"/>
        <path id="Path_2805" data-name="Path 2805" d="M2716.612,1646s-2.853-3.243-2.158-7.071c.094-.516.176-1.1.239-1.722-4.37,1.564-14.62,4.517-19.29-.187a15.449,15.449,0,0,1-4.169-7.464c-1.216,4.062,1.241,11.981-2.194,15.266,1.1.3,2.335.671,3.724,1.178Z" transform="translate(-2607.964 -1590.828)" fill="#0a0b13" fill-rule="evenodd"/>
        <path id="Path_2806" data-name="Path 2806" d="M2930,1762.937c2.663-2.051,1.108-9.009-5.35-7.117-4.589,1.347-12.369,4.069-13.333,4.273a29.74,29.74,0,0,1-5,0,2.844,2.844,0,0,0-2.646,2.844H2930Z" transform="translate(-2807.257 -1707.761)" fill="#f4ac82" fill-rule="evenodd"/>
        <path id="Path_2807" data-name="Path 2807" d="M2375.484,1750.775a3.4,3.4,0,0,1-1.734-3.345c.207-2.4,3.087-4.783,5.26-5.024s25.761,5.042,27.971,5.338a79.369,79.369,0,0,0,8.423,0c1.258,0,4.459.8,4.459,3.03h-44.379Z" transform="translate(-2315.203 -1695.598)" fill="#f4ac82" fill-rule="evenodd"/>
        <path id="Path_2808" data-name="Path 2808" d="M3281.87,1577.847s-.357-1.274-1.425-1.328-1.478,1.271-1.163,1.43a12.934,12.934,0,0,0,2.588-.1" transform="translate(-3155.908 -1541.578)" fill="#f2d8cd" fill-rule="evenodd"/>
        <path id="Path_2809" data-name="Path 2809" d="M3275.193,1622.63l.292-.06h0l.992-.2c-1.186,3.255-4.5,2.788-3.195.28l1.635-.335v.167a.172.172,0,0,0,.22.164Z" transform="translate(-3150.16 -1584.096)" fill="#f2d8cd" fill-rule="evenodd"/>
        <path id="Path_2810" data-name="Path 2810" d="M3291.474,1192.15H3245a3.016,3.016,0,0,0-2.8,2.32l-6.55,31.467a1.835,1.835,0,0,0,1.838,2.32h46.475a3.017,3.017,0,0,0,2.8-2.32l6.55-31.467a1.834,1.834,0,0,0-1.837-2.32" transform="translate(-3115.442 -1184.693)" fill="#fff" fill-rule="evenodd"/>
        <path id="Path_2811" data-name="Path 2811" d="M3311.288,1192.15h-44.949a3.018,3.018,0,0,0-2.8,2.32l-6.549,31.467a1.835,1.835,0,0,0,1.837,2.32h44.95a3.017,3.017,0,0,0,2.8-2.32l6.55-31.467a1.834,1.834,0,0,0-1.837-2.32" transform="translate(-3135.256 -1184.693)" fill="#dcdcee" fill-rule="evenodd"/>
        <path id="Path_2812" data-name="Path 2812" d="M3499.46,1562.034h11.389a4.092,4.092,0,0,0,.322-.838c0-.451-2.615-8.287-6.408-9.515l-2.217-.051Z" transform="translate(-3360.439 -1518.47)" fill="#b6b6d3" fill-rule="evenodd"/>
        <path id="Path_2813" data-name="Path 2813" d="M3356.557,1498.76h-45.132a1.17,1.17,0,0,0-1.086.9.71.71,0,0,0,.715.9h45.134a1.169,1.169,0,0,0,1.086-.9.71.71,0,0,0-.715-.9" transform="translate(-3184.822 -1469.38)" fill="#d1d0e6" fill-rule="evenodd"/>
        <path id="Path_2814" data-name="Path 2814" d="M3326.76,1537h-44.115a1.828,1.828,0,0,0-1.7,1.406l-1.529,7.346a1.111,1.111,0,0,0,1.113,1.406h44.115a1.827,1.827,0,0,0,1.7-1.406l1.529-7.346a1.112,1.112,0,0,0-1.114-1.406" transform="translate(-3156.101 -1504.886)" fill="#d1d0e6" fill-rule="evenodd"/>
        <path id="Path_2815" data-name="Path 2815" d="M3504.82,1560.745h11.219c-.53-1.77-2.957-7.982-6.3-9.064l-2.217-.051Z" transform="translate(-3365.416 -1518.47)" fill="#b6b6d3" fill-rule="evenodd"/>
        <path id="Path_2816" data-name="Path 2816" d="M3793.771,1294.5h-7.658a1.119,1.119,0,0,0-1.04.858l-2.314,11.1a.678.678,0,0,0,.681.858h7.658a1.12,1.12,0,0,0,1.04-.858l2.31-11.1a.679.679,0,0,0-.681-.858" transform="translate(-3623.466 -1279.725)" fill="#b6b6d3" fill-rule="evenodd"/>
        <path id="Path_2817" data-name="Path 2817" d="M3808,1294.5h-7.657a1.118,1.118,0,0,0-1.039.858l-2.31,11.1a.678.678,0,0,0,.681.858h7.659a1.118,1.118,0,0,0,1.039-.858l2.31-11.1a.678.678,0,0,0-.681-.858" transform="translate(-3636.679 -1279.725)" fill="#d1d0e6" fill-rule="evenodd"/>
        <path id="Path_2818" data-name="Path 2818" d="M3906.189,1384.127h0a.6.6,0,0,0-.554.458l-.8,3.851a.363.363,0,0,0,.363.458.594.594,0,0,0,.553-.458l.8-3.851a.362.362,0,0,0-.362-.458" transform="translate(-3736.818 -1362.943)" fill="#b6b6d3" fill-rule="evenodd"/>
        <path id="Path_2819" data-name="Path 2819" d="M3875.914,1384.127h0a.6.6,0,0,0-.554.458l-.8,3.851a.362.362,0,0,0,.362.458.6.6,0,0,0,.554-.458l.8-3.851a.362.362,0,0,0-.362-.458" transform="translate(-3708.706 -1362.943)" fill="#b6b6d3" fill-rule="evenodd"/>
        <path id="Path_2820" data-name="Path 2820" d="M3845.667,1384.126h0a.6.6,0,0,0-.553.458l-.8,3.851a.363.363,0,0,0,.363.458.6.6,0,0,0,.553-.458l.8-3.851a.362.362,0,0,0-.362-.458" transform="translate(-3680.622 -1362.942)" fill="#b6b6d3" fill-rule="evenodd"/>
        <path id="Path_2821" data-name="Path 2821" d="M3815.414,1384.127h0a.6.6,0,0,0-.553.458l-.8,3.851a.362.362,0,0,0,.362.458.6.6,0,0,0,.554-.458l.8-3.851a.362.362,0,0,0-.362-.458" transform="translate(-3652.532 -1362.943)" fill="#b6b6d3" fill-rule="evenodd"/>
        <path id="Path_2822" data-name="Path 2822" d="M3412.3,1230.95h-45.134a1.17,1.17,0,0,0-1.086.9h0a.71.71,0,0,0,.715.9h45.134a1.169,1.169,0,0,0,1.085-.9h0a.71.71,0,0,0-.715-.9" transform="translate(-3236.576 -1220.718)" fill="#d1d0e6" fill-rule="evenodd"/>
        <path id="Path_2823" data-name="Path 2823" d="M3343.626,1548.487h-43.615a.459.459,0,0,0-.426.352.277.277,0,0,0,.278.351h43.615a.458.458,0,0,0,.425-.351.278.278,0,0,0-.279-.352m-1.566,7.522h-43.615a.457.457,0,0,0-.424.352.278.278,0,0,0,.278.352h43.615a.455.455,0,0,0,.424-.352.278.278,0,0,0-.278-.352m.314-1.5h-43.615a.458.458,0,0,0-.425.351.278.278,0,0,0,.278.352h43.615a.458.458,0,0,0,.426-.352.278.278,0,0,0-.279-.351m.313-1.5H3299.07a.457.457,0,0,0-.425.352.278.278,0,0,0,.278.351h43.615a.456.456,0,0,0,.426-.351.278.278,0,0,0-.279-.352m.313-1.5h-43.615a.457.457,0,0,0-.426.351.278.278,0,0,0,.278.352h43.615a.458.458,0,0,0,.426-.352.278.278,0,0,0-.28-.351m.314-1.5h-43.615a.457.457,0,0,0-.426.352.277.277,0,0,0,.278.351h43.615a.457.457,0,0,0,.425-.351.277.277,0,0,0-.278-.352" transform="translate(-3173.393 -1515.551)" fill="#b6b6d3" fill-rule="evenodd"/>
        <path id="Path_2824" data-name="Path 2824" d="M3511.673,1552.09h3.264a4.208,4.208,0,0,0-.908-.429l-2.217-.051Zm-.238.8-.209.7h5.4a9.408,9.408,0,0,0-.664-.7Zm-.447,1.5-.209.7h6.947c-.154-.24-.314-.475-.479-.7Zm-.446,1.5-.209.7h8.265c-.123-.234-.252-.47-.386-.7Zm-.446,1.5-.209.7h9.442c-.1-.229-.215-.465-.326-.7Zm-.447,1.5-.209.7h10.506c-.082-.219-.174-.455-.276-.7Z" transform="translate(-3369.706 -1518.451)" fill="#9295bc" fill-rule="evenodd"/>
        <path id="Path_2825" data-name="Path 2825" d="M3377.728,1373.2h-.794a.679.679,0,0,0-.631.522l-.478,2.3a.413.413,0,0,0,.413.522h.794a.679.679,0,0,0,.631-.522l.478-2.3a.413.413,0,0,0-.413-.522" transform="translate(-3245.635 -1352.797)" fill="#b6b6d3" fill-rule="evenodd"/>
        <path id="Path_2826" data-name="Path 2826" d="M3375.284,1304.18H3373.8a1.271,1.271,0,0,0-1.18.977l-.893,4.3a.772.772,0,0,0,.773.977h1.485a1.272,1.272,0,0,0,1.181-.977l.894-4.3a.772.772,0,0,0-.774-.977" transform="translate(-3241.819 -1288.713)" fill="#d1d0e6" fill-rule="evenodd"/>
        <path id="Path_2827" data-name="Path 2827" d="M3471.425,1282.86h-19.773a.964.964,0,0,0-.9.742l-2.472,11.88a.586.586,0,0,0,.587.741h19.774a.963.963,0,0,0,.9-.741l2.472-11.88a.586.586,0,0,0-.587-.742" transform="translate(-3312.906 -1268.917)" fill="#d1d0e6" fill-rule="evenodd"/>
        <path id="Path_2828" data-name="Path 2828" d="M3608.095,1306.9h-10.629a.508.508,0,0,0-.472.391h0a.308.308,0,0,0,.31.39h10.628a.508.508,0,0,0,.472-.39h0a.308.308,0,0,0-.309-.391" transform="translate(-3450.989 -1291.235)" fill="#fff" fill-rule="evenodd"/>
        <path id="Path_2829" data-name="Path 2829" d="M3522.743,1334.227h-16.764a.508.508,0,0,0-.472.391.309.309,0,0,0,.31.391h16.765a.508.508,0,0,0,.472-.39h0a.309.309,0,0,0-.31-.391" transform="translate(-3366.044 -1316.611)" fill="#b6b6d3" fill-rule="evenodd"/>
        <path id="Path_2830" data-name="Path 2830" d="M3516.934,1362.107H3500.17a.508.508,0,0,0-.473.391.309.309,0,0,0,.31.39h16.764a.509.509,0,0,0,.472-.39.309.309,0,0,0-.309-.391" transform="translate(-3360.649 -1342.498)" fill="#b6b6d3" fill-rule="evenodd"/>
        <path id="Path_2831" data-name="Path 2831" d="M3511.13,1390h-16.764a.508.508,0,0,0-.472.391.308.308,0,0,0,.31.391h16.764a.508.508,0,0,0,.472-.39.309.309,0,0,0-.31-.391" transform="translate(-3355.26 -1368.393)" fill="#b6b6d3" fill-rule="evenodd"/>
        <path id="Path_2832" data-name="Path 2832" d="M3505.331,1417.847h-16.765a.508.508,0,0,0-.472.391.308.308,0,0,0,.308.39h16.763a.507.507,0,0,0,.472-.39.308.308,0,0,0-.308-.391" transform="translate(-3349.876 -1394.252)" fill="#b6b6d3" fill-rule="evenodd"/>
        <path id="Path_2833" data-name="Path 2833" d="M3499.5,1445.727h-16.767a.508.508,0,0,0-.472.391.309.309,0,0,0,.309.39h16.765a.508.508,0,0,0,.472-.39.309.309,0,0,0-.31-.391" transform="translate(-3344.459 -1420.138)" fill="#b6b6d3" fill-rule="evenodd"/>
        <path id="Path_2834" data-name="Path 2834" d="M3511.669,1306.9h4.171a.309.309,0,0,1,.31.391h0a.508.508,0,0,1-.472.391h-4.171a.309.309,0,0,1-.31-.391h0a.509.509,0,0,1,.473-.391" transform="translate(-3371.327 -1291.235)" fill="#b6b6d3" fill-rule="evenodd"/>
        <path id="Path_2835" data-name="Path 2835" d="M3552.714,1543.485c-.367,0-.948.093-.948-.274a.665.665,0,0,1,.665-.665h13.189a2.6,2.6,0,0,1,2.736,2.633c.058.852.416,3.519.823,6.4.4,2.8.858,5.958,1.12,7.714a10.134,10.134,0,0,1,.116,1.476,5.375,5.375,0,0,1-.652,2.764,3.354,3.354,0,0,1-2.526,1.623,5.214,5.214,0,0,1-.767.055h-14.1a.665.665,0,0,1-.665-.665c0-.367.611-.214.978-.214l2.377-.45a3.95,3.95,0,0,0,.572-.039,2.084,2.084,0,0,0,1.58-.99,4.109,4.109,0,0,0,.459-2.084,8.907,8.907,0,0,0-.1-1.287c-.248-1.674-.849-4.735-1.27-7.722-.41-2.911-.773-5.613-.833-6.494a1.33,1.33,0,0,0-1.362-1.4.521.521,0,0,1-.072,0Z" transform="translate(-3408.944 -1510.035)" fill="#b6b6d3" fill-rule="evenodd"/>
        <path id="Path_2836" data-name="Path 2836" d="M3525,1543.866a.665.665,0,1,1,0-1.33h1.349a2.6,2.6,0,0,1,2.734,2.633c.059.852.417,3.519.824,6.4.4,2.8.858,5.958,1.12,7.714a10.273,10.273,0,0,1,.115,1.476,5.38,5.38,0,0,1-.652,2.764,3.354,3.354,0,0,1-2.525,1.623,5.231,5.231,0,0,1-.767.055h-3.608a.665.665,0,0,1,0-1.33h3.608a3.933,3.933,0,0,0,.572-.039,2.082,2.082,0,0,0,1.579-.99,4.107,4.107,0,0,0,.46-2.084,8.873,8.873,0,0,0-.1-1.287c-.248-1.674-.7-4.735-1.12-7.722-.411-2.911-.773-5.613-.833-6.494a1.329,1.329,0,0,0-1.362-1.4.515.515,0,0,1-.071,0Z" transform="translate(-3382.231 -1510.026)" fill="#fff" fill-rule="evenodd"/>
        <path id="Path_2837" data-name="Path 2837" d="M2794.117,1102.61a9.944,9.944,0,0,0,9.683,7.823h13.834v11.841a3.632,3.632,0,0,1-3.622,3.622h-24.19l-6.172,6.172a.4.4,0,0,1-.69-.286v-25.55a3.632,3.632,0,0,1,3.622-3.622Z" transform="translate(-2695.169 -1101.555)" fill="#c0cde9" fill-rule="evenodd"/>
        <path id="Path_2838" data-name="Path 2838" d="M2801.387,1087.851h-27.425a3.633,3.633,0,0,0-3.622,3.622v25.551a.4.4,0,0,0,.69.286l6.172-6.173h24.186a3.633,3.633,0,0,0,3.622-3.622v-16.043a3.633,3.633,0,0,0-3.622-3.622" transform="translate(-2683.451 -1087.85)" fill="#f7b11a" fill-rule="evenodd"/>
      </g>
      <g id="Group_75" data-name="Group 75" transform="translate(25.843 427.836)">
        <path id="Path_2839" data-name="Path 2839" d="M1665.116,2457.977c7.229-3.842,9.064,4.518,6.253,11.44s-17.231,30.2-17.984,39.437c-.292,3.579-.959,3.188-1.53.678-2.849-12.518,3.31-46.267,13.261-51.556" transform="translate(-1624.095 -2331.159)" fill="#2a4d3c" fill-rule="evenodd"/>
        <path id="Path_2840" data-name="Path 2840" d="M1472.922,1994.127c-8.289-7.463-13.471,2.984-12.038,13.06s12.817,45.61,10.767,58.063c-.8,4.827.214,4.531,1.8,1.4,7.894-15.608,10.882-62.253-.528-72.526" transform="translate(-1447.206 -1899.024)" fill="#499075" fill-rule="evenodd"/>
        <path id="Path_2841" data-name="Path 2841" d="M1551.859,2125.263c.177.463.572.233,1.1-.537,8.638-28.775-4.819-71.769-4.862-71.907a.449.449,0,1,0-.858.265c.043.139,13.683,43.719,4.62,72.178" transform="translate(-1527.588 -1955.576)" fill="#1b7254" fill-rule="evenodd"/>
        <path id="Path_2842" data-name="Path 2842" d="M1280.28,2351.322c-8.031-3.5-9.3,5.577-5.716,12.727s20.9,30.783,22.471,40.571c.611,3.794,1.287,3.321,1.69.6,2-13.591-7.388-49.08-18.447-53.892" transform="translate(-1272.668 -2232.311)" fill="#a6c86b" fill-rule="evenodd"/>
        <path id="Path_2843" data-name="Path 2843" d="M1345.069,2453.134c.247.3.483.031.685-.674-.726-23.585-21.45-52.261-21.517-52.352a.352.352,0,0,0-.572.41c.066.094,21.074,29.16,21.406,52.616" transform="translate(-1319.968 -2278.207)" fill="#5f9850" fill-rule="evenodd"/>
        <path id="Path_2844" data-name="Path 2844" d="M573.749,2872.68h15.429l4.028,3.636-3.29,12.676h-16.9l-3.291-12.676Z" transform="translate(-554.828 -2702.392)" fill="#3c405f" fill-rule="evenodd"/>
        <path id="Path_2845" data-name="Path 2845" d="M1464.417,3004.41H1487.9a1.281,1.281,0,0,1,1.277,1.278v5.8a1.281,1.281,0,0,1-1.277,1.278h-23.486a1.281,1.281,0,0,1-1.277-1.278v-5.8a1.281,1.281,0,0,1,1.277-1.278" transform="translate(-1449.521 -2839.422)" fill="#3c405f" fill-rule="evenodd"/>
        <path id="Path_2846" data-name="Path 2846" d="M593.207,2923.53l-.676,2.605H570.4l-.677-2.605Z" transform="translate(-554.828 -2749.607)" fill="#101537" fill-rule="evenodd"/>
        <path id="Path_2847" data-name="Path 2847" d="M2015.428,708.311m1.615-6.149a3.1,3.1,0,1,1-.91,2.2,3.1,3.1,0,0,1,.91-2.2m.671-3.074a5.426,5.426,0,0,0-1.216.518,5.509,5.509,0,0,0-1.068.8.19.19,0,0,1-.227.028l-1.443-.832-.008,0a.358.358,0,0,0-.48.136l-.007.01-1.015,1.758a.357.357,0,0,0,.131.488l.01.006,1.43.826a.189.189,0,0,1,.09.21h0a5.515,5.515,0,0,0,0,2.65.19.19,0,0,1-.1.215l-1.43.826a.358.358,0,0,0-.131.49l1.021,1.768h0a.359.359,0,0,0,.489.132l.011-.006,1.43-.827a.192.192,0,0,1,.227.028,5.512,5.512,0,0,0,1.068.805,5.435,5.435,0,0,0,1.225.521.191.191,0,0,1,.139.184v1.664a.358.358,0,0,0,.358.357h2.042a.358.358,0,0,0,.358-.357v-1.664a.19.19,0,0,1,.147-.185,5.46,5.46,0,0,0,1.215-.518,5.519,5.519,0,0,0,1.068-.8.19.19,0,0,1,.237-.021l1.43.827a.358.358,0,0,0,.489-.132l.006-.011,1.015-1.758h0a.361.361,0,0,0-.13-.488l-1.44-.831a.191.191,0,0,1-.09-.211,5.555,5.555,0,0,0,0-2.65.19.19,0,0,1,.1-.215l1.43-.827a.351.351,0,0,0,.164-.214.358.358,0,0,0-.034-.271l-.006-.011-1.015-1.758h0a.357.357,0,0,0-.214-.166.363.363,0,0,0-.272.034h0l-1.443.833a.191.191,0,0,1-.232-.032,5.529,5.529,0,0,0-1.065-.805,5.446,5.446,0,0,0-1.225-.521.192.192,0,0,1-.14-.183v-1.665a.357.357,0,0,0-.357-.357h-2.042a.357.357,0,0,0-.357.357V698.9a.192.192,0,0,1-.143.185" transform="translate(-1959.325 -696.88)" fill="#c0cde9" fill-rule="evenodd"/>
        <path id="Path_2848" data-name="Path 2848" d="M2225.234,820.663a7.308,7.308,0,1,1-1.588,2.376,7.308,7.308,0,0,1,1.588-2.376m2.633-.963a6.678,6.678,0,1,0,2.54-.5,6.678,6.678,0,0,0-2.54.5m-.809-5.383a11.611,11.611,0,0,0-1.348.481,11.909,11.909,0,0,0-1.295.643,12.086,12.086,0,0,0-2.334,1.76.764.764,0,0,1-.914.111c-1.073-.621-2.2-1.234-3.256-1.88a.456.456,0,0,0-.158-.049.5.5,0,0,0-.18.014.475.475,0,0,0-.164.08.456.456,0,0,0-.119.135c-.786,1.185-1.569,2.717-2.294,3.972a.436.436,0,0,0-.057.169.483.483,0,0,0,.094.349.442.442,0,0,0,.139.122c.967.639,2.211,1.278,3.235,1.87a.757.757,0,0,1,.323.362.728.728,0,0,1,.049.159l.066.023-.071.3q-.088.358-.154.715t-.109.721c-.029.245-.052.488-.067.728s-.021.48-.021.736.007.5.021.735.037.483.067.728.068.491.109.721.095.473.154.715a.764.764,0,0,1-.395.864l-2.866,1.654h0l-.341.192a.457.457,0,0,0-.135.119.487.487,0,0,0-.094.35.442.442,0,0,0,.057.169l2.121,3.676h0l.172.3a.471.471,0,0,0,.119.135.486.486,0,0,0,.164.08.478.478,0,0,0,.184.014.447.447,0,0,0,.168-.057c1.027-.643,2.185-1.26,3.244-1.872a.766.766,0,0,1,.912.109h0a11.923,11.923,0,0,0,5.009,2.9.76.76,0,0,1,.4.275.768.768,0,0,1,.155.463v3.739a.448.448,0,0,0,.034.176.472.472,0,0,0,.429.287h4.589a.452.452,0,0,0,.176-.035.464.464,0,0,0,.152-.1.493.493,0,0,0,.1-.152.453.453,0,0,0,.035-.176V838.1a.774.774,0,0,1,.591-.747,11.912,11.912,0,0,0,2.646-1.128,12.08,12.08,0,0,0,2.334-1.759.767.767,0,0,1,.953-.087l3.2,1.848a.438.438,0,0,0,.169.057.489.489,0,0,0,.35-.093.471.471,0,0,0,.119-.135c.76-1.326,1.533-2.646,2.294-3.973a.459.459,0,0,0,.056-.169.486.486,0,0,0-.013-.184.476.476,0,0,0-.08-.164.425.425,0,0,0-.132-.119l-3.239-1.87a.766.766,0,0,1-.323-.362.813.813,0,0,1-.041-.124l-.084-.016.085-.344c.059-.237.111-.474.154-.711s.079-.472.109-.722.052-.488.066-.728.022-.48.022-.735-.007-.5-.022-.734-.036-.483-.066-.728-.072-.5-.11-.724-.094-.473-.154-.71a.761.761,0,0,1,.049-.505.77.77,0,0,1,.344-.357l3.208-1.852a.431.431,0,0,0,.134-.118.469.469,0,0,0,.08-.165.486.486,0,0,0,.013-.184.454.454,0,0,0-.056-.169c-.787-1.165-1.567-2.717-2.294-3.973a.464.464,0,0,0-.119-.135.475.475,0,0,0-.165-.08.485.485,0,0,0-.184-.014.449.449,0,0,0-.17.058l-3.24,1.871a.76.76,0,0,1-.486.1.772.772,0,0,1-.437-.215,11.923,11.923,0,0,0-5-2.886.767.767,0,0,1-.557-.738v-3.739a.448.448,0,0,0-.035-.176.469.469,0,0,0-.1-.15.449.449,0,0,0-.327-.137h-4.592a.463.463,0,0,0-.176.034.482.482,0,0,0-.152.1.466.466,0,0,0-.136.327v3.74a.762.762,0,0,1-.165.475.773.773,0,0,1-.425.272m-1.613-.143a12.7,12.7,0,0,0-3.832,2.543.093.093,0,0,1-.107.013l-3.268-1.888a1.131,1.131,0,0,0-.409-.129,1.168,1.168,0,0,0-.429.033,1.143,1.143,0,0,0-.693.53c-.787,1.279-1.539,2.665-2.294,3.972a1.135,1.135,0,0,0-.143.423,1.171,1.171,0,0,0,.029.445,1.152,1.152,0,0,0,.2.4,1.113,1.113,0,0,0,.333.294c1.042.643,2.172,1.254,3.238,1.87a.087.087,0,0,1,.036.043.088.088,0,0,1,.006.057l-.072.3h0c-.033.143-.063.3-.091.448-.047.259-.087.514-.117.764s-.053.5-.072.768-.024.523-.024.775.009.51.024.774.039.52.072.768.072.5.117.764.1.508.161.751a.1.1,0,0,1-.046.1c-1.19.636-2.4,1.383-3.575,2.063l.042.052-.036.044a1.15,1.15,0,0,0-.227.844,1.116,1.116,0,0,0,.143.423l2.465,4.27.046-.028a.94.94,0,0,0,.076.064,1.144,1.144,0,0,0,1.255.091c1.078-.572,2.189-1.263,3.254-1.879a.088.088,0,0,1,.054-.009.091.091,0,0,1,.054.024,12.649,12.649,0,0,0,5.291,3.058.093.093,0,0,1,.048.032.082.082,0,0,1,.018.055v3.739a1.144,1.144,0,0,0,.337.806,1.16,1.16,0,0,0,.37.248,1.13,1.13,0,0,0,.435.086h4.589a1.133,1.133,0,0,0,.436-.086,1.173,1.173,0,0,0,.37-.248,1.153,1.153,0,0,0,.247-.37,1.134,1.134,0,0,0,.087-.435V838.1a.084.084,0,0,1,.072-.088l.014-.006a12.591,12.591,0,0,0,5.274-3.053.088.088,0,0,1,.054-.025.094.094,0,0,1,.058.015l3.238,1.869a1.118,1.118,0,0,0,.42.143,1.149,1.149,0,0,0,.844-.227,1.13,1.13,0,0,0,.286-.324c.851-1.368,1.655-2.866,2.466-4.271l-.044-.026a1.078,1.078,0,0,0,.019-.108,1.144,1.144,0,0,0-.56-1.137l-3.239-1.87a.089.089,0,0,1-.036-.042.091.091,0,0,1-.006-.059l.084-.342h0c.029-.134.056-.269.081-.407q.071-.388.117-.764c.031-.25.053-.5.072-.768s.023-.523.023-.774-.008-.51-.023-.774-.039-.52-.072-.769-.072-.5-.117-.763-.1-.508-.161-.75a.094.094,0,0,1,.006-.06.087.087,0,0,1,.041-.042l3.234-1.868a1.1,1.1,0,0,0,.333-.293,1.176,1.176,0,0,0,.2-.4,1.159,1.159,0,0,0,.029-.444,1.128,1.128,0,0,0-.136-.413c-.771-1.43-1.655-2.868-2.471-4.281l-.046.028c-.025-.022-.05-.044-.076-.064a1.152,1.152,0,0,0-.844-.226,1.127,1.127,0,0,0-.421.143l-.24.138h0l-3,1.734a.089.089,0,0,1-.057.011.086.086,0,0,1-.052-.026l-.008-.008a12.662,12.662,0,0,0-5.283-3.052.091.091,0,0,1-.047-.031.082.082,0,0,1-.019-.055v-3.74a1.149,1.149,0,0,0-.706-1.053,1.125,1.125,0,0,0-.436-.088h-4.59a1.121,1.121,0,0,0-.435.088,1.168,1.168,0,0,0-.371.247,1.145,1.145,0,0,0-.335.806v3.743a.1.1,0,0,1-.019.057.093.093,0,0,1-.05.031l-.015.005a12.775,12.775,0,0,0-1.443.512" transform="translate(-2146.937 -800.696)" fill="#c0cde9" fill-rule="evenodd"/>
        <path id="Path_2849" data-name="Path 2849" d="M4319.643,1436.919m1.615-6.149a3.105,3.105,0,1,1-.91,2.2,3.105,3.105,0,0,1,.91-2.2m.67-3.074a5.467,5.467,0,0,0-1.215.518,5.527,5.527,0,0,0-1.067.805.191.191,0,0,1-.227.028l-1.443-.833-.007,0a.357.357,0,0,0-.48.136l-.006.01-1.015,1.758a.358.358,0,0,0,.13.488l.011.006,1.43.826a.192.192,0,0,1,.09.21h0a5.448,5.448,0,0,0-.122.656,5.729,5.729,0,0,0,0,1.338,5.444,5.444,0,0,0,.122.656.192.192,0,0,1-.1.214l-1.43.825h0a.358.358,0,0,0-.13.49l1.02,1.767h0a.356.356,0,0,0,.485.132l.011-.006,1.43-.827a.191.191,0,0,1,.227.028,5.478,5.478,0,0,0,2.293,1.325.19.19,0,0,1,.139.184v1.664a.358.358,0,0,0,.357.358h2.043a.358.358,0,0,0,.357-.358v-1.664a.191.191,0,0,1,.143-.185,5.439,5.439,0,0,0,1.215-.518,5.523,5.523,0,0,0,1.067-.8.192.192,0,0,1,.238-.021l1.43.827a.358.358,0,0,0,.488-.132l.006-.01,1.015-1.759h0a.358.358,0,0,0-.13-.488l-1.441-.832a.192.192,0,0,1-.089-.21,5.53,5.53,0,0,0,0-2.651.19.19,0,0,1,.1-.214l1.43-.827a.357.357,0,0,0,.13-.488l-.005-.011-1.015-1.758h0a.358.358,0,0,0-.488-.132h0l-1.443.833a.19.19,0,0,1-.23-.031,5.486,5.486,0,0,0-2.288-1.321.19.19,0,0,1-.139-.183v-1.664a.358.358,0,0,0-.357-.358h-2.043a.358.358,0,0,0-.357.358v1.664a.191.191,0,0,1-.143.185" transform="translate(-4098.79 -1373.395)" fill="#c0cde9" fill-rule="evenodd"/>
        <path id="Path_2850" data-name="Path 2850" d="M5125.422,2012.725a7.31,7.31,0,1,1-1.588,2.377,7.31,7.31,0,0,1,1.588-2.377m2.633-.963a6.678,6.678,0,1,0,2.54-.5,6.679,6.679,0,0,0-2.54.5m-.808-5.383a12.109,12.109,0,0,0-1.349.481,12.019,12.019,0,0,0-3.628,2.407.764.764,0,0,1-.915.111c-1.073-.62-2.2-1.233-3.256-1.88a.447.447,0,0,0-.158-.049.512.512,0,0,0-.18.014.464.464,0,0,0-.165.082.434.434,0,0,0-.119.134c-.786,1.185-1.568,2.717-2.294,3.973a.456.456,0,0,0-.056.168.479.479,0,0,0,.093.35.477.477,0,0,0,.135.119c.967.639,2.211,1.278,3.236,1.87a.768.768,0,0,1,.322.362.8.8,0,0,1,.048.16l.067.022-.072.3c-.059.237-.11.475-.153.711s-.079.47-.109.721-.053.488-.067.728-.021.48-.021.736.007.5.021.733.038.485.067.729.066.492.109.721.095.474.154.715a.764.764,0,0,1-.4.864l-2.866,1.655h0l-.339.2a.465.465,0,0,0-.135.119.481.481,0,0,0-.081.164.493.493,0,0,0-.013.185.469.469,0,0,0,.057.169l2.122,3.676h0l.171.3a.439.439,0,0,0,.119.133.462.462,0,0,0,.165.082.514.514,0,0,0,.184.014.46.46,0,0,0,.168-.058c1.026-.644,2.184-1.26,3.243-1.871a.765.765,0,0,1,.912.11h0a12.174,12.174,0,0,0,1.115.951,11.91,11.91,0,0,0,2.523,1.458,11.739,11.739,0,0,0,1.372.486.768.768,0,0,1,.556.738v3.74a.453.453,0,0,0,.034.176.488.488,0,0,0,.253.253.462.462,0,0,0,.176.034h4.589a.462.462,0,0,0,.175-.034.471.471,0,0,0,.253-.253.463.463,0,0,0,.035-.176v-3.741a.769.769,0,0,1,.59-.746,11.908,11.908,0,0,0,2.646-1.128,12.1,12.1,0,0,0,2.334-1.76.767.767,0,0,1,.953-.087l3.2,1.848a.436.436,0,0,0,.168.057.517.517,0,0,0,.186-.014.466.466,0,0,0,.164-.082.484.484,0,0,0,.12-.133c.76-1.327,1.532-2.646,2.293-3.974a.441.441,0,0,0,.057-.169.467.467,0,0,0-.014-.184.475.475,0,0,0-.08-.165.448.448,0,0,0-.131-.118l-3.239-1.87a.765.765,0,0,1-.364-.485l-.084-.017.085-.343c.058-.237.109-.475.153-.711s.079-.471.11-.722.052-.488.066-.728.021-.48.021-.734-.006-.5-.021-.736-.037-.483-.066-.727-.071-.5-.11-.724-.094-.473-.153-.709a.762.762,0,0,1,.048-.507.78.78,0,0,1,.344-.358l3.208-1.852a.46.46,0,0,0,.135-.119.491.491,0,0,0,.093-.35.441.441,0,0,0-.057-.169c-.782-1.166-1.567-2.721-2.293-3.973a.488.488,0,0,0-.12-.134.466.466,0,0,0-.164-.081.523.523,0,0,0-.185-.014.464.464,0,0,0-.169.058l-3.241,1.87a.754.754,0,0,1-.486.1.777.777,0,0,1-.438-.214,12.176,12.176,0,0,0-1.112-.95,11.9,11.9,0,0,0-3.89-1.94.756.756,0,0,1-.4-.276.766.766,0,0,1-.155-.462v-3.74a.453.453,0,0,0-.034-.176.471.471,0,0,0-.1-.15.454.454,0,0,0-.151-.1.447.447,0,0,0-.175-.035H5128.3a.448.448,0,0,0-.176.035.465.465,0,0,0-.286.429v3.74a.767.767,0,0,1-.59.746m-1.614-.143a12.7,12.7,0,0,0-2.657,1.536,12.846,12.846,0,0,0-1.176,1,.083.083,0,0,1-.051.024.086.086,0,0,1-.055-.011l-3.268-1.887a1.124,1.124,0,0,0-.409-.129,1.159,1.159,0,0,0-.429.032,1.144,1.144,0,0,0-.4.2,1.132,1.132,0,0,0-.293.333c-.787,1.279-1.54,2.665-2.294,3.973a1.149,1.149,0,0,0,.085,1.268,1.134,1.134,0,0,0,.333.292c1.042.643,2.172,1.254,3.238,1.87a.089.089,0,0,1,.037.042.092.092,0,0,1,.005.057l-.072.3h0c-.032.147-.063.3-.09.448q-.072.388-.118.764c-.03.248-.053.5-.071.768s-.024.523-.024.776.009.51.024.773.039.521.071.769.072.5.118.764.1.508.161.751a.092.092,0,0,1-.045.1c-1.19.636-2.4,1.384-3.575,2.064l.042.051-.035.046a1.142,1.142,0,0,0-.227.844,1.108,1.108,0,0,0,.143.422l2.465,4.271.046-.028c.024.022.05.043.076.063a1.152,1.152,0,0,0,1.258.092c1.078-.572,2.189-1.263,3.254-1.879a.1.1,0,0,1,.054-.01.1.1,0,0,1,.052.025,12.775,12.775,0,0,0,1.175,1,12.518,12.518,0,0,0,1.287.854,12.755,12.755,0,0,0,1.378.687,12.585,12.585,0,0,0,1.451.515.089.089,0,0,1,.047.033.081.081,0,0,1,.019.054v3.74a1.117,1.117,0,0,0,.087.435,1.145,1.145,0,0,0,.619.618,1.121,1.121,0,0,0,.436.087h4.589a1.115,1.115,0,0,0,.435-.087,1.154,1.154,0,0,0,.37-.247,1.158,1.158,0,0,0,.336-.806v-3.741a.083.083,0,0,1,.018-.055.088.088,0,0,1,.051-.032l.015-.005a12.594,12.594,0,0,0,4.1-2.049,12.943,12.943,0,0,0,1.176-1,.082.082,0,0,1,.053-.025.087.087,0,0,1,.058.015l3.239,1.869a1.131,1.131,0,0,0,.42.143,1.153,1.153,0,0,0,.844-.227,1.108,1.108,0,0,0,.286-.324c.852-1.368,1.654-2.866,2.466-4.271l-.043-.026a1.013,1.013,0,0,0,.019-.108,1.144,1.144,0,0,0-.56-1.137l-3.239-1.87a.09.09,0,0,1-.037-.042.094.094,0,0,1,0-.058l.083-.343h0c.029-.134.056-.27.082-.406q.072-.388.117-.764c.029-.248.054-.505.072-.769s.023-.521.023-.773-.007-.511-.023-.776-.041-.52-.072-.77-.071-.5-.117-.763-.1-.507-.162-.749a.093.093,0,0,1,.006-.061.09.09,0,0,1,.042-.042l3.234-1.868a1.1,1.1,0,0,0,.333-.294,1.161,1.161,0,0,0,.2-.4,1.131,1.131,0,0,0,.029-.443,1.148,1.148,0,0,0-.136-.413c-.771-1.43-1.654-2.868-2.471-4.28l-.045.027a.985.985,0,0,0-.078-.064,1.134,1.134,0,0,0-.4-.2,1.16,1.16,0,0,0-.445-.029,1.132,1.132,0,0,0-.419.143l-.24.137h0l-3,1.734a.089.089,0,0,1-.058.011.086.086,0,0,1-.051-.026l-.009-.008a12.63,12.63,0,0,0-5.282-3.052.091.091,0,0,1-.047-.032.076.076,0,0,1-.018-.054v-3.74a1.15,1.15,0,0,0-.706-1.053,1.118,1.118,0,0,0-.435-.087h-4.589a1.122,1.122,0,0,0-.435.087,1.166,1.166,0,0,0-.372.248,1.142,1.142,0,0,0-.334.805v3.74a.109.109,0,0,1-.019.057.1.1,0,0,1-.051.03l-.014.006a12.528,12.528,0,0,0-1.443.512" transform="translate(-4839.763 -1907.523)" fill="#c0cde9" fill-rule="evenodd"/>
        <path id="Path_2851" data-name="Path 2851" d="M1586.45,1274.863a.533.533,0,1,0-1.065,0v1.252h-1.252a.533.533,0,0,0,0,1.065h1.252v1.252a.533.533,0,0,0,1.065,0v-1.252h1.254a.533.533,0,0,0,0-1.065h-1.253Z" transform="translate(-1561.368 -1233.042)" fill="#a0b2d8" fill-rule="evenodd"/>
        <path id="Path_2852" data-name="Path 2852" d="M2876.07,844.773a.533.533,0,0,0-1.065,0v1.252h-1.252a.533.533,0,1,0,0,1.065H2875v1.252a.533.533,0,0,0,1.065,0V847.09h1.252a.533.533,0,1,0,0-1.065h-1.252Z" transform="translate(-2758.781 -833.704)" fill="#a0b2d8" fill-rule="evenodd"/>
        <path id="Path_2853" data-name="Path 2853" d="M3559.158,794.182a.532.532,0,0,0-1.064,0v1.252h-1.252a.533.533,0,1,0,0,1.065h1.252v1.251a.532.532,0,0,0,1.064,0V796.5h1.252a.533.533,0,1,0,0-1.065h-1.252Z" transform="translate(-3393.03 -786.731)" fill="#a0b2d8" fill-rule="evenodd"/>
        <path id="Path_2854" data-name="Path 2854" d="M4823.862,2329.236a.533.533,0,0,0-1.064,0v1.253h-1.252a.533.533,0,1,0,0,1.064h1.252v1.252a.533.533,0,1,0,1.064,0v-1.252h1.252a.533.533,0,0,0,0-1.064h-1.252Z" transform="translate(-4567.289 -2212.046)" fill="#a0b2d8" fill-rule="evenodd"/>
        <path id="Path_2855" data-name="Path 2855" d="M1939.745,2995.456a.533.533,0,0,0-1.065,0v1.253h-1.252a.533.533,0,1,0,0,1.065h1.252v1.249a.533.533,0,1,0,1.065,0v-1.252H1941a.533.533,0,1,0,0-1.064h-1.252Z" transform="translate(-1889.386 -2830.632)" fill="#a0b2d8" fill-rule="evenodd"/>
        <path id="Path_2856" data-name="Path 2856" d="M1593.988,1755.543a.533.533,0,0,0-1.065,0v1.254h-1.252a.533.533,0,1,0,0,1.065h1.252v1.253a.533.533,0,1,0,1.065,0v-1.253h1.252a.533.533,0,1,0,0-1.065h-1.252Z" transform="translate(-1568.349 -1679.354)" fill="#a0b2d8" fill-rule="evenodd"/>
        <path id="Path_2857" data-name="Path 2857" d="M3607.833,2559.143h-52.186a1.913,1.913,0,0,1-1.907-1.907v-53.488a1.913,1.913,0,0,1,1.907-1.907h52.186a1.912,1.912,0,0,1,1.907,1.907v53.488a1.912,1.912,0,0,1-1.907,1.907" transform="translate(-3390.644 -2372.785)" fill="#fff" fill-rule="evenodd"/>
        <path id="Path_2858" data-name="Path 2858" d="M4191.221,2559.143h-18.884a1.913,1.913,0,0,1-1.908-1.907v-53.488a1.913,1.913,0,0,1,1.908-1.907h18.884a1.913,1.913,0,0,1,1.907,1.907v53.488a1.913,1.913,0,0,1-1.907,1.907" transform="translate(-3963.24 -2372.785)" fill="#b6b6d3" fill-rule="evenodd"/>
        <path id="Path_2859" data-name="Path 2859" d="M4234.458,2566.89h-13.546a1.044,1.044,0,0,0-1.042,1.042v.94a1.044,1.044,0,0,0,1.042,1.042h13.546a1.044,1.044,0,0,0,1.041-1.042v-.94a1.043,1.043,0,0,0-1.041-1.042" transform="translate(-4009.146 -2433.184)" fill="#141c3c" fill-rule="evenodd"/>
        <path id="Path_2860" data-name="Path 2860" d="M4406.042,2567.932a1.044,1.044,0,0,0-1.041-1.042h1.349a1.044,1.044,0,0,1,1.041,1.042v.94a1.045,1.045,0,0,1-1.041,1.042H4405c.066,0,1.04-.469,1.04-1.042Z" transform="translate(-4181.039 -2433.184)" fill="#33385c" fill-rule="evenodd"/>
        <path id="Path_2861" data-name="Path 2861" d="M4234.458,2631.93h-13.546a1.044,1.044,0,0,0-1.042,1.042v.942a1.044,1.044,0,0,0,1.042,1.041h13.546a1.043,1.043,0,0,0,1.041-1.041v-.942a1.045,1.045,0,0,0-1.041-1.042" transform="translate(-4009.146 -2493.574)" fill="#141c3c" fill-rule="evenodd"/>
        <path id="Path_2862" data-name="Path 2862" d="M4406.042,2632.971a1.045,1.045,0,0,0-1.041-1.042h1.349a1.045,1.045,0,0,1,1.041,1.042v.941a1.044,1.044,0,0,1-1.041,1.042H4405c.066,0,1.04-.468,1.04-1.042Z" transform="translate(-4181.039 -2493.574)" fill="#33385c" fill-rule="evenodd"/>
        <path id="Path_2863" data-name="Path 2863" d="M4234.458,2697h-13.546a1.043,1.043,0,0,0-1.042,1.04v.942a1.044,1.044,0,0,0,1.042,1.042h13.546a1.045,1.045,0,0,0,1.041-1.042v-.942a1.043,1.043,0,0,0-1.041-1.04" transform="translate(-4009.146 -2553.992)" fill="#141c3c" fill-rule="evenodd"/>
        <path id="Path_2864" data-name="Path 2864" d="M4406.042,2698.04A1.044,1.044,0,0,0,4405,2697h1.349a1.044,1.044,0,0,1,1.041,1.04v.941a1.045,1.045,0,0,1-1.041,1.042H4405c.066,0,1.04-.47,1.04-1.042Z" transform="translate(-4181.039 -2553.992)" fill="#33385c" fill-rule="evenodd"/>
        <path id="Path_2865" data-name="Path 2865" d="M4234.458,2762h-13.546a1.044,1.044,0,0,0-1.042,1.042v.941a1.044,1.044,0,0,0,1.042,1.041h13.546a1.043,1.043,0,0,0,1.041-1.041v-.941a1.044,1.044,0,0,0-1.041-1.042" transform="translate(-4009.146 -2614.344)" fill="#141c3c" fill-rule="evenodd"/>
        <path id="Path_2866" data-name="Path 2866" d="M4406.042,2763.045A1.045,1.045,0,0,0,4405,2762h1.349a1.044,1.044,0,0,1,1.041,1.042v.94a1.044,1.044,0,0,1-1.041,1.042H4405c.066,0,1.04-.468,1.04-1.042Z" transform="translate(-4181.039 -2614.344)" fill="#33385c" fill-rule="evenodd"/>
        <path id="Path_2867" data-name="Path 2867" d="M4226.79,2957H4218.9a4.255,4.255,0,0,0-4.243,4.244v7.983a4.255,4.255,0,0,0,4.243,4.24h7.887a4.255,4.255,0,0,0,4.243-4.243v-7.979a4.255,4.255,0,0,0-4.243-4.244" transform="translate(-4004.308 -2795.402)" fill="#141c3c" fill-rule="evenodd"/>
        <path id="Path_2868" data-name="Path 2868" d="M4366.434,2961.264a4.256,4.256,0,0,0-4.244-4.244h1.582a4.255,4.255,0,0,1,4.243,4.244v7.981a4.254,4.254,0,0,1-4.243,4.242h-1.582a4.256,4.256,0,0,0,4.244-4.242Z" transform="translate(-4141.29 -2795.42)" fill="#33385c" fill-rule="evenodd"/>
        <path id="Path_2869" data-name="Path 2869" d="M4222.709,2957h-.951v4.777a3.492,3.492,0,0,0-2.98,2.981H4214v.95h4.776a3.491,3.491,0,0,0,2.98,2.98v4.776h.951v-4.776a3.49,3.49,0,0,0,2.981-2.98h4.776v-.95h-4.776a3.491,3.491,0,0,0-2.981-2.981Zm-.476,10.778a2.545,2.545,0,1,1,2.545-2.544,2.546,2.546,0,0,1-2.545,2.544" transform="translate(-4003.695 -2795.402)" fill="#494f79" fill-rule="evenodd"/>
        <path id="Path_2870" data-name="Path 2870" d="M4220.828,2894.75h-5.077a1.044,1.044,0,0,0-1.042,1.042v.94a1.044,1.044,0,0,0,1.042,1.042h5.077a1.044,1.044,0,0,0,1.042-1.042v-.94a1.044,1.044,0,0,0-1.042-1.042" transform="translate(-4004.354 -2737.603)" fill="#141c3c" fill-rule="evenodd"/>
        <path id="Path_2871" data-name="Path 2871" d="M4282.49,2895.792a1.045,1.045,0,0,0-1.041-1.042h1.348a1.045,1.045,0,0,1,1.042,1.042v.94a1.045,1.045,0,0,1-1.042,1.042h-1.348c.066,0,1.041-.469,1.041-1.042Z" transform="translate(-4066.322 -2737.603)" fill="#33385c" fill-rule="evenodd"/>
        <path id="Path_2872" data-name="Path 2872" d="M4220.828,2831.64h-5.077a1.044,1.044,0,0,0-1.042,1.041v.942a1.044,1.044,0,0,0,1.042,1.041h5.077a1.044,1.044,0,0,0,1.042-1.041v-.942a1.044,1.044,0,0,0-1.042-1.041" transform="translate(-4004.354 -2679.005)" fill="#141c3c" fill-rule="evenodd"/>
        <path id="Path_2873" data-name="Path 2873" d="M4282.49,2832.681a1.045,1.045,0,0,0-1.041-1.041h1.348a1.044,1.044,0,0,1,1.042,1.041v.942a1.045,1.045,0,0,1-1.042,1.042h-1.348c.066,0,1.041-.469,1.041-1.042Z" transform="translate(-4066.322 -2679.005)" fill="#33385c" fill-rule="evenodd"/>
        <path id="Path_2874" data-name="Path 2874" d="M3640.086,2583.3h-12.663a6.833,6.833,0,0,0-6.813,6.813v12.812a6.833,6.833,0,0,0,6.813,6.813h12.663a6.834,6.834,0,0,0,6.814-6.813v-12.813a6.834,6.834,0,0,0-6.814-6.813" transform="translate(-3452.732 -2448.421)" fill="#b6b6d3" fill-rule="evenodd"/>
        <path id="Path_2875" data-name="Path 2875" d="M3651.119,2595.72h-11.813a6.374,6.374,0,0,0-6.356,6.355v11.952a6.374,6.374,0,0,0,6.356,6.355h11.813a6.373,6.373,0,0,0,6.355-6.355v-11.952a6.374,6.374,0,0,0-6.355-6.355" transform="translate(-3464.19 -2459.953)" fill="#dcdcee" fill-rule="evenodd"/>
        <path id="Path_2876" data-name="Path 2876" d="M3661.35,2646.733a6.332,6.332,0,0,0,4.325,1.709h11.813a6.373,6.373,0,0,0,6.355-6.355v-9.449h-5.469v-6.7H3665.35v14.2h-4Z" transform="translate(-3490.56 -2488.013)" fill="#cecde2" fill-rule="evenodd"/>
        <path id="Path_2877" data-name="Path 2877" d="M3909.557,3019.34h-.779a.709.709,0,0,0,1.263.027,4.164,4.164,0,0,0-.484-.027m-1.352,0h-1.276a.709.709,0,0,0,1.276,0m-1.849,0h-1.278a.71.71,0,0,0,1.278,0m-1.849,0h-1.277a.71.71,0,0,0,1.277,0m-1.85,0h-.778a4.163,4.163,0,0,0-.484.027.708.708,0,0,0,1.262-.027m-1.97.176a4.075,4.075,0,0,0-.572.222h.056a.709.709,0,0,0,.518-.225m-1.735,1.045a4.2,4.2,0,0,0-.744,1.02.675.675,0,0,0,.111.009.71.71,0,0,0,.633-1.029m-.973,1.549a4.089,4.089,0,0,0-.219,1.053.708.708,0,1,0,.219-1.053m-.231,2.053V3025a.709.709,0,1,0,0-.834m0,1.849v.835a.708.708,0,1,0,0-.835m0,1.85v.834a.708.708,0,1,0,0-.834m0,1.85v.835a.709.709,0,1,0,0-.835m.011,1.834a4.077,4.077,0,0,0,.22,1.053.709.709,0,1,0-.22-1.053m.45,1.583a4.167,4.167,0,0,0,.743,1.018.708.708,0,0,0-.633-1.028.7.7,0,0,0-.111.009m1.9,1.846a4.167,4.167,0,0,0,.572.222.709.709,0,0,0-.518-.224h-.056m1.282.369a4.113,4.113,0,0,0,.484.029h.778a.709.709,0,0,0-1.262-.029m1.835.029h1.277a.709.709,0,0,0-1.277,0m1.849,0h1.278a.709.709,0,0,0-1.278,0m1.851,0h1.279a.709.709,0,0,0-1.276,0m1.849,0h.779a4.113,4.113,0,0,0,.484-.029.71.71,0,0,0-1.263.029m1.971-.177a4.148,4.148,0,0,0,.572-.222h-.055a.706.706,0,0,0-.518.224m1.734-1.047a4.183,4.183,0,0,0,.746-1.018.73.73,0,0,0-.113-.009.708.708,0,0,0-.633,1.028m.973-1.548a4.078,4.078,0,0,0,.22-1.053.707.707,0,1,0-.22,1.053m.232-2.053v-.835a.708.708,0,1,0,0,.835m0-1.85v-.834a.708.708,0,1,0,0,.834m0-1.849v-.835a.709.709,0,1,0,0,.835m0-1.85v-.834a.709.709,0,1,0,0,.834m-.011-1.835a4.037,4.037,0,0,0-.221-1.053.688.688,0,0,0-.34-.087.709.709,0,1,0,.561,1.14m-.448-1.583a4.213,4.213,0,0,0-.746-1.02.71.71,0,0,0,.633,1.029.8.8,0,0,0,.113-.009m-1.907-1.843a4.067,4.067,0,0,0-.572-.222.706.706,0,0,0,.518.225h.055m-11.154,14.8a.708.708,0,1,1,.707-.708.709.709,0,0,1-.707.708m1.85,0a.708.708,0,1,1,.708-.708.709.709,0,0,1-.708.708m1.849,0a.708.708,0,1,1,.708-.708.708.708,0,0,1-.708.708m1.85,0a.708.708,0,1,1,.5-.207.709.709,0,0,1-.5.207m1.85,0a.708.708,0,1,1,.71-.711.709.709,0,0,1-.71.711m1.849,0a.708.708,0,1,1,.709-.708.708.708,0,0,1-.709.708m1.85,0a.708.708,0,1,1,.5-.208.708.708,0,0,1-.5.208m-11.1-3.266a.708.708,0,1,0,.707.708.708.708,0,0,0-.707-.708m1.85,0a.708.708,0,1,0,.708.708.708.708,0,0,0-.708-.708m1.849,0a.708.708,0,1,0,.708.708.708.708,0,0,0-.708-.708m1.85,0a.708.708,0,1,0,.708.708.708.708,0,0,0-.708-.708m1.85,0a.708.708,0,1,0,.709.708.708.708,0,0,0-.709-.708m1.849,0a.708.708,0,1,0,.709.708.708.708,0,0,0-.709-.708m1.851,0a.708.708,0,1,0,.708.708.708.708,0,0,0-.708-.708m-11.1-.433a.709.709,0,1,1,.707-.708.709.709,0,0,1-.707.708m1.85,0a.709.709,0,1,1,.708-.708.709.709,0,0,1-.708.708m1.849,0a.709.709,0,1,1,.708-.708.709.709,0,0,1-.708.708m1.85,0a.708.708,0,1,1,.5-.207.709.709,0,0,1-.5.207m1.85,0a.708.708,0,1,1,.5-.207.709.709,0,0,1-.5.207m1.849,0a.709.709,0,1,1,.709-.708.709.709,0,0,1-.709.708m1.85,0a.709.709,0,1,1,.708-.708.709.709,0,0,1-.708.708m-11.1-3.267a.708.708,0,1,0,.707.709.708.708,0,0,0-.707-.709m1.85,0a.708.708,0,1,0,.708.709.708.708,0,0,0-.708-.709m1.849,0a.708.708,0,1,0,.708.709.709.709,0,0,0-.708-.709m1.85,0a.708.708,0,1,0,.708.709.709.709,0,0,0-.708-.709m1.85,0a.708.708,0,1,0,.709.709.708.708,0,0,0-.709-.709m1.849,0a.708.708,0,1,0,.709.709.708.708,0,0,0-.709-.709m1.85,0a.708.708,0,1,0,.708.709.708.708,0,0,0-.708-.709m-11.1-.433a.709.709,0,1,1,.707-.708.709.709,0,0,1-.707.708m1.85,0a.709.709,0,1,1,.708-.708.709.709,0,0,1-.708.708m1.849,0a.709.709,0,1,1,.708-.708.708.708,0,0,1-.708.708m1.85,0a.709.709,0,1,1,.709-.708.708.708,0,0,1-.709.708m1.85,0a.708.708,0,1,1,.5-.207.709.709,0,0,1-.5.207m1.849,0a.708.708,0,1,1,.5-.207.708.708,0,0,1-.5.207m1.85,0a.707.707,0,1,1,.5-.207.709.709,0,0,1-.5.207m-11.1-3.267a.708.708,0,1,0,.707.709.709.709,0,0,0-.707-.709m1.85,0a.708.708,0,1,0,.708.709.708.708,0,0,0-.708-.709m1.849,0a.708.708,0,1,0,.708.709.708.708,0,0,0-.708-.709m1.85,0a.708.708,0,1,0,.708.709.709.709,0,0,0-.708-.709m1.85,0a.708.708,0,1,0,.709.709.708.708,0,0,0-.709-.709m1.849,0a.708.708,0,1,0,.709.709.709.709,0,0,0-.709-.709m1.851,0a.708.708,0,1,0,.708.709.708.708,0,0,0-.708-.709m-11.1-.429a.709.709,0,1,1,.707-.709.708.708,0,0,1-.707.709m1.85,0a.709.709,0,1,1,.708-.709.708.708,0,0,1-.708.709m1.849,0a.709.709,0,1,1,.708-.709.709.709,0,0,1-.708.709m1.85,0a.709.709,0,1,1,.708-.709.709.709,0,0,1-.708.709m1.85,0a.709.709,0,1,1,.709-.709.708.708,0,0,1-.709.709m1.849,0a.709.709,0,1,1,.709-.709.709.709,0,0,1-.709.709m1.85,0a.709.709,0,1,1,.708-.709.709.709,0,0,1-.708.709m-11.095-3.271a.709.709,0,1,0,.707.709.709.709,0,0,0-.707-.709m1.85,0a.709.709,0,1,0,.708.709.708.708,0,0,0-.708-.709m1.849,0a.709.709,0,1,0,.708.709.709.709,0,0,0-.708-.709m1.85,0a.708.708,0,1,0,.5.207.709.709,0,0,0-.5-.207m1.85,0a.709.709,0,1,0,.709.709.708.708,0,0,0-.709-.709m1.849,0a.709.709,0,1,0,.709.709.709.709,0,0,0-.709-.709m1.851,0a.709.709,0,1,0,.708.709.709.709,0,0,0-.708-.709" transform="translate(-3710.057 -2853.284)" fill="#b6b6d3" fill-rule="evenodd"/>
        <path id="Path_2878" data-name="Path 2878" d="M3611.4,3229.27h-17.027a.51.51,0,0,0,0,1.021H3611.4a.51.51,0,0,0,0-1.021" transform="translate(-3427.895 -3048.204)" fill="#b6b6d3" fill-rule="evenodd"/>
        <path id="Path_2879" data-name="Path 2879" d="M3611.4,3199.29h-17.027a.51.51,0,0,0,0,1.021H3611.4a.51.51,0,0,0,0-1.021" transform="translate(-3427.895 -3020.368)" fill="#b6b6d3" fill-rule="evenodd"/>
        <path id="Path_2880" data-name="Path 2880" d="M3611.4,3169.29h-17.027a.51.51,0,0,0,0,1.021H3611.4a.51.51,0,0,0,0-1.021" transform="translate(-3427.9 -2992.513)" fill="#b6b6d3" fill-rule="evenodd"/>
        <path id="Path_2881" data-name="Path 2881" d="M3648.863,3139.29h-14.142a.51.51,0,1,0,0,1.021h14.142a.511.511,0,0,0,0-1.021" transform="translate(-3465.36 -2964.658)" fill="#b6b6d3" fill-rule="evenodd"/>
        <path id="Path_2882" data-name="Path 2882" d="M3611.637,3109.31H3594.61a.511.511,0,0,0,0,1.022h17.026a.511.511,0,0,0,0-1.022" transform="translate(-3428.135 -2936.822)" fill="#b6b6d3" fill-rule="evenodd"/>
        <path id="Path_2883" data-name="Path 2883" d="M3611.4,3079.32h-17.027a.51.51,0,0,0,0,1.021H3611.4a.511.511,0,0,0,0-1.021" transform="translate(-3427.895 -2908.976)" fill="#b6b6d3" fill-rule="evenodd"/>
        <path id="Path_2884" data-name="Path 2884" d="M3608.235,3049.33h-13.865a.511.511,0,0,0,0,1.021h13.863a.51.51,0,0,0,0-1.021" transform="translate(-3427.895 -2881.13)" fill="#b6b6d3" fill-rule="evenodd"/>
        <path id="Path_2885" data-name="Path 2885" d="M3611.4,3019.34h-17.027a.51.51,0,0,0,0,1.021H3611.4a.51.51,0,0,0,0-1.021" transform="translate(-3427.9 -2853.284)" fill="#b6b6d3" fill-rule="evenodd"/>
        <path id="Path_2886" data-name="Path 2886" d="M3595.119,3139.29h-.748a.51.51,0,0,0,0,1.021h.746a.511.511,0,0,0,0-1.021" transform="translate(-3427.895 -2964.658)" fill="#b6b6d3" fill-rule="evenodd"/>
        <path id="Path_2887" data-name="Path 2887" d="M3816.782,3049.33h-1.211a.511.511,0,0,0,0,1.021h1.212a.51.51,0,0,0,0-1.021" transform="translate(-3633.279 -2881.13)" fill="#b6b6d3" fill-rule="evenodd"/>
        <path id="Path_2888" data-name="Path 2888" d="M3641.589,2595.72h-2.237a6.345,6.345,0,0,0-4.75,2.145l20.849,20.847a6.339,6.339,0,0,0,2.073-4.684v-2.376Zm-8.13,3.979,20.179,20.179a6.3,6.3,0,0,1-2.475.5h-.674L3633,2602.89v-.815a6.307,6.307,0,0,1,.463-2.376" transform="translate(-3464.237 -2459.953)" fill="#ededf6" fill-rule="evenodd"/>
      </g>
    </g>
    <g id="Group_325" data-name="Group 325" transform="translate(-4237.265 6028.447)">
      <g id="Group_81" data-name="Group 81" transform="translate(9.922 6.124)">
        <g id="Group_79" data-name="Group 79">
          <g id="Group_78" data-name="Group 78">
            <path id="Path_2891" data-name="Path 2891" d="M17.191,18.921A4.211,4.211,0,1,1,21.4,14.711,4.215,4.215,0,0,1,17.191,18.921Zm0-7.655a3.445,3.445,0,1,0,3.445,3.445A3.449,3.449,0,0,0,17.191,11.266Z" transform="translate(-12.98 -10.5)"/>
          </g>
        </g>
        <g id="Group_80" data-name="Group 80" transform="translate(3.828 1.531)">
          <path id="Path_2892" data-name="Path 2892" d="M19.894,17.093a.384.384,0,0,1-.271-.112L18.092,15.45a.386.386,0,0,1-.112-.271v-2.3a.383.383,0,0,1,.766,0v2.138l1.419,1.419a.382.382,0,0,1-.271.653Z" transform="translate(-17.98 -12.5)"/>
        </g>
      </g>
      <g id="Group_86" data-name="Group 86">
        <g id="Group_82" data-name="Group 82">
          <path id="Path_2893" data-name="Path 2893" d="M15.652,6.741a.381.381,0,0,1-.283-.126,9.866,9.866,0,0,0-7.342-3.35A9.866,9.866,0,0,0,.686,6.616.383.383,0,1,1,.119,6.1,10.621,10.621,0,0,1,8.028,2.5a10.62,10.62,0,0,1,7.908,3.6.382.382,0,0,1-.283.64Z" transform="translate(-0.02 -2.5)"/>
        </g>
        <g id="Group_83" data-name="Group 83" transform="translate(1.967 3.062)">
          <path id="Path_2894" data-name="Path 2894" d="M14.288,9.844A.381.381,0,0,1,14,9.718,7.224,7.224,0,0,0,8.63,7.266,7.222,7.222,0,0,0,3.256,9.719.383.383,0,1,1,2.689,9.2,7.976,7.976,0,0,1,8.63,6.5a7.976,7.976,0,0,1,5.941,2.7.382.382,0,0,1-.283.64Z" transform="translate(-2.59 -6.5)"/>
        </g>
        <g id="Group_84" data-name="Group 84" transform="translate(3.936 6.124)">
          <path id="Path_2895" data-name="Path 2895" d="M5.544,12.947a.383.383,0,0,1-.283-.641A5.3,5.3,0,0,1,12.6,11.7a.382.382,0,1,1-.511.569,4.522,4.522,0,0,0-6.26.553A.382.382,0,0,1,5.544,12.947Z" transform="translate(-5.161 -10.499)"/>
        </g>
        <g id="Group_85" data-name="Group 85" transform="translate(6.094 9.187)">
          <path id="Path_2896" data-name="Path 2896" d="M9.894,18.328a1.914,1.914,0,1,1,1.914-1.914A1.916,1.916,0,0,1,9.894,18.328Zm0-3.062a1.148,1.148,0,1,0,1.148,1.148A1.15,1.15,0,0,0,9.894,15.266Z" transform="translate(-7.98 -14.5)"/>
        </g>
      </g>
    </g>
  </g>
</svg>
