<svg xmlns="http://www.w3.org/2000/svg" width="355.762" height="199.64" viewBox="0 0 355.762 199.64">
  <g id="_4.svg" data-name="4.svg" transform="translate(584.847 326.2) rotate(180)">
    <path id="Path_2608" data-name="Path 2608" d="M2150.681,1357.521c48.594-18.04,97.984-2.091,131.482,32.648,16.754,17.375,42.713,11.371,69.145,5.369s53.3-12,71.932,5.337c25.444,23.669,13.79,84.522-21.1,110.88-47.417,35.819-191.63,17.644-222.83,11.548-35.94-7.025-62.215-28.335-72.89-54.2-25.722-62.322,22.781-103.609,44.256-111.582" transform="translate(-1870 -1212.453)" fill="#e1e8f5"/>
    <path id="Path_2609" data-name="Path 2609" d="M3320.259,1310.607a15.647,15.647,0,1,1,15.647-15.647,15.647,15.647,0,0,1-15.647,15.647m39.642-11.168a40.19,40.19,0,0,0,.252-4.479c0-.8-.027-1.592-.074-2.379l-7.4-2.394a32.553,32.553,0,0,0-2.621-8.868l4.912-6.039a39.967,39.967,0,0,0-3.886-5.65l-7.4,2.415a32.888,32.888,0,0,0-7.329-5.634l.421-7.777a39.59,39.59,0,0,0-6.461-2.29l-4.571,6.308a32.9,32.9,0,0,0-9.24-.242l-4.232-6.541a39.568,39.568,0,0,0-6.574,1.943l.009,7.789a32.872,32.872,0,0,0-7.615,5.239l-7.261-2.807a40.043,40.043,0,0,0-4.183,5.438l4.583,6.291a32.559,32.559,0,0,0-3.089,8.716l-7.516,2a40.151,40.151,0,0,0-.253,4.48c0,.8.027,1.592.073,2.379l7.4,2.394a32.552,32.552,0,0,0,2.621,8.868l-4.912,6.039a39.976,39.976,0,0,0,3.887,5.65l7.4-2.415a32.887,32.887,0,0,0,7.328,5.633l-.421,7.777a39.6,39.6,0,0,0,6.461,2.29l4.571-6.308a32.929,32.929,0,0,0,9.24.242l4.232,6.541a39.57,39.57,0,0,0,6.574-1.943l-.01-7.788a32.838,32.838,0,0,0,7.615-5.239l7.261,2.807a40.05,40.05,0,0,0,4.183-5.438l-4.581-6.291a32.569,32.569,0,0,0,3.089-8.716l7.516-2" transform="translate(-2913.119 -1129.31)" fill="#6eaedf"/>
    <path id="Path_2610" data-name="Path 2610" d="M3799.457,1536.963a.585.585,0,0,1-.449-.959,26.471,26.471,0,0,0,4.664-25.5.585.585,0,1,1,1.105-.381,27.638,27.638,0,0,1-4.87,26.625.585.585,0,0,1-.45.211Z" transform="translate(-3370.976 -1353.467)" fill="#fff"/>
    <path id="Path_2611" data-name="Path 2611" d="M3709.881,1374.827a.585.585,0,0,1-.4-.159,26.287,26.287,0,0,0-9.1-5.606.585.585,0,1,1,.4-1.1,27.445,27.445,0,0,1,9.5,5.848.585.585,0,0,1-.4,1.011Z" transform="translate(-3283.666 -1228.261)" fill="#fff"/>
    <path id="Path_2612" data-name="Path 2612" d="M3565.111,1356.14a.585.585,0,0,1-.143-1.152,27.7,27.7,0,0,1,6.774-.837.585.585,0,0,1,0,1.17,26.548,26.548,0,0,0-6.489.8A.585.585,0,0,1,3565.111,1356.14Z" transform="translate(-3164.039 -1216.095)" fill="#fff"/>
    <path id="Path_2613" data-name="Path 2613" d="M2441.807,2255.315a10.838,10.838,0,1,1,10.838-10.838,10.838,10.838,0,0,1-10.838,10.838m27.457-7.736a27.784,27.784,0,0,0,.174-3.1q0-.831-.05-1.648l-5.126-1.658a22.536,22.536,0,0,0-1.815-6.143l3.4-4.183a27.672,27.672,0,0,0-2.69-3.914l-5.126,1.673a22.779,22.779,0,0,0-5.075-3.9l.291-5.387a27.436,27.436,0,0,0-4.475-1.586l-3.166,4.369a22.818,22.818,0,0,0-6.4-.167l-2.931-4.531a27.555,27.555,0,0,0-4.553,1.346l.007,5.394a22.778,22.778,0,0,0-5.275,3.626l-5.029-1.94a27.725,27.725,0,0,0-2.9,3.766l3.174,4.357a22.534,22.534,0,0,0-2.139,6.038l-5.206,1.385a27.917,27.917,0,0,0-.174,3.1c0,.553.019,1.1.05,1.648l5.126,1.659a22.519,22.519,0,0,0,1.815,6.142l-3.4,4.183a27.7,27.7,0,0,0,2.69,3.915l5.126-1.674a22.776,22.776,0,0,0,5.075,3.9l-.291,5.386a27.329,27.329,0,0,0,4.475,1.586l3.166-4.369a22.789,22.789,0,0,0,3.794.318,23.064,23.064,0,0,0,2.606-.15l2.931,4.53a27.43,27.43,0,0,0,4.553-1.345l-.007-5.4a22.726,22.726,0,0,0,5.275-3.626l5.029,1.94a27.753,27.753,0,0,0,2.9-3.765l-3.174-4.358a22.537,22.537,0,0,0,2.14-6.036l5.206-1.386" transform="translate(-2148.24 -1978.377)" fill="#6eaedf"/>
    <path id="Path_2614" data-name="Path 2614" d="M2772.356,2411a.585.585,0,0,1-.449-.959,18.154,18.154,0,0,0,3.2-17.486.585.585,0,0,1,1.106-.381,19.325,19.325,0,0,1-3.4,18.616.585.585,0,0,1-.45.21Z" transform="translate(-2464.008 -2132.358)" fill="#fff"/>
    <path id="Path_2615" data-name="Path 2615" d="M2710.3,2298.627a.585.585,0,0,1-.4-.159,18.024,18.024,0,0,0-6.24-3.844.585.585,0,1,1,.4-1.1,19.179,19.179,0,0,1,6.642,4.094.585.585,0,0,1-.4,1.012Z" transform="translate(-2403.521 -2045.566)" fill="#fff"/>
    <path id="Path_2616" data-name="Path 2616" d="M2610.03,2285.687a.585.585,0,0,1-.143-1.152,19.39,19.39,0,0,1,4.737-.585.585.585,0,1,1,0,1.17,18.186,18.186,0,0,0-4.444.55.563.563,0,0,1-.144.019Z" transform="translate(-2320.667 -2037.143)" fill="#fff"/>
    <path id="Path_2617" data-name="Path 2617" d="M3868.576,1739.694a6.914,6.914,0,1,1,6.914-6.914A6.914,6.914,0,0,1,3868.576,1739.694Zm16.593-7.232q0-.454-.024-.9l3.841-3.084a20.548,20.548,0,0,0-1.4-4.412l-4.959-.374a16.507,16.507,0,0,0-4.294-4.556l-.02-4.939a20.483,20.483,0,0,0-4.4-1.7l-3.392,3.648a16.491,16.491,0,0,0-6.095.478l-3.886-3.078a20.612,20.612,0,0,0-4.111,2.384l.736,4.9a16.454,16.454,0,0,0-3.462,5.053l-4.835,1.121a20.606,20.606,0,0,0-.715,4.661l4.259,2.462a16.321,16.321,0,0,0,1.822,6.018l-2.123,4.461a20.749,20.749,0,0,0,3.134,3.409l4.562-1.788a16.32,16.32,0,0,0,6.021,2.388l2.152,4.432c.256.009.513.016.773.016a20.725,20.725,0,0,0,3.775-.351l1.455-4.691a16.4,16.4,0,0,0,5.666-3.289l4.8,1.078a20.678,20.678,0,0,0,2.557-3.777l-2.782-4.086a16.372,16.372,0,0,0,.941-5.489Z" transform="translate(-3414.499 -1532.531)" fill="#6eaedf"/>
    <path id="Path_2618" data-name="Path 2618" d="M4634.724,1434.935h-5.942a4.166,4.166,0,0,1-4.162-4.161v-5.942a4.166,4.166,0,0,1,4.162-4.161h5.942a4.166,4.166,0,0,1,4.161,4.161v5.942a4.166,4.166,0,0,1-4.161,4.161m-5.942-12.632a2.526,2.526,0,0,0-2.524,2.524v5.942a2.526,2.526,0,0,0,2.524,2.523h5.942a2.527,2.527,0,0,0,2.524-2.523v-5.942a2.527,2.527,0,0,0-2.524-2.524h-5.941" transform="translate(-4100.143 -1274.835)" fill="#b5d1ee"/>
    <path id="Path_2619" data-name="Path 2619" d="M4395.663,1434.935h-5.943a4.166,4.166,0,0,1-4.16-4.161v-5.942a4.166,4.166,0,0,1,4.16-4.161h5.943a4.167,4.167,0,0,1,4.161,4.161v5.942a4.167,4.167,0,0,1-4.161,4.161m-5.943-12.632a2.527,2.527,0,0,0-2.523,2.524v5.942a2.527,2.527,0,0,0,2.523,2.523h5.943a2.526,2.526,0,0,0,2.523-2.523v-5.942a2.527,2.527,0,0,0-2.523-2.524h-5.943" transform="translate(-3889.043 -1274.835)" fill="#b5d1ee"/>
    <path id="Path_2620" data-name="Path 2620" d="M4412.1,1418.349h-.034a.7.7,0,0,1-.523-.274l-4.27-5.571a.7.7,0,1,1,1.113-.854l3.766,4.912,9.833-10.535a.7.7,0,1,1,1.026.958l-10.4,11.141a.7.7,0,0,1-.514.223Z" transform="translate(-3908.077 -1261.708)" fill="#f37068"/>
    <path id="Path_2621" data-name="Path 2621" d="M2607.662,2831.271c-24.328-1.189-107.074.826-132.241,1.611s-54.379-1.036-69.554-3.715-102.888.228-98.908,7.431,39.081,3.221,78.885,6.116,129.325-.362,149.518,0,38.715-.723,64.733-2.171,21.668-8.583,7.568-9.272Z" transform="translate(-2053.445 -2517.723)" fill="#cee1f4"/>
    <path id="Path_2622" data-name="Path 2622" d="M499.249,520.944H448.4V437.6h50.849v83.344" transform="translate(-193.663 -274.66)" fill="#1f489e"/>
    <path id="Path_2623" data-name="Path 2623" d="M517.685,530.589H471.17V452.12h46.515v78.469" transform="translate(-213.77 -287.482)" fill="#fff"/>
    <path id="Path_2624" data-name="Path 2624" d="M2460.12,1812.9c1.754-3.766,4.714-4.973,9.579-4.973,5.793,0,8.8,2.1,9.655,5.155C2468.98,1813.227,2460.12,1812.9,2460.12,1812.9Z" transform="translate(-2188.808 -1616.8)" fill="#9cd5e7"/>
    <path id="Path_2625" data-name="Path 2625" d="M2469.521,1650.071c-2.456.689-2.345,2.067-3.158,3.345s-2.594,2.132-2.807,2.985.548,2.629-.351,3.626-1.208,1.492-.853,2.488,1.137,2.558,1.208,2.771a3.986,3.986,0,0,0,2.274,1.919,25.717,25.717,0,0,1,4.619,1.065c1.137.5,4.8-.637,6.822-.566s3.411-1.423,3.269-2.419,1.5-2.985,1.492-4.69c0-1.832-2.132-3.2-2.7-4.406s.072-3.34-2.061-4.6a12.23,12.23,0,0,0-3.34-1.082,7.908,7.908,0,0,0-4.406-.432Z" transform="translate(-2190.652 -1477.257)" fill="#3a384d"/>
    <path id="Path_2626" data-name="Path 2626" d="M2527.7,1741.363c-.554.819-.961.853-1.564,0a7.821,7.821,0,0,1-1.421-3v-7.8a1.426,1.426,0,0,1,1.421-1.421h1.564a1.426,1.426,0,0,1,1.421,1.421v7.8a7.905,7.905,0,0,1-1.421,3Z" transform="translate(-2245.852 -1547.225)" fill="#f09959"/>
    <path id="Path_2627" data-name="Path 2627" d="M2527.7,1729.14h-1.564a1.425,1.425,0,0,0-1.421,1.421v6.96c1.754.559,3.358-.552,4.406-1.8v-5.157a1.426,1.426,0,0,0-1.421-1.421Z" transform="translate(-2245.852 -1547.225)" fill="#e3853e"/>
    <path id="Path_2628" data-name="Path 2628" d="M2512.651,1681.209c0,3.557-2.116,6.439-4.725,6.439s-4.725-2.883-4.725-6.439,2.116-6.439,4.725-6.439S2512.651,1677.653,2512.651,1681.209Z" transform="translate(-2226.849 -1499.214)" fill="#f09959"/>
    <path id="Path_2629" data-name="Path 2629" d="M2506.6,1666.805c-2.985,5.046-7.391,4.547-7.391,4.547s.106-6.68,3.606-7.035,5.561,1.053,6.271,3.367a5.719,5.719,0,0,1,0,3.846,6.134,6.134,0,0,1-1.705-2.31,16.615,16.615,0,0,1-.781-2.417Z" transform="translate(-2223.325 -1489.936)" fill="#3a384d"/>
    <path id="Path_2630" data-name="Path 2630" d="M2488.394,1719.675c.442.936.3,1.924-.323,2.222s-1.482-.221-1.924-1.151-.3-1.924.323-2.222S2487.952,1718.745,2488.394,1719.675Z" transform="translate(-2211.564 -1537.776)" fill="#f09959"/>
    <path id="Path_2631" data-name="Path 2631" d="M2576.067,1719.671c-.442.936-.3,1.924.323,2.222s1.482-.221,1.924-1.151.3-1.924-.323-2.222S2576.509,1718.735,2576.067,1719.671Z" transform="translate(-2290.967 -1537.772)" fill="#f09959"/>
    <path id="Path_2632" data-name="Path 2632" d="M2531.924,1759.68a2.046,2.046,0,0,1-3.553,0Z" transform="translate(-2249.075 -1574.193)" fill="#fff"/>
    <path id="Path_2633" data-name="Path 2633" d="M2491.113,1916.836h-11.93a1.388,1.388,0,0,1,0-2.776h11.93a1.388,1.388,0,0,1,0,2.776Z" transform="translate(-2204.415 -1710.516)" fill="#9bbae2"/>
    <path id="Path_2634" data-name="Path 2634" d="M2476.767,1953.285h-16.3a1.388,1.388,0,1,1,0-2.775h16.3a1.388,1.388,0,1,1,0,2.775Z" transform="translate(-2187.885 -1742.703)" fill="#9bbae2"/>
    <path id="Path_2635" data-name="Path 2635" d="M2404.68,2093.171h-39.659a.805.805,0,1,1,0-1.611h39.66a.805.805,0,0,1,0,1.611" transform="translate(-2104.12 -1867.256)" fill="#9bbae2"/>
    <path id="Path_2636" data-name="Path 2636" d="M2404.68,2125.171h-39.659a.805.805,0,1,1,0-1.611h39.66a.805.805,0,0,1,0,1.611" transform="translate(-2104.12 -1895.513)" fill="#9bbae2"/>
    <path id="Path_2637" data-name="Path 2637" d="M2404.909,2157.171h-39.659a.806.806,0,0,1,0-1.611h39.659a.806.806,0,0,1,0,1.611" transform="translate(-2104.349 -1923.77)" fill="#9bbae2"/>
    <path id="Path_2638" data-name="Path 2638" d="M2407.677,1609.878a.271.271,0,0,0-.268.268v26.327a.272.272,0,0,0,.268.268h28.566a.272.272,0,0,0,.268-.268v-26.326a.271.271,0,0,0-.268-.268Zm28.566,28.032h-28.566a1.44,1.44,0,0,1-1.437-1.437v-26.326a1.44,1.44,0,0,1,1.438-1.437h28.566a1.44,1.44,0,0,1,1.432,1.438v26.327a1.44,1.44,0,0,1-1.437,1.438Z" transform="translate(-2141.229 -1440.881)" fill="#9bbae2"/>
    <path id="Path_2639" data-name="Path 2639" d="M563.566,875.88l.827,1.676,1.849.269-1.338,1.3.316,1.841-1.654-.869-1.654.869.316-1.841-1.338-1.3,1.849-.269.827-1.676Z" transform="translate(-292.996 -661.678)" fill="#9bbae2"/>
    <path id="Path_2640" data-name="Path 2640" d="M621.476,875.88l.827,1.676,1.849.269-1.338,1.3.316,1.841-1.654-.869-1.654.869.316-1.841-1.338-1.3,1.849-.269.827-1.676Z" transform="translate(-344.133 -661.678)" fill="#9bbae2"/>
    <path id="Path_2641" data-name="Path 2641" d="M679.4,875.88l.827,1.676,1.849.269-1.338,1.3.316,1.841L679.4,880.1l-1.654.869.316-1.841-1.338-1.3,1.849-.269.827-1.676Z" transform="translate(-395.279 -661.678)" fill="#9bbae2"/>
    <path id="Path_2642" data-name="Path 2642" d="M737.306,875.88l.827,1.676,1.849.269-1.338,1.3.316,1.841-1.654-.869-1.654.869.316-1.841-1.338-1.3,1.849-.269.827-1.676Z" transform="translate(-446.415 -661.678)" fill="#9bbae2"/>
    <path id="Path_2643" data-name="Path 2643" d="M1468.468,520.944H1417.62V437.6h50.848v83.344" transform="translate(-1049.521 -274.66)" fill="#1f489e"/>
    <path id="Path_2644" data-name="Path 2644" d="M1486.895,530.589H1440.38V452.12h46.515v78.469" transform="translate(-1069.619 -287.482)" fill="#fff"/>
    <path id="Path_2645" data-name="Path 2645" d="M3448.23,1726.19c0,3.733,2.247,9.756,7.549,9.563s6.475-5.935,6.681-7.555S3448.23,1726.19,3448.23,1726.19Z" transform="translate(-3061.346 -1544.62)" fill="#7a4f35"/>
    <path id="Path_2646" data-name="Path 2646" d="M3429.34,1812.9c1.754-3.766,4.714-4.973,9.579-4.973,5.793,0,8.8,2.1,9.654,5.155C3438.2,1813.227,3429.34,1812.9,3429.34,1812.9Z" transform="translate(-3044.665 -1616.8)" fill="#d54b41"/>
    <path id="Path_2647" data-name="Path 2647" d="M3496.925,1741.363c-.555.819-.961.853-1.564,0a7.821,7.821,0,0,1-1.421-3v-7.8a1.426,1.426,0,0,1,1.421-1.421h1.564a1.426,1.426,0,0,1,1.421,1.421v7.8a7.9,7.9,0,0,1-1.421,3Z" transform="translate(-3101.709 -1547.225)" fill="#f09959"/>
    <path id="Path_2648" data-name="Path 2648" d="M3496.925,1729.14h-1.564a1.426,1.426,0,0,0-1.421,1.421v6.96c1.754.559,3.358-.552,4.406-1.8v-5.157a1.426,1.426,0,0,0-1.421-1.421Z" transform="translate(-3101.709 -1547.225)" fill="#e3853e"/>
    <path id="Path_2649" data-name="Path 2649" d="M3481.822,1681.209c0,3.557-2.116,6.439-4.727,6.439s-4.725-2.883-4.725-6.439,2.116-6.439,4.725-6.439S3481.822,1677.653,3481.822,1681.209Z" transform="translate(-3082.662 -1499.214)" fill="#f09959"/>
    <path id="Path_2650" data-name="Path 2650" d="M3458.26,1658.162c-.561,1.98-1.792,1.957-3.509,2.607a4.645,4.645,0,0,0-3.1,2.573c-.717,1.615.325,6.325.325,6.325s-4.345-3.252-3.844-8.364,3.518-7.094,6.355-7.094a4.553,4.553,0,0,1,3.917,1.729,4.246,4.246,0,0,1,2.94,1.7c1.922,2.276,1.33,7.8,0,9.783a7.913,7.913,0,0,1-2.187,2.512c.035-.089,1.241-4.636.592-7.448a18.019,18.019,0,0,0-1.494-4.328Z" transform="translate(-3061.227 -1481.059)" fill="#7a4f35"/>
    <path id="Path_2651" data-name="Path 2651" d="M3501.173,1759.68a2.046,2.046,0,0,1-3.553,0Z" transform="translate(-3104.959 -1574.193)" fill="#fff"/>
    <path id="Path_2652" data-name="Path 2652" d="M3460.323,1916.836h-11.93a1.388,1.388,0,0,1,0-2.776h11.93a1.388,1.388,0,1,1,0,2.776Z" transform="translate(-3060.264 -1710.516)" fill="#9bbae2"/>
    <path id="Path_2653" data-name="Path 2653" d="M3445.986,1953.285h-16.3a1.388,1.388,0,1,1,0-2.775h16.3a1.388,1.388,0,1,1,0,2.775Z" transform="translate(-3043.742 -1742.703)" fill="#9bbae2"/>
    <path id="Path_2654" data-name="Path 2654" d="M3373.9,2093.171H3334.24a.805.805,0,0,1,0-1.611H3373.9a.805.805,0,0,1,0,1.611" transform="translate(-2959.978 -1867.256)" fill="#9bbae2"/>
    <path id="Path_2655" data-name="Path 2655" d="M3373.9,2125.171H3334.24a.805.805,0,0,1,0-1.611H3373.9a.805.805,0,0,1,0,1.611" transform="translate(-2959.978 -1895.513)" fill="#9bbae2"/>
    <path id="Path_2656" data-name="Path 2656" d="M3373.662,2157.166H3334a.806.806,0,1,1,0-1.611h39.658a.806.806,0,1,1,0,1.611" transform="translate(-2959.74 -1923.766)" fill="#9bbae2"/>
    <path id="Path_2657" data-name="Path 2657" d="M3376.887,1609.878a.271.271,0,0,0-.268.268v26.327a.272.272,0,0,0,.268.268h28.569a.271.271,0,0,0,.268-.268v-26.326a.271.271,0,0,0-.268-.268Zm28.569,28.032h-28.569a1.439,1.439,0,0,1-1.437-1.437v-26.326a1.438,1.438,0,0,1,1.437-1.437h28.569a1.439,1.439,0,0,1,1.438,1.438v26.327a1.439,1.439,0,0,1-1.437,1.438Z" transform="translate(-2997.078 -1440.881)" fill="#9bbae2"/>
    <path id="Path_2658" data-name="Path 2658" d="M1532.776,875.88l.827,1.676,1.849.269-1.338,1.3.316,1.841-1.654-.869-1.654.869.316-1.841-1.338-1.3,1.849-.269.827-1.676Z" transform="translate(-1148.845 -661.678)" fill="#9bbae2"/>
    <path id="Path_2659" data-name="Path 2659" d="M1590.7,875.88l.827,1.676,1.849.269-1.338,1.3.316,1.841-1.654-.869-1.655.869.317-1.841-1.338-1.3,1.849-.269.827-1.676Z" transform="translate(-1199.991 -661.678)" fill="#9bbae2"/>
    <path id="Path_2660" data-name="Path 2660" d="M1648.606,875.88l.827,1.676,1.849.269-1.338,1.3.316,1.841-1.654-.869-1.654.869.316-1.841-1.338-1.3,1.849-.269.827-1.676Z" transform="translate(-1251.128 -661.678)" fill="#9bbae2"/>
    <path id="Path_2661" data-name="Path 2661" d="M1706.517,875.88l.827,1.676,1.849.269-1.338,1.3.316,1.841-1.654-.869-1.655.869.316-1.841-1.338-1.3,1.849-.269.828-1.676Z" transform="translate(-1302.264 -661.678)" fill="#9bbae2"/>
    <path id="Path_2662" data-name="Path 2662" d="M2815.663,1651.751H2753.15v-82.2h61.739q-.071,1.192-.074,2.4c0,.8.027,1.592.073,2.379l.779.251v77.167" transform="translate(-2447.564 -1406.301)" fill="#d7e7f7"/>
    <path id="Path_2663" data-name="Path 2663" d="M3281.192,1574.593l-.779-.251c-.045-.787-.072-1.58-.072-2.379s.026-1.607.073-2.4h.778v5.029" transform="translate(-2913.093 -1406.31)" fill="#a2c3e7"/>
    <path id="Path_2664" data-name="Path 2664" d="M792.409,523.275H780.39l.163-2.367h10.185V441.644h-4.766l.095-1.4h6.343v83.035" transform="translate(-486.823 -276.991)" fill="#9bbae2"/>
    <path id="Path_2665" data-name="Path 2665" d="M2661.965,1660.707H2651.78l.67-9.81h6.16a.815.815,0,0,0,0-1.627h-6.049l.147-2.155h5.9a.814.814,0,0,0,0-1.628h-5.791l.147-2.155h5.643a.814.814,0,0,0,0-1.628h-5.532l4.121-60.3h4.766V1660.7" transform="translate(-2358.051 -1416.774)" fill="#ecf1fa"/>
    <path id="Path_2666" data-name="Path 2666" d="M2667.573,2093.171h-5.643l.117-1.611h5.532a.805.805,0,1,1,0,1.611" transform="translate(-2367.013 -1867.256)" fill="#9bbae2"/>
    <path id="Path_2667" data-name="Path 2667" d="M2665.622,2125.171h-5.9l.117-1.611h5.791a.805.805,0,1,1,0,1.611" transform="translate(-2365.062 -1895.513)" fill="#9bbae2"/>
    <path id="Path_2668" data-name="Path 2668" d="M2663.67,2157.171h-6.16l.117-1.611h6.049a.806.806,0,0,1,0,1.611" transform="translate(-2363.11 -1923.77)" fill="#9bbae2"/>
    <path id="Path_2669" data-name="Path 2669" d="M1423.336,522.441h-5.716v-82.2h8.61l-.049,1.39h-5.9V520.1h3.136l-.082,2.343" transform="translate(-1049.521 -276.991)" fill="#9bbae2"/>
    <path id="Path_2670" data-name="Path 2670" d="M3313.516,1659.89h-3.136v-78.47h5.9l-2.105,59.667h-.3a.805.805,0,0,0,0,1.611h.234l-.076,2.132h-.164a.805.805,0,0,0,0,1.611h.108l-.075,2.132h-.033a.8.8,0,1,0-.024,1.609l-.342,9.708" transform="translate(-2939.619 -1416.783)" fill="#ecf1fa"/>
    <path id="Path_2671" data-name="Path 2671" d="M3334.524,2093.171h-.234a.805.805,0,1,1,0-1.611h.3l-.056,1.611" transform="translate(-2960.022 -1867.256)" fill="#9bbae2"/>
    <path id="Path_2672" data-name="Path 2672" d="M3334.348,2125.171h-.108a.805.805,0,0,1,0-1.611h.164l-.056,1.611" transform="translate(-2959.978 -1895.513)" fill="#9bbae2"/>
    <path id="Path_2673" data-name="Path 2673" d="M3334.127,2157.169a.8.8,0,1,1,.025-1.609h.033l-.057,1.609" transform="translate(-2959.888 -1923.77)" fill="#9bbae2"/>
    <path id="Path_2674" data-name="Path 2674" d="M921.912,421.085H852.46V307.25h69.452V421.085Z" transform="translate(-550.464 -159.556)" fill="#1f489e"/>
    <path id="Path_2675" data-name="Path 2675" d="M947.09,434.257H883.56V327.08h63.53V434.257Z" transform="translate(-577.926 -177.067)" fill="#fff"/>
    <path id="Path_2676" data-name="Path 2676" d="M2964.794,1550.791c-.044-.133-1.157-6.517-1.287-9s3.991-2.838,3.991-2.838,3.369-1.818,5.807-.887a9.851,9.851,0,0,1,5.206,4.445c1.112,1.947-.974,8.031-.974,8.031l-12.74.246Z" transform="translate(-2633.315 -1378.266)" fill="#2e2d3d"/>
    <path id="Path_2677" data-name="Path 2677" d="M2909.166,1752.493c-.015-.105.285-2.618.3-2.719.562-5.29,7.083-6.784,13.59-6.784,7.646,0,12.833,1.4,13.661,6.9.025.161.468,2.68.443,2.849-14.171.194-27.99-.248-27.99-.248Z" transform="translate(-2585.331 -1559.455)" fill="#d5e1e8"/>
    <path id="Path_2678" data-name="Path 2678" d="M3001.582,1652.122c-.758,1.118-1.313,1.17-2.136,0-.654-.926-2.836-3.041-2.836-4.107l.9-10.644a1.946,1.946,0,0,1,1.94-1.942h2.136a1.947,1.947,0,0,1,1.942,1.942l.417,10.644C3003.94,1649.083,3002.262,1651.118,3001.582,1652.122Z" transform="translate(-2662.549 -1464.476)" fill="#f09959"/>
    <path id="Path_2679" data-name="Path 2679" d="M3002.474,1635.41h-2.136a1.946,1.946,0,0,0-1.94,1.942l-.778,9.445c2.4.764,5.635-.788,7.067-2.5l-.271-6.948A1.947,1.947,0,0,0,3002.474,1635.41Z" transform="translate(-2663.44 -1464.458)" fill="#e3853e"/>
    <path id="Path_2680" data-name="Path 2680" d="M2967.34,1748.16l3.424,6.328s1.832-1.508,2.009-1.212a27.021,27.021,0,0,1-.325,4.026,36.2,36.2,0,0,0,4.256-.117c.178-.172-.828-4.052-.414-4.052s1.658,1.123,1.658,1.123l3.823-6.091-.84-.2-6.262,3.365-6.7-3.3-.63.131Z" transform="translate(-2636.702 -1563.844)" fill="#bdccd4"/>
    <path id="Path_2681" data-name="Path 2681" d="M1130.81,638.243l2.543,1.705-.788,4.529,3.428-.192-.856-4.118,2.108-1.924-.991-.933H1131.8l-.99.933Z" transform="translate(-796.257 -451.011)" fill="#d54b41"/>
    <path id="Path_2682" data-name="Path 2682" d="M2974.384,1720.926l-3.144,2.992s3.2,5.7,3.38,5.7,2.719-3.142,2.719-3.142l1.627-.028,2.573,2.7,2.986-5.284-3.041-3.228s-2.6,5.029-3.074,5.146-.476.178-.859-.117-3.158-4.729-3.158-4.729Z" transform="translate(-2640.146 -1539.711)" fill="#d5e1e8"/>
    <path id="Path_2683" data-name="Path 2683" d="M2987.719,1569.934c0,4.857-2.89,8.794-6.455,8.794s-6.454-3.938-6.454-8.794,2.889-8.794,6.454-8.794S2987.719,1565.078,2987.719,1569.934Z" transform="translate(-2643.298 -1398.875)" fill="#f09959"/>
    <path id="Path_2684" data-name="Path 2684" d="M2954.65,1622.439c.6,1.271.406,2.628-.442,3.03s-2.023-.3-2.627-1.573-.406-2.628.441-3.03S2954.046,1621.167,2954.65,1622.439Z" transform="translate(-2622.477 -1451.515)" fill="#f09959"/>
    <path id="Path_2685" data-name="Path 2685" d="M3074.361,1622.439c-.6,1.271-.406,2.628.441,3.03s2.023-.3,2.627-1.573.407-2.628-.441-3.03S3074.965,1621.167,3074.361,1622.439Z" transform="translate(-2730.897 -1451.515)" fill="#f09959"/>
    <path id="Path_2686" data-name="Path 2686" d="M3011.237,1667.18s-1.287,2.076-2.863,2.076-2.863-2.076-2.863-2.076Z" transform="translate(-2670.408 -1492.512)" fill="#fff"/>
    <path id="Path_2687" data-name="Path 2687" d="M2977.2,1557.884c2.66-1.862,3.86-1.552,5.848,1.508s4.389,3.112,4.389,3.112l.31-3.172s-2.972-5.749-6.962-5a10.525,10.525,0,0,0-6.258,4.345s-.194,6.731.363,6.96.62-2.172,1.019-2.66-.4-2.793.134-3.86,1.153-1.241,1.153-1.241Z" transform="translate(-2643.024 -1392.807)" fill="#2e2d3d"/>
    <path id="Path_2688" data-name="Path 2688" d="M3070.77,1614.75c.929,1.016.577,5.054,1.064,5.01s.666-3.86.532-4.256S3070.77,1614.75,3070.77,1614.75Z" transform="translate(-2728.034 -1446.214)" fill="#2e2d3d"/>
    <path id="Path_2689" data-name="Path 2689" d="M2914.6,1914.511H2884.95a1.9,1.9,0,0,1,0-3.791H2914.6a1.9,1.9,0,1,1,0,3.791Z" transform="translate(-2562.275 -1707.567)" fill="#9bbae2"/>
    <path id="Path_2690" data-name="Path 2690" d="M2938.769,1964.291H2916.5a1.9,1.9,0,0,1,0-3.791h22.269a1.9,1.9,0,0,1,0,3.791Z" transform="translate(-2590.135 -1751.525)" fill="#9bbae2"/>
    <path id="Path_2691" data-name="Path 2691" d="M2840.308,2155.4H2786.14a1.1,1.1,0,1,1,0-2.2h54.169a1.1,1.1,0,0,1,0,2.2Z" transform="translate(-2475.724 -1921.686)" fill="#9bbae2"/>
    <path id="Path_2692" data-name="Path 2692" d="M2840.308,2199.069H2786.14a1.1,1.1,0,1,1,0-2.2h54.169a1.1,1.1,0,0,1,0,2.2Z" transform="translate(-2475.724 -1960.248)" fill="#9bbae2"/>
    <path id="Path_2693" data-name="Path 2693" d="M2840.3,2242.77h-54.169a1.1,1.1,0,0,1,0-2.2H2840.3a1.1,1.1,0,0,1,0,2.2Z" transform="translate(-2475.72 -1998.837)" fill="#9bbae2"/>
    <path id="Path_2694" data-name="Path 2694" d="M2845.964,1496.6a.585.585,0,0,0-.585.585v35.959a.585.585,0,0,0,.585.585h39.016a.585.585,0,0,0,.585-.585v-35.964a.585.585,0,0,0-.585-.585Zm39.016,38.288h-39.016a1.755,1.755,0,0,1-1.754-1.754v-35.953a1.755,1.755,0,0,1,1.754-1.754h39.016a1.754,1.754,0,0,1,1.754,1.755v35.959a1.754,1.754,0,0,1-1.754,1.754Z" transform="translate(-2527.973 -1340.85)" fill="#9bbae2"/>
    <path id="Path_2695" data-name="Path 2695" d="M969.575,905.88l1.13,2.289,2.525.367-1.827,1.781.432,2.516-2.26-1.188-2.259,1.188.43-2.516-1.827-1.781,2.525-.367,1.13-2.289Z" transform="translate(-650.653 -688.169)" fill="#9bbae2"/>
    <path id="Path_2696" data-name="Path 2696" d="M1048.675,905.88l1.13,2.289,2.526.367-1.828,1.781.432,2.516-2.26-1.188-2.259,1.188.432-2.516-1.828-1.781,2.526-.367,1.129-2.289Z" transform="translate(-720.501 -688.169)" fill="#9bbae2"/>
    <path id="Path_2697" data-name="Path 2697" d="M1127.775,905.88l1.13,2.289,2.526.367-1.828,1.781.432,2.516-2.26-1.188-2.259,1.188.432-2.516-1.828-1.781,2.526-.367,1.129-2.289Z" transform="translate(-790.35 -688.169)" fill="#9bbae2"/>
    <path id="Path_2698" data-name="Path 2698" d="M1206.876,905.88l1.129,2.289,2.526.367-1.828,1.781.432,2.516-2.259-1.188-2.26,1.188.432-2.516-1.828-1.781,2.526-.367,1.13-2.289Z" transform="translate(-860.198 -688.169)" fill="#9bbae2"/>
    <path id="Path_2699" data-name="Path 2699" d="M1287.236,905.88l1.129,2.289,2.526.367-1.828,1.781.432,2.516-2.259-1.188-2.26,1.188.432-2.516-1.828-1.781,2.526-.367,1.13-2.289Z" transform="translate(-931.159 -688.169)" fill="#9bbae2"/>
    <path id="Path_2700" data-name="Path 2700" d="M3589.715,2352.923H3500.59a.97.97,0,0,1-.969-.97V2350.5a.97.97,0,0,1,.969-.969h89.125a.97.97,0,0,1,.969.969v1.454A.97.97,0,0,1,3589.715,2352.923Z" transform="translate(-3106.725 -2095.053)" fill="#8e9dcb"/>
    <path id="Path_2701" data-name="Path 2701" d="M4374.305,1913.768c1.207,4.257-1.742,8.645-4.991,9.566s-5.567-1.971-6.774-6.228.447-8.455,3.7-9.377,6.861,1.782,8.07,6.04Z" transform="translate(-3868.368 -1704.767)" fill="#f09959"/>
    <path id="Path_2702" data-name="Path 2702" d="M4281.99,2665.965s8.326,12.932,9.452,13.494,3.936.7,2.881,2.807-1.477,10.4-2.457,10.824-9.417,1.4-8.153,0,2.043-.7,2.682-3.233,1.536-7.309.34-8.294-8.5-9.84-8.5-9.84l3.763-5.763Z" transform="translate(-3794.268 -2374.473)" fill="#f09959"/>
    <path id="Path_2703" data-name="Path 2703" d="M3824.16,2713.5s-10.121,16.682-12,18.182-8.06,3.743-3,4.123,7.5-1.687,10.683-2.624,7.123-1.5,5.624-3.937-.877-7.756,2.355-11.129S3824.16,2713.5,3824.16,2713.5Z" transform="translate(-3378.345 -2416.452)" fill="#f09959"/>
    <path id="Path_2704" data-name="Path 2704" d="M3971.271,2382.675s-25.056-.655-34.989,7.5c-5.811,8.81-19.867,34.8-20.961,37.662.75.75,4.968,2.105,6.842,1.916,5.529-6.593,12.838-12.293,15.744-17.465,3.582-6.372,4.686-9.559,10.5-10.121s18.931-2.437,22.867-2.437,0-17.057,0-17.057Z" transform="translate(-3473.804 -2124.311)" fill="#6791c8"/>
    <path id="Path_2705" data-name="Path 2705" d="M2629.471,1478.615h-1.313l-9.418-39.295h2.889l7.842,39.295Z" transform="translate(-2110.156 -1159.216)" fill="#2d5b9b"/>
    <path id="Path_2706" data-name="Path 2706" d="M2374.11,1468.133h1.313l10.807-40.683h-2.889l-9.232,40.683Z" transform="translate(-1894.138 -1148.735)" fill="#2d5b9b"/>
    <path id="Path_2707" data-name="Path 2707" d="M4143.783,2368.1l-14.566,2.515s-19.358.178-28.207,1.826c-8.05,1.5-9.24,10.644,0,23.242,5.247,7.156,9.684,12.866,18.755,19.3,2.308-1.693,3.19-2.339,3.828-6.412-.656-.9-2.356-6.535-2.883-7.637-5.019-10.489-11.716-14.3-11.813-15.336,1.125-1.827,29.789,9.525,35.487,2.848,5.442-6.377-.6-20.342-.6-20.342Z" transform="translate(-3632.043 -2111.451)" fill="#77a0d4"/>
    <path id="Path_2708" data-name="Path 2708" d="M4380.564,2084.89a15.244,15.244,0,0,0-11.4,2.836c-3.193,3.255-6.806,8.623-6.585,17.478.281,11.246-1.741,11.968.368,15.06,8.794,3.626,23.834,19.234,20.293,2.508-2.565-12.113,5.625-21.141-.981-34.576C4381.723,2087.1,4381.05,2086.041,4380.564,2084.89Z" transform="translate(-3868.219 -1861.219)" fill="#f99f3b"/>
    <path id="Path_2709" data-name="Path 2709" d="M4362.583,2130.634c-.17,5.863-1,7.59-.366,9.428,3.585.366,10.143,1.8,11.781,4.094,1.872,2.624,3.75,3,2.875,1.062s-3.187-4.686.375-14.12,5.248-15.807,1.754-22.368Z" transform="translate(-3868.224 -1882.418)" fill="#f6852a"/>
    <path id="Path_2710" data-name="Path 2710" d="M4434.838,1996.476a45.773,45.773,0,0,1-2.942-11.876l-6.186,1.827s3.509,7.872.142,10.683a31.947,31.947,0,0,0-2.412,2.2A15.239,15.239,0,0,1,4434.838,1996.476Z" transform="translate(-3922.493 -1772.806)" fill="#f09959"/>
    <path id="Path_2711" data-name="Path 2711" d="M4449.275,1988.588c-.366-.326-.825-.733-1.307-1.158l-5.048,1.49-.011.027a20.836,20.836,0,0,1,1.576,6.162,17.765,17.765,0,0,0,5.029-5c-.1-.577-.183-1.09-.246-1.521Z" transform="translate(-3939.686 -1775.305)" fill="#e3853e"/>
    <path id="Path_2712" data-name="Path 2712" d="M4200.063,2099.823c-6.371,2.222-5.665,8.938-11.527,18.831-3.041,5.123-5.848,5.046-5.848,5.046a135.6,135.6,0,0,1-15.722-1c-5.39-.658-5.731.946-1.988,2.285,7.56,2.7,15.405,5.614,21.73,4.913s17.146-16.843,17.7-21.044c.772-5.811-1.139-10.16-4.347-9.038Z" transform="translate(-3692.066 -1874.394)" fill="#f09959"/>
    <path id="Path_2713" data-name="Path 2713" d="M4286.6,2262.161c-.4,0-.8,0-1.218-.015a60.449,60.449,0,0,1-11.565-1.423c-3.316-.674-5.146-1.044-7.268-.029a1.637,1.637,0,1,1-1.412-2.955c3.114-1.489,5.723-.959,9.331-.226a57.616,57.616,0,0,0,10.995,1.359c5.488.137,8.833-.677,10.526-2.558,1.511-1.676,1.954-4.491,1.392-8.86-.192-1.5-.385-2.739-.555-3.836a26.571,26.571,0,0,1-.4-8.3c.364-2.936,1.335-6.846,3.588-14.43a1.638,1.638,0,1,1,3.139.936c-4.2,14.131-3.984,15.507-3.088,21.3.173,1.117.369,2.383.566,3.919.692,5.387-.008,9.033-2.208,11.471-2.264,2.511-5.939,3.654-11.825,3.654Z" transform="translate(-3781.879 -1980.42)" fill="#2d5b9b"/>
    <path id="Path_2714" data-name="Path 2714" d="M3824.854,2833.71c-6.716,3.284-10.331,5.167-12.484,4.987-.508-.042-.929-.094-1.287-.15-2.4,1.416-6.219,3.089-1.917,3.407,5.061.375,7.5-1.687,10.683-2.624s7.123-1.5,5.624-3.937a5.1,5.1,0,0,1-.623-1.684Z" transform="translate(-3378.345 -2522.602)" fill="#d54b41"/>
    <path id="Path_2715" data-name="Path 2715" d="M4332.588,2783.722c-.165,5.317-.9,10.586-4.147,11.579a5.46,5.46,0,0,1-2.339.209c-.512.633-1.136.64-1.974,1.57-1.264,1.4,7.17.422,8.153,0s1.4-8.715,2.457-10.824c.866-1.732-.876-2.136-2.149-2.537Z" transform="translate(-3834.682 -2478.459)" fill="#d54b41"/>
    <path id="Path_2716" data-name="Path 2716" d="M3937.727,2188.678h-21.335a1.637,1.637,0,0,1-1.485-.947l-8.621-18.556a1.637,1.637,0,1,1,2.97-1.38l8.181,17.609h20.291a1.637,1.637,0,0,1,0,3.275Z" transform="translate(-3465.691 -1933.737)" fill="#77a0d4"/>
    <path id="Path_2717" data-name="Path 2717" d="M4071.181,2281.116c-4.311-.062-8.587-2.632-10.711-2.257s-9.059,5.186-8.187,5.373,6.372-2.662,6.559-2.705a9.248,9.248,0,0,0,4.311,2.715c2.936.741.021-2.2,9.123.549,5.919,1.787-1.1-3.674-1.1-3.674Z" transform="translate(-3594.68 -2032.615)" fill="#f09959"/>
    <path id="Path_2718" data-name="Path 2718" d="M4405.294,2042.482l.634,5.1s-5.578.332-8.354,1.894-6.873,6.075-6.873,6.075l3.348-5.763.482-3.687,10.76-3.626Z" transform="translate(-3893.583 -1823.916)" fill="#f99f3b"/>
    <path id="Path_2719" data-name="Path 2719" d="M4249.816,2095.148c-4.143-.777-6.06,2.937-8.746,9s-7.273,13.421-8.187,14.37-15.37,0-15.37,0-.437,4.186,0,4.687,2.937.436,2.937.436,1,.8,1.937,1.43,8.872,1.819,12.558,1.632,7.06-.5,7.559-1.062,10.56-16.058,11.184-21.618-1.754-8.475-3.874-8.872Z" transform="translate(-3740.479 -1870.334)" fill="#f99f3b"/>
    <path id="Path_2720" data-name="Path 2720" d="M4340.288,1856.671c-7.836.374-6.607,12.164-6.607,12.164s2.035.628,6.3-.075a23.573,23.573,0,0,1-.187-4.5,29.386,29.386,0,0,0,1.124,4.218c.9.413,1.921.047,3.655-.372a7.721,7.721,0,0,0,5.129,5.87c1.9.6,3.918,1.312,6.167.187s1.013-12.62-.183-14.933c-1.792-3.47-4.772-6.576-9.926-4.936A37.823,37.823,0,0,0,4340.288,1856.671Z" transform="translate(-3843.17 -1657.345)" fill="#303c60"/>
    <path id="Path_2721" data-name="Path 2721" d="M4507.22,1991.278l3.2,4.678s-3.551,8.872,6.777,12.892c8.088,3.149,7.135,8.7,3.481,14.269s2.186,10.449,2.186,10.449.891-6.179,8.75-7.345c10.715-1.591,13.749-15.976,5.745-23.17-6.623-5.952-8.638-1.023-13.121-6.365s-12.945-1.733-12.945-1.733l-3.1-4.523-.975.843Z" transform="translate(-3996.474 -1777.954)" fill="#303c60"/>
    <path id="Path_2722" data-name="Path 2722" d="M4569.826,2036.348a.285.285,0,0,1-.25-.422c2.69-4.924.5-10.889-.609-12.506-.117-.171-.234-.345-.351-.529-1.086-1.7-2.438-3.806-9.654-5.105a11.469,11.469,0,0,1-4.633-2.439c-3.077-2.259-6.564-4.819-14.141-1.331a.285.285,0,0,1-.234-.518c7.881-3.626,11.513-.963,14.716,1.39a11.107,11.107,0,0,0,4.4,2.339c7.458,1.343,8.889,3.57,10.032,5.358.117.18.225.351.337.515,1.158,1.692,3.461,7.943.64,13.1A.286.286,0,0,1,4569.826,2036.348Z" transform="translate(-4025.25 -1796.754)" fill="#303c60"/>
    <path id="Path_2723" data-name="Path 2723" d="M4429.374,1954.4a11.269,11.269,0,0,1-1.664-.135c-2.742-.411-6.42-1.969-6.708-10.718a.285.285,0,1,1,.57-.019c.117,3.607.834,6.275,2.126,7.931a5.973,5.973,0,0,0,4.094,2.242c2.538.38,4.22-.089,5-1.393a.286.286,0,1,1,.489.292c-.715,1.2-2.026,1.8-3.908,1.8Z" transform="translate(-3920.339 -1736.281)" fill="#303c60"/>
    <path id="Path_2724" data-name="Path 2724" d="M1711.33,1302.59h2.105l8.191-62.61h-4.632l-5.664,62.61Z" transform="translate(-1308.878 -983.192)" fill="#8e9dcb"/>
    <path id="Path_2725" data-name="Path 2725" d="M2244.446,1302.59h-2.105l-8.191-62.61h4.633l5.663,62.61Z" transform="translate(-1770.548 -983.192)" fill="#8e9dcb"/>
    <path id="Path_2726" data-name="Path 2726" d="M4869.441,2452.74c3.643,3.327,2.059,6.652-.634,12.83s-3.167,28.983-3.167,28.983l2.223-.317s-.317-23.44,2.69-29.775,4.276-9.5,6.969-7.445-8.078-4.276-8.078-4.276Z" transform="translate(-4312.972 -2186.191)" fill="#73b56f"/>
    <path id="Path_2727" data-name="Path 2727" d="M4879.462,2338.3c.442-1.971,3.069-4.1,6.583-5.912-.523,2.906-2.2,7.66-.468,8.635,2.339,1.315.228-5.322,1.13-8.97a43.442,43.442,0,0,1,10.922-3.583l-.014.04c-2.06,5.227-4.752,7.286-3.644,8.077.834.6,3.551-5.441,7.135-8.538,2.69-.144,4.971.221,6.316,1.286,2.083,1.649,3.481,3.113,1.386,8.134a9.409,9.409,0,0,1-4.549,1.649c-4.751.475-6.968.634-3.642,2.222,1.628.775,4.358-.044,6.572-.543-.718,1.323-1.6,2.82-2.674,4.526a16.8,16.8,0,0,1-2.222,2.833,7.026,7.026,0,0,1-3.573-.006c-2.222-.951-7.919-3.96-9.345-2.69-1.395,1.241,10.561,2.026,9.731,5.178-5.794,3.338-12.425,1.754-13.6-1.316-1.574-4.117-7.386-5.085-6.054-11.019Z" transform="translate(-4324.998 -2076.062)" fill="#9dd198"/>
    <path id="Path_2728" data-name="Path 2728" d="M4848.1,2593.164c-6.335-4.752-12.829-.317-16.155,4.751s-.951,16.472-.951,16.472,1.267,0,1.267-.475-3.484-13.462,4.752-19.323c5.152-3.666,8.87-1.9,9.344-.158s-2.058,4.912-2.058,4.912l3.8-6.177Z" transform="translate(-4281.658 -2308.401)" fill="#73b56f"/>
    <path id="Path_2729" data-name="Path 2729" d="M4856.764,2524.965c6.334,0,8.394,9.825,6.651,15.522s-4.118,16.313-4.118,16.313l-1.583-1.588s6.019-14.888,4.593-21.54-4.913-7.761-5.543-7.761,0-.95,0-.95Z" transform="translate(-4304.887 -2249.964)" fill="#9dd198"/>
    <path id="Path_2730" data-name="Path 2730" d="M4892.291,2647.4a4.6,4.6,0,0,1,1.667-1.4,12.232,12.232,0,0,1-.329,1.358c-.794,2.6-1.719,6.214-2.491,9.383-.07-.406-.178-1.032-.345-2-.04-.234-.07-.476-.092-.738a61.214,61.214,0,0,0,1.591-6.606Z" transform="translate(-4335.101 -2356.847)" fill="#73b56f"/>
    <path id="Path_2731" data-name="Path 2731" d="M4894.422,2591.027c12.037-5.068,5.7-12.024,16.307-7.431a1.847,1.847,0,1,1-.789,2.534c-3.168-.475-2.06,2.059,3.167,2.69a11.722,11.722,0,0,1,2.449.517c2.49,4.782,3.612,11.075-1.657,13.262a11.932,11.932,0,0,1-3.751.77c-1.626-1.287.4-8.772-2.105-7.738-2.407.991.753,6.411.321,7.776a34.746,34.746,0,0,1-7.52-1.053,3.741,3.741,0,0,1-1.989-2.288c-.792-3.325,4.434-5.38,4.593-8.235.145-2.621-1.916,5.766-7.377,7-4.938-2.307-7.271-5.437-1.645-7.806Z" transform="translate(-4335.5 -2300.417)" fill="#9dd198"/>
    <path id="Path_2732" data-name="Path 2732" d="M4699.893,2495.23c1.267-2.69-2.06-3.325-1.9-1.267.141,1.825.156,6.26-1.716,7.467a29.479,29.479,0,0,1-10.936-3.626,1.334,1.334,0,0,1,.139-.826c1.426-2.852,10.612-5.227,7.76-6.177-2.27-.757-6.249,3.71-9.455,5.965-1.925-1.461-3.215-3.2-3.215-5.146,0-2.632,3.2-5.614,7.333-7.034,1.861.188,3.588,1.206,6.289,2.736,3.988,2.26,3.065-1.394-.7-3.563a11.359,11.359,0,0,1,8.9,4.882s-.227,1.42,1.276,3.618c4.1,5.993-.632,9.493-6.29,9.265a37.253,37.253,0,0,1,2.525-6.283Z" transform="translate(-4149.548 -2213.583)" fill="#9dd198"/>
    <path id="Path_2733" data-name="Path 2733" d="M4969.488,2605.865c3.1,2.393,6.538,5.192,10.76,7.093s3.379,8.095,3.379,8.095.633-5.35-2.886-7.18-5.848-4.012-8.518-4.435a39.6,39.6,0,0,1-4.153-.844s.845-1.689.351-2.323,1.065-.4,1.065-.4Z" transform="translate(-4403.422 -2321.371)" fill="#73b56f"/>
    <path id="Path_2734" data-name="Path 2734" d="M4939.058,2365.87c-11.334,3.027-19.641,10.279-21.189,12.038s-1.549,2.253-1.549,2.253l1.2,2.253.563-.281s-.915-1.9,1.479-4.365a43.3,43.3,0,0,1,12.6-9.081c3.45-1.478,6.9-2.816,6.9-2.816Z" transform="translate(-4357.724 -2109.482)" fill="#73b56f"/>
    <path id="Path_2735" data-name="Path 2735" d="M4801.146,2785.034h4.328a5.576,5.576,0,0,0,5.576-5.575v-9.949H4795.57v9.949A5.575,5.575,0,0,0,4801.146,2785.034Z" transform="translate(-4251.098 -2465.911)" fill="#77a0d4"/>
    <path id="Path_2736" data-name="Path 2736" d="M2941.051,1656.5H2925.57v-1.09h15.481v1.09Z" transform="translate(-2381.098 -1350.032)" fill="#fff"/>
    <path id="Path_2737" data-name="Path 2737" d="M2941.051,1673.041H2925.57v-.641h15.481v.641Z" transform="translate(-2381.098 -1365.035)" fill="#fff"/>
    <path id="Path_2738" data-name="Path 2738" d="M2418.222,2742.164h3.694a1.412,1.412,0,0,0,1.413-1.412v-3.041a1.412,1.412,0,0,0-1.413-1.412h-3.694a1.412,1.412,0,0,0-1.412,1.412v3.041A1.412,1.412,0,0,0,2418.222,2742.164Z" transform="translate(-2150.563 -2436.585)" fill="#a3c5e8"/>
    <path id="Path_2739" data-name="Path 2739" d="M2316.892,2742.164h3.694a1.412,1.412,0,0,0,1.412-1.412v-3.041a1.412,1.412,0,0,0-1.412-1.412h-3.694a1.412,1.412,0,0,0-1.412,1.412v3.041A1.412,1.412,0,0,0,2316.892,2742.164Z" transform="translate(-2061.085 -2436.585)" fill="#a3c5e8"/>
    <path id="Path_2740" data-name="Path 2740" d="M2215.562,2742.164h3.694a1.412,1.412,0,0,0,1.412-1.412v-3.041a1.412,1.412,0,0,0-1.412-1.412h-3.694a1.412,1.412,0,0,0-1.412,1.412v3.041A1.412,1.412,0,0,0,2215.562,2742.164Z" transform="translate(-1971.607 -2436.585)" fill="#a3c5e8"/>
    <path id="Path_2741" data-name="Path 2741" d="M5065.645,1813.186v-3.694a1.412,1.412,0,0,0-1.412-1.412h-3.041a1.412,1.412,0,0,0-1.412,1.412v3.694a1.412,1.412,0,0,0,1.412,1.412h3.041A1.412,1.412,0,0,0,5065.645,1813.186Z" transform="translate(-4484.405 -1616.932)" fill="#a3c5e8"/>
    <path id="Path_2742" data-name="Path 2742" d="M5065.645,1914.516v-3.694a1.412,1.412,0,0,0-1.412-1.412h-3.041a1.412,1.412,0,0,0-1.412,1.412v3.694a1.412,1.412,0,0,0,1.412,1.412h3.041A1.412,1.412,0,0,0,5065.645,1914.516Z" transform="translate(-4484.405 -1706.411)" fill="#a3c5e8"/>
    <path id="Path_2743" data-name="Path 2743" d="M5065.645,2015.836v-3.694a1.412,1.412,0,0,0-1.412-1.413h-3.041a1.412,1.412,0,0,0-1.412,1.413v3.694a1.412,1.412,0,0,0,1.412,1.412h3.041A1.412,1.412,0,0,0,5065.645,2015.836Z" transform="translate(-4484.405 -1795.88)" fill="#a3c5e8"/>
  </g>
</svg>
