<svg xmlns="http://www.w3.org/2000/svg" xmlns:xlink="http://www.w3.org/1999/xlink" width="358.321" height="358.321" viewBox="0 0 358.321 358.321">
  <defs>
    <clipPath id="clip-path">
      <rect id="Rectangle_659" data-name="Rectangle 659" width="358.321" height="358.321" transform="translate(2922.12 -54.95)" fill="none"/>
    </clipPath>
    <clipPath id="clip-path-2">
      <rect id="Rectangle_621" data-name="Rectangle 621" width="358.321" height="358.321" fill="none"/>
    </clipPath>
    <clipPath id="clip-path-5">
      <rect id="Rectangle_623" data-name="Rectangle 623" width="25.849" height="48.022" fill="none"/>
    </clipPath>
    <clipPath id="clip-path-6">
      <rect id="Rectangle_624" data-name="Rectangle 624" width="12.075" height="0.86" fill="none"/>
    </clipPath>
    <clipPath id="clip-path-7">
      <rect id="Rectangle_625" data-name="Rectangle 625" width="4.063" height="0.86" fill="none"/>
    </clipPath>
    <clipPath id="clip-path-8">
      <rect id="Rectangle_626" data-name="Rectangle 626" width="111.051" height="165.035" fill="none"/>
    </clipPath>
    <clipPath id="clip-path-10">
      <rect id="Rectangle_628" data-name="Rectangle 628" width="20.267" height="165.035" fill="none"/>
    </clipPath>
    <clipPath id="clip-path-12">
      <rect id="Rectangle_630" data-name="Rectangle 630" width="55.21" height="73.9" fill="none"/>
    </clipPath>
    <clipPath id="clip-path-13">
      <rect id="Rectangle_631" data-name="Rectangle 631" width="54.501" height="73.9" fill="none"/>
    </clipPath>
    <clipPath id="clip-path-14">
      <rect id="Rectangle_632" data-name="Rectangle 632" width="18.869" height="73.9" fill="none"/>
    </clipPath>
    <clipPath id="clip-path-15">
      <rect id="Rectangle_633" data-name="Rectangle 633" width="65.738" height="73.886" fill="none"/>
    </clipPath>
    <clipPath id="clip-path-17">
      <rect id="Rectangle_635" data-name="Rectangle 635" width="24.652" height="73.886" fill="none"/>
    </clipPath>
    <clipPath id="clip-path-19">
      <rect id="Rectangle_637" data-name="Rectangle 637" width="87.853" height="34.822" fill="none"/>
    </clipPath>
    <clipPath id="clip-path-20">
      <rect id="Rectangle_638" data-name="Rectangle 638" width="47.75" height="13.566" fill="none"/>
    </clipPath>
    <clipPath id="clip-path-22">
      <rect id="Rectangle_640" data-name="Rectangle 640" width="0.609" height="3.053" fill="none"/>
    </clipPath>
    <clipPath id="clip-path-23">
      <rect id="Rectangle_641" data-name="Rectangle 641" width="1.648" height="12.907" fill="none"/>
    </clipPath>
    <clipPath id="clip-path-24">
      <rect id="Rectangle_642" data-name="Rectangle 642" width="0.272" height="2.601" fill="none"/>
    </clipPath>
    <clipPath id="clip-path-25">
      <rect id="Rectangle_643" data-name="Rectangle 643" width="0.272" height="9.166" fill="none"/>
    </clipPath>
    <clipPath id="clip-path-26">
      <rect id="Rectangle_644" data-name="Rectangle 644" width="53.411" height="12.326" fill="none"/>
    </clipPath>
    <clipPath id="clip-path-28">
      <rect id="Rectangle_646" data-name="Rectangle 646" width="2.444" height="12.133" fill="none"/>
    </clipPath>
    <clipPath id="clip-path-29">
      <rect id="Rectangle_647" data-name="Rectangle 647" width="6.98" height="3.755" fill="none"/>
    </clipPath>
    <clipPath id="clip-path-30">
      <rect id="Rectangle_648" data-name="Rectangle 648" width="6.887" height="4.716" fill="none"/>
    </clipPath>
    <clipPath id="clip-path-31">
      <rect id="Rectangle_649" data-name="Rectangle 649" width="12.656" height="8.449" fill="none"/>
    </clipPath>
    <clipPath id="clip-path-32">
      <rect id="Rectangle_650" data-name="Rectangle 650" width="11.731" height="6.679" fill="none"/>
    </clipPath>
    <clipPath id="clip-path-33">
      <rect id="Rectangle_651" data-name="Rectangle 651" width="45.012" height="15.229" fill="none"/>
    </clipPath>
    <clipPath id="clip-path-34">
      <rect id="Rectangle_652" data-name="Rectangle 652" width="5.224" height="4.106" fill="none"/>
    </clipPath>
    <clipPath id="clip-path-35">
      <rect id="Rectangle_653" data-name="Rectangle 653" width="8.492" height="10.585" fill="none"/>
    </clipPath>
    <clipPath id="clip-path-36">
      <rect id="Rectangle_654" data-name="Rectangle 654" width="9.066" height="13.279" fill="none"/>
    </clipPath>
    <clipPath id="clip-path-37">
      <rect id="Rectangle_655" data-name="Rectangle 655" width="7.138" height="9.732" fill="none"/>
    </clipPath>
    <clipPath id="clip-path-38">
      <rect id="Rectangle_656" data-name="Rectangle 656" width="7.088" height="8.191" fill="none"/>
    </clipPath>
    <clipPath id="clip-path-39">
      <rect id="Rectangle_657" data-name="Rectangle 657" width="7.919" height="8.299" fill="none"/>
    </clipPath>
  </defs>
  <g id="_5_svg" data-name="5_svg" transform="translate(4446.696 -6266)">
    <path id="Path_4027" data-name="Path 4027" d="M2150.681,1357.521c48.594-18.04,97.984-2.091,131.482,32.648,16.754,17.375,42.713,11.371,69.145,5.369s53.3-12,71.932,5.337c25.444,23.669,13.79,84.522-21.1,110.88-47.417,35.819-191.63,17.644-222.83,11.548-35.94-7.025-62.215-28.335-72.89-54.2-25.722-62.322,22.781-103.609,44.256-111.582" transform="translate(-6535.12 4961.346)" fill="#e1e8f5"/>
    <g id="Group_175" data-name="Group 175" transform="translate(-7368.816 6320.95)" clip-path="url(#clip-path)">
      <g id="Group_174" data-name="Group 174" transform="translate(2922.12 -54.95)">
        <rect id="Rectangle_607" data-name="Rectangle 607" width="23.735" height="0.179" transform="translate(298.682 285.575)" fill="#ebebeb"/>
        <rect id="Rectangle_608" data-name="Rectangle 608" width="6.228" height="0.179" transform="translate(231.131 287.524)" fill="#ebebeb"/>
        <rect id="Rectangle_609" data-name="Rectangle 609" width="13.752" height="0.179" transform="translate(284.206 278.924)" fill="#ebebeb"/>
        <rect id="Rectangle_610" data-name="Rectangle 610" width="30.952" height="0.179" transform="translate(37.595 280.128)" fill="#ebebeb"/>
        <rect id="Rectangle_611" data-name="Rectangle 611" width="4.536" height="0.179" transform="translate(74.925 280.128)" fill="#ebebeb"/>
        <rect id="Rectangle_612" data-name="Rectangle 612" width="67.135" height="0.179" transform="translate(94.217 283.152)" fill="#ebebeb"/>
        <g id="Group_103" data-name="Group 103" clip-path="url(#clip-path-2)">
          <path id="Path_3325" data-name="Path 3325" d="M3895.666,2228.652H3757.282a4.092,4.092,0,0,1-4.092-4.092V2030.042a4.092,4.092,0,0,1,4.092-4.092h138.384a4.092,4.092,0,0,1,4.092,4.092V2224.56a4.092,4.092,0,0,1-4.092,4.092m-138.384-202.523a3.913,3.913,0,0,0-3.913,3.913V2224.56a3.913,3.913,0,0,0,3.913,3.913h138.384a3.913,3.913,0,0,0,3.913-3.913V2030.042a3.913,3.913,0,0,0-3.913-3.913Z" transform="translate(-3725.822 -1986.571)" fill="#ebebeb"/>
          <path id="Path_3326" data-name="Path 3326" d="M4111.977,2228.652H3973.593a4.092,4.092,0,0,1-4.092-4.092V2030.042a4.092,4.092,0,0,1,4.092-4.092h138.384a4.092,4.092,0,0,1,4.092,4.092V2224.56a4.092,4.092,0,0,1-4.092,4.092m-138.384-202.523a3.913,3.913,0,0,0-3.913,3.913V2224.56a3.913,3.913,0,0,0,3.913,3.913h138.384a3.913,3.913,0,0,0,3.913-3.913V2030.042a3.913,3.913,0,0,0-3.913-3.913Z" transform="translate(-3787.116 -1986.571)" fill="#ebebeb"/>
          <rect id="Rectangle_613" data-name="Rectangle 613" width="358.321" height="0.179" transform="translate(0 274.044)" fill="#ebebeb"/>
          <rect id="Rectangle_614" data-name="Rectangle 614" width="30.636" height="37.71" transform="translate(128.895 102.43)" fill="#f5f5f5"/>
          <rect id="Rectangle_615" data-name="Rectangle 615" width="21.886" height="26.939" transform="translate(133.267 107.819)" fill="#ebebeb"/>
          <rect id="Rectangle_616" data-name="Rectangle 616" width="30.622" height="21.75" transform="translate(94.69 118.647)" fill="#f5f5f5"/>
          <rect id="Rectangle_617" data-name="Rectangle 617" width="25.957" height="17.235" transform="translate(97.026 120.905)" fill="#fafbfb"/>
          <rect id="Rectangle_618" data-name="Rectangle 618" width="26.501" height="18.826" transform="translate(104.343 143.164)" fill="#f5f5f5"/>
          <rect id="Rectangle_619" data-name="Rectangle 619" width="16.87" height="11.201" transform="translate(109.159 146.976)" fill="#fafbfb"/>
          <path id="Path_3327" data-name="Path 3327" d="M3790.17,2123.6Z" transform="translate(-3736.3 -2014.24)" fill="#e0e0e0"/>
          <rect id="Rectangle_620" data-name="Rectangle 620" width="2.867" height="164.849" transform="translate(52.429 109.352)" fill="#f5f5f5"/>
          <path id="Path_3328" data-name="Path 3328" d="M3770.532,2094.778a3.411,3.411,0,0,0-6.729-1.025l-7.059,37.015c-.336,1.77,1.57,3.626,4.3,4.034s5.066-.8,5.267-2.587l4.25-37.437" transform="translate(-3726.816 -2005.026)" fill="#f5f5f5"/>
          <path id="Path_3329" data-name="Path 3329" d="M3781.066,2095.648a3.4,3.4,0,0,0-6.772-.509l-4.25,37.438c-.2,1.784,1.835,3.5,4.551,3.7s5.016-1.175,5.016-2.974l1.433-37.653" transform="translate(-3730.593 -2005.351)" fill="#fafbfb"/>
          <path id="Path_3330" data-name="Path 3330" d="M3791.649,2095.719a3.4,3.4,0,0,0-6.786,0l-1.434,37.652c-.064,1.8,2.085,3.347,4.809,3.347s4.88-1.548,4.809-3.347q-.717-18.826-1.433-37.652" transform="translate(-3734.389 -2005.422)" fill="#f5f5f5"/>
          <path id="Path_3331" data-name="Path 3331" d="M3801.672,2095.089a3.4,3.4,0,0,0-6.772.509q.717,18.826,1.433,37.652c.072,1.8,2.329,3.182,5.017,2.974s4.751-1.913,4.551-3.7l-4.25-37.437" transform="translate(-3737.641 -2005.337)" fill="#fafbfb"/>
          <path id="Path_3332" data-name="Path 3332" d="M3811.074,2093.753a3.411,3.411,0,0,0-6.729,1.025l4.25,37.438c.2,1.784,2.566,3,5.268,2.587s4.608-2.272,4.3-4.035l-7.059-37.014" transform="translate(-3740.313 -2005.026)" fill="#f5f5f5"/>
          <path id="Path_3333" data-name="Path 3333" d="M3802.895,2352.109a4.084,4.084,0,0,0-4.149-4.479h-33.8a4.07,4.07,0,0,0-4.142,4.479Z" transform="translate(-3727.977 -2077.721)" fill="#ebebeb"/>
          <path id="Path_3334" data-name="Path 3334" d="M4118.755,2291.338c-.394-.717.208-1.605-.187-2.293s-1.433-.595-1.892-1.312c-.609-.975.265-1.871-.287-2.824-.337-.581-1.275-.258-1.691-.831s.237-1.433-.215-2.014-1.154-.33-1.641-.925c-.667-.817.093-2.623.093-2.623s1.928-.48,2.637.387c.516.631.122,1.269.58,1.871s1.434.179,1.928.845-.165,1.433.272,1.949c.717.9,1.9.473,2.559,1.526.487.774-.079,1.684.344,2.408s1.483.717,1.914,1.505-.064,1.5.258,2.15,1.218.8,1.548,1.533-.251,1.605.05,2.35,1.3.889,1.613,1.713-.437,1.67-.2,2.515c.193.674,1.067.867,1.283,1.6a2.343,2.343,0,0,1-1.483,3.031,2.394,2.394,0,0,1-2.795-1.763c-.2-.717.416-1.312.179-1.935-.294-.781-1.369-.881-1.677-1.705s.365-1.512.079-2.222-1.283-.789-1.612-1.526.172-1.433-.136-2.05-1.189-.717-1.534-1.362" transform="translate(-3827.655 -2058.1)" fill="#f1f0f0"/>
          <path id="Path_3335" data-name="Path 3335" d="M4123.753,2298.573l1.34.552q-.716-2.057-1.591-4.056h0q-.781-1.8-1.67-3.54-.8-.222-1.584-.416c-.129,0-.071-.229.058-.2l1.433.358q-.86-1.662-1.82-3.268h0q-1.089-1.82-2.308-3.583h0q-.538-.774-1.1-1.533-.967-1.3-2.006-2.552a.1.1,0,0,1,.158-.129q1.577,1.906,3,3.92.158-.717.294-1.433a.108.108,0,0,1,.208.043q-.158.817-.337,1.627,1.147,1.648,2.149,3.361.208-.716.394-1.433a.108.108,0,1,1,.208.057q-.215.8-.452,1.6,1.011,1.692,1.907,3.44h0q.853,1.67,1.605,3.39.294-.666.573-1.347a.108.108,0,0,1,.194.079q-.316.767-.653,1.526.9,2.085,1.648,4.242h0l.122.358q.523,1.541.967,3.11a.1.1,0,1,1-.194.058q-.486-1.727-1.075-3.426-.76-.33-1.512-.63c-.122-.05-.036-.237.086-.194" transform="translate(-3828.195 -2058.606)" fill="#fff"/>
          <path id="Path_3336" data-name="Path 3336" d="M4121.535,2272.812c-.437-1.34.81-2.58.358-3.834s-2.207-1.433-2.737-2.716c-.717-1.777.982-3,.344-4.744-.387-1.053-2.028-.8-2.544-1.863s.8-2.293.237-3.383-1.806-.874-2.437-2.007c-.867-1.541.917-4.3.917-4.3s3.325-.229,4.243,1.433c.673,1.2-.172,2.15.416,3.254s2.329.717,2.931,1.956-.674,2.264-.122,3.29c.917,1.691,3,1.333,3.777,3.261.573,1.433-.616,2.752-.136,4.071s2.243,1.577,2.716,3.031c.416,1.283-.538,2.451-.2,3.641s1.777,1.67,2.107,2.981c.366,1.433-.881,2.573-.595,3.891s1.9,1.842,2.15,3.3c.287,1.569-1.211,2.63-1.061,4.085.122,1.161,1.505,1.734,1.648,3.01a3.923,3.923,0,0,1-3.318,4.565,4.007,4.007,0,0,1-4.092-3.719c-.136-1.182,1.061-2.042.86-3.139-.258-1.369-2-1.849-2.265-3.3-.243-1.34,1.047-2.394.774-3.641s-1.885-1.67-2.214-2.988c-.309-1.2.717-2.293.373-3.411s-1.749-1.505-2.15-2.687" transform="translate(-3828.207 -2050.044)" fill="#f5f5f5"/>
          <path id="Path_3337" data-name="Path 3337" d="M4127.864,2286.028q1.025.638,2.042,1.3-.595-3.583-1.433-7.166a.146.146,0,0,1,0-.051q-.768-3.2-1.728-6.328-1.247-.595-2.5-1.146c-.2-.086-.05-.4.15-.308q1.1.487,2.207,1-.932-2.988-2.049-5.912a.145.145,0,0,1,0-.05q-1.269-3.318-2.766-6.55a.158.158,0,0,1,0-.05q-.666-1.433-1.375-2.866-1.218-2.422-2.565-4.787a.172.172,0,1,1,.294-.172q2.049,3.583,3.8,7.331.458-1.125.9-2.279a.179.179,0,0,1,.33.129q-.494,1.3-1.025,2.58,1.434,3.046,2.616,6.178.538-1.089,1.053-2.208a.179.179,0,0,1,.323.15q-.587,1.262-1.2,2.5,1.168,3.075,2.15,6.22a.158.158,0,0,1,0,.05q.925,3,1.67,6.056.681-1.011,1.333-2.05a.179.179,0,0,1,.3.187q-.716,1.175-1.52,2.322.881,3.7,1.491,7.482a.145.145,0,0,1,0,.05l.1.63q.416,2.687.717,5.4a.172.172,0,1,1-.344,0q-.3-2.989-.774-5.956-1.154-.76-2.314-1.484c-.187-.115,0-.408.193-.287" transform="translate(-3829.139 -2050.862)" fill="#fff"/>
          <path id="Path_3338" data-name="Path 3338" d="M4143.627,2270.806c.193-1.433-1.247-2.4-1.018-3.712s1.928-1.763,2.222-3.146c.4-1.878-1.49-2.788-1.161-4.608.2-1.1,1.856-1.14,2.186-2.279s-1.19-2.15-.817-3.29,1.626-1.175,2.057-2.394c.587-1.67-1.641-4.077-1.641-4.077s-3.311.344-3.935,2.114c-.459,1.3.538,2.071.15,3.282s-2.15,1.111-2.551,2.429,1.061,2.15.717,3.218c-.609,1.828-2.723,1.828-3.153,3.863-.322,1.5,1.082,2.608.838,3.984s-1.935,1.942-2.15,3.454c-.186,1.34.953,2.322.824,3.583s-1.433,1.949-1.562,3.3c-.107,1.469,1.312,2.386,1.261,3.734s-1.548,2.15-1.555,3.619c0,1.6,1.648,2.386,1.749,3.841.079,1.168-1.183,1.971-1.1,3.246a3.924,3.924,0,0,0,4.056,3.92,4.006,4.006,0,0,0,3.39-4.372c-.071-1.19-1.433-1.827-1.39-2.945,0-1.39,1.648-2.15,1.663-3.641,0-1.362-1.434-2.15-1.39-3.454s1.569-1.971,1.669-3.325c.093-1.24-1.082-2.15-.96-3.3s1.433-1.785,1.641-3.017" transform="translate(-3833.823 -2049.292)" fill="#f1f0f0"/>
          <path id="Path_3339" data-name="Path 3339" d="M4141.319,2284.862q-.9.8-1.791,1.634-.036-3.655.179-7.3a.174.174,0,0,0,0-.05q.2-3.275.609-6.529,1.125-.8,2.265-1.555c.187-.122,0-.4-.2-.28q-1,.666-2,1.369.4-3.1,1-6.177a.125.125,0,0,0,0-.05q.673-3.49,1.591-6.93a.192.192,0,0,0,0-.05q.409-1.526.86-3.046.781-2.6,1.7-5.16a.172.172,0,0,0-.192-.24.173.173,0,0,0-.131.126q-1.4,3.891-2.472,7.883-.653-1.032-1.275-2.085a.179.179,0,0,0-.3.187q.716,1.2,1.434,2.365-.86,3.246-1.512,6.536-.716-.982-1.433-1.992a.179.179,0,0,0-.287.2q.8,1.146,1.62,2.257-.624,3.232-1.032,6.5a.144.144,0,0,0,0,.05q-.394,3.118-.595,6.249-.838-.881-1.67-1.792a.179.179,0,0,0-.258.237q.939,1.032,1.9,2.028-.229,3.806-.172,7.625a.144.144,0,0,0,0,.05v.638q.058,2.716.258,5.439a.172.172,0,0,0,.344,0q-.223-3-.266-6,1-.953,2.021-1.863c.165-.151-.078-.4-.243-.251" transform="translate(-3834.69 -2050.198)" fill="#fff"/>
          <path id="Path_3340" data-name="Path 3340" d="M4151.013,2285.762c.624-.925-.05-2.15.566-2.981s1.978-.58,2.666-1.433c.931-1.189-.086-2.487.774-3.669.523-.717,1.713-.165,2.336-.86s-.107-1.913.566-2.616,1.555-.265,2.286-.982c1-.982.251-3.454.251-3.454s-2.465-.9-3.519.136c-.774.76-.337,1.656-1.032,2.379s-1.92,0-2.651.838,0,1.863-.63,2.522c-1.068,1.082-2.559.351-3.583,1.641-.717.953-.136,2.222-.788,3.11s-2.042.717-2.716,1.706c-.595.881-.129,1.978-.645,2.8s-1.713.874-2.251,1.8.108,2.15-.4,3.082-1.841.982-2.357,2.021.344,2.258-.093,3.325c-.344.853-1.519.982-1.906,1.914a3.1,3.1,0,0,0,1.512,4.185,3.16,3.16,0,0,0,3.913-1.921c.358-.867-.358-1.784.036-2.566.494-.982,1.921-.96,2.437-2s-.272-2.042.208-2.924,1.792-.853,2.336-1.777,0-1.885.466-2.666,1.655-.76,2.208-1.569" transform="translate(-3834.738 -2055.555)" fill="#f5f5f5"/>
          <path id="Path_3341" data-name="Path 3341" d="M4145.193,2294.64q-.917.258-1.834.538,1.24-2.6,2.659-5.1v-.036q1.275-2.25,2.694-4.415,1.075-.179,2.15-.322c.172,0,.129-.294-.05-.272q-.946.129-1.892.279,1.362-2.057,2.867-4.028h0q1.684-2.236,3.525-4.357h0q.817-.939,1.663-1.856,1.433-1.57,2.988-3.067a.136.136,0,0,0-.046-.245.137.137,0,0,0-.14.052q-2.336,2.272-4.479,4.723-.1-.953-.186-1.921a.143.143,0,0,0-.28,0q.093,1.1.215,2.15-1.734,2-3.333,4.106-.171-.946-.315-1.9a.143.143,0,0,0-.279.043q.172,1.089.365,2.15-1.563,2.071-2.989,4.242h0q-1.354,2.071-2.587,4.221-.294-.917-.559-1.842a.143.143,0,0,0-.265.079q.308,1.054.645,2.093-1.483,2.616-2.766,5.339v.036l-.215.459q-.9,1.942-1.705,3.941a.136.136,0,1,0,.25.1q.881-2.2,1.892-4.343,1.039-.322,2.078-.616c.172-.05.086-.308-.086-.258" transform="translate(-3835.719 -2056.221)" fill="#fff"/>
          <path id="Path_3342" data-name="Path 3342" d="M4122.249,2308h18.762a15.185,15.185,0,0,1,5.389,11.61c0,5.325-4.93,21.284-4.93,21.284h-19.679s-4.931-15.959-4.931-21.284a15.188,15.188,0,0,1,5.389-11.61" transform="translate(-3828.87 -2066.491)" fill="#f1f0f0"/>
        </g>
        <g id="Group_104" data-name="Group 104" clip-path="url(#clip-path-2)">
          <path id="Path_3343" data-name="Path 3343" d="M4044.19,2380.182c0,4.479-62.212,8.112-138.95,8.112s-138.95-3.633-138.95-8.112,62.212-8.113,138.95-8.113,138.95,3.634,138.95,8.113" transform="translate(-3729.534 -2084.646)" fill="#f5f5f5"/>
        </g>
        <path id="Path_3344" data-name="Path 3344" d="M3213.44,201.455l-21.65-16.418,25.849-31.6Z" transform="translate(-2998.533 -4.099)" fill="#5273b8"/>
        <g id="Group_117" data-name="Group 117" clip-path="url(#clip-path-2)">
          <g id="Group_106" data-name="Group 106" transform="translate(193.257 149.341)" opacity="0.7">
            <g id="Group_105" data-name="Group 105" clip-path="url(#clip-path-5)">
              <path id="Path_3345" data-name="Path 3345" d="M3217.639,153.44l-4.2,48.015-21.65-16.418Z" transform="translate(-3191.79 -153.44)" fill="#fff"/>
            </g>
          </g>
          <path id="Path_3346" data-name="Path 3346" d="M4090.418,2060.33h11.237c.552,0,.63-.86.072-.86H4090.49c-.552,0-.631.86-.072.86" transform="translate(-3821.268 -1996.068)" fill="#5273b8"/>
          <path id="Path_3347" data-name="Path 3347" d="M4111.848,2060.33h3.225c.552,0,.631-.86.079-.86h-3.232c-.552,0-.63.86-.071.86" transform="translate(-3827.341 -1996.068)" fill="#5273b8"/>
          <g id="Group_108" data-name="Group 108" transform="translate(268.769 63.401)" opacity="0.3">
            <g id="Group_107" data-name="Group 107" clip-path="url(#clip-path-6)">
              <path id="Path_3348" data-name="Path 3348" d="M4090.418,2060.33h11.237c.552,0,.63-.86.072-.86H4090.49c-.552,0-.631.86-.072.86" transform="translate(-4090.038 -2059.47)" fill="#fff"/>
            </g>
          </g>
          <g id="Group_110" data-name="Group 110" transform="translate(284.127 63.401)" opacity="0.3">
            <g id="Group_109" data-name="Group 109" clip-path="url(#clip-path-7)">
              <path id="Path_3349" data-name="Path 3349" d="M4111.848,2060.33h3.225c.552,0,.631-.86.079-.86h-3.232c-.552,0-.63.86-.071.86" transform="translate(-4111.468 -2059.47)" fill="#fff"/>
            </g>
          </g>
          <path id="Path_3350" data-name="Path 3350" d="M4100.5,2216.234a4.946,4.946,0,0,1-4.816,4.428h-88.491a4,4,0,0,1-4.042-4.429l13.667-156.185a4.943,4.943,0,0,1,4.815-4.429h88.505a4,4,0,0,1,4.035,4.429Z" transform="translate(-3796.643 -1994.978)" fill="#5273b8"/>
          <g id="Group_112" data-name="Group 112" transform="translate(206.493 60.649)" opacity="0.7">
            <g id="Group_111" data-name="Group 111" clip-path="url(#clip-path-8)">
              <path id="Path_3351" data-name="Path 3351" d="M4100.5,2216.234a4.946,4.946,0,0,1-4.816,4.428h-88.491a4,4,0,0,1-4.042-4.429l13.667-156.185a4.943,4.943,0,0,1,4.815-4.429h88.505a4,4,0,0,1,4.035,4.429Z" transform="translate(-4003.135 -2055.628)" fill="#fff"/>
            </g>
          </g>
          <path id="Path_3352" data-name="Path 3352" d="M4100.5,2216.234a4.946,4.946,0,0,1-4.816,4.428h-88.491a4,4,0,0,1-4.042-4.429l13.667-156.185a4.943,4.943,0,0,1,4.815-4.429h88.505a4,4,0,0,1,4.035,4.429Z" transform="translate(-3796.643 -1994.978)" fill="#5273b8"/>
          <g id="Group_114" data-name="Group 114" transform="translate(206.493 60.649)" opacity="0.7">
            <g id="Group_113" data-name="Group 113" clip-path="url(#clip-path-8)">
              <path id="Path_3353" data-name="Path 3353" d="M4100.5,2216.234a4.946,4.946,0,0,1-4.816,4.428h-88.491a4,4,0,0,1-4.042-4.429l13.667-156.185a4.943,4.943,0,0,1,4.815-4.429h88.505a4,4,0,0,1,4.035,4.429Z" transform="translate(-4003.135 -2055.628)" fill="#fff"/>
            </g>
          </g>
          <path id="Path_3354" data-name="Path 3354" d="M4148.5,2055.627h-1.771a4,4,0,0,1,4.034,4.429L4137.1,2216.234a4.947,4.947,0,0,1-4.816,4.428h1.77a4.937,4.937,0,0,0,4.809-4.429l13.666-156.185a4,4,0,0,0-4.035-4.429" transform="translate(-3833.239 -1994.978)" fill="#5273b8"/>
          <g id="Group_116" data-name="Group 116" transform="translate(299.055 60.649)" opacity="0.4">
            <g id="Group_115" data-name="Group 115" clip-path="url(#clip-path-10)">
              <path id="Path_3355" data-name="Path 3355" d="M4148.5,2055.627h-1.771a4,4,0,0,1,4.034,4.429L4137.1,2216.234a4.947,4.947,0,0,1-4.816,4.428h1.77a4.937,4.937,0,0,0,4.809-4.429l13.666-156.185a4,4,0,0,0-4.035-4.429" transform="translate(-4132.293 -2055.628)" fill="#fff"/>
            </g>
          </g>
          <path id="Path_3364" data-name="Path 3364" d="M4064.926,2243.026l-.058.624h-.458l.058-.616a1.606,1.606,0,0,1-1.548-1.147l1.025-.566a.789.789,0,0,0,.624.6l.086-.975h-.086c-.595-.251-1.3-.595-1.218-1.541a1.627,1.627,0,0,1,1.576-1.433l.058-.616h.494l-.057.631a1.512,1.512,0,0,1,1.3,1.025l-1,.559a.616.616,0,0,0-.4-.459l-.086.953c.595.265,1.433.494,1.319,1.526a1.655,1.655,0,0,1-1.584,1.512m-.208-3.275.064-.717a.4.4,0,0,0-.344.351c0,.136.043.251.28.387m.659,1.777c0-.179-.079-.287-.287-.387l-.064.76a.416.416,0,0,0,.351-.365" transform="translate(-3813.586 -2049.806)" fill="#263238"/>
          <path id="Path_3365" data-name="Path 3365" d="M3281.009,212.28l-.43,4.959h-1.139l.33-3.762-.9.244-.193-.975,1.34-.466Z" transform="translate(-3023.154 -24.106)" fill="#263238"/>
          <path id="Path_3366" data-name="Path 3366" d="M4075.438,2242.324l1.813-1.727a1.573,1.573,0,0,0,.581-.882.445.445,0,0,0-.487-.523.888.888,0,0,0-.774.538l-.911-.559a1.963,1.963,0,0,1,1.763-1.082,1.433,1.433,0,0,1,1.541,1.576,2.479,2.479,0,0,1-.91,1.555l-.9.831h1.663l-.093,1.089h-3.368Z" transform="translate(-3817.11 -2050.015)" fill="#263238"/>
          <path id="Path_3367" data-name="Path 3367" d="M4081.292,2240.669c.136-1.526.96-2.58,2.243-2.58s1.928,1.046,1.792,2.58-.96,2.58-2.243,2.58-1.928-1.046-1.792-2.58m2.9,0c.086-.953-.165-1.476-.76-1.476s-.932.516-1.011,1.476.165,1.476.76,1.476.931-.516,1.017-1.476" transform="translate(-3818.786 -2050.015)" fill="#263238"/>
          <path id="Path_3368" data-name="Path 3368" d="M4070.281,2082.872a1.662,1.662,0,0,1-1.648,1.491h-.652l-.122,1.361h-.989l.38-4.336h1.641a1.347,1.347,0,0,1,1.39,1.491m-.989,0a.48.48,0,0,0-.48-.559h-.652l-.1,1.118h.652a.587.587,0,0,0,.573-.559" transform="translate(-3814.705 -2002.278)" fill="#263238"/>
          <path id="Path_3369" data-name="Path 3369" d="M4074.254,2085.056h-1.612l-.28.716h-1.082l1.856-4.343h1.261l1.1,4.343h-1.082Zm-.215-.932-.373-1.591-.645,1.591Z" transform="translate(-3815.955 -2002.291)" fill="#263238"/>
          <path id="Path_3370" data-name="Path 3370" d="M3286.684,58.106l-.151,1.67h-.989l.143-1.67-1.218-2.666h1.125l.681,1.67.968-1.67h1.132Z" transform="translate(-3024.794 23.67)" fill="#263238"/>
          <path id="Path_3371" data-name="Path 3371" d="M3294.445,59.776h-.989l.222-2.523-1.283,1.842h-.115l-.96-1.842-.222,2.523h-.989l.38-4.336h.989l1.01,1.928,1.347-1.928h1Z" transform="translate(-3026.392 23.67)" fill="#263238"/>
          <path id="Path_3372" data-name="Path 3372" d="M3300.33,58.823l-.086.953h-2.723l.38-4.336h2.695l-.086.953H3298.8l-.064.717h1.555l-.086.946h-1.548l-.064.767Z" transform="translate(-3028.493 23.67)" fill="#263238"/>
          <path id="Path_3373" data-name="Path 3373" d="M3306.27,55.44l-.38,4.336h-.745l-1.469-2.358-.2,2.358h-1l.38-4.336h.746l1.469,2.351.208-2.351Z" transform="translate(-3029.897 23.67)" fill="#263238"/>
          <path id="Path_3374" data-name="Path 3374" d="M3311.645,56.393h-1.118l-.294,3.383h-1l.3-3.383h-1.118l.079-.953h3.225Z" transform="translate(-3031.581 23.67)" fill="#263238"/>
          <path id="Path_3375" data-name="Path 3375" d="M4105.985,2084.707l.9-.494a.816.816,0,0,0,.86.6c.474,0,.6-.186.616-.351s-.215-.373-.853-.552-1.233-.488-1.161-1.319a1.613,1.613,0,0,1,3.075-.344l-.882.487a.717.717,0,0,0-.717-.5c-.308,0-.48.158-.494.33s.079.337.716.538,1.355.43,1.276,1.347a1.792,1.792,0,0,1-3.369.258" transform="translate(-3825.778 -2002.243)" fill="#263238"/>
          <path id="Path_3376" data-name="Path 3376" d="M4084.572,2068.049v-.322a.509.509,0,0,0-.516-.566h-5.21a.631.631,0,0,0-.617.566v.322Z" transform="translate(-3817.924 -1998.248)" fill="#5273b8"/>
          <path id="Path_3377" data-name="Path 3377" d="M4078.063,2069.32l-.215,2.458a.509.509,0,0,0,.516.566h5.21a.631.631,0,0,0,.616-.566l.215-2.458Z" transform="translate(-3817.815 -1998.859)" fill="#5273b8"/>
          <path id="Path_3378" data-name="Path 3378" d="M4098.068,2071.544c-3.841,1.648-5.4-1.648-9.238,0l.4-4.572c3.842-1.648,5.4,1.648,9.237,0l-.4,4.572" transform="translate(-3820.927 -1998.06)" fill="#5273b8"/>
          <path id="Path_3379" data-name="Path 3379" d="M4096.363,2069.814a1.512,1.512,0,0,1-1.477,1.354,1.218,1.218,0,0,1-1.239-1.354,1.512,1.512,0,0,1,1.476-1.354,1.226,1.226,0,0,1,1.24,1.354" transform="translate(-3822.29 -1998.616)" fill="#fff"/>
          <path id="Path_3380" data-name="Path 3380" d="M4110.977,2114.744a4.945,4.945,0,0,1-4.815,4.429H4031.8a4,4,0,0,1-4.035-4.429l.4-4.565a4.945,4.945,0,0,1,4.809-4.429h74.366a4,4,0,0,1,4.035,4.429Z" transform="translate(-3803.617 -2009.183)" fill="#fff"/>
          <path id="Path_3381" data-name="Path 3381" d="M4107.605,2153.224a4.943,4.943,0,0,1-4.815,4.428H4028.4a4,4,0,0,1-4.035-4.429l.4-4.565a4.945,4.945,0,0,1,4.809-4.429h74.366a4,4,0,0,1,4.035,4.429Z" transform="translate(-3802.653 -2020.087)" fill="#fff"/>
          <path id="Path_3382" data-name="Path 3382" d="M4104.857,2184.7a4.944,4.944,0,0,1-4.816,4.429h-74.359a4,4,0,0,1-4.042-4.429l.4-4.565a4.945,4.945,0,0,1,4.808-4.422h74.373a4,4,0,0,1,4.035,4.421Z" transform="translate(-3801.882 -2029.005)" fill="#fff"/>
          <path id="Path_3383" data-name="Path 3383" d="M3237.535,71.525h1.7l.036-.38h-1.7l.115-1.333h1.827l.036-.373h-2.221l-.337,3.827h2.25l.036-.38h-1.863Z" transform="translate(-3011.341 19.703)" fill="#263238"/>
          <path id="Path_3384" data-name="Path 3384" d="M4036.948,2096.786a1.125,1.125,0,0,0-.925.473.809.809,0,0,0-.8-.473,1.075,1.075,0,0,0-.831.38v-.322h-.373l-.243,2.766h.373l.136-1.534c.057-.681.48-.924.845-.924s.6.265.559.716l-.15,1.734h.373l.136-1.533c.05-.588.351-.925.824-.925s.63.272.588.717l-.15,1.734h.373l.15-1.734a.9.9,0,0,0-.924-1.083" transform="translate(-3805.329 -2006.64)" fill="#263238"/>
          <path id="Path_3385" data-name="Path 3385" d="M4042.9,2097.313a1.206,1.206,0,0,0-1.039-.523,1.584,1.584,0,0,0-1.555,1.433,1.283,1.283,0,0,0,1.3,1.433,1.432,1.432,0,0,0,1.132-.531l-.043.466h.38l.244-2.766h-.373Zm-1.24,1.985a.96.96,0,0,1-.975-1.075,1.183,1.183,0,0,1,1.161-1.075.953.953,0,0,1,.968,1.075,1.175,1.175,0,0,1-1.161,1.075" transform="translate(-3807.177 -2006.643)" fill="#263238"/>
          <path id="Path_3386" data-name="Path 3386" d="M3252.46,73.686h.373l.244-2.766h-.373Z" transform="translate(-3015.725 19.284)" fill="#263238"/>
          <path id="Path_3387" data-name="Path 3387" d="M4045.954,2095.389a.3.3,0,0,0-.294.265.244.244,0,0,0,.244.265.293.293,0,0,0,.287-.265.244.244,0,0,0-.244-.266" transform="translate(-3808.695 -2006.246)" fill="#263238"/>
          <path id="Path_3388" data-name="Path 3388" d="M3254.471,69.21l-.351,3.992h.38l.351-3.992Z" transform="translate(-3016.195 19.768)" fill="#263238"/>
          <path id="Path_3389" data-name="Path 3389" d="M4028.285,2132.433h-1.319l-.337,3.827h.394l.122-1.433h.925a1.312,1.312,0,0,0,1.319-1.2,1.069,1.069,0,0,0-1.1-1.2m-.179,2.035h-.925l.143-1.656h.925a.717.717,0,0,1,.717.831.881.881,0,0,1-.9.824" transform="translate(-3803.302 -2016.738)" fill="#263238"/>
          <path id="Path_3390" data-name="Path 3390" d="M4033.43,2134.37a1.2,1.2,0,0,0-1.04-.53,1.577,1.577,0,0,0-1.555,1.433,1.283,1.283,0,0,0,1.3,1.433,1.432,1.432,0,0,0,1.132-.53l-.043.466h.38l.244-2.766h-.38Zm-1.24,1.985a.96.96,0,0,1-.975-1.075,1.183,1.183,0,0,1,1.161-1.075.953.953,0,0,1,.968,1.075,1.176,1.176,0,0,1-1.161,1.075" transform="translate(-3804.491 -2017.142)" fill="#263238"/>
          <path id="Path_3391" data-name="Path 3391" d="M4036.9,2135.094c-.351-.093-.652-.172-.631-.458a.567.567,0,0,1,.617-.444.573.573,0,0,1,.595.365v.058l.337-.187v-.043a.9.9,0,0,0-.9-.566.96.96,0,0,0-1,.845c-.05.552.438.717.86.8s.666.172.637.466-.38.444-.666.444a.638.638,0,0,1-.716-.43v-.064l-.344.186v.043a.953.953,0,0,0,1,.624.974.974,0,0,0,1.075-.81c.05-.566-.437-.716-.867-.8" transform="translate(-3805.867 -2017.135)" fill="#263238"/>
          <path id="Path_3392" data-name="Path 3392" d="M4040.448,2135.1c-.351-.093-.652-.172-.63-.459a.567.567,0,0,1,.617-.445.573.573,0,0,1,.595.366v.057l.337-.186v-.043a.9.9,0,0,0-.9-.566.961.961,0,0,0-1.025.81c-.05.552.438.717.86.8s.667.172.638.466-.38.445-.667.445a.639.639,0,0,1-.717-.43v-.064l-.344.186v.043a.953.953,0,0,0,1,.624.974.974,0,0,0,1.075-.81c.05-.566-.437-.717-.867-.8" transform="translate(-3806.866 -2017.136)" fill="#263238"/>
          <path id="Path_3393" data-name="Path 3393" d="M3252.619,110.149l-.509-2.179h-.358l-.9,2.179-.466-2.143-.007-.036h-.394l.624,2.723.007.043h.373l.882-2.143.5,2.1.007.043h.373l1.118-2.766h-.394Z" transform="translate(-3015.023 8.785)" fill="#263238"/>
          <path id="Path_3394" data-name="Path 3394" d="M4050.113,2133.84a1.59,1.59,0,0,0-1.577,1.433,1.29,1.29,0,0,0,1.326,1.434,1.591,1.591,0,0,0,1.57-1.433,1.29,1.29,0,0,0-1.319-1.433m-.222,2.515a.96.96,0,0,1-.975-1.075,1.182,1.182,0,0,1,1.161-1.075.954.954,0,0,1,.968,1.075,1.175,1.175,0,0,1-1.162,1.075" transform="translate(-3809.507 -2017.142)" fill="#263238"/>
          <path id="Path_3395" data-name="Path 3395" d="M4053.906,2134.263v-.358h-.373l-.244,2.766h.373l.136-1.533a.9.9,0,0,1,.91-.9h.058v-.365h-.058a1.054,1.054,0,0,0-.867.4" transform="translate(-3810.856 -2017.15)" fill="#263238"/>
          <path id="Path_3396" data-name="Path 3396" d="M4058.266,2132.434l-.136,1.541a1.181,1.181,0,0,0-1.039-.537,1.577,1.577,0,0,0-1.555,1.433,1.283,1.283,0,0,0,1.3,1.433,1.434,1.434,0,0,0,1.132-.538l-.043.48h.373l.337-3.827Zm-1.376,3.519a.961.961,0,0,1-.975-1.075,1.182,1.182,0,0,1,1.161-1.075.96.96,0,0,1,.975,1.075,1.182,1.182,0,0,1-1.161,1.075" transform="translate(-3811.49 -2016.739)" fill="#263238"/>
          <path id="Path_3397" data-name="Path 3397" d="M4041.513,2185a1.349,1.349,0,0,1-1.133.624,1.161,1.161,0,0,1-1.2-1.312,1.433,1.433,0,0,1,1.434-1.319,1.1,1.1,0,0,1,1.017.609v.05l.322-.179v-.05a1.434,1.434,0,0,0-1.312-.774,1.806,1.806,0,0,0-1.806,1.656,1.433,1.433,0,0,0,1.519,1.648,1.735,1.735,0,0,0,1.434-.789v-.05l-.287-.172Z" transform="translate(-3806.756 -2030.972)" fill="#263238"/>
          <path id="Path_3398" data-name="Path 3398" d="M4045.771,2184.312a1.011,1.011,0,0,0-.86-.423,1.326,1.326,0,0,0-1.3,1.211,1.075,1.075,0,0,0,1.1,1.211,1.225,1.225,0,0,0,.932-.423v.373h.337l.2-2.322h-.337Zm-1.025,1.677a.788.788,0,0,1-.8-.889.975.975,0,0,1,.96-.888.788.788,0,0,1,.8.888.967.967,0,0,1-.953.889" transform="translate(-3808.111 -2031.323)" fill="#263238"/>
          <path id="Path_3399" data-name="Path 3399" d="M4048.351,2184.239v-.28h-.33l-.2,2.322h.329l.115-1.283a.717.717,0,0,1,.717-.717h.058v-.323h-.058a.882.882,0,0,0-.717.315" transform="translate(-3809.308 -2031.343)" fill="#263238"/>
          <path id="Path_3400" data-name="Path 3400" d="M4052.018,2182.719l-.107,1.261a1,1,0,0,0-.86-.43,1.326,1.326,0,0,0-1.3,1.211,1.075,1.075,0,0,0,1.1,1.211,1.211,1.211,0,0,0,.931-.43v.38h.33l.279-3.2Zm-1.14,2.931a.789.789,0,0,1-.8-.888.974.974,0,0,1,.96-.889.788.788,0,0,1,.8.889.975.975,0,0,1-.961.888" transform="translate(-3809.85 -2030.992)" fill="#263238"/>
          <path id="Path_3401" data-name="Path 3401" d="M4037.469,2113.277a1.126,1.126,0,0,0-.925.473.809.809,0,0,0-.795-.473,1.068,1.068,0,0,0-.832.38v-.322h-.373l-.244,2.766h.373l.136-1.533c.058-.681.48-.925.845-.925s.6.258.559.717l-.151,1.734h.373l.136-1.534c.05-.588.352-.924.824-.924s.63.272.587.717l-.15,1.734h.372l.151-1.734a.9.9,0,0,0-.924-1.082" transform="translate(-3805.477 -2011.313)" fill="#263238"/>
          <path id="Path_3402" data-name="Path 3402" d="M4041.8,2115.632l-.832-2.271h-.408l1,2.759-.058.122c-.122.237-.38.624-.788.588h-.057v.358h.122a1.327,1.327,0,0,0,1.111-.853l1.434-2.974h-.409Z" transform="translate(-3807.25 -2011.339)" fill="#263238"/>
          <path id="Path_3403" data-name="Path 3403" d="M4046.02,2113.279a1.541,1.541,0,0,0-1.555,1.433,1.262,1.262,0,0,0,1.326,1.434,1.5,1.5,0,0,0,1.261-.624v-.05l-.315-.193v.05a1.053,1.053,0,0,1-.91.451.925.925,0,0,1-.982-.881h2.394v-.187a1.247,1.247,0,0,0-1.24-1.433m0,.365a.874.874,0,0,1,.9.9h-2.05a1.118,1.118,0,0,1,1.118-.9" transform="translate(-3808.353 -2011.316)" fill="#263238"/>
          <path id="Path_3404" data-name="Path 3404" d="M4052.228,2113.277a1.126,1.126,0,0,0-.925.473.81.81,0,0,0-.8-.473,1.075,1.075,0,0,0-.831.38v-.322h-.373l-.243,2.766h.372l.136-1.533c.057-.681.48-.925.845-.925s.6.258.559.717l-.15,1.734h.373l.136-1.534c.05-.588.351-.924.824-.924s.63.272.587.717l-.15,1.734h.372l.15-1.734a.9.9,0,0,0-.924-1.082" transform="translate(-3809.659 -2011.313)" fill="#263238"/>
          <path id="Path_3405" data-name="Path 3405" d="M4058.18,2113.79a1.2,1.2,0,0,0-1.039-.53,1.584,1.584,0,0,0-1.555,1.433,1.284,1.284,0,0,0,1.3,1.433,1.432,1.432,0,0,0,1.132-.531l-.043.466h.38l.244-2.766h-.38Zm-1.24,1.985a.96.96,0,0,1-.975-1.075,1.184,1.184,0,0,1,1.161-1.075.953.953,0,0,1,.968,1.075,1.175,1.175,0,0,1-1.161,1.075" transform="translate(-3811.505 -2011.31)" fill="#263238"/>
          <path id="Path_3406" data-name="Path 3406" d="M3267.739,90.169h.373l.244-2.759h-.373Z" transform="translate(-3020.053 14.611)" fill="#263238"/>
          <path id="Path_3407" data-name="Path 3407" d="M4061.233,2111.88a.3.3,0,0,0-.294.265.244.244,0,0,0,.244.265.3.3,0,0,0,.293-.266.244.244,0,0,0-.244-.265" transform="translate(-3813.024 -2010.92)" fill="#263238"/>
          <path id="Path_3408" data-name="Path 3408" d="M3269.4,89.685h.38l.344-3.985h-.373Z" transform="translate(-3020.524 15.096)" fill="#263238"/>
          <path id="Path_3409" data-name="Path 3409" d="M4066.146,2112.524A2.15,2.15,0,0,0,4064,2114.5a1.792,1.792,0,0,0,1.906,1.978,2.87,2.87,0,0,0,.953-.143h.043v-.251h-.072a2.5,2.5,0,0,1-.9.143,1.562,1.562,0,0,1-1.684-1.734,1.914,1.914,0,0,1,1.892-1.734,1.433,1.433,0,0,1,1.519,1.627c-.05.566-.265.9-.587.9s-.272-.229-.258-.43l.107-1.24h-.365v.186a.719.719,0,0,0-.552-.222.989.989,0,0,0-1,.9.8.8,0,0,0,.839.9.889.889,0,0,0,.63-.265.516.516,0,0,0,.552.416c.366,0,.824-.308.9-1.161a1.691,1.691,0,0,0-1.749-1.87m.315,1.978a.594.594,0,0,1-.609.552.488.488,0,0,1-.509-.552.6.6,0,0,1,.609-.552.487.487,0,0,1,.516.552" transform="translate(-3813.888 -2011.098)" fill="#263238"/>
          <path id="Path_3410" data-name="Path 3410" d="M4071.68,2113.28a1.54,1.54,0,0,0-1.555,1.433,1.262,1.262,0,0,0,1.326,1.434,1.5,1.5,0,0,0,1.261-.624v-.05l-.315-.194v.05a1.053,1.053,0,0,1-.91.452.925.925,0,0,1-.982-.882h2.394v-.179a1.247,1.247,0,0,0-1.24-1.433m0,.365a.873.873,0,0,1,.9.9h-2.006a1.117,1.117,0,0,1,1.118-.9" transform="translate(-3815.624 -2011.316)" fill="#263238"/>
          <path id="Path_3411" data-name="Path 3411" d="M4077.877,2113.277a1.124,1.124,0,0,0-.924.473.81.81,0,0,0-.8-.473,1.075,1.075,0,0,0-.831.38v-.322h-.373l-.244,2.766h.373l.136-1.533c.057-.681.473-.925.845-.925s.6.258.559.717l-.15,1.734h.373l.136-1.534c.05-.588.351-.925.824-.925s.631.272.588.717l-.151,1.734h.373l.15-1.734a.9.9,0,0,0-.924-1.082" transform="translate(-3816.927 -2011.313)" fill="#263238"/>
          <path id="Path_3412" data-name="Path 3412" d="M4083.84,2113.79a1.2,1.2,0,0,0-1.039-.53,1.576,1.576,0,0,0-1.555,1.433,1.283,1.283,0,0,0,1.3,1.433,1.432,1.432,0,0,0,1.132-.531l-.043.466h.38l.244-2.766h-.38Zm-1.24,1.985a.96.96,0,0,1-.975-1.075,1.183,1.183,0,0,1,1.161-1.075.954.954,0,0,1,.968,1.075,1.176,1.176,0,0,1-1.162,1.075" transform="translate(-3818.776 -2011.31)" fill="#263238"/>
          <path id="Path_3413" data-name="Path 3413" d="M4086.882,2111.88a.3.3,0,0,0-.294.265.244.244,0,0,0,.244.265.3.3,0,0,0,.293-.266.244.244,0,0,0-.243-.265" transform="translate(-3820.292 -2010.92)" fill="#263238"/>
          <path id="Path_3414" data-name="Path 3414" d="M3293.39,90.169h.38l.244-2.759h-.38Z" transform="translate(-3027.322 14.611)" fill="#263238"/>
          <path id="Path_3415" data-name="Path 3415" d="M3295.06,89.685h.373l.351-3.985h-.373Z" transform="translate(-3027.795 15.096)" fill="#263238"/>
          <path id="Path_3416" data-name="Path 3416" d="M4089.873,2116.47a.322.322,0,0,0-.322.294.265.265,0,0,0,.265.293.33.33,0,0,0,.322-.293.265.265,0,0,0-.265-.294" transform="translate(-3821.132 -2012.22)" fill="#263238"/>
          <path id="Path_3417" data-name="Path 3417" d="M4093.45,2115.271a1.11,1.11,0,0,1-.953.523.961.961,0,0,1-.975-1.075,1.168,1.168,0,0,1,1.161-1.075.852.852,0,0,1,.845.523v.057l.33-.186V2114a1.169,1.169,0,0,0-1.147-.717,1.57,1.57,0,0,0-1.577,1.433,1.275,1.275,0,0,0,1.326,1.433,1.5,1.5,0,0,0,1.29-.717v-.05l-.3-.186Z" transform="translate(-3821.578 -2011.316)" fill="#263238"/>
          <path id="Path_3418" data-name="Path 3418" d="M4097.023,2113.279a1.591,1.591,0,0,0-1.577,1.433,1.29,1.29,0,0,0,1.326,1.433,1.59,1.59,0,0,0,1.569-1.433,1.29,1.29,0,0,0-1.318-1.434m-.222,2.516a.96.96,0,0,1-.975-1.075,1.182,1.182,0,0,1,1.161-1.075.953.953,0,0,1,.968,1.075,1.175,1.175,0,0,1-1.161,1.075" transform="translate(-3822.8 -2011.315)" fill="#263238"/>
          <path id="Path_3419" data-name="Path 3419" d="M4103.367,2113.277a1.125,1.125,0,0,0-.924.473.811.811,0,0,0-.8-.473,1.077,1.077,0,0,0-.832.38v-.322h-.373l-.244,2.766h.373l.136-1.533c.058-.681.48-.925.846-.925s.6.258.559.717l-.15,1.734h.373l.136-1.534c.05-.588.351-.924.824-.924s.63.272.587.717l-.15,1.734h.373l.15-1.734a.9.9,0,0,0-.924-1.082" transform="translate(-3824.149 -2011.313)" fill="#263238"/>
          <path id="Path_3420" data-name="Path 3420" d="M3276.039,158.024h-.344l-.086.967h-1.254l1.361-2.222h-.38l-1.39,2.25-.036.308h1.67l-.057.645h.344l.057-.645h.4l.029-.337h-.4Z" transform="translate(-3021.803 -5.043)" fill="#263238"/>
          <path id="Path_3421" data-name="Path 3421" d="M4071.851,2183.981h-.523l.143-.931h1.433v-.33h-1.741l-.25,1.634h.888a.638.638,0,0,1,.717.659.717.717,0,0,1-.8.659.624.624,0,0,1-.717-.473v-.064l-.315.172v.043a.931.931,0,0,0,.974.659,1.111,1.111,0,0,0,1.175-1,.9.9,0,0,0-1-1" transform="translate(-3815.788 -2030.992)" fill="#263238"/>
          <path id="Path_3422" data-name="Path 3422" d="M4075.4,2183.981h-.523l.143-.931h1.433v-.33h-1.741l-.251,1.6h.889a.638.638,0,0,1,.717.659.717.717,0,0,1-.8.659.623.623,0,0,1-.717-.473v-.065l-.315.172v.043a.931.931,0,0,0,.975.659,1.111,1.111,0,0,0,1.176-1,.9.9,0,0,0-1-1" transform="translate(-3816.794 -2030.992)" fill="#263238"/>
          <path id="Path_3423" data-name="Path 3423" d="M4078.94,2183.981h-.523l.144-.931h1.433v-.33h-1.741l-.251,1.6h.889a.638.638,0,0,1,.717.659.716.716,0,0,1-.8.659.623.623,0,0,1-.717-.473v-.065l-.315.172v.043a.931.931,0,0,0,.975.659,1.11,1.11,0,0,0,1.175-1,.9.9,0,0,0-1-1" transform="translate(-3817.796 -2030.992)" fill="#263238"/>
          <path id="Path_3424" data-name="Path 3424" d="M4084.616,2182.649c-.717,0-1.269.631-1.362,1.656s.323,1.648,1.068,1.648,1.269-.631,1.354-1.648-.323-1.656-1.068-1.656m-.258,2.967c-.545,0-.824-.494-.717-1.311s.438-1.319.982-1.319.824.495.717,1.319-.437,1.311-.982,1.311" transform="translate(-3819.344 -2030.972)" fill="#263238"/>
          <path id="Path_3425" data-name="Path 3425" d="M4088.767,2182.649c-.717,0-1.269.631-1.362,1.656s.322,1.648,1.068,1.648,1.269-.631,1.354-1.648-.323-1.656-1.068-1.656m-.258,2.967c-.544,0-.824-.494-.716-1.311s.437-1.319.982-1.319.824.495.716,1.319-.437,1.311-.982,1.311" transform="translate(-3820.52 -2030.972)" fill="#263238"/>
          <path id="Path_3426" data-name="Path 3426" d="M4092.926,2182.649c-.717,0-1.268.631-1.362,1.656s.323,1.648,1.068,1.648,1.269-.631,1.354-1.648-.323-1.656-1.068-1.656m-.258,2.967c-.545,0-.824-.494-.717-1.311s.437-1.319.982-1.319.824.495.717,1.319-.437,1.311-.982,1.311" transform="translate(-3821.698 -2030.972)" fill="#263238"/>
          <path id="Path_3427" data-name="Path 3427" d="M4097.076,2182.649c-.716,0-1.269.631-1.362,1.656s.323,1.648,1.068,1.648,1.269-.631,1.354-1.648-.323-1.656-1.068-1.656m-.258,2.967c-.544,0-.824-.494-.717-1.311s.437-1.319.982-1.319.824.495.717,1.319-.437,1.311-.982,1.311" transform="translate(-3822.874 -2030.972)" fill="#263238"/>
          <path id="Path_3428" data-name="Path 3428" d="M4103.153,2184.243a.913.913,0,0,0,.444-.717.817.817,0,0,0-.9-.889,1,1,0,0,0-1.061.888.716.716,0,0,0,.323.717.969.969,0,0,0-.559.781c-.05.559.352.932,1,.932a1.06,1.06,0,0,0,1.161-.932.78.78,0,0,0-.422-.781m-.716,1.376c-.459,0-.717-.222-.681-.595s.323-.588.781-.588.717.222.717.588-.323.595-.781.595m.136-1.526c-.379,0-.616-.222-.587-.552a.617.617,0,0,1,.716-.552c.309,0,.624.144.588.552a.624.624,0,0,1-.717.552" transform="translate(-3824.486 -2030.968)" fill="#263238"/>
          <path id="Path_3429" data-name="Path 3429" d="M4106.845,2184.243a.91.91,0,0,0,.444-.717.817.817,0,0,0-.9-.889,1,1,0,0,0-1.061.888.717.717,0,0,0,.323.717.967.967,0,0,0-.559.781c-.05.559.352.932,1,.932a1.061,1.061,0,0,0,1.161-.932.781.781,0,0,0-.423-.781m-.717,1.376c-.458,0-.716-.222-.681-.595s.323-.588.781-.588.716.222.716.588-.323.595-.781.595m.136-1.526c-.379,0-.616-.222-.587-.552a.616.616,0,0,1,.716-.552c.308,0,.624.144.587.552a.624.624,0,0,1-.717.552" transform="translate(-3825.534 -2030.968)" fill="#263238"/>
          <path id="Path_3430" data-name="Path 3430" d="M4110.537,2184.243a.911.911,0,0,0,.444-.717.817.817,0,0,0-.9-.889,1,1,0,0,0-1.061.888.717.717,0,0,0,.323.717.967.967,0,0,0-.552.781c-.05.559.352.932,1,.932a1.068,1.068,0,0,0,1.161-.932.782.782,0,0,0-.422-.781m-.717,1.376c-.459,0-.717-.222-.681-.595s.322-.588.781-.588.716.222.681.588-.323.595-.781.595m.136-1.526c-.379,0-.616-.222-.587-.552a.616.616,0,0,1,.716-.552c.309,0,.624.144.588.552a.624.624,0,0,1-.717.552" transform="translate(-3826.582 -2030.968)" fill="#263238"/>
          <path id="Path_3431" data-name="Path 3431" d="M4114.214,2184.243a.913.913,0,0,0,.444-.717.817.817,0,0,0-.9-.889,1,1,0,0,0-1.061.888.717.717,0,0,0,.323.717.968.968,0,0,0-.559.781c-.05.559.351.932,1,.932a1.06,1.06,0,0,0,1.161-.932.781.781,0,0,0-.422-.781m-.717,1.376c-.459,0-.717-.222-.681-.595s.323-.588.781-.588.717.222.717.588-.322.595-.781.595m.136-1.526c-.38,0-.616-.222-.587-.552a.616.616,0,0,1,.716-.552c.309,0,.624.144.587.552a.624.624,0,0,1-.717.552" transform="translate(-3827.621 -2030.968)" fill="#263238"/>
          <path id="Path_3432" data-name="Path 3432" d="M3326.958,158.024h-.351l-.079.967h-1.261l1.362-2.222h-.38l-1.39,2.25-.029.308h1.669l-.057.645h.344l.057-.645h.394l.029-.337h-.394Z" transform="translate(-3036.231 -5.043)" fill="#263238"/>
          <path id="Path_3433" data-name="Path 3433" d="M3330.818,158.024h-.344l-.086.967h-1.261l1.369-2.222h-.387l-1.383,2.25-.036.308h1.67l-.057.645h.344l.057-.645h.394l.029-.337h-.394Z" transform="translate(-3037.324 -5.043)" fill="#263238"/>
          <path id="Path_3434" data-name="Path 3434" d="M3334.678,158.024h-.344l-.086.967h-1.261l1.369-2.222h-.38l-1.39,2.25-.036.308h1.669l-.057.645h.344l.057-.645h.394l.036-.337h-.4Z" transform="translate(-3038.418 -5.043)" fill="#263238"/>
          <path id="Path_3435" data-name="Path 3435" d="M3338.452,158.992l.086-.967h-.344l-.086.967h-1.261l1.369-2.222h-.38l-1.39,2.25-.036.308h1.67l-.057.645h.344l.057-.645h.4l.029-.337Z" transform="translate(-3039.512 -5.043)" fill="#263238"/>
          <path id="Path_3436" data-name="Path 3436" d="M4085.188,2200.791a4.945,4.945,0,0,0-4.816,4.429l-.4,4.565a4,4,0,0,0,4.042,4.429H4115a4.944,4.944,0,0,0,4.815-4.429l.4-4.565a4,4,0,0,0-4.034-4.429Z" transform="translate(-3818.41 -2036.113)" fill="#fff"/>
          <path id="Path_3437" data-name="Path 3437" d="M4059.677,2205.25a4,4,0,0,0-4.042-4.422h-30.987a4.945,4.945,0,0,0-4.815,4.422l-.4,4.565a4,4,0,0,0,4.035,4.429h30.987a4.938,4.938,0,0,0,4.809-4.429Z" transform="translate(-3801.255 -2036.123)" fill="#fff"/>
          <path id="Path_3438" data-name="Path 3438" d="M4023.212,2169.451h83.216a.2.2,0,1,0,0-.4h-83.181a.2.2,0,1,0,0,.4" transform="translate(-3802.286 -2027.119)" fill="#5273b8"/>
          <path id="Path_3439" data-name="Path 3439" d="M4018.262,2226.011h83.217a.2.2,0,1,0,0-.4H4018.3a.2.2,0,1,0,0,.4" transform="translate(-3800.883 -2043.146)" fill="#5273b8"/>
          <path id="Path_3440" data-name="Path 3440" d="M4016.262,2248.841h83.216a.2.2,0,1,0,0-.4H4016.3a.2.2,0,1,0,0,.4" transform="translate(-3800.317 -2049.615)" fill="#5273b8"/>
          <path id="Path_3441" data-name="Path 3441" d="M4032.782,2182.759v-.322a.509.509,0,0,0-.516-.566h-5.21a.631.631,0,0,0-.616.566v.322Z" transform="translate(-3803.249 -2030.752)" fill="#5273b8"/>
          <path id="Path_3442" data-name="Path 3442" d="M4026.272,2184l-.215,2.458a.509.509,0,0,0,.516.566h5.21a.631.631,0,0,0,.616-.566l.215-2.458Z" transform="translate(-3803.138 -2031.355)" fill="#5273b8"/>
          <path id="Path_3443" data-name="Path 3443" d="M4034.262,2153.065a1.512,1.512,0,0,1-1.476,1.354,1.219,1.219,0,0,1-1.24-1.354,1.512,1.512,0,0,1,1.477-1.354,1.226,1.226,0,0,1,1.24,1.354" transform="translate(-3804.693 -2022.206)" fill="#263238"/>
          <path id="Path_3444" data-name="Path 3444" d="M4042.182,2153.065a1.512,1.512,0,0,1-1.476,1.354,1.219,1.219,0,0,1-1.24-1.354,1.512,1.512,0,0,1,1.477-1.354,1.225,1.225,0,0,1,1.24,1.354" transform="translate(-3806.938 -2022.206)" fill="#263238"/>
          <path id="Path_3445" data-name="Path 3445" d="M4050.113,2153.065a1.512,1.512,0,0,1-1.477,1.354,1.218,1.218,0,0,1-1.239-1.354,1.512,1.512,0,0,1,1.476-1.354,1.226,1.226,0,0,1,1.24,1.354" transform="translate(-3809.185 -2022.206)" fill="#263238"/>
          <path id="Path_3446" data-name="Path 3446" d="M4058.032,2153.064a1.512,1.512,0,0,1-1.476,1.354,1.218,1.218,0,0,1-1.24-1.354,1.512,1.512,0,0,1,1.477-1.354,1.219,1.219,0,0,1,1.24,1.354" transform="translate(-3811.429 -2022.206)" fill="#263238"/>
          <path id="Path_3447" data-name="Path 3447" d="M4065.923,2153.065a1.512,1.512,0,0,1-1.477,1.354,1.218,1.218,0,0,1-1.24-1.354,1.512,1.512,0,0,1,1.476-1.354,1.225,1.225,0,0,1,1.24,1.354" transform="translate(-3813.665 -2022.206)" fill="#263238"/>
          <path id="Path_3448" data-name="Path 3448" d="M4073.922,2153.064a1.512,1.512,0,0,1-1.476,1.354,1.219,1.219,0,0,1-1.24-1.354,1.512,1.512,0,0,1,1.477-1.354,1.218,1.218,0,0,1,1.24,1.354" transform="translate(-3815.931 -2022.206)" fill="#263238"/>
          <path id="Path_3449" data-name="Path 3449" d="M4081.812,2153.065a1.512,1.512,0,0,1-1.477,1.354,1.218,1.218,0,0,1-1.24-1.354,1.512,1.512,0,0,1,1.476-1.354,1.225,1.225,0,0,1,1.24,1.354" transform="translate(-3818.167 -2022.206)" fill="#263238"/>
          <path id="Path_3450" data-name="Path 3450" d="M3235.358,181.034h-1.548l.093-1.118h1.419l.029-.33h-1.419l.1-1.1h1.519l.036-.33h-1.877l-.28,3.2h1.892Z" transform="translate(-3010.332 -11.104)" fill="#263238"/>
          <path id="Path_3451" data-name="Path 3451" d="M3236.935,181.712l.8-.924.638.924h.408l-.817-1.2.968-1.125h-.409l-.745.867-.581-.846-.014-.021h-.408l.774,1.132-1.032,1.19Z" transform="translate(-3011.207 -11.452)" fill="#263238"/>
          <path id="Path_3452" data-name="Path 3452" d="M4035.6,2206.521a1.075,1.075,0,0,0-1.1-1.211,1.2,1.2,0,0,0-.932.43v-.38h-.33l-.279,3.211h.33l.107-1.261a1,1,0,0,0,.86.43,1.326,1.326,0,0,0,1.3-1.211m-1.14-.888a.788.788,0,0,1,.8.888.976.976,0,0,1-.96.889.788.788,0,0,1-.8-.889.975.975,0,0,1,.961-.888" transform="translate(-3805.098 -2037.393)" fill="#263238"/>
          <path id="Path_3453" data-name="Path 3453" d="M3244.931,179.39h-.33l-.2,2.322h.33Z" transform="translate(-3013.441 -11.452)" fill="#263238"/>
          <path id="Path_3454" data-name="Path 3454" d="M4037.8,2204.109a.258.258,0,0,0-.251.229.208.208,0,0,0,.215.229.258.258,0,0,0,.251-.229.2.2,0,0,0-.055-.164.208.208,0,0,0-.16-.066" transform="translate(-3806.396 -2037.053)" fill="#263238"/>
          <path id="Path_3455" data-name="Path 3455" d="M4039.165,2206.378a.716.716,0,0,1,.716-.717h.058v-.323h-.058a.889.889,0,0,0-.716.308v-.279h-.244l-.2,2.322h.329Z" transform="translate(-3806.729 -2037.401)" fill="#263238"/>
          <path id="Path_3456" data-name="Path 3456" d="M4042.779,2205.7a1.011,1.011,0,0,0-.86-.423,1.326,1.326,0,0,0-1.3,1.211,1.075,1.075,0,0,0,1.1,1.211,1.218,1.218,0,0,0,.932-.423v.373h.337l.2-2.322h-.337Zm-1.025,1.677a.788.788,0,0,1-.8-.889.974.974,0,0,1,.96-.888.788.788,0,0,1,.8.888.967.967,0,0,1-.953.889" transform="translate(-3807.262 -2037.384)" fill="#263238"/>
          <path id="Path_3457" data-name="Path 3457" d="M4045.651,2204.46l-.344.1-.05.537h-.487v.33h.487l-.122,1.383a.572.572,0,0,0,.143.5.637.637,0,0,0,.451.136,2.136,2.136,0,0,0,.3,0h.05v-.308h-.057a1.344,1.344,0,0,1-.523-.05.313.313,0,0,1-.05-.258l.122-1.383h.659v-.33h-.659Z" transform="translate(-3808.443 -2037.152)" fill="#263238"/>
          <path id="Path_3458" data-name="Path 3458" d="M4047.78,2204.109a.259.259,0,0,0-.251.23.208.208,0,0,0,.215.229.258.258,0,0,0,.25-.229.206.206,0,0,0-.055-.164.209.209,0,0,0-.16-.066" transform="translate(-3809.224 -2037.052)" fill="#263238"/>
          <path id="Path_3459" data-name="Path 3459" d="M3254.369,181.712h.33l.208-2.322h-.337Z" transform="translate(-3016.265 -11.452)" fill="#263238"/>
          <path id="Path_3460" data-name="Path 3460" d="M4049.943,2205.28a1.333,1.333,0,0,0-1.326,1.211,1.081,1.081,0,0,0,1.11,1.211,1.333,1.333,0,0,0,1.312-1.189,1.083,1.083,0,0,0-1.111-1.211m-.186,2.093a.789.789,0,0,1-.8-.889.975.975,0,0,1,.96-.889.788.788,0,0,1,.8.889.968.968,0,0,1-.954.889" transform="translate(-3809.531 -2037.385)" fill="#263238"/>
          <path id="Path_3461" data-name="Path 3461" d="M4053.959,2205.278a.975.975,0,0,0-.767.337v-.287h-.272l-.2,2.322h.33l.107-1.226a.789.789,0,0,1,.788-.824.5.5,0,0,1,.537.616l-.122,1.433h.337l.122-1.433a.788.788,0,0,0-.831-.939" transform="translate(-3810.695 -2037.383)" fill="#263238"/>
          <path id="Path_3462" data-name="Path 3462" d="M4059.678,2204.11h-1.219l-.279,3.211h1.218a1.7,1.7,0,0,0,1.656-1.605,1.376,1.376,0,0,0-1.376-1.605m-.251,2.866h-.874l.222-2.544h.874a1.081,1.081,0,0,1,1.061,1.268,1.333,1.333,0,0,1-1.283,1.269" transform="translate(-3812.243 -2037.053)" fill="#263238"/>
          <path id="Path_3463" data-name="Path 3463" d="M4064.921,2205.7a1.012,1.012,0,0,0-.86-.423,1.326,1.326,0,0,0-1.3,1.211,1.075,1.075,0,0,0,1.1,1.211,1.218,1.218,0,0,0,.931-.423v.373h.337l.2-2.322h-.337Zm-1.025,1.677a.788.788,0,0,1-.8-.889.974.974,0,0,1,.96-.888.788.788,0,0,1,.8.888.968.968,0,0,1-.953.889" transform="translate(-3813.537 -2037.384)" fill="#263238"/>
          <path id="Path_3464" data-name="Path 3464" d="M4068.788,2205.34l-.9,1.885-.717-1.878h-.358l.838,2.308-.05.093c-.1.193-.322.516-.645.487h-.007v.323h.107a1.117,1.117,0,0,0,.931-.717l1.2-2.494Z" transform="translate(-3814.688 -2037.402)" fill="#263238"/>
          <path id="Path_3465" data-name="Path 3465" d="M3232.689,185.864l.064.315.717-.222-.251,2.816h.344l.287-3.2h-.258Z" transform="translate(-3010.122 -13.203)" fill="#263238"/>
          <path id="Path_3466" data-name="Path 3466" d="M4029.087,2213.477a1.853,1.853,0,0,0,.717-1.082.838.838,0,0,0-.9-.946,1.176,1.176,0,0,0-1.039.609v.043l.279.179v-.057a.8.8,0,0,1,.717-.437.531.531,0,0,1,.573.609,1.549,1.549,0,0,1-.559.839l-1.24,1.168h0v.287h2.057v-.337h-1.534Z" transform="translate(-3803.589 -2039.132)" fill="#263238"/>
          <path id="Path_3467" data-name="Path 3467" d="M3237.95,189.042h.294l2.178-4.092h-.294Z" transform="translate(-3011.613 -13.028)" fill="#263238"/>
          <path id="Path_3468" data-name="Path 3468" d="M4035.66,2212.817l.789-1v-.294h-1.892v.33h1.433l-.838,1.053.122.208h.093a.638.638,0,0,1,.716.659.716.716,0,0,1-.788.659.653.653,0,0,1-.717-.444v-.065l-.308.172v.043a.946.946,0,0,0,.982.624,1.1,1.1,0,0,0,1.168-1,.853.853,0,0,0-.76-.96" transform="translate(-3805.468 -2039.153)" fill="#263238"/>
          <path id="Path_3469" data-name="Path 3469" d="M4039.356,2211.45c-.717,0-1.269.631-1.362,1.656s.322,1.648,1.068,1.648,1.269-.63,1.354-1.648-.323-1.656-1.068-1.656m-.258,2.967c-.544,0-.824-.494-.716-1.319s.437-1.319.982-1.319.824.494.717,1.319-.437,1.319-.982,1.319" transform="translate(-3806.519 -2039.133)" fill="#263238"/>
          <path id="Path_3470" data-name="Path 3470" d="M4087.426,2207.693a1.261,1.261,0,0,0,1.082-.588v-.05l-.265-.165v.05a.918.918,0,0,1-.788.43.781.781,0,0,1-.8-.889.96.96,0,0,1,.96-.889.717.717,0,0,1,.716.43v.057l.294-.165v-.043a.975.975,0,0,0-.96-.595,1.319,1.319,0,0,0-1.326,1.211,1.076,1.076,0,0,0,1.111,1.211" transform="translate(-3820.219 -2037.383)" fill="#263238"/>
          <path id="Path_3471" data-name="Path 3471" d="M3298.115,181.712l1.182-2.322h-.351l-.968,1.892-.631-1.892h-.358l.781,2.322Z" transform="translate(-3028.343 -11.452)" fill="#263238"/>
          <path id="Path_3472" data-name="Path 3472" d="M3302.837,179.39h-.358l-.96,1.9-.631-1.9h-.358l.781,2.322h.344Z" transform="translate(-3029.345 -11.452)" fill="#263238"/>
          <path id="Path_3473" data-name="Path 3473" d="M4087.126,2211.45c-.716,0-1.268.631-1.361,1.656s.322,1.648,1.068,1.648,1.268-.63,1.362-1.648-.323-1.656-1.068-1.656m-.258,2.967c-.545,0-.824-.494-.717-1.319s.437-1.319.982-1.319.824.494.717,1.319-.437,1.319-.982,1.319" transform="translate(-3820.056 -2039.133)" fill="#263238"/>
          <path id="Path_3474" data-name="Path 3474" d="M4091.275,2211.45c-.717,0-1.269.631-1.362,1.656s.323,1.648,1.068,1.648,1.268-.63,1.361-1.648-.323-1.656-1.068-1.656m-.258,2.967c-.544,0-.824-.494-.717-1.319s.437-1.319.982-1.319.824.494.717,1.319-.437,1.319-.982,1.319" transform="translate(-3821.23 -2039.133)" fill="#263238"/>
          <path id="Path_3475" data-name="Path 3475" d="M4095.456,2211.45c-.717,0-1.268.631-1.362,1.656s.323,1.648,1.068,1.648,1.269-.63,1.354-1.648-.322-1.656-1.067-1.656m-.258,2.967c-.545,0-.824-.494-.717-1.319s.437-1.319.982-1.319.824.494.717,1.319-.437,1.319-.982,1.319" transform="translate(-3822.416 -2039.133)" fill="#263238"/>
          <path id="Path_3476" data-name="Path 3476" d="M4050.188,2254.9a4.945,4.945,0,0,0-4.816,4.429l-.4,4.565a4,4,0,0,0,4.042,4.429H4080a4.945,4.945,0,0,0,4.816-4.429l.4-4.565a4,4,0,0,0-4.042-4.429Z" transform="translate(-3808.493 -2051.445)" fill="#5273b8"/>
          <path id="Path_3477" data-name="Path 3477" d="M4059.6,2261.623h-1.319l-.337,3.827h.394l.122-1.433h.96a1.312,1.312,0,0,0,1.319-1.2,1.068,1.068,0,0,0-1.1-1.2m-.179,2.036h-.925l.143-1.656h.924a.717.717,0,0,1,.717.831.881.881,0,0,1-.9.824" transform="translate(-3812.175 -2053.345)" fill="#fff"/>
          <path id="Path_3478" data-name="Path 3478" d="M4064.74,2263.55a1.2,1.2,0,0,0-1.039-.53,1.584,1.584,0,0,0-1.555,1.433,1.284,1.284,0,0,0,1.3,1.434,1.434,1.434,0,0,0,1.132-.531l-.043.466h.38l.244-2.766h-.38Zm-1.24,1.985a.961.961,0,0,1-.975-1.075,1.182,1.182,0,0,1,1.161-1.075.953.953,0,0,1,.968,1.075,1.176,1.176,0,0,1-1.161,1.075" transform="translate(-3813.364 -2053.746)" fill="#fff"/>
          <path id="Path_3479" data-name="Path 3479" d="M4068.247,2265.381l-.832-2.272H4067l1,2.759-.057.122c-.122.237-.38.624-.788.588h-.058v.358h.122a1.325,1.325,0,0,0,1.111-.853l1.433-2.974h-.408Z" transform="translate(-3814.742 -2053.771)" fill="#fff"/>
          <path id="Path_3480" data-name="Path 3480" d="M4074.814,2263.139l.122-1.433a.665.665,0,0,1,.552.48v.057l.351-.186v-.043a1.032,1.032,0,0,0-.874-.716l.043-.488h-.358l-.043.48a1.154,1.154,0,0,0-1.1,1.01c-.057.637.358.853.917,1.061l-.129,1.476a.781.781,0,0,1-.781-.581v-.065l-.358.194v.043a1.132,1.132,0,0,0,1.111.788l-.043.473h.358l.043-.48a1.2,1.2,0,0,0,1.125-1.054c.058-.645-.408-.881-.932-1.075m.538,1.075a.717.717,0,0,1-.717.667l.115-1.34c.387.151.6.315.573.674m-1.433-1.856a.716.716,0,0,1,.673-.631l-.114,1.283c-.395-.157-.588-.308-.559-.652" transform="translate(-3816.486 -2053.12)" fill="#fff"/>
          <path id="Path_3481" data-name="Path 3481" d="M3284.67,236.031l.072.351.86-.265-.294,3.383h.394l.33-3.82h-.294Z" transform="translate(-3024.852 -27.402)" fill="#fff"/>
          <path id="Path_3482" data-name="Path 3482" d="M4081.677,2263.953a2.213,2.213,0,0,0,.825-1.29,1,1,0,0,0-1.061-1.125,1.435,1.435,0,0,0-1.24.717v.043l.316.2v-.057a.967.967,0,0,1,.881-.53.645.645,0,0,1,.717.717,1.869,1.869,0,0,1-.674,1.01l-1.491,1.433h0v.33h2.444v-.38h-1.856Z" transform="translate(-3818.412 -2053.325)" fill="#fff"/>
          <path id="Path_3483" data-name="Path 3483" d="M4085.764,2261.55c-.9,0-1.512.752-1.62,1.971s.38,1.971,1.276,1.971,1.512-.753,1.619-1.971-.38-1.971-1.275-1.971m-.308,3.583c-.659,0-1-.595-.91-1.591s.53-1.591,1.19-1.591,1,.595.91,1.591-.53,1.591-1.189,1.591" transform="translate(-3819.596 -2053.329)" fill="#fff"/>
        </g>
        <g id="Group_148" data-name="Group 148" clip-path="url(#clip-path-2)">
          <path id="Path_3484" data-name="Path 3484" d="M3805.879,2237h44.633a3.583,3.583,0,0,1,3.447,3.125l7.109,67.658a2.759,2.759,0,0,1-2.795,3.125H3813.64Z" transform="translate(-3740.751 -2046.373)" fill="#5273b8"/>
          <g id="Group_119" data-name="Group 119" transform="translate(65.128 190.641)" opacity="0.5">
            <g id="Group_118" data-name="Group 118" clip-path="url(#clip-path-12)">
              <path id="Path_3485" data-name="Path 3485" d="M3805.879,2237h44.633a3.583,3.583,0,0,1,3.447,3.125l7.109,67.658a2.759,2.759,0,0,1-2.795,3.125H3813.64Z" transform="translate(-3805.879 -2237.014)" fill="#fff"/>
            </g>
          </g>
          <path id="Path_3486" data-name="Path 3486" d="M3927.411,2304.757l-6.45-61.574a7.016,7.016,0,0,0-6.808-6.163h-38.369a2.759,2.759,0,0,0-2.795,3.124l7.109,67.658a3.583,3.583,0,0,0,3.447,3.125h38.369a5.446,5.446,0,0,0,5.518-6.163" transform="translate(-3759.76 -2046.379)" fill="#5273b8"/>
          <g id="Group_121" data-name="Group 121" transform="translate(113.193 190.641)" opacity="0.5">
            <g id="Group_120" data-name="Group 120" clip-path="url(#clip-path-13)">
              <path id="Path_3487" data-name="Path 3487" d="M3927.411,2304.757l-6.45-61.574a7.016,7.016,0,0,0-6.808-6.163h-38.369a2.759,2.759,0,0,0-2.795,3.124l7.109,67.658a3.583,3.583,0,0,0,3.447,3.125h38.369a5.446,5.446,0,0,0,5.518-6.163" transform="translate(-3872.953 -2237.02)" fill="#fff"/>
            </g>
          </g>
          <path id="Path_3488" data-name="Path 3488" d="M3810.494,2243.183a7.016,7.016,0,0,0-6.815-6.163,5.446,5.446,0,0,0-5.518,6.163l6.45,61.574a7.017,7.017,0,0,0,6.808,6.163,5.446,5.446,0,0,0,5.518-6.163l-6.45-61.574" transform="translate(-3738.551 -2046.378)" fill="#5273b8"/>
          <g id="Group_123" data-name="Group 123" transform="translate(59.581 190.641)" opacity="0.4">
            <g id="Group_122" data-name="Group 122" clip-path="url(#clip-path-14)">
              <path id="Path_3489" data-name="Path 3489" d="M3810.494,2243.183a7.016,7.016,0,0,0-6.815-6.163,5.446,5.446,0,0,0-5.518,6.163l6.45,61.574a7.017,7.017,0,0,0,6.808,6.163,5.446,5.446,0,0,0,5.518-6.163l-6.45-61.574" transform="translate(-3798.132 -2237.02)" fill="#fff"/>
            </g>
          </g>
          <path id="Path_3490" data-name="Path 3490" d="M3830.311,2276.157h-41.085a12.326,12.326,0,0,0,0,24.652v45.765a3.468,3.468,0,0,0,3.469,3.461h46.482a3.468,3.468,0,0,0,3.469-3.462v-58.1a12.326,12.326,0,0,0-12.326-12.326" transform="translate(-3732.539 -2057.467)" fill="#5273b8"/>
          <g id="Group_125" data-name="Group 125" transform="translate(44.36 218.69)" opacity="0.3">
            <g id="Group_124" data-name="Group 124" clip-path="url(#clip-path-15)">
              <path id="Path_3491" data-name="Path 3491" d="M3830.311,2276.157h-41.085a12.326,12.326,0,0,0,0,24.652v45.765a3.468,3.468,0,0,0,3.469,3.461h46.482a3.468,3.468,0,0,0,3.469-3.462v-58.1a12.326,12.326,0,0,0-12.326-12.326" transform="translate(-3776.899 -2276.157)" fill="#fff"/>
            </g>
          </g>
          <path id="Path_3492" data-name="Path 3492" d="M3956.893,2276.157h41.085a12.326,12.326,0,0,1,0,24.652v45.765a3.469,3.469,0,0,1-3.461,3.461h-46.489a3.469,3.469,0,0,1-3.469-3.462v-58.1a12.326,12.326,0,0,1,12.326-12.326" transform="translate(-3780.047 -2057.467)" fill="#5273b8"/>
          <g id="Group_127" data-name="Group 127" transform="translate(164.512 218.69)" opacity="0.3">
            <g id="Group_126" data-name="Group 126" clip-path="url(#clip-path-15)">
              <path id="Path_3493" data-name="Path 3493" d="M3956.893,2276.157h41.085a12.326,12.326,0,0,1,0,24.652v45.765a3.469,3.469,0,0,1-3.461,3.461h-46.489a3.469,3.469,0,0,1-3.469-3.462v-58.1a12.326,12.326,0,0,1,12.326-12.326" transform="translate(-3944.559 -2276.157)" fill="#fff"/>
            </g>
          </g>
          <path id="Path_3494" data-name="Path 3494" d="M3846.556,2276.157a12.326,12.326,0,0,0,0,24.652v45.765a3.469,3.469,0,0,0,3.461,3.461h5.4a3.469,3.469,0,0,0,3.469-3.461v-58.1a12.326,12.326,0,0,0-12.326-12.326" transform="translate(-3748.784 -2057.467)" fill="#5273b8"/>
          <g id="Group_129" data-name="Group 129" transform="translate(85.445 218.69)" opacity="0.6">
            <g id="Group_128" data-name="Group 128" clip-path="url(#clip-path-17)">
              <path id="Path_3495" data-name="Path 3495" d="M3846.556,2276.157a12.326,12.326,0,0,0,0,24.652v45.765a3.469,3.469,0,0,0,3.461,3.461h5.4a3.469,3.469,0,0,0,3.469-3.461v-58.1a12.326,12.326,0,0,0-12.326-12.326" transform="translate(-3834.229 -2276.157)" fill="#fff"/>
            </g>
          </g>
          <path id="Path_3496" data-name="Path 3496" d="M4014.222,2276.157a12.326,12.326,0,0,1,0,24.652v45.765a3.468,3.468,0,0,1-3.469,3.461h-5.4a3.468,3.468,0,0,1-3.469-3.461v-58.1a12.326,12.326,0,0,1,12.326-12.326" transform="translate(-3796.292 -2057.467)" fill="#5273b8"/>
          <g id="Group_131" data-name="Group 131" transform="translate(205.597 218.69)" opacity="0.6">
            <g id="Group_130" data-name="Group 130" clip-path="url(#clip-path-17)">
              <path id="Path_3497" data-name="Path 3497" d="M4014.222,2276.157a12.326,12.326,0,0,1,0,24.652v45.765a3.468,3.468,0,0,1-3.469,3.461h-5.4a3.468,3.468,0,0,1-3.469-3.461v-58.1a12.326,12.326,0,0,1,12.326-12.326" transform="translate(-4001.889 -2276.157)" fill="#fff"/>
            </g>
          </g>
          <path id="Path_3498" data-name="Path 3498" d="M3951.479,2365.474h-77.863a5.017,5.017,0,0,1-5.016-5.017v-24.832a5.016,5.016,0,0,1,5.016-5.016h77.863a5.017,5.017,0,0,1,5.017,5.016v24.832a5.017,5.017,0,0,1-5.017,5.017" transform="translate(-3758.523 -2072.897)" fill="#5273b8"/>
          <g id="Group_133" data-name="Group 133" transform="translate(110.098 257.755)" opacity="0.4">
            <g id="Group_132" data-name="Group 132" clip-path="url(#clip-path-19)">
              <path id="Path_3499" data-name="Path 3499" d="M3951.479,2365.474h-77.863a5.017,5.017,0,0,1-5.016-5.017v-24.832a5.016,5.016,0,0,1,5.016-5.016h77.863a5.017,5.017,0,0,1,5.017,5.016v24.832a5.017,5.017,0,0,1-5.017,5.017" transform="translate(-3868.621 -2330.652)" fill="#fff"/>
            </g>
          </g>
          <path id="Path_3500" data-name="Path 3500" d="M3868.628,2330.37v-4.794a4.386,4.386,0,0,1,4.386-4.386h38.978a4.386,4.386,0,0,1,4.386,4.386v4.794a4.386,4.386,0,0,1-4.386,4.386h-38.978a4.386,4.386,0,0,1-4.386-4.386" transform="translate(-3758.531 -2070.229)" fill="#5273b8"/>
          <g id="Group_135" data-name="Group 135" transform="translate(110.098 250.975)" opacity="0.6">
            <g id="Group_134" data-name="Group 134" clip-path="url(#clip-path-20)">
              <path id="Path_3501" data-name="Path 3501" d="M3868.628,2330.37v-4.794a4.386,4.386,0,0,1,4.386-4.386h38.978a4.386,4.386,0,0,1,4.386,4.386v4.794a4.386,4.386,0,0,1-4.386,4.386h-38.978a4.386,4.386,0,0,1-4.386-4.386" transform="translate(-3868.628 -2321.205)" fill="#fff"/>
            </g>
          </g>
          <path id="Path_3502" data-name="Path 3502" d="M3935.261,2330.37v-4.794a4.386,4.386,0,0,1,4.386-4.386h38.978a4.386,4.386,0,0,1,4.386,4.386v4.794a4.386,4.386,0,0,1-4.386,4.386h-38.978a4.386,4.386,0,0,1-4.386-4.386" transform="translate(-3777.413 -2070.229)" fill="#5273b8"/>
          <g id="Group_137" data-name="Group 137" transform="translate(157.847 250.975)" opacity="0.6">
            <g id="Group_136" data-name="Group 136" clip-path="url(#clip-path-20)">
              <path id="Path_3503" data-name="Path 3503" d="M3935.261,2330.37v-4.794a4.386,4.386,0,0,1,4.386-4.386h38.978a4.386,4.386,0,0,1,4.386,4.386v4.794a4.386,4.386,0,0,1-4.386,4.386h-38.978a4.386,4.386,0,0,1-4.386-4.386" transform="translate(-3935.261 -2321.205)" fill="#fff"/>
            </g>
          </g>
          <path id="Path_3504" data-name="Path 3504" d="M3875.819,2273.33l.287,2.745c0,.2.344.208.322,0l-.287-2.745c0-.2-.344-.208-.323,0" transform="translate(-3760.569 -2056.625)" fill="#5273b8"/>
          <path id="Path_3505" data-name="Path 3505" d="M3873.6,2252.28l1.326,12.6c0,.2.344.208.322,0l-1.326-12.6c0-.2-.344-.208-.322,0" transform="translate(-3759.941 -2050.66)" fill="#5273b8"/>
          <g id="Group_139" data-name="Group 139" transform="translate(115.25 216.548)" opacity="0.3">
            <g id="Group_138" data-name="Group 138" clip-path="url(#clip-path-22)">
              <path id="Path_3506" data-name="Path 3506" d="M3875.819,2273.33l.287,2.745c0,.2.344.208.322,0l-.287-2.745c0-.2-.344-.208-.323,0" transform="translate(-3875.819 -2273.172)" fill="#fff"/>
            </g>
          </g>
          <g id="Group_141" data-name="Group 141" transform="translate(113.66 201.462)" opacity="0.3">
            <g id="Group_140" data-name="Group 140" clip-path="url(#clip-path-23)">
              <path id="Path_3507" data-name="Path 3507" d="M3873.6,2252.28l1.326,12.6c0,.2.344.208.322,0l-1.326-12.6c0-.2-.344-.208-.322,0" transform="translate(-3873.6 -2252.122)" fill="#fff"/>
            </g>
          </g>
          <path id="Path_3508" data-name="Path 3508" d="M3935.069,2366.035v2.336a.136.136,0,1,0,.272,0v-2.336a.136.136,0,1,0-.272,0" transform="translate(-3777.358 -2082.897)" fill="#5273b8"/>
          <path id="Path_3509" data-name="Path 3509" d="M3935.069,2350.076v8.908a.136.136,0,1,0,.272,0v-8.908a.136.136,0,1,0-.272,0" transform="translate(-3777.358 -2078.375)" fill="#5273b8"/>
          <g id="Group_143" data-name="Group 143" transform="translate(157.711 283.009)" opacity="0.2">
            <g id="Group_142" data-name="Group 142" clip-path="url(#clip-path-24)">
              <path id="Path_3510" data-name="Path 3510" d="M3935.069,2366.035v2.336a.136.136,0,1,0,.272,0v-2.336a.136.136,0,1,0-.272,0" transform="translate(-3935.069 -2365.906)" fill="#fff"/>
            </g>
          </g>
          <g id="Group_145" data-name="Group 145" transform="translate(157.711 271.571)" opacity="0.2">
            <g id="Group_144" data-name="Group 144" clip-path="url(#clip-path-25)">
              <path id="Path_3511" data-name="Path 3511" d="M3935.069,2350.076v8.908a.136.136,0,1,0,.272,0v-8.908a.136.136,0,1,0-.272,0" transform="translate(-3935.069 -2349.947)" fill="#fff"/>
            </g>
          </g>
          <path id="Path_3512" data-name="Path 3512" d="M3817.985,2293.36H3776.9a12.326,12.326,0,0,0,12.326,12.326h41.085a12.326,12.326,0,0,1-12.326-12.326" transform="translate(-3732.54 -2062.343)" fill="#5273b8"/>
          <g id="Group_147" data-name="Group 147" transform="translate(44.36 231.017)" opacity="0.2">
            <g id="Group_146" data-name="Group 146" clip-path="url(#clip-path-26)">
              <path id="Path_3513" data-name="Path 3513" d="M3817.985,2293.36H3776.9a12.326,12.326,0,0,0,12.326,12.326h41.085a12.326,12.326,0,0,1-12.326-12.326" transform="translate(-3776.9 -2293.36)" fill="#fff"/>
            </g>
          </g>
        </g>
        <g id="Group_173" data-name="Group 173" clip-path="url(#clip-path-2)">
          <path id="Path_3514" data-name="Path 3514" d="M3971.836,2228.123l-4.751.158a.66.66,0,0,1-.717-.717l.76-10.621a.846.846,0,0,1,.8-.767l4.751-.158a.66.66,0,0,1,.717.717l-.76,10.614a.846.846,0,0,1-.8.767" transform="translate(-3786.226 -2040.427)" fill="#5273b8"/>
          <path id="Path_3515" data-name="Path 3515" d="M3973.058,2228.083l-4.751.158a.659.659,0,0,1-.717-.717l.76-10.621a.845.845,0,0,1,.795-.767l4.752-.158a.652.652,0,0,1,.717.717l-.76,10.613a.846.846,0,0,1-.8.767" transform="translate(-3786.573 -2040.416)" fill="#5273b8"/>
          <path id="Path_3516" data-name="Path 3516" d="M3967.277,2227.59l.76-10.614a.845.845,0,0,1,.8-.767h-.889a.845.845,0,0,0-.8.767l-.76,10.614a.659.659,0,0,0,.717.717h.9a.66.66,0,0,1-.717-.717" transform="translate(-3786.232 -2040.482)" fill="#5273b8"/>
          <g id="Group_150" data-name="Group 150" transform="translate(180.149 175.721)" opacity="0.5">
            <g id="Group_149" data-name="Group 149" transform="translate(0 0)" clip-path="url(#clip-path-28)">
              <path id="Path_3517" data-name="Path 3517" d="M3967.277,2227.59l.76-10.614a.845.845,0,0,1,.8-.767h-.889a.845.845,0,0,0-.8.767l-.76,10.614a.659.659,0,0,0,.717.717h.9a.66.66,0,0,1-.717-.717" transform="translate(-3966.382 -2216.202)" fill="#fff"/>
            </g>
          </g>
          <path id="Path_3518" data-name="Path 3518" d="M3970.958,2217.67a.717.717,0,0,1-.717.674.573.573,0,0,1-.6-.631.716.716,0,0,1,.716-.674.573.573,0,0,1,.6.631" transform="translate(-3787.154 -2040.717)" fill="#263238"/>
          <path id="Path_3519" data-name="Path 3519" d="M3177.62,360.687l2.135,6.916,6.35-1.175-1.77-7.7Z" transform="translate(-2994.518 -62.27)" fill="#fab27a"/>
          <g id="Group_152" data-name="Group 152" transform="translate(183.869 298.768)" opacity="0.2">
            <g id="Group_151" data-name="Group 151" clip-path="url(#clip-path-29)">
              <path id="Path_3520" data-name="Path 3520" d="M3179.191,365.7l6.478-1.569-.5-2.179-6.479,2.136Z" transform="translate(-3178.689 -361.95)"/>
            </g>
          </g>
          <path id="Path_3521" data-name="Path 3521" d="M3984.466,2394.543a.186.186,0,0,1-.172-.107.179.179,0,0,1,.043-.2c.093-.093,2.286-2.15,3.583-2.085a.928.928,0,0,1,.638.272.666.666,0,0,1,.187.717c-.208.459-1.1.846-2,1.053a13.062,13.062,0,0,1-2.271.323m.5-.365c1.39-.151,3.218-.595,3.44-1.147a.362.362,0,0,0-.122-.365.487.487,0,0,0-.394-.158,1.186,1.186,0,0,0-.337.036,8.164,8.164,0,0,0-2.587,1.641" transform="translate(-3791.302 -2090.336)" fill="#5273b8"/>
          <path id="Path_3522" data-name="Path 3522" d="M3984.344,2394.031a.179.179,0,0,1-.115-.136c0-.093-.279-2.093.466-3.075a1.313,1.313,0,0,1,.888-.516c.487-.064.717.136.753.33.351.781-1.025,2.766-1.8,3.354a.1.1,0,0,1-.072,0,.165.165,0,0,1-.122,0m1.2-3.375a.917.917,0,0,0-.544.358,4.152,4.152,0,0,0-.437,2.451c.774-.717,1.627-2.243,1.434-2.73,0-.043-.072-.158-.387-.115Z" transform="translate(-3791.273 -2089.809)" fill="#5273b8"/>
          <path id="Path_3523" data-name="Path 3523" d="M3979.841,2394.29l-7.919,1.871a.659.659,0,0,0-.5.645l.093,6.78a1.089,1.089,0,0,0,1.1,1.082,1.061,1.061,0,0,0,.229,0c2.866-.717,5.346-1.483,8.9-2.315,4.192-.989,3.246-.237,8.2-1.333,2.981-.659,2.723-4.171,1.433-4.034-5.94.638-6.951-.96-9.66-2.5a2.622,2.622,0,0,0-1.856-.172" transform="translate(-3787.66 -2090.921)" fill="#263238"/>
          <path id="Path_3524" data-name="Path 3524" d="M3220.559,346.164l3.289,6.45,6.056-2.243-3.06-7.281Z" transform="translate(-3006.685 -57.838)" fill="#fab27a"/>
          <g id="Group_154" data-name="Group 154" transform="translate(215.057 287.438)" opacity="0.2">
            <g id="Group_153" data-name="Group 153" clip-path="url(#clip-path-30)">
              <path id="Path_3525" data-name="Path 3525" d="M3222.977,350.853l6.12-2.659-.867-2.064-6.02,3.218Z" transform="translate(-3222.21 -346.137)"/>
            </g>
          </g>
          <path id="Path_3526" data-name="Path 3526" d="M4028.573,2377.732a.186.186,0,0,1-.186-.079.172.172,0,0,1,0-.2c.079-.108,1.885-2.494,3.168-2.666a.923.923,0,0,1,.673.157.666.666,0,0,1,.315.717c-.129.487-.938,1.018-1.792,1.383a13.043,13.043,0,0,1-2.15.717m.43-.444c1.347-.387,3.067-1.14,3.2-1.72a.388.388,0,0,0-.187-.344.494.494,0,0,0-.416-.093,1.217,1.217,0,0,0-.33.093,8.16,8.16,0,0,0-2.265,2.057" transform="translate(-3803.792 -2085.414)" fill="#5273b8"/>
          <path id="Path_3527" data-name="Path 3527" d="M4028.355,2377.378a.178.178,0,0,1-.136-.115c0-.093-.638-2.021-.072-3.11a1.309,1.309,0,0,1,.788-.667c.466-.143.717,0,.8.2.473.717-.537,2.867-1.2,3.583a.1.1,0,0,1-.065,0,.166.166,0,0,1-.114.043m.6-3.533a.918.918,0,0,0-.473.445,4.157,4.157,0,0,0,0,2.494c.638-.867,1.219-2.487.975-2.938,0,0-.1-.143-.4-.043Z" transform="translate(-3803.667 -2085.031)" fill="#5273b8"/>
          <path id="Path_3528" data-name="Path 3528" d="M4023.994,2377.9l-7.482,3.2a.653.653,0,0,0-.387.717l1.247,6.665a1.09,1.09,0,0,0,1.268.881,1.125,1.125,0,0,0,.222-.064c2.68-1.2,5.017-2.372,8.37-3.806,3.963-1.691,3.16-.788,7.883-2.716,2.823-1.161,1.971-4.572.717-4.221-5.733,1.641-7.009.237-9.947-.81a2.622,2.622,0,0,0-1.856.15" transform="translate(-3800.323 -2086.224)" fill="#263238"/>
          <path id="Path_3529" data-name="Path 3529" d="M3926.091,2290.937s36.427-3.29,45.041,5.016,22.295,51.856,22.295,51.856l-9.675,4.3s-15.25-24.23-22.674-42.533c0,0-45.277,6.328-48.488-3.1l1.541-16.354Z" transform="translate(-3770.988 -2061.425)" fill="#5273b8"/>
          <path id="Path_3530" data-name="Path 3530" d="M3216.46,346.964l1.469,2.315,11.187-5.339-1.462-3.11Z" transform="translate(-3005.523 -57.197)" fill="#5273b8"/>
          <g id="Group_156" data-name="Group 156" transform="translate(210.944 283.64)" opacity="0.3">
            <g id="Group_155" data-name="Group 155" clip-path="url(#clip-path-31)">
              <path id="Path_3531" data-name="Path 3531" d="M3216.46,346.964l1.469,2.315,11.187-5.339-1.462-3.11Z" transform="translate(-3216.467 -340.837)"/>
            </g>
          </g>
          <path id="Path_3532" data-name="Path 3532" d="M3892.677,2290.163s-2.365,19.478,6.013,22.216,33.4-.215,33.4-.215.05,20.195,15.171,50.007l8.937-3.125s-5.267-50.488-9.452-57.332c-3-4.887-11.581-12.1-54.063-11.566" transform="translate(-3765.258 -2061.425)" fill="#5273b8"/>
          <path id="Path_3533" data-name="Path 3533" d="M3174.08,361.477l1.025,2.795,10.707-3.97-.81-2.7Z" transform="translate(-2993.514 -61.949)" fill="#5273b8"/>
          <g id="Group_158" data-name="Group 158" transform="translate(180.565 295.651)" opacity="0.3">
            <g id="Group_157" data-name="Group 157" clip-path="url(#clip-path-32)">
              <path id="Path_3534" data-name="Path 3534" d="M3174.08,361.477l1.025,2.795,10.707-3.97-.81-2.7Z" transform="translate(-3174.08 -357.6)"/>
            </g>
          </g>
          <g id="Group_160" data-name="Group 160" transform="translate(141.286 233.654)" opacity="0.1">
            <g id="Group_159" data-name="Group 159" clip-path="url(#clip-path-33)">
              <path id="Path_3535" data-name="Path 3535" d="M3953.826,2302.2c-6.249-6.88-33.6-4.88-41.687-4.916v.065c17.959,2.063,36.828.229,40.2,6.342a37.911,37.911,0,0,1,2.587,8.6c1.111-.122,1.383-.229,2.222-.33-1.226-5.074-.982-7.166-3.325-9.739" transform="translate(-3912.146 -2297.04)"/>
            </g>
          </g>
          <path id="Path_3536" data-name="Path 3536" d="M3926.12,2225.659s4.529-.15,9.782,12.706l5.919,11.581s8.026-5.447,12.441-12.376c0,0,.659-12.183,4.98-11.259a5.411,5.411,0,0,1,4,7.389,63.268,63.268,0,0,1-4.063,6.564s-10.463,18.016-17.235,18.246-13.452-12.936-13.452-12.936l-2.107-12.427Z" transform="translate(-3774.823 -2043.159)" fill="#fab27a"/>
          <path id="Path_3537" data-name="Path 3537" d="M3926.5,2225.251s4.722,1,8.413,11.029c0,0,1.383.3,1.283,2.279,0,0,2.308,8.055-4.149,14.032,0,0-1.354.079-1.906-2.15l-2.967-5.146-2.594-12.04-.151-4.4.215-3.855Z" transform="translate(-3774.343 -2042.973)" fill="#263238"/>
          <path id="Path_3538" data-name="Path 3538" d="M3926.5,2225.251s4.722,1,8.413,11.029c0,0,1.383.3,1.283,2.279,0,0,2.308,8.055-4.149,14.032,0,0-1.354.079-1.906-2.15l-2.967-5.146-2.594-12.04-.151-4.4.215-3.855Z" transform="translate(-3774.343 -2042.973)" fill="#f99f3b"/>
          <path id="Path_3539" data-name="Path 3539" d="M3963.48,2244.046a12.183,12.183,0,0,1,3.941,3.01l1.29-1.354s-.989-2.15-4.486-2.752Z" transform="translate(-3785.409 -2048.059)" fill="#5273b8"/>
          <g id="Group_162" data-name="Group 162" transform="translate(178.071 194.891)" opacity="0.7">
            <g id="Group_161" data-name="Group 161" transform="translate(0 0)" clip-path="url(#clip-path-34)">
              <path id="Path_3540" data-name="Path 3540" d="M3963.48,2244.046a12.183,12.183,0,0,1,3.941,3.01l1.29-1.354s-.989-2.15-4.486-2.752Z" transform="translate(-3963.48 -2242.95)" fill="#fff"/>
            </g>
          </g>
          <path id="Path_3541" data-name="Path 3541" d="M3970.9,2247.982a1.729,1.729,0,0,1-2.243.86,1.757,1.757,0,0,1-.157-2.4,1.731,1.731,0,0,1,2.243-.86,1.756,1.756,0,0,1,.157,2.4" transform="translate(-3786.722 -2048.756)" fill="#5273b8"/>
          <path id="Path_3542" data-name="Path 3542" d="M3970.854,2248a1.161,1.161,0,1,1-.122-1.864,1.346,1.346,0,0,1,.122,1.864" transform="translate(-3786.957 -2048.91)" fill="#263238"/>
          <g id="Group_164" data-name="Group 164" transform="translate(152.122 199.04)" opacity="0.3">
            <g id="Group_163" data-name="Group 163" transform="translate(0 0)" clip-path="url(#clip-path-35)">
              <path id="Path_3543" data-name="Path 3543" d="M3927.27,2248.718l.717,3.261,2.967,5.145c.552,2.25,1.906,2.15,1.906,2.15a14.068,14.068,0,0,0,2.917-3.777c-2.243-3.69-6.35-5.869-8.493-6.808" transform="translate(-3927.27 -2248.725)" fill="#f6852a"/>
            </g>
          </g>
          <path id="Path_3544" data-name="Path 3544" d="M3917.578,2225.948a12.719,12.719,0,0,0-6-3.805l-1.828,4.543-2.924,1.125-2.329-.645-2.071-1-2.351-3.5-.315-2.078a54.924,54.924,0,0,0-8.7.967c-15.286,2.867-2.257,50.566-2.257,50.566,24.645,4.8,34.348-1.856,34.348-1.856-3.254-8.958-3.146-41.013-5.575-44.317" transform="translate(-3762.783 -2041.721)" fill="#f99f3b"/>
          <g id="Group_166" data-name="Group 166" transform="translate(120.862 186.649)" opacity="0.3">
            <g id="Group_165" data-name="Group 165" transform="translate(0 0)" clip-path="url(#clip-path-36)">
              <path id="Path_3545" data-name="Path 3545" d="M3892.5,2231.45l-8.32,3.046a50.876,50.876,0,0,0-.43,10.233c11.294-1.863,8.75-13.279,8.75-13.279" transform="translate(-3883.653 -2231.45)" fill="#f6852a"/>
            </g>
          </g>
          <path id="Path_3546" data-name="Path 3546" d="M3931.2,2185.48s2.565,1.942,1.813,3.92c0,0,1.663,4.3-1.67,4.149,0,0-3.683-3.067-.143-8.069" transform="translate(-3775.826 -2031.775)" fill="#263238"/>
          <path id="Path_3547" data-name="Path 3547" d="M3914.285,2222.943l2.078-2.107,1.584-2.866c-.5-.172-1.032-.337-1.6-.494l.473-6.765-7.883-4.629s.251,8.6-1.677,10.334c-.4.365-.38,0-.953,0l.932,3.583,2.96,3.684Z" transform="translate(-3769.208 -2037.612)" fill="#fab27a"/>
          <path id="Path_3548" data-name="Path 3548" d="M3906.4,2220.26s2.2,5.518,5.647,6.694c0,0-1.727,4.959-4.3,2.208s-2.867-8.851-2.867-8.851Z" transform="translate(-3768.803 -2041.629)" fill="#5273b8"/>
          <g id="Group_168" data-name="Group 168" transform="translate(136.083 178.63)" opacity="0.7">
            <g id="Group_167" data-name="Group 167" clip-path="url(#clip-path-37)">
              <path id="Path_3549" data-name="Path 3549" d="M3906.4,2220.26s2.2,5.518,5.647,6.694c0,0-1.727,4.959-4.3,2.208s-2.867-8.851-2.867-8.851Z" transform="translate(-3904.886 -2220.26)" fill="#fff"/>
            </g>
          </g>
          <path id="Path_3550" data-name="Path 3550" d="M3913.847,2227.775s3.842-.781,5.368-5.626l1.713.717s-.674,7.6-3.375,7.474a4.4,4.4,0,0,1-3.712-2.566" transform="translate(-3771.343 -2042.165)" fill="#5273b8"/>
          <g id="Group_170" data-name="Group 170" transform="translate(142.504 179.985)" opacity="0.7">
            <g id="Group_169" data-name="Group 169" transform="translate(0 0)" clip-path="url(#clip-path-38)">
              <path id="Path_3551" data-name="Path 3551" d="M3913.847,2227.775s3.842-.781,5.368-5.626l1.713.717s-.674,7.6-3.375,7.474a4.4,4.4,0,0,1-3.712-2.566" transform="translate(-3913.847 -2222.149)" fill="#fff"/>
            </g>
          </g>
          <g id="Group_172" data-name="Group 172" transform="translate(139.652 169.092)" opacity="0.2">
            <g id="Group_171" data-name="Group 171" clip-path="url(#clip-path-39)">
              <path id="Path_3552" data-name="Path 3552" d="M3909.86,2206.949s.179,6.177,7.668,8.3l.251-3.533Z" transform="translate(-3909.868 -2206.949)"/>
            </g>
          </g>
          <path id="Path_3553" data-name="Path 3553" d="M3925.986,2192.807c.832,7.009-1.075,13-6.88,13.688s-10.391-3.813-11.222-10.821.989-13.709,6.794-14.4,10.477,4.522,11.308,11.531" transform="translate(-3769.601 -2030.566)" fill="#fab27a"/>
          <path id="Path_3554" data-name="Path 3554" d="M3907.137,2192.9a12.9,12.9,0,0,0,1.992-6.644s2.3-.272,2.867-1.512c0,0,7.166,3.01,10.355.566,0,0,6.45-2.021,1.806-5.6,0,0,.924-2.8-2.959-4.142s-6.156-.258-6.156-.258-3.254-2.222-6.916,1c0,0-6.45.681-5.411,5.131,0,0-3.583,1.054-2.15,4.393a3.583,3.583,0,0,0,.38,4.615s0,5.482,3.54,5.7c0,0,3.24,5.353,2.666-3.254" transform="translate(-3767.392 -2028.68)" fill="#263238"/>
          <path id="Path_3555" data-name="Path 3555" d="M3909.677,2199.312c.824,1.3.717,2.831-.194,3.418s-2.35,0-3.175-1.283-.717-2.831.194-3.418,2.351,0,3.175,1.283" transform="translate(-3769.05 -2035.266)" fill="#fab27a"/>
          <path id="Path_3556" data-name="Path 3556" d="M3903.373,2179.053c.194-.157,0-.487-.208-.33a3.027,3.027,0,0,0-1.29,3.225,2.522,2.522,0,0,0-2.53.043c-.208.143,0,.466.208.33a2.1,2.1,0,0,1,2.056-.065,3.324,3.324,0,0,0-2.257,1.971c-.115.222.229.409.344.187.559-1.1,1.684-2.329,2.823-1.484a3.428,3.428,0,0,0,.272.237.2.2,0,0,0,.265-.287,2.7,2.7,0,0,0-.286-.258c-1.111-1.139-.6-2.594.609-3.583" transform="translate(-3767.211 -2029.848)" fill="#263238"/>
          <path id="Path_3557" data-name="Path 3557" d="M3922.5,2199.845c.072.451.38.781.673.717s.473-.437.4-.889-.38-.788-.717-.717-.473.437-.394.889" transform="translate(-3773.78 -2035.59)" fill="#263238"/>
          <path id="Path_3558" data-name="Path 3558" d="M3929.666,2199.882c.072.451.373.781.674.717s.473-.437.4-.9-.38-.781-.716-.717-.473.437-.395.9" transform="translate(-3775.81 -2035.599)" fill="#263238"/>
          <path id="Path_3559" data-name="Path 3559" d="M3927.46,2200.86a17.366,17.366,0,0,0,2.824,3.583,2.652,2.652,0,0,1-2.1.717Z" transform="translate(-3775.202 -2036.133)" fill="#ec883e"/>
          <path id="Path_3560" data-name="Path 3560" d="M3925.026,2209.335a3.913,3.913,0,0,1-2.867-1.139.136.136,0,0,1,.194-.186h0a3.741,3.741,0,0,0,3.175,1.01.136.136,0,0,1,.086.258h-.05a3.367,3.367,0,0,1-.538.05" transform="translate(-3773.693 -2038.151)" fill="#263238"/>
          <path id="Path_3561" data-name="Path 3561" d="M3920.989,2196.866a.229.229,0,0,1-.05-.43h0a2.608,2.608,0,0,1,2.429-.33.265.265,0,0,1,.136.352h0a.266.266,0,0,1-.351.136h0a2.078,2.078,0,0,0-1.892.251.251.251,0,0,1-.272,0" transform="translate(-3773.318 -2034.74)" fill="#263238"/>
          <path id="Path_3562" data-name="Path 3562" d="M3931.132,2196.755a.258.258,0,0,0,.107-.072.264.264,0,0,0,.03-.2.268.268,0,0,0-.123-.163h0a2.608,2.608,0,0,0-2.451-.1.265.265,0,0,0-.108.358h0a.265.265,0,0,0,.358.107h0a2.078,2.078,0,0,1,1.906.072.251.251,0,0,0,.272,0" transform="translate(-3775.513 -2034.743)" fill="#263238"/>
          <path id="Path_3563" data-name="Path 3563" d="M3879.337,2223.709s-20.36-1.813-33.388,4.794c0,0-2.1,4.178.251,7.539s10.291,16.834,10.291,16.834l1.1,6.45s-.509,3.841,1.433,5.117,6.772-1.118,7.059-3.2-4.149-10.621-4.149-10.621-4.708-13.752-6.536-16.963c0,0,17.952,1.806,24.259-.122,0,0,3.5-3.3-.33-9.84" transform="translate(-3751.861 -2042.542)" fill="#fab27a"/>
          <path id="Path_3564" data-name="Path 3564" d="M3888.213,2222.588a50.408,50.408,0,0,0-10.033-.05s-.717-.824-2.437.466a22.561,22.561,0,0,1-.144,11.172,3.693,3.693,0,0,0,2.63.172s7.381,2.15,10.857-.208c2.4-1.612,5.017-5.683-.838-11.552" transform="translate(-3760.507 -2042.202)" fill="#f99f3b"/>
        </g>
      </g>
    </g>
  </g>
</svg>
