<svg xmlns="http://www.w3.org/2000/svg" width="347.445" height="278.115" viewBox="0 0 347.445 278.115">
  <g id="_6_svg" data-name="6_svg" transform="translate(-4070.261 5826.115) rotate(180)">
    <path id="Path_4026" data-name="Path 4026" d="M2150.681,1357.521c48.594-18.04,97.984-2.091,131.482,32.648,16.754,17.375,42.713,11.371,69.145,5.369s53.3-12,71.932,5.337c25.444,23.669,13.79,84.522-21.1,110.88-47.417,35.819-191.63,17.644-222.83,11.548-35.94-7.025-62.215-28.335-72.89-54.2-25.722-62.322,22.781-103.609,44.256-111.582" transform="translate(-6516.12 4235.346)" fill="#e1e8f5"/>
    <g id="Layer_2" data-name="Layer 2" transform="translate(-4417.709 5548)">
      <g id="Layer_2-2" data-name="Layer 2" transform="translate(0.003 1)">
        <ellipse id="Ellipse_227" data-name="Ellipse 227" cx="29.446" cy="6.509" rx="29.446" ry="6.509" transform="translate(125.477 215.566)"/>
        <line id="Line_328" data-name="Line 328" x1="16.54" y2="51.767" transform="translate(138.383 222.075)" fill="none" stroke="#000" stroke-linecap="round" stroke-miterlimit="10" stroke-width="4"/>
        <line id="Line_329" data-name="Line 329" x2="16.54" y2="51.767" transform="translate(154.923 222.075)" fill="none" stroke="#000" stroke-linecap="round" stroke-miterlimit="10" stroke-width="4"/>
        <line id="Line_330" data-name="Line 330" y1="11.823" x2="18.439" transform="translate(143.814 245.022)" fill="none" stroke="#000" stroke-linecap="round" stroke-miterlimit="10" stroke-width="2"/>
        <line id="Line_331" data-name="Line 331" x2="18.444" y2="11.823" transform="translate(147.519 245.022)" fill="none" stroke="#000" stroke-linecap="round" stroke-miterlimit="10" stroke-width="2"/>
        <path id="Path_1967" data-name="Path 1967" d="M393.67,356.86c-.075,2.3-.042,10.335-.42,13.774" transform="translate(-209.767 -190.821)" fill="none" stroke="#1f161e" stroke-linecap="round" stroke-miterlimit="10" stroke-width="1"/>
        <rect id="Rectangle_435" data-name="Rectangle 435" width="5.907" height="16.102" rx="2.953" transform="translate(83.265 61.416)"/>
        <circle id="Ellipse_228" data-name="Ellipse 228" cx="5.926" cy="5.926" r="5.926" transform="translate(80.293 82.805)" fill="#fbdc8e"/>
        <path id="Path_1968" data-name="Path 1968" d="M595.314,315.745h2.8a1.115,1.115,0,0,0,1.11-1.11V297.427a1.1,1.1,0,0,0-.327-.784l-3.537-3.537a1.106,1.106,0,0,0-.784-.327H584.13a1.115,1.115,0,0,0-1.11,1.11v1.661" transform="translate(-310.993 -156.64)" fill="#fbdc8e"/>
        <path id="Path_1969" data-name="Path 1969" d="M68.882,429.93c8.865,1.68,7.283,54.59-9.733,51.39C43.08,478.268,58.067,427.872,68.882,429.93Z" transform="translate(-27.796 -229.765)" fill="#499075"/>
        <path id="Path_1970" data-name="Path 1970" d="M2.166,443.658c7.055-3.994,36.585,33.165,23.077,40.807C12.482,491.716-6.424,448.529,2.166,443.658Z" transform="translate(-0.003 -236.961)" fill="#a6c86b"/>
        <path id="Path_1971" data-name="Path 1971" d="M55.417,565.134H37.6a2.916,2.916,0,0,1-2.9-2.594l-2.249-20.194a2.921,2.921,0,0,1,2.9-3.266H57.573a2.916,2.916,0,0,1,2.9,3.229L58.319,562.5A2.921,2.921,0,0,1,55.417,565.134Z" transform="translate(-17.303 -288.02)" fill="#969696"/>
        <path id="Path_1972" data-name="Path 1972" d="M80.615,385.716c6.751,1.96,1.577,42.8-11.352,39.039C57.058,421.209,72.4,383.327,80.615,385.716Z" transform="translate(-34.523 -206.156)" fill="#2a4d3c"/>
        <path id="Path_1973" data-name="Path 1973" d="M94.114,454.753c4.666,4.022-14.315,34.789-23.283,27.062C62.363,474.55,88.417,449.863,94.114,454.753Z" transform="translate(-36.889 -242.7)" fill="#a6c86b"/>
        <path id="Path_1974" data-name="Path 1974" d="M49.465,394.94c10.106,0,19.359,64.529,0,64.529C31.184,459.469,37.161,394.94,49.465,394.94Z" transform="translate(-20.211 -211.134)" fill="#499075"/>
        <rect id="Rectangle_436" data-name="Rectangle 436" width="39.333" height="7.223" rx="3.611" transform="translate(9.545 246.692)" fill="#d8d8d8"/>
        <path id="Path_1975" data-name="Path 1975" d="M586.125,298.72H575.86a1.251,1.251,0,0,0-1.25,1.255v20.436a1.255,1.255,0,0,0,1.25,1.255h13.713a1.255,1.255,0,0,0,1.25-1.255V303.428a1.251,1.251,0,0,0-.364-.887l-3.453-3.453A1.251,1.251,0,0,0,586.125,298.72Z" transform="translate(-306.507 -159.809)" fill="#d8d8d8"/>
        <path id="Path_1976" data-name="Path 1976" d="M604.585,302.938H601.1a.7.7,0,0,1-.7-.7V298.72" transform="translate(-320.264 -159.809)" fill="#969696"/>
        <path id="Path_1977" data-name="Path 1977" d="M612.99,297H609.5a.709.709,0,0,1-.7-.7V292.78" transform="translate(-324.745 -156.64)" fill="#64ccc4"/>
        <rect id="Rectangle_437" data-name="Rectangle 437" width="26.885" height="10.685" rx="3.03" transform="translate(242.646 115.55)" fill="#78e5e1"/>
        <path id="Path_1978" data-name="Path 1978" d="M545.148,276.038l3.238-9.808H541.91Z" transform="translate(-289.065 -142.478)" fill="#78e5e1"/>
        <path id="Path_1979" data-name="Path 1979" d="M532,254.75l-2.715,4.7h5.426Z" transform="translate(-282.328 -136.354)" fill="#fff"/>
        <path id="Path_1980" data-name="Path 1980" d="M559.505,259.448l2.716-4.7H556.79Z" transform="translate(-297.002 -136.354)" fill="#fff"/>
        <circle id="Ellipse_229" data-name="Ellipse 229" cx="2.039" cy="2.039" r="2.039" transform="translate(254.045 118.708)" fill="#fff"/>
        <rect id="Rectangle_438" data-name="Rectangle 438" width="18.262" height="12.019" rx="2.65" transform="translate(236.963 92.906)" fill="#d8d8d8"/>
        <line id="Line_332" data-name="Line 332" x2="8.557" y2="5.632" transform="translate(237.537 93.284)" fill="none" stroke="#969696" stroke-linecap="round" stroke-linejoin="round" stroke-width="0.82"/>
        <line id="Line_333" data-name="Line 333" x1="9.131" y2="6.01" transform="translate(246.094 92.906)" fill="none" stroke="#969696" stroke-linecap="round" stroke-linejoin="round" stroke-width="0.82"/>
        <circle id="Ellipse_230" data-name="Ellipse 230" cx="2.613" cy="2.613" r="2.613" transform="translate(252.612 90.293)" fill="#fbdc8e"/>
        <text id="_1" data-name="1" transform="translate(254.469 92.181)" fill="#fff" font-size="2" font-family="SegoeUI-Bold, Segoe UI" font-weight="700"><tspan x="0" y="0">1</tspan></text>
        <rect id="Rectangle_439" data-name="Rectangle 439" width="69.269" height="1.502" rx="0.751" transform="translate(278.176 100.236)" fill="#d8d8d8"/>
        <rect id="Rectangle_440" data-name="Rectangle 440" width="6.528" height="29.833" rx="2.56" transform="translate(302.191 70.403)" fill="#969696"/>
        <rect id="Rectangle_441" data-name="Rectangle 441" width="3.266" height="22.839" rx="1.633" transform="translate(308.719 77.397)" fill="#d8d8d8"/>
        <rect id="Rectangle_442" data-name="Rectangle 442" width="3.266" height="22.839" rx="1.633" transform="translate(311.985 77.397)" fill="#969696"/>
        <rect id="Rectangle_443" data-name="Rectangle 443" width="3.266" height="22.839" rx="1.633" transform="translate(314.623 79.967) rotate(-24.66)" fill="#d8d8d8"/>
        <circle id="Ellipse_231" data-name="Ellipse 231" cx="1.824" cy="1.824" r="1.824" transform="translate(303.628 89.038)" fill="#d8d8d8"/>
        <rect id="Rectangle_444" data-name="Rectangle 444" width="4.181" height="0.877" rx="0.439" transform="translate(303.362 93.779)" fill="#d8d8d8"/>
        <rect id="Rectangle_445" data-name="Rectangle 445" width="4.181" height="0.877" rx="0.439" transform="translate(303.362 96.023)" fill="#d8d8d8"/>
        <rect id="Rectangle_446" data-name="Rectangle 446" width="4.181" height="0.877" rx="0.439" transform="translate(269.936 141.02)" fill="#969696"/>
        <rect id="Rectangle_447" data-name="Rectangle 447" width="4.181" height="0.877" rx="0.439" transform="translate(269.936 143.129)" fill="#969696"/>
        <rect id="Rectangle_448" data-name="Rectangle 448" width="12.938" height="0.877" rx="0.439" transform="translate(269.745 146.736)" fill="#969696"/>
        <rect id="Rectangle_449" data-name="Rectangle 449" width="12.938" height="0.877" rx="0.439" transform="translate(269.745 148.808)" fill="#969696"/>
        <rect id="Rectangle_450" data-name="Rectangle 450" width="12.938" height="0.877" rx="0.439" transform="translate(269.745 150.879)" fill="#969696"/>
        <rect id="Rectangle_451" data-name="Rectangle 451" width="0.681" height="16.62" rx="0.341" transform="translate(310.011 80.504)" fill="#969696"/>
        <rect id="Rectangle_452" data-name="Rectangle 452" width="5.244" height="2.324" rx="1.162" transform="translate(292.281 100.987)" fill="#d8d8d8"/>
        <rect id="Rectangle_453" data-name="Rectangle 453" width="5.244" height="2.324" rx="1.162" transform="translate(328.096 100.987)" fill="#d8d8d8"/>
        <rect id="Rectangle_454" data-name="Rectangle 454" width="28.233" height="19.508" rx="9.754" transform="translate(199.296 103.26)" fill="#d8d8d8"/>
        <rect id="Rectangle_455" data-name="Rectangle 455" width="4.246" height="13.228" transform="translate(205.137 106.4)" fill="#ab8de5"/>
        <rect id="Rectangle_456" data-name="Rectangle 456" width="4.246" height="4.433" transform="translate(211.291 115.2)" fill="#ab8de5"/>
        <rect id="Rectangle_457" data-name="Rectangle 457" width="4.246" height="8.161" transform="translate(217.441 111.467)" fill="#ab8de5"/>
        <path id="Path_1981" data-name="Path 1981" d="M164.36,152.88a17.865,17.865,0,0,0-17.87,17.865h35.74A17.866,17.866,0,0,0,164.36,152.88Z" transform="translate(-78.141 -82.015)" fill="#ab8de5"/>
        <line id="Line_334" data-name="Line 334" y1="64.818" transform="translate(86.219)" fill="none" stroke="#000" stroke-linecap="round" stroke-linejoin="round" stroke-width="2"/>
        <path id="Path_1982" data-name="Path 1982" d="M485,574.68c0,1.106-.648,8.081.644,8.725s15.5,1.036,16.144.387,1.031-2,.467-2.389-6.066-1.484-6.812-2a6.222,6.222,0,0,1-1.4-4.722" transform="translate(-258.623 -307.01)" fill="#1f161e"/>
        <path id="Path_1983" data-name="Path 1983" d="M315.828,312.92l8-2.87c-.345-14.59-3.756-47.19-8.6-52.038-1.138-1.134-23.656-3.112-27.673-3.112-23.973,0-31.084,2.734-32.89,4.545-5.6,5.6-7.344,31.541-7.344,40.625s25.662,13.8,25.662,13.8l30.081,2.067s6.6.681,12.3,1.017C315.493,315.2,315.828,312.92,315.828,312.92Z" transform="translate(-131.926 -136.434)" fill="#f99f3b"/>
        <path id="Path_1984" data-name="Path 1984" d="M445.22,395.2c2.188-.649,23.95-4.2,28.69.467s19.662,71.56,19.662,73.1H481.558l-16.219-34.905" transform="translate(-237.489 -210.26)" fill="#0a0b13"/>
        <path id="Path_1985" data-name="Path 1985" d="M271.036,384.085c-.546,2.729-3.826,5.66-3.826,20.53,0,20.562,16.844,21,22.891,21,18.841,0,49.323-5.6,51.38-6.625,1.367,2.286,26.53,53.657,26.647,54.8h11.585s-7.181-76.856-20.138-85.571C355.366,385.419,280.7,382.424,271.036,384.085Z" transform="translate(-142.535 -205.089)" fill="#77a0d4"/>
        <path id="Path_1986" data-name="Path 1986" d="M406.178,352.41c-3.042,0-5.552.723-12.439,2.076l-.359,13.176c6.532-2.632,8.049-6.29,9.943-6.29,4.731,0,7.2,2.44,10,2.44,1.95,0,5.459-1.53,5.459-3.611C418.781,355.844,409.948,352.41,406.178,352.41Z" transform="translate(-209.836 -188.448)" fill="#f8cdba"/>
        <path id="Path_1987" data-name="Path 1987" d="M524.374,553.07c0,1.11-.649,8.081.644,8.73s15.5,1.031,16.144.387,1.031-2,.467-2.389-6.066-1.489-6.812-2.006a6.222,6.222,0,0,1-1.4-4.722" transform="translate(-279.624 -295.483)" fill="#1f161e"/>
        <path id="Path_1988" data-name="Path 1988" d="M330.964,245.2c0,1.759-10.214,1.81-10.214,0V230.89h10.214Z" transform="translate(-171.094 -123.627)" fill="#f8cdba"/>
        <path id="Path_1989" data-name="Path 1989" d="M327.637,236.813c-.933,0-6.887,2.632-6.887,4.1V233.15C322.234,233.15,327.637,236.813,327.637,236.813Z" transform="translate(-171.094 -124.833)" fill="#1f161e"/>
        <circle id="Ellipse_232" data-name="Ellipse 232" cx="12.364" cy="12.364" r="12.364" transform="translate(146.152 87.858)" fill="#f8cdba"/>
        <path id="Path_1990" data-name="Path 1990" d="M335.037,180.886c-1.53,2.431-4.731,3.546-8.2,3.546-2.953,0-7.255-.859-10.316.887-1.656.933-3.555,3.056-3.938,7.307,0,.728-.826,3.551-.826,4.461,0,.621-.7,1.026-1.866,1.026a2.447,2.447,0,0,1-1.792-2.464c0-1.722.686-2.333.686-3.793S307,188.99,307,184.931c0-5.846,3.733-9.448,6.374-9.448,2.408,0,3.163.56,3.467.8,0-5.314,7-7.741,9.775-7.741,3.173,0,4.666,1.3,4.666,2.958a8.1,8.1,0,0,1-1.9,5.389,7.838,7.838,0,0,1,5.272-2.011c3.635,0,4.857,2.389,4.857,4.022,0,3.551-4.26,6.84-5.846,6.84a16.945,16.945,0,0,0-1.4-2.422" transform="translate(-163.76 -90.369)" fill="#1f161e"/>
        <circle id="Ellipse_233" data-name="Ellipse 233" cx="2.636" cy="2.636" r="2.636" transform="translate(146.572 99.219)" fill="#f8cdba"/>
        <ellipse id="Ellipse_234" data-name="Ellipse 234" cx="2.044" cy="1.064" rx="2.044" ry="1.064" transform="translate(168.958 100.362)" fill="#fa9e9f"/>
        <ellipse id="Ellipse_235" data-name="Ellipse 235" cx="2.044" cy="1.064" rx="2.044" ry="1.064" transform="translate(156.104 100.362)" fill="#fa9e9f"/>
        <path id="Path_1991" data-name="Path 1991" d="M355.8,213.65c.383.546,2.333,2.837.275,3.765" transform="translate(-189.791 -114.431)" fill="none" stroke="#1f161e" stroke-linecap="round" stroke-miterlimit="10" stroke-width="1"/>
        <path id="Path_1992" data-name="Path 1992" d="M345.2,225.791a3.468,3.468,0,0,1-2.062-1.451" transform="translate(-183.038 -120.133)" fill="none" stroke="#1f161e" stroke-linecap="round" stroke-miterlimit="10" stroke-width="1"/>
        <path id="Path_1993" data-name="Path 1993" d="M382.5,298.62c.933,1.983,5.436,21.113,5.436,27.174" transform="translate(-204.033 -159.755)" fill="none" stroke="#1f161e" stroke-linecap="round" stroke-miterlimit="10" stroke-width="1"/>
        <path id="Path_1994" data-name="Path 1994" d="M247.32,348.41c0,21.5.2,27.743,8.832,27.743,19.9,0,49.971-16.33,55.332-16.33,4.736,0,7.209,2.445,10,2.445,1.946,0,5.454-1.535,5.454-3.611,0-4.363-8.832-7.8-12.6-7.8-8.478,0-42.31,8.175-43.136,8.175s-2.216-.359-2.216-1.75c0-2.524,1.652-8.357,1.866-8.865Z" transform="translate(-131.926 -186.314)" fill="#f8cdba"/>
        <path id="Path_1995" data-name="Path 1995" d="M302.11,308.21c-.569,1.638-5.007,18.561-5.52,20.623" transform="translate(-158.207 -164.871)" fill="none" stroke="#1f161e" stroke-linecap="round" stroke-miterlimit="10" stroke-width="1"/>
        <rect id="Rectangle_458" data-name="Rectangle 458" width="4.778" height="98.729" rx="2.389" transform="matrix(-0.967, 0.254, -0.254, -0.967, 317.588, 275.328)" fill="#969696"/>
        <rect id="Rectangle_459" data-name="Rectangle 459" width="4.778" height="98.729" rx="2.389" transform="matrix(0.967, 0.254, -0.254, 0.967, 284.218, 179.846)" fill="#969696"/>
        <rect id="Rectangle_460" data-name="Rectangle 460" width="4.778" height="98.729" rx="2.389" transform="matrix(0.967, 0.254, -0.254, 0.967, 251.254, 179.846)" fill="#3c405f"/>
        <rect id="Rectangle_461" data-name="Rectangle 461" width="4.786" height="98.897" rx="2.393" transform="translate(284.21 273.679) rotate(165.548)" fill="#3c405f"/>
        <rect id="Rectangle_462" data-name="Rectangle 462" width="4.778" height="98.729" rx="2.389" transform="matrix(0.967, 0.254, -0.254, 0.967, 116.682, 179.849)" fill="#969696"/>
        <rect id="Rectangle_463" data-name="Rectangle 463" width="4.778" height="98.729" rx="2.389" transform="matrix(-0.967, 0.254, -0.254, -0.967, 149.645, 275.335)" fill="#969696"/>
        <rect id="Rectangle_464" data-name="Rectangle 464" width="235.266" height="7.069" rx="3.534" transform="translate(69.786 175.968)" fill="#8e9dcb"/>
        <rect id="Rectangle_465" data-name="Rectangle 465" width="4.778" height="98.729" rx="2.389" transform="matrix(0.967, 0.254, -0.254, 0.967, 82.54, 179.85)" fill="#3c405f"/>
        <rect id="Rectangle_466" data-name="Rectangle 466" width="4.778" height="98.729" rx="2.389" transform="matrix(-0.967, 0.254, -0.254, -0.967, 115.502, 275.335)" fill="#3c405f"/>
        <path id="Path_1996" data-name="Path 1996" d="M470.934,344.838H427.77l7.82-26.894a3.14,3.14,0,0,1,3.023-2.235H475.24a3.089,3.089,0,0,1,3.023,3.924Z" transform="translate(-228.181 -168.871)"/>
        <circle id="Ellipse_236" data-name="Ellipse 236" cx="2.641" cy="2.641" r="2.641" transform="translate(223.829 158.76)" fill="#fff"/>
        <rect id="Rectangle_467" data-name="Rectangle 467" width="30.286" height="1.89" transform="translate(174.431 174.078)"/>
      </g>
    </g>
  </g>
</svg>
