<svg xmlns="http://www.w3.org/2000/svg" xmlns:xlink="http://www.w3.org/1999/xlink" width="352" height="352" viewBox="0 0 352 352">
  <defs>
    <clipPath id="clip-path">
      <rect id="Rectangle_757" data-name="Rectangle 757" width="352" height="352" transform="translate(-293.83 -408.34)" fill="none"/>
    </clipPath>
    <clipPath id="clip-path-2">
      <rect id="Rectangle_703" data-name="Rectangle 703" width="352" height="352" transform="translate(0 0)" fill="none"/>
    </clipPath>
    <clipPath id="clip-path-5">
      <rect id="Rectangle_723" data-name="Rectangle 723" width="35.653" height="35.515" fill="none"/>
    </clipPath>
    <clipPath id="clip-path-6">
      <rect id="Rectangle_724" data-name="Rectangle 724" width="20.143" height="35.516" fill="none"/>
    </clipPath>
    <clipPath id="clip-path-8">
      <rect id="Rectangle_726" data-name="Rectangle 726" width="71.225" height="11.669" fill="none"/>
    </clipPath>
    <clipPath id="clip-path-9">
      <rect id="Rectangle_727" data-name="Rectangle 727" width="69.648" height="7.022" fill="none"/>
    </clipPath>
    <clipPath id="clip-path-11">
      <rect id="Rectangle_731" data-name="Rectangle 731" width="33.554" height="40.714" fill="none"/>
    </clipPath>
    <clipPath id="clip-path-14">
      <rect id="Rectangle_738" data-name="Rectangle 738" width="44.59" height="41.665" fill="none"/>
    </clipPath>
    <clipPath id="clip-path-16">
      <rect id="Rectangle_740" data-name="Rectangle 740" width="36.369" height="34.109" fill="none"/>
    </clipPath>
    <clipPath id="clip-path-17">
      <rect id="Rectangle_741" data-name="Rectangle 741" width="15.99" height="7.98" fill="none"/>
    </clipPath>
    <clipPath id="clip-path-18">
      <rect id="Rectangle_742" data-name="Rectangle 742" width="6.808" height="6.775" fill="none"/>
    </clipPath>
    <clipPath id="clip-path-19">
      <rect id="Rectangle_743" data-name="Rectangle 743" width="5.545" height="5.524" fill="none"/>
    </clipPath>
    <clipPath id="clip-path-21">
      <rect id="Rectangle_747" data-name="Rectangle 747" width="6.172" height="11.122" fill="none"/>
    </clipPath>
    <clipPath id="clip-path-22">
      <rect id="Rectangle_748" data-name="Rectangle 748" width="9.75" height="15.974" fill="none"/>
    </clipPath>
    <clipPath id="clip-path-23">
      <rect id="Rectangle_749" data-name="Rectangle 749" width="7.271" height="8.077" fill="none"/>
    </clipPath>
    <clipPath id="clip-path-24">
      <rect id="Rectangle_750" data-name="Rectangle 750" width="11.587" height="10.053" fill="none"/>
    </clipPath>
    <clipPath id="clip-path-25">
      <rect id="Rectangle_751" data-name="Rectangle 751" width="11.699" height="62.615" fill="none"/>
    </clipPath>
    <clipPath id="clip-path-26">
      <rect id="Rectangle_752" data-name="Rectangle 752" width="25.397" height="2.87" fill="none"/>
    </clipPath>
    <clipPath id="clip-path-27">
      <rect id="Rectangle_753" data-name="Rectangle 753" width="4.705" height="6.22" fill="none"/>
    </clipPath>
    <clipPath id="clip-path-28">
      <rect id="Rectangle_754" data-name="Rectangle 754" width="9.171" height="12.905" fill="none"/>
    </clipPath>
    <clipPath id="clip-path-29">
      <rect id="Rectangle_755" data-name="Rectangle 755" width="9.767" height="12.529" fill="none"/>
    </clipPath>
  </defs>
  <g id="_7_svg" data-name="7_svg" transform="translate(455 1785) rotate(180)">
    <path id="Path_4024" data-name="Path 4024" d="M386.587,111.456c0-31.693-26.408-66.468-59.278-68.589l-1.747-.1c-47.119-2.17-50.705,55.269-93.326,61.753s-75.187-26.24-126.2-4.883C60.217,118.83,47.808,226.562,182.414,230.881,290.114,234.337,386.6,206.085,386.587,111.456Z" transform="translate(37.545 1464.692)" fill="#e1e8f5"/>
    <g id="Untitled-6" transform="translate(396.83 1841.34)" clip-path="url(#clip-path)">
      <g id="Group_278" data-name="Group 278" transform="translate(-293.83 -408.34)">
        <g id="Group_230" data-name="Group 230" transform="translate(0 0)" clip-path="url(#clip-path-2)">
          <path id="Path_3771" data-name="Path 3771" d="M3709.35,3291.05c75.415,0,136.551,3.569,136.551,7.974S3784.767,3307,3709.35,3307s-136.551-3.57-136.551-7.974,61.134-7.974,136.551-7.974" transform="translate(-3533.283 -2995.294)" fill="#f5f5f5"/>
        </g>
        <g id="Group_231" data-name="Group 231" transform="translate(0 0)" clip-path="url(#clip-path-2)">
          <path id="Path_3772" data-name="Path 3772" d="M3590.351,810.358H3454.364a4.021,4.021,0,0,1-4.014-4.021V615.177a4.021,4.021,0,0,1,4.014-3.987h135.988a4.021,4.021,0,0,1,4.022,4.022V806.337a4.022,4.022,0,0,1-4.021,4.021M3454.364,611.331a3.845,3.845,0,0,0-3.838,3.846v191.16a3.845,3.845,0,0,0,3.838,3.845h135.988a3.853,3.853,0,0,0,3.846-3.845V615.177a3.854,3.854,0,0,0-3.846-3.846Z" transform="translate(-3422.457 -569.829)" fill="#e5e5e5"/>
          <path id="Path_3773" data-name="Path 3773" d="M5195.01,810.358h-136a4.03,4.03,0,0,1-4.022-4.021V615.177a4.03,4.03,0,0,1,4.022-3.987h136a4.021,4.021,0,0,1,4.007,3.987v191.16a4.021,4.021,0,0,1-4.007,4.021m-136-199.027a3.854,3.854,0,0,0-3.847,3.846v191.16a3.854,3.854,0,0,0,3.847,3.845h136a3.853,3.853,0,0,0,3.846-3.845V615.177a3.853,3.853,0,0,0-3.846-3.846Z" transform="translate(-4874.771 -569.829)" fill="#e5e5e5"/>
          <path id="Path_3774" data-name="Path 3774" d="M3682.789,1476.6l-.965,82.8c-3.407,27.543-52.237,49.412-52.237,49.412s-48.827-21.869-52.236-49.412l-1.021-82.8,52.189-17.182Z" transform="translate(-3536.478 -1337.538)" fill="#f5f5f5"/>
          <path id="Path_3775" data-name="Path 3775" d="M3740.868,1552.8l-.841,74.329c-2.97,24.017-45.558,43.1-45.558,43.1s-42.587-19.072-45.557-43.1l-.891-74.329,45.516-14.982Z" transform="translate(-3601.363 -1408.495)" fill="#dfdfdf"/>
          <path id="Path_3776" data-name="Path 3776" stroke="#fff" d="M3764.694,1611.109l-.788,68.233c-2.785,22.52-42.71,40.4-42.71,40.4s-39.924-17.881-42.709-40.4l-.836-68.233,42.671-14.049Z" fill="none" transform="translate(-3628.18 -1462.112)" stroke-linecap="round" stroke-linejoin="round" stroke-width="3" stroke-dasharray="0 33"/>
          <rect id="Rectangle_704" data-name="Rectangle 704" width="93.938" height="164.828" transform="translate(216.171 111.126)" fill="#f5f5f5"/>
          <rect id="Rectangle_705" data-name="Rectangle 705" width="80.178" height="158.35" transform="translate(223.11 117.604)" fill="#dfdfdf"/>
          <path id="Path_3777" data-name="Path 3777" d="M5520.356,3069.75a1.01,1.01,0,0,1-.408-.084.98.98,0,0,1-.338-.225.943.943,0,0,1-.232-.345,1.093,1.093,0,0,1-.078-.4,1.055,1.055,0,0,1,1.26-1.036c.063.015.134.036.2.056a1.478,1.478,0,0,1,.183.095,1.628,1.628,0,0,1,.162.133.764.764,0,0,1,.127.162.753.753,0,0,1,.095.183.968.968,0,0,1,.064.2,1.023,1.023,0,0,1,.021.2.976.976,0,0,1-.084.4,1.012,1.012,0,0,1-.225.345,1.068,1.068,0,0,1-.747.309" transform="translate(-5295.006 -2793.091)" fill="#fff"/>
          <path id="Path_3778" data-name="Path 3778" d="M5519.31,1806.013a1.055,1.055,0,1,1,.309.748,1.057,1.057,0,0,1-.309-.748m0-25.938a1.055,1.055,0,1,1,.309.748,1.057,1.057,0,0,1-.309-.748m0-25.946a1.056,1.056,0,1,1,.31.747,1.057,1.057,0,0,1-.31-.747m0-25.945a1.057,1.057,0,1,1,1.057,1.057,1.057,1.057,0,0,1-1.057-1.057m0-25.938a1.055,1.055,0,1,1,.309.748,1.057,1.057,0,0,1-.309-.748" transform="translate(-5295.014 -1556.357)" fill="#fff"/>
          <path id="Path_3779" data-name="Path 3779" d="M5520.4,1429.972a1.043,1.043,0,0,1-.746-.309.731.731,0,0,1-.134-.162,1.412,1.412,0,0,1-.1-.176.74.74,0,0,1-.056-.2,1.023,1.023,0,0,1-.021-.2,1.068,1.068,0,0,1,.31-.746.954.954,0,0,1,.155-.134.892.892,0,0,1,.183-.095,1.1,1.1,0,0,1,.2-.064,1.027,1.027,0,0,1,.416,0,1.067,1.067,0,0,1,.2.064.882.882,0,0,1,.183.095,1.543,1.543,0,0,1,.163.134,1.068,1.068,0,0,1,.309.746,1.023,1.023,0,0,1-.021.2,1.239,1.239,0,0,1-.064.2.831.831,0,0,1-.1.176.721.721,0,0,1-.126.162,1.068,1.068,0,0,1-.747.309" transform="translate(-5295.051 -1308.971)" fill="#fff"/>
          <path id="Path_3780" data-name="Path 3780" d="M5809.283,1428.927a1.055,1.055,0,1,1,.309.748,1.057,1.057,0,0,1-.309-.748m-25.143,0a1.055,1.055,0,1,1,.309.748,1.057,1.057,0,0,1-.309-.748" transform="translate(-5534.705 -1308.983)" fill="#fff"/>
          <path id="Path_3781" data-name="Path 3781" d="M6314.927,1430.072a1,1,0,0,1-.2-.021,1.586,1.586,0,0,1-.2-.056,1.488,1.488,0,0,1-.183-.095,1.6,1.6,0,0,1-.163-.134,1.055,1.055,0,0,1,0-1.492.951.951,0,0,1,.163-.127.661.661,0,0,1,.183-.095.927.927,0,0,1,.2-.064,1.034,1.034,0,0,1,.416,0,1.291,1.291,0,0,1,.2.064.623.623,0,0,1,.175.095.739.739,0,0,1,.163.127,1.054,1.054,0,0,1-.166,1.626,1.331,1.331,0,0,1-.175.095c-.071.021-.134.043-.2.056a1.078,1.078,0,0,1-.211.021" transform="translate(-6014.149 -1309.071)" fill="#fff"/>
          <path id="Path_3782" data-name="Path 3782" d="M6313.871,1806.014a1.054,1.054,0,1,1,.309.748,1.056,1.056,0,0,1-.309-.748m0-25.938a1.054,1.054,0,1,1,.309.748,1.056,1.056,0,0,1-.309-.748m0-25.946a1.053,1.053,0,1,1,.308.748,1.056,1.056,0,0,1-.308-.748m0-25.945a1.055,1.055,0,1,1,.309.748,1.057,1.057,0,0,1-.309-.748m0-25.938a1.055,1.055,0,1,1,.309.748,1.057,1.057,0,0,1-.309-.748" transform="translate(-6014.148 -1556.357)" fill="#fff"/>
          <path id="Path_3783" data-name="Path 3783" d="M6314.926,3069.776a1.057,1.057,0,0,1-.747-1.8,1.686,1.686,0,0,1,.162-.133,1.484,1.484,0,0,1,.184-.095,1.877,1.877,0,0,1,.2-.056,1.034,1.034,0,0,1,.416,0c.063.015.133.036.2.056a1.454,1.454,0,0,1,.176.095,1.112,1.112,0,0,1,.162.133,1.057,1.057,0,0,1,.31.747,1.031,1.031,0,0,1-.31.746,1.057,1.057,0,0,1-.746.309" transform="translate(-6014.147 -2793.117)" fill="#fff"/>
          <rect id="Rectangle_706" data-name="Rectangle 706" width="29.023" height="0.176" transform="translate(37.882 276.222)" fill="#dfdfdf"/>
          <rect id="Rectangle_707" data-name="Rectangle 707" width="29.108" height="0.176" transform="translate(96.957 274.814)" fill="#dfdfdf"/>
          <rect id="Rectangle_708" data-name="Rectangle 708" width="7.043" height="0.176" transform="translate(156.896 274.814)" fill="#dfdfdf"/>
          <rect id="Rectangle_709" data-name="Rectangle 709" width="32.573" height="0.176" transform="translate(60.975 280.828)" fill="#dfdfdf"/>
          <rect id="Rectangle_710" data-name="Rectangle 710" width="15.212" height="0.176" transform="translate(190.998 276.13)" fill="#dfdfdf"/>
          <rect id="Rectangle_711" data-name="Rectangle 711" width="19.67" height="0.176" transform="translate(212.478 276.13)" fill="#dfdfdf"/>
          <rect id="Rectangle_712" data-name="Rectangle 712" width="43.975" height="0.176" transform="translate(283.039 279.109)" fill="#dfdfdf"/>
          <path id="Path_3784" data-name="Path 3784" d="M1128.522,49.161H1096.08l1.768-20.221h32.444Z" transform="translate(-964.138 12.57)" fill="#eaeaea"/>
          <path id="Path_3785" data-name="Path 3785" d="M1130.329,0l-.888,10.56-.888,12.687h-31.2L1099.124,0Z" transform="translate(-965.288 38.763)" fill="#fafafb"/>
          <path id="Path_3786" data-name="Path 3786" d="M1104.021,14.47l1.769,20.22h-32.441l-1.769-20.22h2.759l.961-1.52h8.739l1.251,1.52Z" transform="translate(-941.964 27.042)" fill="#dfdfdf"/>
          <rect id="Rectangle_713" data-name="Rectangle 713" width="34.522" height="34.521" transform="translate(180.145 66.246)" fill="#eaeaea"/>
          <rect id="Rectangle_714" data-name="Rectangle 714" width="0.88" height="34.521" transform="translate(214.667 66.246)" fill="#dfdfdf"/>
          <rect id="Rectangle_715" data-name="Rectangle 715" width="28.143" height="28.142" transform="translate(183.331 69.438)" fill="#f5f5f5"/>
          <rect id="Rectangle_716" data-name="Rectangle 716" width="0.257" height="28.142" transform="translate(183.338 69.438)" fill="#dfdfdf"/>
          <path id="Path_3787" data-name="Path 3787" d="M5181,957.78c0,3.86,2.457,6.99,5.487,6.99s5.485-3.133,5.485-6.99-2.456-6.99-5.485-6.99-5.487,3.133-5.487,6.99" transform="translate(-4988.82 -877.191)" fill="#dfdfdf"/>
          <rect id="Rectangle_717" data-name="Rectangle 717" width="5.783" height="5.783" transform="translate(194.8 85.326)" fill="#dfdfdf"/>
          <path id="Path_3788" data-name="Path 3788" d="M5125.48,1119.918h21.186v-1.969a6.788,6.788,0,0,0-6.79-6.789h-7.606a6.789,6.789,0,0,0-6.79,6.79Z" transform="translate(-4938.57 -1022.338)" fill="#dfdfdf"/>
          <path id="Path_3789" data-name="Path 3789" d="M5119.87,1071.953c0,1.152,2.089,2.088,2.089,2.088s2.088-.934,2.088-2.088c0-.547-.768-.854-1.261-.715a1.524,1.524,0,0,0-.825.8,2.768,2.768,0,0,0-1.035-.848.791.791,0,0,0-1.052.768" transform="translate(-4933.493 -986.118)" fill="#dfdfdf"/>
          <path id="Path_3790" data-name="Path 3790" d="M5317.317,1015.468c0,1.513,2.74,2.74,2.74,2.74s2.738-1.226,2.738-2.74c0-.718-1.007-1.123-1.654-.938a2,2,0,0,0-1.085,1.044,3.633,3.633,0,0,0-1.357-1.114,1.039,1.039,0,0,0-1.382,1.008" transform="translate(-5112.195 -934.765)" fill="#dfdfdf"/>
          <path id="Path_3791" data-name="Path 3791" d="M4682.12,2781.493c.322,2.035,1.8,3.789,1.91,5.847.089,1.608-.665,3.126-1.037,4.693s-.19,3.521,1.186,4.353a3.125,3.125,0,0,0,3.177-.19,7.321,7.321,0,0,0,2.223-2.462,22.848,22.848,0,0,0,3.417-11.6,8.117,8.117,0,0,0-1.191-4.96c-3.167-4.355-10.482-.752-9.683,4.318" transform="translate(-4537.245 -2528.434)" fill="#f5f5f5"/>
          <path id="Path_3792" data-name="Path 3792" d="M4650.191,2748.833a2.224,2.224,0,0,0,1.133.664,1.611,1.611,0,0,0,1.555-.3,1.849,1.849,0,0,0,.353-1.486,3.525,3.525,0,0,0-.639-1.8,1.969,1.969,0,0,0-1.667-.814,1.392,1.392,0,0,0-1.282,1.226,4.322,4.322,0,0,0,.546,2.514" transform="translate(-4507.899 -2501.158)" fill="#f5f5f5"/>
          <path id="Path_3793" data-name="Path 3793" d="M4693.862,2733.972a1.373,1.373,0,0,0-1.37-.6,1.314,1.314,0,0,0-1.015,1.087,4.189,4.189,0,0,0-.023.513,3.941,3.941,0,0,0,.089.822,1.537,1.537,0,0,0,.362.727,1.68,1.68,0,0,0,.878.447,1.3,1.3,0,0,0,1.172-.291,1.676,1.676,0,0,0,.372-1.234,2.647,2.647,0,0,0-.465-1.473" transform="translate(-4545.745 -2490.533)" fill="#f5f5f5"/>
          <path id="Path_3794" data-name="Path 3794" d="M4730.553,2732.991a1.015,1.015,0,0,0-1.234-.465,1.483,1.483,0,0,0-.873,1.066,3.365,3.365,0,0,0-.051.464,2.823,2.823,0,0,0,.052.75,1.179,1.179,0,0,0,.361.64,1.33,1.33,0,0,0,.733.3,1.171,1.171,0,0,0,.941-.308,1.714,1.714,0,0,0,.423-1.121,2.149,2.149,0,0,0-.352-1.321" transform="translate(-4579.174 -2489.73)" fill="#f5f5f5"/>
          <path id="Path_3795" data-name="Path 3795" d="M4763.413,2740.82c-.344-.517-.736-.552-1.1-.332a1.866,1.866,0,0,0-.73,1.044,3.051,3.051,0,0,0-.081.414,2.042,2.042,0,0,0,.015.678.891.891,0,0,0,.362.554.943.943,0,0,0,.584.143,1.115,1.115,0,0,0,.711-.326,1.849,1.849,0,0,0,.475-1.011,1.7,1.7,0,0,0-.241-1.168" transform="translate(-4609.128 -2496.881)" fill="#f5f5f5"/>
          <path id="Path_3796" data-name="Path 3796" d="M4787.463,2762.339a1.18,1.18,0,0,0-.019.513.549.549,0,0,0,.3.393.759.759,0,0,0,.775-.3,1.822,1.822,0,0,0,.445-.759,1.1,1.1,0,0,0-.108-.854c-.641-1.021-1.29.507-1.4,1.011" transform="translate(-4632.605 -2515.55)" fill="#f5f5f5"/>
          <path id="Path_3797" data-name="Path 3797" d="M4695.2,3259.049a8.11,8.11,0,0,0,.122-5.1c-1.942-5.021-9.939-3.417-10.466,1.689Z" transform="translate(-4539.777 -2958.952)" fill="#f5f5f5"/>
          <path id="Path_3798" data-name="Path 3798" d="M4671.637,3206.152a2.225,2.225,0,0,0,.925.932,1.614,1.614,0,0,0,1.582.108,1.847,1.847,0,0,0,.723-1.346,3.488,3.488,0,0,0-.157-1.9,1.983,1.983,0,0,0-1.4-1.215,1.393,1.393,0,0,0-1.553.854,4.321,4.321,0,0,0-.118,2.569" transform="translate(-4527.668 -2915.338)" fill="#f5f5f5"/>
          <path id="Path_3799" data-name="Path 3799" d="M4718.025,3202.754a1.362,1.362,0,0,0-1.169-.932,1.315,1.315,0,0,0-1.26.79,4.124,4.124,0,0,0-.154.49,3.862,3.862,0,0,0-.125.817,1.54,1.54,0,0,0,.163.8,1.681,1.681,0,0,0,.732.658,1.3,1.3,0,0,0,1.209.021,1.665,1.665,0,0,0,.675-1.1,2.629,2.629,0,0,0-.072-1.542" transform="translate(-4567.341 -2914.534)" fill="#f5f5f5"/>
          <path id="Path_3800" data-name="Path 3800" d="M4753.707,3211.3a1.014,1.014,0,0,0-1.071-.767,1.487,1.487,0,0,0-1.117.807,3.649,3.649,0,0,0-.17.435,2.843,2.843,0,0,0-.142.739,1.179,1.179,0,0,0,.184.711,1.321,1.321,0,0,0,.631.475,1.173,1.173,0,0,0,.989-.056,1.71,1.71,0,0,0,.7-.975,2.146,2.146,0,0,0,0-1.367" transform="translate(-4599.825 -2922.415)" fill="#f5f5f5"/>
          <path id="Path_3801" data-name="Path 3801" d="M4783.437,3227.3c-.2-.588-.569-.722-.975-.6a1.865,1.865,0,0,0-.975.824,2.957,2.957,0,0,0-.185.379,2.015,2.015,0,0,0-.159.665.885.885,0,0,0,.208.627.947.947,0,0,0,.527.285,1.119,1.119,0,0,0,.771-.133,1.838,1.838,0,0,0,.718-.854,1.693,1.693,0,0,0,.068-1.191" transform="translate(-4626.919 -2937.015)" fill="#f5f5f5"/>
          <path id="Path_3802" data-name="Path 3802" d="M4802,3253.736a1.205,1.205,0,0,0-.15.49.549.549,0,0,0,.19.458.757.757,0,0,0,.825-.089,1.821,1.821,0,0,0,.625-.62,1.1,1.1,0,0,0,.116-.854c-.358-1.151-1.376.16-1.614.618" transform="translate(-4645.656 -2960.549)" fill="#f5f5f5"/>
          <path id="Path_3803" data-name="Path 3803" d="M4398.239,2977.81c.253,2.045-.676,4.139-.217,6.146.36,1.57,1.506,2.819,2.3,4.222s1.162,3.33.066,4.51a3.129,3.129,0,0,1-3.1.7,7.24,7.24,0,0,1-2.818-1.75,22.871,22.871,0,0,1-6.493-10.2,8.132,8.132,0,0,1-.228-5.1c1.836-5.062,9.865-3.625,10.5,1.469" transform="translate(-4270.573 -2707.607)" fill="#f5f5f5"/>
          <path id="Path_3804" data-name="Path 3804" d="M4480.246,2927.237a2.233,2.233,0,0,1-.905.949,1.6,1.6,0,0,1-1.578.14,1.849,1.849,0,0,1-.752-1.329,3.5,3.5,0,0,1,.116-1.906,1.98,1.98,0,0,1,1.376-1.245,1.394,1.394,0,0,1,1.571.822,4.31,4.31,0,0,1,.171,2.563" transform="translate(-4351.589 -2662.925)" fill="#f5f5f5"/>
          <path id="Path_3805" data-name="Path 3805" d="M4439.243,2924.792a1.361,1.361,0,0,1,1.151-.956,1.318,1.318,0,0,1,1.276.76,4.067,4.067,0,0,1,.165.487,3.962,3.962,0,0,1,.142.813,1.549,1.549,0,0,1-.146.8,1.688,1.688,0,0,1-.721.673,1.287,1.287,0,0,1-1.207.047,1.689,1.689,0,0,1-.7-1.081,2.646,2.646,0,0,1,.039-1.544" transform="translate(-4317.355 -2662.937)" fill="#f5f5f5"/>
          <path id="Path_3806" data-name="Path 3806" d="M4406.063,2934.09a1.017,1.017,0,0,1,1.056-.789,1.482,1.482,0,0,1,1.133.783,3.2,3.2,0,0,1,.178.431,2.853,2.853,0,0,1,.158.736,1.2,1.2,0,0,1-.17.717,1.328,1.328,0,0,1-.621.485,1.174,1.174,0,0,1-.99-.034,1.716,1.716,0,0,1-.717-.961,2.147,2.147,0,0,1-.027-1.367" transform="translate(-4287.356 -2671.503)" fill="#f5f5f5"/>
          <path id="Path_3807" data-name="Path 3807" d="M4378.922,2950.737c.189-.591.555-.734.961-.622a1.85,1.85,0,0,1,.992.8,2.875,2.875,0,0,1,.19.38,2.053,2.053,0,0,1,.173.656.883.883,0,0,1-.19.631.939.939,0,0,1-.522.3,1.112,1.112,0,0,1-.772-.116,1.848,1.848,0,0,1-.737-.84,1.7,1.7,0,0,1-.095-1.188" transform="translate(-4262.823 -2686.692)" fill="#f5f5f5"/>
          <path id="Path_3808" data-name="Path 3808" d="M4366.221,2977.448a1.207,1.207,0,0,1,.161.487.555.555,0,0,1-.189.462.756.756,0,0,1-.826-.072,1.82,1.82,0,0,1-.638-.607,1.108,1.108,0,0,1-.135-.854c.334-1.158,1.38.13,1.624.583" transform="translate(-4249.883 -2710.508)" fill="#f5f5f5"/>
          <path id="Path_3809" data-name="Path 3809" d="M4229.478,1083.672a8.277,8.277,0,1,1,7.054-9.341,8.277,8.277,0,0,1-7.054,9.341m-1.68-12.038a3.879,3.879,0,1,0,4.378,3.305,3.878,3.878,0,0,0-4.378-3.305" transform="translate(-4119.096 -982.547)" fill="#dfdfdf"/>
          <rect id="Rectangle_718" data-name="Rectangle 718" width="3.142" height="20.205" transform="matrix(0.99, -0.138, 0.138, 0.99, 104.16, 68.696)" fill="#dfdfdf"/>
          <rect id="Rectangle_719" data-name="Rectangle 719" width="5.898" height="3.142" transform="matrix(0.99, -0.138, 0.138, 0.99, 103.999, 66.484)" fill="#dfdfdf"/>
          <rect id="Rectangle_720" data-name="Rectangle 720" width="5.546" height="3.141" transform="translate(104.908 70.456) rotate(-7.94)" fill="#dfdfdf"/>
          <rect id="Rectangle_721" data-name="Rectangle 721" width="4.841" height="3.141" transform="translate(106.4 76.013) rotate(-7.94)" fill="#dfdfdf"/>
        </g>
        <g id="Group_236" data-name="Group 236" transform="translate(0 0)" clip-path="url(#clip-path-2)">
          <path id="Path_3810" data-name="Path 3810" d="M3957.2,1675.867a16.014,16.014,0,0,1-16.2,17.757,19.769,19.769,0,0,1-19.311-17.757,16.011,16.011,0,0,1,16.2-17.757,19.769,19.769,0,0,1,19.311,17.757" transform="translate(-3848.985 -1517.366)" fill="#5d73b5"/>
          <g id="Group_233" data-name="Group 233" transform="translate(72.629 140.743)" opacity="0.8">
            <g id="Group_232" data-name="Group 232" transform="translate(0 0)" clip-path="url(#clip-path-5)">
              <path id="Path_3811" data-name="Path 3811" d="M3957.2,1675.867a16.014,16.014,0,0,1-16.2,17.757,19.769,19.769,0,0,1-19.311-17.757,16.011,16.011,0,0,1,16.2-17.757,19.769,19.769,0,0,1,19.311,17.757" transform="translate(-3921.614 -1658.109)" fill="#fff"/>
            </g>
          </g>
          <path id="Path_3812" data-name="Path 3812" d="M4015.524,1691.537a.7.7,0,0,1-.42-1.27,13.521,13.521,0,0,1,8.143-2.536h.009a.7.7,0,1,1,0,1.409h-.009a12.119,12.119,0,0,0-7.3,2.258.7.7,0,0,1-.419.139" transform="translate(-3933.342 -1544.175)" fill="#5d73b5"/>
          <path id="Path_3813" data-name="Path 3813" d="M3971.409,1756.95a.7.7,0,0,1-.331-.083,16.439,16.439,0,0,1-8.381-11.4,14.336,14.336,0,0,1,2.826-11.994.7.7,0,0,1,1.084.9,12.934,12.934,0,0,0-2.528,10.822,15.04,15.04,0,0,0,7.664,10.427.7.7,0,0,1-.333,1.329" transform="translate(-3885.897 -1585.36)" fill="#5d73b5"/>
          <path id="Path_3814" data-name="Path 3814" d="M4082.858,1843.09a15.12,15.12,0,0,1-4.64-.75.7.7,0,0,1,.432-1.34,12.119,12.119,0,0,0,11.866-2.132,12.6,12.6,0,0,0,4.067-11.689.7.7,0,0,1,1.391-.222,13.993,13.993,0,0,1-4.54,12.981,13.016,13.016,0,0,1-8.574,3.153" transform="translate(-3990.297 -1669.663)" fill="#5d73b5"/>
          <path id="Path_3815" data-name="Path 3815" d="M4168.22,1711.815a.7.7,0,0,1-.67-.489,15.012,15.012,0,0,0-8.152-9.083.7.7,0,1,1,.561-1.292,16.438,16.438,0,0,1,8.932,9.943.705.705,0,0,1-.67.921" transform="translate(-4063.812 -1556.088)" fill="#5d73b5"/>
          <path id="Path_3816" data-name="Path 3816" d="M4100.4,1689.528a.725.725,0,0,1-.162-.019,14.078,14.078,0,0,0-3.228-.38.7.7,0,0,1,0-1.409h0a15.472,15.472,0,0,1,3.555.417.7.7,0,0,1-.162,1.39" transform="translate(-4007.097 -1544.166)" fill="#5d73b5"/>
          <path id="Path_3817" data-name="Path 3817" d="M3995.139,1736.953a.7.7,0,0,1-.665-.461,11.2,11.2,0,0,1,1.234-10.41,10.6,10.6,0,0,1,8.82-4.552h0a.7.7,0,1,1,0,1.409h0a9.2,9.2,0,0,0-7.664,3.95A9.8,9.8,0,0,0,3995.8,1736a.705.705,0,0,1-.664.949" transform="translate(-3914.253 -1574.766)" fill="#5d73b5"/>
          <path id="Path_3818" data-name="Path 3818" d="M4024.57,1901.593h-.007a13.143,13.143,0,0,1-10.555-5.966.7.7,0,0,1,1.182-.766,11.7,11.7,0,0,0,9.387,5.323.7.7,0,0,1-.007,1.409" transform="translate(-3932.513 -1731.364)" fill="#5d73b5"/>
          <path id="Path_3819" data-name="Path 3819" d="M4105.271,1744.709a.7.7,0,0,1-.169-1.388c5.713-1.424,7.192-6.416,6.722-10.26-.612-5.014-4.574-10.095-10.96-10.1a.7.7,0,0,1,0-1.409h0c7.206.008,11.669,5.711,12.357,11.34.71,5.812-2.345,10.442-7.784,11.8a.682.682,0,0,1-.171.021" transform="translate(-4010.582 -1574.784)" fill="#5d73b5"/>
          <path id="Path_3820" data-name="Path 3820" d="M4070.508,1757.478a.7.7,0,0,1-.3-1.344,8.217,8.217,0,0,1,3.426-.743.7.7,0,0,1,0,1.409,6.789,6.789,0,0,0-2.835.613.708.708,0,0,1-.295.064" transform="translate(-3983.106 -1605.412)" fill="#5d73b5"/>
          <path id="Path_3821" data-name="Path 3821" d="M4036.793,1794.188a9.324,9.324,0,0,1-8.384-5.568,7.91,7.91,0,0,1,1.139-8.882.706.706,0,1,1,1.044.949,6.536,6.536,0,0,0-.9,7.345,7.923,7.923,0,0,0,7.33,4.746,6.1,6.1,0,0,0,5.535-3.637,7.279,7.279,0,0,0-1.3-7.689.7.7,0,1,1,1.074-.912,8.686,8.686,0,0,1,1.519,9.177,7.481,7.481,0,0,1-6.778,4.473h-.269" transform="translate(-3944.867 -1627.239)" fill="#5d73b5"/>
          <path id="Path_3822" data-name="Path 3822" d="M4107.832,1758.1a.7.7,0,0,1-.38-.11,7.417,7.417,0,0,0-3.987-1.188.7.7,0,1,1,0-1.409,8.822,8.822,0,0,1,4.747,1.409.7.7,0,0,1-.38,1.3" transform="translate(-4012.935 -1605.412)" fill="#5d73b5"/>
          <path id="Path_3823" data-name="Path 3823" d="M4067.5,1799.811a5.627,5.627,0,0,1-4.305-2.045,5.345,5.345,0,0,1-.839-5.737,4.761,4.761,0,0,1,4.412-2.8.7.7,0,0,1,0,1.409,3.371,3.371,0,0,0-3.133,1.983,3.953,3.953,0,0,0,.64,4.238,4.176,4.176,0,0,0,4.209,1.424,3.332,3.332,0,0,0,2.526-2.563.7.7,0,0,1,1.376.3,4.716,4.716,0,0,1-3.563,3.63,5.519,5.519,0,0,1-1.322.162" transform="translate(-3975.926 -1636.04)" fill="#5d73b5"/>
          <path id="Path_3824" data-name="Path 3824" d="M4111.564,1794.276a.7.7,0,0,1-.672-.495,4.466,4.466,0,0,0-4.138-3.1.7.7,0,1,1,0-1.409h0a5.9,5.9,0,0,1,5.48,4.091.7.7,0,0,1-.672.915" transform="translate(-4015.913 -1636.076)" fill="#5d73b5"/>
          <path id="Path_3825" data-name="Path 3825" d="M4099.566,1825.717a.7.7,0,0,1-.018-1.409.683.683,0,0,0,.737-.747,1.029,1.029,0,0,0-1.018-1.061.779.779,0,0,0-.548.247.81.81,0,0,0-.2.613.7.7,0,1,1-1.406.085,2.174,2.174,0,0,1,2.151-2.355,2.433,2.433,0,0,1,2.427,2.468,2.079,2.079,0,0,1-2.107,2.156h-.021" transform="translate(-4007.82 -1664.875)" fill="#5d73b5"/>
          <path id="Path_3826" data-name="Path 3826" d="M4122.765,1675.874a16.017,16.017,0,0,1-16.208,17.762q-.379,0-.759-.021a15.989,15.989,0,0,0,15.283-17.74,19.8,19.8,0,0,0-18.39-17.734q.379-.021.759-.021a19.77,19.77,0,0,1,19.315,17.752" transform="translate(-4012.872 -1517.376)" fill="#5d73b5"/>
          <g id="Group_235" data-name="Group 235" transform="translate(89.818 140.743)" opacity="0.4">
            <g id="Group_234" data-name="Group 234" transform="translate(0)" clip-path="url(#clip-path-6)">
              <path id="Path_3827" data-name="Path 3827" d="M4122.765,1675.874a16.017,16.017,0,0,1-16.208,17.762q-.379,0-.759-.021a15.989,15.989,0,0,0,15.283-17.74,19.8,19.8,0,0,0-18.39-17.734q.379-.021.759-.021a19.77,19.77,0,0,1,19.315,17.752" transform="translate(-4102.69 -1658.119)" fill="#fff"/>
            </g>
          </g>
        </g>
        <g id="Group_241" data-name="Group 241" transform="translate(0 0)" clip-path="url(#clip-path-2)">
          <path id="Path_3828" data-name="Path 3828" d="M4465.124,877.644a6.294,6.294,0,0,0,.09.627,6.442,6.442,0,0,0,1.982,3.5,6.349,6.349,0,0,0,4.278,1.709h59.5a5.24,5.24,0,0,0,5.346-5.212,5.831,5.831,0,0,0-.02-.626,6.5,6.5,0,0,0-6.348-5.831h-59.5a5.261,5.261,0,0,0-5.328,5.831" transform="translate(-4340.881 -805.709)" fill="#5d73b5"/>
          <g id="Group_238" data-name="Group 238" transform="translate(124.221 66.104)" opacity="0.8">
            <g id="Group_237" data-name="Group 237" transform="translate(0 0)" clip-path="url(#clip-path-8)">
              <path id="Path_3829" data-name="Path 3829" d="M4465.124,877.644a6.294,6.294,0,0,0,.09.627,6.442,6.442,0,0,0,1.982,3.5,6.349,6.349,0,0,0,4.278,1.709h59.5a5.24,5.24,0,0,0,5.346-5.212,5.831,5.831,0,0,0-.02-.626,6.5,6.5,0,0,0-6.348-5.831h-59.5a5.261,5.261,0,0,0-5.328,5.831" transform="translate(-4465.103 -871.813)" fill="#fff"/>
            </g>
          </g>
          <path id="Path_3830" data-name="Path 3830" d="M4551.335,878.248a3.759,3.759,0,0,1-.042.564,6.515,6.515,0,0,0-6.324-5.613l-63.278.095a5.328,5.328,0,0,1,3.775-1.507h59.5a6.517,6.517,0,0,1,6.353,5.831,6.238,6.238,0,0,1,.014.627" transform="translate(-4355.894 -805.687)" fill="#5d73b5"/>
          <g id="Group_240" data-name="Group 240" transform="translate(125.796 66.103)" opacity="0.5">
            <g id="Group_239" data-name="Group 239" clip-path="url(#clip-path-9)">
              <path id="Path_3831" data-name="Path 3831" d="M4551.335,878.248a3.759,3.759,0,0,1-.042.564,6.515,6.515,0,0,0-6.324-5.613l-63.278.095a5.328,5.328,0,0,1,3.775-1.507h59.5a6.517,6.517,0,0,1,6.353,5.831,6.238,6.238,0,0,1,.014.627" transform="translate(-4481.69 -871.791)" fill="#fff"/>
            </g>
          </g>
          <path id="Path_3832" data-name="Path 3832" d="M1614.613,317.66l.25,2.847,2.65-.988.63,1.4-2.709.9,1.945,2.387-1.214.9-1.9-2.482-1.436,2.482-1.333-.9,1.5-2.387-2.84-.9.383-1.4,2.848.953-.247-2.819Z" transform="translate(-1429.417 -248.742)" fill="#5d73b5"/>
          <path id="Path_3833" data-name="Path 3833" d="M1443.183,317.66l.25,2.847,2.65-.988.63,1.4-2.709.9,1.945,2.387-1.214.9-1.9-2.482-1.436,2.482-1.334-.9,1.5-2.387-2.841-.9.384-1.4,2.847.953-.247-2.819Z" transform="translate(-1274.261 -248.742)" fill="#5d73b5"/>
          <path id="Path_3834" data-name="Path 3834" d="M1271.753,317.66l.249,2.847,2.65-.988.629,1.4-2.708.9,1.944,2.387-1.213.9-1.9-2.482-1.436,2.482-1.333-.9,1.5-2.387-2.84-.9.383-1.4,2.848.953-.248-2.819Z" transform="translate(-1119.105 -248.742)" fill="#5d73b5"/>
          <path id="Path_3835" data-name="Path 3835" d="M1100.322,317.66l.25,2.847,2.65-.988.629,1.4-2.708.9,1.945,2.387-1.214.9-1.9-2.482-1.435,2.482-1.334-.9,1.5-2.387-2.84-.9.383-1.4,2.847.953-.246-2.819Z" transform="translate(-963.948 -248.742)" fill="#5d73b5"/>
          <rect id="Rectangle_728" data-name="Rectangle 728" width="2.774" height="0.704" transform="translate(173.044 63.343)" fill="#5d73b5"/>
          <rect id="Rectangle_729" data-name="Rectangle 729" width="9.052" height="0.704" transform="translate(178.693 63.343)" fill="#5d73b5"/>
        </g>
        <g id="Group_246" data-name="Group 246" transform="translate(0 0)" clip-path="url(#clip-path-2)">
          <g id="Group_243" data-name="Group 243" transform="translate(246.612 85.727)" opacity="0.8">
            <g id="Group_242" data-name="Group 242" transform="translate(0 0)" clip-path="url(#clip-path-11)">
              <path id="Path_3836" data-name="Path 3836" d="M5787.932,1082.428l-2.882,32.94a4.345,4.345,0,0,1-4.228,3.892h-22.866a3.52,3.52,0,0,1-3.548-3.888l2.882-32.94a4.332,4.332,0,0,1,4.229-3.892h22.867a3.506,3.506,0,0,1,3.547,3.892" transform="translate(-5754.393 -1078.541)" fill="#5d73b5"/>
            </g>
          </g>
          <g id="Group_245" data-name="Group 245" transform="translate(246.612 85.727)" opacity="0.8">
            <g id="Group_244" data-name="Group 244" transform="translate(0 0)" clip-path="url(#clip-path-11)">
              <path id="Path_3837" data-name="Path 3837" d="M5787.932,1082.428l-2.882,32.94a4.345,4.345,0,0,1-4.228,3.892h-22.866a3.52,3.52,0,0,1-3.548-3.888l2.882-32.94a4.332,4.332,0,0,1,4.229-3.892h22.867a3.506,3.506,0,0,1,3.547,3.892" transform="translate(-5754.393 -1078.541)" fill="#fff"/>
            </g>
          </g>
          <path id="Path_3838" data-name="Path 3838" d="M5800.447,1133.294a.575.575,0,0,1-.062,0,.7.7,0,0,1-.64-.759l.263-3.012a.7.7,0,0,1,.7-.643h3.18a.7.7,0,1,1,0,1.409h-2.535l-.207,2.373a.7.7,0,0,1-.7.643" transform="translate(-5548.827 -1038.375)" fill="#5d73b5"/>
          <path id="Path_3839" data-name="Path 3839" d="M6042.391,1133.285a.575.575,0,0,1-.062,0,.7.7,0,0,1-.64-.759l.2-2.247h-2.411a.7.7,0,0,1,0-1.409h3.181a.7.7,0,0,1,.7.765l-.263,3.012a.7.7,0,0,1-.7.643" transform="translate(-5765.163 -1038.366)" fill="#5d73b5"/>
          <path id="Path_3840" data-name="Path 3840" d="M5782.667,1372.69h-3.18a.706.706,0,0,1-.7-.765l.264-3.013a.7.7,0,1,1,1.4.123l-.2,2.246h2.411a.7.7,0,1,1,0,1.409" transform="translate(-5529.856 -1255.04)" fill="#5d73b5"/>
          <path id="Path_3841" data-name="Path 3841" d="M6018.915,1372.494h-3.18a.7.7,0,0,1,0-1.409h2.535l.207-2.373a.7.7,0,1,1,1.4.122l-.263,3.012a.7.7,0,0,1-.7.643" transform="translate(-5743.677 -1254.844)" fill="#5d73b5"/>
          <path id="Path_3842" data-name="Path 3842" d="M5855.259,1162.031c-.551,6.3-5.192,11.4-10.368,11.4s-8.923-5.1-8.373-11.4,5.193-11.4,10.367-11.4,8.923,5.1,8.373,11.4" transform="translate(-5582.062 -1058.061)" fill="#fff"/>
          <path id="Path_3843" data-name="Path 3843" d="M2427.651,784.69h-9.121l.8-9.12h9.121Z" transform="translate(-2161.051 -663.184)" fill="#fff"/>
          <path id="Path_3844" data-name="Path 3844" d="M5785.06,1434.849a4.347,4.347,0,0,1-4.229,3.892h-22.867a3.52,3.52,0,0,1-3.547-3.888s10.509-3.323,11.805-3.323h8.119Z" transform="translate(-5507.789 -1312.295)" fill="#fff"/>
          <rect id="Rectangle_733" data-name="Rectangle 733" width="12.982" height="0.703" transform="translate(280.346 112.148) rotate(-85.3)" fill="#5d73b5"/>
          <rect id="Rectangle_734" data-name="Rectangle 734" width="2.551" height="0.703" transform="translate(281.945 95.837) rotate(-85.3)" fill="#5d73b5"/>
        </g>
        <rect id="Rectangle_736" data-name="Rectangle 736" width="2.774" height="0.704" transform="translate(254.903 171.891)" fill="#5d73b5"/>
        <rect id="Rectangle_737" data-name="Rectangle 737" width="9.053" height="0.704" transform="translate(260.553 171.891)" fill="#5d73b5"/>
        <g id="Group_249" data-name="Group 249" transform="translate(0 0)" clip-path="url(#clip-path-2)">
          <path id="Path_3845" data-name="Path 3845" d="M5746.655,1684.918l-1.755,20.071a3.648,3.648,0,0,1-3.563,3.276,2.953,2.953,0,0,1-2.989-3.276l1.756-20.075a10.614,10.614,0,0,0-10.727-11.762h-7.181a13.111,13.111,0,0,0-12.788,11.762l-.716,8.2h-6.55l.718-8.2a20.412,20.412,0,0,1,19.912-18.314h7.183a16.53,16.53,0,0,1,16.707,18.314" transform="translate(-5460.489 -1525.051)" fill="#5d73b5"/>
          <g id="Group_248" data-name="Group 248" transform="translate(241.647 141.554)" opacity="0.5">
            <g id="Group_247" data-name="Group 247" transform="translate(0 0)" clip-path="url(#clip-path-14)">
              <path id="Path_3846" data-name="Path 3846" d="M5746.655,1684.918l-1.755,20.071a3.648,3.648,0,0,1-3.563,3.276,2.953,2.953,0,0,1-2.989-3.276l1.756-20.075a10.614,10.614,0,0,0-10.727-11.762h-7.181a13.111,13.111,0,0,0-12.788,11.762l-.716,8.2h-6.55l.718-8.2a20.412,20.412,0,0,1,19.912-18.314h7.183a16.53,16.53,0,0,1,16.707,18.314" transform="translate(-5702.136 -1666.605)" fill="#fff"/>
            </g>
          </g>
          <path id="Path_3847" data-name="Path 3847" d="M5685.078,2020.58l-3.417,39.111a4.981,4.981,0,0,1-4.869,4.478h-39.111a4.034,4.034,0,0,1-4.082-4.478l3.417-39.111a5,5,0,0,1,2.433-3.8,4.765,4.765,0,0,1,2.437-.683H5681a4.183,4.183,0,0,1,2.255.641,4.05,4.05,0,0,1,1.83,3.836" transform="translate(-5398.438 -1841.372)" fill="#5d73b5"/>
          <path id="Path_3848" data-name="Path 3848" d="M5747.58,2067.427l10.157,15.644,33.521-33.516a.332.332,0,0,0-.439-.5l-31.942,25.036-6.036-9.727Z" transform="translate(-5501.615 -1871.135)" fill="#fff"/>
        </g>
        <g id="Group_258" data-name="Group 258" transform="translate(0 0)" clip-path="url(#clip-path-2)">
          <path id="Path_3849" data-name="Path 3849" d="M3752.367,1121.189h-25.454a4.818,4.818,0,0,1-4.706-4.328l-2.227-25.454a3.9,3.9,0,0,1,3.949-4.327h25.454a4.818,4.818,0,0,1,4.706,4.327l2.227,25.454a3.9,3.9,0,0,1-3.949,4.328" transform="translate(-3666.477 -1000.543)" fill="#5d73b5"/>
          <g id="Group_251" data-name="Group 251" transform="translate(53.487 86.537)" opacity="0.8">
            <g id="Group_250" data-name="Group 250" clip-path="url(#clip-path-16)">
              <path id="Path_3850" data-name="Path 3850" d="M3752.367,1121.189h-25.454a4.818,4.818,0,0,1-4.706-4.328l-2.227-25.454a3.9,3.9,0,0,1,3.949-4.327h25.454a4.818,4.818,0,0,1,4.706,4.327l2.227,25.454a3.9,3.9,0,0,1-3.949,4.328" transform="translate(-3719.964 -1087.08)" fill="#fff"/>
            </g>
          </g>
          <path id="Path_3851" data-name="Path 3851" d="M3743.7,1176.646s9.043-12.6,15.713-12.275,17.727,11.979,17.727,11.979-16.32,8.567-33.443.3" transform="translate(-3687.96 -1070.492)" fill="#fff"/>
          <path id="Path_3852" data-name="Path 3852" d="M3741.319,1173.5l-.569-.411c.368-.514,9-12.428,15.745-12.428.095,0,.181,0,.271.007,6.733.326,17.513,11.608,17.969,12.088l-.51.484c-.11-.116-11.041-11.557-17.494-11.866-.079,0-.159-.006-.24-.006-6.385,0-15.081,12.012-15.169,12.135" transform="translate(-3685.29 -1067.139)" fill="#2e353b"/>
          <path id="Path_3853" data-name="Path 3853" d="M3697.789,1270.772a3.683,3.683,0,0,1-3.763-2.438.352.352,0,1,1,.67-.218c.809,2.492,3.834,1.894,3.961,1.867a.356.356,0,0,1,.416.274.351.351,0,0,1-.273.416,5.078,5.078,0,0,1-1.012.095" transform="translate(-3642.985 -1164.174)" fill="#2e353b"/>
          <path id="Path_3854" data-name="Path 3854" d="M3757.313,1198.438a.357.357,0,0,1-.215-.072c-.105-.082-2.6-2.014-3.242-3.977a.352.352,0,1,1,.67-.217c.569,1.752,2.977,3.616,3,3.635a.352.352,0,0,1-.215.631" transform="translate(-3697.137 -1097.249)" fill="#2e353b"/>
          <path id="Path_3855" data-name="Path 3855" d="M3823.749,1131.695h-.008a.352.352,0,0,1-.344-.36,37.854,37.854,0,0,0-1.532-4.509c-.177-.465-.3-.8-.33-.888a.352.352,0,0,1,.674-.2c.025.084.146.4.314.842a26.244,26.244,0,0,1,1.578,4.775.352.352,0,0,1-.352.344" transform="translate(-3758.392 -1035.302)" fill="#2e353b"/>
          <path id="Path_3856" data-name="Path 3856" d="M3901.174,1107.356a.351.351,0,0,1-.35-.322l-.5-5.672a.352.352,0,0,1,.32-.38.345.345,0,0,1,.38.321l.5,5.672a.352.352,0,0,1-.32.38h-.031" transform="translate(-3829.719 -1013.124)" fill="#2e353b"/>
          <path id="Path_3857" data-name="Path 3857" d="M4094.671,1266.822a5.65,5.65,0,0,1-1.028-.088.353.353,0,0,1-.276-.414.348.348,0,0,1,.414-.276,4.235,4.235,0,0,0,2.777-.414,1.967,1.967,0,0,0,.806-1.4.352.352,0,0,1,.7.105,2.663,2.663,0,0,1-1.1,1.87,4.022,4.022,0,0,1-2.289.615" transform="translate(-4004.427 -1160.608)" fill="#2e353b"/>
          <path id="Path_3858" data-name="Path 3858" d="M4037.2,1194.349a.352.352,0,0,1-.233-.616c.021-.018,2.083-1.863,2.343-3.593a.352.352,0,1,1,.7.1c-.3,1.985-2.479,3.935-2.572,4.017a.353.353,0,0,1-.233.088" transform="translate(-3953.279 -1093.534)" fill="#2e353b"/>
          <path id="Path_3859" data-name="Path 3859" d="M3974.536,1135.02a.347.347,0,0,1-.344-.41c.008-.046.773-4.575.912-5.5a.352.352,0,1,1,.7.1c-.139.933-.906,5.468-.913,5.513a.352.352,0,0,1-.347.293" transform="translate(-3896.568 -1038.297)" fill="#2e353b"/>
          <path id="Path_3860" data-name="Path 3860" d="M3848.223,1172.454a7.191,7.191,0,0,1-7.281,7.974,8.882,8.882,0,0,1-8.677-7.974,7.193,7.193,0,0,1,7.281-7.974,8.883,8.883,0,0,1,8.677,7.974" transform="translate(-3768.09 -1070.596)" fill="#5d73b5"/>
          <g id="Group_253" data-name="Group 253" transform="translate(64.146 93.878)" opacity="0.3">
            <g id="Group_252" data-name="Group 252" transform="translate(0 0)" clip-path="url(#clip-path-17)">
              <path id="Path_3861" data-name="Path 3861" d="M3843.531,1172.4a3.162,3.162,0,0,0,0-.535,3.774,3.774,0,0,0-3.691-3.388,3.055,3.055,0,0,0-3.092,3.388,2.868,2.868,0,0,0,.095.535h-4.585a7.192,7.192,0,0,1,7.281-7.98,8.88,8.88,0,0,1,8.678,7.98Z" transform="translate(-3832.225 -1164.42)" fill="#010101"/>
            </g>
          </g>
          <g id="Group_255" data-name="Group 255" transform="translate(68.652 97.935)" opacity="0.7">
            <g id="Group_254" data-name="Group 254" transform="translate(0 0)" clip-path="url(#clip-path-18)">
              <path id="Path_3862" data-name="Path 3862" d="M3886.526,1210.538a3.321,3.321,0,0,1,0,.535,3.044,3.044,0,0,1-3.1,2.848,3.769,3.769,0,0,1-3.588-2.848,2.846,2.846,0,0,1-.1-.535,3.057,3.057,0,0,1,3.092-3.388,3.783,3.783,0,0,1,3.691,3.388" transform="translate(-3879.731 -1207.15)" fill="#010101"/>
            </g>
          </g>
          <g id="Group_257" data-name="Group 257" transform="translate(71.754 95.236)" opacity="0.7">
            <g id="Group_256" data-name="Group 256" transform="translate(0 0)" clip-path="url(#clip-path-19)">
              <path id="Path_3863" data-name="Path 3863" d="M3917.931,1181.482a2.49,2.49,0,0,1-2.52,2.761,3.073,3.073,0,0,1-3-2.761,2.489,2.489,0,0,1,2.52-2.761,3.073,3.073,0,0,1,3,2.761" transform="translate(-3912.397 -1178.72)" fill="#fff"/>
            </g>
          </g>
          <rect id="Rectangle_744" data-name="Rectangle 744" width="2.774" height="0.704" transform="translate(63.609 83.375)" fill="#5d73b5"/>
          <rect id="Rectangle_745" data-name="Rectangle 745" width="9.052" height="0.704" transform="translate(69.259 83.375)" fill="#5d73b5"/>
        </g>
        <g id="Group_277" data-name="Group 277" transform="translate(0 0)" clip-path="url(#clip-path-2)">
          <path id="Path_3864" data-name="Path 3864" d="M5153.922,1581.771l.244.291.324.371c.232.247.457.507.71.748.485.509,1.014,1,1.548,1.5a41.09,41.09,0,0,0,3.362,2.781c1.19.882,2.439,1.7,3.7,2.5.684.38,1.28.782,1.943,1.145l1.53.846a1,1,0,0,0,.7.042,30.514,30.514,0,0,0,4.226-3.987c1.993-2.292,5.031-5.3,6.659-7.868l1.859,2.515a41.27,41.27,0,0,1-4.557,8.9,20.025,20.025,0,0,1-3.589,4.02,10.089,10.089,0,0,1-2.766,1.656,6.644,6.644,0,0,1-4,.3,6.306,6.306,0,0,1-1.01-.335l-.633-.277-1.139-.519c-.77-.343-1.508-.746-2.255-1.121a46.176,46.176,0,0,1-4.338-2.628,44.106,44.106,0,0,1-4.048-3.139c-.67-.583-1.271-1.176-1.882-1.819-.307-.315-.61-.65-.907-.992l-.44-.533c-.158-.2-.276-.348-.5-.65Z" transform="translate(-4959.558 -1446.798)" fill="#e9b377"/>
          <path id="Path_3865" data-name="Path 3865" d="M5464.09,1517.606l3.271-6.986,3.118,5.589s-2.048,3.529-4.271,3.525Z" transform="translate(-5245.036 -1383.877)" fill="#e9b377"/>
          <path id="Path_3866" data-name="Path 3866" d="M2051.858,896.24l3.3,4.239-3.856,4.244-3.12-5.582Z" transform="translate(-1825.857 -772.398)" fill="#e9b377"/>
          <path id="Path_3867" data-name="Path 3867" d="M5519.566,1459.909h5.187a.585.585,0,0,0,.584-.535l1.088-12.447a.585.585,0,0,0-.585-.637h-5.187a.586.586,0,0,0-.585.536l-1.091,12.442a.585.585,0,0,0,.584.637" transform="translate(-5294.711 -1325.654)" fill="#5d73b5"/>
          <g id="Group_260" data-name="Group 260" transform="translate(224.906 121.885)" opacity="0.3">
            <g id="Group_259" data-name="Group 259" transform="translate(0 0)" clip-path="url(#clip-path-21)">
              <path id="Path_3868" data-name="Path 3868" d="M2075.39,886.752h5.2l.973-11.122h-5.2Z" transform="translate(-2075.39 -875.63)" fill="#fff"/>
            </g>
          </g>
          <path id="Path_3869" data-name="Path 3869" d="M5491.031,1536.953h0l.923-.475a5.752,5.752,0,0,0,1.285-.9l.171-.616a.878.878,0,0,0-.983-.4l-.767.209-3.806.291-.095,1.6,1.111,1.723.386.015a1.729,1.729,0,0,0,1.774-1.453" transform="translate(-5266.459 -1405.523)" fill="#e9b377"/>
          <path id="Path_3870" data-name="Path 3870" d="M5095.867,1525.312c2.639-.475,21.264,15.675,21.264,15.675l-5.521,8.1s-20.37-14.183-19.745-17.61c.648-3.566.149-5.459,4-6.163" transform="translate(-4908.133 -1397.166)" fill="#fbab41"/>
          <g id="Group_262" data-name="Group 262" transform="translate(189.878 133.34)" opacity="0.2">
            <g id="Group_261" data-name="Group 261" transform="translate(0 0)" clip-path="url(#clip-path-22)">
              <path id="Path_3871" data-name="Path 3871" d="M5156.943,1580.12l-.2,8.479c2.119,1.642,9.751,7.5,9.751,7.5Z" transform="translate(-5156.741 -1580.12)" fill="#010101"/>
            </g>
          </g>
          <path id="Path_3872" data-name="Path 3872" d="M1552.97,2571.786l6.249.617,1.981-14.486-6.25-.617Z" transform="translate(-1377.656 -2275.777)" fill="#e9b377"/>
          <path id="Path_3873" data-name="Path 3873" d="M889.812,1814.43l-1.6,6.085,13.518,5.826,2.8-6.173Z" transform="translate(-776.001 -1603.427)" fill="#e9b377"/>
          <path id="Path_3874" data-name="Path 3874" d="M5096.315,3298.514a2.386,2.386,0,0,0,1.541-.34.828.828,0,0,0,.285-.718.474.474,0,0,0-.233-.408c-.759-.45-3.31.76-3.595.9a.163.163,0,0,0-.086.152.148.148,0,0,0,.118.123,10.908,10.908,0,0,0,1.975.292m1.139-1.264a.541.541,0,0,1,.277.062.189.189,0,0,1,.095.164.561.561,0,0,1-.189.475c-.39.33-1.429.356-2.817.084a8.158,8.158,0,0,1,2.647-.79Z" transform="translate(-4910.284 -3000.633)" fill="#5d73b5"/>
          <path id="Path_3875" data-name="Path 3875" d="M5094.193,3283.691l.055-.014c.76-.313,2.287-1.629,2.184-2.345-.04-.164-.13-.379-.544-.437a1.062,1.062,0,0,0-.841.21,4.237,4.237,0,0,0-1.015,2.393.162.162,0,0,0,.036.143.148.148,0,0,0,.122.05m1.553-2.506.089-.022c.271.041.284.147.284.183.065.434-.976,1.47-1.757,1.889a3.379,3.379,0,0,1,.854-1.918.768.768,0,0,1,.54-.135Z" transform="translate(-4910.104 -2986.088)" fill="#5d73b5"/>
          <path id="Path_3876" data-name="Path 3876" d="M4994.393,3273.665l-5.661.234a.5.5,0,0,0-.486.449l-1.351,7.86a1.023,1.023,0,0,0,.963,1.077.938.938,0,0,0,.117,0c2.456-.127,3.64-.31,6.753-.416,1.908-.065,7.777.627,10.352.034s2.121-3.175,1-3.158c-3.622.069-7.8-2.288-9.893-5.047-.312-.236-1.4-1.057-1.792-1.033" transform="translate(-4813.14 -2979.559)" fill="#2e353b"/>
          <path id="Path_3877" data-name="Path 3877" d="M4237.636,2364.7l2.873-4.883a.492.492,0,0,0-.114-.651l-5.874-5.4a1.021,1.021,0,0,0-1.424.224,1,1,0,0,0-.063.095c-1.226,2.132-1.714,3.228-3.314,5.9-.98,1.637-4.746,6.192-5.645,8.678s1.519,3.5,2.113,2.55c1.906-3.081,6.151-5.309,9.606-5.573.367-.134,1.647-.6,1.839-.945" transform="translate(-4122.554 -2146.814)" fill="#2e353b"/>
          <g id="Group_264" data-name="Group 264" transform="translate(176.272 281.53)" opacity="0.2">
            <g id="Group_263" data-name="Group 263" clip-path="url(#clip-path-23)">
              <path id="Path_3878" data-name="Path 3878" d="M1570.341,2557.98l-1.021,7.467-6.249-.61,1.013-7.467Z" transform="translate(-1563.07 -2557.37)" fill="#010101"/>
            </g>
          </g>
          <g id="Group_266" data-name="Group 266" transform="translate(121.094 214.708)" opacity="0.2">
            <g id="Group_265" data-name="Group 265" transform="translate(0)" clip-path="url(#clip-path-24)">
              <path id="Path_3879" data-name="Path 3879" d="M993.4,1856.986l-2.887,6.517-8.7-3.843,2.219-6.21Z" transform="translate(-981.81 -1853.45)" fill="#010101"/>
            </g>
          </g>
          <path id="Path_3880" data-name="Path 3880" d="M4872.125,1494.695c3.571,6.067-.794,11.192-4.438,29.333l-23.542.064c.38-9.778.343-17.681-3.831-36.914a3.247,3.247,0,0,1,3.16-3.947c1.946,0,4.391.069,6.874.323a85.329,85.329,0,0,1,11.656,1.763,50.2,50.2,0,0,1,6.131,1.914c1.208.413,2.667,3.7,3.987,7.464" transform="translate(-4680.404 -1359.088)" fill="#fbaa41"/>
          <path id="Path_3881" data-name="Path 3881" d="M4967.92,1922.863s13.219,38.221,12.9,56.6c-.18,10.529-.973,30.147-4.15,43.952-2.593,11.259-13.154,18.45-13.154,18.45l-8.471-.5s-4.571-17.182-3.775-24.021c1.582-13.611,6.277-23.839,5.713-36.339-.9-20.469-6.959-58.463-6.959-58.463Z" transform="translate(-4779.766 -1756.695)" fill="#5d73b5"/>
          <path id="Path_3882" data-name="Path 3882" d="M1531.863,2574.384l11.935.707,1.091-3.588-13.339-1.233Z" transform="translate(-1358.27 -2287.516)" fill="#2e353b"/>
          <g id="Group_268" data-name="Group 268" transform="translate(175.105 180.767)" opacity="0.2">
            <g id="Group_267" data-name="Group 267" clip-path="url(#clip-path-25)">
              <path id="Path_3883" data-name="Path 3883" d="M5001.11,2142.354c.015-.017.026-.071.067-.067,7.5.734,12.691-10.09,11.449-24.871l-3.987-37.676Z" transform="translate(-5001.111 -2079.739)" fill="#010101"/>
            </g>
          </g>
          <path id="Path_3884" data-name="Path 3884" d="M4513.69,1922.244s10.5,67.209-11.343,74.775c-11.527,4.367-21.227-.368-32.711-5.451-6.639-2.943-14.936-10.888-14.936-10.888l3.189-8.684a41.6,41.6,0,0,1,17.583-.891c11.2,1.738,11.67,4.906,15.65,2.521,8.365-20.684-6.03-37.029,3.754-51.415Z" transform="translate(-4331.466 -1756.396)" fill="#5d73b5"/>
          <path id="Path_3885" data-name="Path 3885" d="M1003.873,1845.49l-4.263,11.259,3.141,2.4,5.065-13.4Z" transform="translate(-876.826 -1631.538)" fill="#2e353b"/>
          <path id="Path_3886" data-name="Path 3886" d="M4403.89,1730.655c-1.065,1.573-6.455.509-6.455.509l-1.145-6.684,6.621,2.658Z" transform="translate(-4278.601 -1577.436)" fill="#e9b377"/>
          <path id="Path_3887" data-name="Path 3887" d="M4358.518,1720.82l1.035,6.945-3.987.6a.887.887,0,0,1-.94-.689l-1.519-4.974a.459.459,0,0,1,.331-.542Z" transform="translate(-4239.507 -1574.124)" fill="#e9b377"/>
          <path id="Path_3888" data-name="Path 3888" d="M4388.1,1690.075l2.274.4,2.143-1.614-.829-.592a2.8,2.8,0,0,1-1.109-1.667,11.758,11.758,0,0,1-.291-2.148l-.007-.241a.982.982,0,0,0-.831-.846l-.564.418a5.734,5.734,0,0,0-.146,2.258l-.089,1.166-.91.394Z" transform="translate(-4270.863 -1540.229)" fill="#e9b377"/>
          <path id="Path_3889" data-name="Path 3889" d="M4492.482,1510.9l-13.321,18.331-24.491,4.809v4.019s23,1.709,28.161-1.306,13.842-21.244,13.842-21.244Z" transform="translate(-4331.439 -1384.131)" fill="#e9b377"/>
          <path id="Path_3890" data-name="Path 3890" d="M4676.356,1134.973c-5.589-1.877-12.077,1.595-14.637,6.907s-1.66,11.825,1.218,16.97a52.408,52.408,0,0,1,2.612,4.646,7.322,7.322,0,0,1,.486,5.192c-.574,1.679-1.167,2.761-3.252,2.49,0,0-.025-1.154.8-1.015,0,0-1.686.938-2.348.324.759,1.187,2.811.753,3.467-.5.984-1.869-.825-4.4-2.937-4.373a4.142,4.142,0,0,0-3.76,4.272,5.8,5.8,0,0,0,3.548,4.853,2.637,2.637,0,0,1-2.848-1.519c.956,2.509,4.082,3.617,6.726,3.126s4.875-2.188,6.943-3.9c2.789-2.309,5.7-5.227,5.611-8.845-.064-2.7-1.8-5.014-3.254-7.284s-2.733-5.049-1.8-7.582c.784-2.148,2.908-3.444,4.786-4.746,1.352-.94,4.1-3.033,3.772-5.008-.3-1.851-3.543-3.472-5.126-4" transform="translate(-4515.467 -1043.424)" fill="#2e353b"/>
          <path id="Path_3891" data-name="Path 3891" d="M4683.489,1513.6l-3.689-9.767.846.069a3.569,3.569,0,0,0,3.417-1.813c2.8-5.014,10.093-17.745,12.144-18.377,2.923-.867,5.93,1.472,7.063,4.923.833,2.544-7.732,13.443-11.708,19.643-3.521,5.49-8.069,5.323-8.069,5.323" transform="translate(-4535.198 -1359.359)" fill="#fbab41"/>
          <path id="Path_3892" data-name="Path 3892" d="M4339.128,2479.264a.675.675,0,0,1,0,.078.853.853,0,0,0,.631.538.507.507,0,0,0,.5-.112c.6-.535.215-2.809.179-3.038a.141.141,0,0,0-.113-.119.155.155,0,0,0-.152.055c-.475.678-1.234,1.882-1.044,2.6m1.085-2.123c.13.9.184,2.127-.144,2.411a.225.225,0,0,1-.228.036.569.569,0,0,1-.424-.349,2.978,2.978,0,0,1,.793-2.078Z" transform="translate(-4226.836 -2258.166)" fill="#5d73b5"/>
          <path id="Path_3893" data-name="Path 3893" d="M4350.056,2477.169c.19.76.9,2.057,1.535,2.208a.529.529,0,0,0,.582-.3.774.774,0,0,0,.04-.665c-.285-.87-1.953-1.59-2.021-1.622a.14.14,0,0,0-.147-.01.167.167,0,0,0-.058.138,2.041,2.041,0,0,0,.069.244m1.915,1.376a.458.458,0,0,1-.057.37c-.095.164-.189.165-.255.154-.433-.088-1.089-1.151-1.3-1.89.542.271,1.424.79,1.594,1.322a.1.1,0,0,0,.018.044" transform="translate(-4236.692 -2258.31)" fill="#5d73b5"/>
          <path id="Path_3894" data-name="Path 3894" d="M4874.1,1899l-.651,2.29c-.088.178.12.36.417.356l24.294-.033c.232.014.424-.116.438-.255l.228-2.293c.009-.154-.19-.293-.441-.285l-23.871.028a.459.459,0,0,0-.414.19" transform="translate(-4710.441 -1735.187)" fill="#5d73b5"/>
          <g id="Group_270" data-name="Group 270" transform="translate(162.984 163.587)" opacity="0.5">
            <g id="Group_269" data-name="Group 269" clip-path="url(#clip-path-26)">
              <path id="Path_3895" data-name="Path 3895" d="M4874.1,1899l-.651,2.29c-.088.178.12.36.417.356l24.294-.033c.232.014.424-.116.438-.255l.228-2.293c.009-.154-.19-.293-.441-.285l-23.871.028a.459.459,0,0,0-.414.19" transform="translate(-4873.426 -1898.774)" fill="#fff"/>
            </g>
          </g>
          <path id="Path_3896" data-name="Path 3896" d="M4920.427,1899.8h-.705c-.133-.008-.243-.071-.231-.155l.318-2.98c0-.083.129-.154.27-.153l.707-.008c.133.008.243.071.23.162l-.318,2.972c-.013.084-.137.161-.271.16" transform="translate(-4752.134 -1733.136)" fill="#5d73b5"/>
          <path id="Path_3897" data-name="Path 3897" d="M5105.2,1899.838h-.705c-.134-.007-.243-.07-.23-.154l.317-2.973c.005-.095.13-.161.263-.16h.705c.134.008.243.071.23.155l-.318,2.972c0,.095-.123.162-.263.161" transform="translate(-4919.364 -1733.172)" fill="#5d73b5"/>
          <path id="Path_3898" data-name="Path 3898" d="M5020.587,1899.657h-.705c-.133-.008-.243-.07-.231-.154l.317-2.973c.006-.095.13-.161.263-.16h.706c.134.008.243.071.231.155l-.317,2.972c-.006.095-.122.162-.263.161" transform="translate(-4842.786 -1733.009)" fill="#5d73b5"/>
          <path id="Path_3899" data-name="Path 3899" d="M4947.642,1351.64c.747,3.832,1.479,10.762-1.122,12.851,0,0,1.038,3.934,8,4.982,7.689,1.161,3.654-3.22,3.654-3.22-4.183-1.657-4.082-4.687-3.36-7.473Z" transform="translate(-4776.599 -1239.989)" fill="#e9b377"/>
          <path id="Path_3900" data-name="Path 3900" d="M4917.346,1483.837a74.309,74.309,0,0,1,11.037,1.535l5.27,1.564c.939,1.89-.6,5.772-5.008,6.507,0,0-11.106,1.533-14.384-9.9Z" transform="translate(-4747.4 -1359.368)" fill="#e9b377"/>
          <g id="Group_272" data-name="Group 272" transform="translate(173.507 114.569)" opacity="0.2">
            <g id="Group_271" data-name="Group 271" clip-path="url(#clip-path-27)">
              <path id="Path_3901" data-name="Path 3901" d="M4984.758,1382.344l4.244,4.223a10.908,10.908,0,0,0-.351,1.993c-1.6-.469-4.177-2.237-4.353-3.927a5.747,5.747,0,0,1,.459-2.293" transform="translate(-4984.298 -1382.344)" fill="#010101"/>
            </g>
          </g>
          <path id="Path_3902" data-name="Path 3902" d="M4904.755,1193.945c1.884,5.961,2.549,8.526,6.411,10.87,5.767,3.524,12.7-.086,12.61-6.485-.054-5.76-3.118-14.534-9.667-15.473a8.521,8.521,0,0,0-9.354,11.087" transform="translate(-4738.413 -1087.144)" fill="#e9b377"/>
          <path id="Path_3903" data-name="Path 3903" d="M5058.55,1290.76a13.488,13.488,0,0,0,2.407,2.832,2.208,2.208,0,0,1-1.709.686Z" transform="translate(-4877.994 -1184.888)" fill="#d58745"/>
          <path id="Path_3904" data-name="Path 3904" d="M5021.193,1349.973a4.469,4.469,0,0,0,.711-.13.141.141,0,0,0,.1-.171v-.007a.155.155,0,0,0-.178-.11,3.987,3.987,0,0,1-3.561-.733.15.15,0,0,0-.254.075.151.151,0,0,0,.051.146,4.226,4.226,0,0,0,3.126.933" transform="translate(-4841.305 -1237.399)" fill="#2e353b"/>
          <path id="Path_3905" data-name="Path 3905" d="M4862.052,1172.378a5.8,5.8,0,0,0-2.638,4.619,2.223,2.223,0,0,0,.162,1.03,1,1,0,0,0,.805.6c.538.029.932-.475,1.227-.926l1.363-2.088a10.557,10.557,0,0,0,1.424-2.25c.44-1.415-1.511-1.519-2.345-.989" transform="translate(-4697.758 -1077.473)" fill="#5d73b5"/>
          <path id="Path_3906" data-name="Path 3906" d="M4867.209,1152.233c-3.743,4.322-5.411,16.289,5.538,19.625,1.832-1.448-1.125-4.088-2.38-7.428-.821-2.183,3.352-6.265,4.983-7.935s3.123-4.091,5.426-3.7a3.141,3.141,0,0,0,1.8.049c1.823-.826.938-1.917.021-2.681a9.443,9.443,0,0,0-4.963-1.818,12.2,12.2,0,0,0-10.424,3.892" transform="translate(-4702.247 -1055.926)" fill="#2e353b"/>
          <path id="Path_3907" data-name="Path 3907" d="M4865,1164.191c4.4,3.668-1.429,3.76-4.487,6.084-2.954,2.231-.883,5.885-5.874,7.582-4.082,1.194-5.021.475-6.149-.312a6.426,6.426,0,0,0,5.3-5.773c.349-2.67,6.177-11.836,11.21-7.579" transform="translate(-4687.875 -1069.331)" fill="#2e353b"/>
          <path id="Path_3908" data-name="Path 3908" d="M4897.645,1321.789a4.6,4.6,0,0,0,2.928,1.9c1.578.277,2.183-1.168,1.641-2.576-.51-1.264-1.942-2.937-3.467-2.576a2.05,2.05,0,0,0-1.1,3.251" transform="translate(-4731.966 -1209.981)" fill="#e9b377"/>
          <path id="Path_3909" data-name="Path 3909" d="M5011.768,1157.934c.854,2.167,3.311,1.881,5.126,4.149,1.118,1.385,3.314-2.936.326-4.651s-6.792-2.893-5.456.5" transform="translate(-4835.399 -1062.702)" fill="#2e353b"/>
          <path id="Path_3910" data-name="Path 3910" d="M4984.563,1252.459a.285.285,0,0,0,.3-.173,3.457,3.457,0,0,1,2.327-1.614.3.3,0,1,0-.11-.584,4.068,4.068,0,0,0-2.763,1.964.3.3,0,0,0,.144.394h0Z" transform="translate(-4810.782 -1148.072)" fill="#2e353b"/>
          <path id="Path_3911" data-name="Path 3911" d="M5057.867,1237.662a.285.285,0,0,0,.262-.132.3.3,0,0,0-.077-.411h0a2.974,2.974,0,0,0-2.7-.344.3.3,0,0,0,.236.55,2.341,2.341,0,0,1,2.134.3.415.415,0,0,0,.152.045" transform="translate(-4874.933 -1135.866)" fill="#2e353b"/>
          <path id="Path_3912" data-name="Path 3912" d="M5308.411,1654l-4.121,2.346-4.29,9.219s4.141,2.636,7.4.5,1.006-12.067,1.006-12.067" transform="translate(-5096.523 -1513.647)" fill="#5d73b5"/>
          <g id="Group_274" data-name="Group 274" transform="translate(203.478 140.35)" opacity="0.5">
            <g id="Group_273" data-name="Group 273" clip-path="url(#clip-path-28)">
              <path id="Path_3913" data-name="Path 3913" d="M5308.411,1654l-4.121,2.346-4.29,9.219s4.141,2.636,7.4.5,1.006-12.067,1.006-12.067" transform="translate(-5300.001 -1653.996)" fill="#fff"/>
            </g>
          </g>
          <path id="Path_3914" data-name="Path 3914" d="M4625.9,1683.991l4.882,1.379,4.628,9.575a5.892,5.892,0,0,1-7.744.152c-3.019-2.468-1.766-11.107-1.766-11.107" transform="translate(-4486.183 -1540.79)" fill="#5d73b5"/>
          <g id="Group_276" data-name="Group 276" transform="translate(139.461 143.2)" opacity="0.5">
            <g id="Group_275" data-name="Group 275" transform="translate(0 0)" clip-path="url(#clip-path-29)">
              <path id="Path_3915" data-name="Path 3915" d="M4625.9,1683.991l4.882,1.379,4.628,9.575a5.892,5.892,0,0,1-7.744.152c-3.019-2.468-1.766-11.107-1.766-11.107" transform="translate(-4625.644 -1683.99)" fill="#fff"/>
            </g>
          </g>
          <path id="Path_3916" data-name="Path 3916" d="M5076.1,1272.934c.338-.063.689.317.781.838s-.113,1-.45,1.057-.691-.317-.782-.838.113-.993.451-1.057" transform="translate(-4893.453 -1168.748)" fill="#2e353b"/>
          <path id="Path_3917" data-name="Path 3917" d="M5080.24,1267.56l-1.19.585c.719.507,1.19-.585,1.19-.585" transform="translate(-4896.547 -1163.891)" fill="#2e353b"/>
          <path id="Path_3918" data-name="Path 3918" d="M5013.99,1285.624c.337-.064.689.317.781.838s-.112,1-.45,1.057-.69-.317-.782-.838.113-.993.452-1.057" transform="translate(-4837.236 -1180.234)" fill="#2e353b"/>
          <path id="Path_3919" data-name="Path 3919" d="M5018.14,1280.28l-1.189.585c.718.507,1.189-.585,1.189-.585" transform="translate(-4840.343 -1175.403)" fill="#2e353b"/>
          <path id="Path_3920" data-name="Path 3920" d="M4658.661,1183.5a5.114,5.114,0,0,1-1.938-.366c-2.184-.891-3.2-3.164-2.787-6.236a.352.352,0,1,1,.7.095c-.363,2.728.5,4.729,2.357,5.49a5.427,5.427,0,0,0,6.093-1.873c1.764-2.355,1.194-5.7-1.566-9.156-7.214-9.049-6.729-13.859-5.71-17.663,1.479-5.521,5.813-11.849,18.066-10.632a.352.352,0,0,1-.07.7c-11.751-1.17-15.906,4.857-17.314,10.114-1.02,3.8-1.424,8.247,5.58,17.042,4.226,5.3,2.513,8.772,1.581,10.018a6.369,6.369,0,0,1-4.986,2.468" transform="translate(-4511.707 -1051.164)" fill="#2e353b"/>
        </g>
      </g>
    </g>
  </g>
</svg>
