<svg xmlns="http://www.w3.org/2000/svg" xmlns:xlink="http://www.w3.org/1999/xlink" width="102" height="102" viewBox="0 0 102 102">
  <defs>
    <linearGradient id="linear-gradient" x1="0.031" y1="0.022" x2="1" y2="0.718" gradientUnits="objectBoundingBox">
      <stop offset="0" stop-color="#8468f5"/>
      <stop offset="1" stop-color="#ec74e7"/>
    </linearGradient>
  </defs>
  <g id="btn-highlighted" transform="translate(29 21)">
    <circle id="shadow" cx="15" cy="15" r="15" transform="translate(7 15)" fill="url(#linear-gradient)"/>
    <circle id="Oval_2" data-name="Oval 2" cx="18.5" cy="18.5" r="18.5" fill="url(#linear-gradient)"/>
    <g id="Combined_Shape" data-name="Combined Shape">
      <path id="Combined_Shape-2" data-name="Combined Shape" d="M7.7,13.494l5.42-5.42H0V6.606H13.264L7.7,1.038,8.734,0,16,7.266,8.734,14.532Z" transform="translate(10 11)" fill="#fff"/>
      <path id="Combined_Shape-3" data-name="Combined Shape" d="M7.7,13.494l5.42-5.42H0V6.606H13.264L7.7,1.038,8.734,0,16,7.266,8.734,14.532Z" transform="translate(10 11)" fill="#fff"/>
      <path id="Combined_Shape-4" data-name="Combined Shape" d="M7.7,13.494l5.42-5.42H0V6.606H13.264L7.7,1.038,8.734,0,16,7.266,8.734,14.532Z" transform="translate(10 11)" fill="#fff"/>
    </g>
  </g>
</svg>
