<svg xmlns="http://www.w3.org/2000/svg" width="53.525" height="55.193" viewBox="0 0 53.525 55.193">
  <g id="drawing_teacher_svg" data-name="drawing teacher_svg" transform="translate(0)">
    <g id="Group_22" data-name="Group 22" transform="translate(0)">
      <path id="Path_85" data-name="Path 85" d="M119.749,12.674V4.324h24.057V33.46H123.984v6.672l.4-2.722H130.6v1.859h2.091V37.41h6.218l2.6,17.783,2.069-.3L141.024,37.41h1.543V35.319h-1.849l-.136-.929h4.154V3.395H132.692V0H130.6V3.395H118.82v9.1A5.506,5.506,0,0,1,119.749,12.674Zm4.938,22.645.136-.929H130.6v.929Zm13.917,0h-5.913v-.929h5.777Z" transform="translate(-91.211)" fill="#fff"/>
      <path id="Path_86" data-name="Path 86" d="M143.884,32.213l0,.29v.009c0-.011,0,.127,0,.074l0,.023,0,.045.009.09.018.18c.015.12.021.24.045.359l.073.355a5.867,5.867,0,0,0,.2.693A6.1,6.1,0,0,0,148,38.075a5.946,5.946,0,0,0,1.232.273,4.395,4.395,0,0,0,.6.035l.257,0h.132l.036,0,.143-.015a5.751,5.751,0,0,0,2.042-.572,5.647,5.647,0,0,0,2.259-2.071,5.161,5.161,0,0,0,.384-.758l.112-.277a4.371,4.371,0,0,0,.245-1.588c-.039-.339-.09-.511-.149-.515a1.056,1.056,0,0,0,.854-.454,1.78,1.78,0,0,0,.294-.588,2.8,2.8,0,0,0,.127-.816,4.32,4.32,0,0,0-.534-2.062,5.2,5.2,0,0,0-1.814-1.905.665.665,0,0,0-.085-.052l-.254-.14a6.974,6.974,0,0,0-1-.451c-.226-.068-.47-.161-.747-.218L151.7,25.8c-.144-.031-.341-.046-.518-.065l-.278-.024-.071-.005c-.021,0-.033,0-.049,0l-.094,0-.192,0-.1,0h-.191a7.552,7.552,0,0,0-1.117.154,6.668,6.668,0,0,0-4.206,2.923,6.9,6.9,0,0,0-.349.618c-.105.213-.191.438-.283.659-.07.23-.151.458-.2.693l-.072.355-.034.178-.022.2-.037.4-.008.1v.073Zm11.208.865c-.056.159-.1.349-.18.576l-.135.367-.186.406-.131.227a4.42,4.42,0,0,1-.415.6,4.67,4.67,0,0,1-2.066,1.447,4.449,4.449,0,0,1-1.623.225l-.1,0h-.014l-.016,0-.063-.007-.255-.03a2.451,2.451,0,0,1-.434-.088,4.4,4.4,0,0,1-.833-.311,4.08,4.08,0,0,1-2.173-2.81,3.485,3.485,0,0,1-.06-.445l-.015-.222c-.006-.073,0-.149.006-.222l0-.11,0-.055V32.6c0,.023,0,.048,0,.04V32.63l.034-.289.017-.144.009-.072.014-.043q.028-.086.05-.171l.021-.085.036-.1.07-.2c.048-.13.118-.251.171-.376.074-.116.137-.235.213-.345s.149-.219.243-.312a3.568,3.568,0,0,1,1.165-.887,3.358,3.358,0,0,1,1.219-.316,4.1,4.1,0,0,1,.55,0l-.085,0h.019l.025,0,.049.006.1.011.191.023.093.011c.014,0,.034,0,.043.006l.02.009.079.03c.056.022.091.023.161.052l.189.071c.122.041.222.109.319.148a3.073,3.073,0,0,1,.407.27l.1.076a.208.208,0,0,1,.033.029c.312.271.589.532.86.788s.517.515.784.758c.121.125.269.241.39.357s.277.219.405.313a1.608,1.608,0,0,0,.893.321C155.233,32.578,155.165,32.743,155.092,33.077Zm-8.688-.5Z" transform="translate(-110.449 -19.735)" fill="#fff"/>
      <path id="Path_87" data-name="Path 87" d="M185.3,92.386c-.153-.047-.318-.114-.506-.154l-.293-.064c-.1-.023-.226-.032-.343-.047a2.584,2.584,0,0,0-.336-.024l-.337,0a5.212,5.212,0,0,0-.766.1,4.594,4.594,0,0,0-2.92,1.973,4.392,4.392,0,0,0-.466.925,4.346,4.346,0,0,1,.819,1.889l.134.915-.925-.011-.11,0c.013.045.026.091.041.136A4.321,4.321,0,0,0,181.9,100.7a4.2,4.2,0,0,0,3.186-.152,4.105,4.105,0,0,0,1.666-1.472,3.767,3.767,0,0,0,.291-.548l.086-.2a3.468,3.468,0,0,0,.215-1.158c-.015-.253-.039-.381-.068-.383.16,0,.3-.1.422-.323a1.856,1.856,0,0,0,.164-.959,3.289,3.289,0,0,0-.431-1.381,3.8,3.8,0,0,0-1.239-1.287s-.077-.05-.228-.133A4.65,4.65,0,0,0,185.3,92.386Zm1.088,3.549c.318.454.568.844.9.849-.03,0-.066.123-.106.374a5.093,5.093,0,0,1-.343,1.039l-.1.176a3.38,3.38,0,0,1-.307.471,3.62,3.62,0,0,1-1.57,1.16,3.491,3.491,0,0,1-1.266.211,3.405,3.405,0,0,1-1.368-.311,3.31,3.31,0,0,1-1.823-2.218,3.265,3.265,0,0,1,0-1.454,3.146,3.146,0,0,1,.1-.329c.037-.111.091-.214.132-.321.057-.1.107-.2.168-.3s.12-.19.2-.272A3,3,0,0,1,183,93.9a3.144,3.144,0,0,1,.451-.016h0l.019,0,.037,0,.073.007.143.014a.9.9,0,0,1,.209.038c.057.016.1.019.165.04l.172.056c.111.033.2.087.292.12a2.754,2.754,0,0,1,.378.224l.1.065a.15.15,0,0,1,.031.024,5.623,5.623,0,0,1,.762.728C186.045,95.457,186.22,95.708,186.386,95.936Z" transform="translate(-137.597 -70.695)" fill="#fff"/>
      <path id="Path_88" data-name="Path 88" d="M169,103.1a3.42,3.42,0,0,0-.989-1.869c-.6-.528-1-.631-1.275-.524l-.9-.787a2.067,2.067,0,0,1-.091.727l0,.013.586.513c-.069.288.085.666.688,1.194A3.419,3.419,0,0,0,169,103.1Z" transform="translate(-127.231 -76.701)" fill="#fff"/>
      <path id="Path_89" data-name="Path 89" d="M146.307,83.731l-.408.466,1.753,1.534a2.065,2.065,0,0,1,.719-.194Z" transform="translate(-111.998 -64.275)" fill="#fff"/>
      <path id="Path_90" data-name="Path 90" d="M97.511,65.427l.026,0h6.149a4.764,4.764,0,1,0-6.175,0Z" transform="translate(-73.568 -43.788)" fill="#fff"/>
      <path id="Path_91" data-name="Path 91" d="M87.8,94.261a2.319,2.319,0,0,1-.869,3.969l-.025.007-.026.006-.009,0a11.37,11.37,0,0,1-2.956.422,6.592,6.592,0,0,1-2.133-.325c-.082.316-.152.639-.213.965l1.528,7.509a4.094,4.094,0,0,0,.9.23v17.389a2.411,2.411,0,0,0,4.822,0V112.956h.956v11.482a2.411,2.411,0,0,0,4.822,0V100.16c.076.318.154.669.233,1.06a1.79,1.79,0,0,0,1.633,1.586l.109,0c1.269,0,1.952-1.23,2.969-3.919.57-1.506,1.037-2.99,1.057-3.053a1.51,1.51,0,1,0-2.881-.906c-.247.783-.536,1.632-.823,2.416-.708-1.764-1.838-3.1-3.9-3.1a1.5,1.5,0,0,0-.169.01H87.8Z" transform="translate(-62.613 -72.06)" fill="#fff"/>
      <path id="Path_92" data-name="Path 92" d="M27.242,174.233a28.056,28.056,0,0,1-4.647-.43v12.109a2.324,2.324,0,0,0,4.647,0Z" transform="translate(-17.345 -133.418)" fill="#fff"/>
      <path id="Path_93" data-name="Path 93" d="M45.929,174.233v11.679a2.324,2.324,0,0,0,4.647,0V173.8A28.033,28.033,0,0,1,45.929,174.233Z" transform="translate(-35.257 -133.418)" fill="#fff"/>
      <path id="Path_94" data-name="Path 94" d="M33.807,27.252a2.05,2.05,0,0,1,.747.143,2.883,2.883,0,0,1,.467.244,5,5,0,1,0-8.128-.386Z" transform="translate(-20.034 -15.012)" fill="#fff"/>
      <path id="Path_95" data-name="Path 95" d="M0,66.115a2.359,2.359,0,0,0,.41,1.351,2.61,2.61,0,0,0,1.505,1,4.529,4.529,0,0,0,.692.125L.216,80.341S3.7,82.432,10.285,82.432s10.069-2.091,10.069-2.091L17.421,65.927a3.365,3.365,0,0,0,1.7,1.594,5.447,5.447,0,0,0,2.174.4,10.765,10.765,0,0,0,2.788-.405,1.51,1.51,0,0,0-.862-2.895l-.024.007a7.988,7.988,0,0,1-1.9.273,2.562,2.562,0,0,1-.965-.148c-.185-.1-.158-.086-.208-.188A28.692,28.692,0,0,0,16.427,56.9a5.421,5.421,0,0,0-2.095-1.914,1.519,1.519,0,0,0-.558-.107H6.8a1.493,1.493,0,0,0-.656.15c-.433.192-3.787,2.133-6.019,10.251A3.128,3.128,0,0,0,0,66.115Z" transform="translate(0 -42.124)" fill="#fff"/>
    </g>
  </g>
</svg>
