<svg id="fitness_classes_svg" data-name="fitness classes_svg" xmlns="http://www.w3.org/2000/svg" width="53.694" height="54.48" viewBox="0 0 53.694 54.48">
  <g id="Group_23" data-name="Group 23">
    <rect id="Rectangle_271" data-name="Rectangle 271" width="8.071" height="0.919" transform="translate(22.041 37.954)" fill="#fff"/>
    <rect id="Rectangle_272" data-name="Rectangle 272" width="8.652" height="0.919" transform="translate(36.084 37.954)" fill="#fff"/>
    <rect id="Rectangle_273" data-name="Rectangle 273" width="3.369" height="0.919" transform="translate(50.325 37.954)" fill="#fff"/>
    <path id="Path_102" data-name="Path 102" d="M97.646,82.275a9.544,9.544,0,0,0-.973.239,8.015,8.015,0,0,0-2.4,1.153,36.163,36.163,0,0,1,.607,7.2c0,1.267-.04,2.658-.13,4.186A1.837,1.837,0,0,0,96.48,97c.036,0,.073,0,.109,0a1.837,1.837,0,0,0,1.833-1.731c.092-1.592.136-3.054.136-4.4a37.983,37.983,0,0,0-.828-8.608Z" transform="translate(-72.621 -63.365)" fill="#fff"/>
    <path id="Path_103" data-name="Path 103" d="M4.895,76.774,6.86,75.443l1.378-.933V90.692a2.84,2.84,0,0,0,5.68,0V72.49h1.065v18.2a2.84,2.84,0,0,0,5.68,0V56.247a9.957,9.957,0,0,1,.409.973,14.188,14.188,0,0,1,.418,1.405,9.523,9.523,0,0,1,3.448-1.348,13.233,13.233,0,0,0-1.628-3.8,6.491,6.491,0,0,0-2.453-2.287,4.37,4.37,0,0,0-1.882-.49c-.029,0-.058,0-.088,0h-.666l1.6,2.018-3.1-.956-2.01,2.929L15.75,50.7h-2.6l1.042,3.991-2.01-2.929-3.1.956,1.6-2.018h-.666c-.022,0-.043,0-.065,0a5.012,5.012,0,0,0-3.541,1.736,11.268,11.268,0,0,0-2.443,4.841A9.524,9.524,0,0,1,7.41,58.625a12.067,12.067,0,0,1,.828-2.381v7.722l-1.109.751q-.014.416-.022.847l1.552-1.051L12.781,70.6l-7.7,5.217L.957,69.731l1.58-1.07c-.008-.277-.014-.549-.019-.819L0,69.547Z" transform="translate(0 -39.052)" fill="#fff"/>
    <rect id="Rectangle_274" data-name="Rectangle 274" width="0.459" height="4.413" transform="translate(7.772 27.935) rotate(-34.979)" fill="#fff"/>
    <path id="Path_104" data-name="Path 104" d="M31.059,128.912q.013.42.033.849l1.524,2.182.377-.263Z" transform="translate(-23.925 -99.302)" fill="#fff"/>
    <path id="Path_105" data-name="Path 105" d="M14.872,97c.036,0,.073,0,.11,0a1.838,1.838,0,0,0,1.727-1.942c-.09-1.527-.13-2.919-.13-4.185a41.448,41.448,0,0,1,.339-5.629c.079-.574.169-1.1.268-1.576a8.718,8.718,0,0,0-3.371-1.388l-.079-.014c-.177.749-.332,1.568-.458,2.474a.005.005,0,0,1,0,0h0A45.166,45.166,0,0,0,12.9,90.87c0,1.345.043,2.808.137,4.4A1.837,1.837,0,0,0,14.872,97Z" transform="translate(-9.939 -63.368)" fill="#fff"/>
    <path id="Path_106" data-name="Path 106" d="M168.107,93.859c1.153,0,1.973-1.836,2.3-2.72h-4.6C166.134,92.023,166.954,93.859,168.107,93.859Z" transform="translate(-127.721 -70.205)" fill="#fff"/>
    <circle id="Ellipse_28" data-name="Ellipse 28" cx="3.105" cy="3.105" r="3.105" transform="translate(37.281 13.938)" fill="#fff"/>
    <path id="Path_107" data-name="Path 107" d="M146.51,131.584h-6.762a1.725,1.725,0,0,0-1.655,1.241l-1.955,6.693a1.725,1.725,0,1,0,3.311.967l1.592-5.451h8.316l1.593,5.451a1.725,1.725,0,1,0,3.311-.967l-1.955-6.693a1.726,1.726,0,0,0-1.656-1.241h-4.14Z" transform="translate(-104.814 -101.36)" fill="#fff"/>
    <path id="Path_108" data-name="Path 108" d="M125.342,28.875a.477.477,0,0,0,.136-.02l1.879-.553c.534,3.985,1.962,6.414,3.367,7.815a7.458,7.458,0,0,0,2.109,1.508v4.823c1.2-2.431.654-6.3.536-7.035a6,6,0,0,1-1.587-1.422,12.163,12.163,0,0,1-2.28-6.32l.6-.177h1.688a.482.482,0,0,0,.337-.138H141a.481.481,0,0,0,.338.138h1.688l.649.191c-.457,3.808-1.717,5.8-2.783,6.872a5.579,5.579,0,0,1-1.138.888c-.128.811-.64,4.6.541,7v-4.8a7.425,7.425,0,0,0,2.159-1.531c1.4-1.4,2.831-3.825,3.365-7.8l1.831.538a.473.473,0,0,0,.136.02.483.483,0,0,0,.136-.947l-2.084-.613A1.1,1.1,0,0,0,144.1,26.8l-.929-.273h-1.827a.481.481,0,0,0-.338.138h-4.16V19.238h-.552v7.429h-4.16a.481.481,0,0,0-.338-.138h-1.827l-.891.262a1.1,1.1,0,0,0-1.727.508l-2.141.63a.483.483,0,0,0,.136.947Z" transform="translate(-96.179 -14.819)" fill="#fff"/>
    <rect id="Rectangle_275" data-name="Rectangle 275" width="5.934" height="1.242" transform="translate(37.419 34.64)" fill="#fff"/>
    <path id="Path_109" data-name="Path 109" d="M44.738,10.267a5.143,5.143,0,0,0,1.681,0,5.122,5.122,0,0,0,1.272-.383c.065-.029.129-.059.192-.091a5.168,5.168,0,1,0-4.609,0c.063.031.127.062.192.091A5.128,5.128,0,0,0,44.738,10.267Z" transform="translate(-31.128)" fill="#fff"/>
  </g>
</svg>
