<svg xmlns="http://www.w3.org/2000/svg" width="75.862" height="55.932" viewBox="0 0 75.862 55.932">
  <g id="music_classes_svg" data-name="music classes_svg" transform="translate(-5.889 -5.786)">
    <circle id="Ellipse_24" data-name="Ellipse 24" cx="4.42" cy="4.42" r="4.42" transform="translate(30.532 43.828)" fill="#fff"/>
    <circle id="Ellipse_25" data-name="Ellipse 25" cx="4.42" cy="4.42" r="4.42" transform="translate(49.607 43.828)" fill="#fff"/>
    <circle id="Ellipse_26" data-name="Ellipse 26" cx="4.42" cy="4.42" r="4.42" transform="translate(68.682 43.828)" fill="#fff"/>
    <path id="Path_96" data-name="Path 96" d="M127.512,139.67a6.836,6.836,0,0,0-7.211,0,12.46,12.46,0,0,0-4.885,6.459h17.01A12.534,12.534,0,0,0,127.512,139.67Z" transform="translate(-69.75 -84.606)" fill="#fff"/>
    <path id="Path_97" data-name="Path 97" d="M180.033,139.67a6.835,6.835,0,0,0-7.21,0,12.465,12.465,0,0,0-4.886,6.459h17.012A12.538,12.538,0,0,0,180.033,139.67Z" transform="translate(-103.198 -84.606)" fill="#fff"/>
    <path id="Path_98" data-name="Path 98" d="M74.988,139.67a6.836,6.836,0,0,0-7.211,0,12.458,12.458,0,0,0-4.886,6.459H79.9A12.537,12.537,0,0,0,74.988,139.67Z" transform="translate(-36.301 -84.606)" fill="#fff"/>
    <circle id="Ellipse_27" data-name="Ellipse 27" cx="4.42" cy="4.42" r="4.42" transform="translate(12.009 6.744)" fill="#fff"/>
    <path id="Path_99" data-name="Path 99" d="M64.4,36.725h51.391a1.909,1.909,0,0,0,1.907-1.907V7.693a1.909,1.909,0,0,0-1.907-1.907H64.4a1.909,1.909,0,0,0-1.907,1.907V23.667a1.824,1.824,0,0,0,.825.67.694.694,0,0,0,.135.012,1.629,1.629,0,0,0,.311-.035V7.693a.636.636,0,0,1,.636-.636h51.391a.636.636,0,0,1,.636.636V34.818a.636.636,0,0,1-.636.636H64.4a.636.636,0,0,1-.636-.636V30.38c-.1.005-.208.008-.311.008a6.818,6.818,0,0,1-.961-.069v4.5A1.909,1.909,0,0,0,64.4,36.725Z" transform="translate(-36.046)" fill="#fff"/>
    <path id="Path_100" data-name="Path 100" d="M27.406,48.695c.1,0,.206,0,.311-.008a10.718,10.718,0,0,0,5.464-2.3,1.745,1.745,0,0,0,.7-1.733l7.027-5.11a.636.636,0,0,0-.748-1.028l-6.945,5.051a1.747,1.747,0,0,0-2.066-.027,8.21,8.21,0,0,1-3.435,1.636,2.672,2.672,0,0,1-.311.021,1.929,1.929,0,0,1-.386-.037,1.863,1.863,0,0,1-.575-.226A9.165,9.165,0,0,1,24,41.907c-1.29-2.082-2.752-4.443-5.515-5.059a1.689,1.689,0,0,0-.252-.035,6.726,6.726,0,0,0-1.932-.285,7,7,0,0,0-3.61,1.029C8,40.368,5.474,47,5.945,57.085A1.749,1.749,0,0,0,7.69,58.751l.083,0a1.748,1.748,0,0,0,1.665-1.828,27.268,27.268,0,0,1,1.349-10.953q.234-.676.5-1.288V58.623H11.3V79.176a2.119,2.119,0,1,0,4.238,0V58.622H17.1V79.161a2.119,2.119,0,0,0,4.238,0V58.622h.016V44.831l-.165-.825c1.214,1.954,2.622,4.077,5.138,4.583.038.008.077.013.115.02A5.506,5.506,0,0,0,27.406,48.695Z" transform="translate(0 -19.578)" fill="#fff"/>
    <path id="Path_101" data-name="Path 101" d="M142.028,39.561a2.112,2.112,0,0,0-1.043-.308,3.984,3.984,0,0,0-1.258.12,3,3,0,0,0-1.07.508,1.12,1.12,0,0,0-.481.857.8.8,0,0,0,.374.735,2.642,2.642,0,0,0,1,.4,4.753,4.753,0,0,0,1.3.068,3.933,3.933,0,0,0,1.3-.321,2.738,2.738,0,0,0,1-.75,1.815,1.815,0,0,0,.4-1.2V31.936l6.635-2.7-.027,7.758a2.2,2.2,0,0,0-1.15-.415,3.921,3.921,0,0,0-1.338.094,2.961,2.961,0,0,0-1.1.508.926.926,0,0,0-.428.8,1.159,1.159,0,0,0,.428.87,2.447,2.447,0,0,0,1.017.482,4.492,4.492,0,0,0,1.31.107,3.431,3.431,0,0,0,1.285-.322,2.827,2.827,0,0,0,.989-.775,1.873,1.873,0,0,0,.4-1.218V26.183l-9.551,3.907v9.472Z" transform="translate(-84.244 -12.989)" fill="#fff"/>
  </g>
</svg>
