<svg id="tuitions_svg" xmlns="http://www.w3.org/2000/svg" width="75.154" height="55.52" viewBox="0 0 75.154 55.52">
  <path id="Path_75" data-name="Path 75" d="M194,74.652V77.8h.669V88.88h3.151V84.87h11.723c.181,1.34.38,2.677.611,4.011h3.2a105.485,105.485,0,0,1,.221-38.293L210.48,50a108.482,108.482,0,0,0-1.832,24.655Zm15.325,8.5H197.819V77.8h11Q209.007,80.482,209.324,83.151Z" transform="translate(-138.422 -34.382)" fill="#fff"/>
  <ellipse id="Ellipse_22" data-name="Ellipse 22" cx="6.444" cy="6.444" rx="6.444" ry="6.444" transform="translate(44.925 2.923) rotate(-13.109)" fill="#fff"/>
  <path id="Path_76" data-name="Path 76" d="M183.948,43.16a2.865,2.865,0,0,1,2.706,3.806,14.108,14.108,0,0,1-4.19,5.633c-.362.311-.766.629-1.212.948a39.081,39.081,0,0,1,.613,6.3h-6.775v1.315h-2.507V83.221c.07,0,.14.009.211.009a3.584,3.584,0,0,0,3.51-4.309l-2.472-11.917h11.835a3.618,3.618,0,0,0,.549-.046c2.388-.124,4.93-.977,5.718-5.036a31.659,31.659,0,0,0-1.627-15.906c-1.443-4.195-4.988-5.523-7.434-4.913-2.176.542-3.266,3.305-2.9,5.916a7.7,7.7,0,0,0,1.279-1.966A2.861,2.861,0,0,1,183.948,43.16Z" transform="translate(-123.142 -27.936)" fill="#fff"/>
  <path id="Path_77" data-name="Path 77" d="M150.189,125.957l1.69,8.148v-8.148Z" transform="translate(-107.162 -88.58)" fill="#fff"/>
  <path id="Path_78" data-name="Path 78" d="M160.926,59.061a13.593,13.593,0,0,0,4.021-5.385,2.292,2.292,0,0,0-4.328-1.511h0a9.881,9.881,0,0,1-3.092,3.754c-2.234,1.727-5.941,3.486-12.315,3.5a2.291,2.291,0,0,0-.8,4.438h4.005C154.345,63.305,158.382,61.243,160.926,59.061Z" transform="translate(-101.975 -34.834)" fill="#fff"/>
  <circle id="Ellipse_23" data-name="Ellipse 23" cx="5.99" cy="5.99" r="5.99" transform="translate(13.899 6.296)" fill="#fff"/>
  <path id="Path_79" data-name="Path 79" d="M71.334,101.845h2.507v22.871h3.582V106H96.187v18.716h3.581V101.845h2.507V98.789H71.334Z" transform="translate(-50.898 -69.196)" fill="#fff"/>
  <path id="Path_80" data-name="Path 80" d="M15.757,88.881h3.151v-1.6a2.969,2.969,0,0,0,3.462-.717V67.846l-6.711-.077a30.171,30.171,0,0,1,.7-5.32,11.258,11.258,0,0,1-1.937-1.269,10.852,10.852,0,0,1-2.38-2.65,2.578,2.578,0,1,1,4.431-2.637l.03.046c.032.047.1.146.2.269a6.564,6.564,0,0,0,.86.876c.16-1.959-.774-3.888-2.569-4.267A6.112,6.112,0,0,0,8.3,56.87,23.426,23.426,0,0,0,6.638,69.7c.741,3.7,3.556,4.044,5.9,3.983l.234-.007,6.812.079-.205.894H4.927A108.5,108.5,0,0,0,3.1,50l-3.1.59A105.479,105.479,0,0,1,.221,88.881h3.2c.231-1.334.43-2.671.611-4.011H15.757ZM4.251,83.151q.317-2.669.5-5.347h11v5.347Z" transform="translate(0 -34.382)" fill="#fff"/>
  <path id="Path_81" data-name="Path 81" d="M86.615,66.919,83.707,64l-.66.657,2.622,2.635c.1-.048.193-.091.291-.142A2.589,2.589,0,0,1,86.615,66.919Z" transform="translate(-59.255 -44.371)" fill="#fff"/>
  <path id="Path_82" data-name="Path 82" d="M105.4,86.456l.66-.657-.918-.922a2.589,2.589,0,0,1-.4.922Z" transform="translate(-74.738 -59.269)" fill="#fff"/>
  <path id="Path_83" data-name="Path 83" d="M103.462,92.545V91.56H94.475a19.828,19.828,0,0,1-2.338.985Z" transform="translate(-65.741 -64.038)" fill="#fff"/>
  <path id="Path_84" data-name="Path 84" d="M46.761,69.518c-.112-.14-.192-.251-.238-.319l-.042-.064a2.005,2.005,0,0,0-3.456,2.036,10.139,10.139,0,0,0,2.261,2.517,10.775,10.775,0,0,0,6.861,2.425h.02A15.6,15.6,0,0,0,59.3,74.185a2.005,2.005,0,0,0-1.836-3.566,11.611,11.611,0,0,1-5.3,1.481,6.73,6.73,0,0,1-4.352-1.527A7.053,7.053,0,0,1,46.761,69.518Z" transform="translate(-30.502 -47.334)" fill="#fff"/>
</svg>
