<svg xmlns="http://www.w3.org/2000/svg" xmlns:xlink="http://www.w3.org/1999/xlink" width="482" height="471" viewBox="0 0 482 471">
  <defs>
    <clipPath id="clip-UNDO">
      <rect width="482" height="471"/>
    </clipPath>
  </defs>
  <g id="UNDO" clip-path="url(#clip-UNDO)">
    <path id="Icon_awesome-undo" data-name="Icon awesome-undo" d="M64.91,68.6l-61.082.389A3.746,3.746,0,0,1,.082,65.24L.2,4.564C.2,2.5-.735.316,1.333.316L2.92.172c2.069,0,1.473.929,1.473,3l.638,58.915c3.378-3.751,9.23-15.8,16.789-24.9s11.125-13.4,17.6-18.273C49.329,11.443,65.674,4.737,77.141,4.82c42.736.31,75.757,32.829,75.666,75.566-.091,42.678-29.435,74.559-72.134,74.559-20.006,0-38.813-6.248-52.552-18.7a3.271,3.271,0,0,1-1.332-2.811s1.552-3.523,2.86-2.889,5.775,5.349,7.255,6.658c9.688,8.573,30.956,13.433,44.926,13.433a77.808,77.808,0,0,0,29.621-6.424c5.09-2.141,10.9-6.919,15.651-11.237A61.583,61.583,0,0,0,142,111.882c4.143-9.328,5.938-22.676,5.938-32.8,0-14.3-5.515-32.356-19.8-47.435S93.331,10.588,77.267,10.588c-7.906,0-22.9,4.505-33.745,11.814C31.958,30.176,14.442,56.127,8.78,63.89l54.288-.182c2.069,0,5.459-.606,5.459,1.463l.094,2.154c0,2.069-1.642,1.273-3.71,1.273Z" transform="matrix(0.966, -0.259, 0.259, 0.966, 148.789, 159.094) scale(-1, 1) translate(-150, 20)"/>
  </g>
</svg>
