<svg xmlns="http://www.w3.org/2000/svg" xmlns:xlink="http://www.w3.org/1999/xlink" width="482" height="471" viewBox="0 0 482 471">
  <defs>
    <clipPath id="clip-SS_6">
      <rect width="482" height="471"/>
    </clipPath>
  </defs>
  <g id="SS_6" data-name="SS – 6" clip-path="url(#clip-SS_6)">
    <path id="Icon_ionic-md-hand" data-name="Icon ionic-md-hand" d="M186.16,111.989c-6.763-6.76-16.719-7.369-23.482-.608L143.347,130.7c-5.032,5.025-11.1,5.036-14.637.859-2.345-2.767-1.419-11.3-.762-16.717l9.7-79.69c.866-7.12-4.206-14-11.329-14.863s-13.6,4.609-14.464,11.727L101.156,94.609c-.559,1.557-1.758,1.826-1.892-.27l-3.64-81.355a12.991,12.991,0,0,0-25.982,0l-.256,81.964c.068.946-.744,1.217-.89.136L56.938,31.105c-1.275-7.057-8.033-12.151-15.093-10.876a13.393,13.393,0,0,0-10.476,15.49l10.291,74.87c.011,1.332-.436,2.093-1.07.385L25.237,69.927c-2.4-6.757-9.829-10.7-16.59-8.3A13.431,13.431,0,0,0,.753,78.619l26.915,87.933c.141.485.289.967.442,1.446l.056.181c.005.014.012.027.016.041a57.261,57.261,0,0,0,54.451,39.528,77.478,77.478,0,0,0,46.074-15.614h0c13.907-8.371,58.462-56.271,58.462-56.271C193.935,129.1,192.925,118.75,186.16,111.989Z" transform="translate(145.696 167.006) rotate(-19)" fill="none" stroke="#8759f3" stroke-width="1"/>
  </g>
</svg>
