<svg xmlns="http://www.w3.org/2000/svg" xmlns:xlink="http://www.w3.org/1999/xlink" width="482" height="471" viewBox="0 0 482 471">
  <defs>
    <clipPath id="clip-SS_8">
      <rect width="482" height="471"/>
    </clipPath>
  </defs>
  <g id="SS_8" data-name="SS – 8" clip-path="url(#clip-SS_8)">
    <g id="noun_questions_and_answers_1372095" data-name="noun_questions and answers_1372095" transform="translate(71 110.963)">
      <g id="Group_89" data-name="Group 89" transform="translate(47 44.037)">
        <path id="Path_55" data-name="Path 55" d="M27.773,70.617H41.867v14.1H27.773Zm28.491,0h14.1v14.1h-14.1v-14.1Zm28.482,0H98.84v14.1H84.746ZM155.308,99.01l.157,1.485h10.647v8.26h-10.89l.047-5.812C155.29,100.424,155.308,99.01,155.308,99.01Zm22.957-30.671a14.58,14.58,0,0,1-2.818,8.328c-2.027,2.954-5.517,4.753-7.5,7.686-1.653,2.44-1.815,5.471-1.832,8.341h-10.8c0-6.015.077-9.841,4.1-14.913,1.993-2.508,5.683-4.821,7.273-7.325,2.363-3.728-1.649-6.479-5.092-6.479-2.98,0-5.7,1.637-6.121,4.761l-.242,1.781h-10.55c.31-5.063.812-8.532,4.807-12.286,3.447-3.231,7.834-4.485,12.484-4.485C170.567,53.749,178.265,59.207,178.265,68.338Zm19.871-30.569H135.769V98.678a25.307,25.307,0,0,1-17.316,23.967,14.26,14.26,0,0,0,6.329,1.475h24.857l39.308,28.142V124.121h9.185a14.439,14.439,0,0,0,14.388-14.394V52.167A14.431,14.431,0,0,0,198.136,37.769ZM110.525,8.037h-92.4A18.184,18.184,0,0,0,0,26.168v72.51a18.191,18.191,0,0,0,18.128,18.135H29.7v35.45l49.518-35.45h31.309c.11,0,.219,0,1.644-.074,8.518-.105,16.488-8.185,16.488-18.061V26.168A18.194,18.194,0,0,0,110.525,8.037Z" transform="translate(0 -8.037)" fill="none" stroke="#8759f3" stroke-width="0.8" fill-rule="evenodd"/>
        <path id="Path_56" data-name="Path 56" d="M20.873,23H31.465V34.224H20.145Z" transform="translate(65.531 40.76)" fill="#8759f3"/>
        <path id="Path_57" data-name="Path 57" d="M13.444,23.028H24.815v11.1H13.444Z" transform="translate(43.736 40.849)" fill="#8759f3"/>
        <path id="Path_58" data-name="Path 58" d="M6.692,22.915H18.558V34.35H6.692Z" transform="translate(19.994 40.49)" fill="#8759f3"/>
      </g>
    </g>
  </g>
</svg>
