<svg xmlns="http://www.w3.org/2000/svg" xmlns:xlink="http://www.w3.org/1999/xlink" width="482" height="471" viewBox="0 0 482 471">
  <defs>
    <clipPath id="clip-SS_20">
      <rect width="482" height="471"/>
    </clipPath>
  </defs>
  <g id="SS_20" data-name="SS – 20" clip-path="url(#clip-SS_20)">
    <g id="Symbols" transform="translate(138 133)">
      <g id="ic-toolbar-_x2F_-ict_x5F_linetool-locker">
        <g id="ic-toolbar-_x2F_-ict_x5F_linetool">
          <path id="Shape" d="M0,0H205.432V205.432H0Z" fill="none"/>
          <path id="Rectangle-3" d="M6.826,132.137,133.937,5.026a6.206,6.206,0,0,1,8.988,0h0a6.206,6.206,0,0,1,0,8.988L15.814,141.125a6.206,6.206,0,0,1-8.988,0h0A6.206,6.206,0,0,1,6.826,132.137Z" transform="translate(26.557 16.801)" fill="#1a1a1a"/>
          <path id="Rectangle-3-Copy" d="M9.52,17.7H163.594a6.065,6.065,0,0,1,6.42,6.42h0a6.065,6.065,0,0,1-6.42,6.42H9.52A6.065,6.065,0,0,1,3.1,24.12h0A6.433,6.433,0,0,1,9.52,17.7Z" transform="translate(16.801 95.93)" fill="#1a1a1a"/>
        </g>
      </g>
    </g>
  </g>
</svg>
