<svg xmlns="http://www.w3.org/2000/svg" xmlns:xlink="http://www.w3.org/1999/xlink" width="482" height="471" viewBox="0 0 482 471">
  <defs>
    <clipPath id="clip-SS_22">
      <rect width="482" height="471"/>
    </clipPath>
  </defs>
  <g id="SS_22" data-name="SS – 22" clip-path="url(#clip-SS_22)">
    <g id="Group_123" data-name="Group 123" transform="translate(103.262 110.986)">
      <g id="Group_73" data-name="Group 73" transform="translate(0 0)">
        <path id="Icon_awesome-eraser" data-name="Icon awesome-eraser" d="M210.354,102.909c7.953-7.953,10.96-13.556,3.006-21.509L137.035,5.974C129.081-1.979,123.754.426,115.8,8.38L7.59,116.094c-4.319,4.319-8.538,7.022-7.675,14.2s8.3,12.595,11.935,16.23l38.782,38.634c3.819,3.819,8.123,7.335,13.525,7.335h149.2a5.092,5.092,0,0,0,5.091-5.091v-2.244c0-2.812-2.28-3.164-5.091-3.164h-8.082l-72.17,3.164ZM127.907,8.38,213.36,90.545l-88.48,94.613H62.316L5.68,128.66,127.907,8.38Z" transform="translate(0.198 -1.077)"/>
      </g>
      <path id="Path_33" data-name="Path 33" d="M6205.057,371.557l91.094,91.093-21.176,16.225H6213.6l-59.367-57.35Z" transform="translate(-6150.734 -292.846)"/>
    </g>
  </g>
</svg>
