<svg xmlns="http://www.w3.org/2000/svg" xmlns:xlink="http://www.w3.org/1999/xlink" width="482" height="471" viewBox="0 0 482 471">
  <defs>
    <clipPath id="clip-SS_15">
      <rect width="482" height="471"/>
    </clipPath>
  </defs>
  <g id="SS_15" data-name="SS – 15" clip-path="url(#clip-SS_15)">
    <g id="Group_134" data-name="Group 134" transform="translate(-1212 -847)">
      <circle id="Ellipse_11" data-name="Ellipse 11" cx="78" cy="78" r="78" transform="translate(1366 1009)" fill="#8759f3"/>
      <path id="Icon_awesome-expand" data-name="Icon awesome-expand" d="M0,27.259V6.305A3.882,3.882,0,0,1,3.7,2.25H22.841a1.952,1.952,0,0,1,1.852,2.028v6.759a1.952,1.952,0,0,1-1.852,2.028H9.877V27.259a1.952,1.952,0,0,1-1.852,2.028H1.852A1.952,1.952,0,0,1,0,27.259ZM44.448,4.278v6.759A1.952,1.952,0,0,0,46.3,13.065H59.264V27.259a1.952,1.952,0,0,0,1.852,2.028h6.173a1.952,1.952,0,0,0,1.852-2.028V6.305a3.882,3.882,0,0,0-3.7-4.055H46.3A1.952,1.952,0,0,0,44.448,4.278ZM67.289,50.916H61.116a1.952,1.952,0,0,0-1.852,2.028V67.138H46.3a1.952,1.952,0,0,0-1.852,2.028v6.759A1.952,1.952,0,0,0,46.3,77.952H65.437a3.882,3.882,0,0,0,3.7-4.055V52.944A1.952,1.952,0,0,0,67.289,50.916Zm-42.6,25.009V69.165a1.952,1.952,0,0,0-1.852-2.028H9.877V52.944a1.952,1.952,0,0,0-1.852-2.028H1.852A1.952,1.952,0,0,0,0,52.944V73.9a3.882,3.882,0,0,0,3.7,4.055H22.841A1.952,1.952,0,0,0,24.693,75.925Z" transform="translate(1409.995 1049.966)" fill="#fff"/>
    </g>
  </g>
</svg>
