<svg xmlns="http://www.w3.org/2000/svg" xmlns:xlink="http://www.w3.org/1999/xlink" width="482" height="471" viewBox="0 0 482 471">
  <defs>
    <clipPath id="clip-SS_16">
      <rect width="482" height="471"/>
    </clipPath>
  </defs>
  <g id="SS_16" data-name="SS – 16" clip-path="url(#clip-SS_16)">
    <path id="pen" d="M169.948,44.944l-7.985,7.985-24.89-24.89,7.976-7.985a17.6,17.6,0,0,1,24.89,24.881l.018.009ZM57.039,157.871,17.918,172.094l14.223-39.113,98.65-98.633,24.872,24.89L57.031,157.871ZM176.258,13.754a26.549,26.549,0,0,0-37.5,0L25.136,127.376a4.207,4.207,0,0,0-1.034,1.631L6.28,178.02a4.42,4.42,0,0,0,4.188,5.971,4.487,4.487,0,0,0,1.515-.267L61,165.9a4.464,4.464,0,0,0,1.64-1.034L176.258,51.245a26.549,26.549,0,0,0,0-37.5v.009Z" transform="translate(146.001 140.999)" fill="#1a1a1a" fill-rule="evenodd"/>
  </g>
</svg>
