<svg xmlns="http://www.w3.org/2000/svg" xmlns:xlink="http://www.w3.org/1999/xlink" width="482" height="471" viewBox="0 0 482 471">
  <defs>
    <clipPath id="clip-SS_21">
      <rect width="482" height="471"/>
    </clipPath>
  </defs>
  <g id="SS_21" data-name="SS – 21" clip-path="url(#clip-SS_21)">
    <g id="Group_122" data-name="Group 122" transform="translate(138.946 135.986)">
      <g id="Group_72" data-name="Group 72" transform="translate(0)">
        <path id="Icon_awesome-eraser" data-name="Icon awesome-eraser" d="M214.017,104.681c8.092-8.092,11.15-13.792,3.059-21.884L139.422,6.059c-8.092-8.092-13.512-5.644-21.6,2.448L7.726,118.095c-4.394,4.394-8.686,7.144-7.809,14.448s8.445,12.814,12.143,16.512l39.457,39.307c3.886,3.886,8.265,7.462,13.76,7.463h151.8a5.18,5.18,0,0,0,5.18-5.18v-2.283c0-2.861-2.319-3.219-5.18-3.219h-8.222l-73.425,3.219,78.589-83.68ZM130.136,8.507,217.076,92.1l-90.019,96.26H63.4L5.782,130.88,130.136,8.507Z" transform="translate(0.198 -1.077)"/>
        <path id="Path_31" data-name="Path 31" d="M6119.494,389.541l-19.684,20.04,119.754,2.086-4.34-28.2Z" transform="translate(-5973.51 -212.76)" fill="#e8e8e8"/>
      </g>
      <path id="Path_32" data-name="Path 32" d="M6104.875,366.344l87.211,92.67-8.125,12.746-90-92.734Z" transform="translate(-6010.344 -329.174)"/>
    </g>
  </g>
</svg>
