<svg xmlns="http://www.w3.org/2000/svg" xmlns:xlink="http://www.w3.org/1999/xlink" width="482" height="471" viewBox="0 0 482 471">
  <defs>
    <clipPath id="clip-SS_23">
      <rect width="482" height="471"/>
    </clipPath>
  </defs>
  <g id="SS_23" data-name="SS – 23" clip-path="url(#clip-SS_23)">
    <g id="Icon_ionic-ios-cut" data-name="Icon ionic-ios-cut" transform="translate(153.889 134.256)">
      <path id="Path_34" data-name="Path 34" d="M115.691,113.192C128.08,97.158,154.8,59.017,159.516,47.4c3.5-8.551,5.15-15.937,5.053-22.447-.1-8.7-2.915-14.236-8.891-19.726-2.527-2.332-6.559-3.353-9.717-3.353L90.377,76.509l-4.859,6.511-1.409,1.895-.049.049-7.045,9.572c-.049.049-.1.146-.146.194-.243.389-3.644,5.3-7.385,11.029-1.458,2.235-2.964,4.616-4.373,6.851-1.7,2.721-3.207,5.345-4.276,7.385-1.749,3.45-3.547,7-5.2,10.446-1.8,3.644-3.5,7.094-5.053,10.057A28.417,28.417,0,0,0,33.919,135.1,29.267,29.267,0,0,0,11.666,145.6a37.268,37.268,0,0,0,0,47.858,29.342,29.342,0,0,0,22.253,10.495,28.645,28.645,0,0,0,19.046-7.288,34.37,34.37,0,0,0,10.592-17.2c.486-1.506,5.636-16.86,12.681-27.84A43.669,43.669,0,0,1,90.62,138.117l6.559-4.713C97.179,133.452,103.349,129.177,115.691,113.192ZM34.016,183.108c-6.462,0-11.661-6.122-11.661-13.6s5.2-13.6,11.661-13.6,11.661,6.122,11.661,13.6C45.677,177.035,40.429,183.108,34.016,183.108Zm56.458-64.572a7.774,7.774,0,1,1,7.774-7.774A7.8,7.8,0,0,1,90.474,118.536Z" transform="translate(-2.969 -1.83)" fill="none" stroke="#000" stroke-width="1"/>
      <path id="Path_35" data-name="Path 35" d="M46.982,105.074a7.786,7.786,0,0,0,1.215,1.312c.826-1.36,1.749-2.769,2.624-4.179l22.593-31.97L22.4,1.875c-4.324,0-7,.437-8.989,1.895C7.626,8.094,4.128,16.208,4.031,24.954c-.1,6.559,1.6,13.9,5.053,22.447C13.262,57.6,29.782,81.509,46.982,105.074Z" transform="translate(9.136 -1.875)" fill="none" stroke="#000" stroke-width="1"/>
      <path id="Path_36" data-name="Path 36" d="M60.284,26.173a28.417,28.417,0,0,0-16.665,5.393c-1.555-2.964-3.255-6.413-5.053-10.058-1.652-3.353-3.353-6.8-5.053-10.106l-5.3,6.754L10.531,34.238a41.824,41.824,0,0,1,7.434,8.5C25.01,53.722,30.112,69.075,30.6,70.581a34.37,34.37,0,0,0,10.592,17.2,28.831,28.831,0,0,0,19.046,7.288c17.151,0,31.1-15.451,31.1-34.448S77.436,26.173,60.284,26.173Zm.049,48c-6.462,0-11.661-6.122-11.661-13.6s5.2-13.6,11.661-13.6,11.661,6.122,11.661,13.6C71.994,68.1,66.795,74.177,60.333,74.177Z" transform="translate(83.533 107.101)" fill="none" stroke="#000" stroke-width="1"/>
    </g>
  </g>
</svg>
