<svg xmlns="http://www.w3.org/2000/svg" xmlns:xlink="http://www.w3.org/1999/xlink" width="482" height="471" viewBox="0 0 482 471">
  <defs>
    <clipPath id="clip-SS_27">
      <rect width="482" height="471"/>
    </clipPath>
  </defs>
  <g id="SS_27" data-name="SS – 27" clip-path="url(#clip-SS_27)">
    <path id="Icon_metro-eyedropper" data-name="Icon metro-eyedropper" d="M117.63,5.487a15.077,15.077,0,0,0-21.322,0L76.033,25.761l-14.3-14.3L45.745,27.456,58.281,39.992,2.67,95.6a4.23,4.23,0,0,0-1.213,3.47H1.428v18.846A3.769,3.769,0,0,0,5.2,121.688H24.515a4.228,4.228,0,0,0,3-1.242L83.124,64.835,95.66,77.371,111.652,61.38l-14.3-14.3L117.63,26.809A15.077,15.077,0,0,0,117.63,5.487ZM21.816,114.15H8.967V101.3L64.278,45.989l12.85,12.85Z" transform="translate(178.955 173.854)"/>
  </g>
</svg>
