<svg id="online_counching_svg" data-name="online counching_svg" xmlns="http://www.w3.org/2000/svg" width="351.73" height="214.722" viewBox="0 0 351.73 214.722">
  <g id="OBJECTS" transform="translate(0 0)">
    <g id="Group_438" data-name="Group 438" transform="translate(34.147 0.746)" opacity="0.8">
      <g id="Group_435" data-name="Group 435" transform="translate(0 24.476)" opacity="0.5">
        <path id="Path_6327" data-name="Path 6327" d="M238.407,132.578a74.871,74.871,0,0,1-34.131-14.466c-15.077-11.377-46.621-30.739-76.713-21.1-41.5,13.306-41.69,51.789-30.877,72.69s87.48,82.107,186.88,72.357c88.947-8.724,106.277-108.484,58.84-126.537C301.234,99.889,287.219,139.788,238.407,132.578Z" transform="translate(-90.661 -94.406)" fill="#ced3e6"/>
      </g>
      <g id="Group_436" data-name="Group 436" transform="translate(271.937 43.732)" opacity="0.5">
        <ellipse id="Ellipse_705" data-name="Ellipse 705" cx="3.859" cy="4.152" rx="3.859" ry="4.152" fill="#ced3e6"/>
      </g>
      <path id="Path_6328" data-name="Path 6328" d="M135.441,86.689a2.5,2.5,0,0,1,2.8,1.565,2.588,2.588,0,0,1-3.654,3.115h0A2.541,2.541,0,0,1,135.441,86.689Z" transform="translate(-111.446 -66.152)" fill="#ced3e6"/>
      <circle id="Ellipse_706" data-name="Ellipse 706" cx="5.024" cy="5.024" r="5.024" transform="translate(260.242 5.758)" fill="#ced3e6"/>
      <g id="Group_437" data-name="Group 437" transform="translate(28.083 11.69)" opacity="0.8">
        <circle id="Ellipse_707" data-name="Ellipse 707" cx="5.075" cy="5.075" r="5.075" transform="translate(0 2.74) rotate(-15.66)" fill="#ced3e6"/>
      </g>
      <path id="Path_6329" data-name="Path 6329" d="M556.858,373.5a2.5,2.5,0,0,1,3.038,1.026c1.057,1.76-.37,4.229-3.012,3.741h0A2.547,2.547,0,0,1,556.858,373.5Z" transform="translate(-316.824 -205.719)" fill="#ced3e6"/>
      <circle id="Ellipse_708" data-name="Ellipse 708" cx="5.075" cy="5.075" r="5.075" transform="translate(242.912 161.011) rotate(-26.38)" fill="#ced3e6"/>
      <circle id="Ellipse_709" data-name="Ellipse 709" cx="3.089" cy="3.089" r="3.089" transform="translate(252.709)" fill="#ced3e6"/>
    </g>
    <g id="Group_439" data-name="Group 439" transform="translate(29.447)" opacity="0.8">
      <path id="Path_6330" data-name="Path 6330" d="M353.326,105.083c0-27.608-23-57.865-51.6-59.692l-1.539-.082C259.165,43.4,256.05,93.424,218.928,99.069s-65.454-22.841-109.859-4.259C69.2,111.5,58.4,205.289,175.58,209.051,269.336,212.058,353.336,187.462,353.326,105.083Z" transform="translate(-81.503 -45.256)" fill="#ced3e6"/>
    </g>
    <ellipse id="Ellipse_710" data-name="Ellipse 710" cx="94.295" cy="4.865" rx="94.295" ry="4.865" transform="translate(93.802 187.909)" fill="#ced3e6"/>
    <path id="Path_6331" data-name="Path 6331" d="M274.5,394.37H383.291a8.17,8.17,0,0,1,8.17,8.17v5.419H266.33v-5.414A8.17,8.17,0,0,1,274.5,394.37Z" transform="translate(-142.036 -215.216)" fill="#fff"/>
    <rect id="Rectangle_1114" data-name="Rectangle 1114" width="45.359" height="29.117" transform="translate(163.829 150.037)" fill="#fff"/>
    <path id="Path_6332" data-name="Path 6332" d="M343.37,346.569l45.354-3.628.01-5.311-45.359.051Z" transform="translate(-179.541 -187.593)" fill="#ced3e6"/>
    <path id="Path_6333" data-name="Path 6333" d="M388.763,97.561v114.19a6.061,6.061,0,0,1-6.061,6.061H196.741a6.061,6.061,0,0,1-6.061-6.061V97.561a6.061,6.061,0,0,1,6.061-6.061H383.3l.236.026h.226l.149.031A6.061,6.061,0,0,1,388.763,97.561Z" transform="translate(-105.207 -67.769)" fill="#fff"/>
    <circle id="Ellipse_711" data-name="Ellipse 711" cx="4.187" cy="4.187" r="4.187" transform="translate(182.293 137.654)" fill="#ced3e6"/>
    <path id="Path_6334" data-name="Path 6334" d="M383.924,91.686l-.149-.031h-.226l-.236-.026H196.741a6.061,6.061,0,0,0-6.061,6.061V203.372H388.763V97.624a6.061,6.061,0,0,0-4.84-5.938Zm-3.017,101.125a1.647,1.647,0,0,1-1.647,1.647h-179.1a1.647,1.647,0,0,1-1.647-1.647V101.057a1.647,1.647,0,0,1,1.647-1.647h179.1a1.647,1.647,0,0,1,1.647,1.647Z" transform="translate(-105.207 -67.832)" fill="#39393b"/>
    <rect id="Rectangle_1115" data-name="Rectangle 1115" width="182.37" height="95.039" rx="3.21" transform="translate(93.33 31.588)" fill="#ced3e6"/>
    <path id="Path_6335" data-name="Path 6335" d="M388.364,108.437v8.657H206v-8.657a1.647,1.647,0,0,1,1.647-1.647h179.1A1.647,1.647,0,0,1,388.364,108.437Z" transform="translate(-112.665 -75.213)" fill="#fff"/>
    <circle id="Ellipse_712" data-name="Ellipse 712" cx="1.401" cy="1.401" r="1.401" transform="translate(258.77 35.2)" fill="#df615c"/>
    <circle id="Ellipse_713" data-name="Ellipse 713" cx="1.401" cy="1.401" r="1.401" transform="translate(263.311 35.2)" fill="#21b573"/>
    <rect id="Rectangle_1116" data-name="Rectangle 1116" width="145.083" height="2.961" rx="1.48" transform="translate(109.253 35.118)" fill="#d2dcec"/>
    <path id="Path_6336" data-name="Path 6336" d="M216.091,115.033v1.37a.251.251,0,0,1-.38.216l-1.185-.688-1.185-.683a.251.251,0,0,1,0-.436l1.185-.688,1.185-.688a.251.251,0,0,1,.38.216Z" transform="translate(-116.177 -78.431)"/>
    <path id="Path_6337" data-name="Path 6337" d="M222.89,115.028v1.37a.251.251,0,0,0,.38.216l1.185-.688,1.185-.688a.251.251,0,0,0,0-.436l-1.185-.688-1.185-.688a.251.251,0,0,0-.38.216Z" transform="translate(-120.888 -78.426)"/>
    <rect id="Rectangle_1117" data-name="Rectangle 1117" width="3.361" height="0.79" rx="0.395" transform="translate(267.681 37.45) rotate(-45)" fill="#39393b"/>
    <rect id="Rectangle_1118" data-name="Rectangle 1118" width="0.79" height="3.361" rx="0.395" transform="translate(267.695 35.653) rotate(-45)" fill="#39393b"/>
    <rect id="Rectangle_1119" data-name="Rectangle 1119" width="140.654" height="78.951" rx="6.42" transform="translate(113.944 43.981)" fill="#fff"/>
    <rect id="Rectangle_1120" data-name="Rectangle 1120" width="35.655" height="20.014" rx="3.01" transform="translate(118.639 82.104)" fill="#ced3e6"/>
    <rect id="Rectangle_1121" data-name="Rectangle 1121" width="35.655" height="20.014" rx="3.01" transform="translate(213.565 48.681)" fill="#ced3e6"/>
    <rect id="Rectangle_1122" data-name="Rectangle 1122" width="35.706" height="1.714" rx="0.857" transform="translate(118.588 65.683)" fill="#ced3e6"/>
    <rect id="Rectangle_1123" data-name="Rectangle 1123" width="35.706" height="1.714" rx="0.857" transform="translate(118.588 58.437)" fill="#ced3e6"/>
    <rect id="Rectangle_1124" data-name="Rectangle 1124" width="35.706" height="1.714" rx="0.857" transform="translate(118.588 72.928)" fill="#ced3e6"/>
    <rect id="Rectangle_1125" data-name="Rectangle 1125" width="35.655" height="1.714" rx="0.857" transform="translate(213.565 82.663)" fill="#ced3e6"/>
    <rect id="Rectangle_1126" data-name="Rectangle 1126" width="35.655" height="1.714" rx="0.857" transform="translate(213.565 75.417)" fill="#ced3e6"/>
    <rect id="Rectangle_1127" data-name="Rectangle 1127" width="35.655" height="1.714" rx="0.857" transform="translate(213.565 89.914)" fill="#ced3e6"/>
    <path id="Path_6338" data-name="Path 6338" d="M246.16,260.92H386.814v11.531a.729.729,0,0,1-.729.729h-139.2a.729.729,0,0,1-.729-.729Z" transform="translate(-132.216 -150.248)" fill="#39393b"/>
    <path id="Path_6339" data-name="Path 6339" d="M499.709,267.93V266.9h1.3v-.924h-1.765a.462.462,0,0,0-.462.462v1.5Z" transform="translate(-255.2 -152.711)" fill="#fff"/>
    <path id="Path_6340" data-name="Path 6340" d="M499.714,273.38h-.924v1.581a.462.462,0,0,0,.462.462h1.765V274.5h-1.3Z" transform="translate(-255.205 -156.314)" fill="#fff"/>
    <path id="Path_6341" data-name="Path 6341" d="M507.232,267.915h.924v-1.5a.462.462,0,0,0-.462-.462H506v.924h1.232Z" transform="translate(-258.715 -152.697)" fill="#fff"/>
    <path id="Path_6342" data-name="Path 6342" d="M507.232,273.38V274.5H506v.924h1.693a.462.462,0,0,0,.462-.462V273.38Z" transform="translate(-258.715 -156.314)" fill="#fff"/>
    <rect id="Rectangle_1128" data-name="Rectangle 1128" width="140.654" height="2.304" transform="translate(113.944 108.368)" fill="#ced3e6"/>
    <path id="Path_6343" data-name="Path 6343" d="M266.07,135.66h1.586v3.474h2.125v1.232h-3.71Z" transform="translate(-141.909 -89.267)" fill="#39393b"/>
    <path id="Path_6344" data-name="Path 6344" d="M274.15,135.66h1.586v4.706H274.15Z" transform="translate(-145.843 -89.267)" fill="#39393b"/>
    <path id="Path_6345" data-name="Path 6345" d="M283.3,135.66l-1.991,4.706h-1.539l-1.991-4.706h1.709l1.124,2.751,1.15-2.751Z" transform="translate(-147.61 -89.267)" fill="#39393b"/>
    <path id="Path_6346" data-name="Path 6346" d="M292.755,139.16v1.2H288.84V135.65h3.828v1.206H290.4v.549h1.991v1.144H290.4v.621Z" transform="translate(-152.994 -89.263)" fill="#39393b"/>
    <circle id="Ellipse_714" data-name="Ellipse 714" cx="1.935" cy="1.935" r="1.935" transform="translate(117.68 46.772)" fill="#df615c"/>
    <circle id="Ellipse_715" data-name="Ellipse 715" cx="1.699" cy="1.699" r="1.699" transform="translate(232.87 98.854)" fill="#df615c"/>
    <path id="Path_6347" data-name="Path 6347" d="M481.368,247.665H475a3.289,3.289,0,0,1,3.13-2.017h.1a3.289,3.289,0,0,1,3.141,2.017Z" transform="translate(-243.623 -142.812)" fill="#df615c"/>
    <path id="Path_6348" data-name="Path 6348" d="M494.633,239.19v1.067l-1.714,4.105h-1.9l1.632-3.8h-1.011v.749H490.21v-2.094Z" transform="translate(-251.028 -139.669)" fill="#39393b"/>
    <path id="Path_6349" data-name="Path 6349" d="M503.429,242.874v1.345h-4.105v-1.067l1.858-1.719c.354-.328.405-.513.405-.708s-.169-.405-.513-.405a.842.842,0,0,0-.759.477L499,240.144a2.361,2.361,0,0,1,2.227-1.191c1.221,0,2.078.631,2.078,1.611a2.014,2.014,0,0,1-.883,1.637l-.734.667Z" transform="translate(-255.307 -139.551)" fill="#39393b"/>
    <path id="Path_6350" data-name="Path 6350" d="M255.988,157.431c-.708,2.16-.708,2.54-.708,2.16V52.76H394.2V157.446Z" transform="translate(-136.656 -48.909)" fill="none"/>
    <path id="Path_6351" data-name="Path 6351" d="M457.4,155.334s1.268,4.075,4.444,4.4c2.566.257,4.572-2.453,5.25-3.5.164-.251.246-.405.246-.405a4.306,4.306,0,0,0,.462-.051c.647-.1,1.776-.39,2.114-1.252.482-1.221-1.96-1.673-1.96-1.673s1.026-1.237.641-1.971-2.053-.657-2.053-.657,1.57-1.365.857-2.263c-1.078-1.35-2.638.513-2.771.626.1-.144,4.105-6.271,2.843-6.517-1.119-.216-4.829,4.731-5.819,6.086l-.246.339-.21-.108c-.631-.308-2.566-1.093-3.556,0C456.458,149.725,457.4,155.334,457.4,155.334Z" transform="translate(-234.882 -92.382)" fill="#ea9b7a"/>
    <path id="Path_6352" data-name="Path 6352" d="M470.763,162.022a2.607,2.607,0,0,0-.975,1.314.77.77,0,0,0,.2.729,1.462,1.462,0,0,0,.58.313,8.055,8.055,0,0,0,2.053.272c.164-.251.246-.405.246-.405a4.162,4.162,0,0,0,.462-.046.241.241,0,0,0-.133-.036c-.919,0-2.509-.082-2.869-.441a.282.282,0,0,1-.067-.282,2.948,2.948,0,0,1,1.627-1.54.246.246,0,0,0-.128-.472c-.6.1-2.273.226-2.8-.3-.077-.077-.067-.123-.062-.149a.826.826,0,0,1,.323-.39,6.061,6.061,0,0,1,1.37-.744.245.245,0,0,0-.18-.457,6.671,6.671,0,0,0-1.38.729,2.094,2.094,0,0,0-.467.452.848.848,0,0,0-.149.313.642.642,0,0,0,.2.6A3.068,3.068,0,0,0,470.763,162.022Z" transform="translate(-240.412 -100.809)" fill="#d46a43"/>
    <path id="Path_6353" data-name="Path 6353" d="M467.78,157.506a.241.241,0,0,1,.056.272,1.586,1.586,0,0,0-.159.775.282.282,0,0,0,.159.241.97.97,0,0,0,.426.056,7.241,7.241,0,0,0,1.673-.364.241.241,0,0,1-.113.092,6.056,6.056,0,0,0-1.37.744h-.174a1.874,1.874,0,0,1-.487-.036.882.882,0,0,1-.169-.056.764.764,0,0,1-.436-.616,2.052,2.052,0,0,1,.19-1.026.241.241,0,0,1,.39-.082Z" transform="translate(-239.815 -99.87)" fill="#d46a43"/>
    <path id="Path_6354" data-name="Path 6354" d="M459.651,156.6a8.108,8.108,0,0,0,1.75.852,2.766,2.766,0,0,0,1.457.139,1.226,1.226,0,0,0,.811-.621c.626-1.144-.221-2.412-.785-3.079l-.246.339-.21-.108c.482.513,1.319,1.663.811,2.591a.739.739,0,0,1-.513.38c-.847.21-2.325-.6-2.822-.924a.246.246,0,0,0-.272.411Z" transform="translate(-236.09 -98.142)" fill="#d46a43"/>
    <path id="Path_6355" data-name="Path 6355" d="M463.853,166.706a.246.246,0,0,0,.262-.4,2.217,2.217,0,0,1-.626-1.776c.19-1.622,2.125-2.992,2.145-3.007a.247.247,0,0,0-.282-.405c-.087.062-2.14,1.54-2.355,3.351a2.689,2.689,0,0,0,.749,2.16.246.246,0,0,0,.108.077Z" transform="translate(-237.772 -101.64)" fill="#d46a43"/>
    <path id="Path_6356" data-name="Path 6356" d="M393.955,132.68l2.5,6.322q.564,1.586,1.139,3.166t1.155,3.141c.39,1.042.78,2.053,1.175,3.079s.806,2.053,1.216,3.012.826,1.94,1.242,2.8c.205.426.416.821.59,1.134l.118.205.046.082a.147.147,0,0,1,0,.036.513.513,0,0,1,.026.087v.1c0,.036.077.092.205.154a3.89,3.89,0,0,0,1.54.169,12.378,12.378,0,0,0,2.432-.4,26.725,26.725,0,0,0,2.74-.872,50.23,50.23,0,0,0,5.671-2.612c1.894-1,3.284-1.806,5.132-2.956a8.241,8.241,0,0,0,5.316,5.989,66.612,66.612,0,0,1-5.645,4.588,51.791,51.791,0,0,1-6.363,3.982,33.007,33.007,0,0,1-3.643,1.652,23.169,23.169,0,0,1-4.239,1.18,16.2,16.2,0,0,1-2.489.241,13.731,13.731,0,0,1-2.807-.236A11.874,11.874,0,0,1,398,165.7a11.428,11.428,0,0,1-2.756-1.909,12.044,12.044,0,0,1-1.114-1.191l-.241-.308-.2-.267-.185-.257-.174-.251c-.441-.652-.806-1.247-1.144-1.832-.672-1.16-1.242-2.263-1.8-3.361s-1.026-2.186-1.54-3.274-.97-2.166-1.427-3.253-.908-2.166-1.35-3.253-.862-2.171-1.278-3.259-.821-2.181-1.221-3.274l-.59-1.647-.257-.8c-.1-.282-.19-.549-.287-.847Z" transform="translate(-198.562 -87.817)" fill="#21b573"/>
    <path id="Path_6357" data-name="Path 6357" d="M417.833,181.037a.313.313,0,0,0,.251-.128,13.633,13.633,0,0,1,2.263-2.361.315.315,0,1,0-.364-.513,14,14,0,0,0-2.4,2.494.313.313,0,0,0,.251.513Z" transform="translate(-215.634 -109.869)" fill="#217c58"/>
    <path id="Path_6358" data-name="Path 6358" d="M421.9,181.569h.067a.313.313,0,0,0,.241-.375,5.79,5.79,0,0,1,0-2.366.315.315,0,1,0-.605-.174,6.343,6.343,0,0,0,0,2.679.313.313,0,0,0,.3.236Z" transform="translate(-217.559 -110.087)" fill="#217c58"/>
    <path id="Path_6359" data-name="Path 6359" d="M385.369,228.77c-5.84,3.361-19.957,5.091-29.163,1.437-3.377-1.339-3.972-2.166-3.715-8.211a4.988,4.988,0,0,1,.031-.677c0-.477.056-.954.092-1.427,0-.231.036-.457.051-.682.067-.847.149-1.678.241-2.473l.072-.652a36.958,36.958,0,0,1,.857-4.618c.056-.221.113-.436.164-.631.328-1.211.59-1.94.59-1.94a38.419,38.419,0,0,0,4.552.441h.652a76.195,76.195,0,0,0,19.824-2.566l.631-.169c.975-.262,1.54-.431,1.54-.431s.344.6.826,1.6l.277.59a33.025,33.025,0,0,1,2.294,6.507v.092l.139.647.026.128c.38,1.8.729,3.695.965,5.5h0c.031.231.056.462.087.693C386.877,225.9,386.949,227.862,385.369,228.77Z" transform="translate(-183.956 -123.594)" fill="#39393b"/>
    <path id="Path_6360" data-name="Path 6360" d="M411.157,216.179h-.041a9.191,9.191,0,0,1-3.13-2.925q-.18-.267-.359-.549h0a20.087,20.087,0,0,1-2.217-5.465l.631-.169a19.225,19.225,0,0,0,2.176,5.347c.118.19.241.369.364.549a8.723,8.723,0,0,0,2.391,2.366v.092l.139.647Z" transform="translate(-209.744 -124.032)" fill="#585859"/>
    <path id="Path_6361" data-name="Path 6361" d="M359.959,212.346a18.21,18.21,0,0,1-1.539,5.8c-.1.205-.2.411-.313.6a8.787,8.787,0,0,1-2.258,2.72,7.036,7.036,0,0,1-3.079,1.4c0-.231.036-.457.051-.683a6.373,6.373,0,0,0,2.653-1.242,8.051,8.051,0,0,0,1.976-2.325q.169-.293.323-.6a17.263,17.263,0,0,0,1.54-5.7Z" transform="translate(-184.117 -126.588)" fill="#585859"/>
    <path id="Path_6362" data-name="Path 6362" d="M384.2,209.89c-.452.2-.934.405-1.452.616l-.616.246a43.618,43.618,0,0,1-11.192,2.817l-.513.046a61.139,61.139,0,0,1-11.013-.113l-.682-.067c-1.365-.139-2.566-.3-3.592-.452.056-.221.113-.436.164-.631,1.026.154,2.3.318,3.71.462l.672.062a59.277,59.277,0,0,0,11.177.046,43.013,43.013,0,0,0,10.956-2.751h0l.611-.241c.513-.216,1.026-.426,1.493-.631Z" transform="translate(-185.271 -125.118)" fill="#585859"/>
    <path id="Path_6363" data-name="Path 6363" d="M409.266,270.81a170.039,170.039,0,0,0-5.645-35.27L388,242.832a88.265,88.265,0,0,0,5.645,27.978Z" transform="translate(-201.269 -137.892)" fill="#39393b"/>
    <path id="Path_6364" data-name="Path 6364" d="M398.309,281.53a102.019,102.019,0,0,1-5.347-23.7.328.328,0,0,0-.652.046,102.71,102.71,0,0,0,5.311,23.652Z" transform="translate(-203.367 -148.613)" fill="#585859"/>
    <path id="Path_6365" data-name="Path 6365" d="M365.981,271.521c.97-9.376,2.1-20.84,2.222-25.284L350.909,237s-3.048,10.52-1.026,34.536Z" transform="translate(-182.375 -138.603)" fill="#39393b"/>
    <path id="Path_6366" data-name="Path 6366" d="M378.124,281.153l2.9-23.955a.369.369,0,1,0-.734-.087l-2.91,24.042Z" transform="translate(-196.098 -148.235)" fill="#585859"/>
    <path id="Path_6367" data-name="Path 6367" d="M387.593,234.088a.328.328,0,0,0,.359.287h0a.328.328,0,0,0,.287-.364c-.144-1.216-.282-2.463-.416-3.705q-.036-.328-.067-.657c-.426-4.075-.765-8.082-.99-10.92,0-.231-.036-.452-.051-.667-.051-.621-.092-1.175-.128-1.642h-.657c.036.467.077,1.026.128,1.652,0,.216.036.436.051.667.226,2.812.565,6.784.985,10.833l.067.672C387.3,231.538,387.444,232.831,387.593,234.088Z" transform="translate(-200.261 -128.584)" fill="#585859"/>
    <path id="Path_6368" data-name="Path 6368" d="M385.752,229.925a8.3,8.3,0,0,0,1.2.251,6.4,6.4,0,0,0,.662.056,4.5,4.5,0,0,0,.621,0,2.186,2.186,0,0,0,1.026-.359,1.386,1.386,0,0,0,.6-1.165c0-1.283-.344-6.5-.626-10.186,0-.226-.031-.446-.051-.662-.046-.59-.087-1.124-.123-1.581l-.652.026c.036.457.077,1.026.123,1.6l.051.662c.277,3.679.647,8.888.621,10.13a.729.729,0,0,1-.292.631,2.233,2.233,0,0,1-1.355.251,3.962,3.962,0,0,1-.662-.072,7.584,7.584,0,0,1-.944-.205.328.328,0,1,0-.185.626Z" transform="translate(-200.047 -128.516)" fill="#585859"/>
    <path id="Path_6369" data-name="Path 6369" d="M347.6,108.132l24.96-.641c-.775-1.083-.7-11.428-1.026-13.563a55.152,55.152,0,0,1,.246-10.145,11.341,11.341,0,0,0-11.8-12.393h-.313c-10.494.667-11.29,9.658-10.263,15.1C350.243,91.474,350.884,104.986,347.6,108.132Z" transform="translate(-181.601 -57.973)" fill="#39393b"/>
    <path id="Path_6370" data-name="Path 6370" d="M358.15,206.2l2.012,8.442c5.029-.4,10.977-1.129,15.457-3.443,0,0,5.968,2.006,9,1.073l-2.217-6.066Z" transform="translate(-186.737 -123.609)" fill="#fff"/>
    <path id="Path_6371" data-name="Path 6371" d="M377.623,172.462c-5.8-.041-9.278-.79-12.439-3.382-5.932,6.158-20.583,6.4-20.583,6.4,1.468-4.731,1.945-13.1,1.945-13.1-.118-.867-.18-1.77-.272-2.689a18.057,18.057,0,0,0-.452-2.756c-1.447-4.172-3.135-7.184-4.618-11.48-.1-.282-.2-.559-.3-.836l-.2-.544c-.513-1.35-1.026-2.694-1.581-3.987-2.427-5.645-2.817-12.023,3.017-13.968l1.247-.405c2.761-.872,5.06-1.447,5.7-1.6l.174-.041,12.249,1.026,1.165.1c1.714.19,3.525.144,4.67.4,1.026.221,1.616.169,2.643.472,2.412.713,2.345,3.962,3.079,8l.036.21v.067c.133.688.287,1.365.467,2.053.2.749.421,1.493.652,2.212,1.411,4.429,3.115,6.461,2.822,9.237-.267,2.525-2.838,5.968-3.52,6.7-.159.169-.251.262-.251.262v.041a1.01,1.01,0,0,0,.036.318c.051.426.128.929.221,1.5.21,2.13.513,4.064.852,5.783q.277,1.391.585,2.6A34.468,34.468,0,0,0,377.623,172.462Z" transform="translate(-176.662 -83.625)" fill="#21b573"/>
    <path id="Path_6372" data-name="Path 6372" d="M406.574,201.4c-1.658.878-3,1.463-3,1.463l-1.237-2.33a24.41,24.41,0,0,0,3.649-1.735A7.964,7.964,0,0,1,406.574,201.4Z" transform="translate(-208.25 -120.006)" fill="#217c58"/>
    <path id="Path_6373" data-name="Path 6373" d="M358.135,199.61a41.407,41.407,0,0,0,9.7,2.766l-.631,2.566s-6.758-1.114-9.463-3.043Z" transform="translate(-186.537 -120.4)" fill="#217c58"/>
    <path id="Path_6374" data-name="Path 6374" d="M407.131,161.894a.313.313,0,0,0,.231-.1c.149-.159,3.69-3.936,2.458-7.379-.344-.954-.739-1.924-1.165-2.946a35.49,35.49,0,0,1-3.1-11.2.317.317,0,0,0-.631.051,36.129,36.129,0,0,0,3.151,11.387c.421,1.026.816,1.976,1.155,2.92,1.1,3.079-2.284,6.7-2.319,6.733a.313.313,0,0,0,.231.513Z" transform="translate(-209.505 -91.372)" fill="#217c58"/>
    <circle id="Ellipse_716" data-name="Ellipse 716" cx="0.688" cy="0.688" r="0.688" transform="translate(185.957 56.374)" fill="#217c58"/>
    <circle id="Ellipse_717" data-name="Ellipse 717" cx="0.688" cy="0.688" r="0.688" transform="translate(186.983 62.465)" fill="#217c58"/>
    <circle id="Ellipse_718" data-name="Ellipse 718" cx="0.688" cy="0.688" r="0.688" transform="translate(187.599 68.654)" fill="#217c58"/>
    <circle id="Ellipse_719" data-name="Ellipse 719" cx="0.688" cy="0.688" r="0.688" transform="translate(187.86 75.022)" fill="#217c58"/>
    <circle id="Ellipse_720" data-name="Ellipse 720" cx="0.688" cy="0.688" r="0.688" transform="translate(187.83 81.642)" fill="#217c58"/>
    <path id="Path_6375" data-name="Path 6375" d="M381.55,125.944a15.954,15.954,0,0,1,4.526.257l-.19,7-1.591.344,1.339,1.319-1.606,4.69A74.711,74.711,0,0,1,381.55,125.944Z" transform="translate(-198.128 -84.509)" fill="#217c58"/>
    <path id="Path_6376" data-name="Path 6376" d="M355.8,124.07,350.94,125.4l5.717,7.595,4.285-.344-1.5,3.279,9.678,2.73s-11.208-10.643-12.106-14.492Z" transform="translate(-183.227 -83.625)" fill="#217c58"/>
    <path id="Path_6377" data-name="Path 6377" d="M362.08,125.18s2.8,5.953,12.46,14.02a76.563,76.563,0,0,0-2.463-13.152S366.385,128.033,362.08,125.18Z" transform="translate(-188.65 -84.165)" fill="#fff"/>
    <path id="Path_6378" data-name="Path 6378" d="M379.439,157.253c-3.182,0-9.678-4.557-9.955-4.752a.262.262,0,1,1,.3-.426c.067.046,6.635,4.66,9.653,4.66,2.889,0,3.525-3.156,3.536-3.187a.262.262,0,1,1,.513.1C383.473,153.677,382.744,157.253,379.439,157.253Z" transform="translate(-192.195 -97.231)" fill="#217c58"/>
    <path id="Path_6379" data-name="Path 6379" d="M372.062,125.6l.128,1.652c.246,3.079-1.945,3.946-5.132,2.32-2.515-1.288-4.649-3.207-5-4.4Z" transform="translate(-188.64 -84.161)" fill="#ea9b7a"/>
    <path id="Path_6380" data-name="Path 6380" d="M372.642,185.088a.282.282,0,0,0,.246.144.277.277,0,0,0,.139-.036,16.309,16.309,0,0,1,10.263-1.539,17.674,17.674,0,0,0,7.184.077,3,3,0,0,0-.036-.318v-.041s.092-.092.251-.257a16.853,16.853,0,0,1-7.261,0A16.58,16.58,0,0,0,372.78,184.7a.282.282,0,0,0-.139.385Z" transform="translate(-193.777 -112.237)" fill="#217c58"/>
    <path id="Path_6381" data-name="Path 6381" d="M390.139,86s1.411,5.547.513,6.512S388.41,91.4,388.41,91.4,389.067,86.241,390.139,86Z" transform="translate(-201.468 -65.091)" fill="#39393b"/>
    <path id="Path_6382" data-name="Path 6382" d="M388.75,99.623s1.463-1.724,2.284,0,.19,5.219-2.053,4.649Z" transform="translate(-201.634 -71.35)" fill="#d46a43"/>
    <path id="Path_6383" data-name="Path 6383" d="M384.542,108.072a2.381,2.381,0,1,0,2.053,0,2.356,2.356,0,0,0-.893-.231c-.056-.149-.108-.3-.169-.441h.026a2.824,2.824,0,1,1-1.4.375Z" transform="translate(-198.709 -75.51)" fill="#fff"/>
    <path id="Path_6384" data-name="Path 6384" d="M372.076,115.151v4.757s-2.509,4.105-10-.867c1.416-1.586,1.463-4.644.888-6.471a10.438,10.438,0,0,0,1.457.775l.6.257A16.294,16.294,0,0,0,372.076,115.151Z" transform="translate(-188.65 -78.026)" fill="#ea9b7a"/>
    <path id="Path_6385" data-name="Path 6385" d="M374.3,115.886v2.227c-2.053-.452-5.6-1.54-7.651-4.034l.6.257A16.294,16.294,0,0,0,374.3,115.886Z" transform="translate(-190.875 -78.762)" fill="#39393b"/>
    <path id="Path_6386" data-name="Path 6386" d="M376.339,97.851c-4,4.136-12.87-.8-13.158-.96h0q-.123-.554-.221-1.1a28.983,28.983,0,0,1-.287-8.647,6.548,6.548,0,0,1,4.239-6.517c2.792-1.026,5.3.21,6.8.672,2.268.7,3.7,3.633,3.71,7.816C377.432,94.243,377.329,96.825,376.339,97.851Z" transform="translate(-188.843 -62.281)" fill="#ea9b7a"/>
    <path id="Path_6387" data-name="Path 6387" d="M377.077,82.155q-1.386.19-2.848.3l-.513-2.566-.174,2.607c-1.8.123-3.659.169-5.573.169l-.257-2.694-.513,2.689c-1.416,0-2.853-.036-4.3-.077-1.16-5.363,4.654-7.7,9.545-6.584S377.077,82.155,377.077,82.155Z" transform="translate(-188.975 -60.092)" fill="#39393b"/>
    <path id="Path_6388" data-name="Path 6388" d="M364.958,85.933s-1.8,2.4-.816,4.619.3,4.418-.169,6.045c0,0-1.026-3.592-3.428-4.259S359.38,85.112,364.958,85.933Z" transform="translate(-187.335 -65.024)" fill="#39393b"/>
    <path id="Path_6389" data-name="Path 6389" d="M381.91,109.545a2.248,2.248,0,0,0,.98-.072.17.17,0,0,0-.108-.323h0a1.822,1.822,0,0,1-1.539-.231.171.171,0,0,0-.2.277A1.925,1.925,0,0,0,381.91,109.545Z" transform="translate(-197.847 -76.233)" fill="#d46a43"/>
    <path id="Path_6390" data-name="Path 6390" d="M383.13,104.615s-2.781.97-4.87-.405a3.361,3.361,0,0,0,2.535,2.053A2.286,2.286,0,0,0,383.13,104.615Z" transform="translate(-196.527 -73.957)" fill="#fff"/>
    <path id="Path_6391" data-name="Path 6391" d="M376.6,90.13s.831.082.513.842-1.955-.077-3.146,1.324C373.971,92.3,373.484,90.474,376.6,90.13Z" transform="translate(-194.424 -67.102)" fill="#39393b"/>
    <path id="Path_6392" data-name="Path 6392" d="M385.894,90.13s-.831.082-.513.842,1.955-.077,3.146,1.324C388.5,92.3,389.009,90.474,385.894,90.13Z" transform="translate(-199.958 -67.102)" fill="#39393b"/>
    <g id="Group_440" data-name="Group 440" transform="translate(178.162 27.965)" opacity="0.8">
      <ellipse id="Ellipse_721" data-name="Ellipse 721" cx="1.781" cy="0.703" rx="1.781" ry="0.703" fill="#d46a43"/>
    </g>
    <path id="Path_6393" data-name="Path 6393" d="M390.282,101.116h-.431c-.985,0-1.781-.313-1.781-.7s.8-.7,1.781-.7h.385Z" transform="translate(-201.303 -71.766)" fill="#d46a43"/>
    <ellipse id="Ellipse_722" data-name="Ellipse 722" cx="0.539" cy="0.965" rx="0.539" ry="0.965" transform="translate(180.851 25.866)" fill="#39393b"/>
    <ellipse id="Ellipse_723" data-name="Ellipse 723" cx="0.539" cy="0.965" rx="0.539" ry="0.965" transform="translate(186.111 25.866)" fill="#39393b"/>
    <path id="Path_6394" data-name="Path 6394" d="M383.827,98.87a1.92,1.92,0,0,0,.441-.046.221.221,0,0,0,.154-.282l-.811-2.32a.221.221,0,0,0-.411.144l.718,2.053a1.725,1.725,0,0,1-.9-.2.221.221,0,0,0-.205.385A2.135,2.135,0,0,0,383.827,98.87Z" transform="translate(-198.702 -70.013)" fill="#39393b"/>
    <path id="Path_6395" data-name="Path 6395" d="M365.37,108.5a4.617,4.617,0,0,1-1.729,2.155h0q-.123-.554-.221-1.1a4.069,4.069,0,0,0,1.95-1.052Z" transform="translate(-189.302 -76.045)" fill="#39393b"/>
    <path id="Path_6396" data-name="Path 6396" d="M361.488,99.905s-2.125-2.853-3.685-.611c-1.283,1.847,1.134,6.774,3.731,4.973Z" transform="translate(-186.395 -71.145)" fill="#ea9b7a"/>
    <path id="Path_6397" data-name="Path 6397" d="M359.3,109.222a2.391,2.391,0,1,0,2.053,0,2.355,2.355,0,0,0-.893-.231c-.056-.149-.108-.3-.169-.441h.036a2.819,2.819,0,1,1-2.817,2.817,2.863,2.863,0,0,1,1.437-2.463A3.075,3.075,0,0,0,359.3,109.222Z" transform="translate(-186.425 -76.069)" fill="#fff"/>
    <path id="Path_6398" data-name="Path 6398" d="M362.4,104.839h0a.221.221,0,0,0,.2-.241,4.105,4.105,0,0,0-2.4-3.3.221.221,0,0,0-.164.405,3.654,3.654,0,0,1,2.125,2.946A.221.221,0,0,0,362.4,104.839Z" transform="translate(-187.6 -72.533)" fill="#39393b"/>
    <path id="Path_6399" data-name="Path 6399" d="M360.554,104.736a.216.216,0,0,0,.139-.051h0a1.812,1.812,0,0,1,1.144-.436.221.221,0,1,0,.108-.426c-.657-.169-1.442.452-1.54.513a.221.221,0,0,0,.139.39Z" transform="translate(-187.796 -73.754)" fill="#39393b"/>
    <path id="Path_6400" data-name="Path 6400" d="M329.38,189.38s.7,1.509-.108,4.8a18.808,18.808,0,0,1-2.155,5.357S323.735,194.409,329.38,189.38Z" transform="translate(-171.139 -115.42)" fill="#217c58"/>
    <path id="Path_6401" data-name="Path 6401" d="M303.439,157.927a2.545,2.545,0,0,0,.036.513c.036.18.046.323.072.488a1.051,1.051,0,0,0,.046.241l.056.231a8.21,8.21,0,0,0,.616,1.7,7.069,7.069,0,0,0,.4.713c.072.108.139.221.21.328l.216.3a10.967,10.967,0,0,0,1.806,1.9,16.947,16.947,0,0,0,1.791,1.3c.293.19.585.359.878.513s.575.323.862.477c.575.3,1.139.58,1.7.837,1.129.513,2.248.954,3.366,1.35s2.232.749,3.341,1.073,2.222.626,3.336.9,2.227.513,3.351.754a13.34,13.34,0,0,0,1.539.185c.893.067,1.863.118,2.5.226.154-.924-.626-1.668-.472-2.566.18-1.078.359-2.16.554-3.238l-.446-.965c-.677-.164-1.355-.339-2.053-.513h-.062q-1.483-.405-2.946-.883t-2.946-1.026q-1.447-.547-2.828-1.17c-.919-.416-1.806-.852-2.633-1.319-.411-.231-.816-.467-1.185-.718a4.747,4.747,0,0,1-.513-.375,6.37,6.37,0,0,0-.513-.385,6.118,6.118,0,0,1-.626-.59l-.144-.164h0l.159-.216.287-.39c.149-.205.293-.405.457-.616.318-.416.626-.826.949-1.242l.98-1.242c.667-.826,1.329-1.663,2.012-2.489l.513-.621.513-.621.724-.872.308-.369.375-.452.662-.8,1.026-1.242q1.026-1.242,2.094-2.479L328,139.448l.026-.031a4.947,4.947,0,0,0-7.5-6.451l-1.1,1.262-1.078,1.262q-.539.631-1.067,1.268c-.354.421-.713.847-1.062,1.273q-1.057,1.278-2.1,2.566l-1.026,1.3-.139.174-.9,1.134c-.344.436-.688.877-1.026,1.314l-.513.662-.231.3-.277.364q-1.016,1.332-2.017,2.694l-1,1.38c-.328.462-.657.944-.985,1.411-.164.231-.328.477-.513.729l-.513.739-.123.185-.031.046h0v.036l-.1.164-.2.334c-.031.056-.067.118-.1.18l-.092.185c-.062.123-.123.241-.185.369l-.164.4-.077.205-.072.216c-.046.144-.092.293-.133.436s-.072.308-.108.462a4.533,4.533,0,0,0-.087.472c-.021.164-.041.323-.056.488s0,.328,0,.513v.246A.627.627,0,0,0,303.439,157.927Z" transform="translate(-160.101 -87.118)" fill="#ea9b7a"/>
    <path id="Path_6402" data-name="Path 6402" d="M342.533,194.553a2.2,2.2,0,0,0-1.786-.58s-2.33,3.946-1.119,7.333a2.284,2.284,0,0,0,1.673.4S340.163,197.632,342.533,194.553Z" transform="translate(-177.55 -117.647)"/>
    <circle id="Ellipse_724" data-name="Ellipse 724" cx="2.355" cy="2.355" r="2.355" transform="matrix(0.998, -0.056, 0.056, 0.998, 160.319, 78.01)"/>
    <circle id="Ellipse_725" data-name="Ellipse 725" cx="1.76" cy="1.76" r="1.76" transform="matrix(0.998, -0.056, 0.056, 0.998, 160.947, 78.572)" fill="#fff"/>
    <path id="Path_6403" data-name="Path 6403" d="M349.138,203.186c.893.067,1.863.118,2.5.226.154-.924-.626-1.668-.472-2.566.18-1.078.359-2.16.554-3.238l-.446-.965c-.677-.164-1.355-.339-2.053-.513h-.062A17.65,17.65,0,0,0,349.138,203.186Z" transform="translate(-182.174 -118.706)" fill="#d46a43"/>
    <path id="Path_6404" data-name="Path 6404" d="M327.677,134.667a4.68,4.68,0,0,1-.944,4.439c-1.981,2.289-5.768,6.712-7.867,9.488-2.935,3.88-6.64,8.724-6.64,8.724a54.64,54.64,0,0,0,4.542,3.592,9.237,9.237,0,0,0-2.263,10.156s-8.211-4.521-12.388-8.862c-3.038-3.171-2.2-7.128.58-10.915,1.4-1.909,12.213-14.23,16.052-18.541a5.306,5.306,0,0,1,5.645-1.54A5.019,5.019,0,0,1,327.677,134.667Z" transform="translate(-158.522 -86.971)" fill="#21b573"/>
    <path id="Path_6405" data-name="Path 6405" d="M349.838,192.945s.323-1.883.811-3.69a3.2,3.2,0,0,1,1.227-1.976,16.159,16.159,0,0,1,.462,3.515,1.493,1.493,0,0,1,1.288-.257c.831.169,3.695.775,3.736,1.437.082,1.514-3.5.8-3.5.8s3.844.724,3.746,1.786c-.077.857-3.556,1.026-3.556,1.026s3.356.031,2.951,1.237-3.541.472-3.541.472,2.243,1.078,2.027,1.54c-.313.652-1.642.831-3.787.308S349.838,192.945,349.838,192.945Z" transform="translate(-182.684 -114.398)" fill="#ea9b7a"/>
    <path id="Path_6406" data-name="Path 6406" d="M341.809,153.816a.3.3,0,0,1-.272-.482l4.967-5.9a.3.3,0,0,1,.452.385l-4.967,5.9a.3.3,0,0,1-.18.1Z" transform="translate(-178.616 -94.959)" fill="#217c58"/>
    <path id="Path_6407" data-name="Path 6407" d="M350.575,150.879l-1.873.292a.3.3,0,0,1-.092-.585l1.878-.287a.3.3,0,0,1,.092.585Z" transform="translate(-181.984 -96.394)" fill="#217c58"/>
    <path id="Path_6408" data-name="Path 6408" d="M313.225,182.005a.2.2,0,0,0,.118.072.19.19,0,0,0,.154-.036c1.416-1.052,3.936-1.165,5.183-1.149l-.144-.164h0l.159-.221h-.37A10.819,10.819,0,0,0,315.35,179a.2.2,0,1,0-.123.364,13.388,13.388,0,0,1,2.484,1.165,8.492,8.492,0,0,0-4.454,1.216A.2.2,0,0,0,313.225,182.005Z" transform="translate(-164.848 -110.354)" fill="#217c58"/>
    <ellipse id="Ellipse_726" data-name="Ellipse 726" cx="65.357" cy="3.987" rx="65.357" ry="3.987" transform="translate(3.89 206.747)" fill="#ced3e6"/>
    <path id="Path_6409" data-name="Path 6409" d="M141.712,213l.082.39.062.313.108.59q.1.575.185,1.134c.108.749.2,1.483.282,2.217.159,1.468.277,2.92.344,4.377s.087,2.9.072,4.357-.082,2.9-.18,4.347-.251,2.894-.431,4.336c-.1.718-.195,1.442-.313,2.16-.056.359-.113.718-.174,1.078l-.2,1.073c-.062.359-.144.713-.216,1.073s-.144.713-.231,1.067c-.164.708-.323,1.421-.513,2.13-.092.354-.18.708-.277,1.057l-.3,1.057-.077.262-.036.133-.077.267c-.077.251-.154.467-.241.688s-.169.416-.257.6a5.263,5.263,0,0,1-.272.513l-.133.241-.139.231-.139.226-.133.21c-.092.144-.18.267-.272.4a15.258,15.258,0,0,1-1.057,1.309,12.1,12.1,0,0,1-1.026,1.026c-.662.636-1.3,1.175-1.935,1.683a44.771,44.771,0,0,1-3.736,2.643c-2.463,1.575-4.911,2.935-7.374,4.213s-4.932,2.458-7.415,3.592q-1.868.842-3.746,1.642c-.626.267-1.252.513-1.883.8l-.954.385-.98.39-4.3-9.719.836-.426.857-.446,1.719-.9q1.719-.9,3.418-1.842c2.268-1.237,4.511-2.515,6.671-3.818,1.088-.652,2.16-1.324,3.207-2s2.053-1.36,3.033-2.053a31.956,31.956,0,0,0,2.663-2.094c.39-.344.744-.683,1.026-.98a3.862,3.862,0,0,0,.513-.667h0c0,.026-.026.046-.051.092a.932.932,0,0,0-.067.144c-.021.056-.051.128-.082.221v.062h0v-.133l.051-.221.2-.872c.067-.293.123-.585.185-.878.128-.585.226-1.175.334-1.765.056-.293.1-.59.144-.888s.1-.59.133-.888c.174-1.185.308-2.381.416-3.592s.169-2.4.221-3.592.051-2.412.031-3.592-.067-2.407-.149-3.592-.185-2.386-.328-3.561c-.072-.585-.154-1.165-.241-1.729-.041-.282-.087-.559-.133-.831l-.072-.39-.056-.277Z" transform="translate(-62.925 -126.919)" fill="#ea9b7a"/>
    <path id="Path_6410" data-name="Path 6410" d="M147.453,219.49,145,238.02a35.008,35.008,0,0,0,10.263,4.105Z" transform="translate(-82.968 -130.079)" fill="#a92f4b"/>
    <path id="Path_6411" data-name="Path 6411" d="M155.23,272.85a.324.324,0,0,1-.154-.041,33.065,33.065,0,0,0-4.536-1.909.325.325,0,0,1,.205-.616,33.046,33.046,0,0,1,4.618,1.955.323.323,0,0,1-.154.611Z" transform="translate(-85.557 -154.799)" fill="#d46a43"/>
    <path id="Path_6412" data-name="Path 6412" d="M150.976,270.886a.324.324,0,1,1-.036-.647c1.35-.149,3.12-.159,3.192-.159h0a.326.326,0,1,1,0,.652s-1.811,0-3.125.154Z" transform="translate(-85.711 -154.707)" fill="#d46a43"/>
    <path id="Path_6413" data-name="Path 6413" d="M73.541,416.773l-3.372,5.5-6.42-2.838,2.915-5.917Z" transform="translate(-43.413 -224.539)" fill="#ea9b7a"/>
    <path id="Path_6414" data-name="Path 6414" d="M24.132,426.42,48.41,437.166a3.71,3.71,0,0,0,.919-1.206c1.062-1.986,1.858-5.552,2.453-7.764.067-.257.133-.513.2-.713a7.78,7.78,0,0,1,.3-.878,1.348,1.348,0,0,0-.872-2.053c-3.525,1.324-4.706-3.52-6.856-3.079,0,0-.924.19-3.592,1.072s-6.481.575-9.786.513c-4.27-.087-5.958.965-6.615,1.909A2.053,2.053,0,0,0,24.132,426.42Z" transform="translate(-24.122 -228.397)" fill="#faaf3a"/>
    <path id="Path_6415" data-name="Path 6415" d="M24.13,429.777l24.278,10.746a3.71,3.71,0,0,0,.919-1.206l-24.8-10.977A2.053,2.053,0,0,0,24.13,429.777Z" transform="translate(-24.12 -231.754)" fill="#c77e2e"/>
    <path id="Path_6416" data-name="Path 6416" d="M66.465,441.8l.724.318a5.825,5.825,0,0,1,.416-4.465,7.487,7.487,0,0,1,4.7-3.726c.067-.257.133-.513.2-.713a8.134,8.134,0,0,0-5.47,4.157,6.44,6.44,0,0,0-.57,4.429Z" transform="translate(-44.655 -234.124)" fill="#c77e2e"/>
    <path id="Path_6417" data-name="Path 6417" d="M54.875,424.967a.436.436,0,0,0,.446-.744l-1.35-1.026a.436.436,0,1,0-.513.693l1.35,1.026Z" transform="translate(-38.29 -229.187)" fill="#fff"/>
    <path id="Path_6418" data-name="Path 6418" d="M58.905,423.808a.436.436,0,0,0,.446-.744L58,422.037a.436.436,0,1,0-.513.693l1.35,1.026Z" transform="translate(-40.251 -228.622)" fill="#fff"/>
    <path id="Path_6419" data-name="Path 6419" d="M51.165,425.378a.436.436,0,0,0,.446-.744l-1.35-1.026a.436.436,0,1,0-.513.693l1.35,1.026a.43.43,0,0,0,.067.051Z" transform="translate(-36.483 -229.386)" fill="#fff"/>
    <path id="Path_6420" data-name="Path 6420" d="M47.537,425.8a.436.436,0,0,0,.446-.744l-1.35-1.026a.436.436,0,0,0-.513.693l1.35,1.026a.438.438,0,0,0,.067.051Z" transform="translate(-34.769 -229.632)" fill="#fff"/>
    <path id="Path_6421" data-name="Path 6421" d="M43.575,425.828a.436.436,0,0,0,.446-.744l-1.35-1.026a.436.436,0,1,0-.513.693l1.35,1.026Z" transform="translate(-32.788 -229.605)" fill="#fff"/>
    <path id="Path_6422" data-name="Path 6422" d="M39.505,425.578a.436.436,0,0,0,.446-.744l-1.35-1.026a.436.436,0,1,0-.513.693l1.35,1.026Z" transform="translate(-30.807 -229.484)" fill="#fff"/>
    <path id="Path_6423" data-name="Path 6423" d="M89.129,311.664c2.253-2.217,20.014-7.184,31.816-3.88a15.323,15.323,0,0,1-1.129,15.3c-15.513,2.535-24.17,7.754-24.17,7.754s-5.5,12.711-8.77,17.376-10.777,19.5-10.777,19.5l-11.29-4.824S83,317.7,89.129,311.664Z" transform="translate(-43.929 -172.526)" fill="#39393b"/>
    <path id="Path_6424" data-name="Path 6424" d="M78.367,415.155a.323.323,0,0,1-.123,0L67.19,410.536a.325.325,0,1,1,.251-.6L78.5,414.554a.323.323,0,0,1-.123.626Z" transform="translate(-44.991 -222.782)" fill="#585859"/>
    <path id="Path_6425" data-name="Path 6425" d="M85.23,383.525a.323.323,0,0,1-.3-.446,85.044,85.044,0,0,1,7.728-14.015c5.393-8.185,10.961-21.876,11.018-22.015a.324.324,0,1,1,.6.246c-.056.139-5.681,13.943-11.074,22.128a86.187,86.187,0,0,0-7.667,13.9.323.323,0,0,1-.3.205Z" transform="translate(-53.711 -192.08)" fill="#585859"/>
    <path id="Path_6426" data-name="Path 6426" d="M130.9,421.57l-.852,6.394h-7.02l.272-6.584Z" transform="translate(-72.273 -228.365)" fill="#ea9b7a"/>
    <path id="Path_6427" data-name="Path 6427" d="M89.034,443.454h26.541a3.71,3.71,0,0,0,.349-1.473c.164-2.248-.549-5.83-.9-8.088-.041-.262-.077-.513-.108-.734a7.782,7.782,0,0,1-.077-.924A1.365,1.365,0,0,0,113.2,430.7c-2.689,2.633-5.727-1.319-7.5,0,0,0-.765.549-2.874,2.443s-5.691,3.146-8.724,4.424c-3.941,1.647-5.055,3.289-5.275,4.423A2.053,2.053,0,0,0,89.034,443.454Z" transform="translate(-55.596 -232.766)" fill="#faaf3a"/>
    <path id="Path_6428" data-name="Path 6428" d="M89.023,454.423h26.541a3.711,3.711,0,0,0,.349-1.473H88.8A2.053,2.053,0,0,0,89.023,454.423Z" transform="translate(-55.585 -243.734)" fill="#c77e2e"/>
    <path id="Path_6429" data-name="Path 6429" d="M134.524,446.054h.79a5.824,5.824,0,0,1-1.427-4.249,7.487,7.487,0,0,1,2.8-5.311c-.041-.262-.077-.513-.108-.734a8.134,8.134,0,0,0-3.32,6.014,6.445,6.445,0,0,0,1.268,4.28Z" transform="translate(-77.245 -235.366)" fill="#c77e2e"/>
    <path id="Path_6430" data-name="Path 6430" d="M115.011,437.53a.436.436,0,0,0,.1-.862l-1.658-.41a.436.436,0,1,0-.21.847l1.658.411Z" transform="translate(-67.348 -235.602)" fill="#fff"/>
    <path id="Path_6431" data-name="Path 6431" d="M118.271,434.84a.436.436,0,0,0,.1-.862l-1.658-.411a.436.436,0,0,0-.21.847l1.658.41Z" transform="translate(-68.935 -234.292)" fill="#fff"/>
    <path id="Path_6432" data-name="Path 6432" d="M111.831,439.41a.436.436,0,0,0,.1-.862l-1.658-.411a.436.436,0,0,0-.21.847l1.658.411Z" transform="translate(-65.8 -236.517)" fill="#fff"/>
    <path id="Path_6433" data-name="Path 6433" d="M108.6,441.22a.436.436,0,0,0,.1-.862l-1.658-.411a.436.436,0,1,0-.21.847l1.658.411Z" transform="translate(-64.228 -237.398)" fill="#fff"/>
    <path id="Path_6434" data-name="Path 6434" d="M105.071,442.89a.436.436,0,0,0,.1-.862l-1.658-.411a.436.436,0,1,0-.21.847l1.658.411Z" transform="translate(-62.509 -238.211)" fill="#fff"/>
    <path id="Path_6435" data-name="Path 6435" d="M101.251,444.31a.436.436,0,0,0,.1-.862l-1.658-.411a.436.436,0,0,0-.21.847l1.658.411Z" transform="translate(-60.649 -238.903)" fill="#fff"/>
    <path id="Path_6436" data-name="Path 6436" d="M196.807,257.328a2.819,2.819,0,0,1-.036.308l-.159.123a37.128,37.128,0,0,1-13.856,6.461l-.513.123c-.842.2-1.688.364-2.535.513-1.144.19-2.289.339-3.423.436-1.026.087-2.006.144-2.992.159a36.816,36.816,0,0,1-11.685-1.54l-.39-.128a23.59,23.59,0,0,1-2.566-1.026l-.364-.174c-.513-.241-.975-.513-1.427-.775.072-1.637.092-3.592.077-5.691V255.6c-.031-2.915-.118-6.061-.231-8.934v-.405c-.062-1.5-.133-2.93-.195-4.2v-.4c-.056-1.073-.113-2.053-.164-2.817a2.9,2.9,0,0,0-.041-.6c-.041-.2,0-.308-.031-.457h0c-.041-.554-.087-1.093-.133-1.627-.072-.852-.154-1.678-.241-2.479-.1-.913-.21-1.806-.323-2.663s-.257-1.811-.4-2.674-.3-1.8-.467-2.648c-.57-2.987-1.211-5.552-1.853-7.769l-.133-.446c-.262-.883-.513-1.7-.77-2.468l-.164-.513c-1.427-4.234-2.607-6.789-2.627-8.5-.041-3.566,2.566-4.711,5.286-6.158l.385-.205c.457-.246.919-.513,1.365-.79q.285-.177.554-.369l.364-.267a8.036,8.036,0,0,0,2.638-3.351l10.263-2.166a14.693,14.693,0,0,0,2.633.949l.482.123c.195.046.4.092.605.133l.4.077.318.056a19.472,19.472,0,0,0,3.413.226h.667a6.943,6.943,0,0,1,2.5.323h0a4.749,4.749,0,0,1,.452.164c3.341,1.334,5.968,5.327,7.667,11.459q.708,2.566,1.391,4.988l.149.513.293,1.062h0l.108.385q.513,1.888,1.026,3.726h0l.1.39h0l.056.205.185.718a117.443,117.443,0,0,1,2.7,12.881q.19,1.329.334,2.668c0,.216.051.457.077.729v.149a1.036,1.036,0,0,0,.031.282c.031.1,0,.1,0,.144.164,1.616.375,3.854.585,6.322a1.493,1.493,0,0,0,.036.4C196.735,247.486,197.161,254.321,196.807,257.328Z" transform="translate(-84.998 -117.036)" fill="#df615c"/>
    <path id="Path_6437" data-name="Path 6437" d="M175,202.367c4.105-.867,6.322-6,6.415-6.225a.293.293,0,0,0-.539-.231c0,.051-2.273,5.281-6.235,5.922a5.029,5.029,0,0,1-5.511-2.355.292.292,0,0,0-.513.272,5.778,5.778,0,0,0,6.127,2.663Z" transform="translate(-94.454 -118.513)" fill="#a92f4b"/>
    <path id="Path_6438" data-name="Path 6438" d="M180.233,300.243a29.364,29.364,0,0,0,11.834-5.912,51.793,51.793,0,0,0,9.114-9.283.294.294,0,0,0-.477-.344,51.171,51.171,0,0,1-8.991,9.17c-4.957,3.874-12.542,7.959-20.527,5.414a.294.294,0,0,0-.18.559A17.853,17.853,0,0,0,180.233,300.243Z" transform="translate(-95.53 -161.767)" fill="#a92f4b"/>
    <path id="Path_6439" data-name="Path 6439" d="M184.338,298.717h0c6.009-1.37,9.237-10.443,9.376-10.828a.294.294,0,1,0-.554-.195c-.031.092-3.259,9.15-8.95,10.448a.294.294,0,0,0,.123.575Z" transform="translate(-101.944 -163.187)" fill="#a92f4b"/>
    <path id="Path_6440" data-name="Path 6440" d="M159.662,261.693a8.845,8.845,0,0,0,2-1.873c1.339-1.745,1.54-3.531.513-5.029l-.564-.826c-2.053-3.017-2.284-3.33-2.1-8.293a4.511,4.511,0,0,0-1.309-3.644,4.927,4.927,0,0,0-2.109-1.108l.133.452a4.387,4.387,0,0,1,1.709.944,4.136,4.136,0,0,1,1.18,3.346c-.185,5.091.082,5.481,2.171,8.529l.564.826a3.785,3.785,0,0,1-.513,4.567,8.36,8.36,0,0,1-1.7,1.647h0A2.786,2.786,0,0,0,159.662,261.693Z" transform="translate(-88.367 -140.511)" fill="#a92f4b"/>
    <path id="Path_6441" data-name="Path 6441" d="M231.55,257.941a7.819,7.819,0,0,1-2.314.919,5.178,5.178,0,0,1-4.839-1.3,3.926,3.926,0,0,1-.262-5.45c1.54-1.75.872-2.679.041-3.859a4.637,4.637,0,0,1-.78-5.132,5.132,5.132,0,0,1,2.792-2.966,5.229,5.229,0,0,1,1.847-.369l.1.39a4.917,4.917,0,0,0-1.807.344,4.767,4.767,0,0,0-2.566,2.751,4.232,4.232,0,0,0,.739,4.767c.842,1.175,1.668,2.366-.067,4.341a3.5,3.5,0,0,0,.246,4.911c1.437,1.447,4,1.95,6.83.231a.9.9,0,0,0,.031.282C231.576,257.895,231.545,257.895,231.55,257.941Z" transform="translate(-120.911 -139.956)" fill="#a92f4b"/>
    <path id="Path_6442" data-name="Path 6442" d="M186.964,256.164a4.48,4.48,0,0,0,5.1,1.95,8.256,8.256,0,0,0,.924-.334,12.676,12.676,0,0,0,6.538-6.574,7.338,7.338,0,0,0-.765-6.743A19.731,19.731,0,0,1,195.386,236a3.1,3.1,0,0,0-5.845-1.191l-.108.2c-1.693,3.3-.683,5.7.21,7.805.934,2.207,1.74,4.105-.811,6.584C186.513,251.673,185.815,254.2,186.964,256.164Zm2.145-6.486c2.751-2.663,1.847-4.783.9-7.02-.9-2.13-1.832-4.331-.221-7.472l.1-.2A2.716,2.716,0,0,1,195,236.032a14.786,14.786,0,0,0,1.226,4.536,28.825,28.825,0,0,0,2.207,4.105,6.876,6.876,0,0,1,.729,6.4,12.249,12.249,0,0,1-7.184,6.671,4.105,4.105,0,0,1-4.649-1.77c-1.078-1.8-.405-4.152,1.781-6.271Z" transform="translate(-103.133 -136.727)" fill="#a92f4b"/>
    <path id="Path_6443" data-name="Path 6443" d="M154.25,221.056l.164.513a6.209,6.209,0,0,0,3.638.313,7,7,0,0,0,1.324-.421c2.509-1.083,4.213-3.407,4.172-4.814a1.114,1.114,0,0,0-.749-1.083c-2.7-.985-3.8-2.766-4.208-6.815a3.515,3.515,0,0,0-1.3-2.54l-.385.205.1.072a3.13,3.13,0,0,1,1.226,2.284c.426,4.234,1.6,6.1,4.465,7.143a.713.713,0,0,1,.513.724c.036,1.278-1.637,3.448-3.936,4.444A6,6,0,0,1,154.25,221.056Z" transform="translate(-87.471 -123.613)" fill="#a92f4b"/>
    <path id="Path_6444" data-name="Path 6444" d="M180.4,225.814a2.145,2.145,0,0,0,2.053.559,2.776,2.776,0,0,0,.754-.282c1.242-.688,1.7-2.124,1.237-3.838s.441-2.643,1.339-3.469c.79-.724,1.6-1.473.96-2.756a2.448,2.448,0,0,0-2.627-1.334,4.244,4.244,0,0,0-3.382,2.366C179.569,219.333,178.465,223.721,180.4,225.814Zm.667-8.58a3.941,3.941,0,0,1,2.668-2.094,3.455,3.455,0,0,1,.4-.062,2.053,2.053,0,0,1,2.243,1.119c.513,1.026-.072,1.539-.878,2.294-.893.821-2,1.842-1.452,3.859.416,1.54,0,2.8-1.026,3.392a1.94,1.94,0,0,1-2.314-.2C178.891,223.6,179.964,219.415,181.067,217.234Z" transform="translate(-99.689 -127.725)" fill="#a92f4b"/>
    <path id="Path_6445" data-name="Path 6445" d="M169.957,254.564a3.345,3.345,0,0,0,1.355,2.3,4.346,4.346,0,0,0,2.915.713,1.539,1.539,0,0,0,.836-.446c.636-.682.426-1.909-.575-3.366-1.16-1.688-.144-2.761.939-3.9.919-.97,1.873-1.971,1.339-3.341a2.247,2.247,0,0,0-2.566-1.329,4.762,4.762,0,0,0-4.234,4.105A16.709,16.709,0,0,0,169.957,254.564Zm.405-5.183a4.434,4.434,0,0,1,1.129-2.417,4.28,4.28,0,0,1,2.263-1.3,4.1,4.1,0,0,1,.488-.072c1.124-.1,1.832.251,2.155,1.078.446,1.139-.38,2.012-1.252,2.93-1.088,1.144-2.32,2.443-.98,4.393.888,1.288,1.114,2.34.611,2.874s-1.9.462-3.264-.339c-1.252-.734-1.663-3.274-1.149-7.143Z" transform="translate(-95.019 -142.584)" fill="#a92f4b"/>
    <path id="Path_6446" data-name="Path 6446" d="M163.681,287.177c1.575-.57,2.1.221,2.869,1.365A5.524,5.524,0,0,0,170,291.288a4.254,4.254,0,0,0,1.868,0,5.039,5.039,0,0,0,3.413-2.771,3.521,3.521,0,0,0-.944-4.531,2.16,2.16,0,0,1-.99-1.329c-.082-.616.38-1.211.872-1.842.683-.878,1.457-1.868.862-3.141a2.838,2.838,0,0,0-2.473-1.683c-1.878-.139-3.982,1.134-5.363,3.233a6.892,6.892,0,0,1-3.808,2.92c0,.128,0,.267,0,.4a7.267,7.267,0,0,0,4.105-3.1,6.671,6.671,0,0,1,3.957-2.981,3.766,3.766,0,0,1,1.052-.077,2.468,2.468,0,0,1,2.145,1.457c.513,1.026-.149,1.868-.821,2.73a3.1,3.1,0,0,0-.954,2.135,2.53,2.53,0,0,0,1.139,1.591,3.176,3.176,0,0,1,.826,4.054,4.37,4.37,0,0,1-4.834,2.53,5.148,5.148,0,0,1-3.218-2.566c-.765-1.139-1.432-2.14-3.212-1.539A1.358,1.358,0,0,1,163.681,287.177Z" transform="translate(-91.945 -157.58)" fill="#a92f4b"/>
    <path id="Path_6447" data-name="Path 6447" d="M202.762,281.977a1.586,1.586,0,0,0,1.149,1.314,2.277,2.277,0,0,0,1.062,0,4.936,4.936,0,0,0,2.515-1.586c.78-.883,1.539-.77,2.638-.616a6.538,6.538,0,0,0,4.013-.416,2.946,2.946,0,0,0,1.663-3.854,2.566,2.566,0,0,0-3.279-1.606,8.175,8.175,0,0,0-2.566,1.483,4.949,4.949,0,0,1-3.895,1.35,2.9,2.9,0,0,0-2.366.79,4.477,4.477,0,0,0-.954,3.135C202.746,282.029,202.762,281.972,202.762,281.977Zm.385-.067a4.131,4.131,0,0,1,.847-2.822,2.535,2.535,0,0,1,2.053-.672,5.321,5.321,0,0,0,4.157-1.432,7.755,7.755,0,0,1,2.458-1.427,2.191,2.191,0,0,1,2.786,1.38,2.566,2.566,0,0,1-1.457,3.351,6.107,6.107,0,0,1-3.8.385,4.907,4.907,0,0,0-1.693-.051,2.33,2.33,0,0,0-1.293.8c-.99,1.119-2.309,1.735-3.2,1.493a1.2,1.2,0,0,1-.857-1Z" transform="translate(-111.074 -157.137)" fill="#a92f4b"/>
    <path id="Path_6448" data-name="Path 6448" d="M233.782,297.446a4.59,4.59,0,0,0,.554,5.819,2.72,2.72,0,0,0,2.207.621l.159-.123a2.315,2.315,0,0,1,.041-.308,2.361,2.361,0,0,1-2.155-.513,4.193,4.193,0,0,1-.467-5.311c1.242-2.042.267-2.715-.78-3.392-.96-.626-1.96-1.268-1.806-3.13a3.028,3.028,0,0,1,1.108-2.2,4.752,4.752,0,0,1,2.053-.893,9.038,9.038,0,0,1,1.514-.174,1.712,1.712,0,0,0-.031-.4,6.451,6.451,0,0,0-3.756,1.16,3.6,3.6,0,0,0,.739,5.958C234.12,295.189,234.839,295.7,233.782,297.446Z" transform="translate(-124.913 -163.164)" fill="#a92f4b"/>
    <path id="Path_6449" data-name="Path 6449" d="M172.7,327.066l.39.128a4.1,4.1,0,0,1,1.057-2.776,3.917,3.917,0,0,1,3.325-.852,5.6,5.6,0,0,1,3.592,1.724c1.3,1.191,2.2,1.755,5.588-.457a10.483,10.483,0,0,1,3.525-1.54,3.934,3.934,0,0,1,3.654.693c.831.857.79,2.217-.1,3.685l.513-.123c.806-1.509.765-2.91-.133-3.839-1.206-1.242-4.105-1.539-7.7.806-3.3,2.16-3.982,1.54-5.132.513a6.009,6.009,0,0,0-3.808-1.827,4.309,4.309,0,0,0-3.643.965,4.377,4.377,0,0,0-1.134,2.9Z" transform="translate(-96.454 -180.354)" fill="#a92f4b"/>
    <path id="Path_6450" data-name="Path 6450" d="M215.479,310.3a3.461,3.461,0,0,0,3.628,1.6l.195-.051c2.309-.652,3.638-2.525,3.741-5.27.077-2.124-.118-4.208-2.083-5.132h-.036c-.092,0-2.268-.549-3.623.37a2.36,2.36,0,0,0-1.026,1.729,4.367,4.367,0,0,0,.513,2.771c.369.739.513,1.078-.6,1.847A1.661,1.661,0,0,0,215.479,310.3Zm.97-1.791c1.344-.919,1.149-1.488.729-2.345a3.977,3.977,0,0,1-.513-2.566,1.991,1.991,0,0,1,.842-1.463,4.831,4.831,0,0,1,3.289-.318c1.406.652,1.94,2.027,1.837,4.726-.067,1.811-.724,4.136-3.454,4.911a3.073,3.073,0,0,1-3.361-1.339c-.267-.58-.056-1.139.626-1.606Z" transform="translate(-117.202 -169.898)" fill="#a92f4b"/>
    <path id="Path_6451" data-name="Path 6451" d="M165.715,322.219l.364.174a3.8,3.8,0,0,0,1-3.079,7.16,7.16,0,0,0-2.72-4.064v.513a6.577,6.577,0,0,1,2.33,3.592,3.464,3.464,0,0,1-.944,2.833Z" transform="translate(-92.393 -176.698)" fill="#a92f4b"/>
    <path id="Path_6452" data-name="Path 6452" d="M146.619,148.887s-5.824-1.232-5.963-3.454c-.123-2.053,2.3-1.837,2.3-1.837s-2.828-4.618-1.206-5.547,3.669,1.688,3.669,1.688-1.483-5.5.513-5.106,2.237,3.418,2.237,3.418,6.584-2.345,10.325-1.221a4.793,4.793,0,0,1,3.151,3.218s1.54-.9,2.592-.349.092,2.443.092,2.443a3.346,3.346,0,0,1,1.155,3.31c-.513,2.053-1.96,6.045-1.96,6.045Z" transform="translate(-80.851 -88.756)" fill="#39393b"/>
    <path id="Path_6453" data-name="Path 6453" d="M168.3,185.547l.564,2.679a8.492,8.492,0,0,0,1.088.462c5.234,1.811,9.519-2.7,9.519-2.7l-1.955-9.278-8.118,7.785Z" transform="translate(-94.311 -109.252)" fill="#ea9b7a"/>
    <path id="Path_6454" data-name="Path 6454" d="M168.3,190.094l.564,2.679a8.489,8.489,0,0,0,1.088.462c3.628-2.4,5.645-7.184,5.645-7.184l-6.184,2.966Z" transform="translate(-94.311 -113.799)" fill="#39393b"/>
    <path id="Path_6455" data-name="Path 6455" d="M154.689,151.7s-6.338,1.971-2.566,8.247C152.108,159.941,155.207,153.435,154.689,151.7Z" transform="translate(-85.853 -97.076)" fill="#39393b"/>
    <path id="Path_6456" data-name="Path 6456" d="M154.562,171.689s-1.9-1.478-2.381.513.944,5.47,3.135,4.393Z" transform="translate(-86.419 -106.551)" fill="#d46a43"/>
    <path id="Path_6457" data-name="Path 6457" d="M154.312,167.223s1.16,5.537,6.912,4.311,8.667-6.533,8.821-6.779h0l-.185-1.175-.944-6.107-.513-3.264s-.513-5.963-6.235-5.86c-4.2.077-7.836,1.54-9.3,4.049a5.06,5.06,0,0,0-.652,3.182l1.026,5.835.257,1.432Z" transform="translate(-86.461 -95.444)" fill="#ea9b7a"/>
    <path id="Path_6458" data-name="Path 6458" d="M167.259,167.52s-.847,3.4-2.72,3.243a8.057,8.057,0,0,0-5.4,1.139s-2.9-.431-4.27,1.026c-.919.97,1.242,8.185,5.25,8.442s8.826-2.145,9.3-5.973a21.3,21.3,0,0,0-.241-6.851Z" transform="translate(-87.672 -104.778)" fill="#39393b"/>
    <path id="Path_6459" data-name="Path 6459" d="M161.09,178.032a15.98,15.98,0,0,0,4.824-1.242s.708,3.161-2.053,3.433C161.69,180.444,161.09,178.032,161.09,178.032Z" transform="translate(-90.801 -109.291)" fill="#fff"/>
    <ellipse id="Ellipse_727" data-name="Ellipse 727" cx="1.894" cy="0.744" rx="1.894" ry="0.744" transform="translate(74.315 64.364) rotate(-11.9)" fill="#d46a43"/>
    <path id="Path_6460" data-name="Path 6460" d="M154.567,175.037a2.423,2.423,0,0,0,.452-.072c1.026-.216,1.786-.718,1.7-1.119s-.985-.554-2.006-.339c-.139.031-.272.062-.4.1Z" transform="translate(-87.501 -107.645)" fill="#d46a43"/>
    <ellipse id="Ellipse_728" data-name="Ellipse 728" cx="0.575" cy="1.026" rx="0.575" ry="1.026" transform="translate(73.845 61.858) rotate(-11.9)" fill="#39393b"/>
    <ellipse id="Ellipse_729" data-name="Ellipse 729" cx="0.575" cy="1.026" rx="0.575" ry="1.026" transform="translate(68.372 63.013) rotate(-11.9)" fill="#39393b"/>
    <path id="Path_6461" data-name="Path 6461" d="M162.432,169.286a.234.234,0,1,0-.1-.457,1.6,1.6,0,0,1-1.493-.349c.513-2.053,1.026-4.141,1.026-4.162a.232.232,0,0,0-.452-.108s-.513,2.176-1.052,4.28a.231.231,0,0,0,.041.2,1.986,1.986,0,0,0,2.027.6Z" transform="translate(-90.445 -103.08)" fill="#39393b"/>
    <path id="Path_6462" data-name="Path 6462" d="M169.689,160.44c-.251-.559-.97-1.539-2.853-1.242a.513.513,0,0,0-.416.462h0a.513.513,0,0,0,.513.513,2.237,2.237,0,0,1,1.873.826.513.513,0,0,0,.729.036l.046-.046A.513.513,0,0,0,169.689,160.44Z" transform="translate(-93.396 -100.7)" fill="#39393b"/>
    <path id="Path_6463" data-name="Path 6463" d="M154.14,163.416c0-.611.257-1.811,2.109-2.289a.513.513,0,0,1,.57.257h0a.513.513,0,0,1-.251.693,2.237,2.237,0,0,0-1.38,1.509.513.513,0,0,1-.652.328h-.062A.513.513,0,0,1,154.14,163.416Z" transform="translate(-87.418 -101.659)" fill="#39393b"/>
    <path id="Path_6464" data-name="Path 6464" d="M182.57,176.68a5.176,5.176,0,0,0,2.273,1.868h0l-.185-1.175A4.059,4.059,0,0,1,182.57,176.68Z" transform="translate(-101.259 -109.237)" fill="#39393b"/>
    <path id="Path_6465" data-name="Path 6465" d="M183,166.821s1.586-3.438,3.7-1.442c1.74,1.642.272,7.184-2.735,6.03Z" transform="translate(-101.468 -103.432)" fill="#ea9b7a"/>
    <path id="Path_6466" data-name="Path 6466" d="M184.771,171.85a.231.231,0,0,0,.185-.251,3.885,3.885,0,0,1,1.54-3.531.231.231,0,1,0-.257-.385,4.352,4.352,0,0,0-1.77,3.962.231.231,0,0,0,.257.21Z" transform="translate(-102.172 -104.838)" fill="#39393b"/>
    <path id="Path_6467" data-name="Path 6467" d="M186.965,171.571a.231.231,0,0,0,.056-.436,2.284,2.284,0,0,0-1.7-.205.232.232,0,0,0,.205.416,1.847,1.847,0,0,1,1.288.205A.231.231,0,0,0,186.965,171.571Z" transform="translate(-102.533 -106.386)" fill="#39393b"/>
    <path id="Path_6468" data-name="Path 6468" d="M153.55,152.368a1.026,1.026,0,0,0,.354.441c1.365.939,3.921-.036,6.209-1.309a4.4,4.4,0,0,1,4.382.144c-.185,2.489,2.16,2.191,2.053,4.075a14.486,14.486,0,0,0,.564,4.187l1.4-.513a3.592,3.592,0,0,1,1.088-1.971l-.513-3.264s-.513-5.963-6.235-5.86C158.656,148.4,155.013,149.859,153.55,152.368Z" transform="translate(-87.131 -95.42)" fill="#39393b"/>
    <path id="Path_6469" data-name="Path 6469" d="M178.487,307.959s5.481,21.62-22.933,21.62c-15.174,0-22.389-1.463-22.389-1.463s-.364,13.4-1.073,19.054-3.2,19.711-3.2,19.711l-11.952.924s-1.909-49.059,5.414-53.575,17.858-4.649,35.922-6.389C158.293,307.867,174.53,305.122,178.487,307.959Z" transform="translate(-69.197 -172.522)" fill="#39393b"/>
    <path id="Path_6470" data-name="Path 6470" d="M136.94,363.749h-.077a.323.323,0,0,1-.241-.39c1.652-6.9,2.309-16.786,2.833-24.73.513-7.831.831-11.952,1.642-12.67.9-.79,3.556-.513,7.964-.041,5.465.58,13.717,1.457,22.62.436,4.423-.513,7.81-2.237,10.073-5.132,4.059-5.219,3.13-12.542,3.12-12.614a.326.326,0,0,1,.647-.087c.041.308.98,7.662-3.248,13.1-2.376,3.079-5.912,4.87-10.515,5.4-8.975,1.026-17.273.149-22.764-.436-3.792-.405-6.784-.724-7.467-.118-.154.139-.462.811-.775,3.782-.236,2.2-.426,5.091-.647,8.447-.513,7.97-1.185,17.884-2.853,24.837A.323.323,0,0,1,136.94,363.749Z" transform="translate(-78.885 -173.285)" fill="#585859"/>
    <path id="Path_6471" data-name="Path 6471" d="M117.091,416.99a.326.326,0,0,1,0-.652l12.224-.739a.324.324,0,1,1,.041.647l-12.224.739Z" transform="translate(-69.223 -225.551)" fill="#585859"/>
    <rect id="Rectangle_1129" data-name="Rectangle 1129" width="36.101" height="4.706" rx="0.29" transform="translate(44.8 136.92)" fill="#ced3e6"/>
    <path id="Path_6472" data-name="Path 6472" d="M94.834,292.22a3,3,0,0,1-2.9-2.227l-6.748-25.284a2.432,2.432,0,0,1,2.35-3.079H103.7a2.432,2.432,0,0,1,2.345,1.776l8.088,28.794Z" transform="translate(-53.807 -150.594)" fill="#fff"/>
    <path id="Path_6473" data-name="Path 6473" d="M123.7,263.446,131.716,292h1.847l-8.021-28.558a2.438,2.438,0,0,0-2.345-1.776H121.35A2.438,2.438,0,0,1,123.7,263.446Z" transform="translate(-71.455 -150.613)" fill="#ced3e6"/>
    <path id="Path_6474" data-name="Path 6474" d="M111.446,289.522a2.212,2.212,0,0,1-2.212,2.874,3.838,3.838,0,0,1-3.541-2.874,2.212,2.212,0,0,1,2.212-2.874A3.838,3.838,0,0,1,111.446,289.522Z" transform="translate(-63.783 -162.772)" fill="#ced3e6"/>
    <path id="Path_6475" data-name="Path 6475" d="M150.828,301.16s-7.328.513-9.668,2.745l1.427,5.07s4.382-1.791,5.594-1.617,1.94,2.166,6,.954Z" transform="translate(-81.099 -169.838)" fill="#ea9b7a"/>
    <path id="Path_6476" data-name="Path 6476" d="M157.461,254.7l.826-.339.857-.359q.862-.364,1.719-.749,1.714-.759,3.407-1.575c2.253-1.083,4.465-2.232,6.594-3.448a63.751,63.751,0,0,0,6.071-3.9c.467-.349.929-.7,1.37-1.052s.867-.718,1.278-1.083a18.988,18.988,0,0,0,2.125-2.207,9.546,9.546,0,0,0,.734-1.026,7.213,7.213,0,0,0,.477-.98,12.244,12.244,0,0,0,.688-2.53,26.171,26.171,0,0,0,.118-6.3,51.17,51.17,0,0,0-1.144-6.851c-.262-1.149-.559-2.3-.883-3.433-.164-.57-.334-1.134-.513-1.688-.087-.277-.18-.554-.267-.826l-.133-.4-.067-.19-.031-.087v-.041h0a6.471,6.471,0,1,1,12.044-4.644l.195.672.051.18.041.144.077.277.139.513c.087.354.174.7.257,1.026.164.693.318,1.38.457,2.053.287,1.38.513,2.761.744,4.157a62.884,62.884,0,0,1,.718,8.606,43.731,43.731,0,0,1-.164,4.48,32.151,32.151,0,0,1-.76,4.67,22.824,22.824,0,0,1-1.745,4.865,17.751,17.751,0,0,1-1.447,2.386,20.491,20.491,0,0,1-1.668,2.006,29.6,29.6,0,0,1-3.5,3.135c-1.185.908-2.386,1.724-3.592,2.484a73.433,73.433,0,0,1-7.307,3.967c-2.458,1.17-4.937,2.227-7.431,3.207q-1.873.734-3.762,1.411-.944.339-1.9.662l-.96.323-1,.323a4.131,4.131,0,0,1-2.843-7.754Z" transform="translate(-87.706 -123.709)" fill="#ea9b7a"/>
    <path id="Path_6477" data-name="Path 6477" d="M213.135,272.292h-.072a18.52,18.52,0,0,0-5.306-.647.257.257,0,0,1,0-.513,18.676,18.676,0,0,1,5.491.652.259.259,0,0,1-.072.513Z" transform="translate(-113.395 -155.215)" fill="#d46a43"/>
    <path id="Path_6478" data-name="Path 6478" d="M208.954,270.577a.257.257,0,0,1-.169-.452,6.486,6.486,0,0,1,2.155-1.175.266.266,0,1,1,.144.513,6.066,6.066,0,0,0-1.965,1.067A.257.257,0,0,1,208.954,270.577Z" transform="translate(-113.977 -154.153)" fill="#d46a43"/>
    <path id="Path_6479" data-name="Path 6479" d="M219.126,221.085l-5.311,1.457-.39.108-3.669,1.026-.446.123-4.721,1.293-.364-1.673-.082-.4-.852-3.931-.087-.4-1.606-7.415a15.708,15.708,0,0,1-.482-5.609,7.277,7.277,0,0,1,6.82-6.158,5.229,5.229,0,0,1,2.109.313,3.7,3.7,0,0,1,.4.154,8.431,8.431,0,0,1,3.31,2.992c.077.108.149.216.216.328a32.47,32.47,0,0,1,3.844,10.12c.036.139.067.277.1.416.38,1.7.667,3.336.883,4.752q.051.334.092.647C218.982,219.895,219.064,220.531,219.126,221.085Z" transform="translate(-110.252 -120.348)" fill="#df615c"/>
    <path id="Path_6480" data-name="Path 6480" d="M229.285,231.415a3.079,3.079,0,0,0-2.8-.739c-1.539.277-2.786-.226-3.279-1.35a1.94,1.94,0,0,1,.4-2.289c1.2-.924,3.043-.847,4.793-.375-.031-.139-.062-.277-.1-.416-1.8-.457-3.674-.488-4.937.477a2.155,2.155,0,0,0-.734,1.981,2.89,2.89,0,0,0,.21.78c.575,1.3,1.965,1.888,3.715,1.575a2.74,2.74,0,0,1,2.817,1.026Q229.342,231.744,229.285,231.415Z" transform="translate(-120.75 -133.219)" fill="#a92f4b"/>
    <path id="Path_6481" data-name="Path 6481" d="M220.332,207.218c-1.088-1.575-.272-2.617.724-3.674-.067-.113-.139-.221-.216-.328-1.052,1.1-2.114,2.371-.831,4.228.888,1.288,1.108,2.335.611,2.874s-1.9.462-3.264-.339c-1.252-.739-1.658-3.274-1.149-7.143a4.454,4.454,0,0,1,1.129-2.417l.195-.2a3.7,3.7,0,0,0-.4-.154,4.818,4.818,0,0,0-1.319,2.71,16.9,16.9,0,0,0,0,5.234,3.368,3.368,0,0,0,1.355,2.3,4.357,4.357,0,0,0,2.915.713,1.54,1.54,0,0,0,.837-.446C221.543,209.892,221.333,208.666,220.332,207.218Z" transform="translate(-117.345 -120.624)" fill="#a92f4b"/>
    <path id="Path_6482" data-name="Path 6482" d="M203.2,227.26c-.872-5.188-1.976-10.043-1.986-10.094a.2.2,0,0,0-.375.087c0,.051,1.108,4.88,1.976,10.043C202.872,227.5,203.2,227.507,203.2,227.26Z" transform="translate(-110.153 -128.889)" fill="#a92f4b"/>
    <path id="Path_6483" data-name="Path 6483" d="M200.642,223.18a.19.19,0,0,1-.1-.031l-2-1.283a.2.2,0,0,1,.21-.323l2,1.283a.2.2,0,0,1-.1.354Z" transform="translate(-109 -131.07)" fill="#a92f4b"/>
    <path id="Path_6484" data-name="Path 6484" d="M172.673,209.4a2.746,2.746,0,0,1-1.853-.734c-3.166-2.786-3.151-12.916-3.151-13.342a.369.369,0,0,1,.369-.364h0a.369.369,0,0,1,.364.369c0,.1,0,10.222,2.9,12.788a2,2,0,0,0,1.652.513c3.895-.513,5.645-11.849,6.019-16.175a.369.369,0,1,1,.734.062,62.335,62.335,0,0,1-1.288,8.062c-1.309,5.532-3.115,8.488-5.368,8.785A2.958,2.958,0,0,1,172.673,209.4Z" transform="translate(-94.005 -116.74)" fill="#fff"/>
    <path id="Path_6485" data-name="Path 6485" d="M196.9,407.128H158.543a1.627,1.627,0,0,1,0-3.248h38.375a1.627,1.627,0,0,1,0,3.248Z" transform="translate(-88.814 -219.846)" fill="#084fc7"/>
    <path id="Path_6486" data-name="Path 6486" d="M151.548,406h-.216a1.627,1.627,0,0,1-1.4-1.827l6.989-52.189a1.627,1.627,0,0,1,1.611-1.411h31.3a1.627,1.627,0,0,1,1.611,1.411l6.887,52.179a1.627,1.627,0,1,1-3.223.426l-6.671-50.8H159.958l-6.8,50.8A1.627,1.627,0,0,1,151.548,406Z" transform="translate(-85.364 -193.893)" fill="#0875f7"/>
    <path id="Path_6487" data-name="Path 6487" d="M184.38,300.553h20.332c6.44,0,13.342-3.525,14.328-9.889a120.758,120.758,0,0,0,1.283-24.345c-.416-8.555-3.741-16.5-10.469-21.8h0s2.9,33,.282,42.111C206.641,298.834,184.38,300.553,184.38,300.553Z" transform="translate(-102.14 -142.264)" fill="#0875f7"/>
    <path id="Path_6488" data-name="Path 6488" d="M63.12,219.085v9.75a2.34,2.34,0,0,0,2.335,2.335H83.18l5.352,1.919a.683.683,0,0,0,.862-.888l-2.022-5.229v-7.887a2.34,2.34,0,0,0-2.34-2.335H65.455A2.34,2.34,0,0,0,63.12,219.085Z" transform="translate(-43.106 -128.745)" fill="#0875f7"/>
    <circle id="Ellipse_730" data-name="Ellipse 730" cx="1.688" cy="1.688" r="1.688" transform="translate(35.414 93.809)" fill="#084fc7"/>
    <circle id="Ellipse_731" data-name="Ellipse 731" cx="1.688" cy="1.688" r="1.688" transform="translate(30.061 93.809)" fill="#084fc7"/>
    <circle id="Ellipse_732" data-name="Ellipse 732" cx="1.688" cy="1.688" r="1.688" transform="translate(24.709 93.809)" fill="#084fc7"/>
    <ellipse id="Ellipse_733" data-name="Ellipse 733" cx="13.82" cy="13.65" rx="13.82" ry="13.65" transform="translate(304.467 38.326)" fill="#ced3e6"/>
    <ellipse id="Ellipse_734" data-name="Ellipse 734" cx="13.82" cy="13.65" rx="13.82" ry="13.65" transform="translate(304.467 36.55)" fill="#21b573"/>
    <path id="Path_6489" data-name="Path 6489" d="M633.961,143.65A11.1,11.1,0,1,1,645.2,132.556,11.1,11.1,0,0,1,633.961,143.65Z" transform="translate(-315.674 -82.35)" fill="#fff"/>
    <path id="Path_6490" data-name="Path 6490" d="M644.937,132.418q0,.441-.036.878a11.249,11.249,0,0,0-22.4,0q-.036-.431-.036-.878a11.237,11.237,0,1,1,22.474,0Z" transform="translate(-315.411 -82.218)" fill="#ced3e6"/>
    <path id="Path_6491" data-name="Path 6491" d="M638.864,137.847a.282.282,0,0,1-.226-.113l-5.511-7.328a.277.277,0,0,1,.056-.39.282.282,0,0,1,.4.056l5.378,7.154,6.112-2.627a.282.282,0,0,1,.369.144.277.277,0,0,1-.144.364l-6.317,2.74A.282.282,0,0,1,638.864,137.847Z" transform="translate(-320.577 -86.492)" fill="#39393b"/>
    <rect id="Rectangle_1130" data-name="Rectangle 1130" width="4.962" height="21.163" rx="1.19" transform="translate(32.709 47.306)" fill="#0875f7"/>
    <rect id="Rectangle_1131" data-name="Rectangle 1131" width="3.454" height="1.447" rx="0.724" transform="translate(33.464 57.164)" fill="#084fc7"/>
    <rect id="Rectangle_1132" data-name="Rectangle 1132" width="4.962" height="0.816" transform="translate(32.709 49.015)" fill="#084fc7"/>
    <rect id="Rectangle_1133" data-name="Rectangle 1133" width="4.962" height="0.816" transform="translate(32.709 50.724)" fill="#084fc7"/>
    <rect id="Rectangle_1134" data-name="Rectangle 1134" width="4.962" height="0.816" transform="translate(32.709 63.337)" fill="#084fc7"/>
    <rect id="Rectangle_1135" data-name="Rectangle 1135" width="4.962" height="0.816" transform="translate(32.709 65.046)" fill="#084fc7"/>
    <rect id="Rectangle_1136" data-name="Rectangle 1136" width="4.962" height="21.163" rx="0.3" transform="translate(22.79 47.306)" fill="#21b573"/>
    <rect id="Rectangle_1137" data-name="Rectangle 1137" width="3.454" height="1.447" rx="0.724" transform="translate(23.544 57.164)" fill="#217c58"/>
    <rect id="Rectangle_1138" data-name="Rectangle 1138" width="4.962" height="0.816" transform="translate(22.79 49.015)" fill="#217c58"/>
    <rect id="Rectangle_1139" data-name="Rectangle 1139" width="4.962" height="0.816" transform="translate(22.79 50.724)" fill="#217c58"/>
    <rect id="Rectangle_1140" data-name="Rectangle 1140" width="4.962" height="0.816" transform="translate(22.79 63.337)" fill="#217c58"/>
    <rect id="Rectangle_1141" data-name="Rectangle 1141" width="4.962" height="0.816" transform="translate(22.79 65.046)" fill="#217c58"/>
    <rect id="Rectangle_1142" data-name="Rectangle 1142" width="4.962" height="21.163" rx="1.19" transform="translate(27.752 47.306)" fill="#df615c"/>
    <rect id="Rectangle_1143" data-name="Rectangle 1143" width="3.454" height="1.447" rx="0.724" transform="translate(28.501 57.164)" fill="#a92f4b"/>
    <rect id="Rectangle_1144" data-name="Rectangle 1144" width="4.962" height="0.816" transform="translate(27.752 49.015)" fill="#a92f4b"/>
    <rect id="Rectangle_1145" data-name="Rectangle 1145" width="4.962" height="0.816" transform="translate(27.752 50.724)" fill="#a92f4b"/>
    <rect id="Rectangle_1146" data-name="Rectangle 1146" width="4.962" height="0.816" transform="translate(27.752 63.337)" fill="#a92f4b"/>
    <rect id="Rectangle_1147" data-name="Rectangle 1147" width="4.962" height="0.816" transform="translate(27.752 65.046)" fill="#a92f4b"/>
    <rect id="Rectangle_1148" data-name="Rectangle 1148" width="4.962" height="21.163" rx="0.3" transform="matrix(0.987, -0.159, 0.159, 0.987, 37.616, 47.595)" fill="#faaf3a"/>
    <rect id="Rectangle_1149" data-name="Rectangle 1149" width="3.454" height="1.447" rx="0.26" transform="matrix(0.987, -0.159, 0.159, 0.987, 39.93, 57.207)" fill="#c77e2e"/>
    <rect id="Rectangle_1150" data-name="Rectangle 1150" width="4.962" height="0.816" transform="matrix(0.987, -0.159, 0.159, 0.987, 37.891, 49.279)" fill="#c77e2e"/>
    <rect id="Rectangle_1151" data-name="Rectangle 1151" width="4.962" height="0.816" transform="matrix(0.987, -0.159, 0.159, 0.987, 38.162, 50.969)" fill="#c77e2e"/>
    <rect id="Rectangle_1152" data-name="Rectangle 1152" width="4.976" height="0.818" transform="matrix(0.987, -0.16, 0.16, 0.987, 40.384, 63.612)" fill="#c77e2e"/>
    <rect id="Rectangle_1153" data-name="Rectangle 1153" width="4.962" height="0.816" transform="matrix(0.987, -0.159, 0.159, 0.987, 40.445, 65.103)" fill="#c77e2e"/>
    <g id="Group_441" data-name="Group 441" transform="translate(12.568 71.528)" opacity="0.8">
      <path id="Path_6492" data-name="Path 6492" d="M94.533,187.252H49.6l-.985-2.612H95.657Z" transform="translate(-48.61 -184.64)" fill="#ced3e6"/>
    </g>
    <rect id="Rectangle_1154" data-name="Rectangle 1154" width="47.047" height="3.105" transform="translate(12.568 68.423)" fill="#39393b"/>
    <path id="Path_6493" data-name="Path 6493" d="M57.95,184.64l1.257,2.638h2.966l.847-2.638Z" transform="translate(-40.59 -113.112)" fill="#39393b"/>
    <path id="Path_6494" data-name="Path 6494" d="M126.145,184.64l-1.257,2.638h-2.966l-.842-2.638Z" transform="translate(-71.323 -113.112)" fill="#39393b"/>
    <ellipse id="Ellipse_735" data-name="Ellipse 735" cx="67.764" cy="3.987" rx="67.764" ry="3.987" transform="translate(212.005 206.747)" fill="#ced3e6"/>
    <path id="Path_6495" data-name="Path 6495" d="M567.882,377.138c-21.168-.744-43.065-3.633-54.4-42.644-3.372-11.6-1.18-20.378,2.52-27a40.22,40.22,0,0,1,2.956-4.516h0q.585-.78,1.18-1.509a30.79,30.79,0,0,1,34.439-9.288,134.951,134.951,0,0,1,23.631,11.064c15.847,9.714,19.567,20.783,24.745,39.781.446,1.632.888,3.459,1.227,5.4.18,1.026.328,2.109.431,3.2C605.764,363.765,601.079,378.3,567.882,377.138Z" transform="translate(-261.546 -164.536)" fill="#39393b"/>
    <path id="Path_6496" data-name="Path 6496" d="M607.472,363.678a24.958,24.958,0,0,1-3.038,5.9c-4,5.737-12.316,12.665-29.317,13.117q-1.119.031-2.212.031a59.12,59.12,0,0,1-17.448-2.381,42.634,42.634,0,0,1-14.594-7.7c-7.267-5.876-13.265-14.461-19.424-27.86a38.929,38.929,0,0,1-3.751-15.908,34.721,34.721,0,0,1,1.185-9.319,40.215,40.215,0,0,1,2.956-4.516c-.262.606-.513,1.242-.76,1.9-2.217,6.081-3.746,15.759,1.575,27.306,10.823,23.488,23.37,37.887,52.451,37.128,16.421-.431,24.447-7.066,28.276-12.552a23.051,23.051,0,0,0,3.685-8.344C607.221,361.518,607.37,362.59,607.472,363.678Z" transform="translate(-264.404 -176.595)" fill="#585859"/>
    <path id="Path_6497" data-name="Path 6497" d="M633.34,269.53s13.291,18.033,16.324,27.018-4.336,15.364-4.336,15.364l-6.835,2.566S631.472,282.759,633.34,269.53Z" transform="translate(-320.554 -154.44)" fill="#084fc7"/>
    <path id="Path_6498" data-name="Path 6498" d="M600.422,316.687c-5.809,1.924-20.014,6.974-26.172,4.932a5.857,5.857,0,0,1-.734-.3,3.875,3.875,0,0,1-1.591-1.345c-2.417-3.679-4.813-19.121-3.736-28.193a36.577,36.577,0,0,0,.221-3.659c.031-1.9-.031-3.941-.113-5.989-.3-7.7-1.539-13.029,1.781-14.882a38.49,38.49,0,0,1,9.093-3.592,25.888,25.888,0,0,1,5.6-1.062l7.349,1.334s6.343,1.057,7.805,2.14,2.212,5.835,4.855,10.191,3.218,8.724.693,13.512c-2.2,4.162-1.811,2.566-2.1,9.406C603.024,307.537,611.769,312.91,600.422,316.687Z" transform="translate(-288.812 -151.065)" fill="#fff"/>
    <g id="Group_442" data-name="Group 442" transform="translate(292.1 125.431)" opacity="0.8">
      <path id="Path_6499" data-name="Path 6499" d="M593.33,290.665a45.9,45.9,0,0,1,18.13-.159l.246,7.025s-11.177-1.242-18.217.549Z" transform="translate(-593.33 -289.68)" fill="#ced3e6"/>
    </g>
    <g id="Group_443" data-name="Group 443" transform="translate(292.323 115.724)" opacity="0.8">
      <path id="Path_6500" data-name="Path 6500" d="M602.691,275.5h-.328c-4.352-.226-8.344-4.064-8.508-4.228a.3.3,0,1,1,.416-.426c.041.036,4,3.849,8.123,4.059,3.951.21,4.429-3.71,4.449-3.88a.3.3,0,0,1,.59.062C607.433,271.147,606.91,275.5,602.691,275.5Z" transform="translate(-593.765 -270.765)" fill="#ced3e6"/>
    </g>
    <g id="Group_444" data-name="Group 444" transform="translate(288.78 149.864)" opacity="0.8">
      <path id="Path_6501" data-name="Path 6501" d="M586.993,343.08a.313.313,0,0,1,0-.513,36.594,36.594,0,0,1,14.646-5.044,26.807,26.807,0,0,1,6.456-.067.311.311,0,1,1-.092.616,26.788,26.788,0,0,0-6.317.077,35.968,35.968,0,0,0-14.369,4.957.313.313,0,0,1-.323-.026Z" transform="translate(-586.859 -337.292)" fill="#ced3e6"/>
    </g>
    <path id="Path_6502" data-name="Path 6502" d="M583.834,317.6a36.959,36.959,0,0,1-13.188-7.964q-.385-.354-.739-.7c-1.673-1.627-2.853-.79-3.366-1.724-1.955-3.592-.847-17.612,0-22.769s-2.71-14.594-.8-17.961,8.508-4.557,8.508-4.557-.934-1.088.836-2.335,6.481-.729,6.481-.729C581.8,281.151,584.953,301.872,583.834,317.6Z" transform="translate(-287.521 -149.193)" fill="#0875f7"/>
    <path id="Path_6503" data-name="Path 6503" d="M590.238,317.971a.293.293,0,0,1-.287-.246c-2.381-15.472-.026-44.579,0-44.871a.293.293,0,0,1,.58.046c0,.293-2.371,29.328,0,44.733a.293.293,0,0,1-.246.334Z" transform="translate(-299.067 -155.942)" fill="#fff"/>
    <path id="Path_6504" data-name="Path 6504" d="M597.388,318.725a.293.293,0,0,1-.287-.241c-3.11-17.771-3.361-48.438-3.361-48.751a.292.292,0,0,1,.287-.292h0a.292.292,0,0,1,.292.287c0,.308.252,30.923,3.356,48.648a.293.293,0,0,1-.236.339Z" transform="translate(-301.429 -154.396)" fill="#084fc7"/>
    <path id="Path_6505" data-name="Path 6505" d="M586.815,267.16h-.077a9.8,9.8,0,0,1-4.039-2.171.292.292,0,0,1,.405-.416h0a9.386,9.386,0,0,0,3.777,2.027.293.293,0,0,1-.077.575Z" transform="translate(-296.023 -151.998)" fill="#084fc7"/>
    <path id="Path_6506" data-name="Path 6506" d="M632.283,308.977a16.051,16.051,0,0,1-8.8,9.268c-.862-17.017-2.812-36.435-5.332-57.121,0,0,2.653-.467,3.756,1.026a4.213,4.213,0,0,1,.58,1.76,13.684,13.684,0,0,1,2.838.954c1.483.693,1.314,1.642,1.668,4.054s4.08,6.158,5.291,11.2-2,8.277-3,12.521S632.283,308.977,632.283,308.977Z" transform="translate(-313.313 -150.314)" fill="#0875f7"/>
    <path id="Path_6507" data-name="Path 6507" d="M629.106,317.179a.293.293,0,0,1-.293-.282,288.262,288.262,0,0,0-4.942-44.04.293.293,0,1,1,.575-.1,288.873,288.873,0,0,1,4.952,44.132.292.292,0,0,1-.282.3Z" transform="translate(-316.095 -155.883)" fill="#fff"/>
    <path id="Path_6508" data-name="Path 6508" d="M621.365,268.6a.293.293,0,0,1-.051-.58s1.888-.344,2.314-1.693a.293.293,0,0,1,.554.174c-.513,1.693-2.684,2.078-2.771,2.094Z" transform="translate(-314.737 -152.796)" fill="#084fc7"/>
    <path id="Path_6509" data-name="Path 6509" d="M627.43,316.674a.292.292,0,0,1-.287-.257c-2.053-17.068-5.3-44.343-5.327-44.615a.293.293,0,1,1,.58-.067c.031.272,3.274,27.552,5.327,44.615a.293.293,0,0,1-.257.323Z" transform="translate(-315.095 -155.378)" fill="#084fc7"/>
    <path id="Path_6510" data-name="Path 6510" d="M582.273,363.417a16.061,16.061,0,0,0,4.382,1.965c11.905,3.787,22.82-2.325,22.82-2.325.662-3.259.251-6.964-.847-8.318a1.2,1.2,0,0,0,.118-1.057L619.7,342.3c-6.23,5.162-13.938,6.851-19.937,10.479h0c-1.73,1.026-3.284,1.965-4.424,2.6a9.868,9.868,0,0,1-6.132.77,29.9,29.9,0,0,1-8.3-2.674s-13.64-6.2-16.2-5.973C562.716,347.663,573.42,358.839,582.273,363.417Z" transform="translate(-287.175 -189.867)" fill="#21b573"/>
    <path id="Path_6511" data-name="Path 6511" d="M633.59,399.96s-3.51-1.026-4.593-2.15l-2.438,5.742,8.308,2.591S635,401.115,633.59,399.96Z" transform="translate(-317.407 -216.891)" fill="#ea9b7a"/>
    <path id="Path_6512" data-name="Path 6512" d="M658.9,411.766,648.163,387.93a3.654,3.654,0,0,0-1.468.282c-2.083.76-5.014,2.853-6.9,4.105l-.616.4a7.648,7.648,0,0,1-.8.446c-1.658.744-.785,1.637-.785,1.637,3.079,1.539,1.206,6.122,3.079,7.184,0,0,.8.467,3.356,1.591s5.132,3.839,7.508,6.061c3.079,2.874,5,3.207,6.107,2.946a2.053,2.053,0,0,0,1.252-.811Z" transform="translate(-322.671 -212.08)" fill="#ebb12b"/>
    <path id="Path_6513" data-name="Path 6513" d="M667.748,411.766,657.008,387.93a3.654,3.654,0,0,0-1.468.282l10.966,24.345A2.053,2.053,0,0,0,667.748,411.766Z" transform="translate(-331.516 -212.08)" fill="#c77e2e"/>
    <path id="Path_6514" data-name="Path 6514" d="M650.983,392l-.318-.708a5.737,5.737,0,0,1-3.238,3,7.374,7.374,0,0,1-5.9-.359l-.616.4a8.011,8.011,0,0,0,6.717.544A6.342,6.342,0,0,0,650.983,392Z" transform="translate(-324.393 -213.716)" fill="#c77e2e"/>
    <path id="Path_6515" data-name="Path 6515" d="M651.989,416.111a.431.431,0,0,0-.816.257l.3,1.658a.431.431,0,1,0,.847-.154l-.3-1.658A.429.429,0,0,0,651.989,416.111Z" transform="translate(-329.386 -225.678)" fill="#fff"/>
    <path id="Path_6516" data-name="Path 6516" d="M648.279,414.311a.431.431,0,0,0-.816.257l.3,1.658a.431.431,0,1,0,.847-.154l-.3-1.658A.429.429,0,0,0,648.279,414.311Z" transform="translate(-327.58 -224.802)" fill="#fff"/>
    <path id="Path_6517" data-name="Path 6517" d="M654.989,418.252a.431.431,0,0,0-.816.257l.3,1.658a.431.431,0,1,0,.847-.154l-.3-1.658A.428.428,0,0,0,654.989,418.252Z" transform="translate(-330.847 -226.72)" fill="#fff"/>
    <path id="Path_6518" data-name="Path 6518" d="M657.919,420.422a.431.431,0,0,0-.816.257l.3,1.658a.431.431,0,1,0,.847-.154l-.3-1.658A.431.431,0,0,0,657.919,420.422Z" transform="translate(-332.273 -227.776)" fill="#fff"/>
    <path id="Path_6519" data-name="Path 6519" d="M660.839,422.911a.431.431,0,0,0-.816.257l.3,1.658a.431.431,0,1,0,.847-.154l-.3-1.657A.427.427,0,0,0,660.839,422.911Z" transform="translate(-333.695 -228.988)" fill="#fff"/>
    <path id="Path_6520" data-name="Path 6520" d="M663.659,425.762a.431.431,0,0,0-.816.257l.3,1.658a.431.431,0,0,0,.847-.154l-.3-1.658A.428.428,0,0,0,663.659,425.762Z" transform="translate(-335.068 -230.376)" fill="#fff"/>
    <path id="Path_6521" data-name="Path 6521" d="M549.426,350.141s-8.637-4.66-13.635-1.057c-9.145,6.589,6.373,19.259,24.119,25.448s23.518,5.342,23.518,5.342,3.859-1.062,2.489-7.313c0,0-10.233-3.89-15.559-7.964S561.413,355.529,549.426,350.141Z" transform="translate(-271.9 -192.504)" fill="#21b573"/>
    <path id="Path_6522" data-name="Path 6522" d="M600.062,378.439c-3.726-.893-11.29-4.377-20.3-9.309-6.723-3.69-14.471-8.406-15.611-10.043-.616-.883-.77-1.606-.462-2.15.462-.811,1.8-.893,2.4-.888a.272.272,0,0,1,.267.287h0a.267.267,0,0,1-.272.251c-.6,0-1.637.1-1.93.616-.246.431.1,1.093.436,1.57.918,1.319,7.4,5.475,15.426,9.878,6.907,3.792,15.831,8.211,20.162,9.237Z" transform="translate(-286.727 -196.56)" fill="#217c58"/>
    <path id="Path_6523" data-name="Path 6523" d="M630.375,394.382c-.421,3.284-1.273,6.271-3.125,8.565a3.086,3.086,0,0,0,3.043.323c1.108-.626,3.248-5.758,2.432-8.5A2.623,2.623,0,0,0,630.375,394.382Z" transform="translate(-317.743 -215.151)" fill="#217c58"/>
    <path id="Path_6524" data-name="Path 6524" d="M588.6,398.964s3.531-.683,4.531-1.894l2.817,5.568-8.118,3.12S587.29,400.2,588.6,398.964Z" transform="translate(-298.5 -216.53)" fill="#ea9b7a"/>
    <path id="Path_6525" data-name="Path 6525" d="M552.8,413.487l9.124-24.5a3.653,3.653,0,0,1,1.483.185c2.13.621,5.193,2.509,7.154,3.592l.641.349a7.68,7.68,0,0,0,.826.39c1.7.631,1,1.114,1,1.114-3.356,1.575-.9,6.671-2.7,7.851,0,0-.77.513-3.243,1.811s-4.86,4.172-7.087,6.548c-2.874,3.079-4.778,3.536-5.9,3.346A2.054,2.054,0,0,1,552.8,413.487Z" transform="translate(-281.498 -212.59)" fill="#ebb12b"/>
    <path id="Path_6526" data-name="Path 6526" d="M552.8,413.487l9.124-24.5a3.653,3.653,0,0,1,1.483.185L554.088,414.2A2.053,2.053,0,0,1,552.8,413.487Z" transform="translate(-281.498 -212.59)" fill="#c77e2e"/>
    <path id="Path_6527" data-name="Path 6527" d="M568.76,393.179l.272-.729a5.737,5.737,0,0,0,3.433,2.776,7.375,7.375,0,0,0,5.866-.754l.641.349a8.01,8.01,0,0,1-6.671,1A6.342,6.342,0,0,1,568.76,393.179Z" transform="translate(-289.268 -214.281)" fill="#c77e2e"/>
    <path id="Path_6528" data-name="Path 6528" d="M577.883,416.737a.431.431,0,0,1,.831.2l-.19,1.673a.431.431,0,1,1-.857-.1l.19-1.673a.435.435,0,0,1,.026-.1Z" transform="translate(-293.603 -225.969)" fill="#fff"/>
    <path id="Path_6529" data-name="Path 6529" d="M581.473,414.677a.431.431,0,0,1,.831.2l-.19,1.673a.431.431,0,0,1-.857-.1l.19-1.673a.43.43,0,0,1,.026-.1Z" transform="translate(-295.351 -224.967)" fill="#fff"/>
    <path id="Path_6530" data-name="Path 6530" d="M575.043,419.047a.431.431,0,0,1,.831.2l-.19,1.693a.431.431,0,1,1-.857-.1l.19-1.673a.432.432,0,0,1,.026-.123Z" transform="translate(-292.221 -227.094)" fill="#fff"/>
    <path id="Path_6531" data-name="Path 6531" d="M572.263,421.417a.431.431,0,0,1,.831.2l-.19,1.673a.431.431,0,1,1-.857-.1l.19-1.673A.425.425,0,0,1,572.263,421.417Z" transform="translate(-290.867 -228.248)" fill="#fff"/>
    <path id="Path_6532" data-name="Path 6532" d="M569.527,424.087a.431.431,0,0,1,.831.2l-.174,1.673a.431.431,0,1,1-.857-.1l.19-1.673A.427.427,0,0,1,569.527,424.087Z" transform="translate(-289.543 -229.548)" fill="#fff"/>
    <path id="Path_6533" data-name="Path 6533" d="M566.883,427.127a.431.431,0,0,1,.831.2l-.19,1.673a.431.431,0,0,1-.857-.1l.19-1.673a.431.431,0,0,1,.026-.1Z" transform="translate(-288.248 -231.028)" fill="#fff"/>
    <path id="Path_6534" data-name="Path 6534" d="M632.622,341.962s8.17-5.434,13.481-2.3c9.714,5.722-4.578,19.762-21.692,27.552s-22.928,7.477-22.928,7.477-3.936-.7-3.151-7.056c0,0,9.832-4.813,14.764-9.36S621.2,348.423,632.622,341.962Z" transform="translate(-303.614 -188.107)" fill="#21b573"/>
    <path id="Path_6535" data-name="Path 6535" d="M621.856,400c-.944.308-1.9.621-2.889.934-3.828,1.206-8.211,2.468-12.157,3.438v.564c3.592-.872,7.769-2.053,12.316-3.49.893-.282,1.8-.575,2.715-.878Z" transform="translate(-307.792 -217.957)" fill="#217c58"/>
    <path id="Path_6536" data-name="Path 6536" d="M599.945,374.364c3.628-1.232,10.864-5.393,19.357-11.131,6.353-4.29,13.64-9.7,14.62-11.433.513-.934.621-1.668.262-2.181-.513-.765-1.868-.729-2.473-.667a.272.272,0,0,0-.241.313h0a.267.267,0,0,0,.292.226c.6-.056,1.637-.051,1.981.436.282.405,0,1.1-.287,1.606-.79,1.4-6.871,6.127-14.456,11.254-6.528,4.408-15.01,9.632-19.228,11.069Z" transform="translate(-304.365 -193.091)" fill="#217c58"/>
    <path id="Path_6537" data-name="Path 6537" d="M598.745,393.154c.718,3.233,1.842,6.127,3.9,8.241a3.086,3.086,0,0,1-3,.6c-1.16-.513-3.762-5.44-3.2-8.242A2.617,2.617,0,0,1,598.745,393.154Z" transform="translate(-302.709 -214.579)" fill="#217c58"/>
    <path id="Path_6538" data-name="Path 6538" d="M572.605,308.16l-.657,9.381s-11.151-1.591-16.622-2.987a22.471,22.471,0,0,1-5.024-1.8c-3.023-1.606-5.527-4.4-5.342-9.853a24.973,24.973,0,0,1,1.083-6.122A126.556,126.556,0,0,1,556.7,271.73c8.585,3.674,7.862,9.791,7.862,9.791-2.448,6.533-7.862,20.445-7.862,20.445C559.858,305.8,572.605,308.16,572.605,308.16Z" transform="translate(-277.678 -155.511)" fill="#0875f7"/>
    <path id="Path_6539" data-name="Path 6539" d="M564.106,328.732a.293.293,0,0,1-.154-.046,17.719,17.719,0,0,0-3.556-1.2.293.293,0,1,1,.133-.57,23.229,23.229,0,0,1,3.079.96,5.2,5.2,0,0,0-.857-1.257.292.292,0,1,1,.436-.385,4.5,4.5,0,0,1,1.185,2.16.292.292,0,0,1-.287.339Z" transform="translate(-285.086 -181.984)" fill="#084fc7"/>
    <path id="Path_6540" data-name="Path 6540" d="M550.3,342.323c-3.023-1.606-5.527-4.4-5.342-9.853C547.357,333.722,551.529,336.755,550.3,342.323Z" transform="translate(-277.678 -185.081)" fill="#084fc7"/>
    <path id="Path_6541" data-name="Path 6541" d="M576.466,316.747h-.072a22.99,22.99,0,0,1-9.016-4.531.292.292,0,0,1-.067-.349c3.936-7.744,6.43-13.891,7.841-19.352a.293.293,0,0,1,.565.144c-1.411,5.455-3.885,11.577-7.785,19.264a23.257,23.257,0,0,0,8.606,4.254.293.293,0,0,1-.072.575Z" transform="translate(-288.548 -165.535)" fill="#084fc7"/>
    <path id="Path_6542" data-name="Path 6542" d="M580.6,298.174a.293.293,0,0,1-.226-.472l2.053-2.566a.292.292,0,0,1,.457.364l-2.053,2.566a.292.292,0,0,1-.231.108Z" transform="translate(-294.891 -166.858)" fill="#084fc7"/>
    <path id="Path_6543" data-name="Path 6543" d="M593.207,231.674l9.9,1.416c6.435-.641,8.483-3.2,9.535-8.611a14.652,14.652,0,0,0-.339-6.907,8.777,8.777,0,0,0-1.54-4.947c-4.346-5.239-8.175-5.034-8.175-5.034a11.628,11.628,0,0,0-12.609,3.643h0c-.133.113-2.72,2.853-3.315,8.6C586.074,225.321,589.733,232.321,593.207,231.674Z" transform="translate(-297.956 -123.994)" fill="#39393b"/>
    <path id="Path_6544" data-name="Path 6544" d="M597.755,203.338s1.026-9.134-7.077-7.975c-5.3.754-8.575,7.934-3.731,11.192S597.755,203.338,597.755,203.338Z" transform="translate(-296.972 -118.283)" fill="#39393b"/>
    <path id="Path_6545" data-name="Path 6545" d="M590.526,212.808a.257.257,0,0,1-.226-.38,11.711,11.711,0,0,1,6.471-5.588,10.587,10.587,0,0,1,3.761-.631.257.257,0,1,1-.031.513,11.1,11.1,0,0,0-9.75,5.953.257.257,0,0,1-.226.133Z" transform="translate(-299.74 -123.612)" fill="#ebb12b"/>
    <path id="Path_6546" data-name="Path 6546" d="M596.032,231.072s-6.317-3.536-5.075-10.895,6.086-11.8,13.512-9.653C604.458,210.5,603.729,231.8,596.032,231.072Z" transform="translate(-299.996 -125.45)" fill="#39393b"/>
    <path id="Path_6547" data-name="Path 6547" d="M632.572,224.71s.647,6.317-.513,7.231-2.279-1.586-2.279-1.586S631.355,224.782,632.572,224.71Z" transform="translate(-318.975 -132.62)" fill="#39393b"/>
    <path id="Path_6548" data-name="Path 6548" d="M629.1,239.318s1.883-1.652,2.509.375-.641,5.758-2.987,4.767Z" transform="translate(-318.41 -139.422)" fill="#d46a43"/>
    <path id="Path_6549" data-name="Path 6549" d="M628.159,241.056a4.271,4.271,0,0,1-.857.611,4.715,4.715,0,0,1-4.588-.262s-2.376-3.079,1.134-8.539c0,0,3.218-.847,5.06,1.1a3.778,3.778,0,0,1,.554.749,4.291,4.291,0,0,1,.272.57A5.717,5.717,0,0,1,628.159,241.056Z" transform="translate(-315.152 -136.501)" fill="#21b573"/>
    <path id="Path_6550" data-name="Path 6550" d="M633.243,231.267a26.394,26.394,0,0,0,.4-2.633.41.41,0,0,1-.144.036.888.888,0,0,1-.59-.21c-.087.934-.221,1.781-.354,2.484Z" transform="translate(-320.323 -134.445)" fill="#fff"/>
    <path id="Path_6551" data-name="Path 6551" d="M633.257,242.277a4.272,4.272,0,0,1-.857.611,16.169,16.169,0,0,0,1.606-7.7,3.777,3.777,0,0,1,.554.749A16.611,16.611,0,0,1,633.257,242.277Z" transform="translate(-320.25 -137.722)" fill="#217c58"/>
    <path id="Path_6552" data-name="Path 6552" d="M608.062,253.605l-.775,5.224s-3.2,4.105-10.6-2.566c.842-2.125,2.135-4.86,1.8-6.953a11.578,11.578,0,0,0,1.473,1.088l.611.38C602.494,251.922,605.429,253.42,608.062,253.605Z" transform="translate(-302.866 -144.596)" fill="#ea9b7a"/>
    <path id="Path_6553" data-name="Path 6553" d="M611.163,254.613l-.364,2.443c-2.16-.831-5.9-2.633-7.739-5.676l.611.38C605.595,252.93,608.53,254.428,611.163,254.613Z" transform="translate(-305.967 -145.604)" fill="#39393b"/>
    <path id="Path_6554" data-name="Path 6554" d="M616.795,228.3q-.123.811-.241,1.539c-.6,3.592-1.139,5.542-2.14,6.312-5.065,3.885-13.994-2.982-14.281-3.2h0c-.031-.421-.051-.836-.062-1.242a32.124,32.124,0,0,1,1.1-9.54,7.266,7.266,0,0,1,5.722-6.451c3.228-.657,5.773,1.1,7.349,1.847,2.376,1.139,3.464,4.593,2.8,9.181C616.959,227.275,616.872,227.8,616.795,228.3Z" transform="translate(-304.502 -128.17)" fill="#ea9b7a"/>
    <path id="Path_6555" data-name="Path 6555" d="M620.069,245.613a4.554,4.554,0,0,1-3.977-2.74.258.258,0,1,1,.477-.2h0a3.885,3.885,0,0,0,4.326,2.335.261.261,0,1,1,.1.513,4.891,4.891,0,0,1-.924.087Z" transform="translate(-312.302 -141.289)" fill="#39393b"/>
    <path id="Path_6556" data-name="Path 6556" d="M616,228.157a.708.708,0,0,0-.19-1.375c-1.309-.087-3.413-.051-3.592,1.026-.257,1.539,2.186.9,3.731.385Z" transform="translate(-310.418 -133.614)" fill="#39393b"/>
    <path id="Path_6557" data-name="Path 6557" d="M626.929,229.22a.708.708,0,0,1,.729-1.18c1.232.452,3.146,1.329,2.879,2.366-.385,1.54-2.366-.056-3.592-1.15Z" transform="translate(-317.479 -134.22)" fill="#39393b"/>
    <path id="Path_6558" data-name="Path 6558" d="M618.961,250.288a2.248,2.248,0,0,0,.985,0,.171.171,0,1,0-.077-.334h0a1.822,1.822,0,0,1-1.5-.375.171.171,0,0,0-.226.257A1.925,1.925,0,0,0,618.961,250.288Z" transform="translate(-313.282 -144.706)" fill="#d46a43"/>
    <path id="Path_6559" data-name="Path 6559" d="M623.141,240.5a.19.19,0,0,1,0-.349l1.237-.405-.734-.744a.19.19,0,0,1-.051-.154l.226-2.053a.19.19,0,0,1,.375.041l-.221,1.955.883.893a.19.19,0,0,1-.077.313l-1.539.513A.19.19,0,0,1,623.141,240.5Z" transform="translate(-315.687 -138.43)" fill="#39393b"/>
    <ellipse id="Ellipse_736" data-name="Ellipse 736" cx="0.78" cy="1.976" rx="0.78" ry="1.976" transform="translate(300.249 100.312) rotate(-81.53)" fill="#d46a43"/>
    <g id="Group_445" data-name="Group 445" transform="translate(310.401 100.595)" opacity="0.8">
      <path id="Path_6560" data-name="Path 6560" d="M630.885,241.313q-.123.811-.241,1.54c-.985-.185-1.709-.631-1.647-1.026S629.884,241.2,630.885,241.313Z" transform="translate(-628.993 -241.284)" fill="#d46a43"/>
    </g>
    <ellipse id="Ellipse_737" data-name="Ellipse 737" cx="1.067" cy="0.595" rx="1.067" ry="0.595" transform="translate(303.99 99.483) rotate(-81.53)" fill="#39393b"/>
    <ellipse id="Ellipse_738" data-name="Ellipse 738" cx="1.067" cy="0.595" rx="1.067" ry="0.595" transform="translate(309.762 100.344) rotate(-81.53)" fill="#39393b"/>
    <path id="Path_6561" data-name="Path 6561" d="M602.4,245.35a5.34,5.34,0,0,1-2.253,2.083h0c-.031-.421-.051-.836-.062-1.242A4.516,4.516,0,0,0,602.4,245.35Z" transform="translate(-304.521 -142.668)" fill="#39393b"/>
    <path id="Path_6562" data-name="Path 6562" d="M599.333,235.237s-1.868-3.479-3.941-1.273c-1.709,1.817.138,7.615,3.284,6.066Z" transform="translate(-301.917 -136.769)" fill="#ea9b7a"/>
    <path id="Path_6563" data-name="Path 6563" d="M599.878,240.553a.241.241,0,0,1-.205-.251,4.054,4.054,0,0,0-1.847-3.592.244.244,0,1,1,.246-.421,4.542,4.542,0,0,1,2.089,4.018.241.241,0,0,1-.252.231Z" transform="translate(-303.36 -138.24)" fill="#39393b"/>
    <path id="Path_6564" data-name="Path 6564" d="M597.8,240.329a.241.241,0,0,1-.087-.446,2.337,2.337,0,0,1,1.76-.323.243.243,0,1,1-.19.446c-.4-.169-1.108.164-1.324.292A.241.241,0,0,1,597.8,240.329Z" transform="translate(-303.308 -139.808)" fill="#39393b"/>
    <path id="Path_6565" data-name="Path 6565" d="M612.833,236.842a3.546,3.546,0,1,1,4.577-2.053A3.546,3.546,0,0,1,612.833,236.842Zm2.345-6.158a2.193,2.193,0,1,1-.021.015Z" transform="translate(-309.613 -135.186)" fill="#fff"/>
    <path id="Path_6566" data-name="Path 6566" d="M607.221,234.429a.256.256,0,0,1-.092,0,5.26,5.26,0,0,0-3.741-.2.258.258,0,0,1-.185-.482,5.717,5.717,0,0,1,4.141.216.264.264,0,0,1-.123.513Z" transform="translate(-305.955 -136.878)" fill="#fff"/>
    <path id="Path_6567" data-name="Path 6567" d="M628.083,238.572a3.546,3.546,0,1,1,4.578-2.053A3.546,3.546,0,0,1,628.083,238.572Zm2.345-6.158a22.32,22.32,0,1,1,.005.015Z" transform="translate(-317.037 -136.028)" fill="#fff"/>
    <path id="Path_6568" data-name="Path 6568" d="M623.437,235.8a.257.257,0,0,1,0-.446,1.6,1.6,0,0,1,1.8.139.258.258,0,1,1-.313.411,1.088,1.088,0,0,0-1.206-.113A.257.257,0,0,1,623.437,235.8Z" transform="translate(-315.823 -137.7)" fill="#fff"/>
    <path id="Path_6569" data-name="Path 6569" d="M614.549,212.147a8.508,8.508,0,0,1,4.619,5c.472,1.4.867,3.253-1.1,3.012-5.393-.652-8.267-6.23-8.267-6.23s-1.026,5.132-5.27,4.516-4.105-3.813-1.688-5.614C604.789,211.362,609.772,209.987,614.549,212.147Z" transform="translate(-305.037 -125.959)" fill="#39393b"/>
    <path id="Path_6570" data-name="Path 6570" d="M604.081,223.767s-2.4,2.566-1.539,5.357.919,5,0,6.5a16.935,16.935,0,0,0-1.3-5.132c-.877-1.822-1.7-3.207-1.062-5.306C600.648,223.731,601.7,222.351,604.081,223.767Z" transform="translate(-304.453 -131.872)" fill="#39393b"/>
    <path id="Path_6571" data-name="Path 6571" d="M594.017,239.05a5.518,5.518,0,0,1-4.372-.482,4.614,4.614,0,0,1-.482-.349,6.22,6.22,0,0,1-1.026-7.662,4.362,4.362,0,0,1,1.632-1.411,3.785,3.785,0,0,1,.539-.221,6.878,6.878,0,0,1,4.824.631C597.748,236.776,594.017,239.05,594.017,239.05Z" transform="translate(-298.274 -134.561)" fill="#21b573"/>
    <path id="Path_6572" data-name="Path 6572" d="M605.7,249.6a12.065,12.065,0,0,1-7.867-5.224.314.314,0,0,1,.544-.313,11.916,11.916,0,0,0,9.463,5.173.316.316,0,0,1-.036.631,14.466,14.466,0,0,1-2.1-.267Z" transform="translate(-303.4 -141.964)" fill="#fff"/>
    <circle id="Ellipse_739" data-name="Ellipse 739" cx="1.011" cy="1.011" r="1.011" transform="translate(303.983 108.41) rotate(-78.45)" fill="#243434"/>
    <path id="Path_6573" data-name="Path 6573" d="M591.452,238.792a4.609,4.609,0,0,1-.482-.349,12.974,12.974,0,0,0,.6-9.073,3.777,3.777,0,0,1,.539-.221A13.6,13.6,0,0,1,591.452,238.792Z" transform="translate(-300.081 -134.781)" fill="#217c58"/>
    <path id="Path_6574" data-name="Path 6574" d="M616.213,212.931A8.674,8.674,0,0,0,615,211.222a8.084,8.084,0,0,0-.775-1.719,7.319,7.319,0,0,0-5.363-3.289,8.506,8.506,0,0,0-6.738,1.54,9.548,9.548,0,0,0-1.54,1.514,13.37,13.37,0,0,0-1.6,2.489,20.641,20.641,0,0,0-1.863,6.117l-.713-.077c.031-.293.836-7.184,5.286-10.617a9.238,9.238,0,0,1,7.287-1.673,8.022,8.022,0,0,1,5.86,3.592A10.381,10.381,0,0,1,616.213,212.931Z" transform="translate(-302.729 -123.201)" fill="#fff"/>
    <path id="Path_6575" data-name="Path 6575" d="M579.675,367.087l-2.484-4.721a1.755,1.755,0,0,1,1.575-2.566l39,.421-1.149,6.045Z" transform="translate(-293.276 -198.386)" fill="#39393b"/>
    <path id="Path_6576" data-name="Path 6576" d="M618.516,348.052h-34.9a1.339,1.339,0,0,1-1.355-1.54l2.381-21.553a1.75,1.75,0,0,1,1.693-1.54h34.9a1.339,1.339,0,0,1,1.355,1.54l-2.381,21.553A1.75,1.75,0,0,1,618.516,348.052Z" transform="translate(-295.836 -180.675)" fill="#39393b"/>
    <path id="Path_6577" data-name="Path 6577" d="M583.59,350.765h-.036a.292.292,0,0,1-.256-.328l2.9-23.093a.295.295,0,1,1,.585.072l-2.9,23.092A.292.292,0,0,1,583.59,350.765Z" transform="translate(-296.345 -182.46)" fill="#564c54"/>
    <path id="Path_6578" data-name="Path 6578" d="M616.989,345.386a3.079,3.079,0,0,0,2.848,3.336,3.171,3.171,0,0,0,3.336-2.94,3.079,3.079,0,0,0-2.848-3.336,3.171,3.171,0,0,0-3.336,2.94Z" transform="translate(-312.742 -189.935)" fill="#585859"/>
    <path id="Path_6579" data-name="Path 6579" d="M618.44,371.356H583.031a1.283,1.283,0,0,1-1.273-1.457l.339-2.468h37.974l-.385,2.812a1.283,1.283,0,0,1-1.247,1.114Z" transform="translate(-295.591 -202.101)" fill="#39393b"/>
    <path id="Path_6580" data-name="Path 6580" d="M597.778,358.847l-.257,1.232h1.149l-.128,1.468h-1.35l-.282,1.339h-1.54l.282-1.339H594.7l-.282,1.339h-1.54l.282-1.339H592l.128-1.468h1.35l.257-1.232H592.57l.128-1.468h1.355l.282-1.339h1.539l-.282,1.339h.954l.282-1.339h1.539l-.282,1.339h1.165l-.128,1.463Zm-1.539,0h-.954l-.257,1.232h.954Z" transform="translate(-300.582 -196.556)" fill="#ebb12b"/>
    <circle id="Ellipse_740" data-name="Ellipse 740" cx="9.632" cy="9.632" r="9.632" transform="translate(332.466 118.564)" fill="#df615c"/>
    <path id="Path_6581" data-name="Path 6581" d="M676.253,307.226l-5.173,1.093,2.243-4.459Z" transform="translate(-339.081 -171.153)" fill="#df615c"/>
    <path id="Path_6582" data-name="Path 6582" d="M687.565,287.831c0-.452-.436-.683-.975-.683a1.714,1.714,0,0,0-1.514.99l-2.566-1.293a4.753,4.753,0,0,1,4.542-2.355c2.33,0,3.987.96,3.987,2.781,0,2.227-2.33,2.617-2.33,3.741h-3.023C685.686,289.262,687.565,288.739,687.565,287.831Zm-2.3,5.47a1.929,1.929,0,1,1,1.922,1.757A1.935,1.935,0,0,1,685.266,293.3Z" transform="translate(-344.645 -161.723)" fill="#fff"/>
    <path id="Path_6583" data-name="Path 6583" d="M462.535,376.132s-3.936-6.158-13.486-11.8c-6.764-3.962-10.679-15.169-10.679-15.169s12.927.564,18.546,8.431S462.535,376.132,462.535,376.132Z" transform="translate(-225.79 -193.206)" fill="#21b573"/>
    <path id="Path_6584" data-name="Path 6584" d="M471.069,382.918a.2.2,0,0,1-.185-.144A32.843,32.843,0,0,0,462.063,368a32.375,32.375,0,0,0-6.158-4.834.193.193,0,1,1,.185-.339,32.794,32.794,0,0,1,6.25,4.9,33.217,33.217,0,0,1,8.914,14.974.2.2,0,0,1-.139.236Z" transform="translate(-234.278 -199.849)" fill="#39393b"/>
    <path id="Path_6585" data-name="Path 6585" d="M460.326,393.836s-1.124-2.248-6.158-1.688-7.867,3.371-16.858-1.688c0,0,6.743-5.645,14.051-4.5S459.217,389.9,460.326,393.836Z" transform="translate(-225.274 -211.048)" fill="#21b573"/>
    <path id="Path_6586" data-name="Path 6586" d="M466.009,397a.19.19,0,0,1-.164-.092c0-.036-2.284-3.592-5.922-4.254a18.983,18.983,0,0,0-10.73.9.195.195,0,0,1-.169-.349,19.593,19.593,0,0,1,10.966-.929c3.808.693,6.086,4.275,6.158,4.429a.195.195,0,0,1-.164.293Z" transform="translate(-230.932 -214.019)" fill="#39393b"/>
    <path id="Path_6587" data-name="Path 6587" d="M485.269,384.757s-.441-2.473,3.951-5.044,8.324-2,12.516-11.423c0,0-8.765-.482-13.953,4.783S483.822,380.928,485.269,384.757Z" transform="translate(-248.011 -202.513)" fill="#21b573"/>
    <path id="Path_6588" data-name="Path 6588" d="M486.228,388.246a.2.2,0,0,1-.19-.175c0-.18-.328-4.413,2.314-7.241a19.409,19.409,0,0,1,9.35-5.8.193.193,0,0,1,.072.38,18.92,18.92,0,0,0-9.145,5.686c-2.525,2.7-2.217,6.907-2.212,6.948a.2.2,0,0,1-.174.205Z" transform="translate(-248.99 -205.797)" fill="#39393b"/>
    <rect id="Rectangle_1155" data-name="Rectangle 1155" width="14.959" height="3.197" rx="1.599" transform="translate(228.796 182.1)" fill="#df615c"/>
    <path id="Path_6589" data-name="Path 6589" d="M469.953,432.8c-10.048,0-16.421-1.6-15.4-8.678.652-4.49,4.157-8.893,6.63-11.51.349-.369.677-.7.97-1,.919-.9,1.539-1.427,1.539-1.427l.031-.164.174-1,.2-1.144.462-2.612.159-.913,5.255-.231,5.481.231.123.913.2,1.432.318,2.32.139,1v.164s.621.513,1.54,1.427c.3.293.626.626.975,1,2.473,2.617,5.978,7.015,6.63,11.51C486.394,431.189,480,432.8,469.953,432.8Z" transform="translate(-233.618 -219.967)" fill="#df615c"/>
    <path id="Path_6590" data-name="Path 6590" d="M484.981,414.656H472.47l.174-1h12.2Z" transform="translate(-242.391 -224.607)" fill="#a92f4b"/>
    <path id="Path_6591" data-name="Path 6591" d="M485.106,419.686H467.53c.349-.369.677-.7.97-1h15.631C484.429,418.988,484.757,419.321,485.106,419.686Z" transform="translate(-239.986 -227.056)" fill="#a92f4b"/>
    <path id="Path_6592" data-name="Path 6592" d="M484.885,407.777l-11.675,1.175.462-2.612H484.69Z" transform="translate(-242.751 -221.043)" fill="#a92f4b"/>
    <rect id="Rectangle_1156" data-name="Rectangle 1156" width="6.445" height="4.973" rx="1.66" transform="translate(127.83 114.331)" fill="#fff"/>
    <path id="Path_6593" data-name="Path 6593" d="M287.516,268.05v4.973l-2.006-1.688v-1.6Z" transform="translate(-151.373 -153.719)" fill="#fff"/>
    <circle id="Ellipse_741" data-name="Ellipse 741" cx="4.141" cy="4.141" r="4.141" transform="translate(140.659 112.678)" fill="#dd615c"/>
    <path id="Path_6594" data-name="Path 6594" d="M302.067,273a.431.431,0,0,0,.308-.128l3.905-3.905a.436.436,0,1,0-.616-.616l-3.905,3.905a.436.436,0,0,0,.308.744Z" transform="translate(-159.222 -153.795)" fill="#fff"/>
    <path id="Path_6595" data-name="Path 6595" d="M305.954,273a.436.436,0,0,0,.308-.744l-3.905-3.905a.436.436,0,1,0-.616.616l3.905,3.905A.431.431,0,0,0,305.954,273Z" transform="translate(-159.204 -153.794)" fill="#fff"/>
    <rect id="Rectangle_1157" data-name="Rectangle 1157" width="2.278" height="5.937" rx="1.139" transform="translate(122.688 118.919) rotate(180)" fill="#fff"/>
    <rect id="Rectangle_1158" data-name="Rectangle 1158" width="0.467" height="2.786" rx="0.233" transform="translate(121.78 120.325) rotate(180)" fill="#fff"/>
    <rect id="Rectangle_1159" data-name="Rectangle 1159" width="4.577" height="0.98" rx="0.49" transform="translate(123.838 120.54) rotate(180)" fill="#fff"/>
    <path id="Path_6596" data-name="Path 6596" d="M215.842,239.918a4.762,4.762,0,0,0-4.218-4.141,16.632,16.632,0,0,0-5.234.1,4.966,4.966,0,0,0-1.139.4l.087.4c1.2-.641,3.341-.821,6.24-.513a4.444,4.444,0,0,1,2.443,1.078,4.3,4.3,0,0,1,1.35,2.237,3.781,3.781,0,0,1,.082.482,2.8,2.8,0,0,1,0,.287l.39-.108A.749.749,0,0,0,215.842,239.918Zm-8.791.149a6.952,6.952,0,0,1-.862.513l.082.4a7.749,7.749,0,0,0,1.026-.616c1.663-1.2,2.756-.205,3.921.852l.154.144.446-.123-.339-.308c-1.18-1.062-2.509-2.268-4.429-.883Z" transform="translate(-112.3 -137.929)" fill="#a92f4b"/>
  </g>
</svg>
