<svg id="teacher_standing_svg" xmlns="http://www.w3.org/2000/svg" xmlns:xlink="http://www.w3.org/1999/xlink" width="259.635" height="147.891" viewBox="0 0 259.635 147.891">
  <defs>
    <clipPath id="clip-path">
      <path id="_Clipping_Path_" data-name="&lt;Clipping Path&gt;" d="M126.45,94.292s.895-2.192,3.661-.134A2.433,2.433,0,0,1,126.45,94.292Z" transform="translate(-126.45 -93.277)" fill="#fff"/>
    </clipPath>
    <clipPath id="clip-path-2">
      <path id="_Clipping_Path_2" data-name="&lt;Clipping Path&gt;" d="M116.694,92.768s-.585-2.371-2.434-1.04C114.26,91.731,114.927,93.994,116.694,92.768Z" transform="translate(-114.26 -91.322)" fill="#fff"/>
    </clipPath>
    <clipPath id="clip-path-3">
      <path id="_Clipping_Path_3" data-name="&lt;Clipping Path&gt;" d="M590.39,123.46s10.065,8.049,13.077,18.569c0,0,1.118-12.936-5.651-20.757l-4.365-.052Z" transform="translate(-590.39 -121.22)" fill="#fff"/>
    </clipPath>
    <clipPath id="clip-path-4">
      <path id="_Clipping_Path_4" data-name="&lt;Clipping Path&gt;" d="M603.967,85.419s-.578-2.218-3.5-.6A2.187,2.187,0,0,0,603.967,85.419Z" transform="translate(-600.47 -84.229)" fill="#fff"/>
    </clipPath>
    <clipPath id="clip-path-5">
      <path id="_Clipping_Path_5" data-name="&lt;Clipping Path&gt;" d="M615.75,85.311s.865-2.2,2.472-.682A1.413,1.413,0,0,1,615.75,85.311Z" transform="translate(-615.75 -84.094)" fill="#fff"/>
    </clipPath>
    <clipPath id="clip-path-6">
      <path id="_Clipping_Path_6" data-name="&lt;Clipping Path&gt;" d="M293.857,84.448s-.619-2.27-3.6-.57A2.247,2.247,0,0,0,293.857,84.448Z" transform="translate(-290.26 -83.246)" fill="#fff"/>
    </clipPath>
    <clipPath id="clip-path-7">
      <path id="_Clipping_Path_7" data-name="&lt;Clipping Path&gt;" d="M306.27,84.429s.861-2.27,2.528-.746A1.449,1.449,0,0,1,306.27,84.429Z" transform="translate(-306.27 -83.157)" fill="#fff"/>
    </clipPath>
    <clipPath id="clip-path-8">
      <path id="_Clipping_Path_8" data-name="&lt;Clipping Path&gt;" d="M444.441,96.5s-.615-2.237-3.571-.567A2.415,2.415,0,0,0,444.441,96.5Z" transform="translate(-440.87 -95.319)" fill="#fff"/>
    </clipPath>
    <clipPath id="clip-path-9">
      <path id="_Clipping_Path_9" data-name="&lt;Clipping Path&gt;" d="M456.47,96.243s.857-2.237,2.509-.746C458.979,95.516,458.058,97.656,456.47,96.243Z" transform="translate(-456.47 -94.985)" fill="#fff"/>
    </clipPath>
  </defs>
  <g id="OBJECTS" transform="translate(0 0)">
    <path id="Path_6597" data-name="Path 6597" d="M92.573,427.51s1.409-.052,1.342,2.632,0,6.647,0,6.647H92.573v-4.641l-4.026,4.638H74.72s.746-2.55,7.251-2.483Z" transform="translate(-55.519 -289.269)" fill="#1f0c07"/>
    <path id="Path_6598" data-name="Path 6598" d="M103.781,418.246V414.8L98.4,412.74l.805,5.506L92.59,425.1h3.042a5.708,5.708,0,0,0,3.847-1.491A18.739,18.739,0,0,0,103.781,418.246Z" transform="translate(-66.727 -280.005)" fill="#e9b089"/>
    <path id="Path_6599" data-name="Path 6599" d="M95.518,201.08s-4.846,11.754-2.188,44.735,3.478,37.249,3.478,37.249l8.775-.138-2.065-81.846Z" transform="translate(-66.692 -147.249)" fill="#294286"/>
    <path id="Path_6600" data-name="Path 6600" d="M176.408,427.51s-1.409-.052-1.342,2.632,0,6.647,0,6.647h1.342v-4.641l4.026,4.638h13.827s-.746-2.55-7.251-2.483Z" transform="translate(-118.456 -289.269)" fill="#1f0c07"/>
    <path id="Path_6601" data-name="Path 6601" d="M172.856,411.679l-3.456-7.351,5.379-2.058,2.651,9.409,6.613,6.852H181a5.708,5.708,0,0,1-3.847-1.491A18.666,18.666,0,0,1,172.856,411.679Z" transform="translate(-114.903 -273.438)" fill="#e9b089"/>
    <path id="Path_6602" data-name="Path 6602" d="M114.342,201.061s2.572,6.882,7.124,23c4.943,17.521,14.591,58.848,14.591,58.848l-9.379.492-25.9-76.012,2.479-6.337Z" transform="translate(-71.864 -147.23)" fill="#294286"/>
    <path id="Path_6603" data-name="Path 6603" d="M123.57,288.88" transform="translate(-86.158 -202.318)" fill="none" stroke="#1e0b02" stroke-linecap="round" stroke-linejoin="round" stroke-width="0.71"/>
    <line id="Line_395" data-name="Line 395" x1="4.854" y1="13.86" transform="translate(32.782 71.393)" fill="none" stroke="#000" stroke-linecap="round" stroke-linejoin="round" stroke-width="0.46"/>
    <path id="Path_6604" data-name="Path 6604" d="M117.874,83.31a13.447,13.447,0,0,1,.69,7.3c-.746,4.362,4.063,3.94,3.489,8.164,0,0-13.618,4.045-26.2-4.157,0,0-.861-3.728,1.767-4.637a7.631,7.631,0,0,0,4.611-5.062Z" transform="translate(-68.689 -73.383)"/>
    <ellipse id="Ellipse_742" data-name="Ellipse 742" cx="7.583" cy="8.168" rx="7.583" ry="8.168" transform="translate(32.509 19.048) rotate(-82.25)"/>
    <path id="Path_6605" data-name="Path 6605" d="M126.556,107.25l-.168,12.444-6-.8,1.853-10.923Z" transform="translate(-84.164 -88.398)" fill="#e9b089"/>
    <path id="Path_6606" data-name="Path 6606" d="M122.46,116.848l4.664-3.456-3.7-2.132Z" transform="translate(-85.462 -90.913)" fill="#d7896d"/>
    <path id="Path_6607" data-name="Path 6607" d="M113.574,98.231a6.106,6.106,0,0,0-.35-2.289c-.373-1.021-1.007-2.035-2.237-1.651-2.065.656-.574,4.078,1.383,4.6a.889.889,0,0,0,1.182-.664Z" transform="translate(-77.642 -80.217)" fill="#d7896d"/>
    <path id="Path_6608" data-name="Path 6608" d="M123.221,74.158a9.092,9.092,0,0,0-4.19-.746,5.389,5.389,0,0,0-5.282,4.4c-1.286,5.67-1,9.432,1.491,11.37,1.737,1.357,3.676,1.491,6.378.373a7.517,7.517,0,0,0,2.9-3.288l1.152-2.952S129.524,76.838,123.221,74.158Z" transform="translate(-79.527 -67.164)" fill="#e9b089"/>
    <path id="Path_6609" data-name="Path 6609" d="M120.744,98.61l-.854,1.2.645.418" transform="translate(-83.85 -82.979)" fill="none" stroke="#000" stroke-linecap="round" stroke-linejoin="round" stroke-width="0.45"/>
    <path id="Path_6610" data-name="Path 6610" d="M116.977,83.935s.16.6-.746.589a7.945,7.945,0,0,0-1.491.063.555.555,0,0,1-.57-.22h0a.313.313,0,0,1,.052-.41,2.266,2.266,0,0,1,1.569-.559C116.846,83.4,116.977,83.935,116.977,83.935Z" transform="translate(-80.229 -73.437)"/>
    <path id="Path_6611" data-name="Path 6611" d="M128.51,84.831s-.373.526.854.8a19.8,19.8,0,0,1,2.535.816.973.973,0,0,0,.831-.037h0a.25.25,0,0,0,.034-.41,6.02,6.02,0,0,0-2.49-1.312C128.827,84.357,128.51,84.831,128.51,84.831Z" transform="translate(-89.223 -74.173)"/>
    <path id="_Clipping_Path_10" data-name="&lt;Clipping Path&gt;" d="M126.45,94.292s.895-2.192,3.661-.134A2.433,2.433,0,0,1,126.45,94.292Z" transform="translate(-87.965 -79.634)" fill="#fff"/>
    <g id="Group_446" data-name="Group 446" transform="translate(38.485 13.643)" clip-path="url(#clip-path)">
      <ellipse id="Ellipse_743" data-name="Ellipse 743" cx="0.973" cy="0.943" rx="0.973" ry="0.943" transform="matrix(0.251, -0.968, 0.968, 0.251, 0.511, 1.659)"/>
    </g>
    <path id="Path_6612" data-name="Path 6612" d="M129.953,94.061a3.008,3.008,0,0,0-.854-.548,3.247,3.247,0,0,0-.977-.261,1.92,1.92,0,0,0-.962.164,1.234,1.234,0,0,0-.619.678h0a.138.138,0,1,1-.261-.086h0a1.491,1.491,0,0,1,.775-.816,2.133,2.133,0,0,1,1.081-.149,3.426,3.426,0,0,1,1.025.309,3.154,3.154,0,0,1,.88.6.069.069,0,0,1-.089.1Z" transform="translate(-87.851 -79.478)"/>
    <path id="_Clipping_Path_11" data-name="&lt;Clipping Path&gt;" d="M116.694,92.768s-.585-2.371-2.434-1.04C114.26,91.731,114.927,93.994,116.694,92.768Z" transform="translate(-80.319 -78.408)" fill="#fff"/>
    <g id="Group_447" data-name="Group 447" transform="translate(33.941 12.914)" clip-path="url(#clip-path-2)">
      <ellipse id="Ellipse_744" data-name="Ellipse 744" cx="0.701" cy="0.887" rx="0.701" ry="0.887" transform="translate(0.451 0.03) rotate(-1.68)"/>
    </g>
    <path id="Path_6613" data-name="Path 6613" d="M114.15,91.56a1.3,1.3,0,0,1,.582-.4,1.118,1.118,0,0,1,.373-.052,1.073,1.073,0,0,1,.373.063h0a1.644,1.644,0,0,1,.8.5,2.1,2.1,0,0,1,.272.373,2.137,2.137,0,0,1,.183.444.116.116,0,1,1-.224.063h0a1.953,1.953,0,0,0-.373-.746,1.454,1.454,0,0,0-.313-.287,1.469,1.469,0,0,0-.373-.186h0a.984.984,0,0,0-.615-.03,1.182,1.182,0,0,0-.537.339.056.056,0,0,1-.082-.075Z" transform="translate(-80.25 -78.274)"/>
    <path id="Path_6614" data-name="Path 6614" d="M118.41,105.15l3.6.268a1.722,1.722,0,0,1-1.864,1.118,2.058,2.058,0,0,1-1.737-1.387Z" transform="translate(-82.922 -87.081)" fill="#fff"/>
    <path id="Path_6615" data-name="Path 6615" d="M128.174,89.89l-3.4,3.3s.567,1.741,1.931,1.786l3.415-3.206S129.627,90.028,128.174,89.89Z" transform="translate(-86.911 -77.51)" fill="#fff" opacity="0.22"/>
    <path id="Path_6616" data-name="Path 6616" d="M112.222,87.08l-2.982,3.355s.444,1.722,1.6,1.737l2.982-3.269S113.456,87.184,112.222,87.08Z" transform="translate(-77.17 -75.747)" fill="#fff" opacity="0.22"/>
    <circle id="Ellipse_745" data-name="Ellipse 745" cx="2.751" cy="2.751" r="2.751" transform="matrix(0.165, -0.986, 0.986, 0.165, 37.376, 17.208)" fill="none" stroke="#c0653e" stroke-miterlimit="10" stroke-width="0.72"/>
    <path id="Path_6617" data-name="Path 6617" d="M109.177,88.975a2.586,2.586,0,0,0,1.864,3.105,2.545,2.545,0,0,0,2.747-2.322,2.582,2.582,0,0,0-1.864-3.105A2.547,2.547,0,0,0,109.177,88.975Z" transform="translate(-77.104 -75.461)" fill="none" stroke="#c0653e" stroke-miterlimit="10" stroke-width="0.72"/>
    <path id="Path_6618" data-name="Path 6618" d="M122.746,95.135a1.3,1.3,0,0,0-1.156-.194" transform="translate(-84.916 -80.641)" fill="none" stroke="#c0653e" stroke-miterlimit="10" stroke-width="0.72"/>
    <line id="Line_396" data-name="Line 396" x1="1.793" y1="1.446" transform="translate(43.216 15.631)" fill="none" stroke="#c0653e" stroke-miterlimit="10" stroke-width="0.72"/>
    <path id="Path_6619" data-name="Path 6619" d="M142.9,86.714a15.514,15.514,0,0,1,.716-9.819s2.017-.239,2.263,3.445C146.283,86.252,142.9,86.714,142.9,86.714Z" transform="translate(-97.974 -69.357)"/>
    <path id="Path_6620" data-name="Path 6620" d="M140.782,102.45a6.424,6.424,0,0,1,1.234-2.1c.746-.854,1.778-1.6,2.811-.746,1.763,1.45-1.033,4.209-3.15,3.959-.623-.075-1.07-.63-.9-1.118Z" transform="translate(-96.928 -83.367)" fill="#e9b089"/>
    <path id="Path_6621" data-name="Path 6621" d="M145.6,103.888c-1.428-.712-2.457.857-2.457.857" transform="translate(-98.433 -86.173)" fill="none" stroke="#000" stroke-linecap="round" stroke-linejoin="round" stroke-width="0.45"/>
    <path id="Path_6622" data-name="Path 6622" d="M125.85,73.174s-2.766,2.688-12.72,1.085a8.445,8.445,0,0,1,7.139-3.974C125.421,70.091,125.85,73.174,125.85,73.174Z" transform="translate(-79.61 -65.208)"/>
    <path id="Path_6623" data-name="Path 6623" d="M88.642,133.812s-2.554,8.667-20.764,22.021l-4.738-6.185L79.054,132.38Z" transform="translate(-48.256 -104.16)" fill="#be5640"/>
    <path id="Path_6624" data-name="Path 6624" d="M37.3,141.58l3.355-1.73,4.973,7.217c-1.178.783-2.733,1.648-3.922,2.427Z" transform="translate(-32.049 -108.845)" fill="#e9b089"/>
    <path id="Path_6625" data-name="Path 6625" d="M32.375,123.09l.22-.779a6.952,6.952,0,0,0,.119-3.24l-.373-1.864a.746.746,0,0,0-.984-.544h0a.943.943,0,0,0-.608.861l-.041,2.035-3.035-5.484a.57.57,0,0,0-.813-.224l-.19.13a.57.57,0,0,0-.2.693l2.117,4.22-3.105-4.511a.57.57,0,0,0-.839-.157l-.134.1a.57.57,0,0,0-.138.746l2.49,4.157-2.61-2.725a.57.57,0,0,0-.887.048l-.041.06a.57.57,0,0,0,0,.675l2.5,3.023-1.618-1.245a.57.57,0,0,0-.943.205h0a.57.57,0,0,0,.093.541l6.069,6.867,1.659-1.491A4.44,4.44,0,0,0,32.375,123.09Z" transform="translate(-23.214 -92.484)" fill="#e9b089"/>
    <path id="Path_6626" data-name="Path 6626" d="M41.418,129.31a3.75,3.75,0,0,0-1.118,2.982" transform="translate(-33.923 -102.234)" fill="none" stroke="#000" stroke-linecap="round" stroke-linejoin="round" stroke-width="0.57"/>
    <path id="Path_6627" data-name="Path 6627" d="M54.842,157.865,43.885,143.52l-4.365,3.65,7.527,13.76c1.275,2.214,3.18,3.336,5.29,2.341h0C54.238,162.372,55.729,159.781,54.842,157.865Z" transform="translate(-33.441 -111.147)" fill="#be5640"/>
    <line id="Line_397" data-name="Line 397" x2="2.36" y2="2.729" transform="translate(17.93 42.181)" fill="none" stroke="#000" stroke-linecap="round" stroke-linejoin="round" stroke-width="0.46"/>
    <path id="Path_6628" data-name="Path 6628" d="M98.336,138.85l7.456,5.219-.459,25.79-10.27-1.726S90.2,146.227,98.336,138.85Z" transform="translate(-67.373 -108.218)" fill="#fff"/>
    <path id="Path_6629" data-name="Path 6629" d="M95.33,213.341l10.155,1.972-.231-2.561L95.33,211.06Z" transform="translate(-68.446 -153.509)"/>
    <path id="Path_6630" data-name="Path 6630" d="M116.637,138.012s-12.3,4.123-11.72-3.418l5.8-4.473,3.888,2.2,2.028,1.692,2.032,3.4Z" transform="translate(-74.446 -102.742)" fill="#e9b089"/>
    <path id="Path_6631" data-name="Path 6631" d="M101.427,129.567a29.823,29.823,0,0,0-8.339,11.6c-1.618,4.075-.626,12.239-.373,17.689s.641,15.862.641,15.862l-4.015-2.237s-.089-23.9.492-27.038,3.355-15.251,7.377-16.559a6.53,6.53,0,0,1,3.728.436Z" transform="translate(-64.687 -101.906)" fill="#be5640"/>
    <path id="Path_6632" data-name="Path 6632" d="M89.89,165.163s-.432-7.616,2.013-11.433" transform="translate(-65.015 -117.551)" fill="none" stroke="#000" stroke-linecap="round" stroke-linejoin="round" stroke-width="0.46"/>
    <path id="Path_6633" data-name="Path 6633" d="M125.371,139.43s-1.819-1.573-4.44.451S115,149.093,115,157.406s2.472,24.157,2.472,24.157,9.018,3.471,15.31-1.025l-9.491-16.011,4.6-12.794Z" transform="translate(-80.783 -108.216)" fill="#be5640"/>
    <path id="Path_6634" data-name="Path 6634" d="M140.277,139.36s6.662,1.6,18.707,20.7l-6.5,4.295L139.9,150.122Z" transform="translate(-96.401 -108.538)" fill="#be5640"/>
    <line id="Line_398" data-name="Line 398" x1="2.941" y1="3.325" transform="translate(43.499 41.585)" fill="none" stroke="#000" stroke-linecap="round" stroke-linejoin="round" stroke-width="0.46"/>
    <path id="Path_6635" data-name="Path 6635" d="M118.1,198.18l4.332-.98-.142-.966a.813.813,0,0,1,.447-.846.746.746,0,0,1,.921.231l2.923,4.052,2.211,3.12c-2.539,1.271-4.917,1.062-5.592.5l-3.355.253a.611.611,0,0,1-.7-.5c-.045-.242,0-.593.7-.746l-.693.157a.637.637,0,0,1-.727-.533c-.06-.313.205-.637.626-.783l-.514.063a.656.656,0,0,1-.746-.623.723.723,0,0,1,.57-.746l.764-.171h-.85a.716.716,0,0,1-.772-.708A.783.783,0,0,1,118.1,198.18Z" transform="translate(-82.357 -143.634)" fill="#e9b089"/>
    <path id="Path_6636" data-name="Path 6636" d="M141.85,203.79l7.195-1.92,1.182,4.324-7.4,1.23Z" transform="translate(-97.624 -147.745)" fill="#e9b089"/>
    <path id="Path_6637" data-name="Path 6637" d="M157.788,190.628l-12.608,4.313,2.669,5.7L160,197.927a3.821,3.821,0,0,0,2.706-5.111h0a3.821,3.821,0,0,0-4.921-2.188Z" transform="translate(-99.712 -140.536)" fill="#be5640"/>
    <line id="Line_399" data-name="Line 399" y1="1.439" x2="4.213" transform="translate(52.603 50.52)" fill="none" stroke="#000" stroke-linecap="round" stroke-linejoin="round" stroke-width="0.46"/>
    <path id="Path_6638" data-name="Path 6638" d="M605.2,402l.406-20.656,7.59,1.413-1.562,18.263Z" transform="translate(-388.242 -260.31)" fill="#fff"/>
    <path id="_Clipping_Path_12" data-name="&lt;Clipping Path&gt;" d="M601.118,425.9s4.906,2.665,7.02-1.2l13.748,8.2-22.956-.149Z" transform="translate(-384.309 -287.506)" fill="#101010"/>
    <rect id="Rectangle_1161" data-name="Rectangle 1161" width="2.11" height="22.956" transform="translate(214.614 147.373) rotate(-89.63)" fill="#fff"/>
    <path id="Path_6639" data-name="Path 6639" d="M626.049,430.984a.4.4,0,0,0,.168-.127,8.356,8.356,0,0,1,1.886-1.842.373.373,0,0,0,.112-.533.421.421,0,0,0-.559-.108,8.945,8.945,0,0,0-2.095,2.028.373.373,0,0,0,.089.537A.421.421,0,0,0,626.049,430.984Z" transform="translate(-400.964 -289.772)" fill="#fff"/>
    <path id="Path_6640" data-name="Path 6640" d="M631.339,433.624a.4.4,0,0,0,.168-.127,8.352,8.352,0,0,1,1.886-1.842.373.373,0,0,0,.112-.533.421.421,0,0,0-.559-.108,8.947,8.947,0,0,0-2.1,2.028.373.373,0,0,0,.09.537A.421.421,0,0,0,631.339,433.624Z" transform="translate(-404.282 -291.428)" fill="#fff"/>
    <path id="Path_6641" data-name="Path 6641" d="M636.619,436.281a.4.4,0,0,0,.168-.127,8.357,8.357,0,0,1,1.886-1.838.373.373,0,0,0,.112-.533.421.421,0,0,0-.559-.108,8.97,8.97,0,0,0-2.1,2.028.373.373,0,0,0,.089.537A.421.421,0,0,0,636.619,436.281Z" transform="translate(-407.594 -293.096)" fill="#fff"/>
    <path id="Path_6642" data-name="Path 6642" d="M552.72,400.92l3-20.44,7.351,2.356-3.844,17.92Z" transform="translate(-355.326 -259.771)" fill="#fff"/>
    <path id="_Clipping_Path_13" data-name="&lt;Clipping Path&gt;" d="M549.7,425.9s4.906,2.665,7.02-1.2l13.748,8.2-22.956-.149Z" transform="translate(-352.058 -287.506)" fill="#101010"/>
    <rect id="Rectangle_1162" data-name="Rectangle 1162" width="2.11" height="22.956" transform="translate(195.444 147.373) rotate(-89.63)" fill="#fff"/>
    <path id="Path_6643" data-name="Path 6643" d="M574.629,430.984a.4.4,0,0,0,.168-.127,8.355,8.355,0,0,1,1.886-1.842.373.373,0,0,0,.112-.533.421.421,0,0,0-.559-.108,8.95,8.95,0,0,0-2.1,2.028.373.373,0,0,0,.09.537A.421.421,0,0,0,574.629,430.984Z" transform="translate(-368.713 -289.772)" fill="#fff"/>
    <path id="Path_6644" data-name="Path 6644" d="M579.909,433.624a.4.4,0,0,0,.168-.127,8.353,8.353,0,0,1,1.886-1.842.373.373,0,0,0,.112-.533.421.421,0,0,0-.559-.108,8.948,8.948,0,0,0-2.1,2.028.373.373,0,0,0,.089.537A.422.422,0,0,0,579.909,433.624Z" transform="translate(-372.025 -291.428)" fill="#fff"/>
    <path id="Path_6645" data-name="Path 6645" d="M585.2,436.281a.4.4,0,0,0,.168-.127,8.362,8.362,0,0,1,1.886-1.838.373.373,0,0,0,.112-.533.421.421,0,0,0-.559-.108,8.967,8.967,0,0,0-2.1,2.028.373.373,0,0,0,.089.537A.421.421,0,0,0,585.2,436.281Z" transform="translate(-375.343 -293.096)" fill="#fff"/>
    <path id="Path_6646" data-name="Path 6646" d="M578.874,218.055s2.319-.056,2.68,10.658c.075,2.2.03,5.264-.108,7.456l-2.956,56.753H567.727L570.5,234.29l-10.177,58.632-11.184-.242,11.929-74.636L569.33,217Z" transform="translate(-353.08 -157.234)"/>
    <line id="Line_400" data-name="Line 400" y1="1.085" x2="4.652" transform="translate(217.42 75.982)" fill="none" stroke="#434141" stroke-linecap="round" stroke-linejoin="round" stroke-width="0.67"/>
    <path id="Path_6647" data-name="Path 6647" d="M589.2,130.321a28.953,28.953,0,0,0,8.731,5.894c4.682,1.793,13.707,7.493,20.559,8.015l-2.278-9.562-14.867-8.108Z" transform="translate(-378.207 -100.51)" fill="#212e38"/>
    <path id="Path_6648" data-name="Path 6648" d="M692.84,101.869l.339-2.509a1.286,1.286,0,0,1,.906-1.059l2.982-.891a.966.966,0,0,1,1.119.447h0a.966.966,0,0,1-.373,1.327l-1.424.775a2.4,2.4,0,0,1,.071,3.679Z" transform="translate(-443.211 -82.201)" fill="#e9b089"/>
    <path id="Path_6649" data-name="Path 6649" d="M696.18,90.429l3.881-5.3a.746.746,0,0,1,1.118-.112h0a.746.746,0,0,1,.164.895L698.9,90.668Z" transform="translate(-445.305 -74.328)" fill="#e9b089"/>
    <path id="Path_6650" data-name="Path 6650" d="M702.273,95.5,703.764,95a1.032,1.032,0,0,1,.9.194l.343.276a1.033,1.033,0,0,1,.261,1.3l-1.9,3.389-2.449-1.823Z" transform="translate(-448.278 -80.691)" fill="#e9b089"/>
    <path id="Path_6651" data-name="Path 6651" d="M707.255,97.72h.555a1.014,1.014,0,0,1,.712.291l.459.451a1.014,1.014,0,0,1,.306.727h0a1.015,1.015,0,0,1-.2.608l-2.438,3.247-2.114-1.573Z" transform="translate(-450.543 -82.421)" fill="#e9b089"/>
    <path id="Path_6652" data-name="Path 6652" d="M709.651,101.17h.555a1.014,1.014,0,0,1,.712.291l.458.451a1.014,1.014,0,0,1,.306.727h0a1.014,1.014,0,0,1-.2.608l-.854,1.141a2.643,2.643,0,0,1-3.694.533h0Z" transform="translate(-452.048 -84.585)" fill="#e9b089"/>
    <path id="Path_6653" data-name="Path 6653" d="M700.606,106.092l-1.141,1.275a2.926,2.926,0,0,1-4.134.205l-2.5-2.263,1.938-2.479h2.423l2.114,1.461Z" transform="translate(-443.204 -85.626)" fill="#e9b089"/>
    <path id="Path_6654" data-name="Path 6654" d="M696.72,97.908l3.232-1.074a.88.88,0,0,1,1.1.582h0a.88.88,0,0,1-.294.954l-1.95,1.238s1.76.857.324,2.859" transform="translate(-445.644 -81.84)" fill="none" stroke="#000" stroke-linecap="round" stroke-linejoin="round" stroke-width="0.57"/>
    <path id="Path_6655" data-name="Path 6655" d="M685.84,109.44l-4.16,5.711,4.641,3.463,4.254-7.046Z" transform="translate(-436.211 -89.772)" fill="#e9b089"/>
    <path id="Path_6656" data-name="Path 6656" d="M654.693,128.416,665.5,114.25l6.744,5.219-9.32,14.792c-1.894,2.412-4.638,3-6.815,1.249h0C654.141,133.915,652.206,130.325,654.693,128.416Z" transform="translate(-418.547 -92.789)" fill="#212e38"/>
    <path id="Path_6657" data-name="Path 6657" d="M569.969,127.488l8.574-6.278,4.365.052a12.581,12.581,0,0,1,7.534,5.256c3.184,4.548,2.539,41.115,2.539,41.115s-3.3-.306-3.355-5.569c0,0-1.118,7.139-7.154,7.877s-15.862-1.156-15.862-1.156l6.71-17.592-5.406-15.221A8.366,8.366,0,0,1,569.969,127.488Z" transform="translate(-364.038 -97.154)" fill="#212e38"/>
    <path id="Path_6658" data-name="Path 6658" d="M613.768,123.292l2.572,4.529h-1.312l1.435,1.864a29.665,29.665,0,0,1-1.32,12.451L609,122.442l.473-1.092a10.228,10.228,0,0,1,2.982,1.118" transform="translate(-390.625 -97.242)" fill="#39505e"/>
    <path id="_Clipping_Path_14" data-name="&lt;Clipping Path&gt;" d="M590.39,123.46s10.065,8.049,13.077,18.569c0,0,1.118-12.936-5.651-20.757l-4.365-.052Z" transform="translate(-378.953 -97.16)" fill="#fff"/>
    <g id="Group_448" data-name="Group 448" transform="translate(211.437 24.06)" clip-path="url(#clip-path-3)">
      <path id="Path_6659" data-name="Path 6659" d="M586.516,117.928s10.021,4.332,9.625-2.61l-3.068-5.909s-6.848,2.132-7.262,2.237l-1.8,2.416-.507,1.655Z" transform="translate(-586.068 -113.813)" fill="#e9b089"/>
    </g>
    <path id="Path_6660" data-name="Path 6660" d="M586.834,127.23l-2.114,1.551,2.807,4.846,2.8.034-1.953,1.927a133.132,133.132,0,0,1,11.556,10.207A37.977,37.977,0,0,0,586.834,127.23Z" transform="translate(-375.397 -100.93)" fill="#39505e"/>
    <path id="Path_6661" data-name="Path 6661" d="M634.215,153.394a31.572,31.572,0,0,0-.865-5.924" transform="translate(-405.898 -113.625)" fill="none" stroke="#000" stroke-linecap="round" stroke-linejoin="round" stroke-width="0.57"/>
    <path id="Path_6662" data-name="Path 6662" d="M555.043,131.9a12.141,12.141,0,0,0-6.583,5.733c-2.315,4.44-9.342,14.979-10.669,21.719l9.771-1.137,9.465-13.793Z" transform="translate(-345.962 -103.859)" fill="#212e38"/>
    <line id="Line_401" data-name="Line 401" y1="6.319" x2="4.328" transform="translate(206.729 40.548)" fill="none" stroke="#000" stroke-linecap="round" stroke-linejoin="round" stroke-width="0.57"/>
    <path id="Path_6663" data-name="Path 6663" d="M616.366,182.078,600.489,175.7l-1.6,3.8,15.508,6.054Z" transform="translate(-384.284 -131.331)" fill="#c27f22"/>
    <path id="Path_6664" data-name="Path 6664" d="M602.06,179.558l.82-1.808,14.889,6.114-.891,1.812Z" transform="translate(-386.272 -132.616)" fill="#fff"/>
    <path id="Path_6665" data-name="Path 6665" d="M600.315,184.99l-9.141,21.894-15.665-6.6,8.828-21.842Z" transform="translate(-369.62 -133.049)" fill="#d59934"/>
    <path id="Path_6666" data-name="Path 6666" d="M626.671,194l1.387-1.193-9.051,21.838L617.53,215.9Z" transform="translate(-395.975 -142.062)" fill="#c27f22"/>
    <path id="Path_6667" data-name="Path 6667" d="M599.5,197.1l10.009,4.1,1.111-2.621-10.009-4.1Z" transform="translate(-384.667 -143.11)" fill="#fff"/>
    <path id="Path_6668" data-name="Path 6668" d="M576.963,212.1l11.064,5.983-1.234,4.295-11.624-4.011Z" transform="translate(-369.407 -154.161)" fill="#e9b089"/>
    <path id="Path_6669" data-name="Path 6669" d="M607.59,227.545s7.829-1.424,7.549,1.4-1.7,9.48-8.779,2.9Z" transform="translate(-388.969 -163.623)" fill="#e9b089"/>
    <path id="Path_6670" data-name="Path 6670" d="M609,224.215l1.063-1.137a4.473,4.473,0,0,1,2.281-1.312l1.622-.373a.861.861,0,0,1,.966.459h0a.861.861,0,0,1-.3,1.118l-2.334,1.54Z" transform="translate(-390.625 -159.976)" fill="#e9b089"/>
    <path id="Path_6671" data-name="Path 6671" d="M545.137,193.35l17.618,9.391-3.43,8.246-18.49-7.78c-2.856-1.118-4.213-3.575-3.161-6.166h0C538.617,194.722,542.595,191.524,545.137,193.35Z" transform="translate(-345.667 -142.062)" fill="#212e38"/>
    <line id="Line_402" data-name="Line 402" x1="3.079" y1="1.644" transform="translate(199.471 51.288)" fill="none" stroke="#000" stroke-linecap="round" stroke-linejoin="round" stroke-width="0.57"/>
    <path id="Path_6672" data-name="Path 6672" d="M615.615,91.714a5.912,5.912,0,0,1,.63-2.162c.485-.932,1.226-1.827,2.341-1.3,1.9.9.026,3.989-1.92,4.242-.574.075-1.1-.321-1.051-.79Z" transform="translate(-394.773 -76.385)" fill="#d7896d"/>
    <path id="Path_6673" data-name="Path 6673" d="M596.943,67.47c-.373,4.037-3.847,8.619-8.2,8.63s-7.21-3.411-8.25-7.333c-1.167-4.4,3.851-7.411,8.2-7.359C591.448,61.442,597.349,63.079,596.943,67.47Z" transform="translate(-372.637 -59.646)" fill="#744028"/>
    <path id="Path_6674" data-name="Path 6674" d="M595.1,96.83,593.99,108.8l6.185.011L599.8,98.086Z" transform="translate(-381.211 -81.863)" fill="#e9b089"/>
    <path id="Path_6675" data-name="Path 6675" d="M603.374,107.717,599.34,103.8l3.828-1.569Z" transform="translate(-384.566 -85.249)" fill="#d7896d"/>
    <path id="Path_6676" data-name="Path 6676" d="M592.433,65.292a8.81,8.81,0,0,1,4.119-.171,5.209,5.209,0,0,1,4.507,4.9c.5,5.592-.168,10.132-2.938,11.407-2.125.98-3.672.608-6.125-.816-.913-.529-1.786-2.777-2.035-3.851L588.9,73.78S586.036,67.055,592.433,65.292Z" transform="translate(-377.618 -61.87)" fill="#e9b089"/>
    <path id="Path_6677" data-name="Path 6677" d="M613.6,88.13l.9,1.965-.667.529" transform="translate(-393.51 -76.406)" fill="none" stroke="#000" stroke-linecap="round" stroke-linejoin="round" stroke-width="0.44"/>
    <path id="Path_6678" data-name="Path 6678" d="M616.072,76.06a.746.746,0,0,0,.63.966,5.521,5.521,0,0,1,1.439.373.436.436,0,0,0,.574-.205h0a.607.607,0,0,0,0-.585,2.121,2.121,0,0,0-1.432-1.074C616.269,75.34,616.072,76.06,616.072,76.06Z" transform="translate(-395.039 -68.485)" fill="#744028"/>
    <path id="Path_6679" data-name="Path 6679" d="M601.837,75.943s.283.809-.928.966a13.931,13.931,0,0,0-2.542.682.708.708,0,0,1-.794-.205h0a.462.462,0,0,1,.022-.585,4.988,4.988,0,0,1,2.565-1.391C601.6,75.2,601.837,75.943,601.837,75.943Z" transform="translate(-383.399 -68.405)" fill="#744028"/>
    <path id="_Clipping_Path_15" data-name="&lt;Clipping Path&gt;" d="M603.967,85.419s-.578-2.218-3.5-.6A2.187,2.187,0,0,0,603.967,85.419Z" transform="translate(-385.275 -73.959)" fill="#fff"/>
    <g id="Group_449" data-name="Group 449" transform="translate(215.195 10.27)" clip-path="url(#clip-path-4)">
      <ellipse id="Ellipse_746" data-name="Ellipse 746" cx="1.014" cy="1.044" rx="1.014" ry="1.044" transform="translate(0.79 0.082) rotate(-6.89)"/>
    </g>
    <path id="Path_6680" data-name="Path 6680" d="M600.294,84.62a3.056,3.056,0,0,1,.921-.466,3.321,3.321,0,0,1,1.025-.164,2.065,2.065,0,0,1,1.018.283,1.428,1.428,0,0,1,.626.88.134.134,0,1,1-.257.06h0a1.193,1.193,0,0,0-.5-.746,1.864,1.864,0,0,0-.9-.283,3.147,3.147,0,0,0-.969.127,2.916,2.916,0,0,0-.887.429.063.063,0,0,1-.089,0,.067.067,0,0,1,.015-.119Z" transform="translate(-385.137 -73.809)"/>
    <path id="_Clipping_Path_16" data-name="&lt;Clipping Path&gt;" d="M615.75,85.311s.865-2.2,2.472-.682A1.413,1.413,0,0,1,615.75,85.311Z" transform="translate(-394.859 -73.874)" fill="#fff"/>
    <g id="Group_450" data-name="Group 450" transform="translate(220.891 10.22)" clip-path="url(#clip-path-5)">
      <ellipse id="Ellipse_747" data-name="Ellipse 747" cx="0.966" cy="0.764" rx="0.966" ry="0.764" transform="translate(0.424 1.743) rotate(-80.69)"/>
    </g>
    <path id="Path_6681" data-name="Path 6681" d="M618.076,84.573a1.143,1.143,0,0,0-.47-.4.954.954,0,0,0-.593-.052h0a1.42,1.42,0,0,0-.746.373,1.889,1.889,0,0,0-.462.678h0a.112.112,0,1,1-.209-.082h0a2.07,2.07,0,0,1,.231-.4,2.024,2.024,0,0,1,.313-.339,1.6,1.6,0,0,1,.835-.373h0a1.092,1.092,0,0,1,.693.082,1.264,1.264,0,0,1,.507.459.056.056,0,0,1-.089.06Z" transform="translate(-394.758 -73.788)"/>
    <path id="Path_6682" data-name="Path 6682" d="M607.93,97.132s2.009,1.066,3.43-.212" transform="translate(-389.954 -81.919)" fill="none" stroke="#000" stroke-linecap="round" stroke-linejoin="round" stroke-width="0.44"/>
    <path id="Path_6683" data-name="Path 6683" d="M587.167,78.226s2.684-8.529-1.29-8.746L583.7,73.73l1.167,3.549Z" transform="translate(-374.757 -64.708)" fill="#744028"/>
    <path id="Path_6684" data-name="Path 6684" d="M587.774,91.932a6.221,6.221,0,0,0-.917-2.166c-.619-.917-1.491-1.763-2.609-1.077-1.864,1.163.447,4.175,2.513,4.205.608,0,1.118-.466,1-.951Z" transform="translate(-374.671 -76.6)" fill="#e9b089"/>
    <path id="Path_6685" data-name="Path 6685" d="M586.8,92.979c1.461-.5,2.237,1.141,2.237,1.141" transform="translate(-376.701 -79.387)" fill="none" stroke="#000" stroke-linecap="round" stroke-linejoin="round" stroke-width="0.44"/>
    <path id="Path_6686" data-name="Path 6686" d="M591.09,63.444S601,66,604.414,61.3c0,0-6.278-3.5-11.624-.615Z" transform="translate(-379.392 -58.478)" fill="#744028"/>
    <path id="Path_6687" data-name="Path 6687" d="M591.14,60.125a7.9,7.9,0,0,1,6.1-3.445s-1.081,2.725-3.422,3.471S591.14,60.125,591.14,60.125Z" transform="translate(-379.423 -56.68)" fill="#744028"/>
    <path id="Path_6688" data-name="Path 6688" d="M587.79,63.763A4.373,4.373,0,0,1,589.8,60.43a3.55,3.55,0,0,1-.7,2.61C588.166,64.039,587.79,63.763,587.79,63.763Z" transform="translate(-377.322 -59.032)" fill="#744028"/>
    <rect id="Rectangle_1163" data-name="Rectangle 1163" width="6.397" height="8.761" transform="translate(104.186 134.577)" fill="#fff"/>
    <path id="Path_6689" data-name="Path 6689" d="M307.82,434.716,305.3,436.4l-2.807-.887a.981.981,0,0,0-.671.03h0a.98.98,0,0,0-.608.906v3.594h18.882s-.022-3.15-4.7-2.393l-6.613-3.012A.988.988,0,0,0,307.82,434.716Z" transform="translate(-197.576 -293.682)"/>
    <rect id="Rectangle_1164" data-name="Rectangle 1164" width="4.664" height="1.204" transform="translate(108.298 147.557) rotate(180)"/>
    <path id="Path_6690" data-name="Path 6690" d="M313.72,449.28l2.472,1.2h11.747v-1.2Z" transform="translate(-205.422 -302.923)"/>
    <path id="Path_6691" data-name="Path 6691" d="M252.435,417.68h6.4l-1.115,8.757h-6.4Z" transform="translate(-166.284 -283.103)" fill="#fff"/>
    <path id="Path_6692" data-name="Path 6692" d="M256.44,434.716l-2.524,1.681-2.807-.887a.981.981,0,0,0-.671.03h0a.98.98,0,0,0-.608.906v3.594h18.882s-.022-3.15-4.7-2.393l-6.613-3.012A.988.988,0,0,0,256.44,434.716Z" transform="translate(-165.35 -293.682)"/>
    <rect id="Rectangle_1165" data-name="Rectangle 1165" width="4.664" height="1.204" transform="translate(89.144 147.557) rotate(180)"/>
    <path id="Path_6693" data-name="Path 6693" d="M262.34,449.28l2.472,1.2h11.747v-1.2Z" transform="translate(-173.196 -302.923)"/>
    <path id="Path_6694" data-name="Path 6694" d="M274.912,199.87s.634,1.234,1.025,12.951c.082,2.408.466,6.71.492,10.595l-.164,61.35h-9.939l-1.118-64.12-7.3,64.12L247.84,284.5l5.927-82.345,9.417-1.167Z" transform="translate(-164.102 -146.49)" fill="#212e38"/>
    <line id="Line_403" data-name="Line 403" y1="2.151" x2="4.995" transform="translate(101.095 72.015)" fill="none" stroke="#000" stroke-linecap="round" stroke-linejoin="round" stroke-width="0.46"/>
    <path id="Path_6695" data-name="Path 6695" d="M318.868,203.659l9.569,20.8,3.042-.212c-3.694-14.2-3.687-14.166-6.4-22.934-.429-1.387-3.225-1.719-4.574-1.178h0A2.985,2.985,0,0,0,318.868,203.659Z" transform="translate(-208.561 -146.503)" fill="#e9b089"/>
    <path id="Path_6696" data-name="Path 6696" d="M343.661,259.16a8.073,8.073,0,0,0,.544,5.394l-.276,2.822a.85.85,0,0,0,.675.921h0a.913.913,0,0,0,1.062-.652l.451-1.651.16.567a4.182,4.182,0,0,1-.171,2.747l-1.044,2.5c-.119.283-.447.235-.257.466h0a.846.846,0,0,0,1.387-.142l2.155-2.744a4.779,4.779,0,0,0,.373-3.926l-2.759-7.284Z" transform="translate(-224.053 -183.063)" fill="#e9b089"/>
    <path id="Path_6697" data-name="Path 6697" d="M322.869,158.965l-.828-13.241c-1.171-10.147-7.5-12.854-7.5-12.854L314,150.141l1.92-1.055,1.364,18.006L323.1,180.6l5.689-2.371Z" transform="translate(-205.598 -104.467)" fill="#fff"/>
    <path id="Path_6698" data-name="Path 6698" d="M269.82,126.172a28.238,28.238,0,0,0-7.866,1.789,20.661,20.661,0,0,0-2.05.917c-1.8.939-1.26,2.982-1.033,5.04l1.055,28.019,21.909-.533a1.76,1.76,0,0,0,1.715-1.864l-.869-22.472c-.063-3.948-.761-7.769-3.419-8.7-2.96-1.044-6.576-2.214-8.149-2.308Z" transform="translate(-170.861 -100.196)" fill="#744028"/>
    <path id="Path_6699" data-name="Path 6699" d="M288.693,127.864A32.488,32.488,0,0,0,281.875,126a29.652,29.652,0,0,0-6.125.925l9.089,11.963Z" transform="translate(-181.607 -100.158)" fill="#fff"/>
    <path id="Path_6700" data-name="Path 6700" d="M293.76,131.59l-1.83,2.311,2.177,1.584,1.734-1.838Z" transform="translate(-191.756 -103.664)" fill="#294286"/>
    <path id="Path_6701" data-name="Path 6701" d="M294.68,139.4l-1.1,4.7,2.442,3.213.854-2.442-1.458-5.469Z" transform="translate(-192.79 -108.563)" fill="#294286"/>
    <path id="Path_6702" data-name="Path 6702" d="M285.9,137.308l-.5.76-2.945-1.249" transform="translate(-185.81 -106.945)" fill="none" stroke="#e0e0e0" stroke-linecap="round" stroke-linejoin="round" stroke-width="0.75"/>
    <path id="Path_6703" data-name="Path 6703" d="M302.42,136.182l.675.634,1.543-1.185" transform="translate(-198.335 -106.198)" fill="none" stroke="#e0e0e0" stroke-linecap="round" stroke-linejoin="round" stroke-width="0.75"/>
    <path id="Path_6704" data-name="Path 6704" d="M228.622,132.48s-6.77,1.089-21.182,20.66l7.426,5.8,11.907-13.793A13.3,13.3,0,0,0,228.622,132.48Z" transform="translate(-138.762 -104.223)" fill="#fff"/>
    <path id="Path_6705" data-name="Path 6705" d="M251.194,150.14l16.078,5.845-1.346,3.9-15.586-5.842Z" transform="translate(-165.67 -115.299)"/>
    <path id="Path_6706" data-name="Path 6706" d="M266.56,159.467l.589-1.9-15.169-5.379-.541,1.942Z" transform="translate(-166.36 -116.585)" fill="#fff"/>
    <path id="Path_6707" data-name="Path 6707" d="M240.132,155.01l-7.8,22.4,16.071,5.536,8-22.159Z" transform="translate(-154.374 -118.354)" fill="#212e38"/>
    <path id="Path_6708" data-name="Path 6708" d="M239.681,151.955l-.235-1.815-7.836,22.3.268,1.916Z" transform="translate(-153.922 -115.299)"/>
    <path id="Path_6709" data-name="Path 6709" d="M264.132,176.871l-10.192-3.62.921-2.692,10.192,3.62Z" transform="translate(-167.928 -128.107)" fill="#fff"/>
    <path id="Path_6710" data-name="Path 6710" d="M236.93,192.6l11.821,4.295-.585,4.425-12.086-2.255Z" transform="translate(-156.726 -141.931)" fill="#e9b089"/>
    <path id="Path_6711" data-name="Path 6711" d="M269.1,202.338s7.549-2.557,7.672.276-.291,9.625-8.257,4.153Z" transform="translate(-177.066 -147.374)" fill="#e9b089"/>
    <path id="Path_6712" data-name="Path 6712" d="M269.52,199.05l.884-1.282a4.474,4.474,0,0,1,2.065-1.633l1.547-.6a.861.861,0,0,1,1.021.313h0a.861.861,0,0,1-.134,1.118l-2.08,1.864Z" transform="translate(-177.7 -143.732)" fill="#e9b089"/>
    <path id="Path_6713" data-name="Path 6713" d="M211.536,183.649l15.329,4.966-1.417,7.8-17.107-4.272a4.548,4.548,0,0,1-2.811-6.281h0A4.548,4.548,0,0,1,211.536,183.649Z" transform="translate(-137.296 -136.059)" fill="#fff"/>
    <line id="Line_404" data-name="Line 404" x1="4.157" y1="1.346" transform="translate(76.104 48.194)" fill="none" stroke="#e0e0e0" stroke-linecap="round" stroke-linejoin="round" stroke-width="0.75"/>
    <path id="Path_6714" data-name="Path 6714" d="M294.64,60.2s5.182-2.322,7.866.5c2.106,2.218-1.491,6.08-3.4,5.864S294.64,60.2,294.64,60.2Z" transform="translate(-193.455 -58.324)" fill="#fff"/>
    <path id="Path_6715" data-name="Path 6715" d="M306.268,91.016a6.074,6.074,0,0,1,.619-2.218c.485-.962,1.238-1.89,2.39-1.364,1.961.9.075,4.1-1.92,4.377a.892.892,0,0,1-1.089-.8Z" transform="translate(-200.748 -75.874)" fill="#d7896d"/>
    <path id="Path_6716" data-name="Path 6716" d="M286.907,67.529a7.422,7.422,0,0,1-7.53,7.642,7.846,7.846,0,0,1-8.227-7.426c-.06-4.164,3.53-7.594,8.011-7.657A7.437,7.437,0,0,1,286.907,67.529Z" transform="translate(-178.721 -58.817)" fill="#fff"/>
    <path id="Path_6717" data-name="Path 6717" d="M285.573,96.53l-.913,11.284L289.2,109.6l1.707-1.3-.5-10.542Z" transform="translate(-187.196 -81.674)" fill="#e9b089"/>
    <path id="Path_6718" data-name="Path 6718" d="M293.846,107.543l-4.186-3.97,3.911-1.663Z" transform="translate(-190.332 -85.049)" fill="#d7896d"/>
    <path id="Path_6719" data-name="Path 6719" d="M282.182,64.075a9.044,9.044,0,0,1,4.227-.227,5.359,5.359,0,0,1,4.686,4.977c.585,5.752-.048,10.4-2.874,11.747-2.17,1.033-3.765.667-6.3-.746-.943-.533-1.864-2.829-2.136-3.929l-1.118-3.064S275.64,65.961,282.182,64.075Z" transform="translate(-182.999 -61.081)" fill="#e9b089"/>
    <path id="Path_6720" data-name="Path 6720" d="M304.43,88.5l.682,1.316-.514.418" transform="translate(-199.596 -76.638)" fill="none" stroke="#000" stroke-linecap="round" stroke-linejoin="round" stroke-width="0.45"/>
    <path id="Path_6721" data-name="Path 6721" d="M306.463,74.1a.746.746,0,0,0,.66.984,5.669,5.669,0,0,1,1.491.373.447.447,0,0,0,.589-.216h0a.623.623,0,0,0,0-.6,2.177,2.177,0,0,0-1.491-1.085C306.638,73.344,306.463,74.1,306.463,74.1Z" transform="translate(-200.846 -67.242)" fill="#fff"/>
    <path id="Path_6722" data-name="Path 6722" d="M291.855,74.064s.3.828-.939,1a14.3,14.3,0,0,0-2.609.746.746.746,0,0,1-.816-.2h0a.473.473,0,0,1,0-.6,5.122,5.122,0,0,1,2.609-1.458C291.6,73.318,291.855,74.064,291.855,74.064Z" transform="translate(-188.903 -67.234)" fill="#fff"/>
    <path id="_Clipping_Path_17" data-name="&lt;Clipping Path&gt;" d="M293.857,84.448s-.619-2.27-3.6-.57A2.247,2.247,0,0,0,293.857,84.448Z" transform="translate(-190.708 -73.342)" fill="#fff"/>
    <g id="Group_451" data-name="Group 451" transform="translate(99.552 9.903)" clip-path="url(#clip-path-6)">
      <ellipse id="Ellipse_748" data-name="Ellipse 748" cx="1.04" cy="1.074" rx="1.04" ry="1.074" transform="translate(0.8 0.097) rotate(-7.58)"/>
    </g>
    <path id="Path_6723" data-name="Path 6723" d="M290.082,83.655a3.14,3.14,0,0,1,.939-.492,3.407,3.407,0,0,1,1.051-.183,2.121,2.121,0,0,1,1.048.276,1.465,1.465,0,0,1,.667.9.138.138,0,1,1-.265.063h0a1.227,1.227,0,0,0-.522-.746,1.908,1.908,0,0,0-.928-.28,3.228,3.228,0,0,0-1,.142,2.983,2.983,0,0,0-.91.44.074.074,0,1,1-.086-.119Z" transform="translate(-190.571 -73.176)"/>
    <path id="_Clipping_Path_18" data-name="&lt;Clipping Path&gt;" d="M306.27,84.429s.861-2.27,2.528-.746A1.449,1.449,0,0,1,306.27,84.429Z" transform="translate(-200.75 -73.287)" fill="#fff"/>
    <g id="Group_452" data-name="Group 452" transform="translate(105.52 9.87)" clip-path="url(#clip-path-7)">
      <ellipse id="Ellipse_749" data-name="Ellipse 749" cx="0.992" cy="0.783" rx="0.992" ry="0.783" transform="translate(0.434 1.805) rotate(-81.38)"/>
    </g>
    <path id="Path_6724" data-name="Path 6724" d="M308.684,83.622a1.175,1.175,0,0,0-.488-.4.98.98,0,0,0-.6-.045h0a1.461,1.461,0,0,0-.4.138,1.445,1.445,0,0,0-.343.246,1.942,1.942,0,0,0-.466.7h0a.116.116,0,0,1-.216-.082h0a2.126,2.126,0,0,1,.235-.418,2.08,2.08,0,0,1,.317-.35,1.636,1.636,0,0,1,.85-.4h0a1.066,1.066,0,0,1,.373-.019,1.118,1.118,0,0,1,.347.1,1.3,1.3,0,0,1,.526.462.056.056,0,0,1-.093.063Z" transform="translate(-200.681 -73.18)"/>
    <path id="Path_6725" data-name="Path 6725" d="M296.75,93.9a.772.772,0,0,0-.537-.47,1.893,1.893,0,0,0-1.9.678c-1.118,1.212-2.2,1.118-2.576.872a3.19,3.19,0,0,0,4.7.418A1.644,1.644,0,0,0,296.75,93.9Z" transform="translate(-191.636 -79.701)" fill="#fff"/>
    <path id="Path_6726" data-name="Path 6726" d="M304.3,94.529a.962.962,0,0,1,1.1-1.118,1.931,1.931,0,0,1,1.167.656c1.036,1.118,1.674,1.036,2.02.794a2.5,2.5,0,0,1-3.955.373A1.865,1.865,0,0,1,304.3,94.529Z" transform="translate(-199.508 -79.71)" fill="#fff"/>
    <path id="Path_6727" data-name="Path 6727" d="M308.158,80.34l2.058,2.237a1.749,1.749,0,0,1-1.491,1.767l-3.165-3.549S305.724,79.971,308.158,80.34Z" transform="translate(-200.304 -71.46)" fill="#fff" opacity="0.22"/>
    <path id="Path_6728" data-name="Path 6728" d="M289.67,80.493l2.423,2.539a1.521,1.521,0,0,1-1.864,1.469l-3.519-3.728A8.109,8.109,0,0,1,289.67,80.493Z" transform="translate(-188.481 -71.613)" fill="#fff" opacity="0.22"/>
    <path id="Path_6729" data-name="Path 6729" d="M292.3,81.668a6.15,6.15,0,0,1-.507,2.274,1.167,1.167,0,0,1-.984.637h-2.934a1.3,1.3,0,0,1-1.167-1.062,5.535,5.535,0,0,1-.067-1.771,1.208,1.208,0,0,1,.973-1.04,33.546,33.546,0,0,1,3.948-.089A1,1,0,0,1,292.3,81.668Z" transform="translate(-188.411 -71.681)" fill="none" stroke="#000" stroke-linecap="round" stroke-linejoin="round" stroke-width="1.01"/>
    <path id="Path_6730" data-name="Path 6730" d="M286.841,80.22l-1.924.1a.209.209,0,0,0-.2.212v.373a.209.209,0,0,0,.089.164l.637.444S285.8,80.336,286.841,80.22Z" transform="translate(-187.233 -71.445)"/>
    <path id="Path_6731" data-name="Path 6731" d="M305.571,81.569a6.214,6.214,0,0,0,.466,2.315,1.167,1.167,0,0,0,.984.637h1.931a1.3,1.3,0,0,0,1.167-1.062,5.536,5.536,0,0,0,.067-1.771,1.208,1.208,0,0,0-.973-1.04,20.443,20.443,0,0,0-2.908-.13C305.728,80.552,305.53,81.066,305.571,81.569Z" transform="translate(-200.308 -71.627)" fill="none" stroke="#000" stroke-linecap="round" stroke-linejoin="round" stroke-width="1.01"/>
    <path id="Path_6732" data-name="Path 6732" d="M314.26,80.22l1.924.1a.209.209,0,0,1,.2.212v.373a.209.209,0,0,1-.089.164l-.638.425A1.857,1.857,0,0,0,314.26,80.22Z" transform="translate(-205.761 -71.445)"/>
    <path id="Path_6733" data-name="Path 6733" d="M303.174,85.433s-.485-.492-1.424.067" transform="translate(-197.915 -74.589)" fill="none" stroke="#000" stroke-linecap="round" stroke-linejoin="round" stroke-width="1.01"/>
    <line id="Line_405" data-name="Line 405" y1="2.427" x2="2.475" transform="translate(95.761 9.562)" fill="none" stroke="#000" stroke-linecap="round" stroke-linejoin="round" stroke-width="1.01"/>
    <path id="Path_6734" data-name="Path 6734" d="M277.692,91.544a6.39,6.39,0,0,0-.965-2.237c-.645-.932-1.562-1.789-2.684-1.074-1.912,1.219.511,4.28,2.632,4.283.623,0,1.118-.492,1.018-.988Z" transform="translate(-180.101 -76.304)" fill="#e9b089"/>
    <path id="Path_6735" data-name="Path 6735" d="M276.62,92.694c1.491-.533,2.322,1.141,2.322,1.141" transform="translate(-182.153 -79.202)" fill="none" stroke="#000" stroke-linecap="round" stroke-linejoin="round" stroke-width="0.45"/>
    <path id="Path_6736" data-name="Path 6736" d="M284.654,62.6a2.227,2.227,0,0,0-2.688,1.409,5.5,5.5,0,0,1-6.8,3.079,6.539,6.539,0,0,1,4.567-4.98C283.692,60.977,284.654,62.6,284.654,62.6Z" transform="translate(-181.243 -59.833)" fill="#fff"/>
    <path id="Path_6737" data-name="Path 6737" d="M282.663,58.877s-.869-2.039-4.507-1.629c-4.343.492-6.908,4.175-6.222,6.337.526,1.674,4-.723,4-.723Z" transform="translate(-179.145 -57.002)" fill="#fff"/>
    <path id="Path_6738" data-name="Path 6738" d="M394.731,438.24l-3.609,1.979a1.036,1.036,0,0,0-.492,1.144c.093.373.4.634,1.2.652,1.778.034,11.556-1.275,11.556-1.275v1.01h3.679s.231-5.219-.883-5.9Z" transform="translate(-253.643 -294.5)"/>
    <path id="Path_6739" data-name="Path 6739" d="M408.44,432.724l-6.71,3.228a5.833,5.833,0,0,0,5.275.593c2.747-1.185,6.188-2.982,6.188-2.982l-.5-1.353Z" transform="translate(-260.623 -292.217)" fill="#c67b5b"/>
    <path id="Path_6740" data-name="Path 6740" d="M423.246,407.032l.5-14.982-5.159.313V409.09Z" transform="translate(-271.198 -267.028)" fill="#c67b5b"/>
    <path id="Path_6741" data-name="Path 6741" d="M500.93,438.265l3.6,1.98a1.036,1.036,0,0,1,.492,1.144c-.093.373-.4.634-1.2.652-1.778.034-11.556-1.275-11.556-1.275v1.059l-3.627-.045s-.283-5.219.831-5.89Z" transform="translate(-315.111 -294.525)"/>
    <path id="Path_6742" data-name="Path 6742" d="M495.633,432.724l6.71,3.228a5.833,5.833,0,0,1-5.275.593c-2.747-1.185-6.188-2.982-6.188-2.982l.5-1.353Z" transform="translate(-316.539 -292.217)" fill="#c67b5b"/>
    <path id="Path_6743" data-name="Path 6743" d="M485.933,407.032,482.16,392.05l5.159.313L491,409.433Z" transform="translate(-311.07 -267.028)" fill="#c67b5b"/>
    <path id="Path_6744" data-name="Path 6744" d="M415.491,198.18s-7.105,11.556-6.926,21.793,2.684,60.925,2.684,60.925h8.511l1.711-64.086,1.025-.063,13.282,64.172,7.989-.764-8.421-59.594a46.64,46.64,0,0,0-2.982-10.74c-1.227-2.941-2.7-7.9-4.8-10.494Z" transform="translate(-264.908 -145.43)" fill="#294286"/>
    <line id="Line_406" data-name="Line 406" y1="0.287" x2="4.757" transform="translate(156.607 71.136)" fill="none" stroke="#000" stroke-linecap="round" stroke-linejoin="round" stroke-width="0.46"/>
    <path id="Path_6745" data-name="Path 6745" d="M383.659,164.7l-6.308,9.413c-2.207,3.452,3.068,7.008,5.45,3.7l10.736-14.33Z" transform="translate(-245.002 -123.666)" fill="#c67b5b"/>
    <path id="Path_6746" data-name="Path 6746" d="M398.834,137.107c-3.981-1.309-10.065,8.947-12.444,12.675L396,156.12C397.8,153.174,409.656,141.357,398.834,137.107Z" transform="translate(-251.002 -107.053)" fill="#ca98be"/>
    <path id="Path_6747" data-name="Path 6747" d="M462.26,137s6.889.451,7.165,10.58l-4.727,1.089Z" transform="translate(-298.588 -107.058)" fill="#ca98be"/>
    <path id="Path_6748" data-name="Path 6748" d="M411.571,135.137c7.7-1.417,11.959-1.417,17.741.224,6.542,1.864,1,19.523-.533,26.226H413.449l-5.159-19.929C408.995,140.061,409.162,135.286,411.571,135.137Z" transform="translate(-264.738 -105.239)" fill="#ca98be"/>
    <line id="Line_407" data-name="Line 407" x1="1.83" y1="7.747" transform="translate(144.704 40.202)" fill="none" stroke="#000" stroke-linecap="round" stroke-linejoin="round" stroke-width="0.44"/>
    <line id="Line_408" data-name="Line 408" y1="7.747" x2="1.103" transform="translate(166.296 37.551)" fill="none" stroke="#000" stroke-linecap="round" stroke-linejoin="round" stroke-width="0.44"/>
    <path id="Path_6749" data-name="Path 6749" d="M434.642,135.05l-4.79-2.96.253-1.64h-.79a1.234,1.234,0,0,0-.872.373L427,132.243l3.3,4.943a1.044,1.044,0,0,0,1.54.22Z" transform="translate(-276.473 -102.949)" fill="#fff"/>
    <path id="Path_6750" data-name="Path 6750" d="M448.964,130.45h.611A1.234,1.234,0,0,1,450.6,131l.992,1.491-.432,4.287a.559.559,0,0,1-.9.373l-2.721-2.1,1.532-2.565Z" transform="translate(-289.356 -102.949)" fill="#fff"/>
    <circle id="Ellipse_750" data-name="Ellipse 750" cx="0.473" cy="0.473" r="0.473" transform="translate(157.696 33.67)" fill="#fff"/>
    <circle id="Ellipse_751" data-name="Ellipse 751" cx="0.473" cy="0.473" r="0.473" transform="translate(157.804 35.56)" fill="#fff"/>
    <path id="Path_6751" data-name="Path 6751" d="M436.28,172.89s2.673-4.738,9.693-1.938l-2.714,5.8-6.132-.209Z" transform="translate(-282.293 -127.797)" fill="#c67b5b"/>
    <path id="Path_6752" data-name="Path 6752" d="M404.587,177.64l-18.837,3.232,1.1,7.023,18.572-6.621Z" transform="translate(-250.6 -132.547)" fill="#c67b5b"/>
    <line id="Line_409" data-name="Line 409" x1="4.604" y2="0.79" transform="translate(137.33 47.158)" fill="none" stroke="#000" stroke-linecap="round" stroke-linejoin="round" stroke-width="0.44"/>
    <path id="Path_6753" data-name="Path 6753" d="M437.719,182.985l-1.279-1.42,7.758-18.214s13.92-2.345,19.612-.414Z" transform="translate(-282.394 -122.847)" fill="#fff"/>
    <path id="Path_6754" data-name="Path 6754" d="M489.607,164.27l-3.027.414-9.01,17.674a4.359,4.359,0,0,0,3.784-2.2Z" transform="translate(-308.191 -124.162)"/>
    <path id="Path_6755" data-name="Path 6755" d="M462.934,165.38l-15.5,1.376-7.568,18.259,14.054-1.961Z" transform="translate(-284.545 -124.858)" fill="#212e38"/>
    <path id="Path_6756" data-name="Path 6756" d="M471.766,176.88l-8.656.768-.85,2.076,8.429-.8Z" transform="translate(-298.588 -132.071)" fill="#fff"/>
    <path id="Path_6757" data-name="Path 6757" d="M497.956,150.151l-1.823-8.391h-1.789l-3.463,7.959Z" transform="translate(-316.539 -110.043)" fill="#fff"/>
    <path id="Path_6758" data-name="Path 6758" d="M486.158,182.175s2.062.5,3.81-2.162.056-4.078.056-4.078l-4.38-3.079a.466.466,0,0,0-.593.045h0a.466.466,0,0,0,0,.671l2.609,2.494-3.925-2.583a.63.63,0,0,0-.887.2h0a.63.63,0,0,0,.153.82l3.638,2.848-3.269-1.692a.526.526,0,0,0-.712.231h0a.526.526,0,0,0,.16.656l3.325,2.423-2.837-1.353a.563.563,0,0,0-.746.246h0a.563.563,0,0,0,.164.716l3.829,2.8Z" transform="translate(-311.28 -129.493)" fill="#c67b5b"/>
    <path id="Path_6759" data-name="Path 6759" d="M456.457,98.878a6.032,6.032,0,0,1,.615-2.2c.485-.958,1.23-1.864,2.371-1.353,1.946.891.075,4.067-1.9,4.347a.881.881,0,0,1-1.081-.794Z" transform="translate(-294.947 -80.824)" fill="#a4563a"/>
    <circle id="Ellipse_752" data-name="Ellipse 752" cx="0.537" cy="0.537" r="0.537" transform="translate(163.586 17.823) rotate(-4.22)" fill="#fff"/>
    <circle id="Ellipse_753" data-name="Ellipse 753" cx="4.913" cy="4.913" r="4.913" transform="translate(144.704 14.673)"/>
    <path id="Path_6760" data-name="Path 6760" d="M421.241,74.83s-1.454-.783-2.982,1.4-1.286,6.751,1.815,7.583Z" transform="translate(-270.416 -67.978)"/>
    <path id="Path_6761" data-name="Path 6761" d="M427.8,69.173s.82-4.265,7.243-3.377,10.654,3.62,6.2,9.693Z" transform="translate(-276.975 -62.321)"/>
    <path id="Path_6762" data-name="Path 6762" d="M437.232,76.4a7.37,7.37,0,0,1-7.482,7.59c-4.455.063-8.112-3.24-8.172-7.374s3.512-7.542,7.959-7.62A7.392,7.392,0,0,1,437.232,76.4Z" transform="translate(-273.072 -64.405)"/>
    <path id="Path_6763" data-name="Path 6763" d="M436.35,105.23l-1.7,11.042,4.79,2.96,1.532-2.565-.477-10.214Z" transform="translate(-281.271 -87.131)" fill="#c67b5b"/>
    <path id="Path_6764" data-name="Path 6764" d="M444.13,116.172l-4.16-3.944,3.884-1.648Z" transform="translate(-284.608 -90.487)" fill="#a4563a"/>
    <path id="Path_6765" data-name="Path 6765" d="M432.53,72.991a8.981,8.981,0,0,1,4.2-.224,5.343,5.343,0,0,1,4.656,4.943c.582,5.711-.048,10-2.852,11.337-2.155,1.025-3.728.664-6.255-.746-.936-.529-1.864-2.479-2.125-3.571l-1.118-3.042S426.029,74.867,432.53,72.991Z" transform="translate(-277.314 -66.676)" fill="#c67b5b"/>
    <path id="Path_6766" data-name="Path 6766" d="M454.72,100.65l.783,1.443-.675.548" transform="translate(-293.859 -84.258)" fill="none" stroke="#000" stroke-linecap="round" stroke-linejoin="round" stroke-width="0.44"/>
    <path id="Path_6767" data-name="Path 6767" d="M456.686,86.639s-.227.563.656.667a7.849,7.849,0,0,1,1.473.242.548.548,0,0,0,.585-.149h0a.309.309,0,0,0,0-.406,2.237,2.237,0,0,0-1.473-.746C456.876,86.125,456.686,86.639,456.686,86.639Z" transform="translate(-295.076 -75.213)"/>
    <path id="Path_6768" data-name="Path 6768" d="M442.156,86.64s.3.559-.936.678a19.547,19.547,0,0,0-2.583.5.962.962,0,0,1-.813-.138h0a.25.25,0,0,1,0-.406,5.964,5.964,0,0,1,2.609-.988C441.906,86.129,442.156,86.64,442.156,86.64Z" transform="translate(-283.196 -75.229)"/>
    <path id="_Clipping_Path_19" data-name="&lt;Clipping Path&gt;" d="M444.441,96.5s-.615-2.237-3.571-.567A2.415,2.415,0,0,0,444.441,96.5Z" transform="translate(-285.172 -80.915)" fill="#fff"/>
    <g id="Group_453" data-name="Group 453" transform="translate(155.698 14.404)" clip-path="url(#clip-path-8)">
      <ellipse id="Ellipse_754" data-name="Ellipse 754" cx="0.932" cy="0.958" rx="0.932" ry="0.958" transform="translate(0.895 0.077) rotate(-7.58)"/>
    </g>
    <path id="Path_6769" data-name="Path 6769" d="M440.715,95.717a3.117,3.117,0,0,1,.932-.488,3.385,3.385,0,0,1,1.044-.179,2.106,2.106,0,0,1,1.04.276,1.454,1.454,0,0,1,.66.891.136.136,0,0,1-.265.063h0a1.215,1.215,0,0,0-.518-.746,1.9,1.9,0,0,0-.924-.276,3.209,3.209,0,0,0-.988.142,2.982,2.982,0,0,0-.891.421.069.069,0,1,1-.089-.1Z" transform="translate(-285.058 -80.746)"/>
    <path id="_Clipping_Path_20" data-name="&lt;Clipping Path&gt;" d="M456.47,96.243s.857-2.237,2.509-.746C458.979,95.516,458.058,97.656,456.47,96.243Z" transform="translate(-294.957 -80.705)" fill="#fff"/>
    <g id="Group_454" data-name="Group 454" transform="translate(161.513 14.28)" clip-path="url(#clip-path-9)">
      <ellipse id="Ellipse_755" data-name="Ellipse 755" cx="0.876" cy="0.693" rx="0.876" ry="0.693" transform="translate(0.487 1.638) rotate(-81.38)"/>
    </g>
    <path id="Path_6770" data-name="Path 6770" d="M458.861,95.426a1.167,1.167,0,0,0-.485-.4.973.973,0,0,0-.6-.045h0a1.452,1.452,0,0,0-.742.377,1.927,1.927,0,0,0-.462.7h0a.116.116,0,0,1-.212-.082h0a2.114,2.114,0,0,1,.231-.414,2.07,2.07,0,0,1,.313-.35,1.625,1.625,0,0,1,.846-.4h0a1.059,1.059,0,0,1,.373-.019,1.092,1.092,0,0,1,.343.093,1.29,1.29,0,0,1,.522.459.056.056,0,0,1-.089.063Z" transform="translate(-294.884 -80.581)"/>
    <path id="Path_6771" data-name="Path 6771" d="M451.3,108.762a1.171,1.171,0,0,1-1.227.82,2.285,2.285,0,0,1-1.89-1.152Z" transform="translate(-289.757 -89.138)" fill="#be5640"/>
    <path id="Path_6772" data-name="Path 6772" d="M448.51,108.192s2.766-.481,2.941.295A5.755,5.755,0,0,1,448.51,108.192Z" transform="translate(-289.964 -88.896)" fill="#be5640"/>
    <path id="Path_6773" data-name="Path 6773" d="M451.3,108.436a3.823,3.823,0,0,1-3.355-.336" transform="translate(-289.607 -88.931)" fill="none" stroke="#000" stroke-linecap="round" stroke-linejoin="round" stroke-width="0.44"/>
    <path id="Path_6774" data-name="Path 6774" d="M427.387,86.305s3.072-6.617-1.118-8.716c0,0-1.35-1.335-2.032,2.237C423.123,85.563,427.387,86.305,427.387,86.305Z" transform="translate(-274.624 -69.641)"/>
    <path id="Path_6775" data-name="Path 6775" d="M428.027,99.418a6.337,6.337,0,0,0-.958-2.207c-.641-.928-1.551-1.778-2.669-1.066-1.9,1.212.511,4.25,2.609,4.257.619,0,1.118-.488,1.01-.98Z" transform="translate(-274.409 -81.267)" fill="#c67b5b"/>
    <path id="Path_6776" data-name="Path 6776" d="M427,100.524c1.491-.529,2.3,1.118,2.3,1.118" transform="translate(-276.473 -84.113)" fill="none" stroke="#000" stroke-linecap="round" stroke-linejoin="round" stroke-width="0.44"/>
    <circle id="Ellipse_756" data-name="Ellipse 756" cx="0.537" cy="0.537" r="0.537" transform="translate(151.765 18.386)" fill="#fff"/>
    <path id="Path_6777" data-name="Path 6777" d="M431.26,73.841s3.728,1.536,6.878,0a3.916,3.916,0,0,1,5.029,1.376,5.887,5.887,0,0,0-6.375-4.261C431.536,71.318,431.26,73.841,431.26,73.841Z" transform="translate(-279.145 -65.621)"/>
    <line id="Line_410" data-name="Line 410" x2="245.769" transform="translate(5.717 147.561)" fill="none" stroke="#000" stroke-linecap="round" stroke-linejoin="round" stroke-width="0.66"/>
  </g>
</svg>
