<svg xmlns="http://www.w3.org/2000/svg" xmlns:xlink="http://www.w3.org/1999/xlink" width="1066.722" height="664.554" viewBox="0 0 1066.722 664.554">
  <defs>
    <filter id="Path_11619" x="0" y="0" width="1066.722" height="663.589" filterUnits="userSpaceOnUse">
      <feOffset dy="3" input="SourceAlpha"/>
      <feGaussianBlur stdDeviation="3" result="blur"/>
      <feFlood flood-opacity="0.161"/>
      <feComposite operator="in" in2="blur"/>
      <feComposite in="SourceGraphic"/>
    </filter>
    <filter id="Path_11620" x="107.928" y="347.697" width="330.888" height="316.858" filterUnits="userSpaceOnUse">
      <feOffset dy="3" input="SourceAlpha"/>
      <feGaussianBlur stdDeviation="3" result="blur-2"/>
      <feFlood flood-opacity="0.161"/>
      <feComposite operator="in" in2="blur-2"/>
      <feComposite in="SourceGraphic"/>
    </filter>
    <filter id="Path_11623" x="754.204" y="278.226" width="265.516" height="385.179" filterUnits="userSpaceOnUse">
      <feOffset dy="3" input="SourceAlpha"/>
      <feGaussianBlur stdDeviation="3" result="blur-3"/>
      <feFlood flood-opacity="0.161"/>
      <feComposite operator="in" in2="blur-3"/>
      <feComposite in="SourceGraphic"/>
    </filter>
    <filter id="Path_11625" x="798.446" y="318.653" width="62.546" height="62.546" filterUnits="userSpaceOnUse">
      <feOffset dy="3" input="SourceAlpha"/>
      <feGaussianBlur stdDeviation="3" result="blur-4"/>
      <feFlood flood-opacity="0.161"/>
      <feComposite operator="in" in2="blur-4"/>
      <feComposite in="SourceGraphic"/>
    </filter>
    <filter id="Path_11627" x="797.537" y="432.116" width="64.365" height="64.365" filterUnits="userSpaceOnUse">
      <feOffset dy="3" input="SourceAlpha"/>
      <feGaussianBlur stdDeviation="3" result="blur-5"/>
      <feFlood flood-opacity="0.161"/>
      <feComposite operator="in" in2="blur-5"/>
      <feComposite in="SourceGraphic"/>
    </filter>
    <filter id="Path_11633" x="252.312" y="141.98" width="551.331" height="401.603" filterUnits="userSpaceOnUse">
      <feOffset dy="3" input="SourceAlpha"/>
      <feGaussianBlur stdDeviation="3" result="blur-6"/>
      <feFlood flood-opacity="0.161"/>
      <feComposite operator="in" in2="blur-6"/>
      <feComposite in="SourceGraphic"/>
    </filter>
  </defs>
  <g id="left_svg" transform="translate(-108.612 -450.146)">
    <g id="OBJECTS" transform="translate(117.612 456.146)">
      <g transform="matrix(1, 0, 0, 1, -9, -6)" filter="url(#Path_11619)">
        <path id="Path_11619-2" data-name="Path 11619" d="M-383.578,321.735s-181.2-21.637-145.038-171.668S-324.516-2.955-261-104.874s150.78-257.336,391.55-210.347C416.784-259.345,294.524-42.84,348.349,18.95s136.479,58.087,159.394,140.6c42.8,154.169-107.471,159.3-148.516,162.187Z" transform="translate(542.39 329.85)" fill="#dae7f2"/>
      </g>
      <g transform="matrix(1, 0, 0, 1, -9, -6)" filter="url(#Path_11620)">
        <path id="Path_11620-2" data-name="Path 11620" d="M-40.368,419.6c-13.927-18.427-104.2,69.1-95.535,49.527s37.645-108.993,9.344-118.052-34.221,44.153-60.8,24.478,7.817-108.321-12.649-111.709-13.077,76.68-45.865,54.55c-28.532-19.259-54.556-62.872-69.672-56.725,9.095,13.571,35.2,53.111,63.537,101.485,32.336,55.192,74.3,133.483,90.488,193.073a.886.886,0,0,1-.084.677.886.886,0,0,1-.54.417.8.8,0,0,1-.232.036.892.892,0,0,1-.862-.66c-16.15-59.4-58.021-137.549-90.3-192.627-28.419-48.511-54.585-88.129-63.6-101.545a14.361,14.361,0,0,0-4.464,5.516C-335,294.2-267.2,370.281-286.338,382.478s-81.317,19.289-61.7,40.486,117.5,40.682,112.755,64.334-58.128-13.963-75.307,5.576,98.079,64.994,98.079,64.994,21.994,3.8,58.521,1.106S-26.44,438.027-40.368,419.6Z" transform="translate(468.75 92.62)" fill="#fff"/>
      </g>
      <path id="Path_11621" data-name="Path 11621" d="M583.975,560.679c-16.953-6.657-47.655,46.781-58.437,66.8,2.134-10.937,5.284-23.581,8.916-36.6,6.271-6.224,86.351-86.232,66.355-94.085-16.864-6.622-47.328,46.222-58.253,66.48,10.7-34.744,21.69-65.416,21.887-65.981l-1.676-.594c-.208.565-12.334,34.31-23.48,71.176,2.08-9.695,6.111-41.4-17.524-81.691-26.2-44.671,6.093,81.251,11.556,102.163C528.831,604.4,525,620,522.8,632.693c-.713,1.373-1.1,2.146-1.1,2.146s11.752-36.117-16.78-84.74,0,90.685,0,90.685l17.88-2.17.838.113v-.22l14.438-1.783s66.676-67.895,45.871-76.086Z" transform="translate(117.414 -0.822)" fill="#fff"/>
      <path id="Path_11622" data-name="Path 11622" d="M834.687-.15c-10.67-7.876-31.374,15.7-46.478,36.194C792.121,24.323,795.9,11.673,799.028.73c12.744-21.72,45.318-81.085,25.049-88.277-19.8-7.02-28.057,75.854-29.555,93.092-3.709,12.709-8.09,26.909-12.429,39.053l-.743,1.076c5.807-13.154,10.182-34.048,2.176-63.127-14.932-54.389-22.855,98.6-22.855,98.6S852.668,13.118,834.687-.15Z" transform="translate(8.543 228.183)" fill="#fff"/>
      <g transform="matrix(1, 0, 0, 1, -9, -6)" filter="url(#Path_11623)">
        <path id="Path_11623-2" data-name="Path 11623" d="M1633.936,1291.389H1386.42V924.21h247.516v367.179Z" transform="translate(-623.22 -639.98)" fill="#fff"/>
      </g>
      <path id="Path_11624" data-name="Path 11624" d="M735.693,509.889H981.432v-365.4H735.693Zm247.522,1.783H733.91V142.71H983.215Z" transform="translate(19.396 134.625)" fill="#1d2a49"/>
      <g transform="matrix(1, 0, 0, 1, -9, -6)" filter="url(#Path_11625)">
        <path id="Path_11625-2" data-name="Path 11625" d="M854.4,234.493a22.273,22.273,0,1,1-22.273-22.273A22.273,22.273,0,0,1,854.4,234.493Z" transform="translate(-2.4 112.43)" fill="#aac3df"/>
      </g>
      <path id="Path_11626" data-name="Path 11626" d="M829.15,237.848,811.317,218.72a.892.892,0,0,1,1.3-1.189l16.685,17.9,33.549-27.658a.892.892,0,0,1,1.135,1.373l-34.845,28.722Z" transform="translate(-11.938 108.309)" fill="#1d2a49"/>
      <g transform="matrix(1, 0, 0, 1, -9, -6)" filter="url(#Path_11627)">
        <path id="Path_11627-2" data-name="Path 11627" d="M831.5,404.913a21.4,21.4,0,1,0,21.4,21.4A21.4,21.4,0,0,0,831.5,404.913Zm0,44.552a23.182,23.182,0,1,1,23.182-23.182A23.182,23.182,0,0,1,831.5,449.465Z" transform="translate(-1.78 35.02)" fill="#1d2a49"/>
      </g>
      <path id="Path_11628" data-name="Path 11628" d="M831.5,597.363a21.4,21.4,0,1,0,21.4,21.4A21.4,21.4,0,0,0,831.5,597.363Zm0,44.581a23.182,23.182,0,1,1,23.182-23.182A23.182,23.182,0,0,1,831.5,641.945Z" transform="translate(-10.783 -49.051)" fill="#1d2a49"/>
      <path id="Path_11629" data-name="Path 11629" d="M1034.77,221.043H915.292a.892.892,0,1,1,0-1.783H1034.77a.892.892,0,0,1,0,1.783Z" transform="translate(-53.807 103.578)" fill="#1d2a49"/>
      <path id="Path_11630" data-name="Path 11630" d="M952.384,262.683H918.5a.892.892,0,1,1,0-1.783h33.882a.892.892,0,0,1,0,1.783Z" transform="translate(-55.109 86.689)" fill="#1d2a49"/>
      <path id="Path_11631" data-name="Path 11631" d="M-456.437,334.783l-.369.172-5.944,20.87c-2.205-3.275-7.311-10.931-10.628-16.335l-.279-.452-.529.03c-1.118.059-2.128.089-3.091.089-19.5,0-35.368-10.171-35.368-22.671s15.859-22.683,35.362-22.683c9.659,0,18.427,2.5,24.811,6.539l-29.608,24.443-16.709-17.9a.9.9,0,0,0-1.26-.042.892.892,0,0,0-.048,1.26l17.833,19.128,31.338-25.839c5.6,4.012,9.011,9.3,9.011,15.1,0,7.181-5.427,14.016-14.522,18.3Zm6.9-34.536,2.11-1.742a.892.892,0,0,0,.119-1.254.9.9,0,0,0-1.254-.125l-2.491,2.057c-6.723-4.417-16-7.133-26.232-7.133-20.484,0-37.151,10.967-37.151,24.454s16.644,24.454,37.151,24.454c.838,0,1.712,0,2.657-.065,4.351,7.044,11.389,17.428,11.466,17.535l1.07,1.581,6.782-23.777c9.511-4.595,15.176-11.948,15.176-19.735,0-6.23-3.566-11.888-9.4-16.24Z" transform="translate(525.703 74.055)" fill="#1d2a49"/>
      <path id="Path_11632" data-name="Path 11632" d="M1011.79,1405.745H912.32V1313.42h99.47v92.325Z" transform="translate(-439.93 -803.84)" fill="#aac3df"/>
      <g transform="matrix(1, 0, 0, 1, -9, -6)" filter="url(#Path_11633)">
        <path id="Path_11633-2" data-name="Path 11633" d="M408.278,298.6H-92.787A16.133,16.133,0,0,1-108.92,282.47V-68.885A16.133,16.133,0,0,1-92.787-85H408.278a16.133,16.133,0,0,1,16.133,16.133V282.47A16.133,16.133,0,0,1,408.278,298.6Z" transform="translate(370.23 232.98)" fill="#d7e9fa"/>
      </g>
      <path id="Path_11634" data-name="Path 11634" d="M-93.4-84.747a15.259,15.259,0,0,0-15.241,15.241V281.849A15.259,15.259,0,0,0-93.4,297.09H407.67a15.259,15.259,0,0,0,15.241-15.241V-69.506A15.259,15.259,0,0,0,407.67-84.747ZM407.67,298.874H-93.4a17.042,17.042,0,0,1-17.024-17.024V-69.506A17.042,17.042,0,0,1-93.4-86.53H407.67a17.042,17.042,0,0,1,17.024,17.024V281.849A17.042,17.042,0,0,1,407.67,298.874Z" transform="translate(361.84 227.6)" fill="#1d2a49"/>
      <path id="Path_11635" data-name="Path 11635" d="M1069.716,1046.777H596.16V739.1h473.556v307.677Z" transform="translate(-311.702 -570.906)" fill="#fff"/>
      <path id="Path_11636" data-name="Path 11636" d="M-54.557,265.283H417.216v-305.9H-54.557ZM419,267.067H-56.34V-42.4H419V267.067Z" transform="translate(339.906 209.702)" fill="#1d2a49"/>
      <path id="Path_11637" data-name="Path 11637" d="M1028.625,1511.641H823.14V1466.81h205.485v44.831Z" transform="translate(-403.761 -866.052)" fill="#486b95"/>
      <path id="Path_11638" data-name="Path 11638" d="M616.194-7.642a5.772,5.772,0,0,1-5.772,5.766,5.772,5.772,0,0,1-5.772-5.772,5.772,5.772,0,0,1,5.772-5.772,5.772,5.772,0,0,1,5.772,5.772Z" transform="translate(71.822 197.948)" fill="#aac3df"/>
      <path id="Path_11639" data-name="Path 11639" d="M651.274-7.8A5.772,5.772,0,0,1,645.5-2.026,5.772,5.772,0,0,1,639.73-7.8,5.772,5.772,0,0,1,645.5-13.57,5.772,5.772,0,0,1,651.274-7.8Z" transform="translate(57.594 198.009)" fill="#aac3df"/>
      <path id="Path_11640" data-name="Path 11640" d="M686.348-7.8a5.766,5.766,0,0,1-1.687,4.081,5.766,5.766,0,0,1-4.079,1.691A5.766,5.766,0,0,1,676.5-3.715,5.766,5.766,0,0,1,674.81-7.8a5.766,5.766,0,0,1,1.689-4.083,5.766,5.766,0,0,1,4.083-1.689,5.766,5.766,0,0,1,4.079,1.691A5.766,5.766,0,0,1,686.348-7.8Z" transform="translate(43.366 198.009)" fill="#aac3df"/>
      <path id="Path_11641" data-name="Path 11641" d="M1023.971,1182.1H809.13V1075h214.841v107.1Z" transform="translate(-398.079 -707.141)" fill="#c3494c"/>
      <path id="Path_11642" data-name="Path 11642" d="M1006.927,966.43H807.654l-23.664,49.23v31.106h239.123V1015.66l-16.186-49.23Z" transform="translate(-387.882 -663.107)" fill="#aac3df"/>
      <path id="Path_11643" data-name="Path 11643" d="M357.137,202.721a7.341,7.341,0,0,1-7.317,7.294H227.767a7.317,7.317,0,0,1,0-14.635H349.819a7.341,7.341,0,0,1,7.317,7.317Z" transform="translate(227.646 113.263)" fill="#1d2a49"/>
      <path id="Path_11644" data-name="Path 11644" d="M1008.114,929.417l-4.3,20.579-3,14.379H924.2L927.208,950l7.4-35.415,73.506,14.837Z" transform="translate(-444.749 -642.078)" fill="#fff"/>
      <path id="Path_11645" data-name="Path 11645" d="M273.52,182.781h74.814l6.978-33.371-71.758-14.486Zm76.234,1.783h-78.4l10.818-51.714,75.253,15.187-7.644,36.545Z" transform="translate(207.002 138.624)" fill="#1d2a49"/>
      <path id="Path_11646" data-name="Path 11646" d="M312.577,171.668a8.405,8.405,0,1,1-6.539-9.927A8.405,8.405,0,0,1,312.577,171.668Z" transform="translate(197.029 126.977)" fill="#aac3df"/>
      <path id="Path_11647" data-name="Path 11647" d="M286.773,216.127a.892.892,0,0,1-.737-1.391,9.3,9.3,0,0,1,15.378,0,.892.892,0,1,1-1.474,1,7.519,7.519,0,0,0-12.429,0,.892.892,0,0,1-.737.392Z" transform="translate(201.107 107.062)" fill="#1d2a49"/>
      <path id="Path_11648" data-name="Path 11648" d="M369.084,178.345a.864.864,0,0,1-.178,0l-32.021-6.574a.91.91,0,1,1,.369-1.783l32.021,6.58a.9.9,0,1,1-.178,1.783Z" transform="translate(180.717 123.569)" fill="#1d2a49"/>
      <path id="Path_11649" data-name="Path 11649" d="M348.7,192.538a.867.867,0,0,1-.178,0l-15.247-3.133a.892.892,0,1,1,.357-1.748l15.241,3.115a.9.9,0,1,1-.178,1.783Z" transform="translate(182.176 116.402)" fill="#1d2a49"/>
      <path id="Path_11650" data-name="Path 11650" d="M304.143,170.977,298,160.8a.892.892,0,0,1,1.528-.921l5.243,8.69L323.1,158.09a.893.893,0,0,1,.886,1.551l-19.848,11.342Z" transform="translate(196.244 128.435)" fill="#1d2a49"/>
      <path id="Path_11651" data-name="Path 11651" d="M332.258,393.742h-74.3A16.893,16.893,0,0,1,241.11,376.9v-5.534a16.9,16.9,0,0,1,16.846-16.852h74.3A16.9,16.9,0,0,1,349.1,371.362V376.9A16.893,16.893,0,0,1,332.258,393.742Z" transform="translate(219.266 48.723)" fill="#fff"/>
      <path id="Path_11652" data-name="Path 11652" d="M257.367,354.783a15.978,15.978,0,0,0-15.954,15.96v5.534a15.972,15.972,0,0,0,15.954,15.954h74.3a15.972,15.972,0,0,0,15.954-15.954v-5.534a15.978,15.978,0,0,0-15.966-15.96Zm74.3,39.232h-74.3a17.755,17.755,0,0,1-17.737-17.737v-5.534A17.761,17.761,0,0,1,257.367,353h74.3a17.761,17.761,0,0,1,17.737,17.743v5.534a17.755,17.755,0,0,1-17.749,17.737Z" transform="translate(219.867 49.335)" fill="#1d2a49"/>
      <path id="Path_11657" data-name="Path 11657" d="M334.932,500.153a10.759,10.759,0,1,0,10.759,10.759,10.759,10.759,0,0,0-10.759-10.759Zm0,23.3a12.542,12.542,0,1,1,12.542-12.542A12.542,12.542,0,0,1,334.932,523.455Z" transform="translate(186.301 -9.624)" fill="#1d2a49"/>
      <path id="Path_11658" data-name="Path 11658" d="M722.971,507.453a5.807,5.807,0,1,0,5.807,5.807A5.808,5.808,0,0,0,722.971,507.453Zm0,13.4a7.591,7.591,0,1,1,7.591-7.591A7.591,7.591,0,0,1,722.971,520.851Z" transform="translate(26.912 -12.585)" fill="#1d2a49"/>
      <path id="Path_11659" data-name="Path 11659" d="M517.384,762.2H-525.928a.892.892,0,0,1-.892-.892.892.892,0,0,1,.892-.892H517.384a.892.892,0,0,1,0,1.783Z" transform="translate(530.724 -115.907)" fill="#1d2a49"/>
      <path id="Path_11660" data-name="Path 11660" d="M631.337,738.6H440.79V704.582a.166.166,0,0,1,.166-.172H631.337V738.6Z" transform="translate(138.28 -93.19)" fill="#d7e9fa"/>
      <path id="Path_11661" data-name="Path 11661" d="M386.566,723.559l31.6,15.015a.089.089,0,0,0,.125-.077V704.58a.083.083,0,0,0-.125-.077l-31.6,15.015a2.235,2.235,0,0,0,0,4.042Z" transform="translate(160.792 -93.223)" fill="#fff"/>
      <path id="Path_11662" data-name="Path 11662" d="M418.575,727.519H586.16v9.576H418.575Zm0-11.365H586.16v9.582H418.575Zm0-11.46H586.16v9.677H418.575Zm-1.783,31.879-17.345-8.239c-.25-1.611-.238-12.833-.238-14.765l17.583-8.322V736.6Zm1.058-33.662a2.724,2.724,0,0,0-.66.149l-31.611,15.009a3.127,3.127,0,0,0,0,5.653l31.2,15.158H609.11V702.91Z" transform="translate(161.399 -92.581)" fill="#1d2a49"/>
      <path id="Path_11663" data-name="Path 11663" d="M54.437,316.673H6.681l8.262-29.62H62.7Zm-8.756,31.421H-2.075l8.262-29.626h47.75Zm-8.756,31.4H-10.83l8.262-29.62H45.188L36.925,379.5Zm-8.762,31.4h-47.75l8.262-29.626H36.432l-8.262,29.626Zm-8.756,31.4h-47.75l8.256-29.62H27.67ZM10.67,473.707H-37.1l8.256-29.626H18.914ZM1.9,505.11h-47.75l8.262-29.62h47.75L1.9,505.11ZM-6.86,536.525H-54.615l8.262-29.626H1.4Zm161.783,19.021L71.384,255.9l-8.191,29.37H15.425l7.2-25.816a.892.892,0,0,0-1.718-.476L13.588,285.27H5.213a.892.892,0,1,0,0,1.783h7.882l-8.262,29.62H-3.091a.892.892,0,0,0-.892.892.892.892,0,0,0,.892.892H4.333l-8.256,29.638h-6.128a.892.892,0,0,0-.892.892.892.892,0,0,0,.892.892h5.629l-8.256,29.608H-19.4a.892.892,0,0,0-.892.892.892.892,0,0,0,.892.892h6.218l-8.251,29.626h-5.183a.892.892,0,0,0-.892.892.892.892,0,0,0,.892.892h4.678L-30.2,442.3h-5.76a.9.9,0,0,0-.892.892.892.892,0,0,0,.892.892h5.267l-8.262,29.626h-6.033a.892.892,0,0,0-.892.892.892.892,0,0,0,.892.892h5.54L-47.7,505.11h-6.313a.9.9,0,0,0-.892.892.892.892,0,0,0,.892.892h5.837l-8.286,29.632h-7.2a.892.892,0,0,0-.892.892.892.892,0,0,0,.892.892h6.705l-4.8,17.238a.892.892,0,0,0,.594,1.1,1.1,1.1,0,0,0,.238.03.886.886,0,0,0,.856-.654l4.934-17.7H-7.359l-4.8,17.238a.892.892,0,0,0,.21.882.892.892,0,0,0,.874.242.892.892,0,0,0,.634-.649l4.94-17.726H-.03a.892.892,0,0,0,.892-.892.892.892,0,0,0-.892-.892H-5.011L3.245,506.9h6.4a.892.892,0,1,0,0-1.783h-5.9l8.262-29.62h6.663a.892.892,0,0,0,0-1.783H12.506l8.268-29.632H27.7a.892.892,0,1,0,0-1.783H21.262l8.262-29.62h7.519a.892.892,0,1,0,0-1.783H30.018l8.256-29.626H44.26a.892.892,0,0,0,0-1.783H38.774l8.262-29.608h6.574a.892.892,0,1,0,0-1.783H47.524l8.262-29.626h4.755a.892.892,0,1,0,0-1.783h-4.28l8.262-29.62h4.321a.892.892,0,1,0,0-1.783H65.017l6.337-22.731,81.822,293.465a.892.892,0,0,0,.856.654,1.114,1.114,0,0,0,.238-.03.892.892,0,0,0,.594-1.1Z" transform="translate(343.24 88.717)" fill="#1d2a49"/>
      <path id="Path_11664" data-name="Path 11664" d="M913.78,595.288l-8.352-29.62h47.75l8.352,29.62Zm-17.2-61.029h47.75l8.322,29.626h-47.72Zm-8.851-31.4h47.75l8.352,29.62H896.072l-8.322-29.62Zm-8.851-31.409h47.75l8.322,29.626H887.221L878.9,471.447Zm-8.851-31.415h47.75l8.352,29.626H878.37l-8.322-29.626Zm99.571,177.3-5.712-20.264h4.708a.892.892,0,1,0,0-1.783h-5.207l-8.352-29.62h4.214a.892.892,0,0,0,0-1.783h-4.714l-8.352-29.626h5.849a.892.892,0,1,0,0-1.783h-6.354l-8.322-29.62h5.35a.892.892,0,0,0,0-1.783h-5.861l-8.322-29.626h7.246a.892.892,0,1,0,0-1.783H928.04l-8.423-29.626h7.793a.892.892,0,1,0,0-1.783h-8.322l-7.377-26.285a.892.892,0,1,0-1.712.487l7.27,25.8h-47.75l-7.412-26.291-.743-2.657L785.718,617.275a.892.892,0,0,0,1.676.594l73.75-202.756,6.539,23.141h-3.941a.892.892,0,0,0,0,1.783h4.4l8.352,29.626h-4.434a.892.892,0,1,0,0,1.783h4.957l8.322,29.626h-6.319a.892.892,0,0,0,0,1.783h6.848l8.352,29.62h-5.849a.892.892,0,1,0,0,1.783h6.348l8.352,29.626h-7.484a.892.892,0,0,0,0,1.783h7.977l8.352,29.62h-6.984a.892.892,0,0,0,0,1.783h7.5l5.843,20.751a.9.9,0,0,0,.862.648.824.824,0,0,0,.238-.036.886.886,0,0,0,.594-1.1l-5.7-20.264h47.756l5.843,20.751a.892.892,0,0,0,.856.648.827.827,0,0,0,.244-.036.892.892,0,0,0,.594-1.1Z" transform="translate(-1.603 26.501)" fill="#1d2a49"/>
      <path id="Path_11665" data-name="Path 11665" d="M86.018,63.734c-.1.374-.2.737-.291,1.1C81.518,80.128,74.3,84.943,70.521,83.534a3.882,3.882,0,0,1-2.378-3.192C66.955,73.607,75.6,59.6,75.6,59.6S91.492,42.484,86.018,63.734Z" transform="translate(289.464 170.975)" fill="#c3494c"/>
      <path id="Path_11666" data-name="Path 11666" d="M106.565,65.472a3.462,3.462,0,0,1-2.55,3.026c-3.567.85-9.891-3.8-13.582-17.494l-.2-.7c-5-19.432,8.369-5.481,8.369-5.481s9.017,14.5,7.947,20.65Z" transform="translate(280.912 176.292)" fill="#c3494c"/>
      <path id="Path_11667" data-name="Path 11667" d="M104.912,75.605c-3.567.85-9.891-3.8-13.582-17.494l2.532-.672s.166,10.812,11.056,18.171Z" transform="translate(280.014 169.209)" fill="#1d2a49"/>
      <path id="Path_11668" data-name="Path 11668" d="M87.425,71.691C83.217,86.986,75.995,91.8,72.22,90.392,84,83.853,85.416,69.92,85.416,69.92L87.425,71.7Z" transform="translate(287.765 164.147)" fill="#1d2a49"/>
      <path id="Path_11669" data-name="Path 11669" d="M64.94-36.825l-2.164,6.461-1.492-4.886L49.527-76.805,63.2-86.643,78.261-73.928Zm39.826-47.447A18.95,18.95,0,0,0,97.6-92.593c-.684-.446-10.408-7.727-11.2-8.114-6.111-3.091-54.687,6.259-62.937,6.64-.642,0-3.953,3.887-5.421,8.262-.886,2.627-1.225,5.451-.053,7.727.374.731,1.783,3.133,3.228,5.582L53.355-16.87l3.1,5.35L55.329-8.174,53.771-3.525,65.743,3.168,105.171-69.7c1.32-2.651,2.146-8.762-.416-14.569Z" transform="translate(310.065 233.604)" fill="#486b95"/>
      <path id="Path_11670" data-name="Path 11670" d="M70.123-85.069l-3.341-2.039L63.5-85.051C55.061-91.09,38.084-93.337,26.79-94.7a35.2,35.2,0,0,1,8.28-8.1s7.615-.452,8.256-.476c8.262-.374,40.831-1.48,46.959,1.611.785.4,10.509,7.668,11.2,8.114,3.567,2.33-27.8,4.286-31.338,8.488Z" transform="translate(306.19 234.598)" fill="#365370"/>
      <path id="Path_11671" data-name="Path 11671" d="M86.749-262.794s-1.914,14.432-3.465,15.853-8.833,4.006-8.833,4.006l20.21,18.142,15.966-11.68s-6.723-4.452-7.1-6.438c-.505-2.782,2.039-16.679,2.039-16.679L86.743-262.8Z" transform="translate(286.861 299.092)" fill="#fff"/>
      <path id="Path_11672" data-name="Path 11672" d="M93.433-223.715,71.57-243.33l1.415-.5c2.752-.981,7.5-2.883,8.53-3.828.826-.868,2.294-8.625,3.18-15.312l1.783.232c-.458,3.46-2.086,14.86-3.745,16.394-1.248,1.141-5.469,2.823-7.727,3.679l18.57,16.644,14.361-10.5c-2.217-1.534-6.087-4.452-6.426-6.307-.523-2.859,1.783-15.556,2.039-16.994l1.783.321c-1.011,5.522-2.378,14.432-2.039,16.358.178.975,3.614,3.816,6.711,5.855l1.07.707L93.486-223.72Z" transform="translate(288.029 299.161)" fill="#1d2a49"/>
      <path id="Path_11673" data-name="Path 11673" d="M101.753-310.861s-9.178-.184-10.105,5.183A140.07,140.07,0,0,0,90.21-287.25a3.382,3.382,0,0,0,2.847,3.406l18.528,3.156a3.388,3.388,0,0,0,3.822-2.378c1.617-5.564,4.934-17.369,4.571-19.295-1.242-6.539-18.207-8.488-18.207-8.488Z" transform="translate(280.469 318.585)" fill="#1d2a49"/>
      <path id="Path_11674" data-name="Path 11674" d="M96.463-274.325c5.154,1.5,11.888,1.629,14.01.119,1.248-.886,2.378-5.035,3.341-9.832a.4.4,0,0,1,.262-.3c1.427-.523,3.567-1.783,3.929-4.2.309-2.081-1.326-1.908-2.657-1.45a.333.333,0,0,1-.325-.058.333.333,0,0,1-.115-.31c.892-5.825,1.427-10.973,1.427-10.973l-23.5-4s-.838,5.189-1.6,11.038a.333.333,0,0,1-.209.271.333.333,0,0,1-.338-.057c-1.123-.927-2.734-1.783-3.15.357-.523,2.7,1.611,4.8,2.758,5.594a.4.4,0,0,1,.166.369c-.422,4.161-.636,7.727-.285,9.107a4,4,0,0,0,1.4,2l4.892,2.336Z" transform="translate(281.587 316.341)" fill="#fff"/>
      <path id="Path_11675" data-name="Path 11675" d="M104.313-272.956a32.879,32.879,0,0,1-8.714-1.189A.892.892,0,0,1,95-275.251a.892.892,0,0,1,1.106-.594c5.421,1.587,11.573,1.433,13.25.25.315-.226,1.462-1.551,2.972-9.279a1.3,1.3,0,0,1,.826-.963c.9-.333,3.037-1.337,3.353-3.489.071-.476,0-.654-.03-.666a2.521,2.521,0,0,0-1.456.19,1.189,1.189,0,0,1-1.189-.22,1.218,1.218,0,0,1-.428-1.129c.672-4.381,1.147-8.417,1.332-10.105l-21.78-3.751c-.273,1.73-.886,5.76-1.456,10.105a1.225,1.225,0,0,1-.773,1,1.225,1.225,0,0,1-1.23-.2c-.9-.743-1.361-.814-1.456-.779s-.16.149-.25.594c-.505,2.592,2.092,4.488,2.378,4.7a1.29,1.29,0,0,1,.547,1.189c-.636,6.224-.47,8.179-.309,8.791a3.133,3.133,0,0,0,1.106,1.54.892.892,0,0,1,.113,1.254.892.892,0,0,1-1.254.113,4.844,4.844,0,0,1-1.688-2.461c-.333-1.284-.256-4.274.232-9.136-1.706-1.284-3.406-3.638-2.883-6.325a2.341,2.341,0,0,1,1.4-1.962,2.677,2.677,0,0,1,2.413.505c.719-5.409,1.474-10.105,1.48-10.105l.143-.886,25.215,4.3-.089.832c0,.048-.493,4.755-1.308,10.171a2.657,2.657,0,0,1,2.318.363,2.378,2.378,0,0,1,.654,2.3c-.428,2.9-2.942,4.274-4.25,4.8-1.563,7.858-2.829,9.54-3.65,10.105-1.189.856-3.477,1.224-6.063,1.224Z" transform="translate(282.201 317.047)" fill="#1d2a49"/>
      <path id="Path_11676" data-name="Path 11676" d="M95.144-310.993c2.93,5.255,18.546,12.6,28.948-1.486s-13.731-5.7-21.34-4.755C99.5-316.831,92.647-315.493,95.144-310.993Z" transform="translate(278.685 322.522)" fill="#1d2a49"/>
      <path id="Path_11677" data-name="Path 11677" d="M-46.773-112.23s-4.411,6.081-8,8.459-19.616,1.878-19.616,5.944,21.994,2.063,24.52,0,10.551-9.368,10.551-9.368l-7.43-5.023Z" transform="translate(347.227 238.024)" fill="#fff"/>
      <path id="Path_11678" data-name="Path 11678" d="M-47.186-111.853c-1.284,1.694-4.726,6.021-7.727,8-1.623,1.076-5.029,1.551-8.976,2.1-3.84.541-10.266,1.438-10.266,3.067,0,.143.238.351.624.535,4.226,2.015,20.436.4,22.439-1.224s7.555-6.646,9.671-8.572l-5.784-3.905Zm-19.17,16.388c-3.347,0-6.319-.309-7.924-1.076a2.384,2.384,0,0,1-1.641-2.14c0-3.18,5.736-3.983,11.805-4.833,3.418-.481,6.949-.975,8.233-1.825,3.418-2.265,7.727-8.191,7.769-8.251l.505-.7,9.089,6.117-.838.761c-.327.3-8.054,7.341-10.593,9.4-1.593,1.3-9.731,2.526-16.406,2.526Z" transform="translate(347.848 238.859)" fill="#1d2a49"/>
      <path id="Path_11679" data-name="Path 11679" d="M80.9-93.722l1.973-4.327L76.6-107.186a.892.892,0,0,0-.573-.374.892.892,0,0,0-.669.142.892.892,0,0,0-.374.573.892.892,0,0,0,.142.669l5.7,8.322-1.9,4.161L55.39-82.808,71.511-34.256a.893.893,0,0,0,1.129.565.893.893,0,0,0,.565-1.129L57.583-81.857l20.305-9.4a.892.892,0,0,0,.523.85.885.885,0,0,0,.369.083.892.892,0,0,0,.814-.523l.541-1.189L96.869-77.863,73.193-8.215a.892.892,0,0,0,.559,1.129.88.88,0,0,0,.285.048.892.892,0,0,0,.844-.594l24.056-70.8Z" transform="translate(294.591 236.135)" fill="#1d2a49"/>
      <path id="Path_11680" data-name="Path 11680" d="M100.513-131.353s-11.888,3.133-13.232,3.644c-3.085,1.189-4.8-39.422-7.2-42.656-1.242-1.67-9.457-18.308-10.105-18.231-1.783.226-1.486,35.112-3.763,35.2-15.33.594-55.281-1.4-55.982-1.658-1.349-.5,4.666-37.2,4.666-37.2-2.562,3.18-8.6,18.344-15.752,25.857a71.6,71.6,0,0,1-24.472,16.644c-1.32-1.326-8.667-8.387-9.112-10.105-.69-2.615,16.751-19.842,18.207-22.291l25.1-41.7,18.665-8.678a5.819,5.819,0,0,1,4.755,1.421c12.911,11.52,28.045,7.192,33.567,5.053a5.772,5.772,0,0,1,4.488.119l13.214,10.628,19.574,37.758c1.094,5.189,2.413,44.611-2.633,46.222Z" transform="translate(331.034 286.843)" fill="#c3494c"/>
      <path id="Path_11681" data-name="Path 11681" d="M-158.294,179.7h0a.892.892,0,0,1-.886-.9l.065-15.027a.892.892,0,0,1,.892-.886h0a.892.892,0,0,1,.886.9l-.065,15.027a.892.892,0,0,1-.892.886Z" transform="translate(381.616 126.44)" fill="#1d2a49"/>
      <path id="Path_11682" data-name="Path 11682" d="M407.722-149.122a.874.874,0,0,1-.434-.113.892.892,0,0,1-.339-1.189l11.365-20.169a.892.892,0,0,1,1.189-.339.886.886,0,0,1,.339,1.189l-11.365,20.169a.886.886,0,0,1-.779.452Z" transform="translate(152.048 261.874)" fill="#1d2a49"/>
      <path id="Path_11683" data-name="Path 11683" d="M379.64-139.153a.892.892,0,0,1-.814-.523l-6.17-13.7a.9.9,0,0,1-.021-.688.9.9,0,0,1,.473-.5.892.892,0,0,1,.688-.026.892.892,0,0,1,.5.472l6.17,13.7a.892.892,0,0,1,.026.688.891.891,0,0,1-.472.5.9.9,0,0,1-.369.077Z" transform="translate(165.946 255.228)" fill="#1d2a49"/>
      <path id="Path_11684" data-name="Path 11684" d="M-193.6,194.211a.886.886,0,0,1-.529-.172l-18.647-13.719a.892.892,0,0,1-.354-.585.892.892,0,0,1,.164-.664.892.892,0,0,1,.585-.354.892.892,0,0,1,.664.164l18.647,13.719a.892.892,0,0,1,.354.585.892.892,0,0,1-.164.664A.892.892,0,0,1-193.6,194.211Z" transform="translate(403.503 120.025)" fill="#1d2a49"/>
      <path id="Path_11685" data-name="Path 11685" d="M738.106,794.306l-6.313,18.849-3.1-5.356,7.924-18.379,1.492,4.886Z" transform="translate(-365.454 -591.315)" fill="#365370"/>
      <path id="Path_11686" data-name="Path 11686" d="M77.28,91a.886.886,0,0,1-.374-.083l-5.671-2.609a.892.892,0,0,1,.743-1.623l5.677,2.609A.892.892,0,0,1,77.28,91Z" transform="translate(288.376 157.381)" fill="#1d2a49"/>
      <path id="Path_11687" data-name="Path 11687" d="M79.709,84.193a.892.892,0,0,1-.374-.083l-5.653-2.6a.892.892,0,0,1,.743-1.617L80.1,82.5a.892.892,0,0,1-.374,1.7Z" transform="translate(287.362 160.127)" fill="#1d2a49"/>
      <path id="Path_11688" data-name="Path 11688" d="M82.056,77.33a.886.886,0,0,1-.374-.083L76,74.637a.892.892,0,1,1,.743-1.623l5.671,2.61a.892.892,0,0,1-.374,1.7Z" transform="translate(286.441 162.925)" fill="#1d2a49"/>
      <path id="Path_11689" data-name="Path 11689" d="M104.893,75.406a.892.892,0,0,1-.374-1.7l5.671-2.61a.892.892,0,1,1,.743,1.617l-5.671,2.61a.892.892,0,0,1-.374.083Z" transform="translate(274.875 163.714)" fill="#1d2a49"/>
      <path id="Path_11690" data-name="Path 11690" d="M102.393,68.9a.892.892,0,0,1-.374-1.7l5.677-2.61a.892.892,0,0,1,.743,1.623l-5.677,2.609a.892.892,0,0,1-.374.083Z" transform="translate(275.888 166.34)" fill="#1d2a49"/>
      <path id="Path_11691" data-name="Path 11691" d="M122.64-278.913h-.16a.892.892,0,0,1-.719-1.034l.1-.553a.892.892,0,0,1,1.034-.719.892.892,0,0,1,.719,1.034l-.1.547a.892.892,0,0,1-.874.731Z" transform="translate(267.678 306.568)" fill="#1d2a49"/>
      <path id="Path_11692" data-name="Path 11692" d="M104.312-282.036h-.143a.892.892,0,0,1-.737-1.022l.089-.553a.892.892,0,0,1,1.022-.737.892.892,0,0,1,.737,1.022l-.089.553a.892.892,0,0,1-.88.749Z" transform="translate(275.111 307.836)" fill="#1d2a49"/>
      <path id="Path_11693" data-name="Path 11693" d="M105.062-286.679a.891.891,0,0,1-.374-.083,4.648,4.648,0,0,0-3.275-.083.892.892,0,0,1-1.153-.511.892.892,0,0,1,.511-1.153,6.4,6.4,0,0,1,4.66.155.891.891,0,0,1,.461.505.892.892,0,0,1-.033.683.892.892,0,0,1-.808.511Z" transform="translate(276.417 309.668)" fill="#1d2a49"/>
      <path id="Path_11694" data-name="Path 11694" d="M124.663-282.947a.886.886,0,0,1-.594-.214,4.654,4.654,0,0,0-3.121-1.01.892.892,0,0,1-.951-.8.892.892,0,0,1,.8-.975,6.4,6.4,0,0,1,4.452,1.427.892.892,0,0,1,.1,1.254.892.892,0,0,1-.678.315Z" transform="translate(268.389 308.486)" fill="#1d2a49"/>
      <path id="Path_11695" data-name="Path 11695" d="M113.64-274.973Zm-2.057,1.468h-.077a.892.892,0,0,1-.886-.892.892.892,0,0,1,.892-.892h.042a12.252,12.252,0,0,0,1.843-.131,11.645,11.645,0,0,1-1.189-3.5.892.892,0,0,1,.7-1.052.892.892,0,0,1,.672.132.892.892,0,0,1,.38.569,9.433,9.433,0,0,0,1.1,3.186,1.6,1.6,0,0,1,.25,1.444c-.125.339-.416,1.135-3.733,1.135Z" transform="translate(272.191 306.064)" fill="#1d2a49"/>
      <path id="Path_11696" data-name="Path 11696" d="M113.647-267.176c.267.594-1.866,2.086-3.965,1.629-3.43-.743-4.1-3.293-3.293-2.972a10.557,10.557,0,0,0,3.513,1.45c2.223.434,3.567-.493,3.745-.1Z" transform="translate(274.032 301.423)" fill="#1d2a49"/>
      <path id="Path_11697" data-name="Path 11697" d="M887.921,815.649l-70.308,26.22L782.37,747.344l70.308-26.214,35.243,94.519Z" transform="translate(-387.225 -563.618)" fill="#fff"/>
      <path id="Path_11698" data-name="Path 11698" d="M131.734-32.916l34.619,92.854,68.632-25.6L200.372-58.511Zm33.573,95.149L129.44-33.962,201.418-60.8l35.867,96.177L165.307,62.233Z" transform="translate(264.558 217.165)" fill="#1d2a49"/>
      <path id="Path_11699" data-name="Path 11699" d="M171.75,1.147a8.405,8.405,0,1,1-10.812-4.94,8.405,8.405,0,0,1,10.812,4.94Z" transform="translate(254.002 194.259)" fill="#fff"/>
      <path id="Path_11700" data-name="Path 11700" d="M163.268-4.044A7.519,7.519,0,1,0,170.306.848h0A7.531,7.531,0,0,0,163.268-4.044Zm0,16.816A9.3,9.3,0,1,1,171.982.23h0a9.3,9.3,0,0,1-8.7,12.548Z" transform="translate(254.608 194.867)" fill="#1d2a49"/>
      <path id="Path_11701" data-name="Path 11701" d="M190.32,50.967a8.405,8.405,0,1,1-10.812-4.94A8.405,8.405,0,0,1,190.32,50.967Z" transform="translate(246.47 174.053)" fill="#aac3df"/>
      <path id="Path_11702" data-name="Path 11702" d="M208.26,99.067a8.405,8.405,0,1,1-10.812-4.94,8.405,8.405,0,0,1,10.812,4.94Z" transform="translate(239.194 154.545)" fill="#fff"/>
      <path id="Path_11703" data-name="Path 11703" d="M199.751,93.876a7.513,7.513,0,1,0,7.074,4.892h0a7.531,7.531,0,0,0-7.05-4.892Zm0,16.816a9.3,9.3,0,1,1,8.7-12.548h0a9.3,9.3,0,0,1-8.7,12.548Z" transform="translate(239.814 155.152)" fill="#1d2a49"/>
      <path id="Path_11704" data-name="Path 11704" d="M841.76,763.8,872.4,752.38,841.76,763.8Z" transform="translate(-411.313 -576.293)" fill="#fff"/>
      <path id="Path_11705" data-name="Path 11705" d="M190.149-15.908a.892.892,0,0,1-.838-.594.892.892,0,0,1,.523-1.147l30.636-11.389a.892.892,0,0,1,1.147.523.892.892,0,0,1-.523,1.147l-30.63,11.407a.88.88,0,0,1-.309.059Z" transform="translate(240.298 204.306)" fill="#1d2a49"/>
      <path id="Path_11706" data-name="Path 11706" d="M848.05,784.729l14.587-5.439-14.587,5.439Z" transform="translate(-413.864 -587.207)" fill="#fff"/>
      <path id="Path_11707" data-name="Path 11707" d="M196.365,5a.892.892,0,0,1-.285-1.748l14.587-5.439a.892.892,0,0,1,1.147.523.892.892,0,0,1-.013.7.892.892,0,0,1-.51.475L196.7,4.944a.9.9,0,0,1-.309.053Z" transform="translate(237.791 193.416)" fill="#1d2a49"/>
      <path id="Path_11708" data-name="Path 11708" d="M857.71,810.309l30.63-11.419-30.63,11.419Z" transform="translate(-417.782 -595.156)" fill="#fff"/>
      <path id="Path_11709" data-name="Path 11709" d="M206.1,30.568a.892.892,0,0,1-.309-1.73L236.42,17.42a.892.892,0,1,1,.594,1.67L206.407,30.515A.891.891,0,0,1,206.1,30.568Z" transform="translate(233.83 185.476)" fill="#1d2a49"/>
      <path id="Path_11710" data-name="Path 11710" d="M863.99,831.239l14.587-5.439-14.587,5.439Z" transform="translate(-420.329 -606.07)" fill="#fff"/>
      <path id="Path_11711" data-name="Path 11711" d="M212.388,51.552a.892.892,0,0,1-.309-1.73l14.575-5.439a.892.892,0,0,1,.594,1.67l-14.587,5.439a.886.886,0,0,1-.309.059Z" transform="translate(231.279 174.514)" fill="#1d2a49"/>
      <path id="Path_11712" data-name="Path 11712" d="M879.16,864.085l30.63-11.425-30.63,11.425Z" transform="translate(-426.481 -616.964)" fill="#fff"/>
      <path id="Path_11713" data-name="Path 11713" d="M227.548,84.388a.892.892,0,0,1-.309-1.73l30.63-11.425a.892.892,0,0,1,.594,1.67L227.857,84.328a.88.88,0,0,1-.309.059Z" transform="translate(225.13 163.624)" fill="#1d2a49"/>
      <path id="Path_11714" data-name="Path 11714" d="M885.44,885.019l14.587-5.439-14.587,5.439Z" transform="translate(-429.028 -627.883)" fill="#fff"/>
      <path id="Path_11715" data-name="Path 11715" d="M233.828,105.278a.892.892,0,0,1-.309-1.73l14.587-5.439a.892.892,0,1,1,.594,1.67l-14.539,5.445a.892.892,0,0,1-.309.053Z" transform="translate(222.583 152.75)" fill="#1d2a49"/>
      <path id="Path_11716" data-name="Path 11716" d="M180.425,49.337l-10.61-5.35a.892.892,0,1,1,.8-1.593l9.065,4.565,9.974-18.611a.892.892,0,1,1,1.569.844Z" transform="translate(248.381 181.211)" fill="#1d2a49"/>
      <path id="Path_11717" data-name="Path 11717" d="M175.6-45.59c.345,2.586,5.98,9.422,8.138,9.451s6.325-10.064,5.629-11.823c-1.664-4.22-1.783-4.476-8.2-14.688-.178-.285-5.427.559-6.539.7-1.742.226-1.153,2.378-.743,6.206.38,3.567,1.474,8.405,1.706,10.147Z" transform="translate(246.706 217.939)" fill="#fff"/>
      <path id="Path_11718" data-name="Path 11718" d="M180.062-62.426c-.987.042-3.7.434-4.8.594l-1.1.155c-.517.065-.5.856-.166,3.567.065.517.131,1.082.2,1.682.238,2.211.755,4.934,1.189,7.133.238,1.254.446,2.342.535,3h0c.327,2.455,5.819,8.661,7.27,8.679.137-.036.779-.493,1.783-2.182,1.9-3.216,3.263-7.6,3.014-8.429-1.617-4.1-1.712-4.286-7.894-14.171Zm3.109,26.565h0c-2.823-.036-8.655-7.567-9.011-10.224h0c-.083-.594-.285-1.676-.517-2.907-.422-2.217-.951-4.981-1.189-7.264-.065-.594-.131-1.147-.2-1.652-.357-2.919-.642-5.231,1.712-5.528l1.07-.155c5.724-.838,5.944-.761,6.337-.137,6.438,10.283,6.592,10.563,8.274,14.86.713,1.783-1.837,8.167-3.775,10.973-.975,1.409-1.825,2.063-2.675,2.063Z" transform="translate(247.288 218.547)" fill="#1d2a49"/>
      <path id="Path_11719" data-name="Path 11719" d="M832.152,709.13l.9,5.278L820.62,717.82l-1.48-5.879,13.012-2.812Z" transform="translate(-402.138 -558.751)" fill="#c3494c"/>
      <path id="Path_11720" data-name="Path 11720" d="M409.278,1396.05l-9.463,81.8-11.306-5.843-5.409-74.831,26.178-1.129Z" transform="translate(-225.289 -837.353)" fill="#fff"/>
      <path id="Path_11721" data-name="Path 11721" d="M-262.29,690.826l9.719,5.023,9.2-79.486-24.217,1.052Zm11.193,7.793-12.9-6.669-5.5-76.24,28.14-1.189Z" transform="translate(426.36 -56.732)" fill="#1d2a49"/>
      <path id="Path_11722" data-name="Path 11722" d="M-246.891,742.284s18.379,5.9,19.021,10.7l-32.99-.1.036-10.652,13.957.042Z" transform="translate(422.856 -108.529)" fill="#c3494c"/>
      <path id="Path_11723" data-name="Path 11723" d="M250.743,1359.12l-79.593-9.089-1.67-12.62,68.465-1.361,12.8,23.069Z" transform="translate(-138.649 -813.018)" fill="#fff"/>
      <path id="Path_11724" data-name="Path 11724" d="M-479.763,568.61l77.173,8.791-11.7-21.084-66.932,1.326,1.45,10.943Zm80.419,10.979-82.03-9.368-1.9-14.3,70-1.385,13.9,25.049Z" transform="translate(513.061 -32.406)" fill="#1d2a49"/>
      <path id="Path_11725" data-name="Path 11725" d="M-484.834,569.685s-4.987,18.647-9.766,19.5l-1.51-32.955,10.64-.487.642,13.945Z" transform="translate(518.269 -32.892)" fill="#c3494c"/>
      <path id="Path_11726" data-name="Path 11726" d="M-345.994,471.918s-34.2,48.38-40.884,53.777c-12.483,10.105-75.812-6.669-75.812-6.669l1.516-22.136,59.591-.262s17.179-31.159,19.836-47.791,23.7-30.577,23.7-30.577l32.64,37.4s7.169,60.631,7.335,84.538l-4.161,62.658H-345.97l-3.846-61.879-9.225-62.129,13.018-6.943Z" transform="translate(504.714 22.867)" fill="#aac3df"/>
      <path id="Path_11727" data-name="Path 11727" d="M-218.806,320.5s-6.128,14.034-5.57,16.133,5.849,9.005,5.849,9.005l-25.762,27.938L-268,361.852l8.013-25.786s14.712-4.862,16.109-6.485c1.926-2.241,7.228-16.121,7.228-16.121l17.833,7.044Z" transform="translate(425.752 65.372)" fill="#fff"/>
      <path id="Path_11728" data-name="Path 11728" d="M-244.8,374.092-269.77,361.7l8.369-26.945.434-.149c7.1-2.378,14.92-5.314,15.71-6.218,1.5-1.742,5.611-12.037,7.074-15.859a.9.9,0,0,1,1.153-.517.9.9,0,0,1,.517,1.153c-.547,1.438-5.409,14.094-7.383,16.388-1.391,1.611-12.132,5.3-16.049,6.6l-7.65,24.621,22.41,11.128,24.805-26.933c-1.361-1.783-5.041-6.812-5.546-8.714-.594-2.229,4.161-13.363,5.611-16.721a.892.892,0,0,1,.5-.479.892.892,0,0,1,.691.021.886.886,0,0,1,.481.5.886.886,0,0,1-.023.692c-2.853,6.539-5.778,14.343-5.522,15.55.374,1.4,3.691,6.075,5.695,8.69l.458.594-26.749,29.008Z" transform="translate(426.47 65.983)" fill="#1d2a49"/>
      <path id="Path_11729" data-name="Path 11729" d="M-320.811,353.2c-6.206-1.248-17.666-5.041-24.151-3.733-2.794.559-25.37,27.5-24.966,29.2s1.819,11.1,0,8.649a37.888,37.888,0,0,1-3.032-4.952.351.351,0,0,0-.339-.184.351.351,0,0,0-.3.238c-.951,2.936-5.653,10.307-8.108,11.157-3.263,1.129-2.657-13.838,3.828-19.925,2.2-2.069,13.773-43.8,28.532-45.657s40.724,1.439,40.724,1.439-3.679,25.471-12.156,23.777Z" transform="translate(472.654 59.707)" fill="#fff"/>
      <path id="Path_11730" data-name="Path 11730" d="M-369.675,378.106Zm30.583-50.383a89.716,89.716,0,0,0-10.795.553c-10.7,1.343-20.151,25.988-24.7,37.829-1.9,4.946-2.693,6.978-3.347,7.591-4.286,4.024-6,12.483-5.35,16.792.184,1.189.5,1.611.594,1.658,2.069-.725,6.64-7.727,7.579-10.61a1.242,1.242,0,0,1,1.082-.856,1.236,1.236,0,0,1,1.189.672,40.969,40.969,0,0,0,2.277,3.87,49.674,49.674,0,0,0-.832-6.937c-.1-.434,0-.939.939-2.378,3.394-5.243,21.649-27.29,24.728-27.938,5.112-1.022,12.952.933,19.253,2.5,1.938.481,3.763.939,5.249,1.236h0a3.341,3.341,0,0,0,2.675-.648c4.975-3.513,7.656-17.732,8.28-21.47a276.809,276.809,0,0,0-28.794-1.878Zm-43.595,66.2a1.962,1.962,0,0,1-1.67-1.052c-1.872-3.1-.594-15.033,5.225-20.478a55.15,55.15,0,0,0,2.9-6.925c5.029-13.077,14.391-37.49,26.154-38.964,14.712-1.843,40.688,1.409,40.95,1.439l.9.113-.155.892c-.113.773-2.823,19.1-9.16,23.569a5.088,5.088,0,0,1-4.054.939h0c-1.522-.3-3.37-.767-5.35-1.254-6.128-1.528-13.755-3.43-18.469-2.479-2.407.8-23.182,25.019-24.252,28.288.19.892.523,2.942.719,4.862.386,3.775.059,4.678-.684,5.023-.327.155-.981.267-1.682-.66a36.1,36.1,0,0,1-2.556-4.036c-1.557,3.5-5.689,9.725-8.227,10.6a1.991,1.991,0,0,1-.63.107Z" transform="translate(473.269 60.31)" fill="#1d2a49"/>
      <path id="Path_11731" data-name="Path 11731" d="M-193.453,268.923c2.936,1.54,10.105,5.189,7.947,10.67a148.79,148.79,0,0,1-9.041,17.862,3.656,3.656,0,0,1-4.518,1.575l-18.885-7.466a3.668,3.668,0,0,1-2.187-4.363c1.629-6.057,5.189-18.843,6.61-20.424,4.833-5.35,15.39-.285,20.038,2.146Z" transform="translate(406.391 85.264)" fill="#1d2a49"/>
      <path id="Path_11732" data-name="Path 11732" d="M-216.683,299.189c-.594-1.462.648-5.813,2.425-10.64a.434.434,0,0,0-.059-.41c-.945-1.224-2.116-3.519-1.129-5.867.856-2.039,2.176-1.022,3.079.1a.339.339,0,0,0,.326.133.339.339,0,0,0,.268-.228c2.378-5.73,4.69-10.658,4.69-10.658l22.439,8.869s-2.075,5.124-4.571,10.807c-.113.256-6.491,13.636-7.525,14.664a4.119,4.119,0,0,1-2.283,1.064s-1.908.594-10.064-2.621Z" transform="translate(404.999 82.341)" fill="#fff"/>
      <path id="Path_11733" data-name="Path 11733" d="M-200.207,307.14c-1.189,0-4-.4-9.879-2.722a.9.9,0,0,1-.5-.489.9.9,0,0,1,0-.7.892.892,0,0,1,.476-.49.892.892,0,0,1,.683-.009c7.448,2.972,9.433,2.6,9.511,2.58h.059a3.293,3.293,0,0,0,1.783-.814c.9-.975,6.9-13.434,7.341-14.4,1.872-4.268,3.531-8.268,4.22-9.945l-20.8-8.233c-.737,1.6-2.52,5.516-4.321,9.861a1.266,1.266,0,0,1-.975.761,1.224,1.224,0,0,1-1.123-.44c-.648-.808-1.046-.951-1.141-.945s-.214.131-.422.594c-.9,2.14.4,4.2,1.01,4.981a1.308,1.308,0,0,1,.19,1.26c-2.865,7.793-2.586,9.618-2.437,9.992a.892.892,0,0,1,.009.7.892.892,0,0,1-.5.491.892.892,0,0,1-.7.009.892.892,0,0,1-.491-.5c-.392-.951-.594-3.127,2.324-11.05-.838-1.189-2.277-3.733-1.088-6.539a2.442,2.442,0,0,1,1.819-1.7,2.651,2.651,0,0,1,2.164.915c2.235-5.35,4.351-9.855,4.375-9.9l.357-.761,24.056,9.511-.339.832c0,.053-2.11,5.2-4.583,10.824-.053.131-6.5,13.725-7.727,14.938a4.981,4.981,0,0,1-2.728,1.308,3.162,3.162,0,0,1-.7.059Z" transform="translate(405.649 83.14)" fill="#1d2a49"/>
      <path id="Path_11734" data-name="Path 11734" d="M-196.613,298.292a.9.9,0,0,1-.369-.083.886.886,0,0,1-.474-.5.886.886,0,0,1,.028-.689l.208-.458a.9.9,0,0,1,1.189-.446.9.9,0,0,1,.446,1.189l-.208.458a.9.9,0,0,1-.814.523Z" transform="translate(397.163 72.438)" fill="#1d2a49"/>
      <path id="Path_11735" data-name="Path 11735" d="M-180.315,304.614a.844.844,0,0,1-.333-.071.886.886,0,0,1-.485-.478.886.886,0,0,1,0-.681l.22-.547a.9.9,0,0,1,.492-.494.9.9,0,0,1,.7.007.886.886,0,0,1,.489.477.886.886,0,0,1,0,.683l-.22.547a.9.9,0,0,1-.826.559Z" transform="translate(390.548 69.908)" fill="#1d2a49"/>
      <path id="Path_11736" data-name="Path 11736" d="M-195.926,292.111a.886.886,0,0,1-.66-.3h0s-1.575-1.7-3.061-1.028a.892.892,0,0,1-.689.023.892.892,0,0,1-.5-.475.892.892,0,0,1-.026-.688.892.892,0,0,1,.472-.5c2.681-1.189,5.023,1.355,5.118,1.468a.886.886,0,0,1,.225.642.886.886,0,0,1-.3.612.886.886,0,0,1-.594.232Z" transform="translate(398.545 75.362)" fill="#1d2a49"/>
      <path id="Path_11737" data-name="Path 11737" d="M-201.079,266.753s-9.445-6.741-11.817,8.447c-1.355,8.684-1.094-3.1,10.218-5.391,1.189-.238,1.6-3.055,1.6-3.055Z" transform="translate(403.632 84.92)" fill="#1d2a49"/>
      <path id="Path_11738" data-name="Path 11738" d="M157.609,1369.979l-2.764.125-1.6-35.011,3.156-.143,1.213,35.029Z" transform="translate(-132.062 -812.572)" fill="#1d2a49"/>
      <path id="Path_11739" data-name="Path 11739" d="M388.376,1536.707l-.006,2.948,35.047.107.012-3.162-35.053.107Z" transform="translate(-227.426 -894.357)" fill="#1d2a49"/>
      <path id="Path_11740" data-name="Path 11740" d="M-493.449,567.893a.892.892,0,0,1-.892-.85.891.891,0,0,1,.231-.643.892.892,0,0,1,.619-.29l6.384-.291a.88.88,0,0,1,.646.228.88.88,0,0,1,.287.622.892.892,0,0,1-.231.643.892.892,0,0,1-.619.29l-6.384.291Z" transform="translate(517.552 -36.979)" fill="#1d2a49"/>
      <path id="Path_11741" data-name="Path 11741" d="M-250.108,753.363h0a.891.891,0,0,1-.633-.263.891.891,0,0,1-.259-.634v-6.39a.892.892,0,0,1,.892-.886h0a.886.886,0,0,1,.632.259.886.886,0,0,1,.259.632v6.39a.892.892,0,0,1-.892.892Z" transform="translate(418.857 -109.729)" fill="#1d2a49"/>
      <path id="Path_11742" data-name="Path 11742" d="M-189.133,305.722a6.844,6.844,0,0,1-1.064-.089.892.892,0,0,1-.579-.363.892.892,0,0,1-.152-.666.886.886,0,0,1,.361-.581.886.886,0,0,1,.667-.15,3.46,3.46,0,0,0,1.438,0c.166-.279.178-.446.19-2.812V298.91a8.47,8.47,0,0,1,.791-3.6,1.658,1.658,0,0,1,1.427-.69,8.7,8.7,0,0,1,5.944,2.895.892.892,0,0,1-.16,1.248.892.892,0,0,1-1.248-.16,6.937,6.937,0,0,0-4.541-2.2,8.323,8.323,0,0,0-.44,2.544v2.128c0,2.746,0,3.032-.5,3.8a2.308,2.308,0,0,1-2.14.868Z" transform="translate(394.498 73.014)" fill="#1d2a49"/>
      <path id="Path_11743" data-name="Path 11743" d="M-177.576,263.157c-2.972-2.378-5.2.089-8.054.844s-2.675-2.1-5.35-4.827-4.3.25-7.727,1.266-3.4-.333-6.539-1.129c-2.211-.594-3.055,1.456-3.358,2.663a4.642,4.642,0,0,0-2.015.874c-2.8,2.235.975,3.84-2.086,8.482-1.486,2.247,2.722,6.539,2.919,4.321s1.718-3.679,2.913-4.969a5.478,5.478,0,0,0,.464-.594,15.015,15.015,0,0,1,2.633-.137c2.015.184,3.733,1.534,6.188,3.465s4.47,1.028,6.818.19,4.868.553,5.433,2.075a.779.779,0,0,0,.291.339,3.269,3.269,0,0,0-.107,1.367c.369,1.652-.4,2.253-1.944,5.76s1.629,1.254,2.063,1.153,1.783-1.783,2.14-4.208,1.641-1.783,2.526-4.161a5.141,5.141,0,0,0,.256-2.211,2.972,2.972,0,0,1,.541-1.783c.9-.969,3.079-.214,5-2.508s0-3.882-3-6.283Z" transform="translate(403.454 87.844)" fill="#1d2a49"/>
      <path id="Path_11744" data-name="Path 11744" d="M-192.459,315.531a1.284,1.284,0,0,1-.6,1.145,1.284,1.284,0,0,1-1.291.044c-3.216-1.617-5.213-5.284-4.5-4.755.279.208,2.17,1.617,3.5,2.378C-193.564,315.389-192.637,314.984-192.459,315.531Z" transform="translate(397.764 65.999)" fill="#1d2a49"/>
      <path id="Path_11745" data-name="Path 11745" d="M-271.318,499.7l4.821-10.379a.892.892,0,0,0,.031-.685.892.892,0,0,0-.464-.5.891.891,0,0,0-.685-.03.891.891,0,0,0-.5.464l-4.47,9.618-5.177,1.367-9.671,17.185a.9.9,0,0,0,.339,1.219.892.892,0,0,0,.434.113.892.892,0,0,0,.779-.458l7.133-12.667,6.152,60.381,2.461,61.6a.892.892,0,0,0,.892.856h.036a.9.9,0,0,0,.856-.927l-2.461-61.653-6.414-62.949.654-1.189,5.261-1.391Z" transform="translate(433.682 -5.438)" fill="#1d2a49"/>
      <path id="Path_11746" data-name="Path 11746" d="M-353.107,473.446a.892.892,0,0,0-.437-.533.892.892,0,0,0-.686-.062l-13.82,4.47a.892.892,0,0,0-.533.437.891.891,0,0,0-.062.686.9.9,0,0,0,.85.594.892.892,0,0,0,.273-.048l4.946-1.6-29.281,50.526-60.708-1.5a.885.885,0,0,0-.639.242.886.886,0,0,0-.276.625.892.892,0,0,0,.248.642.892.892,0,0,0,.631.274l61.225,1.545h.529l30.809-53.147,6.337-2.051a.892.892,0,0,0,.533-.437.891.891,0,0,0,.062-.686Z" transform="translate(500.979 0.743)" fill="#1d2a49"/>
      <path id="Path_11747" data-name="Path 11747" d="M-193.1,361.209c-.88-.291-2.116-.1-5.76.594-4.066.8-11.145,2.241-24.092,4.369-19.877,3.216-38.726-28.074-41.859-26.368-16.281,8.916-20.947-7.793-21.946-10.432-2.74-7.282-54.687-8.875-65.44-4.482C-363.118,329.342-375.31,364-375.31,364l14.058,7.323,20.323-18.908,11.383,3.864-17.886,43.945,62.586,24.33s8.916-23.486,10.7-28.039c0,0,5.041-8.322,9.808-17.755,9.4,6.449,24.561,12.4,34.661,10.373C-200.6,383.292-193.8,378.5-191.872,376.8c.327-.285-1.189-15.562-1.189-15.562Z" transform="translate(469.274 61.723)" fill="#c3494c"/>
      <path id="Path_11748" data-name="Path 11748" d="M665.324,1120.594l-71.146,6.949-9.338-95.654,71.146-6.949,9.338,95.654Z" transform="translate(-307.111 -686.838)" fill="#fff"/>
      <path id="Path_11749" data-name="Path 11749" d="M-65.856,252.038l9.166,93.883,69.375-6.788L3.524,245.25Zm7.567,95.814L-67.8,250.421l.886-.089L5.123,243.3l9.511,97.431-.886.089Z" transform="translate(344.554 93.827)" fill="#1d2a49"/>
      <path id="Path_11750" data-name="Path 11750" d="M-43.071,275.417a6.9,6.9,0,0,0-.7.036A7.068,7.068,0,0,0-48.551,278a7.068,7.068,0,0,0-1.587,5.213,7.068,7.068,0,0,0,2.562,4.8,7.032,7.032,0,0,0,5.213,1.587,7.133,7.133,0,0,0,6.426-7.763,7.133,7.133,0,0,0-7.133-6.426Zm0,16.02a8.916,8.916,0,0,1-8.851-8.036,8.839,8.839,0,0,1,1.985-6.539,8.851,8.851,0,0,1,6.01-3.21,8.916,8.916,0,0,1,9.725,7.995,8.916,8.916,0,0,1-7.995,9.725,8.631,8.631,0,0,1-.874.042Z" transform="translate(338.133 81.534)" fill="#1d2a49"/>
      <path id="Path_11751" data-name="Path 11751" d="M-29.544,332.8a8.013,8.013,0,0,1-7.192,8.75,8.013,8.013,0,0,1-8.75-7.193,8.007,8.007,0,0,1,7.192-8.75,8,8,0,0,1,5.867,1.781A8,8,0,0,1-29.544,332.8Z" transform="translate(335.52 60.462)" fill="#aac3df"/>
      <path id="Path_11752" data-name="Path 11752" d="M-33.369,374.507a6.872,6.872,0,0,0-.7.03,7.05,7.05,0,0,0-4.809,2.568,7.068,7.068,0,0,0-1.587,5.207,7.133,7.133,0,0,0,7.775,6.4,7.133,7.133,0,0,0,6.39-7.775,7.133,7.133,0,0,0-7.08-6.426Zm0,16.014a8.916,8.916,0,0,1-8.863-8.036,8.839,8.839,0,0,1,1.985-6.539,8.839,8.839,0,0,1,6.01-3.2,8.916,8.916,0,0,1,9.725,7.989,8.916,8.916,0,0,1-7.995,9.725,8.6,8.6,0,0,1-.874.042Z" transform="translate(334.203 41.345)" fill="#1d2a49"/>
      <path id="Path_11753" data-name="Path 11753" d="M-13.607,275.23a.892.892,0,0,1-.886-.8.892.892,0,0,1,.2-.654.891.891,0,0,1,.6-.321L17.3,270.427a.9.9,0,0,1,.172,1.783l-31,3.026Z" transform="translate(322.936 82.827)" fill="#1d2a49"/>
      <path id="Path_11754" data-name="Path 11754" d="M-11.977,293.363a.886.886,0,0,1-.886-.8.892.892,0,0,1,.2-.654.892.892,0,0,1,.6-.321L2.7,290.147a.9.9,0,0,1,.172,1.783l-14.759,1.444Z" transform="translate(322.275 74.829)" fill="#1d2a49"/>
      <path id="Path_11755" data-name="Path 11755" d="M-10.327,321.956a.892.892,0,0,1-.886-.808.9.9,0,0,1,.8-.975l31-3.026a.9.9,0,1,1,.172,1.783l-31,3.026Z" transform="translate(321.605 63.878)" fill="#1d2a49"/>
      <path id="Path_11756" data-name="Path 11756" d="M-8.667,340.089a.892.892,0,0,1-.886-.808.886.886,0,0,1,.2-.652.885.885,0,0,1,.6-.317l14.759-1.444a.9.9,0,0,1,.172,1.783l-14.759,1.438Z" transform="translate(320.932 55.88)" fill="#1d2a49"/>
      <path id="Path_11757" data-name="Path 11757" d="M-3.727,376.716a.892.892,0,0,1-.886-.808.892.892,0,0,1,.8-.975l31-3.026a.9.9,0,1,1,.172,1.783l-31.011,3.026Z" transform="translate(318.929 41.669)" fill="#1d2a49"/>
      <path id="Path_11758" data-name="Path 11758" d="M-2.088,394.849a.892.892,0,0,1-.915-.8.892.892,0,0,1,.2-.654.892.892,0,0,1,.6-.321l14.759-1.444a.9.9,0,0,1,.172,1.783L-2,394.819Z" transform="translate(318.276 33.67)" fill="#1d2a49"/>
      <path id="Path_11759" data-name="Path 11759" d="M-39.251,331.2l-8.482-7.567a.886.886,0,0,1-.3-.612.886.886,0,0,1,.225-.642.892.892,0,0,1,.614-.3.891.891,0,0,1,.646.223l7.187,6.408,13.707-14.67A.892.892,0,0,1-24.39,314a.892.892,0,0,1,.042,1.26Z" transform="translate(336.537 65.252)" fill="#1d2a49"/>
      <path id="Path_11760" data-name="Path 11760" d="M-59.5,387.406c-4.8.594-9.029,5.35-9.029,5.35l-1.082-10.735s4.7-.755,5.35-2.455,8.1-11.966,8.322-8.8c.149,2.229-3.091,7.882-3.216,9.166-.036.321-.3,7.454-.3,7.454Z" transform="translate(345.288 42.373)" fill="#fff"/>
      <path id="Path_11761" data-name="Path 11761" d="M-60.188,386.813Zm-9.154-4.642.814,8.06a16.6,16.6,0,0,1,7.466-4.161c.083-2.164.25-6.5.279-6.782a14.393,14.393,0,0,1,1.23-3.246,27.456,27.456,0,0,0,1.95-5.213,38.592,38.592,0,0,0-6.539,8.494c-.624,1.682-3.531,2.52-5.2,2.865Zm-.594,12.126L-71.31,380.7l.832-.137c1.979-.321,4.369-1.189,4.636-1.884.44-1.189,6.479-10.331,8.916-9.968a1.355,1.355,0,0,1,1.129,1.421c.107,1.593-1.088,4.262-2.14,6.616a18.853,18.853,0,0,0-1.082,2.7c0,.291-.2,4.583-.3,7.395v.761l-.755.089c-4.411.535-8.429,5.029-8.47,5.07L-69.9,394.3Z" transform="translate(345.978 42.967)" fill="#1d2a49"/>
      <path id="Path_11762" data-name="Path 11762" d="M572.11,1168.227l1.9,18.088,6.539-3.911-1.86-14.973-6.58.8Z" transform="translate(-301.948 -744.629)" fill="#c3494c"/>
      <path id="Path_11763" data-name="Path 11763" d="M1066.241,270.459c-1.124-5.409-1.783-21.34-14.433-25.75,8.851-7.918-7.567-14.819-11.7-10.527-3.786,3.923-.88,7.858.178,9.047-2.942.3-5.225.053-9.416,3.989-8.114,7.62-3.513,20.371-3.21,25.56s2.556,29.531,2.556,29.531l41.205,8.881s.678-12.483-5.177-40.736Z" transform="translate(-99.105 98.06)" fill="#1d2a49"/>
      <path id="Path_11764" data-name="Path 11764" d="M1048.64,248.746l.053,1.189s9.63,1.569,12.673,1.652l.285-1.225s-11.169-1.016-13.012-1.623Z" transform="translate(-108.252 91.621)" fill="#aac3df"/>
      <path id="Path_11765" data-name="Path 11765" d="M1706.052,1405.12l-.892,19.842,10.783-.963.737-19.889-10.628,1.01Z" transform="translate(-761.491 -840.622)" fill="#fff"/>
      <path id="Path_11766" data-name="Path 11766" d="M1055.271,625.258l-.808,18.047,8.982-.8.672-18.082Zm-2.681,20,.969-21.631,12.411-1.189-.8,21.684-12.578,1.123Z" transform="translate(-109.854 -59.944)" fill="#1d2a49"/>
      <path id="Path_11767" data-name="Path 11767" d="M1041.6,651.472s-16.376-2.52-16.822,4.541,0,6.616,0,6.616h28.253l.428-8.322s-10.337,1.783-11.888-2.841Z" transform="translate(-98.493 -71.542)" fill="#c3494c"/>
      <path id="Path_11768" data-name="Path 11768" d="M1620.832,1299.451l-.892,19.842,10.783-.963.737-19.889-10.628,1.011Z" transform="translate(-726.927 -797.764)" fill="#fff"/>
      <path id="Path_11769" data-name="Path 11769" d="M970.051,519.588l-.808,18.047,8.982-.8.672-18.082Zm-2.681,20,.969-21.631,12.411-1.189-.8,21.684-12.578,1.123Z" transform="translate(-75.291 -17.087)" fill="#1d2a49"/>
      <path id="Path_11770" data-name="Path 11770" d="M956.387,545.793s-16.376-2.514-16.822,4.547,0,6.616,0,6.616h28.253l.428-8.322s-10.337,1.783-11.888-2.847Z" transform="translate(-63.933 -28.682)" fill="#c3494c"/>
      <path id="Path_11771" data-name="Path 11771" d="M1589.64,1344.067l29.359-.018v-1.629l-29.359.018v1.629Z" transform="translate(-714.638 -815.602)" fill="#1d2a49"/>
      <path id="Path_11772" data-name="Path 11772" d="M1013.854,436.191l2.764,107.263,16.049,1.67s5.944-81.81,12.364-96.605c7.727-17.833-2.455-37.769-2.455-37.769l-30.559,3.2a7.805,7.805,0,0,1-.886,3.388c-1.1,1.724-22.469,8.393-41.716,25.441-3.608,3.192-2.859,22.832-2.859,38.637l14.956.357,3.525-25.56,29.067-10.224-.25-9.731Z" transform="translate(-74.934 25.913)" fill="#c3494c"/>
      <path id="Path_11773" data-name="Path 11773" d="M1049.7,319.917c5.605,1.391,28.354,7.727,18.986,47.155l-1.385,1.641.523,5.005-29.519,8.548-1.112-4.928s-2.14-.559-5.35-4.8-3.953-14.86-3.953-14.86l.161-24.211s2.865-6.741,4.714-8.393c4.595-4.1,10.967-6.6,16.947-5.124Z" transform="translate(-99.836 62.915)" fill="#486b95"/>
      <path id="Path_11774" data-name="Path 11774" d="M1674.86,1449.736l29.359-.018v-1.629l-29.359.018v1.629Z" transform="translate(-749.202 -858.459)" fill="#1d2a49"/>
      <path id="Path_11775" data-name="Path 11775" d="M944.947,356.9s-9.511-3.465-9.338-1.985,8.916,3.935,8.916,4.161c-.065.351-4.827-.808-5.124.22-.4,1.409,6.539,1.314,10.408,1.439s10.949,2.211,10.949,2.211l-2.716-4.411s-4.488-2.069-5.112-3.382-4.09-8.815-4.03-6.265a30.492,30.492,0,0,0,.594,4.755c.048.256-.82.3-1.034.161-2.128-1.427-8.7-5.974-8.815-4.428-.137,1.819,6.539,5.278,6.449,5.415-.386.47-7.43-4.535-9.463-3.828-2.919,1.016,8.53,6.027,8.53,6.027l-.166-.077Z" transform="translate(-62.408 51.214)" fill="#fff"/>
      <path id="Path_11776" data-name="Path 11776" d="M944.578,359.05c.987.042,1.956.059,2.716.077l1.932.048a48.893,48.893,0,0,1,8.976,1.647l-1.391-2.259c-1.337-.63-4.636-2.3-5.3-3.691l-.143-.3c-.88-1.861-1.528-3.156-2.015-4.06.119.927.268,1.783.369,2.318a1.01,1.01,0,0,1-.452,1.04,2.075,2.075,0,0,1-1.956.03l-.475-.321a59.4,59.4,0,0,0-6.247-3.846,30.4,30.4,0,0,0,4.327,3.008c1.135.7,1.314.8,1.385,1.254l.071.4-.262.321c-.594.749-1.355.345-3.8-1a26.617,26.617,0,0,0-5.528-2.55,42.843,42.843,0,0,0,7.864,4.274l.071.036.125.053a.893.893,0,0,1-.719,1.635l-.149-.065a64.374,64.374,0,0,0-6.325-1.968c1.641.725,3.905,1.5,4.892,1.831,1.956.666,2.378.808,2.217,1.617a1,1,0,0,1-.214.481Zm17.541,4.755-2.229-.66c-.065,0-7.008-2.051-10.7-2.176l-1.908-.048c-5.8-.125-8.322-.351-9.124-1.4a1.278,1.278,0,0,1-.2-1.129,1.32,1.32,0,0,1,.856-.9c-3.4-1.3-4.571-2.134-4.666-3.127a1.141,1.141,0,0,1,.446-1.028c.172-.137.517-.4,1.89-.25-1.248-.915-1.86-1.7-1.837-2.342a1.415,1.415,0,0,1,1.07-1.278,4.268,4.268,0,0,1,2.693.309,2.032,2.032,0,0,1-.273-1.118,1.189,1.189,0,0,1,.672-1c.951-.464,2.6.089,9,4.4a28.349,28.349,0,0,1-.386-3.816c0-1.052.511-1.331.832-1.409.862-.208,1.474,0,4.755,6.984l.143.291c.291.594,2.651,2.021,4.678,2.972l.244.113,4.072,6.622Z" transform="translate(-61.813 51.857)" fill="#1d2a49"/>
      <path id="Path_11777" data-name="Path 11777" d="M1048.9,356.228a65.289,65.289,0,0,1-13.672,31.724c-5.73,7.2-17.3,15.7-27.141,24.015l-7.4-7.46,23.9-23.331,6.045-30.315,18.243,5.391Z" transform="translate(-88.805 50.203)" fill="#486b95"/>
      <path id="Path_11778" data-name="Path 11778" d="M1008,333.492s-2.812-3.638-5.35,1.611c-3.061,6.36-10.955,17.179-12.875,18.148s-25.394-4.815-25.394-4.815l-3.727,9.826s15.984,5.8,26.327,10.176,23.6-14.581,23.6-14.581L1008,333.5Z" transform="translate(-72.565 57.745)" fill="#486b95"/>
      <path id="Path_11779" data-name="Path 11779" d="M1035.34,384.832a.9.9,0,0,1-.648-.279.886.886,0,0,1,.036-1.26l2.764-2.627,5.813-29.192a.892.892,0,1,1,1.748.351l-5.944,29.721-3.174,3.008a.879.879,0,0,1-.594.25Z" transform="translate(-102.496 50.256)" fill="#1d2a49"/>
      <path id="Path_11780" data-name="Path 11780" d="M1012.582,414.91a.868.868,0,0,1-.678-.321.88.88,0,0,1,.107-1.254l25.923-21.9c1.849-2.413,8.821-22.106,13.077-34.857a.892.892,0,1,1,1.688.565c-1.106,3.3-10.884,32.39-13.452,35.487l-.107.113L1013.146,414.7a.88.88,0,0,1-.594.214Z" transform="translate(-93.266 48.151)" fill="#1d2a49"/>
      <path id="Path_11781" data-name="Path 11781" d="M1027.011,373.21a.9.9,0,0,1-.856-.636c-3.2-10.539-.82-26.154-.719-26.8a.9.9,0,1,1,1.783.273c0,.155-2.413,15.859.672,26.006a.892.892,0,0,1-.594,1.112.824.824,0,0,1-.261.042Z" transform="translate(-98.458 52.575)" fill="#1d2a49"/>
      <path id="Path_11782" data-name="Path 11782" d="M1056.575,311.69c.755-.743-1.343-15.58-1.343-15.58l-13.077,2.574s-.155,14.32-.594,16.644c0,0,8.464,2.818,15.027-3.632Z" transform="translate(-105.381 72.409)" fill="#fff"/>
      <path id="Path_11783" data-name="Path 11783" d="M1055.241,310.332ZM1055.087,310.558Zm-13.261,3.388a14.389,14.389,0,0,0,13.279-3.489c.208-1.254-.487-7.84-1.338-14.01L1042.33,298.7C1042.295,301.392,1042.152,310.653,1041.825,313.946Zm3.519,2.176a16.418,16.418,0,0,1-4.791-.678l-.743-.25.155-.767c.357-1.831.547-12.513.594-16.471v-.725l14.706-2.9.131.933c2.164,15.283,1.439,16,1.088,16.341h0a15.55,15.55,0,0,1-11.145,4.518Z" transform="translate(-104.671 73.131)" fill="#1d2a49"/>
      <path id="Path_11784" data-name="Path 11784" d="M1050.973,285.024c2.074-1.129,5.748-3.46,6.063-6.021s-2.639-2.52-3.566-2.193c-.594.22,1.5-14.153,1.5-14.153l-19.717-3.216s-4.387,12.774-4.3,19.937,3.2,9.315,8.363,10a12.108,12.108,0,0,0,6.295-.713l5.35-3.638Z" transform="translate(-101.081 87.281)" fill="#fff"/>
      <path id="Path_11785" data-name="Path 11785" d="M1040.563,289.728a14.953,14.953,0,0,1-1.968-.137c-6.4-.85-9.047-4-9.136-10.878-.089-7.228,4.161-19.705,4.345-20.21l.25-.713,21.322,3.483-.125.868c-.767,5.183-1.5,10.89-1.6,12.988a3.965,3.965,0,0,1,2.728.725,2.71,2.71,0,0,1,.939,2.609c-.345,2.788-3.739,5.183-6.539,6.7a.892.892,0,0,1-.85-1.563c3.37-1.837,5.415-3.786,5.611-5.35.077-.63-.131-.874-.291-1a2.735,2.735,0,0,0-2.1-.232l-.47.166-.428-.327c-.44-.363-.862-.707,1.1-14.1l-18.1-2.972c-.9,2.77-4.084,12.958-4.012,18.926.089,6.776,2.972,8.518,7.591,9.13a11.347,11.347,0,0,0,5.837-.66.892.892,0,1,1,.672,1.652,12.6,12.6,0,0,1-4.755.909Z" transform="translate(-100.472 87.951)" fill="#1d2a49"/>
      <path id="Path_11786" data-name="Path 11786" d="M1037.209,283.363a1.1,1.1,0,0,1-.2,0,.892.892,0,0,1-.678-1.064l.143-.636a.892.892,0,1,1,1.742.386l-.143.636a.886.886,0,0,1-.868.7Z" transform="translate(-103.253 78.552)" fill="#1d2a49"/>
      <path id="Path_11787" data-name="Path 11787" d="M1051.449,286.4a1.084,1.084,0,0,1-.2,0,.891.891,0,0,1-.677-1.064l.143-.636a.892.892,0,1,1,1.742.38l-.143.642a.892.892,0,0,1-.868.7Z" transform="translate(-109.029 77.33)" fill="#1d2a49"/>
      <path id="Path_11788" data-name="Path 11788" d="M1056.287,281.691a.879.879,0,0,1-.505-.16,10.92,10.92,0,0,0-4.3-1.29.9.9,0,1,1,.16-1.783,12.538,12.538,0,0,1,5.142,1.593.892.892,0,0,1,.238,1.236.9.9,0,0,1-.737.392Z" transform="translate(-109.075 79.57)" fill="#1d2a49"/>
      <path id="Path_11789" data-name="Path 11789" d="M1040.346,286.061a1.021,1.021,0,0,1-.226,0c-3.026-.791-3.1-1.575-3.133-1.956a1.7,1.7,0,0,1,.719-1.385,7.89,7.89,0,0,0,1.944-2.853c.339-.773.38-1.343.125-1.694-.541-.761-2.419-.856-3.245-.785a.9.9,0,0,1-.963-.808.886.886,0,0,1,.8-.969c.363,0,3.566-.262,4.85,1.516a3.357,3.357,0,0,1,.065,3.454,9.908,9.908,0,0,1-2.176,3.269,12.758,12.758,0,0,0,1.462.487.892.892,0,0,1-.226,1.754Z" transform="translate(-102.948 80.728)" fill="#1d2a49"/>
      <path id="Path_11790" data-name="Path 11790" d="M1047.625,471.873h-.071a.891.891,0,0,1-.915-.868l-.428-17.238a.892.892,0,0,1,1.783-.042l.428,17.238A.892.892,0,0,1,1047.625,471.873Z" transform="translate(-107.266 8.836)" fill="#1d2a49"/>
      <path id="Path_11791" data-name="Path 11791" d="M1031.406,262.129s21.2,4.512,21.827,14.2c0,0,2.289-.826,3.031-.511a2.378,2.378,0,0,1,1.189.868l3.465-14.8-25.358-3.965-4.161,4.208Z" transform="translate(-101.26 87.898)" fill="#1d2a49"/>
      <path id="Path_11792" data-name="Path 11792" d="M1042.066,295.368c.214.5-1.956,1.944-3.353,1.67-3.513-.684-3.822-3.887-3.156-3.263a7.056,7.056,0,0,0,3.567,1.724c2.277.238,2.7-.7,2.972-.131Z" transform="translate(-102.832 73.388)" fill="#1d2a49"/>
      <path id="Path_11793" data-name="Path 11793" d="M949.64,472.065,872.086,298.459a.416.416,0,0,1,.208-.547l30.458-13.606a.416.416,0,0,1,.547.208L980.852,458.12,949.64,472.065Z" transform="translate(-36.631 77.211)" fill="#d7e9fa"/>
      <path id="Path_11794" data-name="Path 11794" d="M873.138,247.7l-.333,14.438-.476,20.21a.416.416,0,0,0,.594.392l30.006-13.4a.422.422,0,0,0,.1-.7l-26.333-22.5a2.158,2.158,0,0,0-3.567,1.587Z" transform="translate(-36.744 92.891)" fill="#fff"/>
      <path id="Path_11795" data-name="Path 11795" d="M893.305,273.661l9.047-4.06,70.141,157.046-9.219,4.274Zm59.573,162.092L882.843,278.339l8.809-3.947,70,157.289Zm-9.778,4.535L872.78,282.833l8.435-3.769L951.279,436.49l-8.161,3.786ZM872.958,261.333c1.659-1.016,10.468-5.154,12.828-6.259l14.807,12.649-28.074,12.542Zm30.523,6.539c-.161-.363-26.945-23.04-26.945-23.04a3.049,3.049,0,0,0-5.029,2.247s-1.04,35.071-.862,35.463L948.2,456.148l.363.814,32.842-14.67L903.541,267.859Z" transform="translate(-36.053 93.503)" fill="#1d2a49"/>
      <path id="Path_11796" data-name="Path 11796" d="M995.421,448.594c1.783-3.376,7.2-5.593,7.2-5.593l-7.395-4s-2.051,3.341-3.489,3.275-9.826-.042-7.6,1.07a30.646,30.646,0,0,0,4.4,1.688.279.279,0,0,1,.036.517c-2.283,1.153-10.593,7.876-9.017,9.231,2.972,2.568,11.966,1.266,15.865-6.164Z" transform="translate(-80.153 14.455)" fill="#fff"/>
      <path id="Path_11797" data-name="Path 11797" d="M994.809,447.767Zm-15.152,5.594c1.1.838,3.186,1.106,5.35.69a12.988,12.988,0,0,0,8.982-6.7c1.278-2.431,4.161-4.262,6.033-5.231l-5.136-2.794c-.826,1.189-2.342,3.073-3.828,2.972-1.129-.053-3.679,0-5.481.119,1.011.4,1.974.713,2.58.9a1.153,1.153,0,0,1,.82,1.011,1.189,1.189,0,0,1-.642,1.147c-2.271,1.153-8.369,6.337-8.708,7.87Zm3.358,2.669a7.091,7.091,0,0,1-4.648-1.421,1.5,1.5,0,0,1-.5-1.361c.279-2.259,5.748-6.753,8.518-8.625a28.345,28.345,0,0,1-3.257-1.331c-.957-.476-.9-1.135-.832-1.4.2-.773.886-1.141,4.4-1.314,1.9-.089,3.846-.077,4.47-.048h0c.476,0,1.783-1.373,2.675-2.853l.44-.719,9.79,5.35-1.736.713c-.054,0-5.154,2.14-6.753,5.183h0a14.8,14.8,0,0,1-10.23,7.614,12.137,12.137,0,0,1-2.378.232Z" transform="translate(-79.541 15.283)" fill="#1d2a49"/>
      <path id="Path_11798" data-name="Path 11798" d="M1661.649,1206.62l-9.909,8.613,6.889,6.937,10.938-9.647-7.918-5.9Z" transform="translate(-739.825 -760.523)" fill="#486b95"/>
      <path id="Path_11799" data-name="Path 11799" d="M603.047-295.677v87.285l27.177-27.183h70.409v-60.1Zm-1.783,91.588V-297.46H702.416v63.674H630.961L601.24-204.065Z" transform="translate(73.205 313.149)" fill="#1d2a49"/>
      <path id="Path_11800" data-name="Path 11800" d="M723.214-270.747H693.642a.892.892,0,0,1-.892-.892.892.892,0,0,1,.892-.892h29.572a.892.892,0,0,1,.892.892A.892.892,0,0,1,723.214-270.747Z" transform="translate(36.09 303.038)" fill="#1d2a49"/>
      <path id="Path_11801" data-name="Path 11801" d="M723.214-247.657H693.642a.892.892,0,0,1-.892-.892.892.892,0,0,1,.892-.892h29.572a.892.892,0,0,1,.892.892A.892.892,0,0,1,723.214-247.657Z" transform="translate(36.09 293.673)" fill="#1d2a49"/>
      <path id="Path_11802" data-name="Path 11802" d="M724.16-224.557H694.612a.892.892,0,0,1-.892-.892.892.892,0,0,1,.892-.892H724.16a.892.892,0,0,1,.892.892.892.892,0,0,1-.892.892Z" transform="translate(35.697 284.304)" fill="#1d2a49"/>
      <path id="Path_11803" data-name="Path 11803" d="M637.079-276.011a15.984,15.984,0,0,0-15.966,15.966,15.984,15.984,0,0,0,15.966,15.966,15.984,15.984,0,0,0,15.966-15.966,15.984,15.984,0,0,0-15.966-15.966Zm0,33.71a17.773,17.773,0,0,1-17.749-17.749A17.773,17.773,0,0,1,637.079-277.8a17.773,17.773,0,0,1,17.749,17.749A17.773,17.773,0,0,1,637.079-242.3Z" transform="translate(65.868 305.176)" fill="#1d2a49"/>
      <path id="Path_11804" data-name="Path 11804" d="M651.366-244.865a.892.892,0,0,1-.63-.262L637.29-258.578a.886.886,0,0,1-.263-.63.886.886,0,0,1,.263-.63.892.892,0,0,1,1.26,0L652-246.368a.886.886,0,0,1,.263.63.886.886,0,0,1-.263.63.88.88,0,0,1-.63.262Z" transform="translate(58.69 297.996)" fill="#1d2a49"/>
      <path id="Path_11805" data-name="Path 11805" d="M636.96-245.249a.88.88,0,0,1-.63-.262.885.885,0,0,1-.263-.63.886.886,0,0,1,.263-.63l13.517-13.517a.892.892,0,0,1,1.26,0,.886.886,0,0,1,.263.63.886.886,0,0,1-.263.63L637.591-245.5a.9.9,0,0,1-.63.262Z" transform="translate(59.079 298.179)" fill="#1d2a49"/>
      <text id="Fill_Details" data-name="Fill Details" transform="translate(512.508 427.054)" fill="#232323" font-size="14" font-family="Poppins-Medium, Poppins" font-weight="500"><tspan x="-35.035" y="0">Fill Details</tspan></text>
    </g>
  </g>
</svg>
